<?xml version="1.0" standalone="no"?>
<!DOCTYPE svg PUBLIC "-//W3C//DTD SVG 1.1//EN" "http://www.w3.org/Graphics/SVG/1.1/DTD/svg11.dtd">
<svg xmlns="http://www.w3.org/2000/svg" width="68" height="68" viewBox="0 0 68 68" fill="none">
<circle cx="34.0466" cy="33.8878" r="31.531" transform="rotate(-4.02934 34.0466 33.8878)" fill="white"/>
<path d="M55.4528 27.7088C54.3821 27.043 52.022 26.9354 50.2215 27.4328C49.8759 25.6095 48.7902 24.0693 46.9867 22.7623L45.9572 22.0937L45.3475 23.2001C44.5718 24.8123 44.2973 26.6416 44.5631 28.4329C44.7052 29.4219 45.082 30.3675 45.6508 31.1761C44.6312 31.8226 43.4627 32.1896 42.2668 32.2416L11.5259 34.407L11.4696 34.7816C11.3003 36.6357 11.705 42.381 15.4888 46.5509C18.3646 49.7213 22.3944 51.1454 27.5342 50.7833C38.673 49.9987 46.5335 43.8538 49.6881 33.5127C51.2243 33.4475 54.4883 33.1746 55.9073 29.6103C55.942 29.5166 56.0163 29.3234 56.2614 28.6186L56.4052 28.2379L55.4267 27.7053L55.4528 27.7088ZM34.9373 16.124L30.2606 16.4534L30.5843 21.0497L35.2611 20.7202L34.9373 16.124ZM35.3258 21.6395L30.6491 21.9689L30.9728 26.5651L35.6496 26.2357L35.3258 21.6395ZM29.795 22.0291L25.1183 22.3585L25.442 26.9547L30.1188 26.6253L29.795 22.0291ZM24.2642 22.4187L19.5926 22.7477L19.9164 27.344L24.5931 27.0145L24.2642 22.4187ZM19.1271 28.3234L14.4555 28.6524L14.7793 33.2487L19.456 32.9192L19.1271 28.3234ZM24.6527 27.9341L19.9811 28.2632L20.3049 32.8594L24.9817 32.53L24.6527 27.9341ZM30.1835 27.5445L25.5068 27.874L25.8306 32.4702L30.5073 32.1407L30.1835 27.5445ZM35.7143 27.1549L31.0376 27.4844L31.3614 32.0806L36.0381 31.7511L35.7143 27.1549ZM41.24 26.7657L36.5632 27.0951L36.887 31.6914L41.5637 31.3619L41.24 26.7657Z" fill="#2496ED"/>
</svg>