<?xml version="1.0" standalone="no"?>
<!DOCTYPE svg PUBLIC "-//W3C//DTD SVG 1.1//EN" "http://www.w3.org/Graphics/SVG/1.1/DTD/svg11.dtd">
<svg xmlns="http://www.w3.org/2000/svg" width="73" height="72" viewBox="0 0 73 72" fill="none">
<circle cx="36.6223" cy="35.9761" r="33.5977" transform="rotate(-4.02934 36.6223 35.9761)" fill="white"/>
<path d="M26.1888 33.0183C26.2276 33.5701 26.3187 34.0133 26.446 34.334C26.5882 34.6537 26.7623 35.0011 26.998 35.3742C27.0808 35.4883 27.119 35.6055 27.1264 35.7099C27.1369 35.859 27.0581 36.0144 26.875 36.1772L25.9813 36.8696C25.8537 36.9685 25.7228 37.0227 25.6037 37.0311C25.4549 37.0416 25.3008 36.9775 25.1424 36.8538C24.9183 36.6447 24.7228 36.4187 24.5572 36.1906C24.3904 35.9476 24.2216 35.6747 24.0337 35.3432C22.9692 36.797 21.5587 37.5858 19.8021 37.7095C18.5517 37.7976 17.5291 37.51 16.7493 36.8455C15.9694 36.181 15.53 35.2528 15.446 34.0598C15.3567 32.7921 15.7308 31.7317 16.5842 30.8922C17.4377 30.0528 18.6161 29.5801 20.1494 29.4721C20.6555 29.4364 21.1797 29.4445 21.7358 29.4802C22.2918 29.516 22.8659 29.5955 23.4708 29.6877L23.3941 28.5991C23.3143 27.4657 23.0204 26.692 22.5264 26.2622C22.0174 25.8335 21.1978 25.6664 20.0516 25.7472C19.5306 25.7839 18.9989 25.8813 18.4575 26.0543C17.9162 26.2273 17.3918 26.4291 16.8855 26.6746C16.6547 26.7957 16.4803 26.868 16.3782 26.9051C16.2761 26.9423 16.2027 26.9625 16.1431 26.9667C15.9347 26.9813 15.82 26.8396 15.798 26.5264L15.7465 25.7956C15.7297 25.557 15.7469 25.376 15.8139 25.2663C15.881 25.1567 16.0076 25.0429 16.2087 24.9238C16.7108 24.6186 17.3203 24.3509 18.0371 24.1206C18.7528 23.8753 19.5206 23.7313 20.3394 23.6736C22.1108 23.5489 23.4343 23.8603 24.3246 24.6069C25.2001 25.3545 25.7031 26.548 25.8186 28.1885L26.159 33.0204L26.1888 33.0183ZM20.3046 35.7108C20.7959 35.6762 21.2957 35.5511 21.819 35.3344C22.3423 35.1177 22.7955 34.756 23.166 34.2803C23.3842 33.9802 23.5408 33.6544 23.6049 33.2902C23.669 32.926 23.698 32.4893 23.6623 31.9823L23.6182 31.3559C23.1792 31.2819 22.7114 31.225 22.2308 31.1989C21.7503 31.1728 21.2867 31.1754 20.8252 31.208C19.8278 31.2782 19.1121 31.5235 18.6492 31.9607C18.1863 32.398 17.988 32.9815 18.0406 33.7271C18.0899 34.428 18.3053 34.9374 18.7027 35.2691C19.0862 35.6168 19.6199 35.759 20.3046 35.7108ZM32.3717 36.4794C32.1038 36.4983 31.922 36.4661 31.7955 36.3701C31.6701 36.289 31.5512 36.0876 31.4419 35.8105L27.1316 24.529C27.0213 24.2371 26.963 24.0463 26.9557 23.9419C26.9388 23.7033 27.0485 23.5607 27.2867 23.544L28.7455 23.4412C29.0283 23.4213 29.225 23.4524 29.3366 23.5494C29.462 23.6305 29.566 23.833 29.6753 24.1101L32.8716 33.8064L34.4984 23.7703C34.5518 23.4668 34.6275 23.2667 34.7403 23.1688C34.8531 23.0709 35.0573 22.9966 35.3252 22.9777L36.5161 22.8938C36.7989 22.8739 36.9956 22.905 37.1221 23.001C37.2474 23.0821 37.3664 23.2835 37.4459 23.5627L40.5017 33.3889L42.3732 23.2156C42.4415 22.9111 42.5321 22.7098 42.63 22.613C42.7427 22.5152 42.9321 22.4419 43.2 22.423L44.5844 22.3255C44.8226 22.3087 44.965 22.4186 44.9828 22.6721C44.9881 22.7467 44.9785 22.8223 44.9699 22.9128C44.9613 23.0033 44.9399 23.1247 44.8919 23.293L42.1164 35.0736C42.0481 35.3781 41.9576 35.5794 41.8448 35.6772C41.732 35.7751 41.5427 35.8484 41.2896 35.8662L40.0094 35.9564C39.7265 35.9763 39.5299 35.9452 39.4034 35.8492C39.277 35.7532 39.1591 35.5667 39.0786 35.2726L36.0936 25.8161L34.4777 35.5817C34.4243 35.8852 34.3486 36.0854 34.2369 36.1982C34.1251 36.3109 33.9199 36.3704 33.6519 36.3892L32.3717 36.4794ZM51.5288 35.5346C50.7548 35.5891 49.9744 35.5542 49.2175 35.4277C48.4605 35.3011 47.8663 35.1482 47.4635 34.9517C47.2159 34.8343 47.0416 34.6967 46.9726 34.5667C46.9036 34.4366 46.8634 34.2896 46.8539 34.1554L46.8003 33.3948C46.7783 33.0816 46.8869 32.9241 47.1101 32.9084C47.1995 32.9021 47.2898 32.9107 47.3813 32.9342C47.4727 32.9578 47.6108 33.008 47.7639 33.0572C48.2858 33.2452 48.8492 33.3854 49.4382 33.4638C50.042 33.5411 50.6268 33.5599 51.2222 33.5179C52.1601 33.4519 52.8779 33.2365 53.3609 32.8727C53.844 32.509 54.0783 32.0129 54.0352 31.4014C54.0058 30.9839 53.8477 30.6503 53.5598 30.3858C53.2719 30.1213 52.7479 29.9035 52.0016 29.7162L49.7959 29.1972C48.685 28.9307 47.8454 28.4803 47.3069 27.8438C46.7694 27.2222 46.4649 26.5093 46.4103 25.7338C46.3662 25.1075 46.4613 24.5463 46.6956 24.0502C46.9299 23.5541 47.2578 23.1113 47.6813 22.7518C48.1037 22.3773 48.592 22.0881 49.1748 21.8672C49.7576 21.6463 50.3776 21.5277 51.0326 21.4816C51.3601 21.4585 51.7035 21.4493 52.0342 21.471C52.3797 21.4916 52.6965 21.5292 53.0133 21.5669C53.3163 21.6205 53.6044 21.6751 53.8787 21.7457C54.1529 21.8163 54.3676 21.8911 54.5228 21.9701C54.7396 22.0747 54.8969 22.1836 54.9956 22.3115C55.0934 22.4245 55.1496 22.5854 55.1643 22.7942L55.2137 23.4951C55.2357 23.8083 55.1282 23.9807 54.9049 23.9964C54.7858 24.0048 54.5881 23.9588 54.3266 23.8573C53.4508 23.5294 52.4844 23.4026 51.4275 23.477C50.579 23.5368 49.9186 23.7182 49.477 24.0341C49.0355 24.3499 48.8278 24.7992 48.8709 25.4106C48.9003 25.8282 49.0744 26.1756 49.3921 26.438C49.7097 26.7004 50.2805 26.945 51.0873 27.1429L53.2484 27.6651C54.3444 27.9326 55.1521 28.3553 55.6566 28.9342C56.1612 29.5132 56.4339 30.1984 56.4885 30.9738C56.5336 31.6151 56.4406 32.2062 56.2233 32.731C55.9911 33.257 55.6653 33.7295 55.229 34.1199C54.7938 34.5253 54.262 34.8325 53.6355 35.0715C52.9803 35.3275 52.288 35.4811 51.5288 35.5346Z" fill="#252F3E"/>
<path fill-rule="evenodd" clip-rule="evenodd" d="M54.8635 42.5783C50.2212 46.5472 43.2411 48.9723 37.1228 49.4032C28.5484 50.0072 20.5987 47.3749 14.3914 42.5067C13.9005 42.1217 14.2774 41.5256 14.8513 41.8149C21.4215 45.0389 29.3635 46.7126 37.417 46.1453C42.8504 45.7625 48.74 44.2087 54.0691 41.4953C54.8616 41.0648 55.6253 41.9252 54.8635 42.5783Z" fill="#FF9900"/>
<path fill-rule="evenodd" clip-rule="evenodd" d="M56.7411 40.1103C56.0592 39.349 52.5754 40.0141 50.9963 40.3201C50.5241 40.4134 50.4203 40.001 50.8299 39.6574C53.4898 37.4918 58.1296 37.7344 58.7117 38.3529C59.2949 38.9862 58.9347 43.6426 56.4702 46.0343C56.0925 46.4057 55.6928 46.254 55.84 45.794C56.3314 44.2756 57.422 40.8567 56.7411 40.1103Z" fill="#FF9900"/>
</svg>