<?xml version="1.0" standalone="no"?>
<!DOCTYPE svg PUBLIC "-//W3C//DTD SVG 1.1//EN" "http://www.w3.org/Graphics/SVG/1.1/DTD/svg11.dtd">
<svg xmlns="http://www.w3.org/2000/svg" width="40" height="40" viewBox="0 0 40 40" fill="none">
<circle cx="20.2678" cy="20.3772" r="18.298" transform="rotate(-4.02934 20.2678 20.3772)" fill="white"/>
<path d="M19.3871 7.23147L8.84357 14.3561L9.74561 27.1587L21.1857 32.7855L31.7271 25.6139L30.825 12.8073L19.3871 7.23147Z" fill="white"/>
<path d="M20.2138 21.9033C18.9314 21.4314 18.1124 20.2873 18.062 19.0143L15.2969 17.667C15.2022 19.1511 15.6271 20.6663 16.5185 21.9424C17.4671 23.3008 18.7674 24.2707 20.4159 24.7693L20.2138 21.9033Z" fill="#1904DA"/>
<path d="M20.5441 24.9091L20.4041 24.8667C18.7641 24.3707 17.4349 23.4066 16.4532 22.0011C15.5572 20.7181 15.1169 19.1769 15.2137 17.6613L15.2233 17.5109L18.1778 18.9505L18.1802 19.011C18.2297 20.2628 19.0485 21.3613 20.2659 21.809L20.3272 21.8316L20.5441 24.9091ZM15.4075 17.8252C15.3513 19.2464 15.7788 20.6823 16.6187 21.8853C17.5456 23.2124 18.7911 24.1351 20.3221 24.6294L20.1351 21.9754C18.8941 21.4929 18.0568 20.3672 17.9817 19.0796L15.4075 17.8252Z" fill="white"/>
<path d="M20.6758 28.4068L20.4438 25.1126C18.6802 24.6058 17.2833 23.568 16.2729 22.1215C15.3172 20.7531 14.8752 19.1199 15.0066 17.5281L12.4365 16.2758C11.3855 21.5393 14.9473 26.8154 20.6758 28.4068Z" fill="#1904DA"/>
<path d="M20.7881 28.536L20.6505 28.4978C17.8597 27.7224 15.4736 26.043 13.9318 23.7685C12.3904 21.495 11.8247 18.8248 12.339 16.2496L12.3647 16.1215L15.1144 17.4611L15.1089 17.53C14.9785 19.11 15.422 20.7176 16.3574 22.0571C17.3831 23.5258 18.7678 24.5191 20.4734 25.0091L20.5412 25.0286L20.7881 28.536ZM12.5123 16.418C11.5514 21.5942 14.987 26.6479 20.5665 28.2642L20.3495 25.1834C18.6296 24.6735 17.2309 23.6608 16.1919 22.1728C15.243 20.8145 14.7863 19.1868 14.9022 17.5822L12.5123 16.418Z" fill="white"/>
<path d="M20.8113 25.0555L21.0454 28.3797C26.3877 25.9622 29.2938 20.2401 27.5429 15.228L25.1874 16.832C25.6136 18.5089 25.463 20.1836 24.7388 21.6268C23.9951 23.1096 22.5962 24.2816 20.8113 25.0555Z" fill="#08B1D5"/>
<path d="M20.9545 28.5296L20.7051 24.9893L20.7707 24.9609C22.5944 24.1703 23.935 23.0009 24.6485 21.5796C25.3611 20.1587 25.5137 18.5251 25.0893 16.855L25.0719 16.7864L27.5944 15.0684L27.6377 15.1926C29.3818 20.1858 26.5043 26.018 21.0866 28.4698L20.9545 28.5296ZM20.9165 25.1175L21.1354 28.2253C26.3287 25.8026 29.0956 20.2108 27.4897 15.3841L25.302 16.8739C25.7171 18.568 25.5538 20.2248 24.8285 21.6701C24.1028 23.117 22.7508 24.3081 20.9165 25.1175Z" fill="white"/>
<path d="M22.3755 18.7292C22.4735 19.9617 21.8251 21.0976 20.5851 21.8815L20.787 24.7477C22.4556 24.0027 23.7668 22.8813 24.4642 21.4913C25.1396 20.1453 25.2915 18.5853 24.9169 17.0155L22.3755 18.7292Z" fill="#08B1D5"/>
<path d="M20.7008 24.9009L20.4845 21.8305L20.5356 21.7982C21.7375 21.0382 22.3731 19.9233 22.2791 18.7393L22.2743 18.6805L24.9857 16.8525L25.0194 16.9942C25.4031 18.6018 25.244 20.1733 24.5588 21.5385C23.8653 22.9209 22.5769 24.0633 20.8324 24.8419L20.7008 24.9009ZM20.6944 21.9363L20.8818 24.5978C22.5161 23.8402 23.7236 22.7533 24.3784 21.4481C25.0215 20.166 25.1855 18.6946 24.8556 17.1835L22.4847 18.7825C22.5584 20.0046 21.9095 21.1484 20.6944 21.9363Z" fill="white"/>
<path d="M22.4523 14.2971C23.5239 14.7294 24.4249 15.4794 25.0576 16.4658C25.0659 16.4788 25.0739 16.4924 25.0822 16.5054L27.3934 14.9443C27.3517 14.8988 27.3115 14.8525 27.2777 14.8058C26.2931 13.4384 25.0498 12.4449 23.5819 11.8528C19.4382 10.1813 14.6331 12.0002 12.5577 15.9946L15.0589 17.2126C16.5059 14.4737 19.7171 13.1938 22.4523 14.2971Z" fill="#FFC900"/>
<path d="M25.0405 16.6444L24.9612 16.5178C24.3397 15.5484 23.455 14.8122 22.4031 14.3876C19.7447 13.3153 16.5527 14.5756 15.1364 17.2568L15.0908 17.3431L12.4087 16.0372L12.4563 15.9452C14.5489 11.9179 19.4478 10.0784 23.608 11.7564C25.0939 12.3558 26.3522 13.361 27.3479 14.744C27.3795 14.7874 27.4173 14.8307 27.4562 14.8732L27.5351 14.9597L25.0405 16.6444ZM12.6841 15.9467L15.0043 17.0767C16.4911 14.3648 19.7546 13.1019 22.4787 14.2007C23.5526 14.6337 24.4579 15.38 25.1002 16.3608L27.2309 14.9218C27.2145 14.902 27.199 14.882 27.1846 14.862C26.2112 13.5104 24.9827 12.5285 23.5329 11.9435C19.4983 10.3166 14.7556 12.0746 12.6841 15.9467Z" fill="white"/>
<path d="M21.165 17.4537C21.6087 17.6326 21.9802 17.9459 22.2397 18.3595C22.2484 18.3735 22.2563 18.3883 22.2646 18.4025L24.8314 16.669C24.8219 16.6539 24.8126 16.6382 24.803 16.6233C24.2046 15.6903 23.353 14.9809 22.3401 14.5725C19.7526 13.5286 16.7112 14.7431 15.3344 17.3391L18.1037 18.6876C18.7188 17.5266 20.0299 16.996 21.165 17.4537Z" fill="#FFC900"/>
<path d="M22.2216 18.5508L22.1437 18.4166C21.8963 18.0219 21.5412 17.7226 21.1172 17.5515C20.0339 17.1149 18.7728 17.6252 18.1829 18.7391L18.1375 18.8253L15.1866 17.3883L15.2356 17.296C16.6531 14.6237 19.7197 13.4142 22.3683 14.4831C23.4005 14.8994 24.2687 15.6222 24.8783 16.5729L24.9594 16.7019L22.2216 18.5508ZM20.1471 17.1999C20.497 17.1753 20.8529 17.2271 21.1928 17.3644C21.6396 17.5448 22.0167 17.8552 22.2858 18.2641L24.6839 16.6443C24.0983 15.7475 23.2723 15.0655 22.2927 14.6703C19.8118 13.67 16.8334 14.8233 15.4635 17.2987L18.0517 18.5591C18.5147 17.752 19.3132 17.2587 20.1471 17.1999Z" fill="white"/>
<path d="M30.5177 13.2008L27.7986 15.0523C29.6687 20.2642 26.6428 26.2368 21.0639 28.7042L21.3175 32.3042L31.3805 25.4491L30.5177 13.2008Z" fill="#08B1D5"/>
<path d="M21.2325 32.4814L20.9616 28.6355L21.0264 28.6068C26.6082 26.1381 29.5427 20.197 27.7071 15.0813L27.6808 15.0078L30.6095 13.0133L31.4887 25.4945L31.4407 25.5272L21.2325 32.4814ZM21.1729 28.7625L21.4092 32.1167L31.279 25.3933L30.4327 13.3782L27.9233 15.0871C29.7333 20.2654 26.7827 26.2463 21.1729 28.7625Z" fill="white"/>
<path d="M9.19507 14.7006L10.0579 26.949L20.9479 32.3314L20.6943 28.7314C14.7238 27.1267 11.0089 21.6185 12.1498 16.1399L9.33352 14.7679L9.19507 14.7006Z" fill="#1904DA"/>
<path d="M21.0642 32.4968L9.96448 27.0109L9.08533 14.5303L12.268 16.0807L12.252 16.1577C11.1245 21.5723 14.8459 27.0512 20.7238 28.6311L20.7934 28.6498L21.0642 32.4968ZM10.1577 26.8811L20.8381 32.1599L20.6019 28.8071C14.6889 27.1826 10.9445 21.6662 12.0384 16.1937L9.31126 14.8649L10.1577 26.8811Z" fill="white"/>
<path d="M9.33726 14.425L9.65884 14.5818L12.282 15.8591C14.4275 11.7219 19.4031 9.8375 23.6941 11.5683C25.2162 12.1823 26.5044 13.211 27.5231 14.6256C27.5554 14.6705 27.5993 14.7189 27.647 14.7698L30.3513 12.9434L19.4181 7.6164L9.33726 14.425Z" fill="#FFC900"/>
<path d="M12.3248 15.9896L9.13475 14.4359L19.4085 7.49694L19.461 7.52238L30.5513 12.9259L27.6308 14.8983L27.5721 14.8356C27.521 14.7811 27.4742 14.7291 27.4399 14.6812C26.4325 13.2823 25.1592 12.2654 23.6552 11.6585C19.4421 9.9595 14.4855 11.8236 12.3703 15.9022L12.3248 15.9896ZM9.53748 14.4076L12.2367 15.7222C14.4244 11.6132 19.4526 9.74582 23.7304 11.4713C25.2706 12.0927 26.5737 13.1329 27.6036 14.5631C27.62 14.5859 27.6396 14.6095 27.6611 14.6341L30.1484 12.9543L19.4249 7.72929L9.53748 14.4076Z" fill="white"/>
<path d="M20.5439 21.5493C21.5372 20.8981 22.0928 19.9286 22.0603 18.8989C22.0603 18.8989 22.0577 18.7967 22.0383 18.632C22.0344 18.5982 21.7684 18.0725 21.0479 17.743C20.0804 17.3007 18.7926 17.8825 18.3317 18.8931C18.3317 18.8931 18.3274 19.0133 18.3438 19.1607C18.4474 20.0914 19.0998 21.1469 20.1533 21.5768L20.3665 21.6607L20.5439 21.5493Z" fill="#FF445F"/>
<path d="M20.373 21.7741L20.1123 21.6715C18.9581 21.2002 18.3401 20.077 18.2393 19.1727C18.2221 19.0196 18.2266 18.8956 18.2268 18.8902L18.2357 18.852C18.4681 18.3429 18.9128 17.9162 19.4558 17.6812C20.0088 17.4419 20.6029 17.4312 21.0859 17.6518C21.8167 17.9859 22.124 18.5296 22.1344 18.6209C22.1546 18.7911 22.1571 18.8969 22.1571 18.8969C22.1907 19.9638 21.6214 20.9617 20.5951 21.6345L20.373 21.7741ZM18.4281 18.9169C18.4278 18.9553 18.4284 19.046 18.4401 19.1502C18.531 19.9678 19.1169 21.0469 20.1873 21.484L20.3519 21.5489L20.4849 21.4652C21.4506 20.8318 21.9865 19.898 21.9551 18.9029C21.9551 18.9002 21.9524 18.8018 21.9339 18.6448C21.9088 18.5819 21.6322 18.1242 21.0018 17.8357C20.571 17.6388 20.037 17.6503 19.5358 17.8668C19.0448 18.0788 18.6422 18.461 18.4281 18.9169Z" fill="white"/>
</svg>