<?xml version="1.0" standalone="no"?>
<!DOCTYPE svg PUBLIC "-//W3C//DTD SVG 1.1//EN" "http://www.w3.org/Graphics/SVG/1.1/DTD/svg11.dtd">
<svg xmlns="http://www.w3.org/2000/svg" width="35" height="35" viewBox="0 0 35 35" fill="none">
<circle cx="17.9669" cy="17.8058" r="15.9285" transform="rotate(-4.02934 17.9669 17.8058)" fill="white"/>
<path d="M17.0347 6.37642C16.8318 6.40292 16.6363 6.47015 16.4597 6.57413L8.80041 10.9399C8.60283 11.0523 8.43305 11.2081 8.30373 11.3958C8.17441 11.5835 8.08888 11.7981 8.05352 12.0238L6.71411 20.7075C6.68227 20.909 6.69146 21.1149 6.74111 21.3127C6.79076 21.5105 6.87984 21.6962 7.00294 21.8583C7.03282 21.8982 7.06415 21.9363 7.09692 21.9728L13.064 28.4441C13.2192 28.6105 13.4094 28.7399 13.6207 28.823C13.8319 28.906 14.0589 28.9405 14.285 28.924L23.0768 28.3047C23.3039 28.2892 23.5246 28.2226 23.7226 28.1099C23.9207 27.9972 24.0911 27.8412 24.2212 27.6535L29.2173 20.4067C29.3466 20.2196 29.432 20.0054 29.467 19.7802C29.5021 19.555 29.4858 19.3246 29.4194 19.1066L26.8612 10.6879C26.7946 10.4695 26.6798 10.2689 26.5254 10.1012C26.3711 9.93355 26.1811 9.80305 25.9697 9.71948L17.781 6.48106C17.5448 6.38409 17.2882 6.34812 17.0347 6.37642Z" fill="#326CE5"/>
<path d="M17.3227 9.27943C17.1921 9.29793 17.074 9.3673 16.9937 9.47262C16.9135 9.57794 16.8776 9.71078 16.8938 9.84255L16.9033 9.97708C16.9271 10.1285 16.9595 10.2784 17.0005 10.4261C17.0642 10.7097 17.1003 10.9988 17.1082 11.2894C17.0876 11.387 17.0397 11.4765 16.9701 11.5475L16.9736 11.7516C16.687 11.796 16.404 11.8606 16.1265 11.9449C14.959 12.2976 13.9232 12.9935 13.1523 13.9434L12.9728 13.8334C12.8809 13.868 12.7792 13.865 12.6894 13.8251C12.4461 13.6692 12.2185 13.49 12.0097 13.2897C11.9043 13.1796 11.7926 13.0757 11.6753 12.9784L11.5637 12.9014C11.4646 12.832 11.346 12.7963 11.2253 12.7995C11.1534 12.8009 11.0827 12.8193 11.0192 12.8533C10.9556 12.8872 10.9009 12.9358 10.8595 12.995C10.7901 13.1094 10.7685 13.2469 10.7997 13.3773C10.8308 13.5077 10.9121 13.6205 11.0257 13.6907L11.1291 13.7621C11.2616 13.8379 11.3984 13.9059 11.5387 13.9659C11.8009 14.0892 12.0504 14.238 12.2839 14.4101C12.3461 14.4872 12.3857 14.5803 12.3981 14.6787L12.5631 14.8039C11.8138 16.1289 11.5775 17.6862 11.8995 19.1768L11.7046 19.2487C11.6587 19.3355 11.5941 19.4109 11.5155 19.4695C11.2426 19.5637 10.9611 19.6309 10.6752 19.6702C10.523 19.6841 10.3718 19.7068 10.2223 19.7382L10.1001 19.7783L10.0846 19.7794C9.9977 19.7973 9.91753 19.8393 9.85309 19.9005C9.78865 19.9618 9.74248 20.04 9.71978 20.1262C9.69708 20.2125 9.69875 20.3034 9.7246 20.3889C9.75045 20.4743 9.79945 20.5507 9.8661 20.6097C9.93277 20.6687 10.0145 20.7078 10.102 20.7226C10.1895 20.7374 10.2793 20.7274 10.3614 20.6936L10.3708 20.693L10.4987 20.6683C10.6404 20.6141 10.7789 20.5519 10.9136 20.4818C11.1731 20.3548 11.4443 20.2536 11.7233 20.1796C11.8217 20.1787 11.9183 20.2057 12.0022 20.2574L12.2064 20.2068C12.7708 21.6192 13.8298 22.7749 15.183 23.4556L15.1089 23.6447C15.1549 23.7254 15.1761 23.818 15.1698 23.9108C15.0713 24.193 14.9461 24.4651 14.7959 24.7232C14.7123 24.8518 14.6361 24.9853 14.5678 25.1228L14.5147 25.2554C14.4756 25.3352 14.4593 25.4243 14.4676 25.5128C14.4759 25.6014 14.5085 25.6859 14.5617 25.7569C14.615 25.8279 14.6868 25.8827 14.7692 25.915C14.8515 25.9474 14.9412 25.9561 15.0281 25.9402C15.115 25.9243 15.1959 25.8843 15.2615 25.8248C15.3272 25.7654 15.3751 25.6887 15.3999 25.6034L15.4504 25.4772C15.4942 25.3302 15.5296 25.1807 15.5563 25.0296C15.6586 24.708 15.7049 24.3667 15.8628 24.1465C15.9154 24.0893 15.9839 24.0494 16.0594 24.0321L16.1544 23.8289C17.6004 24.2744 19.1584 24.1686 20.5309 23.5316L20.637 23.708C20.7349 23.7164 20.8257 23.7631 20.8899 23.838C21.0419 24.0848 21.1696 24.3459 21.2713 24.6176C21.3194 24.7635 21.3759 24.9064 21.4405 25.0458L21.5081 25.1637C21.5447 25.2447 21.6029 25.3139 21.6762 25.3636C21.7496 25.4133 21.8352 25.4415 21.9235 25.445C22.0118 25.4486 22.0994 25.4274 22.1764 25.3838C22.2534 25.3402 22.3168 25.276 22.3596 25.1982C22.4023 25.1204 22.4228 25.0321 22.4186 24.9433C22.4144 24.8545 22.3857 24.7685 22.3358 24.6951L22.2646 24.5712C22.1777 24.4451 22.0837 24.3242 21.9829 24.209C21.8022 23.9825 21.6437 23.7389 21.5099 23.4815C21.4951 23.4338 21.49 23.3835 21.4948 23.3338C21.4996 23.284 21.5143 23.2358 21.5379 23.1918C21.5031 23.1316 21.4721 23.0692 21.4451 23.005C22.6875 22.1364 23.5698 20.8394 23.9251 19.3593L24.1298 19.3811C24.1974 19.3094 24.2904 19.2673 24.3886 19.2638C24.6753 19.298 24.958 19.3602 25.2328 19.4496C25.3759 19.5033 25.522 19.5486 25.6704 19.5854C25.7052 19.5924 25.7554 19.5951 25.7966 19.6032L25.8059 19.6026C25.8919 19.6245 25.9823 19.6218 26.0669 19.5949C26.1514 19.568 26.2268 19.5178 26.2846 19.4501C26.3423 19.3824 26.3801 19.2998 26.3938 19.2116C26.4074 19.1234 26.3963 19.0331 26.3617 18.9508C26.327 18.8684 26.2701 18.7973 26.1974 18.7457C26.1247 18.694 26.0391 18.6639 25.9503 18.6586L25.8082 18.6372C25.6557 18.627 25.5028 18.6257 25.3502 18.6333C25.0616 18.6346 24.7735 18.6075 24.49 18.5524C24.4005 18.5101 24.3245 18.4436 24.2703 18.3604L24.0751 18.3175C24.1741 16.7985 23.7152 15.2952 22.7856 14.0932L22.9425 13.925C22.9288 13.8271 22.9537 13.7277 23.012 13.6481C23.2172 13.4437 23.4418 13.2599 23.6826 13.0994C23.8131 13.0204 23.9389 12.9338 24.0595 12.8402L24.1577 12.7484C24.2308 12.6952 24.2874 12.6222 24.321 12.5379C24.3545 12.4536 24.3637 12.3615 24.3475 12.2721C24.3312 12.1828 24.2902 12.0999 24.2291 12.0329C24.168 11.966 24.0894 11.9178 24.0023 11.894C23.9151 11.8701 23.8231 11.8715 23.7368 11.898C23.6505 11.9246 23.5734 11.9751 23.5145 12.0439L23.4147 12.1358C23.3123 12.2485 23.2163 12.3671 23.1273 12.4909C22.9546 12.7203 22.7603 12.9325 22.5471 13.1244C22.4586 13.1679 22.3598 13.1858 22.2617 13.1759L22.0906 13.3185C20.9735 12.2947 19.5254 11.7135 18.0154 11.683C18.011 11.6204 17.9935 11.5053 17.9895 11.471C17.9049 11.4209 17.8431 11.3395 17.8173 11.2442C17.7871 10.9554 17.785 10.6644 17.8108 10.3753C17.8306 10.2234 17.8418 10.0704 17.8441 9.91709L17.8345 9.781C17.8321 9.64827 17.7779 9.52177 17.6837 9.42874C17.5895 9.33571 17.4628 9.28358 17.3309 9.28357L17.3227 9.27943ZM16.9897 13.0223L17.0261 15.5349L17.0152 15.5357C17.0173 15.6119 16.9988 15.6873 16.9617 15.7538C16.9246 15.8203 16.8703 15.8754 16.8045 15.9132C16.7388 15.9511 16.664 15.9703 16.5882 15.9688C16.5124 15.9673 16.4384 15.9451 16.3741 15.9046L14.2323 14.5936C14.8364 13.9061 15.6195 13.4023 16.4933 13.139C16.6572 13.0915 16.8234 13.0525 16.9912 13.0221L16.9897 13.0223ZM18.1772 12.9386C19.2578 12.9969 20.2897 13.4108 21.1142 14.1166L19.1953 15.7043C19.1377 15.7578 19.0663 15.7939 18.9893 15.8086C18.9122 15.8233 18.8326 15.8159 18.7595 15.7873C18.6864 15.7587 18.6227 15.7101 18.5756 15.6469C18.5286 15.5838 18.5001 15.5086 18.4933 15.43L18.1772 12.9386ZM13.5557 15.5891L15.5389 17.1315L15.5397 17.1424C15.6001 17.1885 15.647 17.2501 15.6755 17.3209C15.7039 17.3916 15.7127 17.4687 15.701 17.544C15.6893 17.6194 15.6576 17.6901 15.6091 17.7487C15.5607 17.8072 15.4973 17.8515 15.4258 17.8767L15.4264 17.8845L13.0814 18.7461C12.8862 17.6692 13.0531 16.5578 13.5556 15.5876L13.5557 15.5891ZM21.9231 14.9997C22.5551 15.8876 22.8823 16.9585 22.855 18.0498L20.4092 17.5241L20.4085 17.5147C20.3342 17.4998 20.2653 17.4648 20.2091 17.4136C20.1529 17.3624 20.1115 17.2969 20.0894 17.2239C20.0673 17.151 20.0652 17.0734 20.0834 16.9994C20.1016 16.9253 20.1394 16.8577 20.1928 16.8037L21.9251 15.0059L21.9231 14.9997ZM17.4913 17.1276L18.253 17.0739L18.7612 17.6355L18.6426 18.3921L17.982 18.7719L17.2716 18.4887L17.0574 17.7539L17.4913 17.1276ZM20.0796 18.9889C20.1114 18.9828 20.1437 18.9806 20.176 18.9821L22.674 19.2274C22.3833 20.2853 21.7501 21.215 20.8746 21.8694L19.7562 19.609C19.7256 19.5485 19.7098 19.4815 19.7102 19.4137C19.7107 19.3458 19.7273 19.2791 19.7588 19.219C19.7902 19.159 19.8356 19.1075 19.891 19.0689C19.9464 19.0302 20.0102 19.0055 20.0771 18.9969L20.0796 18.9889ZM15.9348 19.2918C16.0035 19.2881 16.0721 19.3014 16.1345 19.3306C16.1969 19.3599 16.2512 19.4041 16.2926 19.4595C16.3341 19.5148 16.3613 19.5796 16.372 19.648C16.3826 19.7164 16.3764 19.7864 16.3538 19.8518L16.3545 19.8612L15.5669 22.2307C14.6197 21.7085 13.8692 20.8875 13.4309 19.8942L15.8481 19.3026C15.8753 19.298 15.9029 19.2961 15.9304 19.2968L15.9348 19.2918ZM18.0733 20.1567C18.1509 20.1489 18.2292 20.1628 18.2994 20.197C18.3697 20.2312 18.4291 20.2842 18.4713 20.3503L18.4806 20.3497L19.8411 22.4546C19.6866 22.5192 19.529 22.576 19.3688 22.6247C18.4959 22.8916 17.5662 22.9086 16.6838 22.6739L17.7327 20.3992C17.7643 20.3334 17.8124 20.2771 17.8722 20.2357C17.932 20.1943 18.0014 20.1692 18.0738 20.163L18.0733 20.1567Z" fill="white" stroke="white" stroke-width="0.053987"/>
</svg>