<?xml version="1.0" standalone="no"?>
<!DOCTYPE svg PUBLIC "-//W3C//DTD SVG 1.1//EN" "http://www.w3.org/Graphics/SVG/1.1/DTD/svg11.dtd">
<svg xmlns="http://www.w3.org/2000/svg" width="34" height="33" viewBox="0 0 34 33" fill="none">
<circle cx="17.0235" cy="16.3084" r="15.2728" transform="rotate(-4.02934 17.0235 16.3084)" fill="white"/>
<path d="M17.0999 20.997C19.706 20.3648 21.8585 19.842 21.8832 19.8351L21.928 19.8227L19.238 17.1603C17.7584 15.6959 16.5475 14.4918 16.5469 14.4844C16.546 14.4704 18.6394 7.50523 18.6521 7.48007C18.6564 7.47166 20.6101 10.2428 23.3881 14.1976C25.9889 17.9001 28.1332 20.9529 28.1531 20.9815L28.1894 21.0335L20.2754 21.59L12.3614 22.1465L17.0999 20.997ZM7.54127 20.8007C7.54099 20.7967 8.57688 18.7625 9.84325 16.2804L12.1457 11.7673L15.0123 9.1101C16.5889 7.64862 17.8833 6.45091 17.8886 6.44851C17.894 6.44612 17.8758 6.50068 17.8481 6.56977C17.8204 6.63885 16.5505 9.79472 15.0261 13.5828L12.2545 20.4703L9.89814 20.6391C8.60214 20.7319 7.54155 20.8047 7.54127 20.8007Z" fill="#0089D6"/>
</svg>