<?xml version="1.0" standalone="no"?>
<!DOCTYPE svg PUBLIC "-//W3C//DTD SVG 1.1//EN" "http://www.w3.org/Graphics/SVG/1.1/DTD/svg11.dtd">
<svg xmlns="http://www.w3.org/2000/svg" width="65" height="65" viewBox="0 0 65 65" fill="none">
<ellipse cx="32.47" cy="32.7069" rx="29.7387" ry="29.7387" transform="rotate(-4.02934 32.47 32.7069)" fill="white"/>
<path d="M38.4947 21.8936L39.9115 21.8187L43.4846 17.6973L43.5552 16.0525C40.3083 13.5458 36.1715 12.1725 31.7718 12.4824C23.8059 13.0436 17.4644 18.9462 15.991 26.4408C16.3909 26.1176 17.3031 26.2737 17.3031 26.2737L24.8977 24.4662C24.8977 24.4662 25.2473 23.7817 25.4481 23.8087C26.9701 21.8852 29.1677 20.6161 31.5923 20.2602C34.017 19.9043 36.4849 20.4885 38.4947 21.8936Z" fill="#EA4335"/>
<path d="M49.3784 24.1028C48.2658 20.91 46.2473 18.1114 43.5704 16.0504L38.5096 21.8877C39.6904 22.7085 40.6724 23.7842 41.3834 25.0354C42.0943 26.2866 42.5161 27.6815 42.6175 29.1174L42.6853 30.08C45.3349 29.8934 47.6368 31.9014 47.8233 34.5491C48.0098 37.1967 46.0059 39.508 43.3626 39.6942L33.7615 40.3705L32.8685 41.4046L33.275 47.1755L34.3036 48.0655L43.9046 47.3892C47.2106 47.1475 50.2861 45.6041 52.4583 43.0968C54.6306 40.5894 55.7228 37.3222 55.496 34.0098C55.1912 29.7532 52.7832 26.1328 49.366 24.1037L49.3784 24.1028Z" fill="#4285F4"/>
<path d="M24.682 48.7526L34.2806 48.0764L33.7384 40.3802L24.1398 41.0563C23.4582 41.1046 22.7742 41.0055 22.1342 40.7655L20.7788 41.2881L17.2056 45.4095L16.9608 46.7341C19.2409 48.2452 21.957 48.9559 24.6834 48.755L24.682 48.7526Z" fill="#34A853"/>
<path d="M22.9184 23.7462C19.609 23.9846 16.5292 25.5273 14.354 28.0364C12.1787 30.5454 11.0854 33.816 11.3137 37.1315C11.4497 39.0619 12.0306 40.9346 13.0108 42.6025C13.991 44.2703 15.3439 45.688 16.9631 46.744L22.1366 40.7767C21.2667 40.4562 20.5077 39.8908 19.9508 39.1485C19.394 38.4063 19.063 37.5188 18.9977 36.5927C18.8108 33.9389 20.8151 31.6338 23.4584 31.4476C24.3827 31.3841 25.3058 31.5886 26.1173 32.0366C26.9288 32.4847 27.5943 33.1573 28.0343 33.974L33.2078 28.0067C30.7124 25.1569 26.9709 23.4657 22.9138 23.7515L22.9184 23.7462Z" fill="#FBBC05"/>
</svg>