<svg width="1454" height="727" viewBox="0 0 1454 727" fill="none" xmlns="http://www.w3.org/2000/svg">
<path d="M1425.51 709.873C1438.93 698.669 1448.74 680.937 1452.17 653.371C1459.71 593.484 1442.67 521.588 1424.9 466.94C1402.34 397.462 1359.87 337.172 1305.45 313.072C1251.02 288.972 1185.08 306.382 1147.75 363.77C1132.19 387.789 1112.27 421.561 1090.57 408.101C1102.53 289.778 1043.87 176.452 970.941 105.442C873.495 10.4937 741.421 -29.3235 627.059 23.6317C512.697 76.6675 425.24 231.503 436.395 390.288C361.624 331.207 266.384 319.198 184.443 358.531C102.502 397.784 35.4536 487.574 7.0776 596.064C-0.705878 625.967 -4.99567 661.996 10.081 686.66C23.319 708.261 46.6693 713.016 67.7521 714.387C117.395 717.611 167.037 711.001 216.558 705.279C586.426 662.641 959.542 668.766 1328.49 723.575C1361.16 728.411 1399.89 731.232 1425.45 709.873H1425.51Z" fill="white"/>
</svg>
