<svg width="521" height="125" viewBox="0 0 125 125" fill="none" xmlns="http://www.w3.org/2000/svg">
<rect width="125" height="125" rx="16" fill="#1695F1"/>
<path d="M35.5903 67.7083V57.2917H46.007" stroke="white" stroke-width="5" stroke-miterlimit="10" stroke-linecap="round"/>
<path d="M75.5209 96.3542L35.5903 57.2917" stroke="white" stroke-width="5" stroke-miterlimit="10" stroke-linecap="round"/>
<path d="M96.3544 85.0694V95.4861H85.9377" stroke="white" stroke-width="5" stroke-miterlimit="10" stroke-linecap="round"/>
<path d="M96.3544 95.4861L76.3709 75.8779L50.3474 50.3472" stroke="white" stroke-width="5" stroke-miterlimit="10" stroke-linecap="round"/>
<path d="M56.4238 78.125H37.8489C28.4506 78.125 20.8335 70.5511 20.8335 61.2061C20.8335 51.8612 28.4629 43.8588 37.8489 44.2873C39.7983 44.377 41.7272 44.8096 43.5453 45.5319C45.942 46.4827 48.1541 47.9395 49.9722 49.78" stroke="white" stroke-width="5" stroke-miterlimit="10" stroke-linecap="round"/>
<path d="M43.4028 45.3687C46.6233 35.655 55.8192 28.6458 66.6601 28.6458C80.1826 28.6458 91.1459 39.5534 91.1459 53.0072C91.1459 53.2793 91.1418 53.5473 91.1296 53.8194" stroke="white" stroke-width="5" stroke-miterlimit="10" stroke-linecap="round"/>
<path d="M90.7779 53.93C91.2969 53.8563 91.8325 53.8194 92.3722 53.8194C98.8854 53.8194 104.167 59.0669 104.167 65.5382C104.167 72.0095 98.8854 77.2569 92.3722 77.2569H77.2571" stroke="white" stroke-width="5" stroke-miterlimit="10" stroke-linecap="round"/>
</svg>
