<svg width="206" height="124" viewBox="0 0 206 124" fill="none" xmlns="http://www.w3.org/2000/svg">
<path d="M116.5 134C112.114 117.432 106.663 99.6423 89.3575 88.039C69.3371 74.6184 41.051 66.1546 14.3776 66.5683C0.380112 66.7848 -12.5799 69.8007 -23.9033 76.1495C-32.371 80.8937 -39.5033 84.4277 -48.3921 78.8058C-59.2532 71.935 -66.8923 62.609 -77.6198 55.6145C-89.0185 48.1793 -102.465 42.2945 -116 37.5V78.2529C-97.4006 82.8153 -88.4124 83.3528 -74.7402 94.0707C-63.7558 102.681 -54.6958 113.948 -39.6984 117.517C-33.292 119.044 -26.4302 118.955 -19.7396 118.546C-7.24183 117.788 5.2217 115.978 17.74 116.535C30.6624 117.111 52.121 126.909 60.9071 133.996H116.5V134Z" fill="#64ABFF"/>
<path d="M206 133.996C201.289 114.941 187.177 97.0071 166.809 85.6955C158.446 81.0526 148.63 79.6724 138.53 79.2317C125.902 78.6789 112.197 82.4134 110.2 69.0605C109.508 64.4408 110.728 59.7708 110.457 55.1239C109.796 43.9205 100.155 33.7262 87.5296 28.0587C74.9045 22.3913 59.703 20.8218 45.1148 21.7071C33.5792 22.4068 22.2183 24.6142 11.5974 28.1322C5.07759 30.2894 -0.397278 33.7455 -6.16679 36.8382C-6.17021 36.8382 -6.17705 36.8382 -6.18047 36.8421L-6.19075 36.8498C-13.4952 40.7621 -17.8703 40.5533 -22.7319 34.1785C-24.8492 31.3989 -26.2881 28.3371 -28.45 25.5768C-33.9488 18.5602 -44.2716 13.9134 -54.9439 13.6505C-61.796 13.4843 -66.5343 16.1092 -72.1496 18.6105C-86.1897 24.8539 -86.6317 15.7458 -95.9575 8.75627C-100.97 4.99861 -106.835 1.90589 -113.406 0C-115.037 2.54377 -116 5.67128 -116 9.05395V37.5147C-102.457 42.3085 -89.0025 48.1924 -77.5971 55.6265C-66.8632 62.6199 -59.2196 71.9445 -48.3521 78.8142C-39.458 84.4352 -32.3215 80.8979 -23.8488 76.1583C-12.5187 69.8144 0.44899 66.799 14.4548 66.5786C41.144 66.165 69.4468 74.6236 89.4791 88.046C106.794 99.6476 112.249 117.435 116.638 134H206V133.996Z" fill="#C7DFFA"/>
</svg>
