<svg width="177" height="48" viewBox="0 0 177 48" fill="none" xmlns="http://www.w3.org/2000/svg">
<path d="M60.1489 14.9892L60.1482 14.989C60.0726 14.9693 59.9975 14.9499 59.923 14.9306C58.7957 14.6383 57.7954 14.3789 57.0517 13.9794C56.6645 13.7714 56.379 13.5408 56.1901 13.2764C56.0064 13.0194 55.8955 12.7049 55.8955 12.289C55.8955 11.5693 56.1965 10.9451 56.7689 10.4896C57.3496 10.0276 58.2401 9.71789 59.4334 9.71789C61.2532 9.71789 62.547 10.361 63.5736 11.5215L63.8923 11.8817L64.2646 11.5772L65.4704 10.5911L65.868 10.2659L65.5323 9.8772C64.1333 8.25763 61.8832 7.3091 59.4334 7.3091C55.7918 7.3091 53.2971 9.5412 53.2971 12.3172C53.2971 14.0149 54.0812 15.1273 55.2145 15.876C56.3091 16.5991 57.7359 16.9883 59.0597 17.3104C59.1562 17.3352 59.252 17.3597 59.347 17.384C60.4663 17.6702 61.4753 17.9282 62.2347 18.3307C62.6377 18.5443 62.9376 18.7831 63.1369 19.0593C63.3307 19.328 63.4481 19.6577 63.4481 20.0937C63.4481 20.8681 63.1369 21.5942 62.5079 22.1338C61.8755 22.6764 60.8856 23.0593 59.4895 23.0593C57.4223 23.0593 55.687 21.9942 54.6772 20.6154L54.3682 20.1934L53.9606 20.5211L52.6987 21.5354L52.3275 21.8338L52.6075 22.2191C53.9961 24.13 56.5054 25.4963 59.4615 25.4963C61.6706 25.4963 63.3213 24.8133 64.424 23.7755C65.5226 22.7416 66.0465 21.3829 66.0465 20.0937C66.0465 18.3368 65.2315 17.2097 64.0656 16.4549C62.9414 15.7271 61.4777 15.3369 60.1489 14.9892ZM84.5885 24.9541L84.7383 25.1582H84.9915H86.8703H87.8581L87.2733 24.3621L80.4837 15.1211L86.8106 8.5214L87.6217 7.67539H86.4497H84.4027H84.1889L84.0412 7.8299L75.3686 16.9029V3.80815V3.30815H74.8686H73.2983H72.7983V3.80815V24.6582V25.1582H73.2983H74.8686H75.3686V24.6582V20.2385L78.6311 16.8398L84.5885 24.9541ZM96.8284 32.0604L96.5111 32.7656H97.2844H99.0229H99.3478L99.4798 32.4688L110.192 8.37854L110.504 7.67539H109.735H107.996H107.669L107.538 7.97504L101.98 20.6844L96.0267 7.96346L95.8919 7.67539H95.5738H93.7792H92.99L93.3271 8.38895L100.575 23.7335L96.8284 32.0604ZM124.309 25.4963C126.691 25.4963 128.705 24.5024 130.034 22.9512V24.6582V25.1582H130.534H132.105H132.605V24.6582V8.17539V7.67539H132.105H130.506H130.006V8.17539V17.417C130.006 20.6042 127.569 23.003 124.421 23.003C122.682 23.003 121.357 22.4433 120.466 21.5035C119.571 20.5602 119.061 19.1797 119.061 17.4452V8.17539V7.67539H118.561H116.934H116.434V8.17539V17.417C116.434 19.8674 117.159 21.8986 118.538 23.3195C119.92 24.7422 121.904 25.4963 124.309 25.4963ZM150.08 24.6582V25.1582H150.58H152.178H152.678V24.6582V8.17539V7.67539H152.178H150.58H150.08V8.17539V24.6582ZM138.053 23.5593C138.053 24.0673 138.226 24.5422 138.565 24.893C138.907 25.2462 139.385 25.4399 139.927 25.4399C140.47 25.4399 140.948 25.2462 141.289 24.893C141.628 24.5422 141.801 24.0673 141.801 23.5593C141.801 23.0503 141.628 22.5796 141.284 22.2346C140.94 21.8887 140.463 21.7069 139.927 21.7069C138.878 21.7069 138.053 22.4829 138.053 23.5593ZM149.519 2.68056C149.519 3.18855 149.692 3.66347 150.031 4.01424C150.372 4.36744 150.85 4.56117 151.393 4.56117C151.936 4.56117 152.413 4.36744 152.755 4.01424C153.094 3.66347 153.267 3.18856 153.267 2.68056C153.267 2.17154 153.093 1.70078 152.75 1.35579C152.405 1.00988 151.928 0.828125 151.393 0.828125C150.343 0.828125 149.519 1.60416 149.519 2.68056ZM167.475 25.4963C172.463 25.4963 176.5 21.4968 176.5 16.4309C176.5 11.3379 172.464 7.33728 167.475 7.33728C162.458 7.33728 158.451 11.3389 158.451 16.4309C158.451 21.4957 162.459 25.4963 167.475 25.4963ZM167.475 23.003C163.896 23.003 161.077 20.0853 161.077 16.4309C161.077 12.7469 163.897 9.83059 167.475 9.83059C171.024 9.83059 173.845 12.7456 173.845 16.4309C173.845 20.0867 171.026 23.003 167.475 23.003Z" fill="white" stroke="white"/>
<rect y="1" width="45.2369" height="45" rx="8" fill="#0683DE"/>
<path d="M12.88 25.375V21.625M12.88 21.625H16.6498M12.88 21.625L27.3307 35.6875M34.8702 31.625V35.375M34.8702 35.375H31.1005M34.8702 35.375L18.2205 19.125M20.4195 29.125H13.6973C10.2961 29.125 7.53955 26.3984 7.53955 23.0342C7.53955 19.67 10.3006 16.7892 13.6973 16.9434C14.4028 16.9757 15.1009 17.1315 15.7588 17.3915C16.6262 17.7338 17.4268 18.2582 18.0847 18.9208M15.7073 17.3327C16.8728 13.8358 20.2008 11.3125 24.124 11.3125C29.0178 11.3125 32.9853 15.2392 32.9853 20.0826C32.9853 20.1806 32.9839 20.2771 32.9794 20.375M32.8521 20.4148C33.0399 20.3883 33.2338 20.375 33.4291 20.375C35.7862 20.375 37.6975 22.2641 37.6975 24.5938C37.6975 26.9234 35.7862 28.8125 33.4291 28.8125H27.959" stroke="#E8F4FE" stroke-width="2" stroke-miterlimit="10" stroke-linecap="round"/>
<path d="M60.018 37.333L56.674 42.107L56.157 45H55.156L55.673 42.107L54.001 37.333H55.123L56.322 41.194L58.885 37.333H60.018ZM62.3608 45.099C61.8548 45.099 61.4075 44.9963 61.0188 44.791C60.6375 44.5783 60.3405 44.285 60.1278 43.911C59.9152 43.5297 59.8088 43.0897 59.8088 42.591C59.8088 41.909 59.9665 41.2857 60.2818 40.721C60.5972 40.149 61.0298 39.698 61.5798 39.368C62.1372 39.038 62.7568 38.873 63.4388 38.873C63.9448 38.873 64.3922 38.9793 64.7808 39.192C65.1768 39.3973 65.4812 39.6907 65.6938 40.072C65.9138 40.446 66.0238 40.886 66.0238 41.392C66.0238 42.074 65.8625 42.6973 65.5398 43.262C65.2172 43.8267 64.7772 44.274 64.2198 44.604C63.6625 44.934 63.0428 45.099 62.3608 45.099ZM62.4818 44.252C62.9585 44.252 63.3875 44.1237 63.7688 43.867C64.1502 43.603 64.4472 43.2583 64.6598 42.833C64.8798 42.4003 64.9898 41.9383 64.9898 41.447C64.9898 40.8897 64.8285 40.4643 64.5058 40.171C64.1832 39.8703 63.7798 39.72 63.2958 39.72C62.8192 39.72 62.3938 39.852 62.0198 40.116C61.6458 40.3727 61.3562 40.7173 61.1508 41.15C60.9455 41.5827 60.8428 42.0483 60.8428 42.547C60.8428 43.0897 60.9968 43.5113 61.3048 43.812C61.6128 44.1053 62.0052 44.252 62.4818 44.252ZM73.159 38.972L72.092 45H71.091L71.245 44.12C71.003 44.428 70.695 44.6663 70.321 44.835C69.947 45.0037 69.5583 45.088 69.155 45.088C68.5243 45.088 68.0183 44.9193 67.637 44.582C67.263 44.2373 67.076 43.746 67.076 43.108C67.076 42.9467 67.0943 42.745 67.131 42.503L67.758 38.972H68.748L68.154 42.371C68.1246 42.525 68.11 42.6863 68.11 42.855C68.11 43.3023 68.231 43.6433 68.473 43.878C68.7223 44.1053 69.067 44.219 69.507 44.219C70.035 44.219 70.4823 44.054 70.849 43.724C71.223 43.394 71.4613 42.9137 71.564 42.283V42.316L72.158 38.972H73.159ZM75.6521 40.116C75.8941 39.72 76.1984 39.412 76.5651 39.192C76.9318 38.972 77.3498 38.862 77.8191 38.862L77.6321 39.896H77.3681C76.8474 39.896 76.4111 40.0353 76.0591 40.314C75.7144 40.5927 75.4834 41.062 75.3661 41.722L74.7831 45H73.7821L74.8491 38.972H75.8501L75.6521 40.116ZM81.47 41.161C81.602 40.413 81.888 39.742 82.328 39.148C82.7753 38.5467 83.318 38.0773 83.956 37.74C84.6013 37.4027 85.276 37.234 85.98 37.234C86.816 37.234 87.509 37.4357 88.059 37.839C88.6163 38.2423 88.9756 38.8143 89.137 39.555H87.938C87.806 39.1077 87.5603 38.763 87.201 38.521C86.8416 38.2717 86.3833 38.147 85.826 38.147C85.2906 38.147 84.7883 38.2717 84.319 38.521C83.857 38.763 83.4646 39.115 83.142 39.577C82.8193 40.0317 82.603 40.5597 82.493 41.161C82.4563 41.3517 82.438 41.5717 82.438 41.821C82.438 42.5397 82.647 43.1117 83.065 43.537C83.4903 43.955 84.055 44.164 84.759 44.164C85.3163 44.164 85.8186 44.043 86.266 43.801C86.7133 43.559 87.08 43.2143 87.366 42.767H88.565C88.147 43.5003 87.5896 44.0687 86.893 44.472C86.2036 44.868 85.441 45.066 84.605 45.066C83.9816 45.066 83.428 44.9377 82.944 44.681C82.46 44.417 82.0823 44.0503 81.811 43.581C81.5396 43.1043 81.404 42.558 81.404 41.942C81.404 41.6853 81.426 41.425 81.47 41.161ZM92.101 36.86L90.66 45H89.659L91.1 36.86H92.101ZM95.0171 45.099C94.5111 45.099 94.0637 44.9963 93.6751 44.791C93.2937 44.5783 92.9967 44.285 92.7841 43.911C92.5714 43.5297 92.4651 43.0897 92.4651 42.591C92.4651 41.909 92.6227 41.2857 92.9381 40.721C93.2534 40.149 93.6861 39.698 94.2361 39.368C94.7934 39.038 95.4131 38.873 96.0951 38.873C96.6011 38.873 97.0484 38.9793 97.4371 39.192C97.8331 39.3973 98.1374 39.6907 98.3501 40.072C98.5701 40.446 98.6801 40.886 98.6801 41.392C98.6801 42.074 98.5187 42.6973 98.1961 43.262C97.8734 43.8267 97.4334 44.274 96.8761 44.604C96.3187 44.934 95.6991 45.099 95.0171 45.099ZM95.1381 44.252C95.6147 44.252 96.0437 44.1237 96.4251 43.867C96.8064 43.603 97.1034 43.2583 97.3161 42.833C97.5361 42.4003 97.6461 41.9383 97.6461 41.447C97.6461 40.8897 97.4847 40.4643 97.1621 40.171C96.8394 39.8703 96.4361 39.72 95.9521 39.72C95.4754 39.72 95.0501 39.852 94.6761 40.116C94.3021 40.3727 94.0124 40.7173 93.8071 41.15C93.6017 41.5827 93.4991 42.0483 93.4991 42.547C93.4991 43.0897 93.6531 43.5113 93.9611 43.812C94.2691 44.1053 94.6614 44.252 95.1381 44.252ZM105.815 38.972L104.748 45H103.747L103.901 44.12C103.659 44.428 103.351 44.6663 102.977 44.835C102.603 45.0037 102.215 45.088 101.811 45.088C101.181 45.088 100.675 44.9193 100.293 44.582C99.9192 44.2373 99.7322 43.746 99.7322 43.108C99.7322 42.9467 99.7505 42.745 99.7872 42.503L100.414 38.972H101.404L100.81 42.371C100.781 42.525 100.766 42.6863 100.766 42.855C100.766 43.3023 100.887 43.6433 101.129 43.878C101.379 44.1053 101.723 44.219 102.163 44.219C102.691 44.219 103.139 44.054 103.505 43.724C103.879 43.394 104.118 42.9137 104.22 42.283V42.316L104.814 38.972H105.815ZM106.592 41.964C106.702 41.348 106.922 40.809 107.252 40.347C107.59 39.8777 108 39.5147 108.484 39.258C108.968 39.0013 109.482 38.873 110.024 38.873C110.486 38.873 110.901 38.983 111.267 39.203C111.634 39.4157 111.894 39.698 112.048 40.05L112.609 36.86H113.621L112.18 45H111.168L111.377 43.867C111.121 44.2263 110.776 44.5233 110.343 44.758C109.911 44.9853 109.434 45.099 108.913 45.099C108.444 45.099 108.03 45 107.67 44.802C107.311 44.5967 107.029 44.307 106.823 43.933C106.625 43.559 106.526 43.1263 106.526 42.635C106.526 42.415 106.548 42.1913 106.592 41.964ZM111.707 41.975C111.737 41.821 111.751 41.656 111.751 41.48C111.751 40.9447 111.59 40.523 111.267 40.215C110.952 39.8997 110.549 39.742 110.057 39.742C109.683 39.742 109.324 39.83 108.979 40.006C108.642 40.182 108.352 40.4387 108.11 40.776C107.868 41.1133 107.707 41.5093 107.626 41.964C107.597 42.118 107.582 42.2867 107.582 42.47C107.582 43.0127 107.74 43.4417 108.055 43.757C108.371 44.065 108.774 44.219 109.265 44.219C109.639 44.219 109.995 44.131 110.332 43.955C110.677 43.7717 110.97 43.5113 111.212 43.174C111.462 42.8293 111.627 42.4297 111.707 41.975ZM115.148 43.614L113.399 46.573H112.728L114.048 43.614H115.148ZM121.947 45.077C121.236 45.077 120.656 44.9083 120.209 44.571C119.769 44.2263 119.549 43.768 119.549 43.196C119.549 43.086 119.553 43.0053 119.56 42.954H120.55C120.528 43.3133 120.638 43.6213 120.88 43.878C121.122 44.1347 121.492 44.263 121.991 44.263C122.49 44.263 122.886 44.1493 123.179 43.922C123.472 43.6947 123.619 43.3757 123.619 42.965C123.619 42.7157 123.546 42.5067 123.399 42.338C123.26 42.162 123.084 42.019 122.871 41.909C122.666 41.7917 122.383 41.6633 122.024 41.524C121.584 41.348 121.228 41.183 120.957 41.029C120.693 40.875 120.469 40.666 120.286 40.402C120.103 40.138 120.018 39.8043 120.033 39.401C120.033 38.9757 120.147 38.598 120.374 38.268C120.601 37.938 120.913 37.685 121.309 37.509C121.712 37.3257 122.171 37.234 122.684 37.234C123.183 37.234 123.612 37.3183 123.971 37.487C124.338 37.6557 124.613 37.8903 124.796 38.191C124.979 38.4917 125.06 38.829 125.038 39.203H123.993C124.008 39.0123 123.964 38.829 123.861 38.653C123.766 38.477 123.612 38.334 123.399 38.224C123.194 38.114 122.937 38.059 122.629 38.059C122.152 38.059 121.767 38.1727 121.474 38.4C121.188 38.62 121.045 38.9243 121.045 39.313C121.045 39.5403 121.111 39.7383 121.243 39.907C121.382 40.0683 121.555 40.2077 121.76 40.325C121.965 40.435 122.248 40.567 122.607 40.721C123.04 40.9043 123.392 41.0767 123.663 41.238C123.942 41.392 124.176 41.601 124.367 41.865C124.558 42.129 124.653 42.459 124.653 42.855C124.653 43.2803 124.543 43.6617 124.323 43.999C124.103 44.329 123.788 44.593 123.377 44.791C122.966 44.9817 122.49 45.077 121.947 45.077ZM127.48 37.993C127.319 37.993 127.183 37.9417 127.073 37.839C126.971 37.729 126.919 37.5933 126.919 37.432C126.919 37.212 127 37.025 127.161 36.871C127.323 36.7097 127.51 36.629 127.722 36.629C127.891 36.629 128.027 36.6803 128.129 36.783C128.232 36.8857 128.283 37.0213 128.283 37.19C128.283 37.41 128.203 37.6007 128.041 37.762C127.88 37.916 127.693 37.993 127.48 37.993ZM127.799 38.972L126.732 45H125.731L126.798 38.972H127.799ZM136.776 38.862C137.392 38.862 137.884 39.0307 138.25 39.368C138.624 39.698 138.811 40.182 138.811 40.82C138.811 41.0547 138.793 41.2637 138.756 41.447L138.129 45H137.139L137.744 41.59C137.774 41.436 137.788 41.271 137.788 41.095C137.788 40.6477 137.667 40.3103 137.425 40.083C137.191 39.8483 136.857 39.731 136.424 39.731C135.926 39.731 135.497 39.885 135.137 40.193C134.785 40.4937 134.543 40.93 134.411 41.502L133.784 45H132.794L133.399 41.59C133.429 41.4213 133.443 41.2527 133.443 41.084C133.443 40.644 133.322 40.3103 133.08 40.083C132.846 39.8483 132.512 39.731 132.079 39.731C131.559 39.731 131.115 39.8997 130.748 40.237C130.382 40.567 130.143 41.0473 130.033 41.678V41.656L129.439 45H128.438L129.505 38.972H130.506L130.352 39.841C130.602 39.5257 130.91 39.2837 131.276 39.115C131.643 38.9463 132.028 38.862 132.431 38.862C132.937 38.862 133.363 38.9757 133.707 39.203C134.059 39.4303 134.29 39.764 134.4 40.204C134.65 39.7787 134.987 39.4487 135.412 39.214C135.845 38.9793 136.3 38.862 136.776 38.862ZM141.641 40.083C141.905 39.7383 142.254 39.4523 142.686 39.225C143.119 38.9903 143.592 38.873 144.105 38.873C144.575 38.873 144.989 38.972 145.348 39.17C145.715 39.3607 145.997 39.6393 146.195 40.006C146.393 40.3653 146.492 40.7907 146.492 41.282C146.492 41.4947 146.47 41.722 146.426 41.964C146.316 42.5727 146.093 43.1153 145.755 43.592C145.425 44.0687 145.018 44.439 144.534 44.703C144.058 44.967 143.552 45.099 143.016 45.099C142.503 45.099 142.07 44.9853 141.718 44.758C141.374 44.5233 141.124 44.2337 140.97 43.889L140.277 47.86H139.276L140.838 38.972H141.839L141.641 40.083ZM145.403 41.964C145.433 41.81 145.447 41.6413 145.447 41.458C145.447 40.9227 145.29 40.5047 144.974 40.204C144.659 39.896 144.252 39.742 143.753 39.742C143.387 39.742 143.031 39.8337 142.686 40.017C142.342 40.193 142.045 40.4533 141.795 40.798C141.553 41.1353 141.392 41.5277 141.311 41.975C141.282 42.129 141.267 42.2977 141.267 42.481C141.267 43.0163 141.425 43.4417 141.74 43.757C142.063 44.065 142.47 44.219 142.961 44.219C143.335 44.219 143.691 44.131 144.028 43.955C144.373 43.7717 144.666 43.5113 144.908 43.174C145.158 42.8293 145.323 42.426 145.403 41.964ZM149.647 36.86L148.206 45H147.205L148.646 36.86H149.647ZM151.661 37.993C151.5 37.993 151.364 37.9417 151.254 37.839C151.151 37.729 151.1 37.5933 151.1 37.432C151.1 37.212 151.181 37.025 151.342 36.871C151.503 36.7097 151.69 36.629 151.903 36.629C152.072 36.629 152.207 36.6803 152.31 36.783C152.413 36.8857 152.464 37.0213 152.464 37.19C152.464 37.41 152.383 37.6007 152.222 37.762C152.061 37.916 151.874 37.993 151.661 37.993ZM151.98 38.972L150.913 45H149.912L150.979 38.972H151.98ZM156.348 37.432C155.901 37.432 155.571 37.52 155.358 37.696C155.153 37.8647 155.017 38.147 154.951 38.543L154.874 38.972H156.139L155.996 39.797H154.731L153.807 45H152.806L153.719 39.797H152.949L153.092 38.972H153.862L153.939 38.543C154.064 37.8683 154.328 37.377 154.731 37.069C155.134 36.7537 155.721 36.596 156.491 36.596L156.348 37.432ZM157.988 37.993C157.827 37.993 157.691 37.9417 157.581 37.839C157.478 37.729 157.427 37.5933 157.427 37.432C157.427 37.212 157.508 37.025 157.669 36.871C157.83 36.7097 158.017 36.629 158.23 36.629C158.399 36.629 158.534 36.6803 158.637 36.783C158.74 36.8857 158.791 37.0213 158.791 37.19C158.791 37.41 158.71 37.6007 158.549 37.762C158.388 37.916 158.201 37.993 157.988 37.993ZM158.307 38.972L157.24 45H156.239L157.306 38.972H158.307ZM162.631 38.873C163.137 38.873 163.573 38.972 163.94 39.17C164.314 39.3607 164.596 39.632 164.787 39.984C164.985 40.3287 165.084 40.7247 165.084 41.172C165.084 41.326 165.066 41.513 165.029 41.733C165 41.9237 164.952 42.1217 164.886 42.327H160.068C160.053 42.4737 160.046 42.58 160.046 42.646C160.046 43.152 160.196 43.548 160.497 43.834C160.805 44.1127 161.205 44.252 161.696 44.252C162.129 44.252 162.506 44.153 162.829 43.955C163.159 43.7497 163.408 43.4783 163.577 43.141H164.655C164.391 43.7203 163.984 44.1933 163.434 44.56C162.891 44.9193 162.261 45.099 161.542 45.099C160.787 45.099 160.178 44.8827 159.716 44.45C159.261 44.01 159.034 43.4123 159.034 42.657C159.034 42.4443 159.056 42.217 159.1 41.975C159.21 41.3517 159.434 40.8053 159.771 40.336C160.108 39.8667 160.523 39.5073 161.014 39.258C161.513 39.0013 162.052 38.873 162.631 38.873ZM164.017 41.601C164.039 41.4543 164.05 41.3187 164.05 41.194C164.05 40.7247 163.9 40.3617 163.599 40.105C163.306 39.8483 162.921 39.72 162.444 39.72C161.931 39.72 161.465 39.8887 161.047 40.226C160.629 40.556 160.347 41.0143 160.2 41.601H164.017ZM165.921 41.964C166.031 41.348 166.251 40.809 166.581 40.347C166.919 39.8777 167.329 39.5147 167.813 39.258C168.297 39.0013 168.811 38.873 169.353 38.873C169.815 38.873 170.23 38.983 170.596 39.203C170.963 39.4157 171.223 39.698 171.377 40.05L171.938 36.86H172.95L171.509 45H170.497L170.706 43.867C170.45 44.2263 170.105 44.5233 169.672 44.758C169.24 44.9853 168.763 45.099 168.242 45.099C167.773 45.099 167.359 45 166.999 44.802C166.64 44.5967 166.358 44.307 166.152 43.933C165.954 43.559 165.855 43.1263 165.855 42.635C165.855 42.415 165.877 42.1913 165.921 41.964ZM171.036 41.975C171.066 41.821 171.08 41.656 171.08 41.48C171.08 40.9447 170.919 40.523 170.596 40.215C170.281 39.8997 169.878 39.742 169.386 39.742C169.012 39.742 168.653 39.83 168.308 40.006C167.971 40.182 167.681 40.4387 167.439 40.776C167.197 41.1133 167.036 41.5093 166.955 41.964C166.926 42.118 166.911 42.2867 166.911 42.47C166.911 43.0127 167.069 43.4417 167.384 43.757C167.7 44.065 168.103 44.219 168.594 44.219C168.968 44.219 169.324 44.131 169.661 43.955C170.006 43.7717 170.299 43.5113 170.541 43.174C170.791 42.8293 170.956 42.4297 171.036 41.975Z" fill="#C9CCD9"/>
</svg>
