<svg width="521" height="125" viewBox="0 0 521 125" fill="none" xmlns="http://www.w3.org/2000/svg">
<rect width="125" height="125" rx="16" fill="#1695F1"/>
<path d="M35.5903 67.7083V57.2917H46.007" stroke="white" stroke-width="5" stroke-miterlimit="10" stroke-linecap="round"/>
<path d="M75.5209 96.3542L35.5903 57.2917" stroke="white" stroke-width="5" stroke-miterlimit="10" stroke-linecap="round"/>
<path d="M96.3544 85.0694V95.4861H85.9377" stroke="white" stroke-width="5" stroke-miterlimit="10" stroke-linecap="round"/>
<path d="M96.3544 95.4861L76.3709 75.8779L50.3474 50.3472" stroke="white" stroke-width="5" stroke-miterlimit="10" stroke-linecap="round"/>
<path d="M56.4238 78.125H37.8489C28.4506 78.125 20.8335 70.5511 20.8335 61.2061C20.8335 51.8612 28.4629 43.8588 37.8489 44.2873C39.7983 44.377 41.7272 44.8096 43.5453 45.5319C45.942 46.4827 48.1541 47.9395 49.9722 49.78" stroke="white" stroke-width="5" stroke-miterlimit="10" stroke-linecap="round"/>
<path d="M43.4028 45.3687C46.6233 35.655 55.8192 28.6458 66.6601 28.6458C80.1826 28.6458 91.1459 39.5534 91.1459 53.0072C91.1459 53.2793 91.1418 53.5473 91.1296 53.8194" stroke="white" stroke-width="5" stroke-miterlimit="10" stroke-linecap="round"/>
<path d="M90.7779 53.93C91.2969 53.8563 91.8325 53.8194 92.3722 53.8194C98.8854 53.8194 104.167 59.0669 104.167 65.5382C104.167 72.0095 98.8854 77.2569 92.3722 77.2569H77.2571" stroke="white" stroke-width="5" stroke-miterlimit="10" stroke-linecap="round"/>
<mask id="path-10-outside-1_41_153" maskUnits="userSpaceOnUse" x="153" y="20" width="364" height="105" fill="black">
<rect fill="white" x="153" y="20" width="364" height="105"/>
<path d="M177.5 98.9C173.167 98.9 169.267 98.1333 165.8 96.6C162.4 95 159.7 92.8667 157.7 90.2C155.7 87.4667 154.633 84.4333 154.5 81.1H166.3C166.5 83.4333 167.6 85.4 169.6 87C171.667 88.5333 174.233 89.3 177.3 89.3C180.5 89.3 182.967 88.7 184.7 87.5C186.5 86.2333 187.4 84.6333 187.4 82.7C187.4 80.6333 186.4 79.1 184.4 78.1C182.467 77.1 179.367 76 175.1 74.8C170.967 73.6667 167.6 72.5667 165 71.5C162.4 70.4333 160.133 68.8 158.2 66.6C156.333 64.4 155.4 61.5 155.4 57.9C155.4 54.9667 156.267 52.3 158 49.9C159.733 47.4333 162.2 45.5 165.4 44.1C168.667 42.7 172.4 42 176.6 42C182.867 42 187.9 43.6 191.7 46.8C195.567 49.9333 197.633 54.2333 197.9 59.7H186.5C186.3 57.2333 185.3 55.2667 183.5 53.8C181.7 52.3333 179.267 51.6 176.2 51.6C173.2 51.6 170.9 52.1667 169.3 53.3C167.7 54.4333 166.9 55.9333 166.9 57.8C166.9 59.2667 167.433 60.5 168.5 61.5C169.567 62.5 170.867 63.3 172.4 63.9C173.933 64.4333 176.2 65.1333 179.2 66C183.2 67.0667 186.467 68.1667 189 69.3C191.6 70.3667 193.833 71.9667 195.7 74.1C197.567 76.2333 198.533 79.0667 198.6 82.6C198.6 85.7333 197.733 88.5333 196 91C194.267 93.4667 191.8 95.4 188.6 96.8C185.467 98.2 181.767 98.9 177.5 98.9ZM236.718 70.5L262.118 98H246.718L226.318 74.3V98H214.918V24H226.318V67L246.318 42.9H262.118L236.718 70.5ZM323.889 42.9L290.089 123.9H278.289L289.489 97.1L267.789 42.9H280.489L295.989 84.9L312.089 42.9H323.889ZM386.392 42.9V98H374.992V91.5C373.192 93.7667 370.826 95.5667 367.892 96.9C365.026 98.1667 361.959 98.8 358.692 98.8C354.359 98.8 350.459 97.9 346.992 96.1C343.592 94.3 340.892 91.6333 338.892 88.1C336.959 84.5667 335.992 80.3 335.992 75.3V42.9H347.292V73.6C347.292 78.5333 348.526 82.3333 350.992 85C353.459 87.6 356.826 88.9 361.092 88.9C365.359 88.9 368.726 87.6 371.192 85C373.726 82.3333 374.992 78.5333 374.992 73.6V42.9H386.392ZM410.034 98.7C407.967 98.7 406.234 98 404.834 96.6C403.434 95.2 402.734 93.4667 402.734 91.4C402.734 89.3333 403.434 87.6 404.834 86.2C406.234 84.8 407.967 84.1 410.034 84.1C412.034 84.1 413.734 84.8 415.134 86.2C416.534 87.6 417.234 89.3333 417.234 91.4C417.234 93.4667 416.534 95.2 415.134 96.6C413.734 98 412.034 98.7 410.034 98.7ZM439.355 35.6C437.288 35.6 435.555 34.9 434.155 33.5C432.755 32.1 432.055 30.3667 432.055 28.3C432.055 26.2333 432.755 24.5 434.155 23.1C435.555 21.7 437.288 21 439.355 21C441.355 21 443.055 21.7 444.455 23.1C445.855 24.5 446.555 26.2333 446.555 28.3C446.555 30.3667 445.855 32.1 444.455 33.5C443.055 34.9 441.355 35.6 439.355 35.6ZM444.955 42.9V98H433.555V42.9H444.955ZM487.822 98.9C482.622 98.9 477.922 97.7333 473.722 95.4C469.522 93 466.222 89.6667 463.822 85.4C461.422 81.0667 460.222 76.0667 460.222 70.4C460.222 64.8 461.455 59.8333 463.922 55.5C466.389 51.1667 469.755 47.8333 474.022 45.5C478.289 43.1667 483.055 42 488.322 42C493.589 42 498.355 43.1667 502.622 45.5C506.889 47.8333 510.255 51.1667 512.722 55.5C515.189 59.8333 516.422 64.8 516.422 70.4C516.422 76 515.155 80.9667 512.622 85.3C510.089 89.6333 506.622 93 502.222 95.4C497.889 97.7333 493.089 98.9 487.822 98.9ZM487.822 89C490.755 89 493.489 88.3 496.022 86.9C498.622 85.5 500.722 83.4 502.322 80.6C503.922 77.8 504.722 74.4 504.722 70.4C504.722 66.4 503.955 63.0333 502.422 60.3C500.889 57.5 498.855 55.4 496.322 54C493.789 52.6 491.055 51.9 488.122 51.9C485.189 51.9 482.455 52.6 479.922 54C477.455 55.4 475.489 57.5 474.022 60.3C472.555 63.0333 471.822 66.4 471.822 70.4C471.822 76.3333 473.322 80.9333 476.322 84.2C479.389 87.4 483.222 89 487.822 89Z"/>
</mask>
<path d="M177.5 98.9C173.167 98.9 169.267 98.1333 165.8 96.6C162.4 95 159.7 92.8667 157.7 90.2C155.7 87.4667 154.633 84.4333 154.5 81.1H166.3C166.5 83.4333 167.6 85.4 169.6 87C171.667 88.5333 174.233 89.3 177.3 89.3C180.5 89.3 182.967 88.7 184.7 87.5C186.5 86.2333 187.4 84.6333 187.4 82.7C187.4 80.6333 186.4 79.1 184.4 78.1C182.467 77.1 179.367 76 175.1 74.8C170.967 73.6667 167.6 72.5667 165 71.5C162.4 70.4333 160.133 68.8 158.2 66.6C156.333 64.4 155.4 61.5 155.4 57.9C155.4 54.9667 156.267 52.3 158 49.9C159.733 47.4333 162.2 45.5 165.4 44.1C168.667 42.7 172.4 42 176.6 42C182.867 42 187.9 43.6 191.7 46.8C195.567 49.9333 197.633 54.2333 197.9 59.7H186.5C186.3 57.2333 185.3 55.2667 183.5 53.8C181.7 52.3333 179.267 51.6 176.2 51.6C173.2 51.6 170.9 52.1667 169.3 53.3C167.7 54.4333 166.9 55.9333 166.9 57.8C166.9 59.2667 167.433 60.5 168.5 61.5C169.567 62.5 170.867 63.3 172.4 63.9C173.933 64.4333 176.2 65.1333 179.2 66C183.2 67.0667 186.467 68.1667 189 69.3C191.6 70.3667 193.833 71.9667 195.7 74.1C197.567 76.2333 198.533 79.0667 198.6 82.6C198.6 85.7333 197.733 88.5333 196 91C194.267 93.4667 191.8 95.4 188.6 96.8C185.467 98.2 181.767 98.9 177.5 98.9ZM236.718 70.5L262.118 98H246.718L226.318 74.3V98H214.918V24H226.318V67L246.318 42.9H262.118L236.718 70.5ZM323.889 42.9L290.089 123.9H278.289L289.489 97.1L267.789 42.9H280.489L295.989 84.9L312.089 42.9H323.889ZM386.392 42.9V98H374.992V91.5C373.192 93.7667 370.826 95.5667 367.892 96.9C365.026 98.1667 361.959 98.8 358.692 98.8C354.359 98.8 350.459 97.9 346.992 96.1C343.592 94.3 340.892 91.6333 338.892 88.1C336.959 84.5667 335.992 80.3 335.992 75.3V42.9H347.292V73.6C347.292 78.5333 348.526 82.3333 350.992 85C353.459 87.6 356.826 88.9 361.092 88.9C365.359 88.9 368.726 87.6 371.192 85C373.726 82.3333 374.992 78.5333 374.992 73.6V42.9H386.392ZM410.034 98.7C407.967 98.7 406.234 98 404.834 96.6C403.434 95.2 402.734 93.4667 402.734 91.4C402.734 89.3333 403.434 87.6 404.834 86.2C406.234 84.8 407.967 84.1 410.034 84.1C412.034 84.1 413.734 84.8 415.134 86.2C416.534 87.6 417.234 89.3333 417.234 91.4C417.234 93.4667 416.534 95.2 415.134 96.6C413.734 98 412.034 98.7 410.034 98.7ZM439.355 35.6C437.288 35.6 435.555 34.9 434.155 33.5C432.755 32.1 432.055 30.3667 432.055 28.3C432.055 26.2333 432.755 24.5 434.155 23.1C435.555 21.7 437.288 21 439.355 21C441.355 21 443.055 21.7 444.455 23.1C445.855 24.5 446.555 26.2333 446.555 28.3C446.555 30.3667 445.855 32.1 444.455 33.5C443.055 34.9 441.355 35.6 439.355 35.6ZM444.955 42.9V98H433.555V42.9H444.955ZM487.822 98.9C482.622 98.9 477.922 97.7333 473.722 95.4C469.522 93 466.222 89.6667 463.822 85.4C461.422 81.0667 460.222 76.0667 460.222 70.4C460.222 64.8 461.455 59.8333 463.922 55.5C466.389 51.1667 469.755 47.8333 474.022 45.5C478.289 43.1667 483.055 42 488.322 42C493.589 42 498.355 43.1667 502.622 45.5C506.889 47.8333 510.255 51.1667 512.722 55.5C515.189 59.8333 516.422 64.8 516.422 70.4C516.422 76 515.155 80.9667 512.622 85.3C510.089 89.6333 506.622 93 502.222 95.4C497.889 97.7333 493.089 98.9 487.822 98.9ZM487.822 89C490.755 89 493.489 88.3 496.022 86.9C498.622 85.5 500.722 83.4 502.322 80.6C503.922 77.8 504.722 74.4 504.722 70.4C504.722 66.4 503.955 63.0333 502.422 60.3C500.889 57.5 498.855 55.4 496.322 54C493.789 52.6 491.055 51.9 488.122 51.9C485.189 51.9 482.455 52.6 479.922 54C477.455 55.4 475.489 57.5 474.022 60.3C472.555 63.0333 471.822 66.4 471.822 70.4C471.822 76.3333 473.322 80.9333 476.322 84.2C479.389 87.4 483.222 89 487.822 89Z" fill="#FFFFFF"/>
<path d="M165.8 96.6L165.587 97.0525L165.598 97.0573L165.8 96.6ZM157.7 90.2L157.296 90.4953L157.3 90.5L157.7 90.2ZM154.5 81.1V80.6H153.98L154 81.12L154.5 81.1ZM166.3 81.1L166.798 81.0573L166.759 80.6H166.3V81.1ZM169.6 87L169.288 87.3904L169.295 87.3961L169.302 87.4015L169.6 87ZM184.7 87.5L184.985 87.9111L184.988 87.9089L184.7 87.5ZM184.4 78.1L184.17 78.5441L184.176 78.5472L184.4 78.1ZM175.1 74.8L175.235 74.3187L175.232 74.3178L175.1 74.8ZM165 71.5L164.81 71.9626L164.81 71.9626L165 71.5ZM158.2 66.6L157.819 66.9235L157.824 66.9301L158.2 66.6ZM158 49.9L158.405 50.1928L158.409 50.1875L158 49.9ZM165.4 44.1L165.203 43.6404L165.2 43.6419L165.4 44.1ZM191.7 46.8L191.378 47.1825L191.385 47.1885L191.7 46.8ZM197.9 59.7V60.2H198.425L198.399 59.6756L197.9 59.7ZM186.5 59.7L186.002 59.7404L186.039 60.2H186.5V59.7ZM183.5 53.8L183.816 53.4124L183.816 53.4124L183.5 53.8ZM169.3 53.3L169.011 52.892L169.011 52.892L169.3 53.3ZM168.5 61.5L168.158 61.8648L168.158 61.8648L168.5 61.5ZM172.4 63.9L172.218 64.3656L172.227 64.3691L172.236 64.3722L172.4 63.9ZM179.2 66L179.061 66.4805L179.071 66.4831L179.2 66ZM189 69.3L188.796 69.7564L188.803 69.7596L188.81 69.7626L189 69.3ZM195.7 74.1L195.324 74.4293L195.324 74.4293L195.7 74.1ZM198.6 82.6H199.1L199.1 82.5906L198.6 82.6ZM196 91L195.591 90.7125L195.591 90.7125L196 91ZM188.6 96.8L188.4 96.3419L188.396 96.3435L188.6 96.8ZM177.5 98.4C173.226 98.4 169.397 97.6441 166.002 96.1427L165.598 97.0573C169.137 98.6225 173.107 99.4 177.5 99.4V98.4ZM166.013 96.1476C162.677 94.5779 160.045 92.4934 158.1 89.9L157.3 90.5C159.355 93.2399 162.123 95.4221 165.587 97.0524L166.013 96.1476ZM158.104 89.9047C156.161 87.2503 155.129 84.3125 155 81.08L154 81.12C154.138 84.5542 155.239 87.6831 157.296 90.4953L158.104 89.9047ZM154.5 81.6H166.3V80.6H154.5V81.6ZM165.802 81.1427C166.015 83.6261 167.192 85.7138 169.288 87.3904L169.912 86.6096C168.008 85.0862 166.985 83.2406 166.798 81.0573L165.802 81.1427ZM169.302 87.4015C171.47 89.0104 174.147 89.8 177.3 89.8V88.8C174.319 88.8 171.863 88.0563 169.898 86.5985L169.302 87.4015ZM177.3 89.8C180.552 89.8 183.135 89.1919 184.985 87.9111L184.415 87.0889C182.799 88.2081 180.448 88.8 177.3 88.8V89.8ZM184.988 87.9089C186.9 86.5636 187.9 84.8205 187.9 82.7H186.9C186.9 84.4462 186.1 85.9031 184.412 87.0911L184.988 87.9089ZM187.9 82.7C187.9 81.5826 187.628 80.5849 187.069 79.7269C186.511 78.871 185.685 78.1837 184.624 77.6528L184.176 78.5472C185.115 79.0163 185.789 79.5956 186.231 80.2731C186.672 80.9484 186.9 81.7508 186.9 82.7H187.9ZM184.63 77.6559C182.649 76.6314 179.508 75.5205 175.235 74.3187L174.965 75.2813C179.225 76.4795 182.284 77.5686 184.17 78.5441L184.63 77.6559ZM175.232 74.3178C171.109 73.1874 167.764 72.0935 165.19 71.0374L164.81 71.9626C167.436 73.0398 170.824 74.146 174.968 75.2822L175.232 74.3178ZM165.19 71.0374C162.664 70.0013 160.46 68.4145 158.576 66.2699L157.824 66.9301C159.806 69.1854 162.136 70.8654 164.81 71.9626L165.19 71.0374ZM158.581 66.2765C156.809 64.1875 155.9 61.4118 155.9 57.9H154.9C154.9 61.5882 155.858 64.6125 157.819 66.9235L158.581 66.2765ZM155.9 57.9C155.9 55.0728 156.733 52.5084 158.405 50.1927L157.595 49.6073C155.8 52.0916 154.9 54.8605 154.9 57.9H155.9ZM158.409 50.1875C160.082 47.8069 162.471 45.9273 165.6 44.5581L165.2 43.6419C161.929 45.0727 159.385 47.0597 157.591 49.6125L158.409 50.1875ZM165.597 44.5596C168.791 43.1906 172.456 42.5 176.6 42.5V41.5C172.344 41.5 168.542 42.2094 165.203 43.6404L165.597 44.5596ZM176.6 42.5C182.78 42.5 187.69 44.0765 191.378 47.1825L192.022 46.4175C188.11 43.1235 182.953 41.5 176.6 41.5V42.5ZM191.385 47.1885C195.13 50.2227 197.14 54.3839 197.401 59.7244L198.399 59.6756C198.127 54.0827 196.004 49.644 192.015 46.4115L191.385 47.1885ZM197.9 59.2H186.5V60.2H197.9V59.2ZM186.998 59.6596C186.788 57.0671 185.729 54.9712 183.816 53.4124L183.184 54.1876C184.871 55.5621 185.812 57.3995 186.002 59.7404L186.998 59.6596ZM183.816 53.4124C181.902 51.8526 179.345 51.1 176.2 51.1V52.1C179.189 52.1 181.498 52.8141 183.184 54.1876L183.816 53.4124ZM176.2 51.1C173.148 51.1 170.729 51.6747 169.011 52.892L169.589 53.708C171.071 52.6586 173.252 52.1 176.2 52.1V51.1ZM169.011 52.892C167.287 54.1135 166.4 55.7617 166.4 57.8H167.4C167.4 56.1049 168.113 54.7532 169.589 53.708L169.011 52.892ZM166.4 57.8C166.4 59.4044 166.99 60.7699 168.158 61.8648L168.842 61.1352C167.876 60.2301 167.4 59.1289 167.4 57.8H166.4ZM168.158 61.8648C169.277 62.9134 170.633 63.7454 172.218 64.3656L172.582 63.4344C171.101 62.8546 169.857 62.0866 168.842 61.1352L168.158 61.8648ZM172.236 64.3722C173.782 64.9101 176.059 65.613 179.061 66.4804L179.339 65.5196C176.341 64.6536 174.085 63.9566 172.564 63.4277L172.236 64.3722ZM179.071 66.4831C183.057 67.5459 186.296 68.6379 188.796 69.7564L189.204 68.8436C186.638 67.6955 183.343 66.5874 179.329 65.5169L179.071 66.4831ZM188.81 69.7626C191.338 70.7996 193.508 72.3537 195.324 74.4293L196.076 73.7707C194.159 71.5796 191.862 69.9337 189.19 68.8374L188.81 69.7626ZM195.324 74.4293C197.095 76.4537 198.035 79.164 198.1 82.6094L199.1 82.5906C199.032 78.9694 198.038 76.013 196.076 73.7707L195.324 74.4293ZM198.1 82.6C198.1 85.6347 197.263 88.3335 195.591 90.7125L196.409 91.2875C198.204 88.7332 199.1 85.8319 199.1 82.6H198.1ZM195.591 90.7125C193.918 93.0931 191.529 94.9727 188.4 96.3419L188.8 97.2581C192.071 95.8273 194.615 93.8403 196.409 91.2875L195.591 90.7125ZM188.396 96.3435C185.34 97.7087 181.713 98.4 177.5 98.4V99.4C181.82 99.4 185.593 98.6913 188.804 97.2565L188.396 96.3435ZM236.718 70.5L236.35 70.1614L236.038 70.5006L236.351 70.8393L236.718 70.5ZM262.118 98V98.5H263.26L262.485 97.6607L262.118 98ZM246.718 98L246.339 98.3262L246.489 98.5H246.718V98ZM226.318 74.3L226.697 73.9738L225.818 72.9527V74.3H226.318ZM226.318 98V98.5H226.818V98H226.318ZM214.918 98H214.418V98.5H214.918V98ZM214.918 24V23.5H214.418V24H214.918ZM226.318 24H226.818V23.5H226.318V24ZM226.318 67H225.818V68.3854L226.703 67.3193L226.318 67ZM246.318 42.9V42.4H246.083L245.933 42.5807L246.318 42.9ZM262.118 42.9L262.486 43.2386L263.258 42.4H262.118V42.9ZM236.351 70.8393L261.751 98.3393L262.485 97.6607L237.085 70.1607L236.351 70.8393ZM262.118 97.5H246.718V98.5H262.118V97.5ZM247.097 97.6738L226.697 73.9738L225.939 74.6262L246.339 98.3262L247.097 97.6738ZM225.818 74.3V98H226.818V74.3H225.818ZM226.318 97.5H214.918V98.5H226.318V97.5ZM215.418 98V24H214.418V98H215.418ZM214.918 24.5H226.318V23.5H214.918V24.5ZM225.818 24V67H226.818V24H225.818ZM226.703 67.3193L246.703 43.2193L245.933 42.5807L225.933 66.6807L226.703 67.3193ZM246.318 43.4H262.118V42.4H246.318V43.4ZM261.75 42.5614L236.35 70.1614L237.086 70.8386L262.486 43.2386L261.75 42.5614ZM323.889 42.9L324.351 43.0926L324.639 42.4H323.889V42.9ZM290.089 123.9V124.4H290.422L290.551 124.093L290.089 123.9ZM278.289 123.9L277.828 123.707L277.538 124.4H278.289V123.9ZM289.489 97.1L289.95 97.2928L290.029 97.1041L289.953 96.9142L289.489 97.1ZM267.789 42.9V42.4H267.05L267.325 43.0858L267.789 42.9ZM280.489 42.9L280.958 42.7269L280.838 42.4H280.489V42.9ZM295.989 84.9L295.52 85.0731L295.98 86.3201L296.456 85.079L295.989 84.9ZM312.089 42.9V42.4H311.745L311.622 42.721L312.089 42.9ZM323.428 42.7074L289.628 123.707L290.551 124.093L324.351 43.0926L323.428 42.7074ZM290.089 123.4H278.289V124.4H290.089V123.4ZM278.75 124.093L289.95 97.2928L289.028 96.9072L277.828 123.707L278.75 124.093ZM289.953 96.9142L268.253 42.7142L267.325 43.0858L289.025 97.2858L289.953 96.9142ZM267.789 43.4H280.489V42.4H267.789V43.4ZM280.02 43.0731L295.52 85.0731L296.458 84.7269L280.958 42.7269L280.02 43.0731ZM296.456 85.079L312.556 43.079L311.622 42.721L295.522 84.721L296.456 85.079ZM312.089 43.4H323.889V42.4H312.089V43.4ZM386.392 42.9H386.892V42.4H386.392V42.9ZM386.392 98V98.5H386.892V98H386.392ZM374.992 98H374.492V98.5H374.992V98ZM374.992 91.5H375.492V90.0664L374.601 91.1891L374.992 91.5ZM367.892 96.9L368.094 97.3574L368.099 97.3552L367.892 96.9ZM346.992 96.1L346.758 96.5419L346.762 96.5437L346.992 96.1ZM338.892 88.1L338.454 88.34L338.457 88.3463L338.892 88.1ZM335.992 42.9V42.4H335.492V42.9H335.992ZM347.292 42.9H347.792V42.4H347.292V42.9ZM350.992 85L350.625 85.3395L350.629 85.3441L350.992 85ZM371.192 85L370.83 84.6556L370.829 84.6559L371.192 85ZM374.992 42.9V42.4H374.492V42.9H374.992ZM385.892 42.9V98H386.892V42.9H385.892ZM386.392 97.5H374.992V98.5H386.392V97.5ZM375.492 98V91.5H374.492V98H375.492ZM374.601 91.1891C372.855 93.3869 370.555 95.1405 367.685 96.4448L368.099 97.3552C371.096 95.9928 373.529 94.1464 375.384 91.8109L374.601 91.1891ZM367.69 96.4427C364.89 97.68 361.892 98.3 358.692 98.3V99.3C362.025 99.3 365.161 98.6533 368.094 97.3573L367.69 96.4427ZM358.692 98.3C354.43 98.3 350.611 97.4154 347.223 95.6563L346.762 96.5437C350.307 98.3846 354.288 99.3 358.692 99.3V98.3ZM347.226 95.6581C343.915 93.9053 341.283 91.3088 339.327 87.8537L338.457 88.3463C340.501 91.9579 343.269 94.6947 346.758 96.5419L347.226 95.6581ZM339.331 87.86C337.446 84.416 336.492 80.2361 336.492 75.3H335.492C335.492 80.3639 336.471 84.7174 338.454 88.34L339.331 87.86ZM336.492 75.3V42.9H335.492V75.3H336.492ZM335.992 43.4H347.292V42.4H335.992V43.4ZM346.792 42.9V73.6H347.792V42.9H346.792ZM346.792 73.6C346.792 78.6135 348.046 82.5516 350.625 85.3395L351.359 84.6605C349.005 82.115 347.792 78.4532 347.792 73.6H346.792ZM350.629 85.3441C353.208 88.0624 356.717 89.4 361.092 89.4V88.4C356.934 88.4 353.709 87.1376 351.355 84.6559L350.629 85.3441ZM361.092 89.4C365.468 89.4 368.976 88.0624 371.555 85.3441L370.829 84.6559C368.475 87.1376 365.25 88.4 361.092 88.4V89.4ZM371.555 85.3444C374.203 82.5567 375.492 78.6168 375.492 73.6H374.492C374.492 78.4499 373.248 82.1099 370.83 84.6556L371.555 85.3444ZM375.492 73.6V42.9H374.492V73.6H375.492ZM374.992 43.4H386.392V42.4H374.992V43.4ZM404.834 96.6L405.187 96.2464L405.187 96.2464L404.834 96.6ZM404.834 86.2L405.187 86.5536L405.187 86.5536L404.834 86.2ZM415.134 86.2L414.78 86.5536L415.134 86.2ZM415.134 96.6L414.78 96.2464L414.78 96.2464L415.134 96.6ZM410.034 98.2C408.093 98.2 406.489 97.5482 405.187 96.2464L404.48 96.9536C405.978 98.4518 407.841 99.2 410.034 99.2V98.2ZM405.187 96.2464C403.885 94.9447 403.234 93.3405 403.234 91.4H402.234C402.234 93.5928 402.982 95.4553 404.48 96.9536L405.187 96.2464ZM403.234 91.4C403.234 89.4595 403.885 87.8553 405.187 86.5536L404.48 85.8464C402.982 87.3447 402.234 89.2072 402.234 91.4H403.234ZM405.187 86.5536C406.489 85.2518 408.093 84.6 410.034 84.6V83.6C407.841 83.6 405.978 84.3482 404.48 85.8464L405.187 86.5536ZM410.034 84.6C411.902 84.6 413.475 85.2484 414.78 86.5536L415.487 85.8464C413.992 84.3516 412.165 83.6 410.034 83.6V84.6ZM414.78 86.5536C416.082 87.8553 416.734 89.4595 416.734 91.4H417.734C417.734 89.2072 416.985 87.3447 415.487 85.8464L414.78 86.5536ZM416.734 91.4C416.734 93.3405 416.082 94.9447 414.78 96.2464L415.487 96.9536C416.985 95.4553 417.734 93.5928 417.734 91.4H416.734ZM414.78 96.2464C413.475 97.5516 411.902 98.2 410.034 98.2V99.2C412.165 99.2 413.992 98.4484 415.487 96.9536L414.78 96.2464ZM434.155 33.5L434.508 33.1464L434.508 33.1464L434.155 33.5ZM434.155 23.1L434.508 23.4536L434.508 23.4536L434.155 23.1ZM444.455 23.1L444.101 23.4536L444.101 23.4536L444.455 23.1ZM444.455 33.5L444.101 33.1464L444.101 33.1464L444.455 33.5ZM444.955 42.9H445.455V42.4H444.955V42.9ZM444.955 98V98.5H445.455V98H444.955ZM433.555 98H433.055V98.5H433.555V98ZM433.555 42.9V42.4H433.055V42.9H433.555ZM439.355 35.1C437.414 35.1 435.81 34.4482 434.508 33.1464L433.801 33.8535C435.299 35.3518 437.162 36.1 439.355 36.1V35.1ZM434.508 33.1464C433.206 31.8447 432.555 30.2405 432.555 28.3H431.555C431.555 30.4928 432.303 32.3553 433.801 33.8535L434.508 33.1464ZM432.555 28.3C432.555 26.3595 433.206 24.7553 434.508 23.4536L433.801 22.7464C432.303 24.2447 431.555 26.1072 431.555 28.3H432.555ZM434.508 23.4536C435.81 22.1518 437.414 21.5 439.355 21.5V20.5C437.162 20.5 435.299 21.2482 433.801 22.7464L434.508 23.4536ZM439.355 21.5C441.224 21.5 442.796 22.1484 444.101 23.4536L444.808 22.7464C443.313 21.2516 441.486 20.5 439.355 20.5V21.5ZM444.101 23.4536C445.403 24.7553 446.055 26.3595 446.055 28.3H447.055C447.055 26.1072 446.306 24.2447 444.808 22.7464L444.101 23.4536ZM446.055 28.3C446.055 30.2405 445.403 31.8447 444.101 33.1464L444.808 33.8535C446.306 32.3553 447.055 30.4928 447.055 28.3H446.055ZM444.101 33.1464C442.796 34.4516 441.224 35.1 439.355 35.1V36.1C441.486 36.1 443.313 35.3484 444.808 33.8535L444.101 33.1464ZM444.455 42.9V98H445.455V42.9H444.455ZM444.955 97.5H433.555V98.5H444.955V97.5ZM434.055 98V42.9H433.055V98H434.055ZM433.555 43.4H444.955V42.4H433.555V43.4ZM473.722 95.4L473.474 95.8342L473.479 95.8371L473.722 95.4ZM463.822 85.4L463.384 85.6423L463.386 85.6451L463.822 85.4ZM474.022 45.5L473.782 45.0613L473.782 45.0613L474.022 45.5ZM502.622 45.5L502.862 45.0613L502.862 45.0613L502.622 45.5ZM512.622 85.3L512.19 85.0477L512.622 85.3ZM502.222 95.4L502.459 95.8402L502.461 95.8389L502.222 95.4ZM496.022 86.9L495.785 86.4597L495.78 86.4624L496.022 86.9ZM502.322 80.6L501.888 80.3519L501.888 80.3519L502.322 80.6ZM502.422 60.3L501.983 60.5402L501.986 60.5446L502.422 60.3ZM479.922 54L479.68 53.5623L479.675 53.5652L479.922 54ZM474.022 60.3L474.462 60.5364L474.465 60.532L474.022 60.3ZM476.322 84.2L475.954 84.5383L475.961 84.546L476.322 84.2ZM487.822 98.4C482.7 98.4 478.084 97.2516 473.965 94.9629L473.479 95.8371C477.759 98.215 482.544 99.4 487.822 99.4V98.4ZM473.97 94.9659C469.849 92.6113 466.614 89.3437 464.258 85.1549L463.386 85.6451C465.83 89.9896 469.194 93.3887 473.474 95.8341L473.97 94.9659ZM464.259 85.1577C461.906 80.9087 460.722 75.9943 460.722 70.4H459.722C459.722 76.1391 460.938 81.2247 463.384 85.6422L464.259 85.1577ZM460.722 70.4C460.722 64.8758 461.938 59.9964 464.356 55.7473L463.487 55.2526C460.973 59.6703 459.722 64.7242 459.722 70.4H460.722ZM464.356 55.7473C466.778 51.4925 470.079 48.2263 474.262 45.9387L473.782 45.0613C469.432 47.4403 465.999 50.8409 463.487 55.2526L464.356 55.7473ZM474.262 45.9387C478.449 43.6489 483.132 42.5 488.322 42.5V41.5C482.979 41.5 478.128 42.6845 473.782 45.0613L474.262 45.9387ZM488.322 42.5C493.512 42.5 498.195 43.6489 502.382 45.9387L502.862 45.0613C498.516 42.6845 493.665 41.5 488.322 41.5V42.5ZM502.382 45.9387C506.565 48.2263 509.865 51.4925 512.287 55.7473L513.156 55.2526C510.645 50.8409 507.212 47.4403 502.862 45.0613L502.382 45.9387ZM512.287 55.7473C514.706 59.9964 515.922 64.8758 515.922 70.4H516.922C516.922 64.7242 515.671 59.6703 513.156 55.2526L512.287 55.7473ZM515.922 70.4C515.922 75.9218 514.674 80.7995 512.19 85.0477L513.054 85.5523C515.637 81.1339 516.922 76.0782 516.922 70.4H515.922ZM512.19 85.0477C509.703 89.3026 506.302 92.6047 501.982 94.9611L502.461 95.8389C506.941 93.3953 510.474 89.9641 513.054 85.5523L512.19 85.0477ZM501.985 94.9598C497.729 97.2511 493.012 98.4 487.822 98.4V99.4C493.165 99.4 498.048 98.2155 502.459 95.8402L501.985 94.9598ZM487.822 89.5C490.839 89.5 493.655 88.7791 496.264 87.3376L495.78 86.4624C493.322 87.8209 490.672 88.5 487.822 88.5V89.5ZM496.259 87.3402C498.949 85.8918 501.114 83.7215 502.756 80.8481L501.888 80.3519C500.33 83.0785 498.295 85.1082 495.785 86.4598L496.259 87.3402ZM502.756 80.8481C504.408 77.9564 505.222 74.4663 505.222 70.4H504.222C504.222 74.3337 503.435 77.6436 501.888 80.3519L502.756 80.8481ZM505.222 70.4C505.222 66.3375 504.443 62.8813 502.858 60.0554L501.986 60.5446C503.467 63.1853 504.222 66.4625 504.222 70.4H505.222ZM502.86 60.0598C501.286 57.1856 499.188 55.0129 496.564 53.5624L496.08 54.4376C498.522 55.7871 500.491 57.8144 501.983 60.5402L502.86 60.0598ZM496.564 53.5624C493.955 52.1209 491.139 51.4 488.122 51.4V52.4C490.972 52.4 493.622 53.0791 496.08 54.4376L496.564 53.5624ZM488.122 51.4C485.105 51.4 482.288 52.1209 479.68 53.5624L480.164 54.4376C482.622 53.0791 485.272 52.4 488.122 52.4V51.4ZM479.675 53.5652C477.116 55.0179 475.085 57.193 473.579 60.068L474.465 60.532C475.892 57.807 477.795 55.7821 480.169 54.4348L479.675 53.5652ZM473.581 60.0636C472.066 62.8876 471.322 66.3407 471.322 70.4H472.322C472.322 66.4593 473.044 63.179 474.462 60.5364L473.581 60.0636ZM471.322 70.4C471.322 76.4155 472.844 81.1518 475.954 84.5382L476.69 83.8618C473.8 80.7149 472.322 76.2512 472.322 70.4H471.322ZM475.961 84.546C479.126 87.8485 483.091 89.5 487.822 89.5V88.5C483.352 88.5 479.651 86.9515 476.683 83.854L475.961 84.546Z" fill="#FFFFFF" mask="url(#path-10-outside-1_41_153)"/>
</svg>
