<svg width="167" height="40" viewBox="0 0 167 40" fill="none" xmlns="http://www.w3.org/2000/svg">
<path d="M2.84444 31.1111V0H0V31.1111H2.84444Z" fill="black"/>
<path d="M25.0677 31.1111H22.2233V19.4222C22.2233 13.8667 19.4233 11.2444 15.2899 11.2444C11.1566 11.2444 8.3566 13.8667 8.3566 19.4222V31.1111H5.51215V19.4222C5.51215 11.9556 9.60104 8.53333 15.2899 8.53333C20.9788 8.53333 25.0677 11.9556 25.0677 19.4222V31.1111Z" fill="black"/>
<path d="M35.0677 31.4667C39.6455 31.4667 42.9344 29.2 42.8899 25.1111C42.7566 16.3556 30.5788 20.3111 30.5788 14.5333C30.5788 12.3111 32.4899 11.0667 34.9344 11.0667C37.3788 11.0667 39.3788 12.3111 39.3788 14.5778H42.1344C42.1344 10.7111 38.9344 8.53333 34.9344 8.53333C30.9788 8.53333 27.7344 10.8 27.7344 14.3556C27.7344 22.8 39.9566 18.7111 40.0455 25.0667C40.0455 27.4667 38.2677 28.9333 35.1121 28.9333C32.3121 28.9333 30.0455 27.4667 30.0455 24.9778H27.2899C27.2899 29.0667 30.9788 31.4667 35.0677 31.4667Z" fill="black"/>
<path d="M46.9177 5.02222C47.9399 5.02222 48.7399 4.26667 48.7399 3.2C48.7399 2.17778 47.9399 1.42222 46.9177 1.42222C45.8955 1.42222 45.0955 2.17778 45.0955 3.2C45.0955 4.26667 45.8955 5.02222 46.9177 5.02222ZM45.4955 31.1111H48.3399V8.88889H45.4955V31.1111Z" fill="black"/>
<path d="M62.6333 40C68.9889 40 74.1 34.8889 74.1 28.5333V20C74.1 13.6444 68.9889 8.53333 62.6333 8.53333C56.3222 8.53333 51.1667 13.6444 51.1667 20C51.1667 26.3556 56.3222 31.4667 62.6333 31.4667C66.2333 31.4667 69.3889 29.6889 71.2111 26.9333V29.0667C71.2111 33.7333 67.3444 37.2889 62.6778 37.2889C59.5667 37.2889 56.9889 35.6444 55.4778 33.1111H52.1444C53.9222 37.2 57.9667 40 62.6333 40ZM62.6778 28.7556C57.8778 28.7556 54.0111 24.8889 54.0111 20C54.0111 15.1111 57.7889 11.2444 62.6778 11.2444C67.5667 11.2444 71.2555 15.1111 71.2555 20C71.2555 24.8889 67.4778 28.7556 62.6778 28.7556Z" fill="black"/>
<path d="M86.5573 8.53333C83.5795 8.53333 81.3128 9.42222 79.6239 12.1778V0H76.7795V31.1111H79.6239V19.2C79.6239 13.8667 82.424 11.2444 86.5573 11.2444C90.6906 11.2444 93.4906 13.8667 93.4906 19.4222V31.1111H96.3351V19.4222C96.3351 11.9556 92.2462 8.53333 86.5573 8.53333Z" fill="black"/>
<path d="M108.767 11.6V8.88889H103.167V1.86667H100.323V8.88889H96.9896V11.6H100.323V20.6222C100.323 27.4222 103.79 30.7556 108.767 31.2444V28.4889C105.301 27.9556 103.167 25.4667 103.167 20.5333V11.6H108.767Z" fill="black"/>
<path d="M130.406 8.88889V20.5778C130.406 28.0444 126.317 31.4667 120.628 31.4667C114.94 31.4667 110.851 28.0444 110.851 20.5778V8.88889H113.695V20.5778C113.695 26.1333 116.495 28.7556 120.628 28.7556C124.762 28.7556 127.562 26.1333 127.562 20.5778V8.88889H130.406Z" fill="black"/>
<path d="M133.073 31.1111H135.917V19.5556C135.917 14.0444 138.451 11.4667 142.184 11.4667C142.406 11.4667 142.628 11.4667 142.851 11.5111V8.8C142.628 8.75556 142.406 8.75556 142.184 8.75556C136.851 8.75556 133.073 12.1333 133.073 19.5556V31.1111Z" fill="black"/>
<path d="M143.528 20.0444C143.528 26.3556 148.461 31.4667 154.861 31.4667C159.128 31.4667 163.128 29.1556 165.172 25.5556H161.706C160.15 27.4667 157.661 28.7556 154.817 28.7556C150.15 28.7556 146.683 25.2889 146.506 20.8889H166.061C166.106 20.5333 166.15 20.1333 166.106 19.6889C165.928 13.0222 160.817 8.53333 154.817 8.53333C148.417 8.53333 143.528 13.7333 143.528 20.0444ZM146.506 18.4889C147.172 14.4889 150.461 11.2444 154.861 11.2444C159.128 11.2444 162.372 14.4 163.083 18.4889H146.506Z" fill="black"/>
<circle cx="46.836" cy="3.01391" r="2.12502" fill="#FB5308"/>
</svg>
