<svg width="201" height="51" viewBox="0 0 201 51" fill="none" xmlns="http://www.w3.org/2000/svg">
<path d="M68.4232 22.719L68.4225 22.7188C68.3361 22.6963 68.2503 22.674 68.165 22.6518C66.895 22.3214 65.758 22.0257 64.9109 21.569C64.4682 21.3304 64.1366 21.0632 63.9154 20.7527C63.6995 20.4494 63.5702 20.0791 63.5702 19.5942C63.5702 18.7574 63.9198 18.0307 64.5817 17.5022C65.2519 16.9672 66.2728 16.6136 67.6311 16.6136C69.7045 16.6136 71.1833 17.3501 72.3555 18.6795L72.6746 19.0415L73.0477 18.7354L74.4096 17.6178L74.8054 17.293L74.4714 16.905C72.9055 15.0861 70.3828 14.017 67.6311 14.017C63.541 14.017 60.7648 16.5285 60.7648 19.6262C60.7648 21.5241 61.6362 22.7652 62.9008 23.6034C64.1267 24.416 65.728 24.855 67.2244 25.2204C67.3341 25.2487 67.4431 25.2766 67.5513 25.3044C68.8129 25.628 69.96 25.9222 70.8249 26.3823C71.2854 26.6272 71.6333 26.9036 71.8663 27.2276C72.0938 27.5441 72.2305 27.9317 72.2305 28.4395C72.2305 29.3366 71.8707 30.1784 71.1453 30.8028C70.4166 31.43 69.2826 31.8672 67.6945 31.8672C65.3374 31.8672 63.3588 30.6487 62.2071 29.0708L61.8978 28.647L61.4893 28.9764L60.064 30.126L59.6945 30.424L59.973 30.8084C61.5284 32.9562 64.3429 34.4958 67.6628 34.4958C70.1447 34.4958 71.9927 33.7261 73.2242 32.5631C74.4516 31.4041 75.0359 29.8822 75.0359 28.4395C75.0359 26.4749 74.13 25.2172 72.8287 24.372C71.5691 23.5538 69.9264 23.1137 68.4232 22.719ZM96.0959 33.9079L96.2457 34.1126H96.4994H98.6216H99.6074L99.025 33.3172L91.3224 22.7981L98.508 15.2775L99.3157 14.4321H98.1465H95.8343H95.6201L95.4723 14.5872L85.5654 24.9865V9.98258V9.48258H85.0654H83.2917H82.7917V9.98258V33.6126V34.1126H83.2917H85.0654H85.5654V33.6126V28.5763L89.3218 24.65L96.0959 33.9079ZM109.928 42.0298L109.612 42.7344H110.384H112.348H112.673L112.805 42.437L124.904 15.1347L125.216 14.4321H124.447H122.484H122.156L122.025 14.7323L115.69 29.2672L112.532 22.4963L108.905 14.7208L108.771 14.4321H108.452H106.425H105.637L105.973 15.1451L114.173 32.5639L109.928 42.0298ZM140.909 34.4958C143.651 34.4958 145.955 33.3192 147.441 31.4981V33.6126V34.1126H147.941H149.715H150.215V33.6126V14.9321V14.4321H149.715H147.909H147.409V14.9321V25.406C147.409 29.0568 144.625 31.8034 141.036 31.8034C139.058 31.8034 137.543 31.1642 136.522 30.0838C135.497 28.9996 134.916 27.417 134.916 25.4379V14.9321V14.4321H134.416H132.579H132.079V14.9321V25.406C132.079 28.1696 132.893 30.4532 134.437 32.0484C135.983 33.6456 138.206 34.4958 140.909 34.4958ZM170.082 33.6126V34.1126H170.582H172.388H172.888V33.6126V14.9321V14.4321H172.388H170.582H170.082V14.9321V33.6126ZM156.499 32.3672C156.499 32.9273 156.688 33.4481 157.058 33.8318C157.43 34.2181 157.953 34.4319 158.551 34.4319C159.148 34.4319 159.671 34.2181 160.043 33.8318C160.413 33.4481 160.602 32.9273 160.602 32.3672C160.602 31.8061 160.412 31.2905 160.038 30.9135C159.663 30.5354 159.141 30.3345 158.551 30.3345C157.397 30.3345 156.499 31.1872 156.499 32.3672ZM169.449 8.70463C169.449 9.26473 169.639 9.78546 170.009 10.1692C170.381 10.5555 170.903 10.7693 171.501 10.7693C172.099 10.7693 172.621 10.5555 172.993 10.1692C173.363 9.78547 173.553 9.26473 173.553 8.70463C173.553 8.14353 173.362 7.62788 172.988 7.25085C172.613 6.87277 172.091 6.67188 171.501 6.67188C170.348 6.67188 169.449 7.52461 169.449 8.70463ZM189.666 34.4958C195.265 34.4958 199.795 29.9913 199.795 24.2883C199.795 18.5545 195.266 14.0489 189.666 14.0489C184.034 14.0489 179.538 18.5556 179.538 24.2883C179.538 29.9902 184.035 34.4958 189.666 34.4958ZM189.666 31.8034C185.587 31.8034 182.375 28.4666 182.375 24.2883C182.375 20.0768 185.588 16.7413 189.666 16.7413C193.711 16.7413 196.926 20.0754 196.926 24.2883C196.926 28.468 193.713 31.8034 189.666 31.8034Z" fill="#FBFBFB" stroke="#FBFBFB"/>
<rect x="0.5" width="51.0959" height="51" rx="8" fill="#FBFBFB"/>
<path d="M15.0483 27.625V23.375H19.3063" stroke="#0683DE" stroke-width="3" stroke-miterlimit="10" stroke-linecap="round"/>
<path d="M31.3707 39.3125L15.0483 23.375" stroke="#0683DE" stroke-width="3" stroke-miterlimit="10" stroke-linecap="round"/>
<path d="M39.8864 34.708V38.958H35.6284" stroke="#0683DE" stroke-width="3" stroke-miterlimit="10" stroke-linecap="round"/>
<path d="M39.8867 38.9587L31.7181 30.9585L21.0806 20.542" stroke="#0683DE" stroke-width="3" stroke-miterlimit="10" stroke-linecap="round"/>
<path d="M23.5643 31.875H15.9714C12.1297 31.875 9.01611 28.7848 9.01611 24.9721C9.01611 21.1594 12.1348 17.8944 15.9714 18.0692C16.7683 18.1058 17.5568 18.2823 18.3 18.577C19.2797 18.965 20.1839 19.5593 20.9271 20.3102" stroke="#0683DE" stroke-width="3" stroke-miterlimit="10" stroke-linecap="round"/>
<path d="M18.2417 18.5104C19.5581 14.5472 23.3171 11.6875 27.7485 11.6875C33.2761 11.6875 37.7575 16.1378 37.7575 21.627C37.7575 21.738 37.7559 21.8473 37.7508 21.9583" stroke="#0683DE" stroke-width="3" stroke-miterlimit="10" stroke-linecap="round"/>
<path d="M37.6069 22.0031C37.8191 21.973 38.038 21.958 38.2586 21.958C40.921 21.958 43.0799 24.099 43.0799 26.7393C43.0799 29.3795 40.921 31.5205 38.2586 31.5205H32.0801" stroke="#0683DE" stroke-width="3" stroke-miterlimit="10" stroke-linecap="round"/>
</svg>
