<svg width="329" height="236" viewBox="0 0 329 236" fill="none" xmlns="http://www.w3.org/2000/svg">
<g style="mix-blend-mode:hard-light">
<path d="M166.113 286.132C174.885 252.996 185.787 217.416 220.398 194.21C260.439 167.369 317.011 150.441 370.358 151.268C398.353 151.702 424.273 157.733 446.919 170.431C463.855 179.919 478.119 186.987 495.897 175.743C517.619 162.002 532.897 143.35 554.352 129.361C577.15 114.49 604.042 102.721 631.113 93.1318V174.638C593.914 183.762 575.938 184.837 548.593 206.273C526.624 223.495 508.504 246.029 478.51 253.166C465.697 256.221 451.973 256.043 438.592 255.223C413.596 253.707 388.669 250.088 363.633 251.202C337.788 252.354 294.871 271.95 277.299 286.124H166.113V286.132Z" fill="#D6E8FF"/>
<path d="M0.000395245 267.557C11.5786 230.046 41.8008 195.844 83.7599 175.579C100.988 167.262 120.745 165.625 140.962 165.896C166.241 166.231 193.18 175.25 198.69 148.815C200.598 139.67 198.695 130.206 199.765 120.958C202.363 98.6631 222.775 79.4063 248.63 69.5288C274.485 59.6513 305.018 58.2499 334.046 61.6803C357 64.3922 379.433 70.0948 400.239 78.3298C413.012 83.3802 423.55 90.9052 434.718 97.7382C434.725 97.7386 434.738 97.7393 434.745 97.7474L434.764 97.7641C448.904 106.408 457.663 106.49 468.097 94.3153C472.642 89.0065 475.864 83.0569 480.495 77.7917C492.275 64.408 513.417 56.306 534.756 56.9974C548.457 57.4465 557.619 63.2279 568.547 68.8622C595.87 82.929 597.79 64.7929 617.208 51.8994C627.645 44.9675 639.709 39.4607 653.047 36.404C656.014 41.6691 657.58 48.0237 657.194 54.7781L653.95 111.607C626.361 119.635 598.826 129.851 575.205 143.395C552.975 156.136 536.65 173.883 514.167 186.362C495.767 196.572 481.921 188.695 465.543 178.266C443.643 164.307 418.093 156.808 390.152 154.772C336.908 150.904 279.43 164.568 237.901 189.086C202.004 210.278 189.086 245.173 178.434 277.749L-4.47482e-05 267.564L0.000395245 267.557Z" fill="#64ABFF"/>
<!-- <path d="M256.938 180.224C258.434 178.975 259.526 177 259.909 173.928C260.749 167.256 258.85 159.245 256.87 153.157C254.357 145.416 249.625 138.698 243.561 136.013C237.498 133.328 230.15 135.268 225.992 141.662C224.258 144.338 222.038 148.101 219.621 146.601C220.953 133.418 214.418 120.792 206.292 112.88C195.435 102.301 180.72 97.8647 167.978 103.765C155.236 109.674 145.492 126.925 146.734 144.616C138.404 138.034 127.792 136.696 118.663 141.078C109.533 145.452 102.063 155.456 98.9014 167.543C98.0341 170.875 97.5562 174.889 99.236 177.637C100.711 180.044 103.313 180.574 105.662 180.727C111.193 181.086 116.724 180.349 122.241 179.712C163.45 174.961 205.022 175.644 246.129 181.75C249.769 182.289 254.084 182.603 256.932 180.224H256.938Z" fill="white"/> -->
</g>
</svg>
