<svg width="507" height="375" viewBox="0 0 507 375" fill="none" xmlns="http://www.w3.org/2000/svg">
<rect x="24" width="459" height="126.247" rx="16" fill="url(#paint0_linear_361_307)"/>
<g opacity="0.75">
<path d="M105.853 102.178V79.5073H114.598V69.4608H109.549C109.119 71.5403 108.225 73.3639 106.606 74.7743C105.017 76.1585 103.182 76.9522 101.072 76.9588C94.1392 76.9817 87.2061 76.9752 80.2763 76.9784C78.0515 76.9784 75.8268 76.9194 73.6053 76.9883C68.2646 77.1556 64.4737 72.8851 64.3918 68.5818C64.3918 68.4899 64.3427 68.3981 64.2837 68.1784H61.8754V79.4253C62.2359 79.445 62.5471 79.4745 62.8584 79.4778C64.9521 79.481 67.0458 79.4646 69.1362 79.4843C71.5411 79.504 73.1401 81.0751 73.163 83.4858C73.1958 86.7658 73.1728 90.0457 73.1728 93.3289C73.1728 93.716 73.1728 94.1063 73.1728 94.6081H75.5843C75.5843 96.2186 75.7187 97.7339 75.5516 99.2132C75.3452 101.043 73.6676 102.218 71.5346 102.224C65.9416 102.234 60.3519 102.227 54.7589 102.227C53.812 102.227 52.8618 102.25 51.9149 102.221C49.6213 102.155 48.0683 100.587 48.0126 98.2817C47.9864 97.1074 48.0093 95.9299 48.0093 94.6508H50.5158C50.5158 94.2014 50.5158 93.8537 50.5158 93.5061C50.5158 90.2261 50.5093 86.9462 50.5158 83.663C50.5224 81.0882 52.1115 79.4942 54.6802 79.481C56.1809 79.4712 57.6848 79.481 59.2837 79.481V65.6594C60.8663 65.6594 62.3571 65.6266 63.8446 65.6758C64.4901 65.6954 64.8603 65.5446 65.0602 64.8787C65.2339 64.2982 65.5681 63.7668 65.8793 63.1108H56.8296V56.8166C55.3618 56.8166 53.9692 56.8166 52.5767 56.8166C49.4346 56.8166 48.006 55.3931 48.006 52.2706C48.006 44.3299 48.006 36.3924 48.006 28.4517C48.006 25.5326 49.5099 24.0041 52.39 24.0041C56.1842 24.0041 59.9751 24.0041 63.7693 24.0041C66.6264 24.0041 68.1532 25.5162 68.1532 28.3533C68.1532 36.3924 68.1532 44.4283 68.1532 52.4674C68.1532 55.3243 66.6526 56.8134 63.7791 56.8166C62.344 56.8166 60.9056 56.8166 59.3984 56.8166V60.5689C60.6238 60.5689 61.8525 60.5689 63.0812 60.5689C64.2247 60.5689 65.3846 60.4541 66.5117 60.5951C68.1696 60.805 69.5687 60.1064 71.03 59.5783C71.2135 59.5127 71.3839 59.3028 71.4822 59.1192C74.4376 53.6745 78.8772 51.8934 84.5292 53.7696C85.8136 52.6806 86.9112 51.4736 88.2513 50.6635C94.6831 46.7735 102.986 51.3162 103.281 58.8371C103.304 59.4504 103.471 59.762 104.054 59.9883C104.686 60.2311 105.355 60.5295 105.843 60.9822C106.685 61.7628 107.609 61.9596 108.703 61.8874C109.801 61.8153 110.908 61.871 112.062 61.871V49.2728H105.882V46.7571H108.313V44.2184C107.245 44.2184 106.148 44.2184 105.05 44.2184C102.383 44.2085 100.827 42.6801 100.817 40.0233C100.804 36.0874 100.8 32.1482 100.817 28.2123C100.827 25.5555 102.376 24.0107 105.034 24.0074C110.594 23.9975 116.151 23.9975 121.711 24.0074C124.427 24.0107 125.974 25.5621 125.977 28.2746C125.984 32.1777 125.984 36.0841 125.977 39.9873C125.97 42.644 124.404 44.2085 121.77 44.2184C120.692 44.2217 119.617 44.2184 118.47 44.2184V46.7013H120.882V49.2236H114.706V64.3507H108.808C109.096 65.2756 109.339 66.0431 109.594 66.8697H117.16V79.4745H125.925C125.947 79.8976 125.977 80.219 125.977 80.5372C125.977 87.3923 125.964 94.2506 126 101.106C126.006 102.021 125.738 102.254 124.85 102.247C118.867 102.208 112.881 102.227 106.898 102.224C106.577 102.224 106.256 102.198 105.859 102.182L105.853 102.178ZM85.866 57.3611C85.5187 57.1741 85.2566 57.0528 85.0141 56.9019C80.4041 54.0582 75.1846 55.9081 73.471 61.0346C73.2515 61.6939 72.914 61.8612 72.298 61.9366C69.5163 62.2876 67.2686 64.5639 66.9475 67.2961C66.4822 71.2517 69.3491 74.4627 73.4251 74.4758C80.1944 74.4988 86.9604 74.4824 93.7296 74.4824C96.0821 74.4824 98.4379 74.5185 100.79 74.4726C104.218 74.4037 106.885 71.8585 107.081 68.5392C107.278 65.2002 104.955 62.4155 101.547 61.9005C101.236 61.8546 100.928 61.7693 100.633 61.707C100.882 56.223 99.4602 53.4973 95.7152 52.1821C94.2178 51.6573 92.7237 51.6146 91.1936 52.0673C88.497 52.8643 86.9079 54.7995 85.8726 57.3578L85.866 57.3611ZM70.6335 94.5622C70.6499 94.2605 70.6729 94.0046 70.6729 93.7488C70.6729 90.436 70.6794 87.1266 70.6729 83.8138C70.6729 82.433 70.2404 82.0132 68.838 82.0132C64.1657 82.0099 59.4902 82.0099 54.8179 82.0132C53.4974 82.0132 53.0485 82.4559 53.0453 83.7679C53.0387 87.1135 53.0453 90.4557 53.0453 93.8013C53.0453 94.0538 53.0846 94.3031 53.1042 94.5622H70.6303H70.6335ZM103.304 36.5564H123.444C123.444 33.5717 123.484 30.6296 123.418 27.6908C123.402 26.9101 122.766 26.5198 121.973 26.5198C116.256 26.5198 110.535 26.51 104.817 26.5264C103.815 26.5264 103.336 27.038 103.31 28.0581C103.287 28.9109 103.304 29.7637 103.304 30.6165C103.304 32.5746 103.304 34.536 103.304 36.5597V36.5564ZM50.5846 31.6562V44.1692H65.5517V31.6562H50.5846ZM50.5158 46.7997C50.5158 48.9218 50.4962 50.916 50.5256 52.9102C50.5387 53.7565 51.0138 54.2583 51.8821 54.2583C56.0269 54.2648 60.1717 54.2616 64.3164 54.2583C64.9914 54.2583 65.5353 53.9106 65.555 53.2481C65.6139 51.103 65.5779 48.9546 65.5779 46.7997H50.5158ZM108.412 99.6264H123.411V92.1613H108.412V99.6264ZM123.438 82.082H108.425V89.5242H123.438V82.082ZM73.0844 97.2452H50.5551C50.4273 99.3476 50.7583 99.7084 52.7504 99.7084C58.8578 99.7084 64.9685 99.7084 71.0759 99.7084C72.9435 99.7084 73.3301 99.246 73.0844 97.2452ZM123.405 39.1837H103.418C103.084 41.1418 103.5 41.6567 105.355 41.6567C110.679 41.6567 116.007 41.6567 121.331 41.6567C123.251 41.6567 123.575 41.2894 123.405 39.1837ZM50.5715 28.9831H65.5648C65.6762 26.7921 65.4173 26.5165 63.3007 26.5165C59.7719 26.5165 56.2431 26.5165 52.7176 26.5165C50.7517 26.5165 50.3946 26.9167 50.5748 28.9798L50.5715 28.9831ZM110.944 46.6226H115.807V44.2676H110.944V46.6226Z" fill="white"/>
<path d="M55.6445 51.6569V49.3018H60.5167V51.6569H55.6445Z" fill="white"/>
<path d="M115.826 94.6836V97.1044H110.947V94.6836H115.826Z" fill="white"/>
<path d="M118.429 97.0916V94.6807H120.883V97.0916H118.429Z" fill="white"/>
<path d="M115.928 87.0287V84.6211H120.875V87.0287H115.928Z" fill="white"/>
<path d="M110.929 87.0237V84.6357H113.324V87.0237H110.929Z" fill="white"/>
</g>
<path d="M298.419 53.6561H290.913L289.671 57.2471H285.702L292.479 38.3741H296.88L303.657 57.2471H299.661L298.419 53.6561ZM297.393 50.6321L294.666 42.7481L291.939 50.6321H297.393ZM309.97 44.4491C310.456 43.7651 311.122 43.1981 311.968 42.7481C312.832 42.2801 313.813 42.0461 314.911 42.0461C316.189 42.0461 317.341 42.3611 318.367 42.9911C319.411 43.6211 320.23 44.5211 320.824 45.6911C321.436 46.8431 321.742 48.1841 321.742 49.7141C321.742 51.2441 321.436 52.6031 320.824 53.7911C320.23 54.9611 319.411 55.8701 318.367 56.5181C317.341 57.1661 316.189 57.4901 314.911 57.4901C313.813 57.4901 312.841 57.2651 311.995 56.8151C311.167 56.3651 310.492 55.7981 309.97 55.1141V64.3751H306.19V42.2891H309.97V44.4491ZM317.881 49.7141C317.881 48.8141 317.692 48.0401 317.314 47.3921C316.954 46.7261 316.468 46.2221 315.856 45.8801C315.262 45.5381 314.614 45.3671 313.912 45.3671C313.228 45.3671 312.58 45.5471 311.968 45.9071C311.374 46.2491 310.888 46.7531 310.51 47.4191C310.15 48.0851 309.97 48.8681 309.97 49.7681C309.97 50.6681 310.15 51.4511 310.51 52.1171C310.888 52.7831 311.374 53.2961 311.968 53.6561C312.58 53.9981 313.228 54.1691 313.912 54.1691C314.614 54.1691 315.262 53.9891 315.856 53.6291C316.468 53.2691 316.954 52.7561 317.314 52.0901C317.692 51.4241 317.881 50.6321 317.881 49.7141ZM328.269 44.4491C328.755 43.7651 329.421 43.1981 330.267 42.7481C331.131 42.2801 332.112 42.0461 333.21 42.0461C334.488 42.0461 335.64 42.3611 336.666 42.9911C337.71 43.6211 338.529 44.5211 339.123 45.6911C339.735 46.8431 340.041 48.1841 340.041 49.7141C340.041 51.2441 339.735 52.6031 339.123 53.7911C338.529 54.9611 337.71 55.8701 336.666 56.5181C335.64 57.1661 334.488 57.4901 333.21 57.4901C332.112 57.4901 331.14 57.2651 330.294 56.8151C329.466 56.3651 328.791 55.7981 328.269 55.1141V64.3751H324.489V42.2891H328.269V44.4491ZM336.18 49.7141C336.18 48.8141 335.991 48.0401 335.613 47.3921C335.253 46.7261 334.767 46.2221 334.155 45.8801C333.561 45.5381 332.913 45.3671 332.211 45.3671C331.527 45.3671 330.879 45.5471 330.267 45.9071C329.673 46.2491 329.187 46.7531 328.809 47.4191C328.449 48.0851 328.269 48.8681 328.269 49.7681C328.269 50.6681 328.449 51.4511 328.809 52.1171C329.187 52.7831 329.673 53.2961 330.267 53.6561C330.879 53.9981 331.527 54.1691 332.211 54.1691C332.913 54.1691 333.561 53.9891 334.155 53.6291C334.767 53.2691 335.253 52.7561 335.613 52.0901C335.991 51.4241 336.18 50.6321 336.18 49.7141ZM346.568 37.2671V57.2471H342.788V37.2671H346.568ZM352.219 40.5071C351.553 40.5071 350.995 40.3001 350.545 39.8861C350.113 39.4541 349.897 38.9231 349.897 38.2931C349.897 37.6631 350.113 37.1411 350.545 36.7271C350.995 36.2951 351.553 36.0791 352.219 36.0791C352.885 36.0791 353.434 36.2951 353.866 36.7271C354.316 37.1411 354.541 37.6631 354.541 38.2931C354.541 38.9231 354.316 39.4541 353.866 39.8861C353.434 40.3001 352.885 40.5071 352.219 40.5071ZM354.082 42.2891V57.2471H350.302V42.2891H354.082ZM356.845 49.7681C356.845 48.2201 357.16 46.8701 357.79 45.7181C358.42 44.5481 359.293 43.6481 360.409 43.0181C361.525 42.3701 362.803 42.0461 364.243 42.0461C366.097 42.0461 367.627 42.5141 368.833 43.4501C370.057 44.3681 370.876 45.6641 371.29 47.3381H367.213C366.997 46.6901 366.628 46.1861 366.106 45.8261C365.602 45.4481 364.972 45.2591 364.216 45.2591C363.136 45.2591 362.281 45.6551 361.651 46.4471C361.021 47.2211 360.706 48.3281 360.706 49.7681C360.706 51.1901 361.021 52.2971 361.651 53.0891C362.281 53.8631 363.136 54.2501 364.216 54.2501C365.746 54.2501 366.745 53.5661 367.213 52.1981H371.29C370.876 53.8181 370.057 55.1051 368.833 56.0591C367.609 57.0131 366.079 57.4901 364.243 57.4901C362.803 57.4901 361.525 57.1751 360.409 56.5451C359.293 55.8971 358.42 54.9971 357.79 53.8451C357.16 52.6751 356.845 51.3161 356.845 49.7681ZM373.087 49.7141C373.087 48.2021 373.384 46.8611 373.978 45.6911C374.59 44.5211 375.409 43.6211 376.435 42.9911C377.479 42.3611 378.64 42.0461 379.918 42.0461C381.034 42.0461 382.006 42.2711 382.834 42.7211C383.68 43.1711 384.355 43.7381 384.859 44.4221V42.2891H388.666V57.2471H384.859V55.0601C384.373 55.7621 383.698 56.3471 382.834 56.8151C381.988 57.2651 381.007 57.4901 379.891 57.4901C378.631 57.4901 377.479 57.1661 376.435 56.5181C375.409 55.8701 374.59 54.9611 373.978 53.7911C373.384 52.6031 373.087 51.2441 373.087 49.7141ZM384.859 49.7681C384.859 48.8501 384.679 48.0671 384.319 47.4191C383.959 46.7531 383.473 46.2491 382.861 45.9071C382.249 45.5471 381.592 45.3671 380.89 45.3671C380.188 45.3671 379.54 45.5381 378.946 45.8801C378.352 46.2221 377.866 46.7261 377.488 47.3921C377.128 48.0401 376.948 48.8141 376.948 49.7141C376.948 50.6141 377.128 51.4061 377.488 52.0901C377.866 52.7561 378.352 53.2691 378.946 53.6291C379.558 53.9891 380.206 54.1691 380.89 54.1691C381.592 54.1691 382.249 53.9981 382.861 53.6561C383.473 53.2961 383.959 52.7921 384.319 52.1441C384.679 51.4781 384.859 50.6861 384.859 49.7681ZM396.759 45.3941V52.6301C396.759 53.1341 396.876 53.5031 397.11 53.7371C397.362 53.9531 397.776 54.0611 398.352 54.0611H400.107V57.2471H397.731C394.545 57.2471 392.952 55.6991 392.952 52.6031V45.3941H391.17V42.2891H392.952V38.5901H396.759V42.2891H400.107V45.3941H396.759ZM404.743 40.5071C404.077 40.5071 403.519 40.3001 403.069 39.8861C402.637 39.4541 402.421 38.9231 402.421 38.2931C402.421 37.6631 402.637 37.1411 403.069 36.7271C403.519 36.2951 404.077 36.0791 404.743 36.0791C405.409 36.0791 405.958 36.2951 406.39 36.7271C406.84 37.1411 407.065 37.6631 407.065 38.2931C407.065 38.9231 406.84 39.4541 406.39 39.8861C405.958 40.3001 405.409 40.5071 404.743 40.5071ZM406.606 42.2891V57.2471H402.826V42.2891H406.606ZM416.983 57.4901C415.543 57.4901 414.247 57.1751 413.095 56.5451C411.943 55.8971 411.034 54.9881 410.368 53.8181C409.72 52.6481 409.396 51.2981 409.396 49.7681C409.396 48.2381 409.729 46.8881 410.395 45.7181C411.079 44.5481 412.006 43.6481 413.176 43.0181C414.346 42.3701 415.651 42.0461 417.091 42.0461C418.531 42.0461 419.836 42.3701 421.006 43.0181C422.176 43.6481 423.094 44.5481 423.76 45.7181C424.444 46.8881 424.786 48.2381 424.786 49.7681C424.786 51.2981 424.435 52.6481 423.733 53.8181C423.049 54.9881 422.113 55.8971 420.925 56.5451C419.755 57.1751 418.441 57.4901 416.983 57.4901ZM416.983 54.1961C417.667 54.1961 418.306 54.0341 418.9 53.7101C419.512 53.3681 419.998 52.8641 420.358 52.1981C420.718 51.5321 420.898 50.7221 420.898 49.7681C420.898 48.3461 420.52 47.2571 419.764 46.5011C419.026 45.7271 418.117 45.3401 417.037 45.3401C415.957 45.3401 415.048 45.7271 414.31 46.5011C413.59 47.2571 413.23 48.3461 413.23 49.7681C413.23 51.1901 413.581 52.2881 414.283 53.0621C415.003 53.8181 415.903 54.1961 416.983 54.1961ZM435.847 42.0731C437.629 42.0731 439.069 42.6401 440.167 43.7741C441.265 44.8901 441.814 46.4561 441.814 48.4721V57.2471H438.034V48.9851C438.034 47.7971 437.737 46.8881 437.143 46.2581C436.549 45.6101 435.739 45.2861 434.713 45.2861C433.669 45.2861 432.841 45.6101 432.229 46.2581C431.635 46.8881 431.338 47.7971 431.338 48.9851V57.2471H427.558V42.2891H431.338V44.1521C431.842 43.5041 432.481 43.0001 433.255 42.6401C434.047 42.2621 434.911 42.0731 435.847 42.0731ZM451.133 57.4901C449.909 57.4901 448.811 57.2741 447.839 56.8421C446.867 56.3921 446.093 55.7891 445.517 55.0331C444.959 54.2771 444.653 53.4401 444.599 52.5221H448.406C448.478 53.0981 448.757 53.5751 449.243 53.9531C449.747 54.3311 450.368 54.5201 451.106 54.5201C451.826 54.5201 452.384 54.3761 452.78 54.0881C453.194 53.8001 453.401 53.4311 453.401 52.9811C453.401 52.4951 453.149 52.1351 452.645 51.9011C452.159 51.6491 451.376 51.3791 450.296 51.0911C449.18 50.8211 448.262 50.5421 447.542 50.2541C446.84 49.9661 446.228 49.5251 445.706 48.9311C445.202 48.3371 444.95 47.5361 444.95 46.5281C444.95 45.7001 445.184 44.9441 445.652 44.2601C446.138 43.5761 446.822 43.0361 447.704 42.6401C448.604 42.2441 449.657 42.0461 450.863 42.0461C452.645 42.0461 454.067 42.4961 455.129 43.3961C456.191 44.2781 456.776 45.4751 456.884 46.9871H453.266C453.212 46.3931 452.96 45.9251 452.51 45.5831C452.078 45.2231 451.493 45.0431 450.755 45.0431C450.071 45.0431 449.54 45.1691 449.162 45.4211C448.802 45.6731 448.622 46.0241 448.622 46.4741C448.622 46.9781 448.874 47.3651 449.378 47.6351C449.882 47.8871 450.665 48.1481 451.727 48.4181C452.807 48.6881 453.698 48.9671 454.4 49.2551C455.102 49.5431 455.705 49.9931 456.209 50.6051C456.731 51.1991 457.001 51.9911 457.019 52.9811C457.019 53.8451 456.776 54.6191 456.29 55.3031C455.822 55.9871 455.138 56.5271 454.238 56.9231C453.356 57.3011 452.321 57.4901 451.133 57.4901Z" fill="white"/>
<rect x="285" y="70.2471" width="170" height="32" rx="5" fill="white" fill-opacity="0.2"/>
<path d="M299.846 89.0771H295.59L294.806 91.2471H293.462L296.99 81.5451H298.46L301.974 91.2471H300.63L299.846 89.0771ZM299.482 88.0411L297.718 83.1131L295.954 88.0411H299.482ZM304.786 84.9891C305.038 84.5504 305.411 84.1864 305.906 83.8971C306.41 83.5984 306.993 83.4491 307.656 83.4491C308.337 83.4491 308.953 83.6124 309.504 83.9391C310.064 84.2657 310.502 84.7277 310.82 85.3251C311.137 85.9131 311.296 86.5991 311.296 87.3831C311.296 88.1577 311.137 88.8484 310.82 89.4551C310.502 90.0617 310.064 90.5331 309.504 90.8691C308.953 91.2051 308.337 91.3731 307.656 91.3731C307.002 91.3731 306.424 91.2284 305.92 90.9391C305.425 90.6404 305.047 90.2717 304.786 89.8331V94.8871H303.512V83.5751H304.786V84.9891ZM309.994 87.3831C309.994 86.8044 309.877 86.3004 309.644 85.8711C309.41 85.4417 309.093 85.1151 308.692 84.8911C308.3 84.6671 307.866 84.5551 307.39 84.5551C306.923 84.5551 306.489 84.6717 306.088 84.9051C305.696 85.1291 305.378 85.4604 305.136 85.8991C304.902 86.3284 304.786 86.8277 304.786 87.3971C304.786 87.9757 304.902 88.4844 305.136 88.9231C305.378 89.3524 305.696 89.6837 306.088 89.9171C306.489 90.1411 306.923 90.2531 307.39 90.2531C307.866 90.2531 308.3 90.1411 308.692 89.9171C309.093 89.6837 309.41 89.3524 309.644 88.9231C309.877 88.4844 309.994 87.9711 309.994 87.3831ZM314.247 84.9891C314.499 84.5504 314.872 84.1864 315.367 83.8971C315.871 83.5984 316.454 83.4491 317.117 83.4491C317.798 83.4491 318.414 83.6124 318.965 83.9391C319.525 84.2657 319.963 84.7277 320.281 85.3251C320.598 85.9131 320.757 86.5991 320.757 87.3831C320.757 88.1577 320.598 88.8484 320.281 89.4551C319.963 90.0617 319.525 90.5331 318.965 90.8691C318.414 91.2051 317.798 91.3731 317.117 91.3731C316.463 91.3731 315.885 91.2284 315.381 90.9391C314.886 90.6404 314.508 90.2717 314.247 89.8331V94.8871H312.973V83.5751H314.247V84.9891ZM319.455 87.3831C319.455 86.8044 319.338 86.3004 319.105 85.8711C318.871 85.4417 318.554 85.1151 318.153 84.8911C317.761 84.6671 317.327 84.5551 316.851 84.5551C316.384 84.5551 315.95 84.6717 315.549 84.9051C315.157 85.1291 314.839 85.4604 314.597 85.8991C314.363 86.3284 314.247 86.8277 314.247 87.3971C314.247 87.9757 314.363 88.4844 314.597 88.9231C314.839 89.3524 315.157 89.6837 315.549 89.9171C315.95 90.1411 316.384 90.2531 316.851 90.2531C317.327 90.2531 317.761 90.1411 318.153 89.9171C318.554 89.6837 318.871 89.3524 319.105 88.9231C319.338 88.4844 319.455 87.9711 319.455 87.3831ZM329.204 81.4891C330.268 81.4891 331.187 81.6897 331.962 82.0911C332.746 82.4831 333.343 83.0477 333.754 83.7851C334.174 84.5224 334.384 85.3904 334.384 86.3891C334.384 87.3877 334.174 88.2557 333.754 88.9931C333.343 89.7211 332.746 90.2811 331.962 90.6731C331.187 91.0557 330.268 91.2471 329.204 91.2471H326.166V81.4891H329.204ZM329.204 90.1971C330.464 90.1971 331.425 89.8657 332.088 89.2031C332.751 88.5311 333.082 87.5931 333.082 86.3891C333.082 85.1757 332.746 84.2284 332.074 83.5471C331.411 82.8657 330.455 82.5251 329.204 82.5251H327.44V90.1971H329.204ZM343.064 87.1171C343.064 87.3597 343.05 87.6164 343.022 87.8871H336.89C336.937 88.6431 337.194 89.2357 337.66 89.6651C338.136 90.0851 338.71 90.2951 339.382 90.2951C339.933 90.2951 340.39 90.1691 340.754 89.9171C341.128 89.6557 341.389 89.3104 341.538 88.8811H342.91C342.705 89.6184 342.294 90.2204 341.678 90.6871C341.062 91.1444 340.297 91.3731 339.382 91.3731C338.654 91.3731 338.001 91.2097 337.422 90.8831C336.853 90.5564 336.405 90.0944 336.078 89.4971C335.752 88.8904 335.588 88.1904 335.588 87.3971C335.588 86.6037 335.747 85.9084 336.064 85.3111C336.382 84.7137 336.825 84.2564 337.394 83.9391C337.973 83.6124 338.636 83.4491 339.382 83.4491C340.11 83.4491 340.754 83.6077 341.314 83.9251C341.874 84.2424 342.304 84.6811 342.602 85.2411C342.91 85.7917 343.064 86.4171 343.064 87.1171ZM341.748 86.8511C341.748 86.3657 341.641 85.9504 341.426 85.6051C341.212 85.2504 340.918 84.9844 340.544 84.8071C340.18 84.6204 339.774 84.5271 339.326 84.5271C338.682 84.5271 338.132 84.7324 337.674 85.1431C337.226 85.5537 336.97 86.1231 336.904 86.8511H341.748ZM347.602 90.0711L349.982 83.5751H351.34L348.33 91.2471H346.846L343.836 83.5751H345.208L347.602 90.0711ZM355.31 91.3731C354.722 91.3731 354.194 91.2751 353.728 91.0791C353.261 90.8737 352.892 90.5937 352.622 90.2391C352.351 89.8751 352.202 89.4597 352.174 88.9931H353.49C353.527 89.3757 353.704 89.6884 354.022 89.9311C354.348 90.1737 354.773 90.2951 355.296 90.2951C355.781 90.2951 356.164 90.1877 356.444 89.9731C356.724 89.7584 356.864 89.4877 356.864 89.1611C356.864 88.8251 356.714 88.5777 356.416 88.4191C356.117 88.2511 355.655 88.0877 355.03 87.9291C354.46 87.7797 353.994 87.6304 353.63 87.4811C353.275 87.3224 352.967 87.0937 352.706 86.7951C352.454 86.4871 352.328 86.0857 352.328 85.5911C352.328 85.1991 352.444 84.8397 352.678 84.5131C352.911 84.1864 353.242 83.9297 353.672 83.7431C354.101 83.5471 354.591 83.4491 355.142 83.4491C355.991 83.4491 356.677 83.6637 357.2 84.0931C357.722 84.5224 358.002 85.1104 358.04 85.8571H356.766C356.738 85.4557 356.574 85.1337 356.276 84.8911C355.986 84.6484 355.594 84.5271 355.1 84.5271C354.642 84.5271 354.278 84.6251 354.008 84.8211C353.737 85.0171 353.602 85.2737 353.602 85.5911C353.602 85.8431 353.681 86.0531 353.84 86.2211C354.008 86.3797 354.213 86.5104 354.456 86.6131C354.708 86.7064 355.053 86.8137 355.492 86.9351C356.042 87.0844 356.49 87.2337 356.836 87.3831C357.181 87.5231 357.475 87.7377 357.718 88.0271C357.97 88.3164 358.1 88.6944 358.11 89.1611C358.11 89.5811 357.993 89.9591 357.76 90.2951C357.526 90.6311 357.195 90.8971 356.766 91.0931C356.346 91.2797 355.86 91.3731 355.31 91.3731ZM370.921 86.6691H367.939V89.6931H366.749V86.6691H363.781V85.5911H366.749V82.5531H367.939V85.5911H370.921V86.6691ZM382.698 89.0771H378.442L377.658 91.2471H376.314L379.842 81.5451H381.312L384.826 91.2471H383.482L382.698 89.0771ZM382.334 88.0411L380.57 83.1131L378.806 88.0411H382.334ZM387.637 84.8211C387.861 84.3824 388.178 84.0417 388.589 83.7991C389.009 83.5564 389.518 83.4351 390.115 83.4351V84.7511H389.779C388.351 84.7511 387.637 85.5257 387.637 87.0751V91.2471H386.363V83.5751H387.637V84.8211ZM391.11 87.3971C391.11 86.6037 391.268 85.9131 391.586 85.3251C391.903 84.7277 392.342 84.2657 392.902 83.9391C393.471 83.6124 394.12 83.4491 394.848 83.4491C395.79 83.4491 396.565 83.6777 397.172 84.1351C397.788 84.5924 398.194 85.2271 398.39 86.0391H397.018C396.887 85.5724 396.63 85.2037 396.248 84.9331C395.874 84.6624 395.408 84.5271 394.848 84.5271C394.12 84.5271 393.532 84.7791 393.084 85.2831C392.636 85.7777 392.412 86.4824 392.412 87.3971C392.412 88.3211 392.636 89.0351 393.084 89.5391C393.532 90.0431 394.12 90.2951 394.848 90.2951C395.408 90.2951 395.874 90.1644 396.248 89.9031C396.621 89.6417 396.878 89.2684 397.018 88.7831H398.39C398.184 89.5671 397.774 90.1971 397.158 90.6731C396.542 91.1397 395.772 91.3731 394.848 91.3731C394.12 91.3731 393.471 91.2097 392.902 90.8831C392.342 90.5564 391.903 90.0944 391.586 89.4971C391.268 88.8997 391.11 88.1997 391.11 87.3971ZM403.898 83.4351C404.476 83.4351 404.999 83.5611 405.466 83.8131C405.932 84.0557 406.296 84.4244 406.558 84.9191C406.828 85.4137 406.964 86.0157 406.964 86.7251V91.2471H405.704V86.9071C405.704 86.1417 405.512 85.5584 405.13 85.1571C404.747 84.7464 404.224 84.5411 403.562 84.5411C402.89 84.5411 402.353 84.7511 401.952 85.1711C401.56 85.5911 401.364 86.2024 401.364 87.0051V91.2471H400.09V80.8871H401.364V84.6671C401.616 84.2751 401.961 83.9717 402.4 83.7571C402.848 83.5424 403.347 83.4351 403.898 83.4351ZM409.703 82.3291C409.46 82.3291 409.255 82.2451 409.087 82.0771C408.919 81.9091 408.835 81.7037 408.835 81.4611C408.835 81.2184 408.919 81.0131 409.087 80.8451C409.255 80.6771 409.46 80.5931 409.703 80.5931C409.936 80.5931 410.132 80.6771 410.291 80.8451C410.459 81.0131 410.543 81.2184 410.543 81.4611C410.543 81.7037 410.459 81.9091 410.291 82.0771C410.132 82.2451 409.936 82.3291 409.703 82.3291ZM410.319 83.5751V91.2471H409.045V83.5751H410.319ZM414.044 84.6251V89.1471C414.044 89.5204 414.123 89.7864 414.282 89.9451C414.441 90.0944 414.716 90.1691 415.108 90.1691H416.046V91.2471H414.898C414.189 91.2471 413.657 91.0837 413.302 90.7571C412.947 90.4304 412.77 89.8937 412.77 89.1471V84.6251H411.776V83.5751H412.77V81.6431H414.044V83.5751H416.046V84.6251H414.044ZM424.59 87.1171C424.59 87.3597 424.576 87.6164 424.548 87.8871H418.416C418.462 88.6431 418.719 89.2357 419.186 89.6651C419.662 90.0851 420.236 90.2951 420.908 90.2951C421.458 90.2951 421.916 90.1691 422.28 89.9171C422.653 89.6557 422.914 89.3104 423.064 88.8811H424.436C424.23 89.6184 423.82 90.2204 423.204 90.6871C422.588 91.1444 421.822 91.3731 420.908 91.3731C420.18 91.3731 419.526 91.2097 418.948 90.8831C418.378 90.5564 417.93 90.0944 417.604 89.4971C417.277 88.8904 417.114 88.1904 417.114 87.3971C417.114 86.6037 417.272 85.9084 417.59 85.3111C417.907 84.7137 418.35 84.2564 418.92 83.9391C419.498 83.6124 420.161 83.4491 420.908 83.4491C421.636 83.4491 422.28 83.6077 422.84 83.9251C423.4 84.2424 423.829 84.6811 424.128 85.2411C424.436 85.7917 424.59 86.4171 424.59 87.1171ZM423.274 86.8511C423.274 86.3657 423.166 85.9504 422.952 85.6051C422.737 85.2504 422.443 84.9844 422.07 84.8071C421.706 84.6204 421.3 84.5271 420.852 84.5271C420.208 84.5271 419.657 84.7324 419.2 85.1431C418.752 85.5537 418.495 86.1231 418.43 86.8511H423.274ZM425.795 87.3971C425.795 86.6037 425.954 85.9131 426.271 85.3251C426.589 84.7277 427.027 84.2657 427.587 83.9391C428.157 83.6124 428.805 83.4491 429.533 83.4491C430.476 83.4491 431.251 83.6777 431.857 84.1351C432.473 84.5924 432.879 85.2271 433.075 86.0391H431.703C431.573 85.5724 431.316 85.2037 430.933 84.9331C430.56 84.6624 430.093 84.5271 429.533 84.5271C428.805 84.5271 428.217 84.7791 427.769 85.2831C427.321 85.7777 427.097 86.4824 427.097 87.3971C427.097 88.3211 427.321 89.0351 427.769 89.5391C428.217 90.0431 428.805 90.2951 429.533 90.2951C430.093 90.2951 430.56 90.1644 430.933 89.9031C431.307 89.6417 431.563 89.2684 431.703 88.7831H433.075C432.87 89.5671 432.459 90.1971 431.843 90.6731C431.227 91.1397 430.457 91.3731 429.533 91.3731C428.805 91.3731 428.157 91.2097 427.587 90.8831C427.027 90.5564 426.589 90.0944 426.271 89.4971C425.954 88.8997 425.795 88.1997 425.795 87.3971ZM436.329 84.6251V89.1471C436.329 89.5204 436.409 89.7864 436.567 89.9451C436.726 90.0944 437.001 90.1691 437.393 90.1691H438.331V91.2471H437.183C436.474 91.2471 435.942 91.0837 435.587 90.7571C435.233 90.4304 435.055 89.8937 435.055 89.1471V84.6251H434.061V83.5751H435.055V81.6431H436.329V83.5751H438.331V84.6251H436.329ZM442.591 91.3731C442.003 91.3731 441.476 91.2751 441.009 91.0791C440.542 90.8737 440.174 90.5937 439.903 90.2391C439.632 89.8751 439.483 89.4597 439.455 88.9931H440.771C440.808 89.3757 440.986 89.6884 441.303 89.9311C441.63 90.1737 442.054 90.2951 442.577 90.2951C443.062 90.2951 443.445 90.1877 443.725 89.9731C444.005 89.7584 444.145 89.4877 444.145 89.1611C444.145 88.8251 443.996 88.5777 443.697 88.4191C443.398 88.2511 442.936 88.0877 442.311 87.9291C441.742 87.7797 441.275 87.6304 440.911 87.4811C440.556 87.3224 440.248 87.0937 439.987 86.7951C439.735 86.4871 439.609 86.0857 439.609 85.5911C439.609 85.1991 439.726 84.8397 439.959 84.5131C440.192 84.1864 440.524 83.9297 440.953 83.7431C441.382 83.5471 441.872 83.4491 442.423 83.4491C443.272 83.4491 443.958 83.6637 444.481 84.0931C445.004 84.5224 445.284 85.1104 445.321 85.8571H444.047C444.019 85.4557 443.856 85.1337 443.557 84.8911C443.268 84.6484 442.876 84.5271 442.381 84.5271C441.924 84.5271 441.56 84.6251 441.289 84.8211C441.018 85.0171 440.883 85.2737 440.883 85.5911C440.883 85.8431 440.962 86.0531 441.121 86.2211C441.289 86.3797 441.494 86.5104 441.737 86.6131C441.989 86.7064 442.334 86.8137 442.773 86.9351C443.324 87.0844 443.772 87.2337 444.117 87.3831C444.462 87.5231 444.756 87.7377 444.999 88.0271C445.251 88.3164 445.382 88.6944 445.391 89.1611C445.391 89.5811 445.274 89.9591 445.041 90.2951C444.808 90.6311 444.476 90.8971 444.047 91.0931C443.627 91.2797 443.142 91.3731 442.591 91.3731Z" fill="white"/>
<g filter="url(#filter0_d_361_307)">
<rect x="24" y="131.247" width="459" height="210" rx="16" fill="url(#paint1_linear_361_307)" shape-rendering="crispEdges"/>
<path d="M91.4736 262.097C91.4726 262.098 91.4718 262.1 91.4713 262.101C91.167 262.989 90.9443 263.778 90.6104 264.515C90.4859 264.788 90.0993 265.112 89.8241 265.119C87.9567 265.171 86.0892 265.129 84.2218 265.158C83.6943 265.168 83.4781 264.955 83.3372 264.479C83.3149 264.403 83.2919 264.327 83.2683 264.25C82.9115 263.099 81.552 262.552 80.4881 263.118C80.4164 263.156 80.3451 263.194 80.2739 263.233C79.8448 263.469 79.5401 263.483 79.1633 263.096C77.8692 261.755 76.5129 260.466 75.2319 259.115C75.0386 258.912 74.973 258.407 75.0812 258.135C75.1357 257.995 75.1942 257.857 75.2558 257.719C75.719 256.684 75.3102 255.349 74.1999 255.118C73.3153 254.935 73.0073 254.473 73.1384 253.61C73.2202 253.06 72.6583 252.62 72.1025 252.62H69.075C68.5712 252.62 68.1258 253.011 68.1258 253.515C68.1258 258.03 68.1323 262.545 68.1127 267.06C68.1127 267.634 68.2273 267.975 68.7875 268.286C70.2553 269.093 70.9302 270.843 70.5043 272.407C70.0489 274.083 68.5058 275.267 66.812 275.247C65.1477 275.227 63.6537 274.066 63.1951 272.434C62.756 270.866 63.4309 269.152 64.8758 268.286C65.2853 268.04 65.59 267.873 65.5867 267.283C65.5539 262.571 65.567 257.859 65.5638 253.148C65.5638 252.85 65.2854 252.627 64.9871 252.627H60.0743C58.9698 252.627 58.0715 253.522 58.0705 254.627C58.0697 255.607 58.0746 256.588 58.1038 257.568C58.1104 257.735 58.5035 257.932 58.7492 258.043C60.8034 258.984 62.0812 261.122 61.7961 263.178C61.4816 265.463 59.8566 267.197 57.6583 267.594C55.4567 267.994 53.3009 266.912 52.2525 264.883C50.9748 262.41 52.0985 259.269 54.6867 258.089C55.1473 257.878 55.4698 257.45 55.4698 256.944V239.492C55.4698 238.387 54.5743 237.492 53.4698 237.492H50C48.8954 237.492 48 236.596 48 235.492V229.462C48 228.357 48.8954 227.462 50 227.462H63.5015C64.6061 227.462 65.5015 228.357 65.5015 229.462V235.446C65.5015 236.55 64.6061 237.446 63.5015 237.446H60.1366C59.032 237.446 58.1366 238.341 58.1366 239.446V248.01C58.1366 249.115 59.032 250.01 60.1366 250.01H72.7422C72.8793 250.01 73.115 249.981 73.0925 249.846C72.7321 248.046 73.8526 247.485 75.3039 247.184C75.8152 247.075 76.0059 246.435 75.7644 245.972C75.5148 245.493 75.2773 245.023 75.0877 244.535C74.9829 244.262 75.0517 243.764 75.2417 243.561C76.526 242.207 77.879 240.921 79.1731 239.58C79.5433 239.2 79.8284 239.18 80.2707 239.433C80.3553 239.481 80.4406 239.528 80.5264 239.575C81.5657 240.136 82.9896 239.616 83.2422 238.462C83.4158 237.679 83.7893 237.341 84.5985 237.469C85.2002 237.561 85.6993 236.985 85.6993 236.376V231.967C85.6993 230.862 84.8039 229.967 83.6993 229.967H75.1678C74.0633 229.967 73.1678 229.072 73.1678 227.967V216.901C73.1678 215.796 72.2724 214.901 71.1678 214.901H60.0001C58.9564 214.901 58.1104 215.747 58.1104 216.791V219.052C58.1104 220.021 59.3426 220.435 59.9756 219.702C60.3814 219.231 61.0761 219.249 61.502 219.701C61.5538 219.756 61.6046 219.81 61.6544 219.863C62.1204 220.358 62.1052 221.135 61.6199 221.61C60.4712 222.736 59.3078 223.877 58.1459 225.015C57.3586 225.786 56.0957 225.774 55.3225 224.989C54.2174 223.866 53.0678 222.698 51.885 221.495C51.4154 221.017 51.2959 220.373 51.7924 219.923C52.2938 219.469 53.2154 219.403 53.6396 219.93C54.1 220.502 54.5669 221.081 55.0356 221.662C55.1251 221.773 55.2846 221.795 55.4002 221.711C55.4722 221.659 55.5156 221.576 55.5156 221.487V214.35C55.5156 213.245 56.4111 212.35 57.5156 212.35H71.158C72.2626 212.35 73.1593 211.455 73.1635 210.35C73.1682 209.066 73.1709 207.815 73.1449 206.563C73.1318 205.861 73.3153 205.35 73.8362 204.842C76.2278 202.514 78.567 200.127 80.9488 197.789C81.2208 197.52 81.6598 197.268 82.0234 197.268C88.1172 197.238 94.2109 197.248 100.308 197.251C100.6 197.251 100.812 197.537 100.812 197.83V210.304C100.812 211.409 101.708 212.304 102.812 212.304H116.448C117.553 212.304 118.448 213.2 118.448 214.304V221.482C118.448 221.556 118.485 221.624 118.545 221.666C118.638 221.731 118.765 221.712 118.836 221.623C119.286 221.058 119.738 220.492 120.208 219.903C120.696 219.293 121.73 219.386 122.261 219.959C122.731 220.465 122.595 221.125 122.104 221.61C120.93 222.766 119.758 223.92 118.593 225.068C117.811 225.84 116.553 225.836 115.775 225.061C114.642 223.932 113.485 222.779 112.319 221.616C111.836 221.135 111.763 220.427 112.248 219.947C112.75 219.451 113.64 219.403 114.109 219.931C114.598 220.48 115.09 221.034 115.582 221.588C115.636 221.649 115.728 221.662 115.797 221.618C115.845 221.589 115.873 221.536 115.873 221.48V216.911C115.873 215.806 114.978 214.911 113.873 214.911H102.865C101.76 214.911 100.865 215.806 100.865 216.911V227.941C100.865 229.045 99.9695 229.941 98.8649 229.941H90.317C89.2125 229.941 88.317 230.836 88.317 231.941V237.112C88.317 237.241 88.3563 237.452 88.4841 237.433C90.2893 237.065 90.8692 238.161 91.1608 239.633C91.2621 240.146 91.899 240.353 92.3708 240.128C92.5549 240.04 92.7361 239.953 92.9168 239.866C92.9919 239.829 93.067 239.793 93.1425 239.756C93.9204 239.379 94.8532 239.535 95.4603 240.151C96.6055 241.312 97.7558 242.477 98.8828 243.666C99.0368 243.83 99.0532 244.262 98.9549 244.495C98.9011 244.622 98.845 244.749 98.7871 244.875C98.2977 245.938 98.7339 247.323 99.8788 247.567C100.678 247.738 100.986 248.131 100.865 248.928C100.775 249.503 101.33 249.981 101.912 249.981H113.883C114.988 249.981 115.883 249.085 115.883 247.981V239.508C115.883 238.404 114.988 237.508 113.883 237.508H110.515C109.41 237.508 108.515 236.613 108.515 235.508V229.488C108.515 228.384 109.41 227.488 110.515 227.488H124C125.105 227.488 126 228.384 126 229.488V235.456C126 236.56 125.105 237.456 124 237.456H120.53C119.426 237.456 118.53 238.351 118.53 239.456V256.499C118.53 257.095 118.795 257.661 119.273 258.018C120.055 258.601 120.814 259.126 121.341 259.823C123.107 262.168 122.331 265.427 119.798 266.971C117.439 268.411 114.137 267.509 112.823 265.07C111.434 262.489 112.453 259.312 115.143 258.122C115.814 257.823 115.991 257.486 115.968 256.82C115.946 256.096 115.943 255.371 115.946 254.636C115.95 253.532 115.06 252.636 113.955 252.636H109.492C108.913 252.636 108.443 253.106 108.443 253.686C108.443 258.102 108.453 262.519 108.433 266.935C108.433 267.568 108.528 267.968 109.177 268.322C110.625 269.112 111.264 270.932 110.805 272.476C110.32 274.106 108.806 275.247 107.145 275.237C105.527 275.227 104.04 274.112 103.538 272.535C103.053 271.001 103.669 269.184 105.104 268.352C105.746 267.981 105.907 267.588 105.904 266.896C105.871 262.512 105.887 258.128 105.887 253.745C105.887 253.127 105.387 252.627 104.769 252.627H101.215C101.096 252.627 100.899 252.66 100.917 252.777C101.288 254.689 100.069 255.236 98.5519 255.532C98.3914 255.561 98.2407 255.633 98.0867 255.692C97.9222 255.756 97.8762 255.973 97.9538 256.132C98.2709 256.78 98.581 257.44 98.9385 258.076C99.194 258.525 99.1351 258.817 98.7649 259.171C97.4478 260.446 96.1439 261.735 94.876 263.056C94.4698 263.479 94.1487 263.46 93.6835 263.201C93.007 262.818 92.2948 262.497 91.4849 262.096C91.4811 262.094 91.4766 262.094 91.4736 262.097ZM75.7004 225.357C75.7004 226.462 76.5958 227.357 77.7004 227.357H96.28C97.3846 227.357 98.28 226.462 98.28 225.357V201.819C98.28 200.714 97.3846 199.819 96.28 199.819H85.2029C84.0983 199.819 83.2029 200.714 83.2029 201.819V205.363C83.2029 206.468 82.3074 207.363 81.2029 207.363H77.7004C76.5958 207.363 75.7004 208.258 75.7004 209.363V225.357ZM82.7245 259.191C82.7212 259.192 82.7225 259.197 82.7262 259.198C83.8085 259.223 84.4793 259.911 84.9196 261.217C85.4733 262.866 85.0146 262.646 86.9017 262.656C88.6119 262.666 88.7331 262.686 89.1099 261.02C89.467 259.44 91.0035 258.866 92.3075 259.64C93.8506 260.555 93.8538 260.401 95.2036 259.194C96.0456 258.44 96.1308 257.827 95.528 256.886C95.1643 256.315 94.7188 255.728 95.0365 254.82C95.4395 253.666 96.3765 253.551 97.2414 253.331C98.1326 253.105 98.4241 252.709 98.3881 251.777C98.3062 249.738 98.3619 249.735 96.406 249.082C95.0496 248.63 94.6205 247.603 95.2462 246.302C95.4461 245.889 95.7409 245.502 95.8359 245.069C95.908 244.731 95.7639 244.335 95.6623 243.98C95.623 243.843 95.4428 243.748 95.3281 243.63C93.8899 242.187 93.8833 242.174 92.0388 243.108C91.4917 243.384 91.0494 243.475 90.404 243.253C89.4211 242.915 89.2344 242.131 89.0935 241.371C88.8805 240.207 88.3007 239.882 87.1507 239.954C85.411 240.062 85.4176 239.984 84.8475 241.659C84.6444 242.249 84.5068 242.797 83.7991 243.18C82.6951 243.777 81.9677 243.118 81.1978 242.692C80.4541 242.279 79.9856 242.262 79.3632 242.928C77.9151 244.466 77.8758 244.426 78.7734 246.305C79.409 247.636 78.9536 248.663 77.5219 249.125C77.1484 249.246 76.7782 249.387 76.3949 249.466C75.8085 249.587 75.6381 249.908 75.6381 250.502C75.6283 252.833 75.6053 252.833 77.8004 253.65C78.9209 254.069 79.3599 255.128 78.8521 256.191C77.8856 258.214 77.9151 258.187 79.4418 259.804C79.9758 260.364 80.4017 260.433 81.0373 260.043C81.6172 259.689 82.2528 259.427 82.7245 259.191ZM52.4965 230.003C51.3919 230.003 50.4965 230.898 50.4965 232.003V232.941C50.4965 234.045 51.3919 234.941 52.4965 234.941H60.9821C62.0867 234.941 62.9821 234.045 62.9821 232.941V232.003C62.9821 230.898 62.0867 230.003 60.9821 230.003H52.4965ZM113.034 230.013C111.93 230.013 111.034 230.908 111.034 232.013V232.918C111.034 234.022 111.93 234.918 113.034 234.918H121.5C122.605 234.918 123.5 234.022 123.5 232.918V232.013C123.5 230.908 122.605 230.013 121.5 230.013H113.034ZM59.2751 262.637C59.276 262.637 59.2767 262.636 59.2767 262.635C59.2627 261.249 58.1688 260.174 56.7737 260.171C55.3846 260.171 54.2674 261.26 54.251 262.627C54.2346 264.027 55.3879 265.158 56.813 265.142C58.195 265.125 59.2889 264.015 59.2735 262.638C59.2734 262.637 59.2742 262.637 59.2751 262.637ZM119.751 262.658C119.752 262.657 119.752 262.655 119.752 262.654C119.751 261.294 118.638 260.187 117.256 260.174C115.854 260.161 114.749 261.22 114.727 262.61C114.704 264.037 115.821 265.155 117.256 265.145C118.631 265.135 119.748 264.022 119.749 262.662C119.749 262.66 119.75 262.659 119.751 262.658ZM79.7956 204.773C80.2712 204.773 80.6573 204.387 80.6573 203.912C80.6573 203.154 79.7764 202.74 79.2282 203.263C78.6656 203.799 79.0184 204.773 79.7956 204.773ZM68.1159 271.434C68.0995 270.784 67.4803 270.201 66.8218 270.217C66.16 270.234 65.567 270.847 65.5867 271.493C65.6063 272.125 66.255 272.745 66.8808 272.725C67.5098 272.706 68.1323 272.057 68.1159 271.43V271.434ZM108.42 271.499C108.446 270.853 107.856 270.24 107.191 270.217C106.533 270.194 105.91 270.778 105.891 271.427C105.874 272.057 106.487 272.706 107.119 272.725C107.745 272.745 108.397 272.132 108.42 271.499Z" fill="white" fill-opacity="0.95"/>
<rect x="347" y="182.247" width="112" height="32" rx="5" fill="#11172C" fill-opacity="0.5"/>
<path d="M359.172 203.345C358.528 203.345 357.949 203.233 357.436 203.009C356.932 202.776 356.535 202.458 356.246 202.057C355.957 201.646 355.807 201.175 355.798 200.643H357.156C357.203 201.1 357.389 201.488 357.716 201.805C358.052 202.113 358.537 202.267 359.172 202.267C359.779 202.267 360.255 202.118 360.6 201.819C360.955 201.511 361.132 201.119 361.132 200.643C361.132 200.27 361.029 199.966 360.824 199.733C360.619 199.5 360.362 199.322 360.054 199.201C359.746 199.08 359.331 198.949 358.808 198.809C358.164 198.641 357.646 198.473 357.254 198.305C356.871 198.137 356.54 197.876 356.26 197.521C355.989 197.157 355.854 196.672 355.854 196.065C355.854 195.533 355.989 195.062 356.26 194.651C356.531 194.24 356.909 193.923 357.394 193.699C357.889 193.475 358.453 193.363 359.088 193.363C360.003 193.363 360.749 193.592 361.328 194.049C361.916 194.506 362.247 195.113 362.322 195.869H360.922C360.875 195.496 360.679 195.169 360.334 194.889C359.989 194.6 359.531 194.455 358.962 194.455C358.43 194.455 357.996 194.595 357.66 194.875C357.324 195.146 357.156 195.528 357.156 196.023C357.156 196.378 357.254 196.667 357.45 196.891C357.655 197.115 357.903 197.288 358.192 197.409C358.491 197.521 358.906 197.652 359.438 197.801C360.082 197.978 360.6 198.156 360.992 198.333C361.384 198.501 361.72 198.767 362 199.131C362.28 199.486 362.42 199.971 362.42 200.587C362.42 201.063 362.294 201.511 362.042 201.931C361.79 202.351 361.417 202.692 360.922 202.953C360.427 203.214 359.844 203.345 359.172 203.345ZM369.433 203.247L367.109 199.257H365.569V203.247H364.295V193.489H367.445C368.182 193.489 368.803 193.615 369.307 193.867C369.82 194.119 370.203 194.46 370.455 194.889C370.707 195.318 370.833 195.808 370.833 196.359C370.833 197.031 370.637 197.624 370.245 198.137C369.862 198.65 369.283 198.991 368.509 199.159L370.959 203.247H369.433ZM365.569 198.235H367.445C368.135 198.235 368.653 198.067 368.999 197.731C369.344 197.386 369.517 196.928 369.517 196.359C369.517 195.78 369.344 195.332 368.999 195.015C368.663 194.698 368.145 194.539 367.445 194.539H365.569V198.235ZM374.086 194.525V197.787H377.642V198.837H374.086V202.197H378.062V203.247H372.812V193.475H378.062V194.525H374.086ZM391.003 198.669H388.021V201.693H386.831V198.669H383.863V197.591H386.831V194.553H388.021V197.591H391.003V198.669ZM400.05 193.489C401.114 193.489 402.033 193.69 402.808 194.091C403.592 194.483 404.189 195.048 404.6 195.785C405.02 196.522 405.23 197.39 405.23 198.389C405.23 199.388 405.02 200.256 404.6 200.993C404.189 201.721 403.592 202.281 402.808 202.673C402.033 203.056 401.114 203.247 400.05 203.247H397.012V193.489H400.05ZM400.05 202.197C401.31 202.197 402.271 201.866 402.934 201.203C403.596 200.531 403.928 199.593 403.928 198.389C403.928 197.176 403.592 196.228 402.92 195.547C402.257 194.866 401.3 194.525 400.05 194.525H398.286V202.197H400.05ZM413.91 199.117C413.91 199.36 413.896 199.616 413.868 199.887H407.736C407.783 200.643 408.039 201.236 408.506 201.665C408.982 202.085 409.556 202.295 410.228 202.295C410.779 202.295 411.236 202.169 411.6 201.917C411.973 201.656 412.235 201.31 412.384 200.881H413.756C413.551 201.618 413.14 202.22 412.524 202.687C411.908 203.144 411.143 203.373 410.228 203.373C409.5 203.373 408.847 203.21 408.268 202.883C407.699 202.556 407.251 202.094 406.924 201.497C406.597 200.89 406.434 200.19 406.434 199.397C406.434 198.604 406.593 197.908 406.91 197.311C407.227 196.714 407.671 196.256 408.24 195.939C408.819 195.612 409.481 195.449 410.228 195.449C410.956 195.449 411.6 195.608 412.16 195.925C412.72 196.242 413.149 196.681 413.448 197.241C413.756 197.792 413.91 198.417 413.91 199.117ZM412.594 198.851C412.594 198.366 412.487 197.95 412.272 197.605C412.057 197.25 411.763 196.984 411.39 196.807C411.026 196.62 410.62 196.527 410.172 196.527C409.528 196.527 408.977 196.732 408.52 197.143C408.072 197.554 407.815 198.123 407.75 198.851H412.594ZM418.448 202.071L420.828 195.575H422.186L419.176 203.247H417.692L414.682 195.575H416.054L418.448 202.071ZM427.863 203.345C426.958 203.345 426.132 203.135 425.385 202.715C424.639 202.286 424.046 201.693 423.607 200.937C423.178 200.172 422.963 199.313 422.963 198.361C422.963 197.409 423.178 196.555 423.607 195.799C424.046 195.034 424.639 194.441 425.385 194.021C426.132 193.592 426.958 193.377 427.863 193.377C428.778 193.377 429.609 193.592 430.355 194.021C431.102 194.441 431.69 195.029 432.119 195.785C432.549 196.541 432.763 197.4 432.763 198.361C432.763 199.322 432.549 200.181 432.119 200.937C431.69 201.693 431.102 202.286 430.355 202.715C429.609 203.135 428.778 203.345 427.863 203.345ZM427.863 202.239C428.545 202.239 429.156 202.08 429.697 201.763C430.248 201.446 430.677 200.993 430.985 200.405C431.303 199.817 431.461 199.136 431.461 198.361C431.461 197.577 431.303 196.896 430.985 196.317C430.677 195.729 430.253 195.276 429.711 194.959C429.17 194.642 428.554 194.483 427.863 194.483C427.173 194.483 426.557 194.642 426.015 194.959C425.474 195.276 425.045 195.729 424.727 196.317C424.419 196.896 424.265 197.577 424.265 198.361C424.265 199.136 424.419 199.817 424.727 200.405C425.045 200.993 425.474 201.446 426.015 201.763C426.566 202.08 427.182 202.239 427.863 202.239ZM435.719 196.989C435.971 196.55 436.345 196.186 436.839 195.897C437.343 195.598 437.927 195.449 438.589 195.449C439.271 195.449 439.887 195.612 440.437 195.939C440.997 196.266 441.436 196.728 441.753 197.325C442.071 197.913 442.229 198.599 442.229 199.383C442.229 200.158 442.071 200.848 441.753 201.455C441.436 202.062 440.997 202.533 440.437 202.869C439.887 203.205 439.271 203.373 438.589 203.373C437.936 203.373 437.357 203.228 436.853 202.939C436.359 202.64 435.981 202.272 435.719 201.833V206.887H434.445V195.575H435.719V196.989ZM440.927 199.383C440.927 198.804 440.811 198.3 440.577 197.871C440.344 197.442 440.027 197.115 439.625 196.891C439.233 196.667 438.799 196.555 438.323 196.555C437.857 196.555 437.423 196.672 437.021 196.905C436.629 197.129 436.312 197.46 436.069 197.899C435.836 198.328 435.719 198.828 435.719 199.397C435.719 199.976 435.836 200.484 436.069 200.923C436.312 201.352 436.629 201.684 437.021 201.917C437.423 202.141 437.857 202.253 438.323 202.253C438.799 202.253 439.233 202.141 439.625 201.917C440.027 201.684 440.344 201.352 440.577 200.923C440.811 200.484 440.927 199.971 440.927 199.383ZM446.622 203.373C446.034 203.373 445.507 203.275 445.04 203.079C444.573 202.874 444.205 202.594 443.934 202.239C443.663 201.875 443.514 201.46 443.486 200.993H444.802C444.839 201.376 445.017 201.688 445.334 201.931C445.661 202.174 446.085 202.295 446.608 202.295C447.093 202.295 447.476 202.188 447.756 201.973C448.036 201.758 448.176 201.488 448.176 201.161C448.176 200.825 448.027 200.578 447.728 200.419C447.429 200.251 446.967 200.088 446.342 199.929C445.773 199.78 445.306 199.63 444.942 199.481C444.587 199.322 444.279 199.094 444.018 198.795C443.766 198.487 443.64 198.086 443.64 197.591C443.64 197.199 443.757 196.84 443.99 196.513C444.223 196.186 444.555 195.93 444.984 195.743C445.413 195.547 445.903 195.449 446.454 195.449C447.303 195.449 447.989 195.664 448.512 196.093C449.035 196.522 449.315 197.11 449.352 197.857H448.078C448.05 197.456 447.887 197.134 447.588 196.891C447.299 196.648 446.907 196.527 446.412 196.527C445.955 196.527 445.591 196.625 445.32 196.821C445.049 197.017 444.914 197.274 444.914 197.591C444.914 197.843 444.993 198.053 445.152 198.221C445.32 198.38 445.525 198.51 445.768 198.613C446.02 198.706 446.365 198.814 446.804 198.935C447.355 199.084 447.803 199.234 448.148 199.383C448.493 199.523 448.787 199.738 449.03 200.027C449.282 200.316 449.413 200.694 449.422 201.161C449.422 201.581 449.305 201.959 449.072 202.295C448.839 202.631 448.507 202.897 448.078 203.093C447.658 203.28 447.173 203.373 446.622 203.373Z" fill="white"/>
<path d="M356.165 232.233C356.165 233.241 355.922 234.186 355.436 235.068C354.968 235.95 354.221 236.661 353.195 237.201C352.187 237.741 350.909 238.011 349.361 238.011H346.202V245.247H342.422V226.401H349.361C350.819 226.401 352.061 226.653 353.087 227.157C354.113 227.661 354.878 228.354 355.382 229.236C355.904 230.118 356.165 231.117 356.165 232.233ZM349.199 234.96C350.243 234.96 351.017 234.726 351.521 234.258C352.025 233.772 352.277 233.097 352.277 232.233C352.277 230.397 351.251 229.479 349.199 229.479H346.202V234.96H349.199ZM362.628 225.267V245.247H358.848V225.267H362.628ZM365.391 237.714C365.391 236.202 365.688 234.861 366.282 233.691C366.894 232.521 367.713 231.621 368.739 230.991C369.783 230.361 370.944 230.046 372.222 230.046C373.338 230.046 374.31 230.271 375.138 230.721C375.984 231.171 376.659 231.738 377.163 232.422V230.289H380.97V245.247H377.163V243.06C376.677 243.762 376.002 244.347 375.138 244.815C374.292 245.265 373.311 245.49 372.195 245.49C370.935 245.49 369.783 245.166 368.739 244.518C367.713 243.87 366.894 242.961 366.282 241.791C365.688 240.603 365.391 239.244 365.391 237.714ZM377.163 237.768C377.163 236.85 376.983 236.067 376.623 235.419C376.263 234.753 375.777 234.249 375.165 233.907C374.553 233.547 373.896 233.367 373.194 233.367C372.492 233.367 371.844 233.538 371.25 233.88C370.656 234.222 370.17 234.726 369.792 235.392C369.432 236.04 369.252 236.814 369.252 237.714C369.252 238.614 369.432 239.406 369.792 240.09C370.17 240.756 370.656 241.269 371.25 241.629C371.862 241.989 372.51 242.169 373.194 242.169C373.896 242.169 374.553 241.998 375.165 241.656C375.777 241.296 376.263 240.792 376.623 240.144C376.983 239.478 377.163 238.686 377.163 237.768ZM389.063 233.394V240.63C389.063 241.134 389.18 241.503 389.414 241.737C389.666 241.953 390.08 242.061 390.656 242.061H392.411V245.247H390.035C386.849 245.247 385.256 243.699 385.256 240.603V233.394H383.474V230.289H385.256V226.59H389.063V230.289H392.411V233.394H389.063ZM401.988 233.394H399.369V245.247H395.535V233.394H393.834V230.289H395.535V229.533C395.535 227.697 396.057 226.347 397.101 225.483C398.145 224.619 399.72 224.214 401.826 224.268V227.454C400.908 227.436 400.269 227.589 399.909 227.913C399.549 228.237 399.369 228.822 399.369 229.668V230.289H401.988V233.394ZM411.079 245.49C409.639 245.49 408.343 245.175 407.191 244.545C406.039 243.897 405.13 242.988 404.464 241.818C403.816 240.648 403.492 239.298 403.492 237.768C403.492 236.238 403.825 234.888 404.491 233.718C405.175 232.548 406.102 231.648 407.272 231.018C408.442 230.37 409.747 230.046 411.187 230.046C412.627 230.046 413.932 230.37 415.102 231.018C416.272 231.648 417.19 232.548 417.856 233.718C418.54 234.888 418.882 236.238 418.882 237.768C418.882 239.298 418.531 240.648 417.829 241.818C417.145 242.988 416.209 243.897 415.021 244.545C413.851 245.175 412.537 245.49 411.079 245.49ZM411.079 242.196C411.763 242.196 412.402 242.034 412.996 241.71C413.608 241.368 414.094 240.864 414.454 240.198C414.814 239.532 414.994 238.722 414.994 237.768C414.994 236.346 414.616 235.257 413.86 234.501C413.122 233.727 412.213 233.34 411.133 233.34C410.053 233.34 409.144 233.727 408.406 234.501C407.686 235.257 407.326 236.346 407.326 237.768C407.326 239.19 407.677 240.288 408.379 241.062C409.099 241.818 409.999 242.196 411.079 242.196ZM425.435 232.611C425.921 231.819 426.551 231.198 427.325 230.748C428.117 230.298 429.017 230.073 430.025 230.073V234.042H429.026C427.838 234.042 426.938 234.321 426.326 234.879C425.732 235.437 425.435 236.409 425.435 237.795V245.247H421.655V230.289H425.435V232.611ZM451.147 230.073C452.983 230.073 454.459 230.64 455.575 231.774C456.709 232.89 457.276 234.456 457.276 236.472V245.247H453.496V236.985C453.496 235.815 453.199 234.924 452.605 234.312C452.011 233.682 451.201 233.367 450.175 233.367C449.149 233.367 448.33 233.682 447.718 234.312C447.124 234.924 446.827 235.815 446.827 236.985V245.247H443.047V236.985C443.047 235.815 442.75 234.924 442.156 234.312C441.562 233.682 440.752 233.367 439.726 233.367C438.682 233.367 437.854 233.682 437.242 234.312C436.648 234.924 436.351 235.815 436.351 236.985V245.247H432.571V230.289H436.351V232.098C436.837 231.468 437.458 230.973 438.214 230.613C438.988 230.253 439.834 230.073 440.752 230.073C441.922 230.073 442.966 230.325 443.884 230.829C444.802 231.315 445.513 232.017 446.017 232.935C446.503 232.071 447.205 231.378 448.123 230.856C449.059 230.334 450.067 230.073 451.147 230.073Z" fill="white"/>
<rect x="224" y="258.247" width="235" height="32" rx="5" fill="#11172C" fill-opacity="0.5"/>
<path d="M239.602 272.345C239.602 273.157 239.322 273.834 238.762 274.375C238.211 274.907 237.367 275.173 236.228 275.173H234.352V279.247H233.078V269.489H236.228C237.329 269.489 238.165 269.755 238.734 270.287C239.313 270.819 239.602 271.505 239.602 272.345ZM236.228 274.123C236.937 274.123 237.46 273.969 237.796 273.661C238.132 273.353 238.3 272.914 238.3 272.345C238.3 271.141 237.609 270.539 236.228 270.539H234.352V274.123H236.228ZM242.459 268.887V279.247H241.185V268.887H242.459ZM244.155 275.383C244.155 274.599 244.313 273.913 244.631 273.325C244.948 272.728 245.382 272.266 245.933 271.939C246.493 271.612 247.113 271.449 247.795 271.449C248.467 271.449 249.05 271.594 249.545 271.883C250.039 272.172 250.408 272.536 250.651 272.975V271.575H251.939V279.247H250.651V277.819C250.399 278.267 250.021 278.64 249.517 278.939C249.022 279.228 248.443 279.373 247.781 279.373C247.099 279.373 246.483 279.205 245.933 278.869C245.382 278.533 244.948 278.062 244.631 277.455C244.313 276.848 244.155 276.158 244.155 275.383ZM250.651 275.397C250.651 274.818 250.534 274.314 250.301 273.885C250.067 273.456 249.75 273.129 249.349 272.905C248.957 272.672 248.523 272.555 248.047 272.555C247.571 272.555 247.137 272.667 246.745 272.891C246.353 273.115 246.04 273.442 245.807 273.871C245.573 274.3 245.457 274.804 245.457 275.383C245.457 275.971 245.573 276.484 245.807 276.923C246.04 277.352 246.353 277.684 246.745 277.917C247.137 278.141 247.571 278.253 248.047 278.253C248.523 278.253 248.957 278.141 249.349 277.917C249.75 277.684 250.067 277.352 250.301 276.923C250.534 276.484 250.651 275.976 250.651 275.397ZM255.646 272.625V277.147C255.646 277.52 255.725 277.786 255.884 277.945C256.042 278.094 256.318 278.169 256.71 278.169H257.648V279.247H256.5C255.79 279.247 255.258 279.084 254.904 278.757C254.549 278.43 254.372 277.894 254.372 277.147V272.625H253.378V271.575H254.372V269.643H255.646V271.575H257.648V272.625H255.646ZM262.313 272.625H260.703V279.247H259.429V272.625H258.435V271.575H259.429V271.029C259.429 270.17 259.649 269.545 260.087 269.153C260.535 268.752 261.249 268.551 262.229 268.551V269.615C261.669 269.615 261.273 269.727 261.039 269.951C260.815 270.166 260.703 270.525 260.703 271.029V271.575H262.313V272.625ZM267.145 279.373C266.426 279.373 265.773 279.21 265.185 278.883C264.606 278.556 264.149 278.094 263.813 277.497C263.486 276.89 263.323 276.19 263.323 275.397C263.323 274.613 263.491 273.922 263.827 273.325C264.172 272.718 264.639 272.256 265.227 271.939C265.815 271.612 266.473 271.449 267.201 271.449C267.929 271.449 268.587 271.612 269.175 271.939C269.763 272.256 270.225 272.714 270.561 273.311C270.906 273.908 271.079 274.604 271.079 275.397C271.079 276.19 270.901 276.89 270.547 277.497C270.201 278.094 269.73 278.556 269.133 278.883C268.535 279.21 267.873 279.373 267.145 279.373ZM267.145 278.253C267.602 278.253 268.031 278.146 268.433 277.931C268.834 277.716 269.156 277.394 269.399 276.965C269.651 276.536 269.777 276.013 269.777 275.397C269.777 274.781 269.655 274.258 269.413 273.829C269.17 273.4 268.853 273.082 268.461 272.877C268.069 272.662 267.644 272.555 267.187 272.555C266.72 272.555 266.291 272.662 265.899 272.877C265.516 273.082 265.208 273.4 264.975 273.829C264.741 274.258 264.625 274.781 264.625 275.397C264.625 276.022 264.737 276.55 264.961 276.979C265.194 277.408 265.502 277.73 265.885 277.945C266.267 278.15 266.687 278.253 267.145 278.253ZM274.028 272.821C274.252 272.382 274.569 272.042 274.98 271.799C275.4 271.556 275.908 271.435 276.506 271.435V272.751H276.17C274.742 272.751 274.028 273.526 274.028 275.075V279.247H272.754V271.575H274.028V272.821ZM287.202 271.435C287.8 271.435 288.332 271.561 288.798 271.813C289.265 272.056 289.634 272.424 289.904 272.919C290.175 273.414 290.31 274.016 290.31 274.725V279.247H289.05V274.907C289.05 274.142 288.859 273.558 288.476 273.157C288.103 272.746 287.594 272.541 286.95 272.541C286.288 272.541 285.76 272.756 285.368 273.185C284.976 273.605 284.78 274.216 284.78 275.019V279.247H283.52V274.907C283.52 274.142 283.329 273.558 282.946 273.157C282.573 272.746 282.064 272.541 281.42 272.541C280.758 272.541 280.23 272.756 279.838 273.185C279.446 273.605 279.25 274.216 279.25 275.019V279.247H277.976V271.575H279.25V272.681C279.502 272.28 279.838 271.972 280.258 271.757C280.688 271.542 281.159 271.435 281.672 271.435C282.316 271.435 282.886 271.58 283.38 271.869C283.875 272.158 284.244 272.583 284.486 273.143C284.701 272.602 285.056 272.182 285.55 271.883C286.045 271.584 286.596 271.435 287.202 271.435ZM297.407 270.525V273.787H300.963V274.837H297.407V278.197H301.383V279.247H296.133V269.475H301.383V270.525H297.407ZM307.048 271.435C307.982 271.435 308.738 271.72 309.316 272.289C309.895 272.849 310.184 273.661 310.184 274.725V279.247H308.924V274.907C308.924 274.142 308.733 273.558 308.35 273.157C307.968 272.746 307.445 272.541 306.782 272.541C306.11 272.541 305.574 272.751 305.172 273.171C304.78 273.591 304.584 274.202 304.584 275.005V279.247H303.31V271.575H304.584V272.667C304.836 272.275 305.177 271.972 305.606 271.757C306.045 271.542 306.526 271.435 307.048 271.435ZM315.43 271.449C316.092 271.449 316.671 271.594 317.166 271.883C317.67 272.172 318.043 272.536 318.286 272.975V271.575H319.574V279.415C319.574 280.115 319.424 280.736 319.126 281.277C318.827 281.828 318.398 282.257 317.838 282.565C317.287 282.873 316.643 283.027 315.906 283.027C314.898 283.027 314.058 282.789 313.386 282.313C312.714 281.837 312.317 281.188 312.196 280.367H313.456C313.596 280.834 313.885 281.207 314.324 281.487C314.762 281.776 315.29 281.921 315.906 281.921C316.606 281.921 317.175 281.702 317.614 281.263C318.062 280.824 318.286 280.208 318.286 279.415V277.805C318.034 278.253 317.66 278.626 317.166 278.925C316.671 279.224 316.092 279.373 315.43 279.373C314.748 279.373 314.128 279.205 313.568 278.869C313.017 278.533 312.583 278.062 312.266 277.455C311.948 276.848 311.79 276.158 311.79 275.383C311.79 274.599 311.948 273.913 312.266 273.325C312.583 272.728 313.017 272.266 313.568 271.939C314.128 271.612 314.748 271.449 315.43 271.449ZM318.286 275.397C318.286 274.818 318.169 274.314 317.936 273.885C317.702 273.456 317.385 273.129 316.984 272.905C316.592 272.672 316.158 272.555 315.682 272.555C315.206 272.555 314.772 272.667 314.38 272.891C313.988 273.115 313.675 273.442 313.442 273.871C313.208 274.3 313.092 274.804 313.092 275.383C313.092 275.971 313.208 276.484 313.442 276.923C313.675 277.352 313.988 277.684 314.38 277.917C314.772 278.141 315.206 278.253 315.682 278.253C316.158 278.253 316.592 278.141 316.984 277.917C317.385 277.684 317.702 277.352 317.936 276.923C318.169 276.484 318.286 275.976 318.286 275.397ZM322.384 270.329C322.142 270.329 321.936 270.245 321.768 270.077C321.6 269.909 321.516 269.704 321.516 269.461C321.516 269.218 321.6 269.013 321.768 268.845C321.936 268.677 322.142 268.593 322.384 268.593C322.618 268.593 322.814 268.677 322.972 268.845C323.14 269.013 323.224 269.218 323.224 269.461C323.224 269.704 323.14 269.909 322.972 270.077C322.814 270.245 322.618 270.329 322.384 270.329ZM323 271.575V279.247H321.726V271.575H323ZM328.91 271.435C329.843 271.435 330.599 271.72 331.178 272.289C331.756 272.849 332.046 273.661 332.046 274.725V279.247H330.786V274.907C330.786 274.142 330.594 273.558 330.212 273.157C329.829 272.746 329.306 272.541 328.644 272.541C327.972 272.541 327.435 272.751 327.034 273.171C326.642 273.591 326.446 274.202 326.446 275.005V279.247H325.172V271.575H326.446V272.667C326.698 272.275 327.038 271.972 327.468 271.757C327.906 271.542 328.387 271.435 328.91 271.435ZM341.127 275.117C341.127 275.36 341.113 275.616 341.085 275.887H334.953C334.999 276.643 335.256 277.236 335.723 277.665C336.199 278.085 336.773 278.295 337.445 278.295C337.995 278.295 338.453 278.169 338.817 277.917C339.19 277.656 339.451 277.31 339.601 276.881H340.973C340.767 277.618 340.357 278.22 339.741 278.687C339.125 279.144 338.359 279.373 337.445 279.373C336.717 279.373 336.063 279.21 335.485 278.883C334.915 278.556 334.467 278.094 334.141 277.497C333.814 276.89 333.651 276.19 333.651 275.397C333.651 274.604 333.809 273.908 334.127 273.311C334.444 272.714 334.887 272.256 335.457 271.939C336.035 271.612 336.698 271.449 337.445 271.449C338.173 271.449 338.817 271.608 339.377 271.925C339.937 272.242 340.366 272.681 340.665 273.241C340.973 273.792 341.127 274.417 341.127 275.117ZM339.811 274.851C339.811 274.366 339.703 273.95 339.489 273.605C339.274 273.25 338.98 272.984 338.607 272.807C338.243 272.62 337.837 272.527 337.389 272.527C336.745 272.527 336.194 272.732 335.737 273.143C335.289 273.554 335.032 274.123 334.967 274.851H339.811ZM349.808 275.117C349.808 275.36 349.794 275.616 349.766 275.887H343.634C343.681 276.643 343.938 277.236 344.404 277.665C344.88 278.085 345.454 278.295 346.126 278.295C346.677 278.295 347.134 278.169 347.498 277.917C347.872 277.656 348.133 277.31 348.282 276.881H349.654C349.449 277.618 349.038 278.22 348.422 278.687C347.806 279.144 347.041 279.373 346.126 279.373C345.398 279.373 344.745 279.21 344.166 278.883C343.597 278.556 343.149 278.094 342.822 277.497C342.496 276.89 342.332 276.19 342.332 275.397C342.332 274.604 342.491 273.908 342.808 273.311C343.126 272.714 343.569 272.256 344.138 271.939C344.717 271.612 345.38 271.449 346.126 271.449C346.854 271.449 347.498 271.608 348.058 271.925C348.618 272.242 349.048 272.681 349.346 273.241C349.654 273.792 349.808 274.417 349.808 275.117ZM348.492 274.851C348.492 274.366 348.385 273.95 348.17 273.605C347.956 273.25 347.662 272.984 347.288 272.807C346.924 272.62 346.518 272.527 346.07 272.527C345.426 272.527 344.876 272.732 344.418 273.143C343.97 273.554 343.714 274.123 343.648 274.851H348.492ZM352.764 272.821C352.988 272.382 353.305 272.042 353.716 271.799C354.136 271.556 354.645 271.435 355.242 271.435V272.751H354.906C353.478 272.751 352.764 273.526 352.764 275.075V279.247H351.49V271.575H352.764V272.821ZM359.429 279.373C358.841 279.373 358.313 279.275 357.847 279.079C357.38 278.874 357.011 278.594 356.741 278.239C356.47 277.875 356.321 277.46 356.293 276.993H357.609C357.646 277.376 357.823 277.688 358.141 277.931C358.467 278.174 358.892 278.295 359.415 278.295C359.9 278.295 360.283 278.188 360.563 277.973C360.843 277.758 360.983 277.488 360.983 277.161C360.983 276.825 360.833 276.578 360.535 276.419C360.236 276.251 359.774 276.088 359.149 275.929C358.579 275.78 358.113 275.63 357.749 275.481C357.394 275.322 357.086 275.094 356.825 274.795C356.573 274.487 356.447 274.086 356.447 273.591C356.447 273.199 356.563 272.84 356.797 272.513C357.03 272.186 357.361 271.93 357.791 271.743C358.22 271.547 358.71 271.449 359.261 271.449C360.11 271.449 360.796 271.664 361.319 272.093C361.841 272.522 362.121 273.11 362.159 273.857H360.885C360.857 273.456 360.693 273.134 360.395 272.891C360.105 272.648 359.713 272.527 359.219 272.527C358.761 272.527 358.397 272.625 358.127 272.821C357.856 273.017 357.721 273.274 357.721 273.591C357.721 273.843 357.8 274.053 357.959 274.221C358.127 274.38 358.332 274.51 358.575 274.613C358.827 274.706 359.172 274.814 359.611 274.935C360.161 275.084 360.609 275.234 360.955 275.383C361.3 275.523 361.594 275.738 361.837 276.027C362.089 276.316 362.219 276.694 362.229 277.161C362.229 277.581 362.112 277.959 361.879 278.295C361.645 278.631 361.314 278.897 360.885 279.093C360.465 279.28 359.979 279.373 359.429 279.373ZM375.04 274.669H372.058V277.693H370.868V274.669H367.9V273.591H370.868V270.553H372.058V273.591H375.04V274.669ZM386.817 277.077H382.561L381.777 279.247H380.433L383.961 269.545H385.431L388.945 279.247H387.601L386.817 277.077ZM386.453 276.041L384.689 271.113L382.925 276.041H386.453ZM391.756 272.821C391.98 272.382 392.298 272.042 392.708 271.799C393.128 271.556 393.637 271.435 394.234 271.435V272.751H393.898C392.47 272.751 391.756 273.526 391.756 275.075V279.247H390.482V271.575H391.756V272.821ZM395.229 275.397C395.229 274.604 395.388 273.913 395.705 273.325C396.022 272.728 396.461 272.266 397.021 271.939C397.59 271.612 398.239 271.449 398.967 271.449C399.91 271.449 400.684 271.678 401.291 272.135C401.907 272.592 402.313 273.227 402.509 274.039H401.137C401.006 273.572 400.75 273.204 400.367 272.933C399.994 272.662 399.527 272.527 398.967 272.527C398.239 272.527 397.651 272.779 397.203 273.283C396.755 273.778 396.531 274.482 396.531 275.397C396.531 276.321 396.755 277.035 397.203 277.539C397.651 278.043 398.239 278.295 398.967 278.295C399.527 278.295 399.994 278.164 400.367 277.903C400.74 277.642 400.997 277.268 401.137 276.783H402.509C402.304 277.567 401.893 278.197 401.277 278.673C400.661 279.14 399.891 279.373 398.967 279.373C398.239 279.373 397.59 279.21 397.021 278.883C396.461 278.556 396.022 278.094 395.705 277.497C395.388 276.9 395.229 276.2 395.229 275.397ZM408.017 271.435C408.596 271.435 409.118 271.561 409.585 271.813C410.052 272.056 410.416 272.424 410.677 272.919C410.948 273.414 411.083 274.016 411.083 274.725V279.247H409.823V274.907C409.823 274.142 409.632 273.558 409.249 273.157C408.866 272.746 408.344 272.541 407.681 272.541C407.009 272.541 406.472 272.751 406.071 273.171C405.679 273.591 405.483 274.202 405.483 275.005V279.247H404.209V268.887H405.483V272.667C405.735 272.275 406.08 271.972 406.519 271.757C406.967 271.542 407.466 271.435 408.017 271.435ZM413.822 270.329C413.579 270.329 413.374 270.245 413.206 270.077C413.038 269.909 412.954 269.704 412.954 269.461C412.954 269.218 413.038 269.013 413.206 268.845C413.374 268.677 413.579 268.593 413.822 268.593C414.055 268.593 414.251 268.677 414.41 268.845C414.578 269.013 414.662 269.218 414.662 269.461C414.662 269.704 414.578 269.909 414.41 270.077C414.251 270.245 414.055 270.329 413.822 270.329ZM414.438 271.575V279.247H413.164V271.575H414.438ZM418.163 272.625V277.147C418.163 277.52 418.243 277.786 418.401 277.945C418.56 278.094 418.835 278.169 419.227 278.169H420.165V279.247H419.017C418.308 279.247 417.776 279.084 417.421 278.757C417.067 278.43 416.889 277.894 416.889 277.147V272.625H415.895V271.575H416.889V269.643H418.163V271.575H420.165V272.625H418.163ZM428.709 275.117C428.709 275.36 428.695 275.616 428.667 275.887H422.535C422.582 276.643 422.838 277.236 423.305 277.665C423.781 278.085 424.355 278.295 425.027 278.295C425.578 278.295 426.035 278.169 426.399 277.917C426.772 277.656 427.034 277.31 427.183 276.881H428.555C428.35 277.618 427.939 278.22 427.323 278.687C426.707 279.144 425.942 279.373 425.027 279.373C424.299 279.373 423.646 279.21 423.067 278.883C422.498 278.556 422.05 278.094 421.723 277.497C421.396 276.89 421.233 276.19 421.233 275.397C421.233 274.604 421.392 273.908 421.709 273.311C422.026 272.714 422.47 272.256 423.039 271.939C423.618 271.612 424.28 271.449 425.027 271.449C425.755 271.449 426.399 271.608 426.959 271.925C427.519 272.242 427.948 272.681 428.247 273.241C428.555 273.792 428.709 274.417 428.709 275.117ZM427.393 274.851C427.393 274.366 427.286 273.95 427.071 273.605C426.856 273.25 426.562 272.984 426.189 272.807C425.825 272.62 425.419 272.527 424.971 272.527C424.327 272.527 423.776 272.732 423.319 273.143C422.871 273.554 422.614 274.123 422.549 274.851H427.393ZM429.915 275.397C429.915 274.604 430.073 273.913 430.391 273.325C430.708 272.728 431.147 272.266 431.707 271.939C432.276 271.612 432.925 271.449 433.653 271.449C434.595 271.449 435.37 271.678 435.977 272.135C436.593 272.592 436.999 273.227 437.195 274.039H435.823C435.692 273.572 435.435 273.204 435.053 272.933C434.679 272.662 434.213 272.527 433.653 272.527C432.925 272.527 432.337 272.779 431.889 273.283C431.441 273.778 431.217 274.482 431.217 275.397C431.217 276.321 431.441 277.035 431.889 277.539C432.337 278.043 432.925 278.295 433.653 278.295C434.213 278.295 434.679 278.164 435.053 277.903C435.426 277.642 435.683 277.268 435.823 276.783H437.195C436.989 277.567 436.579 278.197 435.963 278.673C435.347 279.14 434.577 279.373 433.653 279.373C432.925 279.373 432.276 279.21 431.707 278.883C431.147 278.556 430.708 278.094 430.391 277.497C430.073 276.9 429.915 276.2 429.915 275.397ZM440.448 272.625V277.147C440.448 277.52 440.528 277.786 440.686 277.945C440.845 278.094 441.12 278.169 441.512 278.169H442.45V279.247H441.302C440.593 279.247 440.061 279.084 439.706 278.757C439.352 278.43 439.174 277.894 439.174 277.147V272.625H438.18V271.575H439.174V269.643H440.448V271.575H442.45V272.625H440.448ZM446.71 279.373C446.122 279.373 445.595 279.275 445.128 279.079C444.661 278.874 444.293 278.594 444.022 278.239C443.751 277.875 443.602 277.46 443.574 276.993H444.89C444.927 277.376 445.105 277.688 445.422 277.931C445.749 278.174 446.173 278.295 446.696 278.295C447.181 278.295 447.564 278.188 447.844 277.973C448.124 277.758 448.264 277.488 448.264 277.161C448.264 276.825 448.115 276.578 447.816 276.419C447.517 276.251 447.055 276.088 446.43 275.929C445.861 275.78 445.394 275.63 445.03 275.481C444.675 275.322 444.367 275.094 444.106 274.795C443.854 274.487 443.728 274.086 443.728 273.591C443.728 273.199 443.845 272.84 444.078 272.513C444.311 272.186 444.643 271.93 445.072 271.743C445.501 271.547 445.991 271.449 446.542 271.449C447.391 271.449 448.077 271.664 448.6 272.093C449.123 272.522 449.403 273.11 449.44 273.857H448.166C448.138 273.456 447.975 273.134 447.676 272.891C447.387 272.648 446.995 272.527 446.5 272.527C446.043 272.527 445.679 272.625 445.408 272.821C445.137 273.017 445.002 273.274 445.002 273.591C445.002 273.843 445.081 274.053 445.24 274.221C445.408 274.38 445.613 274.51 445.856 274.613C446.108 274.706 446.453 274.814 446.892 274.935C447.443 275.084 447.891 275.234 448.236 275.383C448.581 275.523 448.875 275.738 449.118 276.027C449.37 276.316 449.501 276.694 449.51 277.161C449.51 277.581 449.393 277.959 449.16 278.295C448.927 278.631 448.595 278.897 448.166 279.093C447.746 279.28 447.261 279.373 446.71 279.373Z" fill="white"/>
</g>
<defs>
<filter id="filter0_d_361_307" x="0" y="116.247" width="507" height="258" filterUnits="userSpaceOnUse" color-interpolation-filters="sRGB">
<feFlood flood-opacity="0" result="BackgroundImageFix"/>
<feColorMatrix in="SourceAlpha" type="matrix" values="0 0 0 0 0 0 0 0 0 0 0 0 0 0 0 0 0 0 127 0" result="hardAlpha"/>
<feOffset dy="9"/>
<feGaussianBlur stdDeviation="12"/>
<feComposite in2="hardAlpha" operator="out"/>
<feColorMatrix type="matrix" values="0 0 0 0 0.0431373 0 0 0 0 0.286275 0 0 0 0 0.576471 0 0 0 0.5 0"/>
<feBlend mode="normal" in2="BackgroundImageFix" result="effect1_dropShadow_361_307"/>
<feBlend mode="normal" in="SourceGraphic" in2="effect1_dropShadow_361_307" result="shape"/>
</filter>
<linearGradient id="paint0_linear_361_307" x1="438.375" y1="29.1674" x2="52.8008" y2="119.312" gradientUnits="userSpaceOnUse">
<stop stop-color="#1695F1"/>
<stop offset="1" stop-color="#5DB6F6"/>
</linearGradient>
<linearGradient id="paint1_linear_361_307" x1="474.173" y1="157.316" x2="29.9039" y2="226.981" gradientUnits="userSpaceOnUse">
<stop stop-color="#024A7E"/>
<stop offset="1" stop-color="#0074C8"/>
</linearGradient>
</defs>
</svg>
