<svg width="507" height="376" viewBox="0 0 507 376" fill="none" xmlns="http://www.w3.org/2000/svg">
<rect x="24" width="459" height="210" rx="16" fill="url(#paint0_linear_361_309)"/>
<g opacity="0.75">
<path d="M105.853 144.054V121.383H114.598V111.337H109.549C109.119 113.416 108.225 115.24 106.606 116.65C105.017 118.034 103.182 118.828 101.072 118.835C94.1392 118.858 87.2061 118.851 80.2763 118.854C78.0515 118.854 75.8268 118.795 73.6053 118.864C68.2646 119.032 64.4737 114.761 64.3918 110.458C64.3918 110.366 64.3427 110.274 64.2837 110.054H61.8754V121.301C62.2359 121.321 62.5471 121.35 62.8584 121.354C64.9521 121.357 67.0458 121.341 69.1362 121.36C71.5411 121.38 73.1401 122.951 73.163 125.362C73.1958 128.642 73.1728 131.922 73.1728 135.205C73.1728 135.592 73.1728 135.982 73.1728 136.484H75.5843C75.5843 138.095 75.7187 139.61 75.5516 141.089C75.3452 142.919 73.6676 144.094 71.5346 144.1C65.9416 144.11 60.3519 144.103 54.7589 144.103C53.812 144.103 52.8618 144.126 51.9149 144.097C49.6213 144.031 48.0683 142.463 48.0126 140.158C47.9864 138.983 48.0093 137.806 48.0093 136.527H50.5158C50.5158 136.077 50.5158 135.73 50.5158 135.382C50.5158 132.102 50.5093 128.822 50.5158 125.539C50.5224 122.964 52.1115 121.37 54.6802 121.357C56.1809 121.347 57.6848 121.357 59.2837 121.357V107.535C60.8663 107.535 62.3571 107.503 63.8446 107.552C64.4901 107.571 64.8603 107.421 65.0602 106.755C65.2339 106.174 65.5681 105.643 65.8793 104.987H56.8296V98.6926C55.3618 98.6926 53.9692 98.6926 52.5767 98.6926C49.4346 98.6926 48.006 97.2691 48.006 94.1466C48.006 86.2059 48.006 78.2684 48.006 70.3277C48.006 67.4085 49.5099 65.8801 52.39 65.8801C56.1842 65.8801 59.9751 65.8801 63.7693 65.8801C66.6264 65.8801 68.1532 67.3921 68.1532 70.2293C68.1532 78.2684 68.1532 86.3043 68.1532 94.3434C68.1532 97.2002 66.6526 98.6893 63.7791 98.6926C62.344 98.6926 60.9056 98.6926 59.3984 98.6926V102.445C60.6238 102.445 61.8525 102.445 63.0812 102.445C64.2247 102.445 65.3846 102.33 66.5117 102.471C68.1696 102.681 69.5687 101.982 71.03 101.454C71.2135 101.389 71.3839 101.179 71.4822 100.995C74.4376 95.5504 78.8772 93.7694 84.5292 95.6455C85.8136 94.5566 86.9112 93.3496 88.2513 92.5394C94.6831 88.6494 102.986 93.1922 103.281 100.713C103.304 101.326 103.471 101.638 104.054 101.864C104.686 102.107 105.355 102.406 105.843 102.858C106.685 103.639 107.609 103.836 108.703 103.763C109.801 103.691 110.908 103.747 112.062 103.747V91.1487H105.882V88.633H108.313V86.0944C107.245 86.0944 106.148 86.0944 105.05 86.0944C102.383 86.0845 100.827 84.5561 100.817 81.8993C100.804 77.9634 100.8 74.0242 100.817 70.0882C100.827 67.4315 102.376 65.8866 105.034 65.8834C110.594 65.8735 116.151 65.8735 121.711 65.8834C124.427 65.8866 125.974 67.438 125.977 70.1506C125.984 74.0537 125.984 77.9601 125.977 81.8632C125.97 84.52 124.404 86.0845 121.77 86.0944C120.692 86.0976 119.617 86.0944 118.47 86.0944V88.5773H120.882V91.0995H114.706V106.227H108.808C109.096 107.152 109.339 107.919 109.594 108.746H117.16V121.35H125.925C125.947 121.774 125.977 122.095 125.977 122.413C125.977 129.268 125.964 136.127 126 142.982C126.006 143.897 125.738 144.13 124.85 144.123C118.867 144.084 112.881 144.103 106.898 144.1C106.577 144.1 106.256 144.074 105.859 144.057L105.853 144.054ZM85.866 99.2371C85.5187 99.0501 85.2566 98.9288 85.0141 98.7779C80.4041 95.9342 75.1846 97.7841 73.471 102.911C73.2515 103.57 72.914 103.737 72.298 103.813C69.5163 104.164 67.2686 106.44 66.9475 109.172C66.4822 113.128 69.3492 116.339 73.4251 116.352C80.1944 116.375 86.9604 116.358 93.7296 116.358C96.0821 116.358 98.4379 116.394 100.79 116.349C104.218 116.28 106.885 113.734 107.081 110.415C107.278 107.076 104.955 104.291 101.547 103.777C101.236 103.731 100.928 103.645 100.633 103.583C100.882 98.0989 99.4602 95.3733 95.7152 94.0581C94.2178 93.5333 92.7237 93.4906 91.1936 93.9433C88.497 94.7403 86.9079 96.6754 85.8726 99.2338L85.866 99.2371ZM70.6335 136.438C70.6499 136.136 70.6729 135.881 70.6729 135.625C70.6729 132.312 70.6794 129.003 70.6729 125.69C70.6729 124.309 70.2404 123.889 68.838 123.889C64.1657 123.886 59.4902 123.886 54.8179 123.889C53.4974 123.889 53.0485 124.332 53.0453 125.644C53.0387 128.989 53.0453 132.332 53.0453 135.677C53.0453 135.93 53.0846 136.179 53.1042 136.438H70.6303H70.6335ZM103.304 78.4324H123.444C123.444 75.4477 123.484 72.5056 123.418 69.5667C123.402 68.7861 122.766 68.3958 121.973 68.3958C116.256 68.3958 110.535 68.386 104.817 68.4024C103.815 68.4024 103.336 68.914 103.31 69.9341C103.287 70.7869 103.304 71.6397 103.304 72.4924C103.304 74.4506 103.304 76.412 103.304 78.4357V78.4324ZM50.5846 73.5322V86.0452H65.5517V73.5322H50.5846ZM50.5158 88.6757C50.5158 90.7978 50.4962 92.792 50.5256 94.7862C50.5387 95.6324 51.0138 96.1343 51.8821 96.1343C56.0269 96.1408 60.1717 96.1375 64.3164 96.1343C64.9914 96.1343 65.5353 95.7866 65.555 95.124C65.6139 92.979 65.5779 90.8306 65.5779 88.6757H50.5158ZM108.412 141.502H123.411V134.037H108.412V141.502ZM123.438 123.958H108.425V131.4H123.438V123.958ZM73.0844 139.121H50.5551C50.4273 141.224 50.7583 141.584 52.7504 141.584C58.8578 141.584 64.9685 141.584 71.0759 141.584C72.9435 141.584 73.3301 141.122 73.0844 139.121ZM123.405 81.0596H103.418C103.084 83.0178 103.5 83.5327 105.355 83.5327C110.679 83.5327 116.007 83.5327 121.331 83.5327C123.251 83.5327 123.575 83.1654 123.405 81.0596ZM50.5715 70.859H65.5648C65.6762 68.668 65.4173 68.3925 63.3007 68.3925C59.7719 68.3925 56.2431 68.3925 52.7176 68.3925C50.7517 68.3925 50.3946 68.7927 50.5748 70.8557L50.5715 70.859ZM110.944 88.4986H115.807V86.1436H110.944V88.4986Z" fill="white"/>
<path d="M55.6445 93.5329V91.1777H60.5167V93.5329H55.6445Z" fill="white"/>
<path d="M115.826 136.56V138.98H110.947V136.56H115.826Z" fill="white"/>
<path d="M118.429 138.968V136.557H120.883V138.968H118.429Z" fill="white"/>
<path d="M115.928 128.905V126.497H120.875V128.905H115.928Z" fill="white"/>
<path d="M110.929 128.9V126.512H113.324V128.9H110.929Z" fill="white"/>
</g>
<path d="M298.419 92.409H290.913L289.671 96H285.702L292.479 77.127H296.88L303.657 96H299.661L298.419 92.409ZM297.393 89.385L294.666 81.501L291.939 89.385H297.393ZM309.97 83.202C310.456 82.518 311.122 81.951 311.968 81.501C312.832 81.033 313.813 80.799 314.911 80.799C316.189 80.799 317.341 81.114 318.367 81.744C319.411 82.374 320.23 83.274 320.824 84.444C321.436 85.596 321.742 86.937 321.742 88.467C321.742 89.997 321.436 91.356 320.824 92.544C320.23 93.714 319.411 94.623 318.367 95.271C317.341 95.919 316.189 96.243 314.911 96.243C313.813 96.243 312.841 96.018 311.995 95.568C311.167 95.118 310.492 94.551 309.97 93.867V103.128H306.19V81.042H309.97V83.202ZM317.881 88.467C317.881 87.567 317.692 86.793 317.314 86.145C316.954 85.479 316.468 84.975 315.856 84.633C315.262 84.291 314.614 84.12 313.912 84.12C313.228 84.12 312.58 84.3 311.968 84.66C311.374 85.002 310.888 85.506 310.51 86.172C310.15 86.838 309.97 87.621 309.97 88.521C309.97 89.421 310.15 90.204 310.51 90.87C310.888 91.536 311.374 92.049 311.968 92.409C312.58 92.751 313.228 92.922 313.912 92.922C314.614 92.922 315.262 92.742 315.856 92.382C316.468 92.022 316.954 91.509 317.314 90.843C317.692 90.177 317.881 89.385 317.881 88.467ZM328.269 83.202C328.755 82.518 329.421 81.951 330.267 81.501C331.131 81.033 332.112 80.799 333.21 80.799C334.488 80.799 335.64 81.114 336.666 81.744C337.71 82.374 338.529 83.274 339.123 84.444C339.735 85.596 340.041 86.937 340.041 88.467C340.041 89.997 339.735 91.356 339.123 92.544C338.529 93.714 337.71 94.623 336.666 95.271C335.64 95.919 334.488 96.243 333.21 96.243C332.112 96.243 331.14 96.018 330.294 95.568C329.466 95.118 328.791 94.551 328.269 93.867V103.128H324.489V81.042H328.269V83.202ZM336.18 88.467C336.18 87.567 335.991 86.793 335.613 86.145C335.253 85.479 334.767 84.975 334.155 84.633C333.561 84.291 332.913 84.12 332.211 84.12C331.527 84.12 330.879 84.3 330.267 84.66C329.673 85.002 329.187 85.506 328.809 86.172C328.449 86.838 328.269 87.621 328.269 88.521C328.269 89.421 328.449 90.204 328.809 90.87C329.187 91.536 329.673 92.049 330.267 92.409C330.879 92.751 331.527 92.922 332.211 92.922C332.913 92.922 333.561 92.742 334.155 92.382C334.767 92.022 335.253 91.509 335.613 90.843C335.991 90.177 336.18 89.385 336.18 88.467ZM346.568 76.02V96H342.788V76.02H346.568ZM352.219 79.26C351.553 79.26 350.995 79.053 350.545 78.639C350.113 78.207 349.897 77.676 349.897 77.046C349.897 76.416 350.113 75.894 350.545 75.48C350.995 75.048 351.553 74.832 352.219 74.832C352.885 74.832 353.434 75.048 353.866 75.48C354.316 75.894 354.541 76.416 354.541 77.046C354.541 77.676 354.316 78.207 353.866 78.639C353.434 79.053 352.885 79.26 352.219 79.26ZM354.082 81.042V96H350.302V81.042H354.082ZM356.845 88.521C356.845 86.973 357.16 85.623 357.79 84.471C358.42 83.301 359.293 82.401 360.409 81.771C361.525 81.123 362.803 80.799 364.243 80.799C366.097 80.799 367.627 81.267 368.833 82.203C370.057 83.121 370.876 84.417 371.29 86.091H367.213C366.997 85.443 366.628 84.939 366.106 84.579C365.602 84.201 364.972 84.012 364.216 84.012C363.136 84.012 362.281 84.408 361.651 85.2C361.021 85.974 360.706 87.081 360.706 88.521C360.706 89.943 361.021 91.05 361.651 91.842C362.281 92.616 363.136 93.003 364.216 93.003C365.746 93.003 366.745 92.319 367.213 90.951H371.29C370.876 92.571 370.057 93.858 368.833 94.812C367.609 95.766 366.079 96.243 364.243 96.243C362.803 96.243 361.525 95.928 360.409 95.298C359.293 94.65 358.42 93.75 357.79 92.598C357.16 91.428 356.845 90.069 356.845 88.521ZM373.087 88.467C373.087 86.955 373.384 85.614 373.978 84.444C374.59 83.274 375.409 82.374 376.435 81.744C377.479 81.114 378.64 80.799 379.918 80.799C381.034 80.799 382.006 81.024 382.834 81.474C383.68 81.924 384.355 82.491 384.859 83.175V81.042H388.666V96H384.859V93.813C384.373 94.515 383.698 95.1 382.834 95.568C381.988 96.018 381.007 96.243 379.891 96.243C378.631 96.243 377.479 95.919 376.435 95.271C375.409 94.623 374.59 93.714 373.978 92.544C373.384 91.356 373.087 89.997 373.087 88.467ZM384.859 88.521C384.859 87.603 384.679 86.82 384.319 86.172C383.959 85.506 383.473 85.002 382.861 84.66C382.249 84.3 381.592 84.12 380.89 84.12C380.188 84.12 379.54 84.291 378.946 84.633C378.352 84.975 377.866 85.479 377.488 86.145C377.128 86.793 376.948 87.567 376.948 88.467C376.948 89.367 377.128 90.159 377.488 90.843C377.866 91.509 378.352 92.022 378.946 92.382C379.558 92.742 380.206 92.922 380.89 92.922C381.592 92.922 382.249 92.751 382.861 92.409C383.473 92.049 383.959 91.545 384.319 90.897C384.679 90.231 384.859 89.439 384.859 88.521ZM396.759 84.147V91.383C396.759 91.887 396.876 92.256 397.11 92.49C397.362 92.706 397.776 92.814 398.352 92.814H400.107V96H397.731C394.545 96 392.952 94.452 392.952 91.356V84.147H391.17V81.042H392.952V77.343H396.759V81.042H400.107V84.147H396.759ZM404.743 79.26C404.077 79.26 403.519 79.053 403.069 78.639C402.637 78.207 402.421 77.676 402.421 77.046C402.421 76.416 402.637 75.894 403.069 75.48C403.519 75.048 404.077 74.832 404.743 74.832C405.409 74.832 405.958 75.048 406.39 75.48C406.84 75.894 407.065 76.416 407.065 77.046C407.065 77.676 406.84 78.207 406.39 78.639C405.958 79.053 405.409 79.26 404.743 79.26ZM406.606 81.042V96H402.826V81.042H406.606ZM416.983 96.243C415.543 96.243 414.247 95.928 413.095 95.298C411.943 94.65 411.034 93.741 410.368 92.571C409.72 91.401 409.396 90.051 409.396 88.521C409.396 86.991 409.729 85.641 410.395 84.471C411.079 83.301 412.006 82.401 413.176 81.771C414.346 81.123 415.651 80.799 417.091 80.799C418.531 80.799 419.836 81.123 421.006 81.771C422.176 82.401 423.094 83.301 423.76 84.471C424.444 85.641 424.786 86.991 424.786 88.521C424.786 90.051 424.435 91.401 423.733 92.571C423.049 93.741 422.113 94.65 420.925 95.298C419.755 95.928 418.441 96.243 416.983 96.243ZM416.983 92.949C417.667 92.949 418.306 92.787 418.9 92.463C419.512 92.121 419.998 91.617 420.358 90.951C420.718 90.285 420.898 89.475 420.898 88.521C420.898 87.099 420.52 86.01 419.764 85.254C419.026 84.48 418.117 84.093 417.037 84.093C415.957 84.093 415.048 84.48 414.31 85.254C413.59 86.01 413.23 87.099 413.23 88.521C413.23 89.943 413.581 91.041 414.283 91.815C415.003 92.571 415.903 92.949 416.983 92.949ZM435.847 80.826C437.629 80.826 439.069 81.393 440.167 82.527C441.265 83.643 441.814 85.209 441.814 87.225V96H438.034V87.738C438.034 86.55 437.737 85.641 437.143 85.011C436.549 84.363 435.739 84.039 434.713 84.039C433.669 84.039 432.841 84.363 432.229 85.011C431.635 85.641 431.338 86.55 431.338 87.738V96H427.558V81.042H431.338V82.905C431.842 82.257 432.481 81.753 433.255 81.393C434.047 81.015 434.911 80.826 435.847 80.826ZM451.133 96.243C449.909 96.243 448.811 96.027 447.839 95.595C446.867 95.145 446.093 94.542 445.517 93.786C444.959 93.03 444.653 92.193 444.599 91.275H448.406C448.478 91.851 448.757 92.328 449.243 92.706C449.747 93.084 450.368 93.273 451.106 93.273C451.826 93.273 452.384 93.129 452.78 92.841C453.194 92.553 453.401 92.184 453.401 91.734C453.401 91.248 453.149 90.888 452.645 90.654C452.159 90.402 451.376 90.132 450.296 89.844C449.18 89.574 448.262 89.295 447.542 89.007C446.84 88.719 446.228 88.278 445.706 87.684C445.202 87.09 444.95 86.289 444.95 85.281C444.95 84.453 445.184 83.697 445.652 83.013C446.138 82.329 446.822 81.789 447.704 81.393C448.604 80.997 449.657 80.799 450.863 80.799C452.645 80.799 454.067 81.249 455.129 82.149C456.191 83.031 456.776 84.228 456.884 85.74H453.266C453.212 85.146 452.96 84.678 452.51 84.336C452.078 83.976 451.493 83.796 450.755 83.796C450.071 83.796 449.54 83.922 449.162 84.174C448.802 84.426 448.622 84.777 448.622 85.227C448.622 85.731 448.874 86.118 449.378 86.388C449.882 86.64 450.665 86.901 451.727 87.171C452.807 87.441 453.698 87.72 454.4 88.008C455.102 88.296 455.705 88.746 456.209 89.358C456.731 89.952 457.001 90.744 457.019 91.734C457.019 92.598 456.776 93.372 456.29 94.056C455.822 94.74 455.138 95.28 454.238 95.676C453.356 96.054 452.321 96.243 451.133 96.243Z" fill="white"/>
<rect x="285" y="109" width="170" height="32" rx="5" fill="white" fill-opacity="0.2"/>
<path d="M299.846 127.83H295.59L294.806 130H293.462L296.99 120.298H298.46L301.974 130H300.63L299.846 127.83ZM299.482 126.794L297.718 121.866L295.954 126.794H299.482ZM304.786 123.742C305.038 123.303 305.411 122.939 305.906 122.65C306.41 122.351 306.993 122.202 307.656 122.202C308.337 122.202 308.953 122.365 309.504 122.692C310.064 123.019 310.502 123.481 310.82 124.078C311.137 124.666 311.296 125.352 311.296 126.136C311.296 126.911 311.137 127.601 310.82 128.208C310.502 128.815 310.064 129.286 309.504 129.622C308.953 129.958 308.337 130.126 307.656 130.126C307.002 130.126 306.424 129.981 305.92 129.692C305.425 129.393 305.047 129.025 304.786 128.586V133.64H303.512V122.328H304.786V123.742ZM309.994 126.136C309.994 125.557 309.877 125.053 309.644 124.624C309.41 124.195 309.093 123.868 308.692 123.644C308.3 123.42 307.866 123.308 307.39 123.308C306.923 123.308 306.489 123.425 306.088 123.658C305.696 123.882 305.378 124.213 305.136 124.652C304.902 125.081 304.786 125.581 304.786 126.15C304.786 126.729 304.902 127.237 305.136 127.676C305.378 128.105 305.696 128.437 306.088 128.67C306.489 128.894 306.923 129.006 307.39 129.006C307.866 129.006 308.3 128.894 308.692 128.67C309.093 128.437 309.41 128.105 309.644 127.676C309.877 127.237 309.994 126.724 309.994 126.136ZM314.247 123.742C314.499 123.303 314.872 122.939 315.367 122.65C315.871 122.351 316.454 122.202 317.117 122.202C317.798 122.202 318.414 122.365 318.965 122.692C319.525 123.019 319.963 123.481 320.281 124.078C320.598 124.666 320.757 125.352 320.757 126.136C320.757 126.911 320.598 127.601 320.281 128.208C319.963 128.815 319.525 129.286 318.965 129.622C318.414 129.958 317.798 130.126 317.117 130.126C316.463 130.126 315.885 129.981 315.381 129.692C314.886 129.393 314.508 129.025 314.247 128.586V133.64H312.973V122.328H314.247V123.742ZM319.455 126.136C319.455 125.557 319.338 125.053 319.105 124.624C318.871 124.195 318.554 123.868 318.153 123.644C317.761 123.42 317.327 123.308 316.851 123.308C316.384 123.308 315.95 123.425 315.549 123.658C315.157 123.882 314.839 124.213 314.597 124.652C314.363 125.081 314.247 125.581 314.247 126.15C314.247 126.729 314.363 127.237 314.597 127.676C314.839 128.105 315.157 128.437 315.549 128.67C315.95 128.894 316.384 129.006 316.851 129.006C317.327 129.006 317.761 128.894 318.153 128.67C318.554 128.437 318.871 128.105 319.105 127.676C319.338 127.237 319.455 126.724 319.455 126.136ZM329.204 120.242C330.268 120.242 331.187 120.443 331.962 120.844C332.746 121.236 333.343 121.801 333.754 122.538C334.174 123.275 334.384 124.143 334.384 125.142C334.384 126.141 334.174 127.009 333.754 127.746C333.343 128.474 332.746 129.034 331.962 129.426C331.187 129.809 330.268 130 329.204 130H326.166V120.242H329.204ZM329.204 128.95C330.464 128.95 331.425 128.619 332.088 127.956C332.751 127.284 333.082 126.346 333.082 125.142C333.082 123.929 332.746 122.981 332.074 122.3C331.411 121.619 330.455 121.278 329.204 121.278H327.44V128.95H329.204ZM343.064 125.87C343.064 126.113 343.05 126.369 343.022 126.64H336.89C336.937 127.396 337.194 127.989 337.66 128.418C338.136 128.838 338.71 129.048 339.382 129.048C339.933 129.048 340.39 128.922 340.754 128.67C341.128 128.409 341.389 128.063 341.538 127.634H342.91C342.705 128.371 342.294 128.973 341.678 129.44C341.062 129.897 340.297 130.126 339.382 130.126C338.654 130.126 338.001 129.963 337.422 129.636C336.853 129.309 336.405 128.847 336.078 128.25C335.752 127.643 335.588 126.943 335.588 126.15C335.588 125.357 335.747 124.661 336.064 124.064C336.382 123.467 336.825 123.009 337.394 122.692C337.973 122.365 338.636 122.202 339.382 122.202C340.11 122.202 340.754 122.361 341.314 122.678C341.874 122.995 342.304 123.434 342.602 123.994C342.91 124.545 343.064 125.17 343.064 125.87ZM341.748 125.604C341.748 125.119 341.641 124.703 341.426 124.358C341.212 124.003 340.918 123.737 340.544 123.56C340.18 123.373 339.774 123.28 339.326 123.28C338.682 123.28 338.132 123.485 337.674 123.896C337.226 124.307 336.97 124.876 336.904 125.604H341.748ZM347.602 128.824L349.982 122.328H351.34L348.33 130H346.846L343.836 122.328H345.208L347.602 128.824ZM355.31 130.126C354.722 130.126 354.194 130.028 353.728 129.832C353.261 129.627 352.892 129.347 352.622 128.992C352.351 128.628 352.202 128.213 352.174 127.746H353.49C353.527 128.129 353.704 128.441 354.022 128.684C354.348 128.927 354.773 129.048 355.296 129.048C355.781 129.048 356.164 128.941 356.444 128.726C356.724 128.511 356.864 128.241 356.864 127.914C356.864 127.578 356.714 127.331 356.416 127.172C356.117 127.004 355.655 126.841 355.03 126.682C354.46 126.533 353.994 126.383 353.63 126.234C353.275 126.075 352.967 125.847 352.706 125.548C352.454 125.24 352.328 124.839 352.328 124.344C352.328 123.952 352.444 123.593 352.678 123.266C352.911 122.939 353.242 122.683 353.672 122.496C354.101 122.3 354.591 122.202 355.142 122.202C355.991 122.202 356.677 122.417 357.2 122.846C357.722 123.275 358.002 123.863 358.04 124.61H356.766C356.738 124.209 356.574 123.887 356.276 123.644C355.986 123.401 355.594 123.28 355.1 123.28C354.642 123.28 354.278 123.378 354.008 123.574C353.737 123.77 353.602 124.027 353.602 124.344C353.602 124.596 353.681 124.806 353.84 124.974C354.008 125.133 354.213 125.263 354.456 125.366C354.708 125.459 355.053 125.567 355.492 125.688C356.042 125.837 356.49 125.987 356.836 126.136C357.181 126.276 357.475 126.491 357.718 126.78C357.97 127.069 358.1 127.447 358.11 127.914C358.11 128.334 357.993 128.712 357.76 129.048C357.526 129.384 357.195 129.65 356.766 129.846C356.346 130.033 355.86 130.126 355.31 130.126ZM370.921 125.422H367.939V128.446H366.749V125.422H363.781V124.344H366.749V121.306H367.939V124.344H370.921V125.422ZM382.698 127.83H378.442L377.658 130H376.314L379.842 120.298H381.312L384.826 130H383.482L382.698 127.83ZM382.334 126.794L380.57 121.866L378.806 126.794H382.334ZM387.637 123.574C387.861 123.135 388.178 122.795 388.589 122.552C389.009 122.309 389.518 122.188 390.115 122.188V123.504H389.779C388.351 123.504 387.637 124.279 387.637 125.828V130H386.363V122.328H387.637V123.574ZM391.11 126.15C391.11 125.357 391.268 124.666 391.586 124.078C391.903 123.481 392.342 123.019 392.902 122.692C393.471 122.365 394.12 122.202 394.848 122.202C395.79 122.202 396.565 122.431 397.172 122.888C397.788 123.345 398.194 123.98 398.39 124.792H397.018C396.887 124.325 396.63 123.957 396.248 123.686C395.874 123.415 395.408 123.28 394.848 123.28C394.12 123.28 393.532 123.532 393.084 124.036C392.636 124.531 392.412 125.235 392.412 126.15C392.412 127.074 392.636 127.788 393.084 128.292C393.532 128.796 394.12 129.048 394.848 129.048C395.408 129.048 395.874 128.917 396.248 128.656C396.621 128.395 396.878 128.021 397.018 127.536H398.39C398.184 128.32 397.774 128.95 397.158 129.426C396.542 129.893 395.772 130.126 394.848 130.126C394.12 130.126 393.471 129.963 392.902 129.636C392.342 129.309 391.903 128.847 391.586 128.25C391.268 127.653 391.11 126.953 391.11 126.15ZM403.898 122.188C404.476 122.188 404.999 122.314 405.466 122.566C405.932 122.809 406.296 123.177 406.558 123.672C406.828 124.167 406.964 124.769 406.964 125.478V130H405.704V125.66C405.704 124.895 405.512 124.311 405.13 123.91C404.747 123.499 404.224 123.294 403.562 123.294C402.89 123.294 402.353 123.504 401.952 123.924C401.56 124.344 401.364 124.955 401.364 125.758V130H400.09V119.64H401.364V123.42C401.616 123.028 401.961 122.725 402.4 122.51C402.848 122.295 403.347 122.188 403.898 122.188ZM409.703 121.082C409.46 121.082 409.255 120.998 409.087 120.83C408.919 120.662 408.835 120.457 408.835 120.214C408.835 119.971 408.919 119.766 409.087 119.598C409.255 119.43 409.46 119.346 409.703 119.346C409.936 119.346 410.132 119.43 410.291 119.598C410.459 119.766 410.543 119.971 410.543 120.214C410.543 120.457 410.459 120.662 410.291 120.83C410.132 120.998 409.936 121.082 409.703 121.082ZM410.319 122.328V130H409.045V122.328H410.319ZM414.044 123.378V127.9C414.044 128.273 414.123 128.539 414.282 128.698C414.441 128.847 414.716 128.922 415.108 128.922H416.046V130H414.898C414.189 130 413.657 129.837 413.302 129.51C412.947 129.183 412.77 128.647 412.77 127.9V123.378H411.776V122.328H412.77V120.396H414.044V122.328H416.046V123.378H414.044ZM424.59 125.87C424.59 126.113 424.576 126.369 424.548 126.64H418.416C418.462 127.396 418.719 127.989 419.186 128.418C419.662 128.838 420.236 129.048 420.908 129.048C421.458 129.048 421.916 128.922 422.28 128.67C422.653 128.409 422.914 128.063 423.064 127.634H424.436C424.23 128.371 423.82 128.973 423.204 129.44C422.588 129.897 421.822 130.126 420.908 130.126C420.18 130.126 419.526 129.963 418.948 129.636C418.378 129.309 417.93 128.847 417.604 128.25C417.277 127.643 417.114 126.943 417.114 126.15C417.114 125.357 417.272 124.661 417.59 124.064C417.907 123.467 418.35 123.009 418.92 122.692C419.498 122.365 420.161 122.202 420.908 122.202C421.636 122.202 422.28 122.361 422.84 122.678C423.4 122.995 423.829 123.434 424.128 123.994C424.436 124.545 424.59 125.17 424.59 125.87ZM423.274 125.604C423.274 125.119 423.166 124.703 422.952 124.358C422.737 124.003 422.443 123.737 422.07 123.56C421.706 123.373 421.3 123.28 420.852 123.28C420.208 123.28 419.657 123.485 419.2 123.896C418.752 124.307 418.495 124.876 418.43 125.604H423.274ZM425.795 126.15C425.795 125.357 425.954 124.666 426.271 124.078C426.589 123.481 427.027 123.019 427.587 122.692C428.157 122.365 428.805 122.202 429.533 122.202C430.476 122.202 431.251 122.431 431.857 122.888C432.473 123.345 432.879 123.98 433.075 124.792H431.703C431.573 124.325 431.316 123.957 430.933 123.686C430.56 123.415 430.093 123.28 429.533 123.28C428.805 123.28 428.217 123.532 427.769 124.036C427.321 124.531 427.097 125.235 427.097 126.15C427.097 127.074 427.321 127.788 427.769 128.292C428.217 128.796 428.805 129.048 429.533 129.048C430.093 129.048 430.56 128.917 430.933 128.656C431.307 128.395 431.563 128.021 431.703 127.536H433.075C432.87 128.32 432.459 128.95 431.843 129.426C431.227 129.893 430.457 130.126 429.533 130.126C428.805 130.126 428.157 129.963 427.587 129.636C427.027 129.309 426.589 128.847 426.271 128.25C425.954 127.653 425.795 126.953 425.795 126.15ZM436.329 123.378V127.9C436.329 128.273 436.409 128.539 436.567 128.698C436.726 128.847 437.001 128.922 437.393 128.922H438.331V130H437.183C436.474 130 435.942 129.837 435.587 129.51C435.233 129.183 435.055 128.647 435.055 127.9V123.378H434.061V122.328H435.055V120.396H436.329V122.328H438.331V123.378H436.329ZM442.591 130.126C442.003 130.126 441.476 130.028 441.009 129.832C440.542 129.627 440.174 129.347 439.903 128.992C439.632 128.628 439.483 128.213 439.455 127.746H440.771C440.808 128.129 440.986 128.441 441.303 128.684C441.63 128.927 442.054 129.048 442.577 129.048C443.062 129.048 443.445 128.941 443.725 128.726C444.005 128.511 444.145 128.241 444.145 127.914C444.145 127.578 443.996 127.331 443.697 127.172C443.398 127.004 442.936 126.841 442.311 126.682C441.742 126.533 441.275 126.383 440.911 126.234C440.556 126.075 440.248 125.847 439.987 125.548C439.735 125.24 439.609 124.839 439.609 124.344C439.609 123.952 439.726 123.593 439.959 123.266C440.192 122.939 440.524 122.683 440.953 122.496C441.382 122.3 441.872 122.202 442.423 122.202C443.272 122.202 443.958 122.417 444.481 122.846C445.004 123.275 445.284 123.863 445.321 124.61H444.047C444.019 124.209 443.856 123.887 443.557 123.644C443.268 123.401 442.876 123.28 442.381 123.28C441.924 123.28 441.56 123.378 441.289 123.574C441.018 123.77 440.883 124.027 440.883 124.344C440.883 124.596 440.962 124.806 441.121 124.974C441.289 125.133 441.494 125.263 441.737 125.366C441.989 125.459 442.334 125.567 442.773 125.688C443.324 125.837 443.772 125.987 444.117 126.136C444.462 126.276 444.756 126.491 444.999 126.78C445.251 127.069 445.382 127.447 445.391 127.914C445.391 128.334 445.274 128.712 445.041 129.048C444.808 129.384 444.476 129.65 444.047 129.846C443.627 130.033 443.142 130.126 442.591 130.126Z" fill="white"/>
<g filter="url(#filter0_d_361_309)">
<rect x="24" y="215" width="459" height="128" rx="16" fill="url(#paint1_linear_361_309)" shape-rendering="crispEdges"/>
<path d="M91.4736 304.85C91.4726 304.851 91.4718 304.853 91.4713 304.854C91.167 305.742 90.9443 306.531 90.6104 307.268C90.4859 307.54 90.0993 307.865 89.8241 307.872C87.9567 307.924 86.0892 307.881 84.2218 307.911C83.6943 307.921 83.4781 307.708 83.3372 307.232C83.3149 307.156 83.2919 307.08 83.2683 307.003C82.9115 305.852 81.552 305.305 80.4881 305.871C80.4164 305.909 80.3451 305.947 80.2739 305.986C79.8448 306.222 79.5401 306.236 79.1633 305.849C77.8692 304.508 76.5129 303.219 75.2319 301.868C75.0386 301.665 74.973 301.16 75.0812 300.888C75.1357 300.748 75.1942 300.61 75.2558 300.472C75.719 299.437 75.3102 298.102 74.1999 297.871V297.871C73.3153 297.688 73.0073 297.225 73.1384 296.363V296.363C73.2202 295.813 72.6583 295.373 72.1025 295.373H69.075C68.5712 295.373 68.1258 295.764 68.1258 296.268V296.268C68.1258 300.783 68.1323 305.298 68.1127 309.813C68.1127 310.386 68.2273 310.727 68.7875 311.039C70.2553 311.846 70.9302 313.596 70.5043 315.16C70.0489 316.836 68.5058 318.019 66.812 318C65.1477 317.98 63.6537 316.819 63.1951 315.187C62.756 313.619 63.4309 311.905 64.8758 311.039C65.2853 310.793 65.59 310.626 65.5867 310.036C65.5539 305.324 65.567 300.612 65.5638 295.901V295.901C65.5638 295.602 65.2854 295.379 64.9871 295.379H60.0743C58.9698 295.379 58.0715 296.275 58.0705 297.379C58.0697 298.36 58.0746 299.341 58.1038 300.321C58.1104 300.488 58.5035 300.685 58.7492 300.796C60.8034 301.737 62.0811 303.875 61.7961 305.931C61.4816 308.216 59.8566 309.95 57.6583 310.347C55.4567 310.747 53.3009 309.665 52.2525 307.636C50.9748 305.163 52.0985 302.022 54.6867 300.842V300.842C55.1473 300.631 55.4698 300.203 55.4698 299.697V282.245C55.4698 281.14 54.5743 280.245 53.4698 280.245H50C48.8954 280.245 48 279.349 48 278.245V272.215C48 271.11 48.8954 270.215 50 270.215H63.5015C64.6061 270.215 65.5015 271.11 65.5015 272.215V278.199C65.5015 279.303 64.6061 280.199 63.5015 280.199H60.1366C59.032 280.199 58.1366 281.094 58.1366 282.199V290.763C58.1366 291.868 59.032 292.763 60.1366 292.763H72.7422C72.8793 292.763 73.115 292.734 73.0925 292.599V292.599C72.7321 290.799 73.8526 290.238 75.3039 289.937V289.937C75.8152 289.828 76.0059 289.188 75.7644 288.725C75.5148 288.246 75.2773 287.776 75.0877 287.287C74.9829 287.015 75.0517 286.517 75.2417 286.314C76.526 284.96 77.879 283.674 79.1731 282.333C79.5433 281.953 79.8284 281.933 80.2707 282.186C80.3553 282.234 80.4406 282.281 80.5264 282.328C81.5657 282.889 82.9896 282.369 83.2422 281.215V281.215C83.4158 280.432 83.7893 280.094 84.5985 280.222V280.222C85.2002 280.314 85.6993 279.738 85.6993 279.129V274.72C85.6993 273.615 84.8039 272.72 83.6993 272.72H75.1678C74.0633 272.72 73.1678 271.824 73.1678 270.72V259.654C73.1678 258.549 72.2724 257.654 71.1678 257.654H60.0001C58.9564 257.654 58.1104 258.5 58.1104 259.544V261.805C58.1104 262.774 59.3426 263.188 59.9756 262.455V262.455C60.3814 261.984 61.0761 262.002 61.502 262.454C61.5538 262.509 61.6046 262.563 61.6544 262.616C62.1204 263.111 62.1052 263.887 61.6199 264.363C60.4712 265.489 59.3078 266.63 58.1459 267.768C57.3586 268.539 56.0957 268.527 55.3225 267.742C54.2174 266.619 53.0678 265.451 51.885 264.248C51.4154 263.77 51.2959 263.126 51.7924 262.676V262.676C52.2938 262.222 53.2154 262.156 53.6396 262.683C54.1 263.255 54.5669 263.834 55.0356 264.415C55.1251 264.526 55.2846 264.548 55.4002 264.464V264.464C55.4722 264.412 55.5156 264.329 55.5156 264.24V257.103C55.5156 255.998 56.4111 255.103 57.5156 255.103H71.158C72.2626 255.103 73.1593 254.208 73.1635 253.103C73.1682 251.819 73.1709 250.568 73.1449 249.316C73.1318 248.614 73.3153 248.103 73.8362 247.595C76.2278 245.267 78.567 242.88 80.9488 240.542C81.2208 240.273 81.6598 240.021 82.0234 240.021C88.1172 239.991 94.2109 240.001 100.308 240.004V240.004C100.6 240.004 100.812 240.29 100.812 240.583V253.057C100.812 254.162 101.708 255.057 102.812 255.057H116.448C117.553 255.057 118.448 255.953 118.448 257.057V264.235C118.448 264.308 118.485 264.377 118.545 264.419V264.419C118.638 264.484 118.765 264.464 118.836 264.376C119.286 263.811 119.738 263.245 120.208 262.656C120.696 262.046 121.73 262.139 122.261 262.712V262.712C122.731 263.218 122.595 263.878 122.104 264.363C120.93 265.519 119.758 266.673 118.593 267.821C117.811 268.593 116.553 268.589 115.775 267.814C114.642 266.685 113.485 265.532 112.319 264.369C111.836 263.888 111.763 263.18 112.248 262.7V262.7C112.75 262.204 113.64 262.156 114.109 262.684C114.598 263.233 115.09 263.787 115.582 264.341C115.636 264.402 115.728 264.415 115.797 264.371V264.371C115.845 264.341 115.873 264.289 115.873 264.233V259.664C115.873 258.559 114.978 257.664 113.873 257.664H102.865C101.76 257.664 100.865 258.559 100.865 259.664V270.694C100.865 271.798 99.9695 272.694 98.8649 272.694H90.317C89.2125 272.694 88.317 273.589 88.317 274.694V279.865C88.317 279.994 88.3563 280.205 88.4841 280.186V280.186C90.2893 279.818 90.8692 280.914 91.1608 282.386V282.386C91.2621 282.899 91.899 283.106 92.3708 282.881C92.5549 282.793 92.7361 282.706 92.9168 282.618C92.9919 282.582 93.0669 282.546 93.1425 282.509C93.9204 282.132 94.8532 282.288 95.4603 282.904C96.6055 284.065 97.7558 285.23 98.8828 286.419C99.0368 286.583 99.0532 287.015 98.9549 287.248C98.9011 287.375 98.845 287.502 98.7871 287.627C98.2977 288.691 98.7339 290.076 99.8788 290.32V290.32C100.678 290.491 100.986 290.884 100.865 291.681V291.681C100.775 292.256 101.33 292.734 101.912 292.734H113.883C114.988 292.734 115.883 291.838 115.883 290.734V282.261C115.883 281.156 114.988 280.261 113.883 280.261H110.515C109.41 280.261 108.515 279.366 108.515 278.261V272.241C108.515 271.137 109.41 270.241 110.515 270.241H124C125.105 270.241 126 271.137 126 272.241V278.209C126 279.313 125.105 280.209 124 280.209H120.53C119.426 280.209 118.53 281.104 118.53 282.209V299.252C118.53 299.848 118.795 300.414 119.273 300.77C120.055 301.354 120.814 301.879 121.341 302.576C123.107 304.921 122.331 308.18 119.798 309.724C117.439 311.164 114.137 310.262 112.823 307.822C111.434 305.242 112.453 302.065 115.143 300.875C115.814 300.576 115.991 300.239 115.968 299.573C115.946 298.849 115.943 298.124 115.946 297.389C115.95 296.285 115.06 295.389 113.955 295.389H109.492C108.913 295.389 108.443 295.859 108.443 296.439V296.439C108.443 300.855 108.453 305.272 108.433 309.688C108.433 310.321 108.528 310.721 109.177 311.075C110.625 311.865 111.264 313.685 110.805 315.229C110.32 316.859 108.806 318 107.145 317.99C105.527 317.98 104.04 316.865 103.538 315.288C103.053 313.754 103.669 311.937 105.104 311.104C105.746 310.734 105.907 310.341 105.904 309.649C105.871 305.265 105.887 300.881 105.887 296.498V296.498C105.887 295.88 105.387 295.379 104.769 295.379H101.215C101.096 295.379 100.899 295.413 100.917 295.53V295.53C101.288 297.442 100.069 297.989 98.5519 298.284C98.3914 298.314 98.2407 298.386 98.0867 298.445V298.445C97.9222 298.509 97.8762 298.726 97.9538 298.885C98.2709 299.533 98.581 300.193 98.9385 300.829C99.1941 301.278 99.1351 301.57 98.7649 301.924C97.4478 303.199 96.1439 304.488 94.876 305.809C94.4698 306.232 94.1487 306.213 93.6835 305.954C93.007 305.571 92.2948 305.25 91.4849 304.848C91.4811 304.847 91.4766 304.847 91.4736 304.85V304.85ZM75.7004 268.11C75.7004 269.215 76.5958 270.11 77.7004 270.11H96.28C97.3846 270.11 98.28 269.215 98.28 268.11V244.572C98.28 243.467 97.3846 242.572 96.28 242.572H85.2029C84.0983 242.572 83.2029 243.467 83.2029 244.572V248.116C83.2029 249.221 82.3074 250.116 81.2029 250.116H77.7004C76.5958 250.116 75.7004 251.011 75.7004 252.116V268.11ZM82.7245 301.944C82.7212 301.945 82.7225 301.95 82.7262 301.95C83.8085 301.976 84.4793 302.664 84.9196 303.97C85.4733 305.619 85.0146 305.399 86.9017 305.409C88.6119 305.419 88.7331 305.439 89.1099 303.773C89.467 302.193 91.0035 301.619 92.3075 302.393C93.8506 303.308 93.8538 303.153 95.2036 301.947C96.0456 301.193 96.1308 300.58 95.528 299.639C95.1643 299.068 94.7187 298.481 95.0365 297.573C95.4395 296.419 96.3765 296.304 97.2414 296.084C98.1326 295.858 98.4241 295.461 98.3881 294.53C98.3062 292.491 98.3619 292.488 96.406 291.835C95.0496 291.383 94.6205 290.356 95.2462 289.055C95.4461 288.642 95.7409 288.255 95.8359 287.822C95.908 287.484 95.7639 287.087 95.6623 286.733C95.623 286.596 95.4428 286.501 95.3281 286.383C93.8899 284.94 93.8833 284.927 92.0388 285.861C91.4917 286.137 91.0494 286.228 90.404 286.005C89.4211 285.668 89.2344 284.884 89.0935 284.123C88.8805 282.959 88.3007 282.635 87.1507 282.707C85.411 282.815 85.4176 282.737 84.8475 284.412C84.6444 285.002 84.5068 285.55 83.7991 285.933C82.6951 286.53 81.9677 285.871 81.1978 285.445C80.4541 285.032 79.9856 285.015 79.3632 285.681C77.9151 287.219 77.8758 287.179 78.7734 289.058C79.409 290.389 78.9536 291.415 77.5219 291.878C77.1484 291.999 76.7782 292.14 76.3949 292.219C75.8085 292.34 75.6381 292.661 75.6381 293.255C75.6283 295.586 75.6053 295.586 77.8004 296.402C78.9209 296.822 79.3599 297.881 78.8521 298.944C77.8856 300.967 77.9151 300.94 79.4418 302.557C79.9758 303.117 80.4017 303.186 81.0373 302.796C81.6172 302.442 82.2528 302.18 82.7245 301.944V301.944ZM52.4965 272.756C51.3919 272.756 50.4965 273.651 50.4965 274.756V275.694C50.4965 276.798 51.3919 277.694 52.4965 277.694H60.9821C62.0867 277.694 62.9821 276.798 62.9821 275.694V274.756C62.9821 273.651 62.0867 272.756 60.9821 272.756H52.4965ZM113.034 272.766C111.93 272.766 111.034 273.661 111.034 274.766V275.671C111.034 276.775 111.93 277.671 113.034 277.671H121.5C122.605 277.671 123.5 276.775 123.5 275.671V274.766C123.5 273.661 122.605 272.766 121.5 272.766H113.034ZM59.2751 305.39C59.276 305.39 59.2767 305.389 59.2767 305.388C59.2627 304.002 58.1688 302.927 56.7737 302.924C55.3846 302.924 54.2674 304.013 54.251 305.38C54.2346 306.78 55.3879 307.911 56.813 307.895C58.195 307.878 59.2889 306.768 59.2735 305.391C59.2734 305.39 59.2742 305.39 59.2751 305.39V305.39ZM119.751 305.411C119.752 305.41 119.752 305.408 119.752 305.407C119.751 304.047 118.638 302.94 117.256 302.927C115.854 302.914 114.749 303.973 114.727 305.363C114.704 306.79 115.821 307.908 117.256 307.898C118.631 307.888 119.748 306.775 119.749 305.415C119.749 305.413 119.75 305.412 119.751 305.411V305.411ZM79.7956 247.526C80.2712 247.526 80.6573 247.14 80.6573 246.665V246.665C80.6573 245.907 79.7764 245.493 79.2282 246.016V246.016C78.6656 246.552 79.0184 247.526 79.7956 247.526V247.526ZM68.1159 314.187C68.0995 313.537 67.4803 312.954 66.8218 312.97C66.16 312.987 65.567 313.6 65.5867 314.246C65.6064 314.878 66.255 315.498 66.8808 315.478C67.5098 315.459 68.1323 314.81 68.1159 314.183V314.187ZM108.42 314.252C108.446 313.606 107.856 312.993 107.191 312.97C106.533 312.947 105.91 313.531 105.891 314.18C105.874 314.81 106.487 315.459 107.119 315.478C107.745 315.498 108.397 314.885 108.42 314.252Z" fill="white" fill-opacity="0.95"/>
<rect x="347" y="225" width="112" height="32" rx="5" fill="#11172C" fill-opacity="0.5"/>
<path d="M359.172 246.098C358.528 246.098 357.949 245.986 357.436 245.762C356.932 245.529 356.535 245.211 356.246 244.81C355.957 244.399 355.807 243.928 355.798 243.396H357.156C357.203 243.853 357.389 244.241 357.716 244.558C358.052 244.866 358.537 245.02 359.172 245.02C359.779 245.02 360.255 244.871 360.6 244.572C360.955 244.264 361.132 243.872 361.132 243.396C361.132 243.023 361.029 242.719 360.824 242.486C360.619 242.253 360.362 242.075 360.054 241.954C359.746 241.833 359.331 241.702 358.808 241.562C358.164 241.394 357.646 241.226 357.254 241.058C356.871 240.89 356.54 240.629 356.26 240.274C355.989 239.91 355.854 239.425 355.854 238.818C355.854 238.286 355.989 237.815 356.26 237.404C356.531 236.993 356.909 236.676 357.394 236.452C357.889 236.228 358.453 236.116 359.088 236.116C360.003 236.116 360.749 236.345 361.328 236.802C361.916 237.259 362.247 237.866 362.322 238.622H360.922C360.875 238.249 360.679 237.922 360.334 237.642C359.989 237.353 359.531 237.208 358.962 237.208C358.43 237.208 357.996 237.348 357.66 237.628C357.324 237.899 357.156 238.281 357.156 238.776C357.156 239.131 357.254 239.42 357.45 239.644C357.655 239.868 357.903 240.041 358.192 240.162C358.491 240.274 358.906 240.405 359.438 240.554C360.082 240.731 360.6 240.909 360.992 241.086C361.384 241.254 361.72 241.52 362 241.884C362.28 242.239 362.42 242.724 362.42 243.34C362.42 243.816 362.294 244.264 362.042 244.684C361.79 245.104 361.417 245.445 360.922 245.706C360.427 245.967 359.844 246.098 359.172 246.098ZM369.433 246L367.109 242.01H365.569V246H364.295V236.242H367.445C368.182 236.242 368.803 236.368 369.307 236.62C369.82 236.872 370.203 237.213 370.455 237.642C370.707 238.071 370.833 238.561 370.833 239.112C370.833 239.784 370.637 240.377 370.245 240.89C369.862 241.403 369.283 241.744 368.509 241.912L370.959 246H369.433ZM365.569 240.988H367.445C368.135 240.988 368.653 240.82 368.999 240.484C369.344 240.139 369.517 239.681 369.517 239.112C369.517 238.533 369.344 238.085 368.999 237.768C368.663 237.451 368.145 237.292 367.445 237.292H365.569V240.988ZM374.086 237.278V240.54H377.642V241.59H374.086V244.95H378.062V246H372.812V236.228H378.062V237.278H374.086ZM391.003 241.422H388.021V244.446H386.831V241.422H383.863V240.344H386.831V237.306H388.021V240.344H391.003V241.422ZM400.05 236.242C401.114 236.242 402.033 236.443 402.808 236.844C403.592 237.236 404.189 237.801 404.6 238.538C405.02 239.275 405.23 240.143 405.23 241.142C405.23 242.141 405.02 243.009 404.6 243.746C404.189 244.474 403.592 245.034 402.808 245.426C402.033 245.809 401.114 246 400.05 246H397.012V236.242H400.05ZM400.05 244.95C401.31 244.95 402.271 244.619 402.934 243.956C403.596 243.284 403.928 242.346 403.928 241.142C403.928 239.929 403.592 238.981 402.92 238.3C402.257 237.619 401.3 237.278 400.05 237.278H398.286V244.95H400.05ZM413.91 241.87C413.91 242.113 413.896 242.369 413.868 242.64H407.736C407.783 243.396 408.039 243.989 408.506 244.418C408.982 244.838 409.556 245.048 410.228 245.048C410.779 245.048 411.236 244.922 411.6 244.67C411.973 244.409 412.235 244.063 412.384 243.634H413.756C413.551 244.371 413.14 244.973 412.524 245.44C411.908 245.897 411.143 246.126 410.228 246.126C409.5 246.126 408.847 245.963 408.268 245.636C407.699 245.309 407.251 244.847 406.924 244.25C406.597 243.643 406.434 242.943 406.434 242.15C406.434 241.357 406.593 240.661 406.91 240.064C407.227 239.467 407.671 239.009 408.24 238.692C408.819 238.365 409.481 238.202 410.228 238.202C410.956 238.202 411.6 238.361 412.16 238.678C412.72 238.995 413.149 239.434 413.448 239.994C413.756 240.545 413.91 241.17 413.91 241.87ZM412.594 241.604C412.594 241.119 412.487 240.703 412.272 240.358C412.057 240.003 411.763 239.737 411.39 239.56C411.026 239.373 410.62 239.28 410.172 239.28C409.528 239.28 408.977 239.485 408.52 239.896C408.072 240.307 407.815 240.876 407.75 241.604H412.594ZM418.448 244.824L420.828 238.328H422.186L419.176 246H417.692L414.682 238.328H416.054L418.448 244.824ZM427.863 246.098C426.958 246.098 426.132 245.888 425.385 245.468C424.639 245.039 424.046 244.446 423.607 243.69C423.178 242.925 422.963 242.066 422.963 241.114C422.963 240.162 423.178 239.308 423.607 238.552C424.046 237.787 424.639 237.194 425.385 236.774C426.132 236.345 426.958 236.13 427.863 236.13C428.778 236.13 429.609 236.345 430.355 236.774C431.102 237.194 431.69 237.782 432.119 238.538C432.549 239.294 432.763 240.153 432.763 241.114C432.763 242.075 432.549 242.934 432.119 243.69C431.69 244.446 431.102 245.039 430.355 245.468C429.609 245.888 428.778 246.098 427.863 246.098ZM427.863 244.992C428.545 244.992 429.156 244.833 429.697 244.516C430.248 244.199 430.677 243.746 430.985 243.158C431.303 242.57 431.461 241.889 431.461 241.114C431.461 240.33 431.303 239.649 430.985 239.07C430.677 238.482 430.253 238.029 429.711 237.712C429.17 237.395 428.554 237.236 427.863 237.236C427.173 237.236 426.557 237.395 426.015 237.712C425.474 238.029 425.045 238.482 424.727 239.07C424.419 239.649 424.265 240.33 424.265 241.114C424.265 241.889 424.419 242.57 424.727 243.158C425.045 243.746 425.474 244.199 426.015 244.516C426.566 244.833 427.182 244.992 427.863 244.992ZM435.719 239.742C435.971 239.303 436.345 238.939 436.839 238.65C437.343 238.351 437.927 238.202 438.589 238.202C439.271 238.202 439.887 238.365 440.437 238.692C440.997 239.019 441.436 239.481 441.753 240.078C442.071 240.666 442.229 241.352 442.229 242.136C442.229 242.911 442.071 243.601 441.753 244.208C441.436 244.815 440.997 245.286 440.437 245.622C439.887 245.958 439.271 246.126 438.589 246.126C437.936 246.126 437.357 245.981 436.853 245.692C436.359 245.393 435.981 245.025 435.719 244.586V249.64H434.445V238.328H435.719V239.742ZM440.927 242.136C440.927 241.557 440.811 241.053 440.577 240.624C440.344 240.195 440.027 239.868 439.625 239.644C439.233 239.42 438.799 239.308 438.323 239.308C437.857 239.308 437.423 239.425 437.021 239.658C436.629 239.882 436.312 240.213 436.069 240.652C435.836 241.081 435.719 241.581 435.719 242.15C435.719 242.729 435.836 243.237 436.069 243.676C436.312 244.105 436.629 244.437 437.021 244.67C437.423 244.894 437.857 245.006 438.323 245.006C438.799 245.006 439.233 244.894 439.625 244.67C440.027 244.437 440.344 244.105 440.577 243.676C440.811 243.237 440.927 242.724 440.927 242.136ZM446.622 246.126C446.034 246.126 445.507 246.028 445.04 245.832C444.573 245.627 444.205 245.347 443.934 244.992C443.663 244.628 443.514 244.213 443.486 243.746H444.802C444.839 244.129 445.017 244.441 445.334 244.684C445.661 244.927 446.085 245.048 446.608 245.048C447.093 245.048 447.476 244.941 447.756 244.726C448.036 244.511 448.176 244.241 448.176 243.914C448.176 243.578 448.027 243.331 447.728 243.172C447.429 243.004 446.967 242.841 446.342 242.682C445.773 242.533 445.306 242.383 444.942 242.234C444.587 242.075 444.279 241.847 444.018 241.548C443.766 241.24 443.64 240.839 443.64 240.344C443.64 239.952 443.757 239.593 443.99 239.266C444.223 238.939 444.555 238.683 444.984 238.496C445.413 238.3 445.903 238.202 446.454 238.202C447.303 238.202 447.989 238.417 448.512 238.846C449.035 239.275 449.315 239.863 449.352 240.61H448.078C448.05 240.209 447.887 239.887 447.588 239.644C447.299 239.401 446.907 239.28 446.412 239.28C445.955 239.28 445.591 239.378 445.32 239.574C445.049 239.77 444.914 240.027 444.914 240.344C444.914 240.596 444.993 240.806 445.152 240.974C445.32 241.133 445.525 241.263 445.768 241.366C446.02 241.459 446.365 241.567 446.804 241.688C447.355 241.837 447.803 241.987 448.148 242.136C448.493 242.276 448.787 242.491 449.03 242.78C449.282 243.069 449.413 243.447 449.422 243.914C449.422 244.334 449.305 244.712 449.072 245.048C448.839 245.384 448.507 245.65 448.078 245.846C447.658 246.033 447.173 246.126 446.622 246.126Z" fill="white"/>
<path d="M356.165 274.986C356.165 275.994 355.922 276.939 355.436 277.821C354.968 278.703 354.221 279.414 353.195 279.954C352.187 280.494 350.909 280.764 349.361 280.764H346.202V288H342.422V269.154H349.361C350.819 269.154 352.061 269.406 353.087 269.91C354.113 270.414 354.878 271.107 355.382 271.989C355.904 272.871 356.165 273.87 356.165 274.986ZM349.199 277.713C350.243 277.713 351.017 277.479 351.521 277.011C352.025 276.525 352.277 275.85 352.277 274.986C352.277 273.15 351.251 272.232 349.199 272.232H346.202V277.713H349.199ZM362.628 268.02V288H358.848V268.02H362.628ZM365.391 280.467C365.391 278.955 365.688 277.614 366.282 276.444C366.894 275.274 367.713 274.374 368.739 273.744C369.783 273.114 370.944 272.799 372.222 272.799C373.338 272.799 374.31 273.024 375.138 273.474C375.984 273.924 376.659 274.491 377.163 275.175V273.042H380.97V288H377.163V285.813C376.677 286.515 376.002 287.1 375.138 287.568C374.292 288.018 373.311 288.243 372.195 288.243C370.935 288.243 369.783 287.919 368.739 287.271C367.713 286.623 366.894 285.714 366.282 284.544C365.688 283.356 365.391 281.997 365.391 280.467ZM377.163 280.521C377.163 279.603 376.983 278.82 376.623 278.172C376.263 277.506 375.777 277.002 375.165 276.66C374.553 276.3 373.896 276.12 373.194 276.12C372.492 276.12 371.844 276.291 371.25 276.633C370.656 276.975 370.17 277.479 369.792 278.145C369.432 278.793 369.252 279.567 369.252 280.467C369.252 281.367 369.432 282.159 369.792 282.843C370.17 283.509 370.656 284.022 371.25 284.382C371.862 284.742 372.51 284.922 373.194 284.922C373.896 284.922 374.553 284.751 375.165 284.409C375.777 284.049 376.263 283.545 376.623 282.897C376.983 282.231 377.163 281.439 377.163 280.521ZM389.063 276.147V283.383C389.063 283.887 389.18 284.256 389.414 284.49C389.666 284.706 390.08 284.814 390.656 284.814H392.411V288H390.035C386.849 288 385.256 286.452 385.256 283.356V276.147H383.474V273.042H385.256V269.343H389.063V273.042H392.411V276.147H389.063ZM401.988 276.147H399.369V288H395.535V276.147H393.834V273.042H395.535V272.286C395.535 270.45 396.057 269.1 397.101 268.236C398.145 267.372 399.72 266.967 401.826 267.021V270.207C400.908 270.189 400.269 270.342 399.909 270.666C399.549 270.99 399.369 271.575 399.369 272.421V273.042H401.988V276.147ZM411.079 288.243C409.639 288.243 408.343 287.928 407.191 287.298C406.039 286.65 405.13 285.741 404.464 284.571C403.816 283.401 403.492 282.051 403.492 280.521C403.492 278.991 403.825 277.641 404.491 276.471C405.175 275.301 406.102 274.401 407.272 273.771C408.442 273.123 409.747 272.799 411.187 272.799C412.627 272.799 413.932 273.123 415.102 273.771C416.272 274.401 417.19 275.301 417.856 276.471C418.54 277.641 418.882 278.991 418.882 280.521C418.882 282.051 418.531 283.401 417.829 284.571C417.145 285.741 416.209 286.65 415.021 287.298C413.851 287.928 412.537 288.243 411.079 288.243ZM411.079 284.949C411.763 284.949 412.402 284.787 412.996 284.463C413.608 284.121 414.094 283.617 414.454 282.951C414.814 282.285 414.994 281.475 414.994 280.521C414.994 279.099 414.616 278.01 413.86 277.254C413.122 276.48 412.213 276.093 411.133 276.093C410.053 276.093 409.144 276.48 408.406 277.254C407.686 278.01 407.326 279.099 407.326 280.521C407.326 281.943 407.677 283.041 408.379 283.815C409.099 284.571 409.999 284.949 411.079 284.949ZM425.435 275.364C425.921 274.572 426.551 273.951 427.325 273.501C428.117 273.051 429.017 272.826 430.025 272.826V276.795H429.026C427.838 276.795 426.938 277.074 426.326 277.632C425.732 278.19 425.435 279.162 425.435 280.548V288H421.655V273.042H425.435V275.364ZM451.147 272.826C452.983 272.826 454.459 273.393 455.575 274.527C456.709 275.643 457.276 277.209 457.276 279.225V288H453.496V279.738C453.496 278.568 453.199 277.677 452.605 277.065C452.011 276.435 451.201 276.12 450.175 276.12C449.149 276.12 448.33 276.435 447.718 277.065C447.124 277.677 446.827 278.568 446.827 279.738V288H443.047V279.738C443.047 278.568 442.75 277.677 442.156 277.065C441.562 276.435 440.752 276.12 439.726 276.12C438.682 276.12 437.854 276.435 437.242 277.065C436.648 277.677 436.351 278.568 436.351 279.738V288H432.571V273.042H436.351V274.851C436.837 274.221 437.458 273.726 438.214 273.366C438.988 273.006 439.834 272.826 440.752 272.826C441.922 272.826 442.966 273.078 443.884 273.582C444.802 274.068 445.513 274.77 446.017 275.688C446.503 274.824 447.205 274.131 448.123 273.609C449.059 273.087 450.067 272.826 451.147 272.826Z" fill="white"/>
<rect x="224" y="301" width="235" height="32" rx="5" fill="#11172C" fill-opacity="0.5"/>
<path d="M239.602 315.098C239.602 315.91 239.322 316.587 238.762 317.128C238.211 317.66 237.367 317.926 236.228 317.926H234.352V322H233.078V312.242H236.228C237.329 312.242 238.165 312.508 238.734 313.04C239.313 313.572 239.602 314.258 239.602 315.098ZM236.228 316.876C236.937 316.876 237.46 316.722 237.796 316.414C238.132 316.106 238.3 315.667 238.3 315.098C238.3 313.894 237.609 313.292 236.228 313.292H234.352V316.876H236.228ZM242.459 311.64V322H241.185V311.64H242.459ZM244.155 318.136C244.155 317.352 244.313 316.666 244.631 316.078C244.948 315.481 245.382 315.019 245.933 314.692C246.493 314.365 247.113 314.202 247.795 314.202C248.467 314.202 249.05 314.347 249.545 314.636C250.039 314.925 250.408 315.289 250.651 315.728V314.328H251.939V322H250.651V320.572C250.399 321.02 250.021 321.393 249.517 321.692C249.022 321.981 248.443 322.126 247.781 322.126C247.099 322.126 246.483 321.958 245.933 321.622C245.382 321.286 244.948 320.815 244.631 320.208C244.313 319.601 244.155 318.911 244.155 318.136ZM250.651 318.15C250.651 317.571 250.534 317.067 250.301 316.638C250.067 316.209 249.75 315.882 249.349 315.658C248.957 315.425 248.523 315.308 248.047 315.308C247.571 315.308 247.137 315.42 246.745 315.644C246.353 315.868 246.04 316.195 245.807 316.624C245.573 317.053 245.457 317.557 245.457 318.136C245.457 318.724 245.573 319.237 245.807 319.676C246.04 320.105 246.353 320.437 246.745 320.67C247.137 320.894 247.571 321.006 248.047 321.006C248.523 321.006 248.957 320.894 249.349 320.67C249.75 320.437 250.067 320.105 250.301 319.676C250.534 319.237 250.651 318.729 250.651 318.15ZM255.646 315.378V319.9C255.646 320.273 255.725 320.539 255.884 320.698C256.042 320.847 256.318 320.922 256.71 320.922H257.648V322H256.5C255.79 322 255.258 321.837 254.904 321.51C254.549 321.183 254.372 320.647 254.372 319.9V315.378H253.378V314.328H254.372V312.396H255.646V314.328H257.648V315.378H255.646ZM262.313 315.378H260.703V322H259.429V315.378H258.435V314.328H259.429V313.782C259.429 312.923 259.649 312.298 260.087 311.906C260.535 311.505 261.249 311.304 262.229 311.304V312.368C261.669 312.368 261.273 312.48 261.039 312.704C260.815 312.919 260.703 313.278 260.703 313.782V314.328H262.313V315.378ZM267.145 322.126C266.426 322.126 265.773 321.963 265.185 321.636C264.606 321.309 264.149 320.847 263.813 320.25C263.486 319.643 263.323 318.943 263.323 318.15C263.323 317.366 263.491 316.675 263.827 316.078C264.172 315.471 264.639 315.009 265.227 314.692C265.815 314.365 266.473 314.202 267.201 314.202C267.929 314.202 268.587 314.365 269.175 314.692C269.763 315.009 270.225 315.467 270.561 316.064C270.906 316.661 271.079 317.357 271.079 318.15C271.079 318.943 270.901 319.643 270.547 320.25C270.201 320.847 269.73 321.309 269.133 321.636C268.535 321.963 267.873 322.126 267.145 322.126ZM267.145 321.006C267.602 321.006 268.031 320.899 268.433 320.684C268.834 320.469 269.156 320.147 269.399 319.718C269.651 319.289 269.777 318.766 269.777 318.15C269.777 317.534 269.655 317.011 269.413 316.582C269.17 316.153 268.853 315.835 268.461 315.63C268.069 315.415 267.644 315.308 267.187 315.308C266.72 315.308 266.291 315.415 265.899 315.63C265.516 315.835 265.208 316.153 264.975 316.582C264.741 317.011 264.625 317.534 264.625 318.15C264.625 318.775 264.737 319.303 264.961 319.732C265.194 320.161 265.502 320.483 265.885 320.698C266.267 320.903 266.687 321.006 267.145 321.006ZM274.028 315.574C274.252 315.135 274.569 314.795 274.98 314.552C275.4 314.309 275.908 314.188 276.506 314.188V315.504H276.17C274.742 315.504 274.028 316.279 274.028 317.828V322H272.754V314.328H274.028V315.574ZM287.202 314.188C287.8 314.188 288.332 314.314 288.798 314.566C289.265 314.809 289.634 315.177 289.904 315.672C290.175 316.167 290.31 316.769 290.31 317.478V322H289.05V317.66C289.05 316.895 288.859 316.311 288.476 315.91C288.103 315.499 287.594 315.294 286.95 315.294C286.288 315.294 285.76 315.509 285.368 315.938C284.976 316.358 284.78 316.969 284.78 317.772V322H283.52V317.66C283.52 316.895 283.329 316.311 282.946 315.91C282.573 315.499 282.064 315.294 281.42 315.294C280.758 315.294 280.23 315.509 279.838 315.938C279.446 316.358 279.25 316.969 279.25 317.772V322H277.976V314.328H279.25V315.434C279.502 315.033 279.838 314.725 280.258 314.51C280.688 314.295 281.159 314.188 281.672 314.188C282.316 314.188 282.886 314.333 283.38 314.622C283.875 314.911 284.244 315.336 284.486 315.896C284.701 315.355 285.056 314.935 285.55 314.636C286.045 314.337 286.596 314.188 287.202 314.188ZM297.407 313.278V316.54H300.963V317.59H297.407V320.95H301.383V322H296.133V312.228H301.383V313.278H297.407ZM307.048 314.188C307.982 314.188 308.738 314.473 309.316 315.042C309.895 315.602 310.184 316.414 310.184 317.478V322H308.924V317.66C308.924 316.895 308.733 316.311 308.35 315.91C307.968 315.499 307.445 315.294 306.782 315.294C306.11 315.294 305.574 315.504 305.172 315.924C304.78 316.344 304.584 316.955 304.584 317.758V322H303.31V314.328H304.584V315.42C304.836 315.028 305.177 314.725 305.606 314.51C306.045 314.295 306.526 314.188 307.048 314.188ZM315.43 314.202C316.092 314.202 316.671 314.347 317.166 314.636C317.67 314.925 318.043 315.289 318.286 315.728V314.328H319.574V322.168C319.574 322.868 319.424 323.489 319.126 324.03C318.827 324.581 318.398 325.01 317.838 325.318C317.287 325.626 316.643 325.78 315.906 325.78C314.898 325.78 314.058 325.542 313.386 325.066C312.714 324.59 312.317 323.941 312.196 323.12H313.456C313.596 323.587 313.885 323.96 314.324 324.24C314.762 324.529 315.29 324.674 315.906 324.674C316.606 324.674 317.175 324.455 317.614 324.016C318.062 323.577 318.286 322.961 318.286 322.168V320.558C318.034 321.006 317.66 321.379 317.166 321.678C316.671 321.977 316.092 322.126 315.43 322.126C314.748 322.126 314.128 321.958 313.568 321.622C313.017 321.286 312.583 320.815 312.266 320.208C311.948 319.601 311.79 318.911 311.79 318.136C311.79 317.352 311.948 316.666 312.266 316.078C312.583 315.481 313.017 315.019 313.568 314.692C314.128 314.365 314.748 314.202 315.43 314.202ZM318.286 318.15C318.286 317.571 318.169 317.067 317.936 316.638C317.702 316.209 317.385 315.882 316.984 315.658C316.592 315.425 316.158 315.308 315.682 315.308C315.206 315.308 314.772 315.42 314.38 315.644C313.988 315.868 313.675 316.195 313.442 316.624C313.208 317.053 313.092 317.557 313.092 318.136C313.092 318.724 313.208 319.237 313.442 319.676C313.675 320.105 313.988 320.437 314.38 320.67C314.772 320.894 315.206 321.006 315.682 321.006C316.158 321.006 316.592 320.894 316.984 320.67C317.385 320.437 317.702 320.105 317.936 319.676C318.169 319.237 318.286 318.729 318.286 318.15ZM322.384 313.082C322.142 313.082 321.936 312.998 321.768 312.83C321.6 312.662 321.516 312.457 321.516 312.214C321.516 311.971 321.6 311.766 321.768 311.598C321.936 311.43 322.142 311.346 322.384 311.346C322.618 311.346 322.814 311.43 322.972 311.598C323.14 311.766 323.224 311.971 323.224 312.214C323.224 312.457 323.14 312.662 322.972 312.83C322.814 312.998 322.618 313.082 322.384 313.082ZM323 314.328V322H321.726V314.328H323ZM328.91 314.188C329.843 314.188 330.599 314.473 331.178 315.042C331.756 315.602 332.046 316.414 332.046 317.478V322H330.786V317.66C330.786 316.895 330.594 316.311 330.212 315.91C329.829 315.499 329.306 315.294 328.644 315.294C327.972 315.294 327.435 315.504 327.034 315.924C326.642 316.344 326.446 316.955 326.446 317.758V322H325.172V314.328H326.446V315.42C326.698 315.028 327.038 314.725 327.468 314.51C327.906 314.295 328.387 314.188 328.91 314.188ZM341.127 317.87C341.127 318.113 341.113 318.369 341.085 318.64H334.953C334.999 319.396 335.256 319.989 335.723 320.418C336.199 320.838 336.773 321.048 337.445 321.048C337.995 321.048 338.453 320.922 338.817 320.67C339.19 320.409 339.451 320.063 339.601 319.634H340.973C340.767 320.371 340.357 320.973 339.741 321.44C339.125 321.897 338.359 322.126 337.445 322.126C336.717 322.126 336.063 321.963 335.485 321.636C334.915 321.309 334.467 320.847 334.141 320.25C333.814 319.643 333.651 318.943 333.651 318.15C333.651 317.357 333.809 316.661 334.127 316.064C334.444 315.467 334.887 315.009 335.457 314.692C336.035 314.365 336.698 314.202 337.445 314.202C338.173 314.202 338.817 314.361 339.377 314.678C339.937 314.995 340.366 315.434 340.665 315.994C340.973 316.545 341.127 317.17 341.127 317.87ZM339.811 317.604C339.811 317.119 339.703 316.703 339.489 316.358C339.274 316.003 338.98 315.737 338.607 315.56C338.243 315.373 337.837 315.28 337.389 315.28C336.745 315.28 336.194 315.485 335.737 315.896C335.289 316.307 335.032 316.876 334.967 317.604H339.811ZM349.808 317.87C349.808 318.113 349.794 318.369 349.766 318.64H343.634C343.681 319.396 343.938 319.989 344.404 320.418C344.88 320.838 345.454 321.048 346.126 321.048C346.677 321.048 347.134 320.922 347.498 320.67C347.872 320.409 348.133 320.063 348.282 319.634H349.654C349.449 320.371 349.038 320.973 348.422 321.44C347.806 321.897 347.041 322.126 346.126 322.126C345.398 322.126 344.745 321.963 344.166 321.636C343.597 321.309 343.149 320.847 342.822 320.25C342.496 319.643 342.332 318.943 342.332 318.15C342.332 317.357 342.491 316.661 342.808 316.064C343.126 315.467 343.569 315.009 344.138 314.692C344.717 314.365 345.38 314.202 346.126 314.202C346.854 314.202 347.498 314.361 348.058 314.678C348.618 314.995 349.048 315.434 349.346 315.994C349.654 316.545 349.808 317.17 349.808 317.87ZM348.492 317.604C348.492 317.119 348.385 316.703 348.17 316.358C347.956 316.003 347.662 315.737 347.288 315.56C346.924 315.373 346.518 315.28 346.07 315.28C345.426 315.28 344.876 315.485 344.418 315.896C343.97 316.307 343.714 316.876 343.648 317.604H348.492ZM352.764 315.574C352.988 315.135 353.305 314.795 353.716 314.552C354.136 314.309 354.645 314.188 355.242 314.188V315.504H354.906C353.478 315.504 352.764 316.279 352.764 317.828V322H351.49V314.328H352.764V315.574ZM359.429 322.126C358.841 322.126 358.313 322.028 357.847 321.832C357.38 321.627 357.011 321.347 356.741 320.992C356.47 320.628 356.321 320.213 356.293 319.746H357.609C357.646 320.129 357.823 320.441 358.141 320.684C358.467 320.927 358.892 321.048 359.415 321.048C359.9 321.048 360.283 320.941 360.563 320.726C360.843 320.511 360.983 320.241 360.983 319.914C360.983 319.578 360.833 319.331 360.535 319.172C360.236 319.004 359.774 318.841 359.149 318.682C358.579 318.533 358.113 318.383 357.749 318.234C357.394 318.075 357.086 317.847 356.825 317.548C356.573 317.24 356.447 316.839 356.447 316.344C356.447 315.952 356.563 315.593 356.797 315.266C357.03 314.939 357.361 314.683 357.791 314.496C358.22 314.3 358.71 314.202 359.261 314.202C360.11 314.202 360.796 314.417 361.319 314.846C361.841 315.275 362.121 315.863 362.159 316.61H360.885C360.857 316.209 360.693 315.887 360.395 315.644C360.105 315.401 359.713 315.28 359.219 315.28C358.761 315.28 358.397 315.378 358.127 315.574C357.856 315.77 357.721 316.027 357.721 316.344C357.721 316.596 357.8 316.806 357.959 316.974C358.127 317.133 358.332 317.263 358.575 317.366C358.827 317.459 359.172 317.567 359.611 317.688C360.161 317.837 360.609 317.987 360.955 318.136C361.3 318.276 361.594 318.491 361.837 318.78C362.089 319.069 362.219 319.447 362.229 319.914C362.229 320.334 362.112 320.712 361.879 321.048C361.645 321.384 361.314 321.65 360.885 321.846C360.465 322.033 359.979 322.126 359.429 322.126ZM375.04 317.422H372.058V320.446H370.868V317.422H367.9V316.344H370.868V313.306H372.058V316.344H375.04V317.422ZM386.817 319.83H382.561L381.777 322H380.433L383.961 312.298H385.431L388.945 322H387.601L386.817 319.83ZM386.453 318.794L384.689 313.866L382.925 318.794H386.453ZM391.756 315.574C391.98 315.135 392.298 314.795 392.708 314.552C393.128 314.309 393.637 314.188 394.234 314.188V315.504H393.898C392.47 315.504 391.756 316.279 391.756 317.828V322H390.482V314.328H391.756V315.574ZM395.229 318.15C395.229 317.357 395.388 316.666 395.705 316.078C396.022 315.481 396.461 315.019 397.021 314.692C397.59 314.365 398.239 314.202 398.967 314.202C399.91 314.202 400.684 314.431 401.291 314.888C401.907 315.345 402.313 315.98 402.509 316.792H401.137C401.006 316.325 400.75 315.957 400.367 315.686C399.994 315.415 399.527 315.28 398.967 315.28C398.239 315.28 397.651 315.532 397.203 316.036C396.755 316.531 396.531 317.235 396.531 318.15C396.531 319.074 396.755 319.788 397.203 320.292C397.651 320.796 398.239 321.048 398.967 321.048C399.527 321.048 399.994 320.917 400.367 320.656C400.74 320.395 400.997 320.021 401.137 319.536H402.509C402.304 320.32 401.893 320.95 401.277 321.426C400.661 321.893 399.891 322.126 398.967 322.126C398.239 322.126 397.59 321.963 397.021 321.636C396.461 321.309 396.022 320.847 395.705 320.25C395.388 319.653 395.229 318.953 395.229 318.15ZM408.017 314.188C408.596 314.188 409.118 314.314 409.585 314.566C410.052 314.809 410.416 315.177 410.677 315.672C410.948 316.167 411.083 316.769 411.083 317.478V322H409.823V317.66C409.823 316.895 409.632 316.311 409.249 315.91C408.866 315.499 408.344 315.294 407.681 315.294C407.009 315.294 406.472 315.504 406.071 315.924C405.679 316.344 405.483 316.955 405.483 317.758V322H404.209V311.64H405.483V315.42C405.735 315.028 406.08 314.725 406.519 314.51C406.967 314.295 407.466 314.188 408.017 314.188ZM413.822 313.082C413.579 313.082 413.374 312.998 413.206 312.83C413.038 312.662 412.954 312.457 412.954 312.214C412.954 311.971 413.038 311.766 413.206 311.598C413.374 311.43 413.579 311.346 413.822 311.346C414.055 311.346 414.251 311.43 414.41 311.598C414.578 311.766 414.662 311.971 414.662 312.214C414.662 312.457 414.578 312.662 414.41 312.83C414.251 312.998 414.055 313.082 413.822 313.082ZM414.438 314.328V322H413.164V314.328H414.438ZM418.163 315.378V319.9C418.163 320.273 418.243 320.539 418.401 320.698C418.56 320.847 418.835 320.922 419.227 320.922H420.165V322H419.017C418.308 322 417.776 321.837 417.421 321.51C417.067 321.183 416.889 320.647 416.889 319.9V315.378H415.895V314.328H416.889V312.396H418.163V314.328H420.165V315.378H418.163ZM428.709 317.87C428.709 318.113 428.695 318.369 428.667 318.64H422.535C422.582 319.396 422.838 319.989 423.305 320.418C423.781 320.838 424.355 321.048 425.027 321.048C425.578 321.048 426.035 320.922 426.399 320.67C426.772 320.409 427.034 320.063 427.183 319.634H428.555C428.35 320.371 427.939 320.973 427.323 321.44C426.707 321.897 425.942 322.126 425.027 322.126C424.299 322.126 423.646 321.963 423.067 321.636C422.498 321.309 422.05 320.847 421.723 320.25C421.396 319.643 421.233 318.943 421.233 318.15C421.233 317.357 421.392 316.661 421.709 316.064C422.026 315.467 422.47 315.009 423.039 314.692C423.618 314.365 424.28 314.202 425.027 314.202C425.755 314.202 426.399 314.361 426.959 314.678C427.519 314.995 427.948 315.434 428.247 315.994C428.555 316.545 428.709 317.17 428.709 317.87ZM427.393 317.604C427.393 317.119 427.286 316.703 427.071 316.358C426.856 316.003 426.562 315.737 426.189 315.56C425.825 315.373 425.419 315.28 424.971 315.28C424.327 315.28 423.776 315.485 423.319 315.896C422.871 316.307 422.614 316.876 422.549 317.604H427.393ZM429.915 318.15C429.915 317.357 430.073 316.666 430.391 316.078C430.708 315.481 431.147 315.019 431.707 314.692C432.276 314.365 432.925 314.202 433.653 314.202C434.595 314.202 435.37 314.431 435.977 314.888C436.593 315.345 436.999 315.98 437.195 316.792H435.823C435.692 316.325 435.435 315.957 435.053 315.686C434.679 315.415 434.213 315.28 433.653 315.28C432.925 315.28 432.337 315.532 431.889 316.036C431.441 316.531 431.217 317.235 431.217 318.15C431.217 319.074 431.441 319.788 431.889 320.292C432.337 320.796 432.925 321.048 433.653 321.048C434.213 321.048 434.679 320.917 435.053 320.656C435.426 320.395 435.683 320.021 435.823 319.536H437.195C436.989 320.32 436.579 320.95 435.963 321.426C435.347 321.893 434.577 322.126 433.653 322.126C432.925 322.126 432.276 321.963 431.707 321.636C431.147 321.309 430.708 320.847 430.391 320.25C430.073 319.653 429.915 318.953 429.915 318.15ZM440.448 315.378V319.9C440.448 320.273 440.528 320.539 440.686 320.698C440.845 320.847 441.12 320.922 441.512 320.922H442.45V322H441.302C440.593 322 440.061 321.837 439.706 321.51C439.352 321.183 439.174 320.647 439.174 319.9V315.378H438.18V314.328H439.174V312.396H440.448V314.328H442.45V315.378H440.448ZM446.71 322.126C446.122 322.126 445.595 322.028 445.128 321.832C444.661 321.627 444.293 321.347 444.022 320.992C443.751 320.628 443.602 320.213 443.574 319.746H444.89C444.927 320.129 445.105 320.441 445.422 320.684C445.749 320.927 446.173 321.048 446.696 321.048C447.181 321.048 447.564 320.941 447.844 320.726C448.124 320.511 448.264 320.241 448.264 319.914C448.264 319.578 448.115 319.331 447.816 319.172C447.517 319.004 447.055 318.841 446.43 318.682C445.861 318.533 445.394 318.383 445.03 318.234C444.675 318.075 444.367 317.847 444.106 317.548C443.854 317.24 443.728 316.839 443.728 316.344C443.728 315.952 443.845 315.593 444.078 315.266C444.311 314.939 444.643 314.683 445.072 314.496C445.501 314.3 445.991 314.202 446.542 314.202C447.391 314.202 448.077 314.417 448.6 314.846C449.123 315.275 449.403 315.863 449.44 316.61H448.166C448.138 316.209 447.975 315.887 447.676 315.644C447.387 315.401 446.995 315.28 446.5 315.28C446.043 315.28 445.679 315.378 445.408 315.574C445.137 315.77 445.002 316.027 445.002 316.344C445.002 316.596 445.081 316.806 445.24 316.974C445.408 317.133 445.613 317.263 445.856 317.366C446.108 317.459 446.453 317.567 446.892 317.688C447.443 317.837 447.891 317.987 448.236 318.136C448.581 318.276 448.875 318.491 449.118 318.78C449.37 319.069 449.501 319.447 449.51 319.914C449.51 320.334 449.393 320.712 449.16 321.048C448.927 321.384 448.595 321.65 448.166 321.846C447.746 322.033 447.261 322.126 446.71 322.126Z" fill="white"/>
</g>
<defs>
<filter id="filter0_d_361_309" x="0" y="200" width="507" height="176" filterUnits="userSpaceOnUse" color-interpolation-filters="sRGB">
<feFlood flood-opacity="0" result="BackgroundImageFix"/>
<feColorMatrix in="SourceAlpha" type="matrix" values="0 0 0 0 0 0 0 0 0 0 0 0 0 0 0 0 0 0 127 0" result="hardAlpha"/>
<feOffset dy="9"/>
<feGaussianBlur stdDeviation="12"/>
<feComposite in2="hardAlpha" operator="out"/>
<feColorMatrix type="matrix" values="0 0 0 0 0.0431373 0 0 0 0 0.286275 0 0 0 0 0.576471 0 0 0 0.5 0"/>
<feBlend mode="normal" in2="BackgroundImageFix" result="effect1_dropShadow_361_309"/>
<feBlend mode="normal" in="SourceGraphic" in2="effect1_dropShadow_361_309" result="shape"/>
</filter>
<linearGradient id="paint0_linear_361_309" x1="438.375" y1="48.5172" x2="39.6034" y2="104.565" gradientUnits="userSpaceOnUse">
<stop stop-color="#1695F1"/>
<stop offset="1" stop-color="#5DB6F6"/>
</linearGradient>
<linearGradient id="paint1_linear_361_309" x1="474.173" y1="230.89" x2="47.2365" y2="340.725" gradientUnits="userSpaceOnUse">
<stop stop-color="#024A7E"/>
<stop offset="1" stop-color="#0074C8"/>
</linearGradient>
</defs>
</svg>
