<svg width="19" height="18" viewBox="0 0 19 18" fill="none" xmlns="http://www.w3.org/2000/svg">
<path fill-rule="evenodd" clip-rule="evenodd" d="M10.607 2.41205e-06L10.6399 1.21996e-06C11.0832 -2.36948e-05 11.4651 -4.50929e-05 11.7709 0.0410727C12.0987 0.0851386 12.4129 0.184511 12.6677 0.439342C12.9225 0.694173 13.0219 1.00835 13.066 1.33611C13.1071 1.64193 13.1071 2.02383 13.107 2.46707V2.46709L13.107 2.5V4.85505L13.107 4.88796V4.88798C13.1071 5.33122 13.1071 5.71312 13.066 6.01894C13.0219 6.3467 12.9225 6.66088 12.6677 6.91571C12.4129 7.17054 12.0987 7.26991 11.7709 7.31398C11.4651 7.3551 11.0832 7.35507 10.6399 7.35505L10.607 7.35505H5.37414C5.25904 7.35505 5.20139 7.35541 5.16001 7.35869L5.15778 7.35887L5.15612 7.36039C5.12556 7.38848 5.08607 7.43048 5.00774 7.51483L4.20574 8.37854L4.18922 8.39634C4.06512 8.53004 3.94506 8.65937 3.83928 8.75082C3.74644 8.83109 3.53909 8.99902 3.25406 8.97217C3.11363 8.95894 2.97977 8.90638 2.86786 8.82052C2.64072 8.64625 2.60304 8.38209 2.58962 8.2601C2.57434 8.12111 2.57437 7.94466 2.5744 7.76226L2.5744 7.73794V7.70371C2.5744 7.53103 2.57387 7.4365 2.56749 7.36904L2.56684 7.3626L2.56041 7.36196C2.49295 7.35557 2.39842 7.35505 2.22574 7.35505L2.20323 7.35505H2.20322C1.89637 7.35506 1.63173 7.35507 1.41495 7.33454C1.18549 7.3128 0.958798 7.26461 0.74736 7.13565C0.543445 7.01128 0.372178 6.84002 0.24781 6.6361C0.118851 6.42467 0.0706608 6.19797 0.0489266 5.96851C0.0283921 5.75174 0.0284026 5.48708 0.028415 5.18023V5.15772V2.5L0.0284131 2.4671C0.0283883 2.02385 0.0283673 1.64194 0.0694859 1.33611C0.113551 1.00835 0.212924 0.694173 0.467756 0.439342C0.722586 0.184511 1.03676 0.0851386 1.36452 0.0410727C1.67035 -4.50929e-05 2.05226 -2.36948e-05 2.4955 1.21996e-06L2.52842 2.41205e-06H10.607ZM11.9606 1.14645C11.9225 1.10839 11.8545 1.06131 11.6377 1.03216C11.4064 1.00106 11.0926 1 10.607 1H2.52842C2.04288 1 1.72902 1.00106 1.49777 1.03216C1.2809 1.06131 1.21292 1.10839 1.17486 1.14645C1.1368 1.18451 1.08973 1.25248 1.06057 1.46935C1.02948 1.70061 1.02841 2.01446 1.02841 2.5V5.15772C1.02841 5.49344 1.02894 5.71025 1.04447 5.87421C1.0593 6.03078 1.08424 6.08703 1.10155 6.1154C1.143 6.18337 1.20009 6.24046 1.26806 6.28192C1.29643 6.29922 1.35268 6.32416 1.50925 6.33899C1.67321 6.35452 1.89002 6.35505 2.22574 6.35505L2.24436 6.35505H2.24438C2.39126 6.35503 2.53424 6.35501 2.65471 6.36642C2.78766 6.37901 2.94362 6.40892 3.0951 6.50131C3.23105 6.58422 3.34522 6.6984 3.42814 6.83434C3.52053 6.98583 3.55044 7.14179 3.56303 7.27474C3.57193 7.36872 3.57388 7.4764 3.57429 7.58895L4.27494 6.83438L4.30518 6.80161C4.41766 6.67935 4.56089 6.52366 4.75638 6.43841C4.95187 6.35316 5.16342 6.35414 5.32955 6.35491H5.32956L5.37414 6.35505H10.607C11.0926 6.35505 11.4064 6.35399 11.6377 6.3229C11.8545 6.29374 11.9225 6.24666 11.9606 6.2086C11.9986 6.17054 12.0457 6.10257 12.0749 5.8857C12.106 5.65444 12.107 5.34059 12.107 4.85505V2.5C12.107 2.01446 12.106 1.70061 12.0749 1.46935C12.0457 1.25248 11.9986 1.18451 11.9606 1.14645ZM5.99071 8.31075C5.16228 8.31075 4.49071 8.98232 4.49071 9.81075V14.1539C4.49071 14.9823 5.16228 15.6539 5.99071 15.6539H12.7413L14.0986 17.0698C14.5662 17.5577 15.39 17.2266 15.39 16.5508V15.6539H16.5339C17.3623 15.6539 18.0339 14.9823 18.0339 14.1539V9.81075C18.0339 8.98232 17.3623 8.31075 16.5339 8.31075H5.99071ZM5.49071 9.81075C5.49071 9.53461 5.71456 9.31075 5.99071 9.31075H16.5339C16.81 9.31075 17.0339 9.53461 17.0339 9.81075V14.1539C17.0339 14.4301 16.81 14.6539 16.5339 14.6539H15.39C14.8377 14.6539 14.39 15.1016 14.39 15.6539V15.9287L13.4632 14.9619C13.2746 14.7652 13.0139 14.6539 12.7413 14.6539H5.99071C5.71456 14.6539 5.49071 14.4301 5.49071 14.1539V9.81075Z" fill="#FFFFFF"/>
</svg>
