<svg width="24" height="24" viewBox="0 0 24 24" fill="none" xmlns="http://www.w3.org/2000/svg">
<path d="M5.77059 19C5.26652 19 4.8454 18.8309 4.50723 18.4928C4.16908 18.1546 4 17.7335 4 17.2294V9.52941C4 9.02534 4.16908 8.60423 4.50723 8.26608C4.8454 7.92791 5.26652 7.75882 5.77059 7.75882H9.02353V6.77059C9.02353 6.26652 9.19261 5.84541 9.53078 5.50725C9.86894 5.16908 10.29 5 10.7941 5H12.8529C13.357 5 13.7781 5.16908 14.1163 5.50725C14.4544 5.84541 14.6235 6.26652 14.6235 6.77059V7.75882H17.8765C18.3805 7.75882 18.8017 7.92791 19.1398 8.26608C19.478 8.60423 19.6471 9.02534 19.6471 9.52941V17.2294C19.6471 17.7335 19.478 18.1546 19.1398 18.4928C18.8017 18.8309 18.3805 19 17.8765 19H5.77059ZM5.77059 17.8882H17.8765C18.0412 17.8882 18.1922 17.8196 18.3294 17.6824C18.4667 17.5451 18.5353 17.3941 18.5353 17.2294V9.52941C18.5353 9.36471 18.4667 9.21373 18.3294 9.07647C18.1922 8.93922 18.0412 8.87059 17.8765 8.87059H5.77059C5.60588 8.87059 5.4549 8.93922 5.31765 9.07647C5.18039 9.21373 5.11176 9.36471 5.11176 9.52941V17.2294C5.11176 17.3941 5.18039 17.5451 5.31765 17.6824C5.4549 17.8196 5.60588 17.8882 5.77059 17.8882ZM10.1353 7.75882H13.5118V6.77059C13.5118 6.60588 13.4431 6.4549 13.3059 6.31765C13.1686 6.18039 13.0176 6.11176 12.8529 6.11176H10.7941C10.6294 6.11176 10.4784 6.18039 10.3412 6.31765C10.2039 6.4549 10.1353 6.60588 10.1353 6.77059V7.75882Z" fill="#1695F1"/>
</svg>
