<svg width="56" height="43" viewBox="0 0 56 43" fill="none" xmlns="http://www.w3.org/2000/svg">
<path d="M55.7344 21.3672C55.7344 33.168 46.168 42.7344 34.3672 42.7344C22.5664 42.7344 13 33.168 13 21.3672C13 9.56642 22.5664 0 34.3672 0C46.168 0 55.7344 9.56642 55.7344 21.3672Z" fill="#A3CDFF" fill-opacity="0.6"/>
<path d="M13.8733 36.3182V22.8961L2.38586 15.9568V28.6485C2.38586 28.892 2.44477 29.1202 2.56259 29.3333C2.68041 29.5463 2.85714 29.7289 3.09278 29.8811L13.8733 36.3182ZM16.215 36.3182L26.9072 29.8811C27.1429 29.7289 27.3196 29.5463 27.4374 29.3333C27.5552 29.1202 27.6141 28.892 27.6141 28.6485V16.0025L16.215 22.8505V36.3182ZM15.0221 20.7504L26.2887 13.9937L15.729 7.69355C15.4934 7.54137 15.2577 7.46528 15.0221 7.46528C14.7865 7.46528 14.5508 7.54137 14.3152 7.69355L3.75552 13.9937L15.0221 20.7504ZM1.89985 32.1181C1.31075 31.7833 0.846834 31.304 0.5081 30.68C0.169367 30.0561 0 29.3941 0 28.6941V15.5916C0 14.8916 0.169367 14.2296 0.5081 13.6057C0.846834 12.9817 1.31075 12.5024 1.89985 12.1676L13.1222 5.50219C13.7113 5.1674 14.3446 5 15.0221 5C15.6996 5 16.3328 5.1674 16.9219 5.50219L28.1001 12.1676C28.6892 12.5024 29.1532 12.9817 29.4919 13.6057C29.8306 14.2296 30 14.8916 30 15.5916V28.6941C30 29.3941 29.8306 30.0561 29.4919 30.68C29.1532 31.304 28.6892 31.7833 28.1001 32.1181L16.9219 38.7835C16.3328 39.1183 15.6996 39.2857 15.0221 39.2857C14.3446 39.2857 13.7113 39.1183 13.1222 38.7835L1.89985 32.1181Z" fill="#0984DE"/>
</svg>
