<svg width="24" height="24" viewBox="0 0 24 24" fill="none" xmlns="http://www.w3.org/2000/svg">
<path d="M14.4393 19.3607L10.7705 5.25699C10.7442 5.16231 10.6934 5.0913 10.618 5.04396C10.5426 4.99662 10.4656 4.98752 10.3869 5.01665L9.77704 5.20237C9.69179 5.2315 9.62786 5.28794 9.58523 5.3717C9.54261 5.45545 9.53441 5.54467 9.56064 5.63935L13.2295 19.743C13.2557 19.8377 13.3065 19.9087 13.382 19.956C13.4574 20.0034 13.5344 20.0125 13.6131 19.9834L14.2229 19.7976C14.3082 19.7685 14.3721 19.7121 14.4147 19.6283C14.4574 19.5445 14.4656 19.4553 14.4393 19.3607Z" fill="#1695F1"/>
<path d="M17.318 7.15787L21.9016 12.2487C21.9672 12.3216 22 12.4053 22 12.5C22 12.5947 21.9672 12.6784 21.9016 12.7513L17.318 17.8421C17.2524 17.915 17.177 17.9514 17.0918 17.9514C17.0065 17.9514 16.9311 17.915 16.8656 17.8421L16.3738 17.2959C16.3082 17.2231 16.2754 17.1393 16.2754 17.0446C16.2754 16.95 16.3082 16.8662 16.3738 16.7934L20.1188 12.6338C20.1873 12.5578 20.1873 12.4422 20.1188 12.3662L16.3738 8.20663C16.3082 8.1338 16.2754 8.05005 16.2754 7.95537C16.2754 7.86069 16.3082 7.77693 16.3738 7.7041L16.8656 7.15787C16.9311 7.08504 17.0065 7.04862 17.0918 7.04862C17.177 7.04862 17.2524 7.08504 17.318 7.15787Z" fill="#1695F1"/>
<path d="M7.13443 7.15787L7.62623 7.7041C7.6918 7.77693 7.72459 7.86069 7.72459 7.95537C7.72459 8.05005 7.6918 8.1338 7.62623 8.20663L3.88114 12.3662C3.81265 12.4422 3.81265 12.5578 3.88114 12.6338L7.62623 16.7934C7.6918 16.8662 7.72459 16.95 7.72459 17.0446C7.72459 17.1393 7.6918 17.2231 7.62623 17.2959L7.13443 17.8421C7.06885 17.915 6.99344 17.9514 6.9082 17.9514C6.82295 17.9514 6.74754 17.915 6.68197 17.8421L2.09836 12.7513C2.03279 12.6784 2 12.5947 2 12.5C2 12.4053 2.03279 12.3216 2.09836 12.2487L6.68197 7.15787C6.74754 7.08504 6.82295 7.04862 6.9082 7.04862C6.99344 7.04862 7.06885 7.08504 7.13443 7.15787Z" fill="#1695F1"/>
</svg>
