<svg width="24" height="24" viewBox="0 0 24 24" fill="none" xmlns="http://www.w3.org/2000/svg">
<path d="M12.7945 15.0685C13 15.0685 13.1747 14.9966 13.3185 14.8527C13.4623 14.7089 13.5342 14.5342 13.5342 14.3288C13.5342 14.1233 13.4623 13.9486 13.3185 13.8048C13.1747 13.661 13 13.589 12.7945 13.589C12.589 13.589 12.4144 13.661 12.2705 13.8048C12.1267 13.9486 12.0548 14.1233 12.0548 14.3288C12.0548 14.5342 12.1267 14.7089 12.2705 14.8527C12.4144 14.9966 12.589 15.0685 12.7945 15.0685ZM12.3219 12.6027H13.2466C13.2603 12.2329 13.3092 11.9586 13.3934 11.7798C13.4776 11.601 13.6821 11.3479 14.0068 11.0205C14.3767 10.6781 14.6336 10.3801 14.7774 10.1267C14.9212 9.87328 14.9932 9.5769 14.9932 9.23756C14.9932 8.65963 14.7824 8.17533 14.361 7.78465C13.9396 7.39397 13.4106 7.19863 12.774 7.19863C12.2832 7.19863 11.8455 7.33219 11.4607 7.59931C11.0759 7.86643 10.7945 8.23972 10.6164 8.71917L11.4384 9.06849C11.5753 8.75342 11.7548 8.50685 11.9766 8.32876C12.1985 8.15068 12.4643 8.06164 12.774 8.06164C13.1575 8.06164 13.4726 8.17808 13.7192 8.41095C13.9658 8.64383 14.089 8.9315 14.089 9.27397C14.089 9.52054 14.0205 9.74315 13.8836 9.94178C13.7466 10.1404 13.5411 10.3493 13.2671 10.5685C12.8699 10.9247 12.613 11.2294 12.4966 11.4829C12.3801 11.7363 12.3219 12.1096 12.3219 12.6027ZM8.52055 17.2466C8.01747 17.2466 7.59718 17.0778 7.25968 16.7403C6.92218 16.4028 6.75342 15.9825 6.75342 15.4794V6.76712C6.75342 6.26404 6.92218 5.84375 7.25968 5.50626C7.59718 5.16875 8.01747 5 8.52055 5H17.2329C17.736 5 18.1562 5.16875 18.4937 5.50626C18.8312 5.84375 19 6.26404 19 6.76712V15.4794C19 15.9825 18.8312 16.4028 18.4937 16.7403C18.1562 17.0778 17.736 17.2466 17.2329 17.2466H8.52055ZM8.52055 16.137H17.2329C17.3973 16.137 17.5479 16.0685 17.6849 15.9315C17.8219 15.7945 17.8904 15.6438 17.8904 15.4794V6.76712C17.8904 6.60274 17.8219 6.45205 17.6849 6.31506C17.5479 6.17808 17.3973 6.10959 17.2329 6.10959H8.52055C8.35616 6.10959 8.20548 6.17808 8.06849 6.31506C7.93151 6.45205 7.86301 6.60274 7.86301 6.76712V15.4794C7.86301 15.6438 7.93151 15.7945 8.06849 15.9315C8.20548 16.0685 8.35616 16.137 8.52055 16.137ZM5.76712 20C5.26404 20 4.84375 19.8313 4.50624 19.4938C4.16875 19.1562 4 18.736 4 18.2329V8.41095H5.10959V18.2329C5.10959 18.3973 5.17808 18.5479 5.31507 18.6849C5.45205 18.8219 5.60274 18.8904 5.76712 18.8904H15.589V20H5.76712Z" fill="#1695F1"/>
</svg>
