<svg width="56" height="43" viewBox="0 0 56 43" fill="none" xmlns="http://www.w3.org/2000/svg">
<path d="M55.7344 21.3672C55.7344 33.168 46.168 42.7344 34.3672 42.7344C22.5664 42.7344 13 33.168 13 21.3672C13 9.56642 22.5664 0 34.3672 0C46.168 0 55.7344 9.56642 55.7344 21.3672Z" fill="#A3CDFF" fill-opacity="0.6"/>
<path d="M3.79412 36C2.70588 36 1.80147 35.6321 1.08088 34.8964C0.360294 34.1607 0 33.2372 0 32.1261V11.2252C0 10.9249 0.0294118 10.6396 0.0882353 10.3694C0.147059 10.0991 0.294118 9.87387 0.529412 9.69369L3 6.72072C3.14706 6.51051 3.34559 6.33784 3.59559 6.2027C3.84559 6.06757 4.08824 6 4.32353 6H25.6765C25.9118 6 26.1544 6.06757 26.4044 6.2027C26.6544 6.33784 26.8529 6.51051 27 6.72072L29.4706 9.69369C29.7059 9.87387 29.8529 10.0991 29.9118 10.3694C29.9706 10.6396 30 10.9249 30 11.2252V32.1261C30 33.2372 29.6397 34.1607 28.9191 34.8964C28.1985 35.6321 27.2941 36 26.2059 36H3.79412ZM3.08824 10.3243H26.9118L25.3235 8.43243H4.67647L3.08824 10.3243ZM3.79412 33.5676H26.2059C26.6176 33.5676 26.9559 33.4324 27.2206 33.1622C27.4853 32.8919 27.6176 32.5465 27.6176 32.1261V12.7568H2.38235V32.1261C2.38235 32.5465 2.51471 32.8919 2.77941 33.1622C3.04412 33.4324 3.38235 33.5676 3.79412 33.5676ZM19.5882 29.0631L25.0588 23.4775L19.5882 17.8919L17.8676 19.6486L21.6176 23.4775L17.8676 27.3063L19.5882 29.0631ZM10.5 29.0631L12.2206 27.3063L8.47059 23.4775L12.2206 19.6486L10.5 17.8919L5.02941 23.4775L10.5 29.0631Z" fill="#0984DE"/>
</svg>
