<svg width="112" height="90" viewBox="0 0 112 90" fill="none" xmlns="http://www.w3.org/2000/svg">
<path d="M112 45C112 69.8528 91.8528 90 67 90C42.1472 90 22 69.8528 22 45C22 20.1472 42.1472 0 67 0C91.8528 0 112 20.1472 112 45Z" fill="#E8F4FE"/>
<path d="M18.3191 63C13.2119 63 8.88196 61.2549 5.32914 57.7645C1.77638 54.2742 0 50.0203 0 45.003C0 39.9856 1.77638 35.7308 5.32914 32.2385C8.88196 28.7462 13.2119 27 18.3191 27C20.3526 27 22.3038 27.3549 24.1724 28.0648C26.041 28.7747 27.7269 29.7824 29.23 31.0879L35.9002 36.8638L31.9412 40.3055L25.7274 34.912C24.7074 34.0504 23.5599 33.3735 22.2849 32.8812C21.01 32.3889 19.6872 32.1427 18.3167 32.1427C14.7033 32.1427 11.6195 33.3983 9.06529 35.9096C6.51107 38.4209 5.23397 41.4528 5.23397 45.0053C5.23397 48.5578 6.51107 51.588 9.06529 54.0957C11.6195 56.6034 14.7033 57.8573 18.3167 57.8573C19.6872 57.8573 21.01 57.6111 22.2849 57.1188C23.5599 56.6265 24.7074 55.9496 25.7274 55.088L52.77 31.0879C54.2507 29.7604 55.929 28.7472 57.8049 28.0483C59.6808 27.3494 61.6395 27 63.6809 27C68.7881 27 73.118 28.7452 76.6709 32.2355C80.2236 35.7258 82 39.9797 82 44.997C82 50.0144 80.2236 54.2692 76.6709 57.7615C73.118 61.2538 68.7881 63 63.6809 63C61.641 63 59.6939 62.6396 57.8396 61.9187C55.9853 61.1978 54.2954 60.1956 52.77 58.9121L46.167 53.1362L50.0588 49.6616L56.2726 55.088C57.2926 55.9759 58.4401 56.6594 59.7151 57.1386C60.99 57.6177 62.3128 57.8573 63.6834 57.8573C67.2967 57.8573 70.3805 56.6017 72.9347 54.0904C75.489 51.5791 76.7661 48.5472 76.7661 44.9947C76.7661 41.4422 75.489 38.412 72.9347 35.9043C70.3805 33.3966 67.2967 32.1427 63.6834 32.1427C62.3128 32.1427 60.99 32.3889 59.7151 32.8812C58.4401 33.3735 57.2926 34.0504 56.2726 34.912L29.23 58.9121C27.7493 60.2396 26.071 61.2528 24.1951 61.9517C22.3192 62.6506 20.3605 63 18.3191 63Z" fill="#1695F1"/>
</svg>
