<svg width="116" height="90" viewBox="0 0 116 90" fill="none" xmlns="http://www.w3.org/2000/svg">
<path d="M116 45C116 69.8528 95.8528 90 71 90C46.1472 90 26 69.8528 26 45C26 20.1472 46.1472 0 71 0C95.8528 0 116 20.1472 116 45Z" fill="#E8F4FE"/>
<path d="M54.0587 64.0587L28.6235 51.3765L15.9413 25.9413L41.3765 38.6235L54.0587 64.0587ZM35 48.6842C36.0439 48.6842 36.9189 48.3311 37.625 47.625C38.3312 46.9189 38.6842 46.0439 38.6842 45C38.6842 43.9561 38.3312 43.0811 37.625 42.375C36.9189 41.6689 36.0439 41.3158 35 41.3158C33.9561 41.3158 33.0811 41.6689 32.375 42.375C31.6689 43.0811 31.3158 43.9561 31.3158 45C31.3158 46.0439 31.6689 46.9189 32.375 47.625C33.0811 48.3311 33.9561 48.6842 35 48.6842ZM34.9938 80C39.8347 80 44.3848 79.0814 48.6442 77.2442C52.9037 75.407 56.6089 72.9137 59.7597 69.7643C62.9106 66.6149 65.405 62.9113 67.243 58.6537C69.081 54.3962 70 49.847 70 45.0062C70 40.1654 69.0814 35.6152 67.2442 31.3558C65.407 27.0963 62.9137 23.3911 59.7643 20.2403C56.6149 17.0894 52.9113 14.595 48.6537 12.757C44.3962 10.919 39.847 10 35.0062 10C30.1654 10 25.6152 10.9186 21.3558 12.7558C17.0963 14.593 13.3911 17.0863 10.2403 20.2357C7.08943 23.3851 4.59499 27.0887 2.757 31.3463C0.919002 35.6038 -4.10495e-07 40.153 -4.10495e-07 44.9938C-4.10495e-07 49.8347 0.918602 54.3848 2.7558 58.6442C4.593 62.9037 7.08629 66.6089 10.2357 69.7597C13.3851 72.9106 17.0887 75.405 21.3463 77.243C25.6038 79.081 30.153 80 34.9938 80ZM35 74.4738C26.7719 74.4738 19.8026 71.6185 14.0921 65.9079C8.38151 60.1974 5.52624 53.2281 5.52624 45C5.52624 36.7719 8.38151 29.8026 14.0921 24.0921C19.8026 18.3815 26.7719 15.5262 35 15.5262C43.2281 15.5262 50.1974 18.3815 55.908 24.0921C61.6185 29.8026 64.4738 36.7719 64.4738 45C64.4738 53.2281 61.6185 60.1974 55.908 65.9079C50.1974 71.6185 43.2281 74.4738 35 74.4738Z" fill="#1695F1"/>
</svg>
