<svg width="127" height="106" viewBox="0 0 127 106" fill="none" xmlns="http://www.w3.org/2000/svg">
<path d="M126.145 52.645C126.145 77.4978 105.997 97.645 81.1445 97.645C56.2917 97.645 36.1445 77.4978 36.1445 52.645C36.1445 27.7922 56.2917 7.64502 81.1445 7.64502C105.997 7.64502 126.145 27.7922 126.145 52.645Z" fill="#E8F4FE"/>
<path d="M31.803 64.7991L28.3477 61.6648C27.375 62.0484 26.3988 62.3281 25.4189 62.5039C24.4391 62.6798 23.4195 62.7299 22.3602 62.6542L19.8055 66.6637L14.4162 64.6267L15.4055 59.9018C14.5493 59.2596 13.788 58.512 13.1215 57.6589C12.455 56.8059 11.9138 55.8862 11.4978 54.9001L6.67392 54.717L6.00117 48.995L10.5097 47.4861C10.6925 46.44 10.9877 45.4628 11.3954 44.5546C11.8031 43.6464 12.3107 42.7668 12.9182 41.9159L10.7129 37.805L15.3116 34.2121L18.7668 37.3464C19.7395 36.9628 20.7158 36.6831 21.6956 36.5072C22.6754 36.3314 23.695 36.2813 24.7543 36.357L27.309 32.3474L32.6984 34.3845L31.709 39.1094C32.5652 39.7516 33.3266 40.4992 33.9931 41.3522C34.6596 42.2053 35.2008 43.1249 35.6167 44.1111L40.4406 44.2941L41.1134 50.0162L36.6049 51.525C36.4221 52.5712 36.1268 53.5483 35.7191 54.4565C35.3115 55.3647 34.8039 56.2443 34.1964 57.0953L36.4017 61.2062L31.803 64.7991ZM28.4875 55.8159C30.2523 54.437 31.2748 52.6487 31.5547 50.4509C31.8347 48.253 31.2914 46.2796 29.9249 44.5306C28.5584 42.7816 26.7751 41.7771 24.5748 41.517C22.3745 41.2569 20.392 41.8163 18.6271 43.1952C16.8622 44.5741 15.8398 46.3625 15.5598 48.5603C15.2799 50.7581 15.8231 52.7315 17.1896 54.4805C18.5561 56.2295 20.3395 57.2341 22.5397 57.4941C24.74 57.7542 26.7226 57.1948 28.4875 55.8159ZM84.799 75.0989L80.0797 71.0515C78.7791 71.7039 77.4277 72.1294 76.0255 72.3278C74.6233 72.5262 73.211 72.5131 71.7884 72.2884L68.4425 77.4241L61.3054 74.6449L62.5757 68.5902C61.3581 67.7286 60.2943 66.7154 59.3843 65.5507C58.4744 64.386 57.7487 63.1088 57.2072 61.7189L51.0251 61.4867L50.055 53.8892L55.8477 51.8852C55.9738 50.4505 56.3027 49.0769 56.8344 47.7644C57.3662 46.4519 58.1059 45.2435 59.0536 44.1393L56.2682 38.5811L62.3762 33.809L67.0955 37.8563C68.3961 37.2039 69.7476 36.7785 71.1497 36.58C72.5519 36.3816 73.9642 36.3948 75.3868 36.6195L78.7327 31.4837L85.8698 34.263L84.5995 40.3177C85.8171 41.1793 86.8809 42.1924 87.7909 43.3571C88.7008 44.5218 89.4265 45.7991 89.968 47.189L96.1501 47.4212L97.1202 55.0187L91.3275 57.0227C91.2014 58.4574 90.8725 59.831 90.3408 61.1435C89.809 62.456 89.0693 63.6643 88.1216 64.7685L90.9071 70.3268L84.799 75.0989ZM80.709 63.5689C83.2639 61.5728 84.7432 58.9899 85.147 55.8203C85.5507 52.6506 84.7635 49.7998 82.7853 47.2679C80.8071 44.736 78.2315 43.2825 75.0583 42.9074C71.8852 42.5323 69.0211 43.3429 66.4662 45.339C63.9113 47.3351 62.432 49.918 62.0282 53.0876C61.6245 56.2573 62.4117 59.108 64.3899 61.64C66.3681 64.1719 68.9437 65.6254 72.1169 66.0005C75.29 66.3755 78.1541 65.565 80.709 63.5689Z" fill="#1695F1"/>
</svg>
