<svg width="123" height="90" viewBox="0 0 123 90" fill="none" xmlns="http://www.w3.org/2000/svg">
<path d="M122.5 45C122.5 69.8528 102.353 90 77.5 90C52.6472 90 32.5 69.8528 32.5 45C32.5 20.1472 52.6472 0 77.5 0C102.353 0 122.5 20.1472 122.5 45Z" fill="#E8F4FE"/>
<path d="M86.0303 50.3963L58.6211 62.4657V54.5817L77.3871 47.048L77.134 47.4568V46.4835L77.3871 46.8923L58.6211 39.3587V31.4746L86.0303 43.544V50.3963Z" fill="#1695F1"/>
<path d="M53.01 21.1763L40.1619 68.9088H33.0176L45.8657 21.1763H53.01Z" fill="#1695F1"/>
<path d="M0 50.3963V43.544L27.4092 31.4746V39.3587L8.64325 46.8923L8.89632 46.4835V47.4568L8.64325 47.048L27.4092 54.5817V62.4657L0 50.3963Z" fill="#1695F1"/>
</svg>
