<?xml version="1.0" ?><svg data-name="Layer 1" id="Layer_1" viewBox="0 0 512 512" xmlns="http://www.w3.org/2000/svg"><path d="M476.61,458.94h-37.3V164.31a5,5,0,0,0-5-5h-57a5,5,0,0,0-5,5V458.94H338.84V283a5,5,0,0,0-5-5h-57a5,5,0,0,0-5,5v176H238.38V233.29a5,5,0,0,0-5-5h-57a5,5,0,0,0-5,5V458.94H137.92V346.43a5,5,0,0,0-5-5h-57a5,5,0,0,0-5,5V458.94H40.39V78.53a5,5,0,0,0-10,0V463.94a5,5,0,0,0,5,5H476.61a5,5,0,0,0,0-10Zm-395.68,0V351.43h47V458.94Zm100.46,0V238.29h47V458.94Zm100.47,0V288h47v171Zm100.46,0V169.31h47V458.94Z" style="fill:#231f20"/><path d="M104.42,238.29a5,5,0,0,0,3.68-1.62l97.53-106.32L302.52,197a5,5,0,0,0,6.54-.77L431.28,61.05V91.63a5,5,0,0,0,10,0V48.06s0-.08,0-.12a4.52,4.52,0,0,0-.06-.53c0-.15,0-.31-.06-.45s-.09-.31-.14-.46-.1-.32-.17-.47-.14-.26-.21-.4-.17-.3-.27-.44-.18-.22-.27-.33a5,5,0,0,0-.38-.42l-.08-.09c-.08-.07-.16-.11-.25-.18a5,5,0,0,0-.44-.33,4.36,4.36,0,0,0-.42-.23l-.44-.2-.51-.16-.42-.1a5.61,5.61,0,0,0-.59-.06c-.1,0-.18,0-.28,0H392.72a5,5,0,0,0,0,10H425L304.58,186.3l-96.86-66.65a5,5,0,0,0-6.52.74L100.74,229.92a5,5,0,0,0,3.68,8.37Z" style="fill:#231f20"/></svg>