<svg width="57" height="45" viewBox="0 0 57 45" fill="none" xmlns="http://www.w3.org/2000/svg">
<path d="M56.7344 22.3672C56.7344 34.168 47.168 43.7344 35.3672 43.7344C23.5664 43.7344 14 34.168 14 22.3672C14 10.5664 23.5664 1 35.3672 1C47.168 1 56.7344 10.5664 56.7344 22.3672Z" fill="#A3CDFF" fill-opacity="0.6"/>
<path d="M37.2231 11.2732V10.7065C37.2207 9.71362 37.085 8.72624 36.8199 7.77396C36.2387 6.13488 35.3294 4.64874 34.155 3.41698C32.9791 2.18365 31.5654 1.23462 30.0112 0.634298L29.9708 0.618712L29.9405 0.587843L29.8957 0.542204H29.7827H29.7551L29.7286 0.534759C29.0008 0.330429 28.2526 0.219141 27.5 0.203225L27.4968 0.203158C27.3008 0.1959 27.1039 0.202393 26.9014 0.210319C26.9014 0.21032 26.9014 0.210321 26.9014 0.210322C26.9014 0.210322 26.9013 0.210323 26.9013 0.210323L26.4215 0.229353V4.09672V4.29672H26.2215H25.1678H25.164L25.164 4.29668C24.6843 4.28757 24.2168 4.46849 23.8539 4.80696C23.4912 5.14532 23.2594 5.61684 23.207 6.12983C23.1844 6.40886 23.2166 6.68972 23.3015 6.9546C23.3866 7.22006 23.5226 7.46326 23.7004 7.66908C23.8782 7.87486 24.0938 8.03871 24.3331 8.15093C24.5723 8.26307 24.8304 8.32139 25.0912 8.32261H26.4866H26.6866V8.52261L26.6866 9.26005L26.6866 9.26026M37.2231 11.2732L28.5804 11.4732C28.0253 11.4726 27.4931 11.2392 27.1005 10.8243C26.708 10.4095 26.4872 9.84697 26.4866 9.26026H26.6866M37.2231 11.2732H33.4659H33.2659V11.4732V12.2103C33.2634 12.7451 33.0618 13.2552 32.7079 13.6311C32.3545 14.0065 31.878 14.2177 31.382 14.2231C31.3217 14.223 31.2614 14.2202 31.2017 14.2139C30.7264 14.1563 30.2858 13.9139 29.9663 13.5303C29.6463 13.146 29.4715 12.6479 29.4783 12.1324H29.4783V12.1298V11.4732V11.2732H29.2783H28.5806M37.2231 11.2732L28.5806 11.2732M26.6866 9.26026C26.6872 9.79739 26.8895 10.3103 27.2458 10.6869C27.6018 11.0632 28.0821 11.2726 28.5806 11.2732M26.6866 9.26026L28.5806 11.2732M29.54 1.59443C30.9825 2.12688 32.2964 2.98597 33.3902 4.1107C34.4843 5.23581 35.3315 6.59954 35.8733 8.10592L35.8759 8.11333L35.878 8.12093C36.0439 8.72865 36.1518 9.35233 36.2001 9.98264L36.2165 10.1979H36.0006H32.27V12.2104V12.2109H32.07C32.0703 12.3091 32.0514 12.4064 32.0148 12.4967C31.9781 12.5871 31.9243 12.6685 31.8567 12.736L29.54 1.59443ZM29.54 1.59443L29.5313 1.59106L29.5226 1.58768L29.5136 1.58512C28.897 1.40982 28.2636 1.30835 27.6254 1.28267L27.4173 1.27431V1.48251V5.372L25.1718 5.37203C24.9376 5.36309 24.7099 5.44508 24.5315 5.59987C24.3523 5.7554 24.2355 5.97318 24.2004 6.21055L24.2003 6.21052L24.1994 6.2183C24.1848 6.35338 24.1997 6.49032 24.243 6.61882C24.2859 6.74598 24.3558 6.8621 24.4481 6.95813L29.54 1.59443ZM31.6748 13.0948C31.7989 13.048 31.9104 12.9723 32.0011 12.8744L27.8825 9.26027C27.8815 9.35743 27.8989 9.45381 27.9336 9.54377C27.9684 9.63373 28.0197 9.71545 28.0847 9.78416C28.1497 9.85286 28.2271 9.90716 28.3122 9.94386C28.3973 9.98057 28.4885 9.99895 28.5804 9.99792V10.1979H28.5814H30.4742V12.1267C30.4671 12.3647 30.5418 12.5988 30.6867 12.7855C30.8325 12.9733 31.0402 13.1007 31.2721 13.1406L31.2721 13.1408L31.2816 13.142C31.4145 13.1583 31.5492 13.1421 31.6748 13.0948ZM27.6825 7.24733V9.25934L24.8205 6.98901C24.9059 7.02779 24.9979 7.04764 25.0908 7.04733V7.24733H25.0911H27.6825Z" fill="#0984DE" stroke="#0984DE" stroke-width="0.4"/>
<path d="M26.2507 44H12.7945V35.3774H8.30322C7.22982 35.3763 6.2007 34.9457 5.44169 34.1801C4.68268 33.4144 4.25579 32.3763 4.25471 31.2936V25.4963L2.45223 25.048C2.123 24.9641 1.82167 24.7938 1.57885 24.5543C1.33603 24.3149 1.16038 24.0148 1.06976 23.6847C0.979134 23.3546 0.976768 23.0062 1.0629 22.6748C1.14903 22.3435 1.32058 22.0411 1.56013 21.7983L4.25886 19.0764C4.31464 17.2957 4.62548 15.5324 5.18173 13.8414C6.16343 10.9443 8.02628 8.43362 10.505 6.66676C12.9837 4.8999 15.9519 3.96699 18.9868 4.00089C19.447 4.00089 19.9188 4.02477 20.428 4.07337L21.198 4.1471V10.9163H18.2127C17.9891 10.9071 17.77 10.9812 17.5971 11.1244C17.4241 11.2676 17.3095 11.47 17.2749 11.693C17.2609 11.8168 17.2752 11.9422 17.3166 12.0596C17.3581 12.1769 17.4256 12.2831 17.5141 12.3701C17.5918 12.4532 17.6855 12.5194 17.7895 12.5645C17.8935 12.6096 18.0056 12.6327 18.1188 12.6323H21.5211V15.2063C21.5199 15.3193 21.5411 15.4314 21.5834 15.536C21.6258 15.6406 21.6884 15.7357 21.7676 15.8156C21.8468 15.8955 21.9411 15.9587 22.0448 16.0014C22.1485 16.0441 22.2597 16.0655 22.3717 16.0643H24.9234V18.544C24.9155 18.7692 24.9894 18.9896 25.1312 19.1639C25.2729 19.3381 25.4728 19.4542 25.6934 19.4903C25.8161 19.5047 25.9405 19.4904 26.0568 19.4486C26.1732 19.4068 26.2785 19.3385 26.3645 19.249C26.4469 19.1705 26.5124 19.0758 26.5572 18.9707C26.6019 18.8657 26.6248 18.7525 26.6245 18.6382V16.0642H33.3967L33.5121 16.7852C33.6538 17.6617 33.7258 18.5482 33.7273 19.4363V23.0823C33.724 25.5876 33.0209 28.0413 31.6985 30.162C30.3761 32.2827 28.488 33.9845 26.2508 35.0724L26.2507 44ZM14.4956 42.284H24.5496V33.9538L25.0654 33.7309C27.1293 32.8349 28.8881 31.3492 30.125 29.457C31.3619 27.5648 32.0228 25.3489 32.0261 23.0823V19.4363C32.0256 18.8829 31.994 18.33 31.9314 17.7802H28.3257V18.6382C28.3242 18.9957 28.2491 19.349 28.1053 19.6757C27.9614 20.0024 27.7518 20.2953 27.4899 20.5361C27.2279 20.7768 26.9192 20.9601 26.5834 21.0742C26.2475 21.1884 25.8919 21.2309 25.5389 21.1992C24.8951 21.1252 24.3015 20.8125 23.8734 20.3218C23.4453 19.8312 23.2133 19.1975 23.2222 18.544V17.7802H22.3717C21.6952 17.7795 21.0465 17.5081 20.5682 17.0255C20.0898 16.543 19.8207 15.8887 19.82 15.2063V14.3483H18.1188C17.7651 14.3468 17.4154 14.2713 17.092 14.1266C16.7687 13.9819 16.4785 13.7711 16.24 13.5076C16.0014 13.2441 15.8197 12.9335 15.7061 12.5955C15.5926 12.2575 15.5498 11.8994 15.5804 11.5439C15.6495 10.8922 15.9581 10.2901 16.4453 9.85637C16.9325 9.42262 17.563 9.18859 18.2127 9.20036H19.4968V5.72777C19.3232 5.72065 19.1538 5.71688 18.9868 5.71688C16.31 5.68329 13.6909 6.50232 11.5024 8.05738C9.31383 9.61244 7.66734 11.8243 6.79731 14.378C6.25806 16.0098 5.97417 17.7164 5.95587 19.4363V19.7916L2.76374 23.0111C2.73592 23.0383 2.71608 23.0727 2.70641 23.1106C2.69674 23.1484 2.69761 23.1882 2.70893 23.2256C2.71854 23.264 2.7383 23.299 2.7661 23.3268C2.7939 23.3547 2.82869 23.3745 2.86675 23.384L5.95587 24.1523V31.2936C5.95665 31.9213 6.20421 32.5231 6.64426 32.967C7.08431 33.4109 7.68093 33.6606 8.30325 33.6614H14.4956L14.4956 42.284Z" fill="#0984DE" stroke="#0984DE" stroke-width="0.5"/>
</svg>
