<svg width="56" height="43" viewBox="0 0 56 43" fill="none" xmlns="http://www.w3.org/2000/svg">
<path d="M55.7344 21.3672C55.7344 33.168 46.168 42.7344 34.3672 42.7344C22.5664 42.7344 13 33.168 13 21.3672C13 9.56642 22.5664 0 34.3672 0C46.168 0 55.7344 9.56642 55.7344 21.3672Z" fill="#A3CDFF" fill-opacity="0.6"/>
<path d="M31.6649 19.4533V31.5892C31.6649 32.5602 31.3198 33.3715 30.6296 34.0229C29.9393 34.6743 29.0798 35 28.0509 35H5.52651C4.49765 35 3.63809 34.6743 2.94785 34.0229C2.25763 33.3715 1.91252 32.5602 1.91252 31.5892V19.3739C1.01603 18.8187 0.434706 18.0982 0.16856 17.2125C-0.0975872 16.3267 -0.0485601 15.4079 0.315641 14.4561L2.08902 9.22584C2.33555 8.56159 2.70396 8.02455 3.19423 7.61473C3.6845 7.20491 4.32185 7 5.10628 7H28.3871C29.1833 7 29.8446 7.18508 30.371 7.55524C30.8974 7.9254 31.2727 8.4542 31.4968 9.14164L33.2618 14.4561C33.626 15.4079 33.696 16.3796 33.4719 17.3711C33.2478 18.3626 32.6455 19.0567 31.6649 19.4533ZM20.591 18.3428C21.5861 18.3428 22.3428 18.1246 22.8611 17.6884C23.3794 17.2521 23.5965 16.7299 23.5124 16.1218L22.3358 9.14164H17.9654V15.6459C17.9654 16.3852 18.2265 17.0195 18.7487 17.5488C19.2709 18.0781 19.885 18.3428 20.591 18.3428ZM12.8596 18.3428C13.686 18.3428 14.3654 18.0781 14.8977 17.5488C15.43 17.0195 15.6961 16.3852 15.6961 15.6459V9.14164H11.2417L10.065 16.2011C9.98097 16.7828 10.1981 17.2852 10.7164 17.7082C11.2347 18.1313 11.9491 18.3428 12.8596 18.3428ZM5.19033 18.3428C5.89072 18.3428 6.47904 18.1048 6.9553 17.6289C7.43156 17.153 7.73973 16.5977 7.87981 15.9632L8.88837 9.14164H5.8627C5.38644 9.14164 5.00823 9.24079 4.72807 9.43909C4.44792 9.63739 4.2378 9.93484 4.09773 10.3314L2.58489 14.932C2.24871 15.8839 2.33976 16.6903 2.85804 17.3513C3.37633 18.0123 4.15376 18.3428 5.19033 18.3428ZM28.3871 18.3428C29.3677 18.3428 30.1241 18.0387 30.6564 17.4306C31.1887 16.8225 31.3007 15.9896 30.9926 14.932L29.5638 10.2521C29.4237 9.85552 29.2136 9.57129 28.9334 9.39943C28.6533 9.22757 28.2751 9.14164 27.7988 9.14164H24.6891L25.6976 15.9632C25.8377 16.5977 26.1459 17.153 26.6221 17.6289C27.0984 18.1048 27.6867 18.3428 28.3871 18.3428ZM5.52651 32.8584H28.0509C28.4431 32.8584 28.7653 32.7394 29.0175 32.5014C29.2696 32.2635 29.3957 31.9594 29.3957 31.5892V20.3258C29.2836 20.3522 29.1225 20.3853 28.9124 20.4249C28.7023 20.4646 28.4992 20.4844 28.3031 20.4844C27.5355 20.4844 26.8604 20.339 26.2776 20.0482C25.6949 19.7573 25.1373 19.3211 24.605 18.7394C24.1288 19.2682 23.5755 19.6912 22.9451 20.0085C22.3148 20.3258 21.5514 20.4844 20.6549 20.4844C19.9265 20.4844 19.2541 20.339 18.6377 20.0482C18.0214 19.7573 17.4051 19.3211 16.7887 18.7394C16.2564 19.3211 15.6471 19.7573 14.9607 20.0482C14.2743 20.339 13.5973 20.4844 12.9295 20.4844C12.1685 20.4844 11.4448 20.3456 10.7584 20.068C10.072 19.7904 9.47669 19.3475 8.97241 18.7394C8.18798 19.4797 7.5016 19.9556 6.91328 20.1671C6.32495 20.3787 5.77865 20.4844 5.27437 20.4844C5.07827 20.4844 4.88916 20.4646 4.70706 20.4249C4.52496 20.3853 4.34986 20.3522 4.18177 20.3258V31.5892C4.18177 31.9594 4.30784 32.2635 4.55998 32.5014C4.81212 32.7394 5.1343 32.8584 5.52651 32.8584ZM28.0509 32.8584H5.27437H28.3031H28.0509Z" fill="#0984DE"/>
</svg>
