<svg width="24" height="24" viewBox="0 0 24 24" fill="none" xmlns="http://www.w3.org/2000/svg">
<path d="M8.36729 18L8.06702 15.8136C7.87936 15.7524 7.64928 15.6516 7.3768 15.5113C7.10431 15.371 6.88398 15.2207 6.71582 15.0604L4.61394 15.9239L3 13.0577L4.72654 11.7533C4.71403 11.6317 4.69839 11.5031 4.67962 11.3675C4.66086 11.2318 4.65147 11.1032 4.65147 10.9816C4.65147 10.8787 4.66086 10.7654 4.67962 10.6417C4.69839 10.5181 4.71403 10.3742 4.72654 10.21L3 8.94226L4.61394 6.14961L6.62198 6.95801C6.83467 6.78653 7.07239 6.63036 7.33512 6.4895C7.59786 6.34864 7.84182 6.23535 8.06702 6.14961L8.36729 4H11.6327L11.9142 6.18635C12.1769 6.29659 12.4178 6.40989 12.6367 6.52625C12.8557 6.64261 13.0777 6.79265 13.3029 6.97638L15.3861 6.14961L17 8.94226L15.1609 10.3018C15.1984 10.4366 15.2203 10.5652 15.2265 10.6877C15.2328 10.8101 15.2359 10.9204 15.2359 11.0184C15.2359 11.1041 15.2297 11.2082 15.2172 11.3307C15.2046 11.4532 15.1921 11.6002 15.1796 11.7717L16.9437 13.0577L15.3298 15.9239L13.2091 15.042C12.9964 15.2135 12.7869 15.3605 12.5804 15.4829C12.374 15.6054 12.1582 15.7034 11.933 15.7769L11.6327 18H8.36729ZM9.23056 17.0079H10.7103L10.9946 14.9869C11.3825 14.8889 11.7323 14.7536 12.0439 14.5811C12.3556 14.4086 12.6815 14.1641 13.0214 13.8478L14.8606 14.6194L15.63 13.3701L14.0161 12.1575C14.0786 11.937 14.1224 11.7335 14.1475 11.547C14.1725 11.3604 14.185 11.1736 14.185 10.9866C14.185 10.7873 14.1756 10.608 14.1568 10.4488C14.1381 10.2896 14.0974 10.0875 14.0349 9.84252L15.6676 8.62992L14.9357 7.38058L13.0214 8.13386C12.8088 7.88889 12.4998 7.6513 12.0945 7.42109C11.6892 7.19088 11.3163 7.04264 10.9759 6.97638L10.7694 4.99213H9.2118L9.02413 6.93963C8.59875 7.02537 8.21716 7.16317 7.87936 7.35302C7.54155 7.54287 7.21001 7.80315 6.88472 8.13386L5.06434 7.38058L4.29491 8.62992L5.87131 9.82415C5.80876 10.0324 5.76497 10.2345 5.73995 10.4304C5.71492 10.6264 5.70241 10.8127 5.70241 10.9894C5.70241 11.1435 5.71492 11.3185 5.73995 11.5144C5.76497 11.7104 5.8025 11.9309 5.85255 12.1759L4.29491 13.3701L5.06434 14.6194L6.88472 13.8661C7.23503 14.1846 7.57596 14.4326 7.90751 14.6102C8.23905 14.7878 8.605 14.9256 9.00536 15.0236L9.23056 17.0079ZM9.90617 13.1129C10.5142 13.1129 11.029 12.9065 11.4507 12.4937C11.8723 12.0809 12.0831 11.5769 12.0831 10.9816C12.0831 10.3864 11.8723 9.88233 11.4507 9.46955C11.029 9.05678 10.5142 8.85039 9.90617 8.85039C9.30563 8.85039 8.79267 9.05678 8.36729 9.46955C7.94191 9.88233 7.72922 10.3864 7.72922 10.9816C7.72922 11.5769 7.94191 12.0809 8.36729 12.4937C8.79267 12.9065 9.30563 13.1129 9.90617 13.1129Z" fill="#1695F1"/>
<path fill-rule="evenodd" clip-rule="evenodd" d="M12.5756 20.2162L12.2421 18.1943L13.0933 17.4374L13.352 19.2736L14.7256 19.2366L14.9389 17.3535C15.2964 17.2528 15.6177 17.1185 15.9027 16.9506C16.1877 16.7826 16.4841 16.5475 16.7917 16.2454L18.5182 16.9156L19.2011 15.7366L17.6726 14.6515C17.7252 14.4452 17.7607 14.2552 17.7793 14.0815C17.7978 13.9077 17.8048 13.734 17.8001 13.5604C17.7951 13.3754 17.7819 13.2092 17.7605 13.0619C17.7391 12.9146 17.6963 12.728 17.632 12.5022L19.1172 11.3357L18.4065 10.1943L16.6486 10.9415L16.8809 9.86005L18.7938 9.04043L20.3618 11.5922L18.6887 12.9003C18.727 13.0244 18.7505 13.1433 18.7594 13.2568C18.7683 13.3703 18.7739 13.4726 18.7764 13.5635C18.7785 13.6431 18.7753 13.7399 18.7668 13.8539C18.7582 13.9679 18.7503 14.1047 18.743 14.2642L20.4127 15.4138L18.9864 18.1147L16.9958 17.3492C16.8027 17.5137 16.6119 17.6554 16.4233 17.7742C16.2347 17.8931 16.0369 17.9895 15.8297 18.0633L15.6066 20.1344L12.5756 20.2162Z" fill="#1695F1"/>
</svg>
