<svg width="24" height="24" viewBox="0 0 24 24" fill="none" xmlns="http://www.w3.org/2000/svg">
<path d="M7.8 20C7.30455 20 6.88069 19.8361 6.52841 19.5084C6.17614 19.1807 6 18.7752 6 18.2921V8.2302C6 7.73515 6.19375 7.31745 6.58125 6.9771C6.96875 6.63676 7.4125 6.41708 7.9125 6.31807L14.3625 5V16.25L7.78125 17.6609C7.59375 17.698 7.41875 17.7661 7.25625 17.8651C7.09375 17.9641 7.0125 18.1064 7.0125 18.2921C7.0125 18.5025 7.09063 18.6726 7.24688 18.8026C7.40313 18.9325 7.5875 18.9975 7.8 18.9975H16.2375V7.37624H17.25V20H7.8ZM9.15 16.4171L13.35 15.4517V6.22525L9.15 7.11634V16.4171ZM8.1375 16.6213V7.30198L7.70625 7.3948C7.50875 7.44077 7.34375 7.54066 7.21125 7.69449C7.07875 7.8483 7.0125 8.02687 7.0125 8.2302V16.9926C7.1375 16.9307 7.25938 16.875 7.37813 16.8255C7.49688 16.776 7.63125 16.7327 7.78125 16.6955L8.1375 16.6213Z" fill="#1695F1"/>
</svg>
