<svg width="51" height="43" viewBox="0 0 51 43" fill="none" xmlns="http://www.w3.org/2000/svg">
<path d="M50.7344 21.3672C50.7344 33.168 41.168 42.7344 29.3672 42.7344C17.5664 42.7344 8 33.168 8 21.3672C8 9.56642 17.5664 0 29.3672 0C41.168 0 50.7344 9.56642 50.7344 21.3672Z" fill="#A3CDFF" fill-opacity="0.6"/>
<path d="M0.252101 36L0 33.5284L4.53782 20.7443C4.84594 21 5.17507 21.2273 5.52521 21.4261C5.87535 21.625 6.21849 21.767 6.55462 21.8523L2.10084 34.2955L0.252101 36ZM17.395 36L15.5462 34.2955L11.0924 21.8523C11.4286 21.767 11.7717 21.625 12.1218 21.4261C12.472 21.2273 12.8011 21 13.1092 20.7443L17.6471 33.5284L17.395 36ZM8.82353 19.2955C7.56302 19.2955 6.4916 18.848 5.60924 17.9531C4.72689 17.0582 4.28571 15.9716 4.28571 14.6932C4.28571 13.5284 4.61485 12.5554 5.27311 11.7741C5.93137 10.9929 6.72269 10.4886 7.64706 10.2614V6H9.91597V10.2614C10.8403 10.4886 11.6457 10.9929 12.3319 11.7741C13.0182 12.5554 13.3613 13.5284 13.3613 14.6932C13.3613 15.9716 12.9202 17.0582 12.0378 17.9531C11.1555 18.848 10.084 19.2955 8.82353 19.2955ZM8.82353 16.9943C9.43978 16.9943 9.97199 16.767 10.4202 16.3125C10.8683 15.858 11.0924 15.3182 11.0924 14.6932C11.0924 14.0682 10.8683 13.5284 10.4202 13.0739C9.97199 12.6193 9.43978 12.392 8.82353 12.392C8.20728 12.392 7.67507 12.6193 7.22689 13.0739C6.77871 13.5284 6.55462 14.0682 6.55462 14.6932C6.55462 15.3182 6.77871 15.858 7.22689 16.3125C7.67507 16.767 8.20728 16.9943 8.82353 16.9943Z" fill="#0984DE"/>
</svg>
