<svg width="24" height="24" viewBox="0 0 24 24" fill="none" xmlns="http://www.w3.org/2000/svg">
<path d="M5.15575 19C4.54203 19 4.0293 18.7891 3.61757 18.3672C3.20586 17.9453 3 17.4199 3 16.7911V8.2089C3 7.58005 3.20586 7.05469 3.61757 6.63283C4.0293 6.21094 4.54203 6 5.15575 6H19.5943C20.208 6 20.7207 6.21094 21.1324 6.63283C21.5441 7.05469 21.75 7.58005 21.75 8.2089V16.7911C21.75 17.4199 21.5441 17.9453 21.1324 18.3672C20.7207 18.7891 20.208 19 19.5943 19H5.15575ZM5.15575 17.613H19.5943C19.7948 17.613 19.9786 17.5274 20.1457 17.3562C20.3128 17.1849 20.3964 16.9966 20.3964 16.7911V8.24178C20.3964 7.79995 20.0382 7.44178 19.5964 7.44178H5.15361C4.71178 7.44178 4.35361 7.79995 4.35361 8.24178V16.7911C4.35361 16.9966 4.43717 17.1849 4.60428 17.3562C4.77139 17.5274 4.95521 17.613 5.15575 17.613ZM7.86297 16.149L6.93549 15.1986L9.51738 12.5274L6.91043 9.85616L7.86297 8.90582L11.3974 12.5274L7.86297 16.149ZM12.7009 16.3031V14.9161H18.0652V16.3031H12.7009Z" fill="#1695F1"/>
</svg>
