<svg width="24" height="24" viewBox="0 0 24 24" fill="none" xmlns="http://www.w3.org/2000/svg">
<path d="M5.89706 20C5.35699 20 4.90579 19.8188 4.54346 19.4565C4.18115 19.0942 4 18.643 4 18.1029V6.89706C4 6.35699 4.18115 5.90579 4.54346 5.54349C4.90579 5.18116 5.35699 5 5.89706 5H14.8529L19 9.14706V18.1029C19 18.643 18.8188 19.0942 18.4565 19.4565C18.0942 19.8188 17.643 20 17.1029 20H5.89706ZM5.89706 18.8088H17.1029C17.3088 18.8088 17.4779 18.7426 17.6103 18.6103C17.7426 18.4779 17.8088 18.3088 17.8088 18.1029V9.80882H14.1912V6.19118H5.89706C5.69118 6.19118 5.52206 6.25735 5.38971 6.38971C5.25735 6.52206 5.19118 6.69118 5.19118 6.89706V18.1029C5.19118 18.3088 5.25735 18.4779 5.38971 18.6103C5.52206 18.7426 5.69118 18.8088 5.89706 18.8088ZM7.30882 16.3824H15.6912V15.1912H7.30882V16.3824ZM7.30882 9.80882H11.5V8.61765H7.30882V9.80882ZM7.30882 13.0956H15.6912V11.9044H7.30882V13.0956Z" fill="#1695F1"/>
</svg>
