<svg width="24" height="24" viewBox="0 0 24 24" fill="none" xmlns="http://www.w3.org/2000/svg">
<path d="M7.37311 14.1146C7.37311 15.0446 6.62212 15.7962 5.69292 15.7962C4.76372 15.7962 4.01273 15.0446 4.01273 14.1146C4.01273 13.1847 4.76372 12.4331 5.69292 12.4331H7.37311V14.1146ZM8.21321 14.1146C8.21321 13.1847 8.96421 12.4331 9.8934 12.4331C10.8226 12.4331 11.5736 13.1847 11.5736 14.1146V18.3185C11.5736 19.2484 10.8226 20 9.8934 20C8.96421 20 8.21321 19.2484 8.21321 18.3185V14.1146Z" fill="#E01E5A"/>
<path d="M9.89341 7.36306C8.96421 7.36306 8.21321 6.61147 8.21321 5.68153C8.21321 4.75159 8.96421 4 9.89341 4C10.8226 4 11.5736 4.75159 11.5736 5.68153V7.36306H9.89341ZM9.89341 8.21656C10.8226 8.21656 11.5736 8.96816 11.5736 9.8981C11.5736 10.828 10.8226 11.5796 9.89341 11.5796H5.68019C4.751 11.5796 4 10.828 4 9.8981C4 8.96816 4.751 8.21656 5.68019 8.21656H9.89341Z" fill="#36C5F0"/>
<path d="M16.6269 9.8981C16.6269 8.96816 17.3779 8.21656 18.3071 8.21656C19.2363 8.21656 19.9873 8.96816 19.9873 9.8981C19.9873 10.828 19.2363 11.5796 18.3071 11.5796H16.6269V9.8981ZM15.7868 9.8981C15.7868 10.828 15.0358 11.5796 14.1066 11.5796C13.1774 11.5796 12.4264 10.828 12.4264 9.8981V5.68153C12.4264 4.75159 13.1774 4 14.1066 4C15.0358 4 15.7868 4.75159 15.7868 5.68153V9.8981Z" fill="#2EB67D"/>
<path d="M14.1066 16.6369C15.0358 16.6369 15.7868 17.3885 15.7868 18.3185C15.7868 19.2484 15.0358 20 14.1066 20C13.1774 20 12.4264 19.2484 12.4264 18.3185V16.6369H14.1066ZM14.1066 15.7962C13.1774 15.7962 12.4264 15.0446 12.4264 14.1146C12.4264 13.1847 13.1774 12.4331 14.1066 12.4331H18.3198C19.249 12.4331 20 13.1847 20 14.1146C20 15.0446 19.249 15.7962 18.3198 15.7962H14.1066Z" fill="#ECB22E"/>
</svg>
