<svg width="24" height="24" viewBox="0 0 24 24" fill="none" xmlns="http://www.w3.org/2000/svg">
<path d="M2 16.615V15.5661C2 14.8502 2.35796 14.2633 3.07388 13.8054C3.78981 13.3476 4.68887 13.1186 5.77108 13.1186L5.80854 13.1311C5.83351 13.1394 5.89595 13.1436 5.99584 13.1436C5.8127 13.4599 5.68367 13.7876 5.60875 14.1266C5.53383 14.4655 5.49636 14.8039 5.49636 15.1415V16.615H2ZM6.99481 16.615V15.2414C6.99481 14.8279 7.10719 14.4415 7.33195 14.0822C7.55672 13.7229 7.91052 13.4183 8.39335 13.1686C8.87618 12.9188 9.42145 12.7315 10.0292 12.6067C10.6369 12.4818 11.32 12.4194 12.0786 12.4194C12.8517 12.4194 13.538 12.4818 14.1374 12.6067C14.7368 12.7315 15.2779 12.9188 15.7607 13.1686C16.2435 13.4183 16.6015 13.7229 16.8346 14.0822C17.0677 14.4415 17.1842 14.8279 17.1842 15.2414V16.615H6.99481ZM18.6827 16.615V15.149C18.6827 14.7752 18.641 14.423 18.5578 14.0924C18.4745 13.7617 18.3497 13.4455 18.1832 13.1436C18.2997 13.1436 18.3714 13.1394 18.3983 13.1311C18.4252 13.1228 18.4367 13.1186 18.4329 13.1186C19.5351 13.1186 20.435 13.3507 21.1326 13.8147C21.8302 14.2787 22.179 14.8625 22.179 15.5661V16.615H18.6827ZM8.69304 15.2664H15.486V14.9917C15.3028 14.5755 14.9199 14.2674 14.3372 14.0676C13.7544 13.8679 13.0052 13.768 12.0895 13.768C11.1738 13.768 10.4246 13.872 9.84185 14.0801C9.25912 14.2883 8.87618 14.5921 8.69304 14.9917V15.2664ZM5.76666 12.2945C5.35337 12.2945 5.00105 12.1482 4.70968 11.8556C4.41832 11.563 4.27264 11.2113 4.27264 10.8004C4.27264 10.3979 4.41893 10.051 4.7115 9.75963C5.0041 9.46827 5.35583 9.32258 5.76671 9.32258C6.16921 9.32258 6.5203 9.46702 6.81999 9.75588C7.11968 10.0447 7.26952 10.3932 7.26952 10.8013C7.26952 11.1974 7.12549 11.5453 6.83744 11.845C6.54939 12.1446 6.19246 12.2945 5.76666 12.2945ZM18.4351 12.2945C18.0341 12.2945 17.6837 12.1456 17.384 11.8478C17.0843 11.55 16.9345 11.2034 16.9345 10.8079C16.9345 10.4004 17.0834 10.051 17.3812 9.75963C17.6789 9.46827 18.0297 9.32258 18.4334 9.32258C18.8493 9.32258 19.2029 9.46702 19.4943 9.75588C19.7857 10.0447 19.9314 10.3907 19.9314 10.7938C19.9314 11.2053 19.788 11.5583 19.5012 11.8528C19.2144 12.1472 18.8591 12.2945 18.4351 12.2945ZM12.0983 11.6951C11.4487 11.6951 10.8935 11.4669 10.4329 11.0104C9.97227 10.5539 9.74195 9.99966 9.74195 9.34756C9.74195 8.69574 9.97019 8.14152 10.4267 7.68491C10.8831 7.2283 11.4374 7 12.0895 7C12.7413 7 13.2955 7.22746 13.7522 7.68237C14.2088 8.13729 14.4371 8.68942 14.4371 9.33874C14.4371 9.9884 14.2096 10.5435 13.7547 11.0042C13.2998 11.4648 12.7476 11.6951 12.0983 11.6951ZM12.1145 10.3465C12.3809 10.3465 12.6098 10.2425 12.8013 10.0343C12.9927 9.82623 13.0885 9.58897 13.0885 9.32258C13.0885 9.05619 12.9927 8.82727 12.8013 8.6358C12.6098 8.44433 12.3725 8.3486 12.0895 8.3486C11.8398 8.3486 11.6108 8.44433 11.4027 8.6358C11.1946 8.82727 11.0905 9.06452 11.0905 9.34756C11.0905 9.5973 11.1946 9.82623 11.4027 10.0343C11.6108 10.2425 11.8481 10.3465 12.1145 10.3465Z" fill="#1695F1"/>
</svg>
