<svg width="56" height="43" viewBox="0 0 56 43" fill="none" xmlns="http://www.w3.org/2000/svg">
<path d="M55.7344 21.3672C55.7344 33.168 46.168 42.7344 34.3672 42.7344C22.5664 42.7344 13 33.168 13 21.3672C13 9.56642 22.5664 0 34.3672 0C46.168 0 55.7344 9.56642 55.7344 21.3672Z" fill="#A3CDFF" fill-opacity="0.6"/>
<path d="M16.862 34.6959C17.1104 34.6959 17.352 34.6423 17.5867 34.5351C17.8213 34.4279 18.0215 34.294 18.1871 34.1332L29.8236 22.8397C30.6242 22.0627 31.3144 21.2656 31.8942 20.4484C32.4739 19.6312 32.7638 18.8073 32.7638 17.9767C32.7638 16.9318 32.5429 15.9806 32.1012 15.1232C31.6595 14.2658 31.066 13.462 30.3206 12.7118L26.842 9.33579C26.4555 8.98748 25.9517 8.70615 25.3305 8.4918C24.7094 8.27745 24.0261 8.17028 23.2807 8.17028C22.5905 8.17028 21.9624 8.27745 21.3965 8.4918C20.8305 8.70615 20.3405 8.97408 19.9264 9.2956L18.6427 10.5415L21.6242 13.395C21.9003 13.6897 22.1419 14.0849 22.3489 14.5806C22.556 15.0763 22.6595 15.5519 22.6595 16.0074C22.6595 16.9184 22.3351 17.6887 21.6864 18.3183C21.0376 18.948 20.2439 19.2628 19.3052 19.2628C18.8359 19.2628 18.3666 19.2025 17.8973 19.0819C17.4279 18.9614 17 18.7135 16.6135 18.3384L13.9218 15.6859L6.55064 22.8397C6.35739 23.0273 6.21245 23.2282 6.11583 23.4426C6.0192 23.6569 5.97089 23.8847 5.97089 24.1258C5.97089 24.4741 6.06061 24.7287 6.24006 24.8894C6.41951 25.0502 6.68868 25.1306 7.04757 25.1306C7.29604 25.1306 7.5376 25.077 7.77227 24.9698C8.00693 24.8626 8.20708 24.7287 8.37273 24.5679L13.6733 19.4236L15.1641 20.8704L9.82211 26.0148C9.62886 26.2023 9.48392 26.4033 9.3873 26.6176C9.29067 26.832 9.24236 27.0597 9.24236 27.3008C9.24236 27.6224 9.33898 27.8769 9.53224 28.0645C9.72549 28.252 9.98776 28.3458 10.319 28.3458C10.5675 28.3458 10.8091 28.2922 11.0437 28.185C11.2784 28.0779 11.4786 27.9439 11.6442 27.7831L17.4417 22.1163L18.9325 23.5632L13.0936 29.1898C12.9555 29.3773 12.8244 29.5783 12.7002 29.7926C12.5759 30.007 12.5138 30.2347 12.5138 30.4759C12.5138 30.7974 12.6105 31.0519 12.8037 31.2395C12.997 31.4271 13.2592 31.5208 13.5905 31.5208C13.839 31.5208 14.0736 31.4739 14.2945 31.3802C14.5154 31.2864 14.7224 31.1457 14.9157 30.9582L20.7132 25.2913L22.204 26.7382L16.4065 32.3648C16.2132 32.5524 16.0683 32.7667 15.9716 33.0079C15.875 33.249 15.8267 33.4768 15.8267 33.6911C15.8267 34.0394 15.9233 34.294 16.1166 34.4547C16.3098 34.6155 16.5583 34.6959 16.862 34.6959ZM16.8206 36.625C15.8819 36.625 15.102 36.3437 14.4808 35.781C13.8597 35.2183 13.6181 34.5083 13.7562 33.6509C12.8175 33.7045 11.9893 33.4232 11.2715 32.8069C10.5537 32.1907 10.2776 31.3467 10.4433 30.2749C9.31138 30.3285 8.43484 30.0874 7.81368 29.5515C7.19251 29.0156 6.95095 28.2252 7.08899 27.1803C6.15034 27.1535 5.31521 26.8387 4.58362 26.2358C3.85203 25.633 3.48623 24.7153 3.48623 23.4828C3.48623 23.1077 3.59666 22.6656 3.81752 22.1565C4.03837 21.6474 4.30064 21.2455 4.60433 20.9508L13.4663 12.3099L17.8144 16.5299C18.0077 16.6906 18.2078 16.8447 18.4149 16.992C18.6219 17.1394 18.8773 17.2131 19.181 17.2131C19.4847 17.2131 19.7608 17.1059 20.0092 16.8916C20.2577 16.6772 20.3819 16.3825 20.3819 16.0074C20.3819 15.7127 20.3129 15.4648 20.1749 15.2639C20.0368 15.0629 19.885 14.8821 19.7193 14.7213L14.1703 9.33579C13.7285 8.9071 13.2454 8.60567 12.7209 8.43151C12.1963 8.25735 11.658 8.17028 11.1059 8.17028C10.5537 8.17028 10.0292 8.25735 9.53224 8.43151C9.0353 8.60567 8.56598 8.9071 8.12426 9.33579L4.5215 12.7922C3.61046 13.6763 2.97549 14.5873 2.6166 15.5251C2.2577 16.4629 2.13347 17.4274 2.2439 18.4188C2.29911 18.4724 2.34052 18.4992 2.36813 18.4992H2.40954L0.504636 20.3479C0.477029 20.2408 0.401109 20.0063 0.276876 19.6446C0.152643 19.2829 0.062919 18.8743 0.00770437 18.4188C-0.0475103 17.1327 0.194054 15.8399 0.732397 14.5404C1.27074 13.2409 2.03684 12.1089 3.03071 11.1444L6.96475 7.32628C7.35126 6.92438 7.8896 6.60285 8.57978 6.36171C9.26997 6.12057 10.1258 6 11.1473 6C12.0031 6 12.8037 6.14067 13.5491 6.422C14.2945 6.70333 14.9709 7.15212 15.5782 7.76837L16.862 9.01427L18.1457 7.76837C18.9187 7.15212 19.7124 6.70333 20.5269 6.422C21.3413 6.14067 22.273 6 23.3221 6C24.592 6 25.5928 6.12727 26.3244 6.38181C27.056 6.63635 27.615 6.95117 28.0015 7.32628L31.9356 11.1444C32.9295 12.1089 33.6887 13.1606 34.2132 14.2993C34.7377 15.438 35 16.6504 35 17.9365C35 19.0083 34.6687 20.0398 34.0061 21.0312C33.3436 22.0225 32.4739 23.0407 31.3972 24.0856L19.6779 35.4997C19.3466 35.8212 18.9187 36.0891 18.3942 36.3035C17.8696 36.5178 17.3451 36.625 16.8206 36.625Z" fill="#0984DE"/>
</svg>
