<svg width="24" height="24" viewBox="0 0 24 24" fill="none" xmlns="http://www.w3.org/2000/svg">
<path d="M5.7246 17.7112C5.23362 17.7112 4.82344 17.5465 4.49406 17.2172C4.16469 16.8878 4 16.4776 4 15.9866V7.7246C4 7.23362 4.16469 6.82345 4.49406 6.49408C4.82344 6.16469 5.23362 6 5.7246 6H17.2754C17.7664 6 18.1766 6.16469 18.5059 6.49408C18.8353 6.82345 19 7.23362 19 7.7246V15.9866C19 16.4776 18.8353 16.8878 18.5059 17.2172C18.1766 17.5465 17.7664 17.7112 17.2754 17.7112H5.7246ZM5.7246 16.6283H17.2754C17.4358 16.6283 17.5829 16.5615 17.7166 16.4278C17.8503 16.2941 17.9171 16.1471 17.9171 15.9866V7.7246C17.9171 7.56417 17.8503 7.41711 17.7166 7.28342C17.5829 7.14973 17.4358 7.08289 17.2754 7.08289H5.7246C5.56417 7.08289 5.41711 7.14973 5.28342 7.28342C5.14973 7.41711 5.08289 7.56417 5.08289 7.7246V15.9866C5.08289 16.1471 5.14973 16.2941 5.28342 16.4278C5.41711 16.5615 5.56417 16.6283 5.7246 16.6283Z" fill="#1695F1"/>
<path d="M13.9064 11.8556L9.89575 14.262V9.4492L13.9064 11.8556Z" fill="#1695F1"/>
</svg>
