<svg width="24" height="24" viewBox="0 0 24 24" fill="none" xmlns="http://www.w3.org/2000/svg">
<path d="M7.60229 17.2571L13.263 18.8952L17.9517 17.4476C17.9644 17.1936 17.9148 17.0349 17.8029 16.9714C17.691 16.9079 17.5754 16.8762 17.4562 16.8762H13.7181C13.4783 16.8762 13.19 16.8667 12.8532 16.8476C12.5165 16.8286 12.183 16.7619 11.8526 16.6476L10.0991 16.0381L10.4994 15.1238L12.0813 15.6952C12.4117 15.8349 12.7421 15.8984 13.0724 15.8857C13.4028 15.873 13.7014 15.8603 13.9682 15.8476H14.216C14.216 15.5936 14.1747 15.4063 14.0921 15.2857C14.0095 15.1651 13.8729 15.073 13.6823 15.0095L9.2033 13.3714C9.16518 13.3587 9.13024 13.3492 9.09847 13.3429C9.06671 13.3365 9.03177 13.3333 8.99365 13.3333H7.60229V17.2571ZM4 19.3905V12.3048H8.99027C9.09417 12.3048 9.19441 12.3155 9.29098 12.3371C9.38755 12.3587 9.48539 12.386 9.5845 12.419L14.0254 14.0571C14.3431 14.1841 14.6131 14.3948 14.8355 14.6893C15.0578 14.9837 15.169 15.3698 15.169 15.8476H17.4562C17.9687 15.8476 18.3541 16.0222 18.6125 16.3714C18.8708 16.7206 19 17.1048 19 17.5238V18.2476L13.3011 20L7.60229 18.3238V19.3905H4ZM5.04828 18.3619H6.57306V13.3143H5.04828V18.3619Z" fill="#1695F1"/>
<path d="M16.4478 8.56572L17.9986 7.26123L19 7.33111L17.2415 8.77537L17.7788 11L16.924 10.5108L16.4478 8.56572ZM15.3976 5.51414L15.1533 4.93178L15.5319 4.03494L16.2157 5.57238L15.3976 5.51414ZM12.4179 9.42762L13.7246 8.6822L15.0312 9.43927L14.6771 8.02995L15.8372 7.07488L14.3229 6.94676L13.7246 5.60732L13.1262 6.94676L11.6119 7.06323L12.772 8.0183L12.4179 9.42762ZM11.4166 10.7438L12.0393 8.2396L10 6.5624L12.6744 6.35275L13.7246 4L14.7748 6.35275L17.4491 6.5624L15.4098 8.2396L16.0326 10.7438L13.7246 9.41597L11.4166 10.7438Z" fill="#1695F1"/>
</svg>
