<svg width="58" height="43" viewBox="0 0 58 43" fill="none" xmlns="http://www.w3.org/2000/svg">
<path d="M57.7344 21.3672C57.7344 33.168 48.168 42.7344 36.3672 42.7344C24.5664 42.7344 15 33.168 15 21.3672C15 9.56642 24.5664 0 36.3672 0C48.168 0 57.7344 9.56642 57.7344 21.3672Z" fill="#A3CDFF" fill-opacity="0.6"/>
<g clip-path="url(#clip0_410_112)">
<path d="M30 25H20V27H30V25Z" fill="#0984DE"/>
<path d="M26 29H20V31H26V29Z" fill="#0984DE"/>
<path d="M29.9996 21.9996V20.9996C29.9969 18.0954 29.0903 15.264 27.4055 12.8984C25.7207 10.5328 23.3414 8.75032 20.5976 7.79828C17.8539 6.84624 14.8818 6.77188 12.0939 7.58551C9.30601 8.39915 6.84049 10.0604 5.03952 12.3388C3.23856 14.6172 2.19146 17.3997 2.04355 20.3001C1.89564 23.2006 2.65424 26.0751 4.21409 28.5249C5.77393 30.9747 8.05766 32.8782 10.7483 33.9712C13.439 35.0642 16.4032 35.2926 19.2296 34.6246L18.7696 32.6783C17.8618 32.8923 16.9323 33.0001 15.9996 32.9996C15.8096 32.9996 15.6246 32.981 15.4366 32.9723C13.2667 29.7195 12.0823 25.9093 12.0255 21.9996H29.9996ZM27.9581 19.9996H21.9747C21.8635 16.3152 20.9149 12.7044 19.201 9.44099C21.5631 10.0981 23.6679 11.4616 25.2331 13.3488C26.7984 15.236 27.7492 17.5567 27.9581 19.9996ZM16.5626 9.02689C18.7324 12.2797 19.9169 16.0899 19.9737 19.9996H12.0255C12.0823 16.0899 13.2667 12.2797 15.4366 9.02689C15.6246 9.01819 15.8096 8.99959 15.9996 8.99959C16.1896 8.99959 16.3746 9.01819 16.5626 9.02689ZM12.7982 9.44099C11.0842 12.7044 10.1357 16.3152 10.0245 19.9996H4.04109C4.25 17.5567 5.20082 15.236 6.76603 13.3488C8.33125 11.4616 10.436 10.0981 12.7982 9.44099ZM12.7982 32.5582C10.436 31.9011 8.33125 30.5376 6.76603 28.6504C5.20082 26.7632 4.25 24.4425 4.04109 21.9996H10.0245C10.1357 25.684 11.0842 29.2948 12.7982 32.5582Z" fill="#0984DE"/>
</g>
<defs>
<clipPath id="clip0_410_112">
<rect width="32" height="32" fill="white" transform="translate(0 5)"/>
</clipPath>
</defs>
</svg>
