<svg width="61" height="43" viewBox="0 0 61 43" fill="none" xmlns="http://www.w3.org/2000/svg">
<path d="M60.7344 21.3672C60.7344 33.168 51.168 42.7344 39.3672 42.7344C27.5664 42.7344 18 33.168 18 21.3672C18 9.56642 27.5664 0 39.3672 0C51.168 0 60.7344 9.56642 60.7344 21.3672Z" fill="#A3CDFF" fill-opacity="0.6"/>
<path d="M23.5605 20.4991C23.2947 20.4992 23.0357 20.4152 22.8205 20.2591L15.0705 14.5991C14.8476 14.39 14.709 14.1064 14.681 13.802C14.653 13.4976 14.7375 13.1935 14.9186 12.9472C15.0996 12.7009 15.3646 12.5295 15.6635 12.4653C15.9624 12.4012 16.2744 12.4488 16.5405 12.5991L24.2905 18.2591C24.5554 18.455 24.733 18.7468 24.7853 19.072C24.8377 19.3972 24.7606 19.73 24.5705 19.9991C24.452 20.1546 24.2992 20.2806 24.124 20.3673C23.9488 20.454 23.756 20.4991 23.5605 20.4991Z" fill="#0984DE"/>
<path d="M8.5708 9.56018C8.30499 9.56023 8.04597 9.47623 7.8308 9.32018L2.6008 5.51018C2.46794 5.41317 2.35553 5.2909 2.27003 5.15037C2.18452 5.00983 2.12759 4.8538 2.10251 4.69123C2.07742 4.52865 2.08468 4.36272 2.12385 4.20295C2.16303 4.04318 2.23335 3.89271 2.3308 3.76018C2.42689 3.62765 2.54827 3.51546 2.68793 3.43008C2.8276 3.34469 2.98279 3.28781 3.14455 3.26271C3.30632 3.23761 3.47145 3.24479 3.63042 3.28383C3.78939 3.32287 3.93906 3.393 4.0708 3.49018L9.3008 7.30018C9.56849 7.49624 9.74805 7.78998 9.80047 8.11763C9.85289 8.44528 9.77396 8.78038 9.5808 9.05018C9.46332 9.20746 9.31098 9.33538 9.13573 9.42387C8.96049 9.51236 8.76711 9.55901 8.5708 9.56018Z" fill="#0984DE"/>
<path d="M12.0801 28.7891C11.7486 28.7891 11.4306 28.6574 11.1962 28.4229C10.9618 28.1885 10.8301 27.8706 10.8301 27.5391V15.5391C10.8301 15.2075 10.9618 14.8896 11.1962 14.6552C11.4306 14.4208 11.7486 14.2891 12.0801 14.2891C12.4116 14.2891 12.7295 14.4208 12.964 14.6552C13.1984 14.8896 13.3301 15.2075 13.3301 15.5391V27.5391C13.3301 27.8706 13.1984 28.1885 12.964 28.4229C12.7295 28.6574 12.4116 28.7891 12.0801 28.7891Z" fill="#0984DE"/>
<path d="M12.0696 16.8291C10.9368 16.8272 9.8299 16.4894 8.88892 15.8586C7.94795 15.2278 7.21507 14.3322 6.78292 13.285C6.35076 12.2378 6.23871 11.086 6.46093 9.97515C6.68316 8.8643 7.22967 7.84425 8.03142 7.04389C8.83318 6.24354 9.85418 5.6988 10.9654 5.47851C12.0767 5.25823 13.2283 5.37229 14.2747 5.80627C15.3211 6.24025 16.2154 6.97468 16.8446 7.91676C17.4738 8.85883 17.8096 9.96627 17.8096 11.0991C17.807 12.6197 17.201 14.0772 16.1249 15.1515C15.0487 16.2258 13.5902 16.8291 12.0696 16.8291ZM12.0696 7.82913C11.4329 7.83115 10.811 8.0213 10.2821 8.37568C9.75312 8.73005 9.34069 9.23286 9.09662 9.82091C8.85254 10.409 8.78771 11.056 8.91026 11.6808C9.03281 12.3056 9.33727 12.8802 9.7854 13.3325C10.2335 13.7848 10.8053 14.0946 11.429 14.2229C12.0526 14.3512 12.7002 14.2923 13.2905 14.0536C13.8808 13.815 14.3874 13.4072 14.7466 12.8816C15.1059 12.3559 15.3017 11.7358 15.3096 11.0991C15.3096 10.6741 15.2257 10.2533 15.0628 9.86075C14.8998 9.46822 14.661 9.1117 14.36 8.81164C14.059 8.51157 13.7018 8.27386 13.3088 8.11213C12.9157 7.95039 12.4946 7.86782 12.0696 7.86913V7.82913Z" fill="#0984DE"/>
<path d="M12.0696 37.7491C10.9376 37.7471 9.83152 37.4098 8.89098 36.7799C7.95044 36.15 7.21756 35.2555 6.78482 34.2095C6.35208 33.1635 6.23887 32.0127 6.45947 30.9024C6.68008 29.7921 7.22461 28.772 8.02436 27.9709C8.82412 27.1697 9.84325 26.6234 10.9532 26.4009C12.0631 26.1783 13.2141 26.2895 14.2608 26.7205C15.3076 27.1514 16.2033 27.8827 16.8349 28.8221C17.4665 29.7616 17.8056 30.8671 17.8096 31.9991C17.8109 32.7537 17.6634 33.5012 17.3755 34.1987C17.0876 34.8963 16.665 35.5302 16.1319 36.0643C15.5988 36.5984 14.9656 37.0221 14.2685 37.3112C13.5714 37.6003 12.8242 37.7491 12.0696 37.7491ZM12.0696 28.7491C11.432 28.751 10.8093 28.9417 10.2799 29.2969C9.7505 29.6521 9.33805 30.1561 9.09454 30.7453C8.85102 31.3345 8.78732 31.9826 8.91147 32.608C9.03561 33.2333 9.34205 33.808 9.79217 34.2595C10.2423 34.711 10.816 35.0192 11.4409 35.1453C12.0659 35.2713 12.7142 35.2096 13.3042 34.9679C13.8941 34.7262 14.3994 34.3153 14.7562 33.787C15.1131 33.2587 15.3056 32.6366 15.3096 31.9991C15.3043 31.1441 14.9603 30.3262 14.3529 29.7245C13.7456 29.1228 12.9245 28.7864 12.0696 28.7891V28.7491Z" fill="#0984DE"/>
<path d="M27.1792 27.6202C26.0459 27.6202 24.9381 27.2841 23.9958 26.6545C23.0535 26.0249 22.3191 25.13 21.8854 24.0829C21.4517 23.0359 21.3382 21.8838 21.5593 20.7723C21.7804 19.6608 22.3261 18.6398 23.1275 17.8384C23.9289 17.0371 24.9498 16.4914 26.0614 16.2703C27.1729 16.0492 28.325 16.1626 29.372 16.5963C30.419 17.03 31.3139 17.7644 31.9435 18.7067C32.5732 19.649 32.9092 20.7569 32.9092 21.8902C32.9066 23.409 32.302 24.8649 31.228 25.939C30.154 27.013 28.6981 27.6175 27.1792 27.6202ZM27.1792 18.6202C26.5404 18.6202 25.9159 18.8096 25.3847 19.1645C24.8536 19.5194 24.4396 20.0239 24.1951 20.6141C23.9506 21.2043 23.8867 21.8537 24.0113 22.4803C24.1359 23.1069 24.4435 23.6824 24.8953 24.1341C25.347 24.5858 25.9225 24.8935 26.5491 25.0181C27.1756 25.1427 27.8251 25.0788 28.4153 24.8343C29.0055 24.5898 29.51 24.1758 29.8649 23.6446C30.2198 23.1135 30.4092 22.489 30.4092 21.8502C30.3987 21.0005 30.0538 20.1891 29.4491 19.592C28.8445 18.9949 28.029 18.6601 27.1792 18.6602V18.6202Z" fill="#0984DE"/>
</svg>
