<svg width="59" height="43" viewBox="0 0 59 43" fill="none" xmlns="http://www.w3.org/2000/svg">
<path d="M58.7344 21.3672C58.7344 33.168 49.168 42.7344 37.3672 42.7344C25.5664 42.7344 16 33.168 16 21.3672C16 9.56642 25.5664 0 37.3672 0C49.168 0 58.7344 9.56642 58.7344 21.3672Z" fill="#A3CDFF" fill-opacity="0.6"/>
<path d="M29 7H3C2.44727 7 2 7.44727 2 8V28C2 28.5527 2.44727 29 3 29H12V33H9C8.44727 33 8 33.4473 8 34C8 34.5527 8.44727 35 9 35H13H19H23C23.5527 35 24 34.5527 24 34C24 33.4473 23.5527 33 23 33H20V29H29C29.5527 29 30 28.5527 30 28V8C30 7.44727 29.5527 7 29 7ZM18 33H14V29H18V33ZM28 27H19H13H4V9H28V27Z" fill="#0984DE"/>
<path d="M7 19.0003H11C11.3145 19.0003 11.6113 18.8519 11.7998 18.5999L13.7051 16.0609L16.0635 22.3519C16.1826 22.6702 16.4561 22.9056 16.7881 22.9778C16.8584 22.9925 16.9297 23.0003 17 23.0003C17.2627 23.0003 17.5176 22.8968 17.707 22.7073L21.4141 19.0003H25C25.5527 19.0003 26 18.553 26 18.0003C26 17.4476 25.5527 17.0003 25 17.0003H21C20.7344 17.0003 20.4805 17.1058 20.293 17.2933L17.3906 20.1946L14.9365 13.6487C14.8076 13.3069 14.5039 13.0618 14.1416 13.0101C13.7812 12.9583 13.4189 13.1087 13.2002 13.4007L10.5 17.0003H7C6.44727 17.0003 6 17.4476 6 18.0003C6 18.553 6.44727 19.0003 7 19.0003Z" fill="#0984DE"/>
</svg>
