<svg width="54" height="43" viewBox="0 0 54 43" fill="none" xmlns="http://www.w3.org/2000/svg">
<path d="M53.7344 21.3672C53.7344 33.168 44.168 42.7344 32.3672 42.7344C20.5664 42.7344 11 33.168 11 21.3672C11 9.56642 20.5664 0 32.3672 0C44.168 0 53.7344 9.56642 53.7344 21.3672Z" fill="#A3CDFF" fill-opacity="0.6"/>
<g clip-path="url(#clip0_410_113)">
<path d="M20.988 18.5111H19.1199V14.0615C19.1199 9.61854 15.5099 6.00391 11.0685 6.00391C6.62705 6.00391 3.01709 9.6209 3.01709 14.0667V18.5111H1.16975C0.529657 18.5111 0 19.0195 0 19.6595V33.1035C0 34.7011 1.31054 35.9996 2.90819 35.9996H19.2495C20.8472 35.9996 22.137 34.7011 22.137 33.1035V19.6595C22.137 19.0195 21.6281 18.5111 20.988 18.5111ZM5.33253 14.0667C5.33253 10.899 7.90519 8.32184 11.0685 8.32184C14.2318 8.32184 16.8045 10.8966 16.8045 14.0615V18.5111H5.33253V14.0667ZM19.8216 33.1035C19.8216 33.423 19.5691 33.6842 19.2495 33.6842H2.90819C2.58866 33.6842 2.31544 33.423 2.31544 33.1035V20.8265H19.8216V33.1035Z" fill="#0984DE"/>
<path d="M11.0679 30.7265C11.708 30.7265 12.2256 30.2076 12.2256 29.5675V25.3953C12.2256 24.7552 11.708 24.2363 11.0679 24.2363C10.4278 24.2363 9.91016 24.7552 9.91016 25.3953V29.5675C9.91016 30.2076 10.4278 30.7265 11.0679 30.7265Z" fill="#0984DE"/>
</g>
<defs>
<clipPath id="clip0_410_113">
<rect width="22.137" height="30" fill="white" transform="translate(0 6)"/>
</clipPath>
</defs>
</svg>
