<svg width="539" height="440" viewBox="0 0 539 440" fill="none" xmlns="http://www.w3.org/2000/svg">
<path fill-rule="evenodd" clip-rule="evenodd" d="M502.846 98.7681C513.964 94.2233 525.768 91.0238 538.059 89.4014V440H186.656C104.032 440 37.0586 368.941 37.0586 288.654C37.0586 208.367 98.8467 142.724 176.934 137.649C194.193 58.916 263.567 0 346.599 0C415.252 0 474.592 40.2892 502.846 98.7681Z" fill="#E7F1FD"/>
<g filter="url(#filter0_d_164_3183)">
<path opacity="0.2" d="M263.267 181.213H188.825C186.431 181.213 184.491 183.153 184.491 185.545V254.663C184.491 257.056 186.431 258.995 188.825 258.995H263.267C265.661 258.995 267.601 257.056 267.601 254.663V185.545C267.601 183.153 265.661 181.213 263.267 181.213Z" fill="black"/>
<path opacity="0.2" d="M10 159.27H43.6684V305.451C43.6684 308.345 41.3174 310.695 38.4225 310.695H10V159.27Z" fill="black"/>
<path d="M257.206 170.154H182.763C180.37 170.154 178.43 172.094 178.43 174.487V248.77C178.43 251.163 180.37 253.102 182.763 253.102H257.206C259.599 253.102 261.539 251.163 261.539 248.77V174.487C261.539 172.094 259.599 170.154 257.206 170.154Z" fill="#407BFF"/>
<path opacity="0.5" d="M257.206 170.154H182.763C180.37 170.154 178.43 172.094 178.43 174.487V248.77C178.43 251.163 180.37 253.102 182.763 253.102H257.206C259.599 253.102 261.539 251.163 261.539 248.77V174.487C261.539 172.094 259.599 170.154 257.206 170.154Z" fill="white"/>
<path d="M182.491 170.154H257.557C259.758 170.154 261.548 171.943 261.548 174.145V180.459H178.438V174.215C178.438 171.978 180.254 170.154 182.5 170.154H182.491Z" fill="#407BFF"/>
<path d="M252.951 175.451C252.951 176.653 251.977 177.635 250.766 177.635C249.556 177.635 248.582 176.662 248.582 175.451C248.582 174.241 249.556 173.268 250.766 173.268C251.977 173.268 252.951 174.241 252.951 175.451Z" fill="white"/>
<path d="M246.749 175.373C246.749 176.575 245.775 177.557 244.565 177.557C243.354 177.557 242.38 176.584 242.38 175.373C242.38 174.163 243.354 173.189 244.565 173.189C245.775 173.189 246.749 174.163 246.749 175.373Z" fill="white"/>
<path d="M240.547 175.373C240.547 176.575 239.573 177.557 238.363 177.557C237.152 177.557 236.178 176.584 236.178 175.373C236.178 174.163 237.152 173.189 238.363 173.189C239.573 173.189 240.547 174.163 240.547 175.373Z" fill="white"/>
<path d="M241.363 193.168V205.306H240.17C239.468 202.508 238.679 200.491 237.819 199.272C236.959 198.053 235.775 197.071 234.284 196.343C233.441 195.948 231.976 195.746 229.889 195.746H226.546V230.336C226.546 232.625 226.669 234.063 226.924 234.633C227.178 235.203 227.669 235.712 228.415 236.142C229.152 236.571 230.161 236.791 231.441 236.791H232.933V238.01H209.449V236.791H210.94C212.239 236.791 213.291 236.563 214.081 236.098C214.651 235.791 215.107 235.265 215.44 234.511C215.686 233.984 215.8 232.59 215.8 230.345V195.755H212.563C209.545 195.755 207.344 196.395 205.984 197.676C204.063 199.465 202.852 202.008 202.343 205.315H201.089V193.177H241.372L241.363 193.168Z" fill="#263238"/>
<path d="M149.814 170.154H96.8292C94.4358 170.154 92.4956 172.094 92.4956 174.487V227.353C92.4956 229.746 94.4358 231.686 96.8292 231.686H149.814C152.208 231.686 154.148 229.746 154.148 227.353V174.487C154.148 172.094 152.208 170.154 149.814 170.154Z" fill="#407BFF"/>
<path opacity="0.5" d="M149.814 170.154H96.8292C94.4358 170.154 92.4956 172.094 92.4956 174.487V227.353C92.4956 229.746 94.4358 231.686 96.8292 231.686H149.814C152.208 231.686 154.148 229.746 154.148 227.353V174.487C154.148 172.094 152.208 170.154 149.814 170.154Z" fill="white"/>
<path d="M96.5484 170.154H150.148C152.35 170.154 154.139 171.943 154.139 174.145V177.802H92.4868V174.215C92.4868 171.978 94.3027 170.154 96.5484 170.154Z" fill="#407BFF"/>
<path d="M147.77 174.083C147.77 174.978 147.042 175.706 146.147 175.706C145.253 175.706 144.524 174.978 144.524 174.083C144.524 173.189 145.253 172.461 146.147 172.461C147.042 172.461 147.77 173.189 147.77 174.083Z" fill="white"/>
<path d="M143.174 174.023C143.174 174.917 142.445 175.645 141.551 175.645C140.656 175.645 139.928 174.917 139.928 174.023C139.928 173.128 140.656 172.4 141.551 172.4C142.445 172.4 143.174 173.128 143.174 174.023Z" fill="white"/>
<path d="M138.568 174.023C138.568 174.917 137.84 175.645 136.945 175.645C136.05 175.645 135.322 174.917 135.322 174.023C135.322 173.128 136.05 172.4 136.945 172.4C137.84 172.4 138.568 173.128 138.568 174.023Z" fill="white"/>
<path d="M139.805 187.195H106.83V220.171H139.805V187.195Z" fill="white"/>
<path d="M138.568 188.082H107.663V218.979H138.568V188.082Z" fill="#407BFF"/>
<path d="M123.322 219.425C123.322 219.425 139.112 206.191 139.112 206.419V219.425H123.322Z" fill="white"/>
<path d="M184.436 91.165C183.515 92.5595 182.901 94.0943 182.576 95.6817L180.059 95.9184V100.803L182.576 101.04C182.901 102.619 183.524 104.154 184.436 105.557L182.822 107.504L186.278 110.959L188.226 109.346C189.62 110.266 191.156 110.88 192.743 111.205L192.98 113.722H197.867L198.103 111.205C199.682 110.88 201.218 110.258 202.621 109.346L204.569 110.959L208.025 107.504L206.411 105.557C207.332 104.162 207.946 102.628 208.271 101.04L210.788 100.803V95.9184L208.271 95.6817C207.946 94.103 207.323 92.5682 206.411 91.165L208.025 89.218L204.569 85.7626L202.621 87.3763C201.226 86.4554 199.691 85.8415 198.103 85.517L197.867 83H192.98L192.743 85.517C191.164 85.8415 189.629 86.4642 188.226 87.3763L186.278 85.7626L182.822 89.218L184.436 91.165ZM200.086 93.6821C202.665 96.2605 202.665 100.444 200.086 103.022C197.507 105.601 193.322 105.601 190.735 103.022C188.155 100.444 188.155 96.2605 190.735 93.6733C193.314 91.0949 197.498 91.0949 200.077 93.6733L200.086 93.6821Z" fill="#024473"/>
<path d="M49.493 79.4356C48.0192 81.672 47.0367 84.1364 46.5016 86.671L42.4575 87.0481V94.8711L46.5016 95.2482C47.0279 97.7828 48.0192 100.247 49.493 102.484L46.9139 105.597L52.4493 111.131L55.5635 108.553C57.8004 110.026 60.2655 111.008 62.8007 111.534L63.1779 115.577H71.0028L71.3801 111.534C73.9153 111.008 76.3803 110.017 78.6173 108.544L81.7315 111.122L87.2668 105.588L84.6878 102.475C86.1615 100.238 87.144 97.774 87.6704 95.2394L91.7144 94.8623V87.0393L87.6704 86.6622C87.144 84.1276 86.1528 81.6632 84.679 79.4268L87.2581 76.3134L81.7227 70.7795L78.6085 73.3579C76.3715 71.8845 73.9065 70.8935 71.3713 70.3673L70.9941 66.3242H63.1691L62.7919 70.3673C60.2567 70.8935 57.7916 71.8845 55.5547 73.3579L52.4405 70.7795L46.9051 76.3134L49.4842 79.4268L49.493 79.4356ZM74.5908 83.4699C78.7313 87.6094 78.7313 94.3186 74.5908 98.4493C70.4502 102.589 63.7393 102.589 59.6075 98.4493C55.467 94.3098 55.467 87.6006 59.6075 83.4699C63.7481 79.3304 70.459 79.3304 74.5908 83.4699Z" fill="#024473"/>
<path d="M54.4448 360.174C53.5237 361.568 52.9096 363.103 52.585 364.69L50.0586 364.918V369.803L52.5763 370.04C52.9008 371.619 53.5237 373.154 54.436 374.557L52.8219 376.504L56.2782 379.959L58.2257 378.346C59.6205 379.266 61.1557 379.88 62.7435 380.205L62.9803 382.722H67.8665L68.1034 380.205C69.6824 379.88 71.2176 379.258 72.6212 378.346L74.5686 379.959L78.0249 376.504L76.4108 374.557C77.3319 373.162 77.946 371.628 78.2706 370.04L80.7882 369.803V364.918L78.2706 364.682C77.946 363.103 77.3232 361.568 76.4108 360.165L78.0249 358.218L74.5686 354.763L72.6212 356.376C71.2263 355.455 69.6912 354.842 68.1034 354.517L67.8665 352H62.9803L62.7435 354.517C61.1644 354.842 59.6293 355.464 58.2257 356.376L56.2782 354.763L52.8219 358.218L54.436 360.165L54.4448 360.174ZM70.0947 362.691C72.6738 365.269 72.6738 369.453 70.0947 372.031C67.5156 374.609 63.3312 374.609 60.7434 372.031C58.1643 369.453 58.1643 365.269 60.7434 362.682C63.3224 360.104 67.5069 360.104 70.0859 362.682L70.0947 362.691Z" fill="#024473"/>
<path d="M240.436 333.165C239.515 334.559 238.901 336.094 238.576 337.682L236.059 337.918V342.803L238.576 343.04C238.901 344.619 239.524 346.154 240.436 347.557L238.822 349.504L242.278 352.959L244.226 351.346C245.62 352.266 247.156 352.88 248.743 353.205L248.98 355.722H253.867L254.103 353.205C255.682 352.88 257.218 352.258 258.621 351.346L260.569 352.959L264.025 349.504L262.411 347.557C263.332 346.162 263.946 344.628 264.271 343.04L266.788 342.803V337.918L264.271 337.682C263.946 336.103 263.323 334.568 262.411 333.165L264.025 331.218L260.569 327.763L258.621 329.376C257.226 328.455 255.691 327.842 254.103 327.517L253.867 325H248.98L248.743 327.517C247.164 327.842 245.629 328.464 244.226 329.376L242.278 327.763L238.822 331.218L240.436 333.165ZM256.086 335.682C258.665 338.26 258.665 342.444 256.086 345.022C253.507 347.601 249.322 347.601 246.735 345.022C244.155 342.444 244.155 338.26 246.735 335.673C249.314 333.095 253.498 333.095 256.086 335.673V335.682Z" fill="#024473"/>
<path d="M23.7812 143.992L26.7024 148.86C27.0621 149.482 27.7288 149.851 28.4482 149.833C29.9482 149.719 31.4571 149.745 32.9572 149.903C34.4397 150.219 34.6151 144.062 34.6151 144.062L23.79 143.992H23.7812Z" fill="#112E43"/>
<path d="M21.5791 144.062C22.7546 142.369 24.6845 141.36 26.746 141.352H30.255L34.6061 144.062H21.5791Z" fill="#112E43"/>
<path d="M318.7 101.852H28.1497C18.5957 101.852 10.8506 109.595 10.8506 119.146V319.474C10.8506 329.026 18.5957 336.769 28.1497 336.769H318.7C328.254 336.769 335.999 329.026 335.999 319.474V119.146C335.999 109.595 328.254 101.852 318.7 101.852Z" fill="#035B9B"/>
<path d="M318.7 101.852H28.1497C18.5957 101.852 10.8506 109.595 10.8506 119.146V319.474C10.8506 329.026 18.5957 336.769 28.1497 336.769H318.7C328.254 336.769 335.999 329.026 335.999 319.474V119.146C335.999 109.595 328.254 101.852 318.7 101.852Z" fill="#035B9B"/>
<path d="M312.612 114.742H34.1065C28.4526 114.742 23.8691 119.324 23.8691 124.977V310.352C23.8691 316.004 28.4526 320.587 34.1065 320.587H312.612C318.266 320.587 322.849 316.004 322.849 310.352V124.977C322.849 119.324 318.266 114.742 312.612 114.742Z" fill="#64ABFF"/>
<path opacity="0.7" d="M34.2383 114.742H312.744C318.393 114.742 322.981 119.329 322.981 124.977V310.343C322.981 315.991 318.393 320.578 312.744 320.578H34.2383C28.5889 320.578 24.001 315.991 24.001 310.343V124.977C24.001 119.329 28.5889 114.742 34.2383 114.742Z" fill="white"/>
<path d="M30.2642 114.742H313.823C318.805 114.742 322.849 118.785 322.849 123.767V130.204H23.8691V121.136C23.8691 117.61 26.7377 114.742 30.2642 114.742Z" fill="#64ABFF"/>
<path d="M311.34 122.468C311.34 124.284 309.866 125.757 308.05 125.757C306.235 125.757 304.761 124.284 304.761 122.468C304.761 120.653 306.235 119.18 308.05 119.18C309.866 119.18 311.34 120.653 311.34 122.468Z" fill="white"/>
<path d="M301.997 122.468C301.997 124.284 300.523 125.757 298.708 125.757C296.892 125.757 295.418 124.284 295.418 122.468C295.418 120.653 296.892 119.18 298.708 119.18C300.523 119.18 301.997 120.653 301.997 122.468Z" fill="white"/>
<path d="M289.365 125.757C291.182 125.757 292.655 124.285 292.655 122.468C292.655 120.652 291.182 119.18 289.365 119.18C287.549 119.18 286.076 120.652 286.076 122.468C286.076 124.285 287.549 125.757 289.365 125.757Z" fill="white"/>
<path d="M76.126 107.85H101.917" stroke="#64ABFF" stroke-linecap="round" stroke-linejoin="round"/>
<path d="M109.022 107.85H114.391" stroke="#64ABFF" stroke-linecap="round" stroke-linejoin="round"/>
<path d="M141.84 335.945L134.48 399.59H116.312C112.373 399.59 109.171 403.94 109.171 409.299V410H254.846C254.846 403.625 251.021 398.485 246.336 398.564C239.283 398.678 230.45 398.757 230.713 398.389C231.151 397.792 221.002 335.138 221.589 335.945C222.177 336.743 141.84 335.945 141.84 335.945Z" fill="#024473"/>
<path d="M141.84 335.945L134.48 399.59H116.312C112.373 399.59 109.171 403.94 109.171 409.299V410H254.846C254.846 403.625 251.021 398.485 246.336 398.564C239.283 398.678 230.45 398.757 230.713 398.389C231.151 397.792 221.002 335.138 221.589 335.945C222.177 336.743 141.84 335.945 141.84 335.945Z" fill="#035B9B"/>
<path opacity="0.3" d="M141.682 337.262H221.686L223.037 346.663H140.594L141.682 337.262Z" fill="#024473"/>
<g>
<path d="M479.083 248.817L437.613 208.287L320.426 328.133L361.896 368.663L479.083 248.817Z" fill="#64ABFF"/>
<path opacity="0.1" d="M479.083 248.817L437.613 208.287L320.426 328.133L361.896 368.663L479.083 248.817Z" fill="white"/>
<path opacity="0.5" d="M479.083 248.817L437.613 208.287L320.426 328.133L361.896 368.663L479.083 248.817Z" fill="white"/>
<path d="M471.252 248.755L437.849 216.109L405.194 249.505L438.598 282.15L471.252 248.755Z" fill="#024473"/>
<path d="M471.252 248.755L437.849 216.109L405.194 249.505L438.598 282.15L471.252 248.755Z" fill="#C1DDFF"/>
<path d="M435.416 285.415L402.013 252.77L369.359 286.165L402.762 318.811L435.416 285.415Z" fill="#024473"/>
<path opacity="0.4" d="M435.416 285.415L402.013 252.77L369.359 286.165L402.762 318.811L435.416 285.415Z" fill="#3D82C7"/>
<path d="M399.571 322.066L366.167 289.42L333.513 322.815L366.917 355.461L399.571 322.066Z" fill="#024473"/>
<path opacity="0.2" d="M399.571 322.066L366.167 289.42L333.513 322.815L366.917 355.461L399.571 322.066Z" fill="#024473"/>
<path d="M431.938 194.508L378.251 172.582L307.587 345.522L361.275 367.448L431.938 194.508Z" fill="#64ABFF"/>
<path opacity="0.3" d="M431.938 194.508L378.251 172.582L307.587 345.522L361.275 367.448L431.938 194.508Z" fill="white"/>
<path d="M424.662 197.387L381.418 179.727L363.753 222.96L406.997 240.62L424.662 197.387Z" fill="#64ABFF"/>
<path opacity="0.6" d="M424.662 197.387L381.418 179.727L363.753 222.96L406.997 240.62L424.662 197.387Z" fill="white"/>
<path d="M405.274 244.838L362.03 227.178L344.365 270.411L387.609 288.071L405.274 244.838Z" fill="#64ABFF"/>
<path opacity="0.4" d="M405.274 244.838L362.03 227.178L344.365 270.411L387.609 288.071L405.274 244.838Z" fill="white"/>
<path d="M385.887 292.288L342.643 274.627L324.977 317.86L368.221 335.521L385.887 292.288Z" fill="#64ABFF"/>
<path d="M364.325 168.707H306.331V368.658H364.325V168.707Z" fill="#64ABFF"/>
<path opacity="0.5" d="M364.325 168.707H306.331V368.658H364.325V168.707Z" fill="white"/>
<path d="M358.685 175.645H311.972V222.346H358.685V175.645Z" fill="#64ABFF"/>
<path opacity="0.6" d="M358.685 175.645H311.972V222.346H358.685V175.645Z" fill="#024473"/>
<path d="M358.685 226.906H311.972V273.607H358.685V226.906Z" fill="#64ABFF"/>
<path opacity="0.4" d="M358.685 226.906H311.972V273.607H358.685V226.906Z" fill="#024473"/>
<path d="M358.685 278.168H311.972V324.869H358.685V278.168Z" fill="#64ABFF"/>
<path opacity="0.2" d="M358.685 278.168H311.972V324.869H358.685V278.168Z" fill="#024473"/>
<path d="M342.92 348.811C343.869 344.606 341.228 340.428 337.022 339.479C332.816 338.531 328.637 341.171 327.688 345.376C326.739 349.581 329.38 353.759 333.586 354.708C337.793 355.656 341.971 353.016 342.92 348.811Z" fill="#024473"/>
</g>
<g>
<path d="M276.99 76H353.128C355.85 76 358.059 78.2082 358.059 80.9298V157.049C358.059 159.77 355.85 161.978 353.128 161.978H276.99C274.267 161.978 272.059 159.77 272.059 157.049V80.9298C272.059 78.2082 274.267 76 276.99 76Z" fill="#64ABFF"/>
<path opacity="0.4" d="M276.99 76H353.128C355.85 76 358.059 78.2082 358.059 80.9298V157.049C358.059 159.77 355.85 161.978 353.128 161.978H276.99C274.267 161.978 272.059 159.77 272.059 157.049V80.9298C272.059 78.2082 274.267 76 276.99 76Z" fill="white"/>
<path d="M345.522 103.727H283.807C281.264 103.727 279.198 101.662 279.198 99.1192C279.198 96.5767 281.264 94.5117 283.807 94.5117H345.522C348.065 94.5117 350.131 96.5767 350.131 99.1192C350.131 101.662 348.065 103.727 345.522 103.727Z" fill="#024473"/>
<path d="M291.58 98.5724C291.58 102.189 288.655 105.114 285.037 105.114C281.419 105.114 278.494 102.189 278.494 98.5724C278.494 94.9557 281.419 92.0312 285.037 92.0312C288.655 92.0312 291.58 94.9557 291.58 98.5724Z" fill="#64ABFF"/>
<path d="M345.522 123.604H283.807C281.264 123.604 279.198 121.539 279.198 118.996C279.198 116.454 281.264 114.389 283.807 114.389H345.522C348.065 114.389 350.131 116.454 350.131 118.996C350.131 121.539 348.065 123.604 345.522 123.604Z" fill="#024473"/>
<path d="M339.97 118.445C339.97 122.062 337.045 124.987 333.428 124.987C329.81 124.987 326.885 122.062 326.885 118.445C326.885 114.829 329.81 111.904 333.428 111.904C337.045 111.904 339.97 114.829 339.97 118.445Z" fill="#64ABFF"/>
<path d="M345.522 144.492H283.807C281.264 144.492 279.198 142.427 279.198 139.885C279.198 137.342 281.264 135.277 283.807 135.277H345.522C348.065 135.277 350.131 137.342 350.131 139.885C350.131 142.427 348.065 144.492 345.522 144.492Z" fill="#024473"/>
<path d="M313.512 139.346C313.512 142.963 310.587 145.887 306.97 145.887C303.352 145.887 300.427 142.963 300.427 139.346C300.427 135.729 303.352 132.805 306.97 132.805C310.587 132.805 313.512 135.729 313.512 139.346Z" fill="#64ABFF"/>
</g>
<path d="M266.828 171H181.968C179.24 171 177.028 173.212 177.028 175.94V260.64C177.028 263.368 179.24 265.58 181.968 265.58H266.828C269.557 265.58 271.768 263.368 271.768 260.64V175.94C271.768 173.212 269.557 171 266.828 171Z" fill="#64ABFF"/>
<path opacity="0.5" d="M266.828 171H181.968C179.24 171 177.028 173.212 177.028 175.94V260.64C177.028 263.368 179.24 265.58 181.968 265.58H266.828C269.557 265.58 271.768 263.368 271.768 260.64V175.94C271.768 173.212 269.557 171 266.828 171Z" fill="white"/>
<path d="M181.658 171H267.228C269.738 171 271.778 173.04 271.778 175.55V182.75H177.038V175.63C177.038 173.08 179.108 171 181.668 171H181.658Z" fill="#64ABFF"/>
<path d="M261.979 177.041C261.979 178.411 260.869 179.531 259.489 179.531C258.109 179.531 256.999 178.421 256.999 177.041C256.999 175.661 258.109 174.551 259.489 174.551C260.869 174.551 261.979 175.661 261.979 177.041Z" fill="white"/>
<path d="M254.908 176.951C254.908 178.321 253.798 179.441 252.418 179.441C251.038 179.441 249.928 178.331 249.928 176.951C249.928 175.571 251.038 174.461 252.418 174.461C253.798 174.461 254.908 175.571 254.908 176.951Z" fill="white"/>
<path d="M247.838 176.951C247.838 178.321 246.728 179.441 245.348 179.441C243.968 179.441 242.858 178.331 242.858 176.951C242.858 175.571 243.968 174.461 245.348 174.461C246.728 174.461 247.838 175.571 247.838 176.951Z" fill="white"/>
<path d="M248.768 197.24V211.08H247.408C246.608 207.89 245.708 205.59 244.728 204.2C243.748 202.81 242.398 201.69 240.698 200.86C239.738 200.41 238.068 200.18 235.688 200.18H231.878V239.62C231.878 242.23 232.018 243.87 232.308 244.52C232.598 245.17 233.158 245.75 234.008 246.24C234.848 246.73 235.998 246.98 237.458 246.98H239.158V248.37H212.388V246.98H214.088C215.568 246.98 216.768 246.72 217.668 246.19C218.318 245.84 218.838 245.24 219.218 244.38C219.498 243.78 219.628 242.19 219.628 239.63V200.19H215.938C212.498 200.19 209.988 200.92 208.438 202.38C206.248 204.42 204.868 207.32 204.288 211.09H202.858V197.25H248.778L248.768 197.24Z" fill="#024473"/>
<path d="M144.408 171H84.0084C81.2801 171 79.0684 173.212 79.0684 175.94V236.22C79.0684 238.948 81.2801 241.16 84.0084 241.16H144.408C147.137 241.16 149.348 238.948 149.348 236.22V175.94C149.348 173.212 147.137 171 144.408 171Z" fill="#64ABFF"/>
<path opacity="0.5" d="M144.408 171H84.0084C81.2801 171 79.0684 173.212 79.0684 175.94V236.22C79.0684 238.948 81.2801 241.16 84.0084 241.16H144.408C147.137 241.16 149.348 238.948 149.348 236.22V175.94C149.348 173.212 147.137 171 144.408 171Z" fill="white"/>
<path d="M83.6886 171H144.789C147.299 171 149.339 173.04 149.339 175.55V179.72H79.0586V175.63C79.0586 173.08 81.1286 171 83.6886 171Z" fill="#64ABFF"/>
<path d="M142.079 175.481C142.079 176.501 141.249 177.331 140.229 177.331C139.209 177.331 138.379 176.501 138.379 175.481C138.379 174.461 139.209 173.631 140.229 173.631C141.249 173.631 142.079 174.461 142.079 175.481Z" fill="white"/>
<path d="M136.839 175.411C136.839 176.431 136.009 177.261 134.989 177.261C133.969 177.261 133.139 176.431 133.139 175.411C133.139 174.391 133.969 173.561 134.989 173.561C136.009 173.561 136.839 174.391 136.839 175.411Z" fill="white"/>
<path d="M131.589 175.411C131.589 176.431 130.759 177.261 129.739 177.261C128.719 177.261 127.889 176.431 127.889 175.411C127.889 174.391 128.719 173.561 129.739 173.561C130.759 173.561 131.589 174.391 131.589 175.411Z" fill="white"/>
<path d="M132.999 190.43H95.4087V228.03H132.999V190.43Z" fill="white"/>
<path d="M131.589 191.439H96.3589V226.669H131.589V191.439Z" fill="#64ABFF"/>
<path d="M114.209 227.179C114.209 227.179 132.209 212.089 132.209 212.349V227.179H114.209Z" fill="white"/>
</g>
<defs>
<filter id="filter0_d_164_3183" x="0" y="60.3242" width="489.083" height="363.676" filterUnits="userSpaceOnUse" color-interpolation-filters="sRGB">
<feFlood flood-opacity="0" result="BackgroundImageFix"/>
<feColorMatrix in="SourceAlpha" type="matrix" values="0 0 0 0 0 0 0 0 0 0 0 0 0 0 0 0 0 0 127 0" result="hardAlpha"/>
<feOffset dy="4"/>
<feGaussianBlur stdDeviation="5"/>
<feComposite in2="hardAlpha" operator="out"/>
<feColorMatrix type="matrix" values="0 0 0 0 0.00784314 0 0 0 0 0.266667 0 0 0 0 0.45098 0 0 0 0.25 0"/>
<feBlend mode="normal" in2="BackgroundImageFix" result="effect1_dropShadow_164_3183"/>
<feBlend mode="normal" in="SourceGraphic" in2="effect1_dropShadow_164_3183" result="shape"/>
</filter>
<filter id="filter1_d_164_3183" x="296.331" y="160.707" width="192.752" height="219.957" filterUnits="userSpaceOnUse" color-interpolation-filters="sRGB">
<feFlood flood-opacity="0" result="BackgroundImageFix"/>
<feColorMatrix in="SourceAlpha" type="matrix" values="0 0 0 0 0 0 0 0 0 0 0 0 0 0 0 0 0 0 127 0" result="hardAlpha"/>
<feOffset dy="2"/>
<feGaussianBlur stdDeviation="5"/>
<feComposite in2="hardAlpha" operator="out"/>
<feColorMatrix type="matrix" values="0 0 0 0 0.0117647 0 0 0 0 0.356863 0 0 0 0 0.607843 0 0 0 0.25 0"/>
<feBlend mode="normal" in2="BackgroundImageFix" result="effect1_dropShadow_164_3183"/>
<feBlend mode="normal" in="SourceGraphic" in2="effect1_dropShadow_164_3183" result="shape"/>
</filter>
<filter id="filter2_d_164_3183" x="262.059" y="68" width="106" height="105.979" filterUnits="userSpaceOnUse" color-interpolation-filters="sRGB">
<feFlood flood-opacity="0" result="BackgroundImageFix"/>
<feColorMatrix in="SourceAlpha" type="matrix" values="0 0 0 0 0 0 0 0 0 0 0 0 0 0 0 0 0 0 127 0" result="hardAlpha"/>
<feOffset dy="2"/>
<feGaussianBlur stdDeviation="5"/>
<feComposite in2="hardAlpha" operator="out"/>
<feColorMatrix type="matrix" values="0 0 0 0 0.0117647 0 0 0 0 0.356863 0 0 0 0 0.607843 0 0 0 0.25 0"/>
<feBlend mode="normal" in2="BackgroundImageFix" result="effect1_dropShadow_164_3183"/>
<feBlend mode="normal" in="SourceGraphic" in2="effect1_dropShadow_164_3183" result="shape"/>
</filter>
</defs>
</svg>
