<svg width="501" height="440" viewBox="0 0 501 440" fill="none" xmlns="http://www.w3.org/2000/svg">
<path fill-rule="evenodd" clip-rule="evenodd" d="M465.787 98.7681C476.905 94.2233 488.71 91.0238 501 89.4014V440H149.597C66.9731 440 0 368.941 0 288.654C0 208.367 61.7881 142.724 139.875 137.649C157.135 58.916 226.508 0 309.54 0C378.194 0 437.533 40.2892 465.787 98.7681Z" fill="#E7F1FD"/>
<g filter="url(#filter0_d_159_2097)">
<path d="M294.85 398.78V407.431H198.205V398.78C205.855 391.129 210.599 382.248 213.521 374.516C217.543 363.878 218.134 355.439 218.134 355.439H274.92C274.92 355.439 275.511 363.878 279.533 374.516C282.439 382.248 287.183 391.129 294.85 398.78Z" fill="#3C7FCE"/>
<path d="M279.533 374.516H213.521C217.543 363.878 218.134 355.439 218.134 355.439H274.919C274.919 355.439 275.51 363.878 279.533 374.516Z" fill="#3C7FCE"/>
<path d="M417.778 113.951H75.2598C68.079 113.951 62.2578 119.772 62.2578 126.953V352.814C62.2578 359.995 68.079 365.816 75.2598 365.816H417.778C424.959 365.816 430.78 359.995 430.78 352.814V126.953C430.78 119.772 424.959 113.951 417.778 113.951Z" fill="#035B9B"/>
<path d="M417.778 123.064H75.2763C73.1184 123.064 71.3691 124.814 71.3691 126.972V326.812C71.3691 328.97 73.1184 330.719 75.2763 330.719H417.778C419.936 330.719 421.685 328.97 421.685 326.812V126.972C421.685 124.814 419.936 123.064 417.778 123.064Z" fill="white"/>
<path d="M421.685 147.44V126.952C421.685 124.802 419.945 123.045 417.778 123.045H75.2597C73.1091 123.045 71.3525 124.802 71.3525 126.952V147.44H421.685Z" fill="#3C7FCE"/>
<path d="M319.31 409.83C318.604 402.147 314.106 396.188 308.689 396.188H184.349C178.931 396.188 174.449 402.163 173.727 409.83H319.31Z" fill="#035B9B"/>
<path d="M378.903 135.242C378.903 137.196 377.327 138.772 375.374 138.772C373.42 138.772 371.844 137.196 371.844 135.242C371.844 133.289 373.42 131.713 375.374 131.713C377.327 131.713 378.903 133.289 378.903 135.242Z" fill="white"/>
<path d="M393.794 135.242C393.794 137.196 392.218 138.772 390.264 138.772C388.31 138.772 386.734 137.196 386.734 135.242C386.734 133.289 388.31 131.713 390.264 131.713C392.218 131.713 393.794 133.289 393.794 135.242Z" fill="white"/>
<path d="M408.683 135.242C408.683 137.196 407.107 138.772 405.154 138.772C403.2 138.772 401.624 137.196 401.624 135.242C401.624 133.289 403.2 131.713 405.154 131.713C407.107 131.713 408.683 133.289 408.683 135.242Z" fill="white"/>
<path d="M232.351 173.609H84.3711V211.039H232.351V173.609Z" fill="#3C7FCE"/>
<path opacity="0.5" d="M156.506 219.904H84.3711V234.729H156.506V219.904Z" fill="#C5DFFF"/>
<path opacity="0.5" d="M232.351 244.643H84.3711V249.781H232.351V244.643Z" fill="#C5DFFF"/>
<path opacity="0.5" d="M232.351 256.137H84.3711V261.275H232.351V256.137Z" fill="#C5DFFF"/>
<path opacity="0.5" d="M232.351 267.611H84.3711V272.75H232.351V267.611Z" fill="#C5DFFF"/>
<path opacity="0.5" d="M232.351 279.088H84.3711V284.226H232.351V279.088Z" fill="#C5DFFF"/>
<path opacity="0.5" d="M232.351 290.578H84.3711V295.717H232.351V290.578Z" fill="#C5DFFF"/>
<path opacity="0.5" d="M232.351 302.055H84.3711V307.193H232.351V302.055Z" fill="#C5DFFF"/>
<path d="M408.683 173.609H260.703V211.039H408.683V173.609Z" fill="#3C7FCE"/>
<path opacity="0.5" d="M332.838 219.904H260.703V234.729H332.838V219.904Z" fill="#C5DFFF"/>
<path opacity="0.5" d="M408.683 244.643H260.703V249.781H408.683V244.643Z" fill="#C5DFFF"/>
<path opacity="0.5" d="M408.683 256.137H260.703V261.275H408.683V256.137Z" fill="#C5DFFF"/>
<path opacity="0.5" d="M408.683 267.611H260.703V272.75H408.683V267.611Z" fill="#C5DFFF"/>
<path opacity="0.5" d="M408.683 279.088H260.703V284.226H408.683V279.088Z" fill="#C5DFFF"/>
<path opacity="0.5" d="M408.683 290.578H260.703V295.717H408.683V290.578Z" fill="#C5DFFF"/>
<path opacity="0.5" d="M408.683 302.055H260.703V307.193H408.683V302.055Z" fill="#C5DFFF"/>
<path d="M231.185 131.732H167.686C165.872 131.732 164.402 133.202 164.402 135.016V198.516C164.402 200.329 165.872 201.799 167.686 201.799H231.185C232.999 201.799 234.469 200.329 234.469 198.516V135.016C234.469 133.202 232.999 131.732 231.185 131.732Z" fill="#70A1DB"/>
<path d="M228.428 137.773H170.444V195.741H228.428V137.773Z" fill="white"/>
<path d="M228.428 166.536V195.741H170.444V170.886C178.767 162.628 189.307 152.434 189.307 152.434L208.317 171.444L220.827 158.935L228.428 166.536Z" fill="#3C7FCE"/>
<path d="M210.221 155.373C212.941 155.373 215.146 153.168 215.146 150.448C215.146 147.728 212.941 145.523 210.221 145.523C207.501 145.523 205.296 147.728 205.296 150.448C205.296 153.168 207.501 155.373 210.221 155.373Z" fill="#3C7FCE"/>
<path d="M372.189 67H274.312C272.499 67 271.029 68.47 271.029 70.2833V134.194C271.029 136.007 272.499 137.477 274.312 137.477H372.189C374.002 137.477 375.472 136.007 375.472 134.194V70.2833C375.472 68.47 374.002 67 372.189 67Z" fill="#70A1DB"/>
<path d="M362.355 122.028V82.4475C362.355 81.1691 361.319 80.1328 360.041 80.1328H286.494C285.215 80.1328 284.179 81.1691 284.179 82.4475V122.028C284.179 123.307 285.215 124.343 286.494 124.343H360.041C361.319 124.343 362.355 123.307 362.355 122.028Z" fill="white"/>
<path d="M316.043 115.56V88.916L339.24 102.23L316.043 115.56Z" fill="#7AA5FC"/>
<path d="M377.82 333.951V374.615C377.82 378.276 374.865 381.247 371.187 381.247H303.928C303.682 381.247 303.452 381.247 303.206 381.198C299.873 380.853 297.296 378.046 297.296 374.615V318.913C297.296 316.516 299.233 314.562 301.646 314.562H336.318C338.059 314.562 339.651 315.613 340.324 317.222L342.951 323.46C343.936 325.808 346.201 327.318 348.746 327.318H371.187C374.848 327.318 377.82 330.273 377.82 333.951Z" fill="#3C7FCE"/>
<path d="M377.803 333.95V337.644H297.279V318.929C297.279 316.532 299.216 314.578 301.63 314.578H336.302C338.042 314.578 339.634 315.629 340.307 317.238L342.934 323.476C343.919 325.824 346.185 327.334 348.729 327.334H371.171C374.832 327.334 377.803 330.289 377.803 333.966V333.95Z" fill="#034C82"/>
<path d="M308.344 324.07C308.344 325.121 307.49 325.975 306.439 325.975C305.389 325.975 304.535 325.121 304.535 324.07C304.535 323.02 305.389 322.166 306.439 322.166C307.49 322.166 308.344 323.02 308.344 324.07Z" fill="white"/>
<path d="M316.24 324.07C316.24 325.121 315.387 325.975 314.336 325.975C313.285 325.975 312.432 325.121 312.432 324.07C312.432 323.02 313.285 322.166 314.336 322.166C315.387 322.166 316.24 323.02 316.24 324.07Z" fill="white"/>
<path d="M324.137 324.07C324.137 325.121 323.283 325.975 322.232 325.975C321.182 325.975 320.328 325.121 320.328 324.07C320.328 323.02 321.182 322.166 322.232 322.166C323.283 322.166 324.137 323.02 324.137 324.07Z" fill="white"/>
<path d="M332.033 324.07C332.033 325.121 331.179 325.975 330.128 325.975C329.078 325.975 328.224 325.121 328.224 324.07C328.224 323.02 329.078 322.166 330.128 322.166C331.179 322.166 332.033 323.02 332.033 324.07Z" fill="white"/>
<path d="M146.951 88.9141H90.7405C88.5736 88.9141 86.8169 90.6707 86.8169 92.8377V129.759C86.8169 131.926 88.5736 133.682 90.7405 133.682H146.951C149.118 133.682 150.875 131.926 150.875 129.759V92.8377C150.875 90.6707 149.118 88.9141 146.951 88.9141Z" fill="#70A1DB"/>
<path d="M109.981 108.928L103.398 112.03L109.981 115.133V119.237L100.394 114.378V109.699L109.981 104.84V108.944V108.928Z" fill="white"/>
<path d="M124.69 99.3242L117.844 123.243H113.921L120.767 99.3242H124.69Z" fill="white"/>
<path d="M127.711 114.87L134.294 111.767L127.711 108.665V104.561L137.298 109.42V114.099L127.711 118.958V114.854V114.87Z" fill="white"/>
</g>
<defs>
<filter id="filter0_d_159_2097" x="52.2578" y="61" width="388.522" height="362.83" filterUnits="userSpaceOnUse" color-interpolation-filters="sRGB">
<feFlood flood-opacity="0" result="BackgroundImageFix"/>
<feColorMatrix in="SourceAlpha" type="matrix" values="0 0 0 0 0 0 0 0 0 0 0 0 0 0 0 0 0 0 127 0" result="hardAlpha"/>
<feOffset dy="4"/>
<feGaussianBlur stdDeviation="5"/>
<feComposite in2="hardAlpha" operator="out"/>
<feColorMatrix type="matrix" values="0 0 0 0 0.00444444 0 0 0 0 0.151111 0 0 0 0 0.255556 0 0 0 0.25 0"/>
<feBlend mode="normal" in2="BackgroundImageFix" result="effect1_dropShadow_159_2097"/>
<feBlend mode="normal" in="SourceGraphic" in2="effect1_dropShadow_159_2097" result="shape"/>
</filter>
</defs>
</svg>
