<svg width="546" height="440" viewBox="0 0 546 440" fill="none" xmlns="http://www.w3.org/2000/svg">
<path fill-rule="evenodd" clip-rule="evenodd" d="M509.846 98.7681C520.964 94.2233 532.768 91.0238 545.059 89.4014V440H193.656C111.032 440 44.0586 368.941 44.0586 288.654C44.0586 208.367 105.847 142.724 183.934 137.649C201.193 58.916 270.567 0 353.599 0C422.252 0 481.592 40.2892 509.846 98.7681Z" fill="#E7F1FD"/>
<g clip-path="url(#clip0_167_3653)">
<g filter="url(#filter1_d_167_3653)">
<path d="M377.627 365.796C377.56 364.253 377.271 362.754 376.805 361.322C375.849 358.379 374.137 355.725 371.848 353.671C370.737 352.65 369.481 351.783 368.103 351.084C366.758 350.396 365.313 349.874 363.768 349.541C362.235 349.207 360.69 349.096 359.179 349.174C357.634 349.252 356.122 349.529 354.7 349.996C351.755 350.94 349.11 352.65 347.031 354.937C346.02 356.047 345.142 357.302 344.442 358.679C343.742 360.011 343.219 361.466 342.886 363.02C342.553 364.564 342.442 366.096 342.519 367.606C342.597 369.15 342.875 370.649 343.342 372.081C344.275 375.012 345.987 377.666 348.287 379.743C349.41 380.764 350.666 381.63 352.044 382.341C353.388 383.029 354.844 383.551 356.378 383.884C357.923 384.217 359.456 384.328 360.968 384.251C362.513 384.173 364.024 383.895 365.458 383.429C368.403 382.485 371.059 380.764 373.115 378.477C374.137 377.366 375.004 376.112 375.704 374.735C376.393 373.391 376.916 371.948 377.249 370.404C377.594 368.85 377.716 367.306 377.627 365.796ZM358.567 373.724C358.334 373.669 358.112 373.613 357.889 373.536C356.5 373.103 355.311 372.248 354.455 371.17C354.155 370.804 353.911 370.415 353.7 369.994C353.055 368.772 352.777 367.351 352.944 365.885C352.944 365.663 352.999 365.419 353.055 365.197C353.111 364.964 353.166 364.741 353.244 364.519C353.688 363.12 354.533 361.943 355.622 361.077C355.978 360.789 356.378 360.533 356.789 360.322C358.023 359.678 359.445 359.401 360.901 359.567C361.135 359.589 361.368 359.623 361.59 359.678C361.812 359.723 362.046 359.789 362.257 359.867C363.668 360.311 364.846 361.144 365.702 362.243C365.991 362.61 366.247 362.998 366.458 363.409C367.103 364.642 367.391 366.063 367.214 367.517C367.191 367.751 367.158 367.984 367.102 368.217C367.058 368.439 366.991 368.672 366.914 368.883C366.469 370.293 365.636 371.47 364.535 372.325C364.169 372.625 363.78 372.869 363.357 373.08C362.135 373.713 360.712 374.002 359.245 373.835C359.034 373.824 358.801 373.78 358.567 373.724Z" fill="#4174BA"/>
<path d="M369.814 343.077L365.702 362.231C364.846 361.143 363.668 360.299 362.257 359.855C362.046 359.777 361.812 359.722 361.59 359.666C361.368 359.622 361.134 359.577 360.901 359.555C359.445 359.377 358.023 359.666 356.789 360.31L360.901 341.156L369.814 343.077Z" fill="#4174BA"/>
<path d="M363.368 373.078L359.256 392.232L350.332 390.322L354.444 371.168C355.311 372.256 356.489 373.1 357.878 373.533C358.1 373.611 358.323 373.666 358.556 373.722C358.789 373.777 359.023 373.811 359.256 373.833C360.723 374.011 362.146 373.722 363.368 373.078Z" fill="#4174BA"/>
<path d="M352.944 365.885C352.766 367.351 353.055 368.772 353.7 369.993L334.518 365.885L336.429 356.969L355.611 361.077C354.522 361.932 353.666 363.12 353.233 364.519C353.155 364.741 353.099 364.963 353.044 365.197C352.999 365.419 352.955 365.663 352.944 365.885Z" fill="#4174BA"/>
<path d="M385.64 367.515L383.728 376.431L364.558 372.323C365.647 371.468 366.491 370.291 366.936 368.88C367.014 368.669 367.069 368.436 367.125 368.214C367.18 367.981 367.214 367.748 367.236 367.515C367.414 366.06 367.125 364.628 366.48 363.406L385.64 367.515Z" fill="#4174BA"/>
<path d="M360.901 359.577C359.445 359.399 358.023 359.688 356.789 360.332C356.378 360.543 355.978 360.798 355.622 361.087C354.533 361.942 353.677 363.13 353.244 364.529L350.277 359.943L347.043 354.947L342.597 348.073L350.254 343.121L354.711 350.005L357.945 355.002L360.901 359.577Z" fill="#4174BA"/>
<path d="M377.571 385.338L369.914 390.291L362.224 378.41L359.256 373.835C360.712 374.013 362.146 373.724 363.368 373.08C363.791 372.869 364.18 372.614 364.546 372.325C365.636 371.47 366.48 370.293 366.925 368.883L369.892 373.469L377.571 385.338Z" fill="#4174BA"/>
<path d="M357.889 373.544L353.311 376.509L348.298 379.74L341.419 384.182L336.474 376.52L343.353 372.079L348.354 368.848L352.944 365.883C352.766 367.348 353.055 368.77 353.7 369.991C353.911 370.413 354.166 370.802 354.455 371.168C355.311 372.256 356.5 373.1 357.889 373.544Z" fill="#4174BA"/>
<path d="M383.684 356.878L367.213 367.516C367.391 366.061 367.102 364.629 366.458 363.407C366.247 362.996 365.991 362.608 365.702 362.241C364.846 361.153 363.668 360.309 362.257 359.865L366.847 356.901L371.848 353.669L378.738 349.217L383.684 356.878Z" fill="#4174BA"/>
</g>
<g filter="url(#filter2_d_167_3653)">
<path d="M116.173 141.989C116.02 138.472 115.37 135.031 114.299 131.762C112.118 125.034 108.215 118.994 102.973 114.292C100.429 111.96 97.5589 109.972 94.4213 108.367C91.3604 106.799 88.0506 105.595 84.5305 104.85C81.0104 104.104 77.4902 103.818 74.0658 104.009C70.5456 104.181 67.102 104.831 63.8306 105.901C57.1155 108.061 51.0701 111.96 46.3447 117.178C44.0298 119.721 42.0211 122.588 40.4332 125.742C38.8453 128.8 37.64 132.107 36.8939 135.643C36.1286 139.179 35.8608 142.677 36.0521 146.098C36.2243 149.615 36.8556 153.056 37.9461 156.324C40.0888 163.033 43.9916 169.054 49.2335 173.795C51.7971 176.107 54.6667 178.114 57.8043 179.72C60.8652 181.287 64.1941 182.492 67.6951 183.237C71.2344 184.002 74.7354 184.269 78.1599 184.078C81.68 183.906 85.1236 183.256 88.4141 182.205C95.1292 180.045 101.194 176.127 105.9 170.889C108.234 168.347 110.224 165.48 111.831 162.345C113.399 159.287 114.605 155.98 115.351 152.463C116.116 148.946 116.384 145.429 116.173 141.989ZM72.6883 160.09C72.1526 159.975 71.6361 159.841 71.1387 159.669C67.9629 158.675 65.2654 156.726 63.2949 154.26C62.6253 153.419 62.0514 152.54 61.554 151.584C60.0809 148.793 59.4304 145.544 59.8322 142.199C59.8704 141.683 59.9661 141.148 60.0809 140.631C60.1957 140.096 60.3296 139.58 60.5018 139.083C61.4966 135.891 63.448 133.196 65.935 131.227C66.7576 130.558 67.6568 129.985 68.5943 129.507C71.4065 128.035 74.6589 127.404 77.9877 127.787C78.5233 127.825 79.0398 127.921 79.5564 128.035C80.0729 128.15 80.6086 128.284 81.0869 128.456C84.301 129.469 86.9984 131.38 88.9498 133.865C89.6194 134.687 90.1933 135.585 90.6716 136.522C92.1447 139.332 92.7952 142.581 92.4125 145.907C92.3743 146.442 92.2787 146.958 92.1639 147.493C92.0491 148.01 91.9152 148.545 91.743 149.023C90.729 152.234 88.8159 154.929 86.3288 156.879C85.4871 157.548 84.607 158.121 83.6505 158.618C80.8573 160.071 77.605 160.74 74.2762 160.338C73.7406 160.3 73.224 160.204 72.6883 160.09Z" fill="#4174BA"/>
<path d="M98.3623 90.1315L88.9689 133.865C87.0175 131.38 84.32 129.449 81.1059 128.455C80.6277 128.283 80.092 128.15 79.5755 128.035C79.0589 127.92 78.5424 127.825 78.0067 127.786C74.6779 127.385 71.4256 128.035 68.6133 129.507L78.0067 85.7734L98.3623 90.1315Z" fill="#4174BA"/>
<path d="M83.6503 158.618L74.2569 202.351L53.9014 197.993L63.2947 154.26C65.2652 156.725 67.9627 158.675 71.1385 159.669C71.6359 159.86 72.1525 159.975 72.6881 160.09C73.2238 160.204 73.7404 160.3 74.2761 160.338C77.6049 160.739 80.8572 160.07 83.6503 158.618Z" fill="#4174BA"/>
<path d="M59.832 142.179C59.4303 145.524 60.0808 148.773 61.5539 151.564L17.7817 142.179L22.1627 121.822L65.954 131.207C63.467 133.176 61.5156 135.871 60.5208 139.063C60.3295 139.56 60.2147 140.076 60.0999 140.612C59.966 141.128 59.8703 141.663 59.832 142.179Z" fill="#4174BA"/>
<path d="M134.482 145.908L130.101 166.265L86.3291 156.88C88.8162 154.93 90.7484 152.235 91.7433 149.024C91.9154 148.546 92.0494 148.011 92.1641 147.495C92.2789 146.96 92.3745 146.444 92.4128 145.908C92.8146 142.583 92.145 139.333 90.6719 136.523L134.482 145.908Z" fill="#4174BA"/>
<path d="M78.0066 127.787C74.6778 127.386 71.4255 128.036 68.6132 129.507C67.6758 129.985 66.7575 130.559 65.954 131.228C63.467 133.196 61.5156 135.892 60.5208 139.084L53.7483 128.609L46.3637 117.198L36.2051 101.505L53.6909 90.1895L63.8496 105.901L71.2343 117.313L78.0066 127.787Z" fill="#4174BA"/>
<path d="M116.058 186.6L98.5725 197.916L81.0293 170.812L74.2568 160.357C77.5857 160.758 80.8379 160.089 83.6311 158.636C84.5877 158.158 85.4868 157.585 86.3095 156.897C88.7965 154.947 90.7288 152.252 91.7236 149.041L98.4961 159.516L116.058 186.6Z" fill="#4174BA"/>
<path d="M71.1385 159.67L60.6738 166.436L49.2334 173.814L33.5266 183.964L22.2393 166.493L37.9459 156.344L49.3673 148.966L59.8512 142.199C59.4494 145.544 60.0998 148.794 61.5729 151.584C62.0512 152.54 62.6252 153.438 63.3139 154.26C65.2461 156.726 67.9436 158.676 71.1385 159.67Z" fill="#4174BA"/>
<path d="M130.005 121.631L92.4125 145.906C92.8143 142.58 92.1447 139.33 90.6716 136.521C90.1933 135.584 89.6194 134.686 88.9498 133.864C86.9984 131.379 84.301 129.448 81.0869 128.454L91.5708 121.688L102.992 114.31L118.718 104.16L130.005 121.631Z" fill="#4174BA"/>
</g>
<g filter="url(#filter3_d_167_3653)">
<path d="M61.9575 343.122V141.08C61.9575 135.817 66.2251 131.553 71.4929 131.553H418.069C423.336 131.553 427.604 135.817 427.604 141.08V343.122C427.604 348.385 423.336 352.649 418.069 352.649H71.4818C66.2251 352.649 61.9575 348.385 61.9575 343.122Z" fill="#024473"/>
<path d="M420.358 147.92V322.048C420.358 327.3 416.09 331.564 410.833 331.564H78.7053C73.4375 331.564 69.1699 327.3 69.1699 322.048V147.92C69.1699 142.668 73.4375 138.404 78.7053 138.404H410.833C416.09 138.404 420.358 142.668 420.358 147.92Z" fill="#ADD2FF"/>
<path d="M236.162 138.793V135.029H253.388V139.515C253.388 143.168 250.421 146.133 246.764 146.133H243.508C239.452 146.133 236.162 142.846 236.162 138.793Z" fill="#69A2D1"/>
<path d="M244.775 141.735C245.696 141.735 246.442 140.99 246.442 140.07C246.442 139.15 245.696 138.404 244.775 138.404C243.855 138.404 243.108 139.15 243.108 140.07C243.108 140.99 243.855 141.735 244.775 141.735Z" fill="#3B507A"/>
<g opacity="0.57">
<path d="M420.357 280.553V322.047C420.357 327.299 416.09 331.563 410.833 331.563H379.693L420.357 280.553Z" fill="white"/>
<path d="M420.358 173.68V234.039L342.618 331.563H294.508L420.358 173.68Z" fill="white"/>
<path d="M108.545 138.404L69.1699 187.805V147.92C69.1699 142.668 73.4375 138.404 78.7053 138.404H108.545Z" fill="white"/>
<path d="M142.041 138.404L69.1699 229.821V214.165L129.561 138.404H142.041Z" fill="white"/>
</g>
<path d="M40.4307 343.811C40.4307 342.367 41.5976 341.201 43.0423 341.201H446.497C447.942 341.201 449.109 342.367 449.109 343.811C449.109 356.524 438.795 366.828 426.07 366.828H63.469C50.744 366.828 40.4307 356.524 40.4307 343.811Z" fill="#024473"/>
</g>
<g filter="url(#filter4_d_167_3653)">
<path d="M388.151 290.812L380.3 296.947L433.541 364.955L441.392 358.821L388.151 290.812Z" fill="#5786BC"/>
<path d="M454.521 400.786L416.757 352.539C415.128 350.448 415.483 347.423 417.574 345.797L426.569 338.764C428.66 337.137 431.687 337.493 433.316 339.583L471.08 387.83C472.709 389.921 472.354 392.946 470.263 394.572L461.268 401.605C459.167 403.262 456.15 402.876 454.521 400.786Z" fill="#4174BA"/>
<path d="M390.035 317.672C413.709 306.22 423.599 277.753 412.126 254.09C400.654 230.427 372.161 220.528 348.487 231.98C324.814 243.433 314.923 271.9 326.396 295.563C337.869 319.226 366.361 329.125 390.035 317.672Z" fill="#4174BA"/>
<path d="M398.929 251.642C411.746 268.027 408.858 291.665 392.478 304.485C391.908 304.933 391.308 305.371 390.718 305.779C381.853 311.913 371.198 313.746 361.306 311.618C355.02 310.279 349.082 307.321 344.123 302.831C342.496 301.404 340.97 299.78 339.595 298.01C327.558 282.625 329.383 260.855 343.211 247.646C344.094 246.776 345.065 245.937 346.046 245.167C350.328 241.816 355.123 239.521 360.082 238.328C370.111 235.813 380.891 237.537 389.669 243.205C393.13 245.418 396.276 248.251 398.929 251.642Z" fill="#EBFFFD"/>
<path d="M343.207 247.653L344.139 302.824C342.512 301.397 340.987 299.774 339.612 298.003C327.556 282.63 329.381 260.861 343.207 247.653Z" fill="white"/>
<path d="M389.699 243.214L390.718 305.775C381.854 311.909 371.199 313.742 361.307 311.614L360.113 238.337C370.132 235.803 380.911 237.526 389.699 243.214Z" fill="white"/>
</g>
<g filter="url(#filter5_d_167_3653)">
<path d="M456.777 115.448V208.967C456.777 214.306 452.437 218.655 447.081 218.655H282.71C277.34 218.655 273 214.319 273 208.967V115.448C273 115.357 273 115.252 273.013 115.161C273.143 109.953 277.431 105.76 282.71 105.76H447.081C452.333 105.76 456.621 109.953 456.764 115.161C456.777 115.252 456.777 115.357 456.777 115.448Z" fill="#C5DFFF"/>
<path d="M349.79 141.918L324.141 165.916L357.818 175.604C358.744 172.505 359.226 169.198 359.226 165.812C359.226 156.58 355.655 148.168 349.79 141.918Z" fill="#718EC7"/>
<path d="M287.127 157.234C286.358 160.125 285.941 163.146 285.941 166.271C285.941 185.608 301.633 201.299 321 201.299C326.448 201.299 331.583 200.062 336.196 197.848L320.987 166.375L287.127 157.234Z" fill="#668AD1"/>
<path d="M336.196 197.859H336.209C345.072 193.575 351.888 185.671 354.664 176.075L320.987 166.387L336.196 197.859Z" fill="#5767B5"/>
<path d="M346.636 142.388C340.237 135.539 331.127 131.242 321.013 131.242C304.774 131.242 291.129 142.258 287.141 157.233L321 166.387L346.636 142.388Z" fill="#8CAEDE"/>
<path d="M371.88 136.882C373.018 136.882 373.94 135.961 373.94 134.825C373.94 133.689 373.018 132.768 371.88 132.768C370.743 132.768 369.821 133.689 369.821 134.825C369.821 135.961 370.743 136.882 371.88 136.882Z" fill="#718EC7"/>
<path d="M381.955 134.824H439.769" stroke="#718EC7" stroke-linecap="round" stroke-linejoin="round"/>
<path d="M381.955 142H439.769" stroke="#718EC7" stroke-linecap="round" stroke-linejoin="round"/>
<path d="M371.88 151.324C373.018 151.324 373.94 150.403 373.94 149.266C373.94 148.13 373.018 147.209 371.88 147.209C370.743 147.209 369.821 148.13 369.821 149.266C369.821 150.403 370.743 151.324 371.88 151.324Z" fill="#718EC7"/>
<path d="M381.955 149.266H439.769" stroke="#718EC7" stroke-linecap="round" stroke-linejoin="round"/>
<path d="M381.955 156.453H439.769" stroke="#718EC7" stroke-linecap="round" stroke-linejoin="round"/>
<path d="M371.88 165.775C373.018 165.775 373.94 164.854 373.94 163.718C373.94 162.581 373.018 161.66 371.88 161.66C370.743 161.66 369.821 162.581 369.821 163.718C369.821 164.854 370.743 165.775 371.88 165.775Z" fill="#718EC7"/>
<path d="M381.955 163.717H439.769" stroke="#718EC7" stroke-linecap="round" stroke-linejoin="round"/>
<path d="M381.955 170.893H439.769" stroke="#718EC7" stroke-linecap="round" stroke-linejoin="round"/>
<path d="M371.88 180.228C373.018 180.228 373.94 179.307 373.94 178.171C373.94 177.034 373.018 176.113 371.88 176.113C370.743 176.113 369.821 177.034 369.821 178.171C369.821 179.307 370.743 180.228 371.88 180.228Z" fill="#718EC7"/>
<path d="M381.955 178.17H439.769" stroke="#718EC7" stroke-linecap="round" stroke-linejoin="round"/>
<path d="M381.955 185.346H439.769" stroke="#718EC7" stroke-linecap="round" stroke-linejoin="round"/>
<path d="M371.88 194.683C373.018 194.683 373.94 193.762 373.94 192.626C373.94 191.489 373.018 190.568 371.88 190.568C370.743 190.568 369.821 191.489 369.821 192.626C369.821 193.762 370.743 194.683 371.88 194.683Z" fill="#718EC7"/>
<path d="M381.955 192.625H439.769" stroke="#718EC7" stroke-linecap="round" stroke-linejoin="round"/>
<path d="M381.955 199.801H439.769" stroke="#718EC7" stroke-linecap="round" stroke-linejoin="round"/>
<path d="M456.765 115.161H273.026C273.157 109.953 277.445 105.76 282.723 105.76H447.094C452.333 105.76 456.621 109.953 456.765 115.161Z" fill="#3B507A"/>
<path d="M419.647 113.181C421.151 113.181 422.371 111.963 422.371 110.46C422.371 108.957 421.151 107.738 419.647 107.738C418.142 107.738 416.923 108.957 416.923 110.46C416.923 111.963 418.142 113.181 419.647 113.181Z" fill="white"/>
<path d="M430.334 113.181C431.838 113.181 433.058 111.963 433.058 110.46C433.058 108.957 431.838 107.738 430.334 107.738C428.829 107.738 427.61 108.957 427.61 110.46C427.61 111.963 428.829 113.181 430.334 113.181Z" fill="white"/>
<path d="M441.021 113.181C442.525 113.181 443.745 111.963 443.745 110.46C443.745 108.957 442.525 107.738 441.021 107.738C439.516 107.738 438.297 108.957 438.297 110.46C438.297 111.963 439.516 113.181 441.021 113.181Z" fill="white"/>
</g>
<path d="M246.721 216.406V298.407C246.721 303.093 242.909 306.901 238.219 306.901H94.0872C89.3862 306.901 85.5742 303.093 85.5742 298.407V216.406C85.5742 216.318 85.5742 216.24 85.5853 216.151C85.7076 211.587 89.464 207.912 94.0872 207.912H238.219C242.831 207.912 246.587 211.587 246.709 216.151C246.721 216.24 246.721 216.318 246.721 216.406Z" fill="#C5DFFF"/>
<path d="M246.709 216.151H85.585C85.7072 211.587 89.4636 207.912 94.0868 207.912H238.218C242.83 207.912 246.587 211.587 246.709 216.151Z" fill="#3B507A"/>
<path d="M214.169 214.419C215.488 214.419 216.558 213.35 216.558 212.032C216.558 210.713 215.488 209.645 214.169 209.645C212.849 209.645 211.779 210.713 211.779 212.032C211.779 213.35 212.849 214.419 214.169 214.419Z" fill="white"/>
<path d="M223.537 214.419C224.857 214.419 225.927 213.35 225.927 212.032C225.927 210.713 224.857 209.645 223.537 209.645C222.218 209.645 221.148 210.713 221.148 212.032C221.148 213.35 222.218 214.419 223.537 214.419Z" fill="white"/>
<path d="M232.917 214.419C234.237 214.419 235.307 213.35 235.307 212.032C235.307 210.713 234.237 209.645 232.917 209.645C231.598 209.645 230.528 210.713 230.528 212.032C230.528 213.35 231.598 214.419 232.917 214.419Z" fill="white"/>
<path d="M115.592 228.875H111.413V290.5H115.592V228.875Z" fill="#668AD1"/>
<path d="M127.083 239.168H122.904V290.5H127.083V239.168Z" fill="#8CAEDE"/>
<path d="M138.563 251.139H134.385V290.49H138.563V251.139Z" fill="#668AD1"/>
<path d="M150.055 259.688H145.876V290.5H150.055V259.688Z" fill="#8CAEDE"/>
<path d="M161.546 245.176H157.368V290.501H161.546V245.176Z" fill="#668AD1"/>
<path d="M173.026 251.139H168.848V290.49H173.026V251.139Z" fill="#8CAEDE"/>
<path d="M184.518 257.4H180.339V290.5H184.518V257.4Z" fill="#668AD1"/>
<path d="M196.009 267.859H191.831V290.489H196.009V267.859Z" fill="#8CAEDE"/>
<path d="M207.489 257.4H203.311V290.5H207.489V257.4Z" fill="#668AD1"/>
<path d="M218.981 276.188H214.802V290.5H218.981V276.188Z" fill="#8CAEDE"/>
<path d="M106.757 224.312H105.567V289.313H106.757V224.312Z" fill="#5767B5"/>
<path d="M226.727 289.301H105.567V290.489H226.727V289.301Z" fill="#5767B5"/>
<g filter="url(#filter6_d_167_3653)">
<path d="M35.5635 245.354V199.207C35.5635 192.978 40.6201 187.926 46.8548 187.926H116.514C122.749 187.926 127.806 192.978 127.806 199.207V245.354C127.806 251.583 122.749 256.635 116.514 256.635H46.8548C40.6201 256.624 35.5635 251.583 35.5635 245.354Z" fill="#4174BA"/>
<path d="M107.012 226.555C108.468 217.983 104.123 208.523 97.3325 205.514C90.5532 202.504 82.1847 206.335 78.7284 214.019C74.772 207.912 67.3148 205.591 61.7469 208.945C56.179 212.298 53.2117 220.914 55.1566 228.054C48.3218 223.168 44.7099 231.74 44.8321 234.017C45.021 237.381 47.3549 239.957 50.1333 239.968C62.5471 239.99 98.8884 240.046 113.425 240.057C117.715 240.057 120.071 233.972 117.303 230.008C117.048 229.631 116.759 229.286 116.459 228.964C113.969 226.266 110.18 225.467 107.012 226.555Z" fill="#EBFFFD"/>
</g>
</g>
<defs>
<filter id="filter0_d_167_3653" x="-4" y="78" width="483" height="340" filterUnits="userSpaceOnUse" color-interpolation-filters="sRGB">
<feFlood flood-opacity="0" result="BackgroundImageFix"/>
<feColorMatrix in="SourceAlpha" type="matrix" values="0 0 0 0 0 0 0 0 0 0 0 0 0 0 0 0 0 0 127 0" result="hardAlpha"/>
<feOffset dy="4"/>
<feGaussianBlur stdDeviation="2"/>
<feComposite in2="hardAlpha" operator="out"/>
<feColorMatrix type="matrix" values="0 0 0 0 0 0 0 0 0 0 0 0 0 0 0 0 0 0 0.25 0"/>
<feBlend mode="normal" in2="BackgroundImageFix" result="effect1_dropShadow_167_3653"/>
<feBlend mode="normal" in="SourceGraphic" in2="effect1_dropShadow_167_3653" result="shape"/>
</filter>
<filter id="filter1_d_167_3653" x="324.518" y="335.156" width="71.1226" height="71.0762" filterUnits="userSpaceOnUse" color-interpolation-filters="sRGB">
<feFlood flood-opacity="0" result="BackgroundImageFix"/>
<feColorMatrix in="SourceAlpha" type="matrix" values="0 0 0 0 0 0 0 0 0 0 0 0 0 0 0 0 0 0 127 0" result="hardAlpha"/>
<feOffset dy="4"/>
<feGaussianBlur stdDeviation="5"/>
<feComposite in2="hardAlpha" operator="out"/>
<feColorMatrix type="matrix" values="0 0 0 0 0.00444444 0 0 0 0 0.151111 0 0 0 0 0.255556 0 0 0 0.25 0"/>
<feBlend mode="normal" in2="BackgroundImageFix" result="effect1_dropShadow_167_3653"/>
<feBlend mode="normal" in="SourceGraphic" in2="effect1_dropShadow_167_3653" result="shape"/>
</filter>
<filter id="filter2_d_167_3653" x="7.78174" y="79.7734" width="136.701" height="136.578" filterUnits="userSpaceOnUse" color-interpolation-filters="sRGB">
<feFlood flood-opacity="0" result="BackgroundImageFix"/>
<feColorMatrix in="SourceAlpha" type="matrix" values="0 0 0 0 0 0 0 0 0 0 0 0 0 0 0 0 0 0 127 0" result="hardAlpha"/>
<feOffset dy="4"/>
<feGaussianBlur stdDeviation="5"/>
<feComposite in2="hardAlpha" operator="out"/>
<feColorMatrix type="matrix" values="0 0 0 0 0.00444444 0 0 0 0 0.151111 0 0 0 0 0.255556 0 0 0 0.25 0"/>
<feBlend mode="normal" in2="BackgroundImageFix" result="effect1_dropShadow_167_3653"/>
<feBlend mode="normal" in="SourceGraphic" in2="effect1_dropShadow_167_3653" result="shape"/>
</filter>
<filter id="filter3_d_167_3653" x="30.4307" y="125.553" width="428.678" height="255.275" filterUnits="userSpaceOnUse" color-interpolation-filters="sRGB">
<feFlood flood-opacity="0" result="BackgroundImageFix"/>
<feColorMatrix in="SourceAlpha" type="matrix" values="0 0 0 0 0 0 0 0 0 0 0 0 0 0 0 0 0 0 127 0" result="hardAlpha"/>
<feOffset dy="4"/>
<feGaussianBlur stdDeviation="5"/>
<feComposite in2="hardAlpha" operator="out"/>
<feColorMatrix type="matrix" values="0 0 0 0 0.00444444 0 0 0 0 0.151111 0 0 0 0 0.255556 0 0 0 0.25 0"/>
<feBlend mode="normal" in2="BackgroundImageFix" result="effect1_dropShadow_167_3653"/>
<feBlend mode="normal" in="SourceGraphic" in2="effect1_dropShadow_167_3653" result="shape"/>
</filter>
<filter id="filter4_d_167_3653" x="311.616" y="221.215" width="170.485" height="195.422" filterUnits="userSpaceOnUse" color-interpolation-filters="sRGB">
<feFlood flood-opacity="0" result="BackgroundImageFix"/>
<feColorMatrix in="SourceAlpha" type="matrix" values="0 0 0 0 0 0 0 0 0 0 0 0 0 0 0 0 0 0 127 0" result="hardAlpha"/>
<feOffset dy="4"/>
<feGaussianBlur stdDeviation="5"/>
<feComposite in2="hardAlpha" operator="out"/>
<feColorMatrix type="matrix" values="0 0 0 0 0.00444444 0 0 0 0 0.151111 0 0 0 0 0.255556 0 0 0 0.25 0"/>
<feBlend mode="normal" in2="BackgroundImageFix" result="effect1_dropShadow_167_3653"/>
<feBlend mode="normal" in="SourceGraphic" in2="effect1_dropShadow_167_3653" result="shape"/>
</filter>
<filter id="filter5_d_167_3653" x="263" y="99.7598" width="203.777" height="132.895" filterUnits="userSpaceOnUse" color-interpolation-filters="sRGB">
<feFlood flood-opacity="0" result="BackgroundImageFix"/>
<feColorMatrix in="SourceAlpha" type="matrix" values="0 0 0 0 0 0 0 0 0 0 0 0 0 0 0 0 0 0 127 0" result="hardAlpha"/>
<feOffset dy="4"/>
<feGaussianBlur stdDeviation="5"/>
<feComposite in2="hardAlpha" operator="out"/>
<feColorMatrix type="matrix" values="0 0 0 0 0.00444444 0 0 0 0 0.151111 0 0 0 0 0.255556 0 0 0 0.25 0"/>
<feBlend mode="normal" in2="BackgroundImageFix" result="effect1_dropShadow_167_3653"/>
<feBlend mode="normal" in="SourceGraphic" in2="effect1_dropShadow_167_3653" result="shape"/>
</filter>
<filter id="filter6_d_167_3653" x="25.5635" y="181.926" width="112.242" height="88.709" filterUnits="userSpaceOnUse" color-interpolation-filters="sRGB">
<feFlood flood-opacity="0" result="BackgroundImageFix"/>
<feColorMatrix in="SourceAlpha" type="matrix" values="0 0 0 0 0 0 0 0 0 0 0 0 0 0 0 0 0 0 127 0" result="hardAlpha"/>
<feOffset dy="4"/>
<feGaussianBlur stdDeviation="5"/>
<feComposite in2="hardAlpha" operator="out"/>
<feColorMatrix type="matrix" values="0 0 0 0 0.00444444 0 0 0 0 0.151111 0 0 0 0 0.255556 0 0 0 0.25 0"/>
<feBlend mode="normal" in2="BackgroundImageFix" result="effect1_dropShadow_167_3653"/>
<feBlend mode="normal" in="SourceGraphic" in2="effect1_dropShadow_167_3653" result="shape"/>
</filter>
<clipPath id="clip0_167_3653">
<rect width="475" height="332" fill="white" transform="translate(0 78)"/>
</clipPath>
</defs>
</svg>
