<svg width="563" height="440" viewBox="0 0 563 440" fill="none" xmlns="http://www.w3.org/2000/svg">
<path fill-rule="evenodd" clip-rule="evenodd" d="M527.787 98.7681C538.905 94.2233 550.71 91.0238 563 89.4014V440H211.597C128.973 440 62 368.941 62 288.654C62 208.367 123.788 142.724 201.875 137.649C219.135 58.916 288.508 0 371.54 0C440.194 0 499.533 40.2892 527.787 98.7681Z" fill="#E7F1FD"/>
<g clip-path="url(#clip0_156_1233)">
<path d="M460.634 114.011C460.634 109.481 456.96 105.799 452.413 105.799C451.59 105.799 450.804 105.922 450.054 106.143C450.177 105.32 450.238 104.473 450.238 103.626C450.238 94.0274 442.448 86.2452 432.839 86.2452C431.745 86.2452 430.676 86.3557 429.632 86.5398C426.953 82.17 422.148 79.2363 416.643 79.2363C408.312 79.2363 401.554 85.9261 401.431 94.2238C401.345 94.2238 401.259 94.2115 401.173 94.2115C393.431 94.2115 387.152 100.484 387.152 108.217C387.152 115.95 393.431 122.222 401.173 122.222H452.647C457.083 122.1 460.634 118.479 460.634 114.023V114.011Z" fill="#263238"/>
<g>
<path d="M460.634 114.009C460.634 109.479 456.96 105.797 452.413 105.797C451.59 105.797 450.804 105.92 450.054 106.141C450.177 105.318 450.238 104.471 450.238 103.624C450.238 94.0254 442.448 86.2432 432.839 86.2432C431.745 86.2432 430.676 86.3537 429.632 86.5378C426.953 82.168 422.148 79.2344 416.643 79.2344C408.312 79.2344 401.554 85.9241 401.431 94.2218C401.345 94.2218 401.259 94.2095 401.173 94.2095C393.431 94.2095 387.152 100.482 387.152 108.215C387.152 115.948 393.431 122.22 401.173 122.22H452.647C457.083 122.098 460.634 118.477 460.634 114.021V114.009Z" fill="#C5DFFF"/>
</g>
<g>
<path d="M208.953 365.985C208.953 361.456 205.279 357.773 200.733 357.773C199.909 357.773 199.123 357.896 198.373 358.117C198.496 357.295 198.558 356.448 198.558 355.601C198.558 346.002 190.767 338.22 181.158 338.22C180.064 338.22 178.995 338.33 177.951 338.514C175.272 334.145 170.468 331.211 164.963 331.211C156.631 331.211 149.873 337.901 149.75 346.198C149.664 346.198 149.578 346.186 149.492 346.186C141.751 346.186 135.472 352.458 135.472 360.192C135.472 367.925 141.751 374.197 149.492 374.197H200.966C205.402 374.074 208.953 370.453 208.953 365.998V365.985Z" fill="#C5DFFF"/>
</g>
<path d="M353.029 69.5512C353.029 66.6421 350.669 64.2854 347.757 64.2854C347.229 64.2854 346.725 64.359 346.246 64.5063C346.32 63.9785 346.369 63.4384 346.369 62.886C346.369 56.7241 341.368 51.7406 335.211 51.7406C334.511 51.7406 333.823 51.8142 333.159 51.937C331.439 49.1261 328.355 47.248 324.828 47.248C319.483 47.248 315.145 51.5442 315.071 56.8592C315.022 56.8592 314.961 56.8592 314.912 56.8592C309.947 56.8592 305.917 60.8853 305.917 65.8443C305.917 70.8033 309.947 74.8294 314.912 74.8294H347.929C350.768 74.7557 353.053 72.4358 353.053 69.5758L353.029 69.5512Z" fill="#263238"/>
<g filter="url(#filter3_d_156_1233)">
<path d="M353.029 69.5532C353.029 66.6441 350.669 64.2873 347.757 64.2873C347.229 64.2873 346.725 64.361 346.246 64.5083C346.32 63.9805 346.369 63.4404 346.369 62.888C346.369 56.7261 341.368 51.7426 335.211 51.7426C334.511 51.7426 333.823 51.8162 333.159 51.9389C331.439 49.128 328.355 47.25 324.828 47.25C319.483 47.25 315.145 51.5462 315.071 56.8611C315.022 56.8611 314.961 56.8611 314.912 56.8611C309.947 56.8611 305.917 60.8872 305.917 65.8462C305.917 70.8052 309.947 74.8313 314.912 74.8313H347.929C350.768 74.7577 353.053 72.4377 353.053 69.5777L353.029 69.5532Z" fill="#C5DFFF"/>
</g>
<g>
<path d="M101.348 321.528C101.348 318.619 98.9888 316.262 96.0766 316.262C95.5482 316.262 95.0444 316.336 94.5652 316.483C94.6389 315.955 94.688 315.415 94.688 314.863C94.688 308.701 89.6869 303.717 83.5306 303.717C82.8302 303.717 82.1421 303.791 81.4786 303.914C79.7582 301.103 76.674 299.225 73.1474 299.225C67.8021 299.225 63.4645 303.521 63.3908 308.836C63.3416 308.836 63.2802 308.836 63.2311 308.836C58.2667 308.836 54.2363 312.862 54.2363 317.821C54.2363 322.78 58.2667 326.806 63.2311 326.806H96.2486C99.0871 326.732 101.373 324.412 101.373 321.552L101.348 321.528Z" fill="#C5DFFF"/>
</g>
<path d="M137.229 54.0243C137.229 52.0603 135.644 50.4769 133.678 50.4769C133.321 50.4769 132.977 50.526 132.658 50.6242C132.707 50.2682 132.732 49.9 132.732 49.5317C132.732 45.3829 129.365 42.0196 125.211 42.0196C124.732 42.0196 124.278 42.0687 123.823 42.1546C122.668 40.2643 120.591 39 118.207 39C114.607 39 111.683 41.8968 111.633 45.4811C111.596 45.4811 111.56 45.4811 111.523 45.4811C108.18 45.4811 105.465 48.1938 105.465 51.5325C105.465 54.8712 108.18 57.5839 111.523 57.5839H133.776C135.693 57.5348 137.229 55.9637 137.229 54.0365V54.0243Z" fill="#407BFF"/>
<g>
<path d="M137.229 54.0243C137.229 52.0603 135.644 50.4769 133.678 50.4769C133.321 50.4769 132.977 50.526 132.658 50.6242C132.707 50.2682 132.732 49.9 132.732 49.5317C132.732 45.3829 129.365 42.0196 125.211 42.0196C124.732 42.0196 124.278 42.0687 123.823 42.1546C122.668 40.2643 120.591 39 118.207 39C114.607 39 111.683 41.8968 111.633 45.4811C111.596 45.4811 111.56 45.4811 111.523 45.4811C108.18 45.4811 105.465 48.1938 105.465 51.5325C105.465 54.8712 108.18 57.5839 111.523 57.5839H133.776C135.693 57.5348 137.229 55.9637 137.229 54.0365V54.0243Z" fill="#C5DFFF"/>
</g>
<path d="M155.071 97.1097H173.024C172.975 96.6801 172.95 96.2504 172.95 95.7963C172.95 89.2784 178.234 84.0003 184.759 84.0003C184.906 84.0003 185.041 84.0125 185.189 84.0248C186.663 80.0601 190.485 77.2246 194.97 77.2246C200.745 77.2246 205.427 81.9013 205.427 87.6704C205.427 87.6704 205.427 87.6827 205.427 87.6949C210.539 87.9282 214.643 92.0157 214.913 97.1219H215.392C218.28 97.1219 220.639 99.4787 220.639 102.363C220.639 105.248 218.28 107.605 215.392 107.605H155.083C152.196 107.605 149.836 105.248 149.836 102.363C149.836 99.4787 152.196 97.1219 155.083 97.1219L155.071 97.1097Z" fill="#407BFF"/>
<g>
<path d="M155.071 97.1097H173.024C172.975 96.6801 172.95 96.2504 172.95 95.7963C172.95 89.2784 178.234 84.0003 184.759 84.0003C184.906 84.0003 185.041 84.0125 185.189 84.0248C186.663 80.0601 190.485 77.2246 194.97 77.2246C200.745 77.2246 205.427 81.9013 205.427 87.6704C205.427 87.6704 205.427 87.6827 205.427 87.6949C210.539 87.9282 214.643 92.0157 214.913 97.1219H215.392C218.28 97.1219 220.639 99.4787 220.639 102.363C220.639 105.248 218.28 107.605 215.392 107.605H155.083C152.196 107.605 149.836 105.248 149.836 102.363C149.836 99.4787 152.196 97.1219 155.083 97.1219L155.071 97.1097Z" fill="#C5DFFF"/>
</g>
<path d="M57.1978 128.2C61.0685 122.038 67.9129 117.926 75.728 117.926C83.5431 117.926 90.6209 122.173 94.4424 128.519C95.45 128.237 96.5068 128.077 97.6004 128.077C104.076 128.077 109.323 133.318 109.323 139.787C109.323 139.787 109.323 139.787 109.323 139.799H115.504C118.723 139.799 121.353 142.426 121.353 145.642C121.353 148.858 118.723 151.485 115.504 151.485H94.1844C90.3014 157.573 83.4939 161.624 75.7402 161.624C69.6209 161.624 64.0913 159.107 60.1223 155.057C59.7537 155.081 59.3851 155.118 59.0041 155.118C51.5331 155.118 45.4629 149.067 45.4629 141.591C45.4629 134.73 50.5746 129.084 57.2101 128.2H57.1978Z" fill="#407BFF"/>
<g>
<path d="M57.1978 128.2C61.0685 122.038 67.9129 117.926 75.728 117.926C83.5431 117.926 90.6209 122.173 94.4424 128.519C95.45 128.237 96.5068 128.077 97.6004 128.077C104.076 128.077 109.323 133.318 109.323 139.787C109.323 139.787 109.323 139.787 109.323 139.799H115.504C118.723 139.799 121.353 142.426 121.353 145.642C121.353 148.858 118.723 151.485 115.504 151.485H94.1844C90.3014 157.573 83.4939 161.624 75.7402 161.624C69.6209 161.624 64.0913 159.107 60.1223 155.057C59.7537 155.081 59.3851 155.118 59.0041 155.118C51.5331 155.118 45.4629 149.067 45.4629 141.591C45.4629 134.73 50.5746 129.084 57.2101 128.2H57.1978Z" fill="#C5DFFF"/>
</g>
<path d="M334.671 65.1465H321.277V79.8393H317.959L327.974 89.9169L337.976 79.8393H334.671V65.1465Z" fill="#4174BA"/>
<path opacity="0.4" d="M334.671 65.1465H321.277V79.8393H317.959L327.974 89.9169L337.976 79.8393H334.671V65.1465Z" fill="#4174BA"/>
<path d="M82.9899 317.121H69.5961V331.814H66.2783L76.2929 341.891L86.2953 331.814H82.9899V317.121Z" fill="#4174BA"/>
<path opacity="0.4" d="M82.9899 317.121H69.5961V331.814H66.2783L76.2929 341.891L86.2953 331.814H82.9899V317.121Z" fill="#4174BA"/>
<path d="M412.232 137.567H433.109V114.675H438.27L422.676 98.9629L407.071 114.675H412.232V137.567Z" fill="#4174BA"/>
<path d="M412.232 137.567H433.109V114.675H438.27L422.676 98.9629L407.071 114.675H412.232V137.567Z" fill="#4174BA"/>
<path d="M160.551 389.542H181.428V366.649H186.589L170.996 350.938L155.39 366.649H160.551V389.542Z" fill="#407BFF"/>
<path d="M160.551 389.542H181.428V366.649H186.589L170.996 350.938L155.39 366.649H160.551V389.542Z" fill="#4174BA"/>
<g>
<path d="M357.968 228.953C357.735 229.518 357.6 230.144 357.6 230.794C357.6 233.446 359.762 235.606 362.417 235.606C365.071 235.606 367.233 233.446 367.233 230.794C367.233 228.143 365.071 225.983 362.417 225.983C361.765 225.983 361.139 226.118 360.573 226.351L356.887 222.668L372.677 206.895H405.891C406.592 208.7 408.324 209.989 410.376 209.989C413.03 209.989 415.193 207.828 415.193 205.177C415.193 202.526 413.03 200.365 410.376 200.365C408.422 200.365 406.739 201.544 405.989 203.213H371.915C371.424 203.213 370.957 203.409 370.613 203.753L353.52 220.827H242.868V224.51H353.52L357.968 228.953ZM411.519 205.177C411.519 205.754 411.077 206.22 410.511 206.282V204.072C411.077 204.146 411.519 204.6 411.519 205.177ZM362.417 231.924C362.109 231.924 361.814 231.801 361.618 231.592L363.228 229.984C363.436 230.193 363.559 230.475 363.559 230.782C363.559 231.408 363.056 231.911 362.429 231.911L362.417 231.924Z" fill="#4174BA"/>
<path d="M473.069 249.082C470.415 249.082 468.252 251.243 468.252 253.894C468.252 254.287 468.314 254.655 468.4 255.023L444.942 272.159C444.229 271.729 443.394 271.471 442.497 271.471C441.821 271.471 441.17 271.619 440.592 271.864L424.95 256.239L430.209 250.985H448.407C449.132 252.728 450.853 253.955 452.855 253.955C455.51 253.955 457.672 251.795 457.672 249.144C457.672 246.492 455.51 244.332 452.855 244.332C450.853 244.332 449.132 245.56 448.407 247.303H429.447C428.956 247.303 428.489 247.499 428.145 247.843L412.158 263.812L408.73 260.387C408.386 260.044 407.919 259.847 407.427 259.847H237.879V263.53H406.678L427.739 284.556L412.957 295.444C412.219 294.978 411.347 294.695 410.401 294.695C407.747 294.695 405.584 296.856 405.584 299.507C405.584 302.158 407.747 304.319 410.401 304.319C413.055 304.319 415.218 302.158 415.218 299.507C415.218 299.139 415.169 298.783 415.083 298.439L431.647 286.238C432.077 285.919 432.347 285.428 432.396 284.9C432.433 284.36 432.236 283.844 431.855 283.464L414.775 266.414L422.345 258.853L438.024 274.516C437.803 275.068 437.68 275.657 437.68 276.283C437.68 278.934 439.843 281.095 442.497 281.095C445.151 281.095 447.314 278.934 447.314 276.283C447.314 275.866 447.24 275.473 447.154 275.092L470.575 257.994C471.3 258.436 472.147 258.706 473.069 258.706C475.723 258.706 477.886 256.545 477.886 253.894C477.886 251.243 475.723 249.082 473.069 249.082ZM453.998 249.144C453.998 249.77 453.494 250.273 452.868 250.273V248.002C453.494 248.002 453.998 248.505 453.998 249.131V249.144ZM409.258 299.519C409.258 299.114 409.492 298.77 409.811 298.562L411.138 300.354C410.942 300.526 410.683 300.648 410.389 300.648C409.762 300.648 409.258 300.145 409.258 299.519ZM473.733 254.802L472.418 253.01C472.602 252.875 472.823 252.777 473.069 252.777C473.696 252.777 474.2 253.28 474.2 253.906C474.2 254.287 474.003 254.594 473.72 254.802H473.733Z" fill="#4174BA"/>
<path d="M488.109 238.122C487.188 238.122 486.34 238.392 485.615 238.834L483.342 237.176C483.022 236.943 482.641 236.821 482.26 236.821H379.742L392.067 224.509H455.878C456.603 226.252 458.323 227.479 460.326 227.479C462.981 227.479 465.143 225.319 465.143 222.668C465.143 220.016 462.981 217.856 460.326 217.856C458.323 217.856 456.603 219.084 455.878 220.827H417.11L423.782 214.161H434.387C434.976 214.161 435.529 213.879 435.873 213.413L437.348 211.412C437.717 211.498 438.098 211.559 438.491 211.559C441.145 211.559 443.308 209.399 443.308 206.747C443.308 204.096 441.145 201.936 438.491 201.936C435.837 201.936 433.674 204.096 433.674 206.747C433.674 207.656 433.944 208.503 434.387 209.227L433.465 210.479H424.876V195.467C424.876 194.878 424.593 194.325 424.114 193.982L415.193 187.476C415.279 187.108 415.34 186.74 415.34 186.347C415.34 183.696 413.178 181.535 410.524 181.535C407.869 181.535 405.707 183.696 405.707 186.347C405.707 188.998 407.869 191.159 410.524 191.159C411.445 191.159 412.293 190.888 413.018 190.447L421.177 196.4V211.559L411.9 220.827H391.944L388.356 217.242C388.59 216.678 388.725 216.052 388.725 215.401C388.725 212.75 386.562 210.589 383.908 210.589C381.254 210.589 379.091 212.75 379.091 215.401C379.091 218.052 381.254 220.213 383.908 220.213C384.559 220.213 385.186 220.078 385.751 219.845L388.639 222.729L370.256 241.092H242.88V244.775H371.018C371.509 244.775 371.976 244.578 372.32 244.234L376.056 240.503H481.658L483.44 241.804C483.354 242.172 483.292 242.541 483.292 242.933C483.292 245.585 485.455 247.745 488.109 247.745C490.763 247.745 492.926 245.585 492.926 242.933C492.926 240.282 490.763 238.122 488.109 238.122ZM438.491 205.618C439.117 205.618 439.621 206.121 439.621 206.747C439.621 206.993 439.523 207.214 439.388 207.41L437.594 206.097C437.803 205.815 438.122 205.618 438.491 205.618ZM410.524 185.218C410.769 185.218 410.99 185.316 411.175 185.451L409.86 187.243C409.577 187.034 409.381 186.715 409.381 186.347C409.381 185.721 409.885 185.218 410.511 185.218H410.524ZM461.469 222.68C461.469 223.306 460.965 223.809 460.339 223.809V221.538C460.965 221.538 461.469 222.042 461.469 222.668V222.68ZM383.908 214.284C384.215 214.284 384.51 214.407 384.707 214.616L383.097 216.224C382.888 216.015 382.765 215.733 382.765 215.426C382.765 214.8 383.269 214.296 383.896 214.296L383.908 214.284ZM488.109 244.075C487.863 244.075 487.642 243.977 487.458 243.842L488.773 242.05C489.055 242.258 489.252 242.577 489.252 242.946C489.252 243.572 488.748 244.075 488.122 244.075H488.109Z" fill="#4174BA"/>
<path d="M410.524 285.625C413.178 285.625 415.34 283.465 415.34 280.814C415.34 278.162 413.178 276.002 410.524 276.002C408.521 276.002 406.8 277.229 406.075 278.972H242.88V282.655H406.075C406.8 284.398 408.521 285.625 410.524 285.625ZM411.654 280.814C411.654 281.415 411.175 281.906 410.573 281.931V279.684C411.175 279.721 411.654 280.2 411.654 280.801V280.814Z" fill="#4174BA"/>
<path d="M345.656 210C348.31 210 350.473 207.84 350.473 205.189C350.473 202.537 348.31 200.377 345.656 200.377C343.702 200.377 342.019 201.555 341.269 203.225H242.893V206.907H341.171C341.872 208.711 343.604 210 345.656 210ZM346.787 205.189C346.787 205.815 346.283 206.318 345.656 206.318V204.047C346.283 204.047 346.787 204.55 346.787 205.176V205.189Z" fill="#4174BA"/>
<g opacity="0.2">
<path d="M357.968 228.953C357.735 229.518 357.6 230.144 357.6 230.794C357.6 233.446 359.762 235.606 362.417 235.606C365.071 235.606 367.233 233.446 367.233 230.794C367.233 228.143 365.071 225.983 362.417 225.983C361.765 225.983 361.139 226.118 360.573 226.351L356.887 222.668L372.677 206.895H405.891C406.592 208.7 408.324 209.989 410.376 209.989C413.03 209.989 415.193 207.828 415.193 205.177C415.193 202.526 413.03 200.365 410.376 200.365C408.422 200.365 406.739 201.544 405.989 203.213H371.915C371.424 203.213 370.957 203.409 370.613 203.753L353.52 220.827H242.868V224.51H353.52L357.968 228.953ZM411.519 205.177C411.519 205.754 411.077 206.22 410.511 206.282V204.072C411.077 204.146 411.519 204.6 411.519 205.177ZM362.417 231.924C362.109 231.924 361.814 231.801 361.618 231.592L363.228 229.984C363.436 230.193 363.559 230.475 363.559 230.782C363.559 231.408 363.056 231.911 362.429 231.911L362.417 231.924Z" fill="#F0F7FF"/>
<path d="M473.069 249.082C470.415 249.082 468.252 251.243 468.252 253.894C468.252 254.287 468.314 254.655 468.4 255.023L444.942 272.159C444.229 271.729 443.394 271.471 442.497 271.471C441.821 271.471 441.17 271.619 440.592 271.864L424.95 256.239L430.209 250.985H448.407C449.132 252.728 450.853 253.955 452.855 253.955C455.51 253.955 457.672 251.795 457.672 249.144C457.672 246.492 455.51 244.332 452.855 244.332C450.853 244.332 449.132 245.56 448.407 247.303H429.447C428.956 247.303 428.489 247.499 428.145 247.843L412.158 263.812L408.73 260.387C408.386 260.044 407.919 259.847 407.427 259.847H237.879V263.53H406.678L427.739 284.556L412.957 295.444C412.219 294.978 411.347 294.695 410.401 294.695C407.747 294.695 405.584 296.856 405.584 299.507C405.584 302.158 407.747 304.319 410.401 304.319C413.055 304.319 415.218 302.158 415.218 299.507C415.218 299.139 415.169 298.783 415.083 298.439L431.647 286.238C432.077 285.919 432.347 285.428 432.396 284.9C432.433 284.36 432.236 283.844 431.855 283.464L414.775 266.414L422.345 258.853L438.024 274.516C437.803 275.068 437.68 275.657 437.68 276.283C437.68 278.934 439.843 281.095 442.497 281.095C445.151 281.095 447.314 278.934 447.314 276.283C447.314 275.866 447.24 275.473 447.154 275.092L470.575 257.994C471.3 258.436 472.147 258.706 473.069 258.706C475.723 258.706 477.886 256.545 477.886 253.894C477.886 251.243 475.723 249.082 473.069 249.082ZM453.998 249.144C453.998 249.77 453.494 250.273 452.868 250.273V248.002C453.494 248.002 453.998 248.505 453.998 249.131V249.144ZM409.258 299.519C409.258 299.114 409.492 298.77 409.811 298.562L411.138 300.354C410.942 300.526 410.683 300.648 410.389 300.648C409.762 300.648 409.258 300.145 409.258 299.519ZM473.733 254.802L472.418 253.01C472.602 252.875 472.823 252.777 473.069 252.777C473.696 252.777 474.2 253.28 474.2 253.906C474.2 254.287 474.003 254.594 473.72 254.802H473.733Z" fill="#F0F7FF"/>
<path d="M488.109 238.122C487.188 238.122 486.34 238.392 485.615 238.834L483.342 237.176C483.022 236.943 482.641 236.821 482.26 236.821H379.742L392.067 224.509H455.878C456.603 226.252 458.323 227.479 460.326 227.479C462.981 227.479 465.143 225.319 465.143 222.668C465.143 220.016 462.981 217.856 460.326 217.856C458.323 217.856 456.603 219.084 455.878 220.827H417.11L423.782 214.161H434.387C434.976 214.161 435.529 213.879 435.873 213.413L437.348 211.412C437.717 211.498 438.098 211.559 438.491 211.559C441.145 211.559 443.308 209.399 443.308 206.747C443.308 204.096 441.145 201.936 438.491 201.936C435.837 201.936 433.674 204.096 433.674 206.747C433.674 207.656 433.944 208.503 434.387 209.227L433.465 210.479H424.876V195.467C424.876 194.878 424.593 194.325 424.114 193.982L415.193 187.476C415.279 187.108 415.34 186.74 415.34 186.347C415.34 183.696 413.178 181.535 410.524 181.535C407.869 181.535 405.707 183.696 405.707 186.347C405.707 188.998 407.869 191.159 410.524 191.159C411.445 191.159 412.293 190.888 413.018 190.447L421.177 196.4V211.559L411.9 220.827H391.944L388.356 217.242C388.59 216.678 388.725 216.052 388.725 215.401C388.725 212.75 386.562 210.589 383.908 210.589C381.254 210.589 379.091 212.75 379.091 215.401C379.091 218.052 381.254 220.213 383.908 220.213C384.559 220.213 385.186 220.078 385.751 219.845L388.639 222.729L370.256 241.092H242.88V244.775H371.018C371.509 244.775 371.976 244.578 372.32 244.234L376.056 240.503H481.658L483.44 241.804C483.354 242.172 483.292 242.541 483.292 242.933C483.292 245.585 485.455 247.745 488.109 247.745C490.763 247.745 492.926 245.585 492.926 242.933C492.926 240.282 490.763 238.122 488.109 238.122ZM438.491 205.618C439.117 205.618 439.621 206.121 439.621 206.747C439.621 206.993 439.523 207.214 439.388 207.41L437.594 206.097C437.803 205.815 438.122 205.618 438.491 205.618ZM410.524 185.218C410.769 185.218 410.99 185.316 411.175 185.451L409.86 187.243C409.577 187.034 409.381 186.715 409.381 186.347C409.381 185.721 409.885 185.218 410.511 185.218H410.524ZM461.469 222.68C461.469 223.306 460.965 223.809 460.339 223.809V221.538C460.965 221.538 461.469 222.042 461.469 222.668V222.68ZM383.908 214.284C384.215 214.284 384.51 214.407 384.707 214.616L383.097 216.224C382.888 216.015 382.765 215.733 382.765 215.426C382.765 214.8 383.269 214.296 383.896 214.296L383.908 214.284ZM488.109 244.075C487.863 244.075 487.642 243.977 487.458 243.842L488.773 242.05C489.055 242.258 489.252 242.577 489.252 242.946C489.252 243.572 488.748 244.075 488.122 244.075H488.109Z" fill="#F0F7FF"/>
<path d="M410.524 285.625C413.178 285.625 415.34 283.465 415.34 280.814C415.34 278.162 413.178 276.002 410.524 276.002C408.521 276.002 406.8 277.229 406.075 278.972H242.88V282.655H406.075C406.8 284.398 408.521 285.625 410.524 285.625ZM411.654 280.814C411.654 281.415 411.175 281.906 410.573 281.931V279.684C411.175 279.721 411.654 280.2 411.654 280.801V280.814Z" fill="#F0F7FF"/>
<path d="M345.656 210C348.31 210 350.473 207.84 350.473 205.189C350.473 202.537 348.31 200.377 345.656 200.377C343.702 200.377 342.019 201.555 341.269 203.225H242.893V206.907H341.171C341.872 208.711 343.604 210 345.656 210ZM346.787 205.189C346.787 205.815 346.283 206.318 345.656 206.318V204.047C346.283 204.047 346.787 204.55 346.787 205.176V205.189Z" fill="#F0F7FF"/>
</g>
<path d="M413.362 205.176C413.362 206.82 412.035 208.146 410.389 208.146C408.742 208.146 407.415 206.82 407.415 205.176C407.415 203.531 408.742 202.205 410.389 202.205C412.035 202.205 413.362 203.531 413.362 205.176Z" fill="#F0F7FF"/>
<path d="M413.497 186.345C413.497 187.99 412.17 189.316 410.523 189.316C408.877 189.316 407.55 187.99 407.55 186.345C407.55 184.701 408.877 183.375 410.523 183.375C412.17 183.375 413.497 184.701 413.497 186.345Z" fill="#F0F7FF"/>
<path d="M460.326 225.638C461.969 225.638 463.3 224.308 463.3 222.668C463.3 221.027 461.969 219.697 460.326 219.697C458.684 219.697 457.353 221.027 457.353 222.668C457.353 224.308 458.684 225.638 460.326 225.638Z" fill="#F0F7FF"/>
<path d="M455.841 249.142C455.841 250.787 454.514 252.113 452.868 252.113C451.221 252.113 449.894 250.787 449.894 249.142C449.894 247.498 451.221 246.172 452.868 246.172C454.514 246.172 455.841 247.498 455.841 249.142Z" fill="#F0F7FF"/>
<path d="M476.043 253.892C476.043 255.537 474.715 256.863 473.069 256.863C471.422 256.863 470.095 255.537 470.095 253.892C470.095 252.248 471.422 250.922 473.069 250.922C474.715 250.922 476.043 252.248 476.043 253.892Z" fill="#F0F7FF"/>
<path d="M445.47 276.283C445.47 277.928 444.143 279.253 442.497 279.253C440.85 279.253 439.523 277.928 439.523 276.283C439.523 274.638 440.85 273.312 442.497 273.312C444.143 273.312 445.47 274.638 445.47 276.283Z" fill="#F0F7FF"/>
<path d="M491.083 242.933C491.083 244.578 489.756 245.904 488.109 245.904C486.463 245.904 485.136 244.578 485.136 242.933C485.136 241.289 486.463 239.963 488.109 239.963C489.756 239.963 491.083 241.289 491.083 242.933Z" fill="#F0F7FF"/>
<path d="M413.362 299.519C413.362 301.164 412.035 302.49 410.388 302.49C408.742 302.49 407.415 301.164 407.415 299.519C407.415 297.874 408.742 296.549 410.388 296.549C412.035 296.549 413.362 297.874 413.362 299.519Z" fill="#F0F7FF"/>
<path d="M413.497 280.812C413.497 282.457 412.17 283.783 410.523 283.783C408.877 283.783 407.55 282.457 407.55 280.812C407.55 279.167 408.877 277.842 410.523 277.842C412.17 277.842 413.497 279.167 413.497 280.812Z" fill="#F0F7FF"/>
<path d="M386.882 215.412C386.882 217.057 385.555 218.382 383.908 218.382C382.262 218.382 380.935 217.057 380.935 215.412C380.935 213.767 382.262 212.441 383.908 212.441C385.555 212.441 386.882 213.767 386.882 215.412Z" fill="#F0F7FF"/>
<path d="M362.429 233.763C364.071 233.763 365.402 232.433 365.402 230.793C365.402 229.152 364.071 227.822 362.429 227.822C360.786 227.822 359.455 229.152 359.455 230.793C359.455 232.433 360.786 233.763 362.429 233.763Z" fill="#F0F7FF"/>
<path d="M348.629 205.176C348.629 206.82 347.302 208.146 345.656 208.146C344.009 208.146 342.682 206.82 342.682 205.176C342.682 203.531 344.009 202.205 345.656 202.205C347.302 202.205 348.629 203.531 348.629 205.176Z" fill="#F0F7FF"/>
<path d="M441.464 206.748C441.464 208.393 440.137 209.718 438.491 209.718C436.844 209.718 435.517 208.393 435.517 206.748C435.517 205.103 436.844 203.777 438.491 203.777C440.137 203.777 441.464 205.103 441.464 206.748Z" fill="#F0F7FF"/>
</g>
<g>
<path d="M296.467 234.157H305.818V227.369H310.512V217.979H305.818V211.179H286.686V201.371H72.9629H68.2689H63.5627V210.761H68.2689V214.419H58.0577H51.582V205.287H36.8242V220.029H48.9032V231.677H41.5305V248.187H58.0577V256.251H61.3386V260.142H53.6832V264.746H46.888V274.136H53.6832V284.483H68.2689H70.2104H280.21H300.399V275.093H287.485V269.95H308.657V253.44H302.525V247.622H322.874V238.244H296.467V234.157Z" fill="#4174BA"/>
<path d="M35.7678 238.244H26.3799V247.622H35.7678V238.244Z" fill="#4174BA"/>
<path d="M40.4617 266.305H31.0737V275.683H40.4617V266.305Z" fill="#4174BA"/>
<path d="M19.3879 247.916H10V257.294H19.3879V247.916Z" fill="#4174BA"/>
<path d="M26.7605 220.359H17.3726V229.737H26.7605V220.359Z" fill="#4174BA"/>
<path d="M341.134 257H331.746V266.378H341.134V257Z" fill="#4174BA"/>
<g opacity="0.2">
<path d="M296.467 234.157H305.818V227.369H310.512V217.979H305.818V211.179H286.686V201.371H72.9629H68.2689H63.5627V210.761H68.2689V214.419H58.0577H51.582V205.287H36.8242V220.029H48.9032V231.677H41.5305V248.187H58.0577V256.251H61.3386V260.142H53.6832V264.746H46.888V274.136H53.6832V284.483H68.2689H70.2104H280.21H300.399V275.093H287.485V269.95H308.657V253.44H302.525V247.622H322.874V238.244H296.467V234.157Z" fill="#F0F7FF"/>
<path d="M35.7678 238.244H26.3799V247.622H35.7678V238.244Z" fill="#F0F7FF"/>
<path d="M40.4617 266.305H31.0737V275.683H40.4617V266.305Z" fill="#F0F7FF"/>
<path d="M19.3879 247.916H10V257.294H19.3879V247.916Z" fill="#F0F7FF"/>
<path d="M26.7605 220.359H17.3726V229.737H26.7605V220.359Z" fill="#F0F7FF"/>
<path d="M341.134 257H331.746V266.378H341.134V257Z" fill="#F0F7FF"/>
</g>
</g>
</g>
<defs>
<filter id="filter0_d_156_1233" x="0" y="33" width="503" height="391" filterUnits="userSpaceOnUse" color-interpolation-filters="sRGB">
<feFlood flood-opacity="0" result="BackgroundImageFix"/>
<feColorMatrix in="SourceAlpha" type="matrix" values="0 0 0 0 0 0 0 0 0 0 0 0 0 0 0 0 0 0 127 0" result="hardAlpha"/>
<feOffset dy="4"/>
<feGaussianBlur stdDeviation="5"/>
<feComposite in2="hardAlpha" operator="out"/>
<feColorMatrix type="matrix" values="0 0 0 0 0.120492 0 0 0 0 0.285246 0 0 0 0 0.479508 0 0 0 0.25 0"/>
<feBlend mode="normal" in2="BackgroundImageFix" result="effect1_dropShadow_156_1233"/>
<feBlend mode="normal" in="SourceGraphic" in2="effect1_dropShadow_156_1233" result="shape"/>
</filter>
<filter id="filter1_d_156_1233" x="377.152" y="73.2344" width="93.4814" height="62.9863" filterUnits="userSpaceOnUse" color-interpolation-filters="sRGB">
<feFlood flood-opacity="0" result="BackgroundImageFix"/>
<feColorMatrix in="SourceAlpha" type="matrix" values="0 0 0 0 0 0 0 0 0 0 0 0 0 0 0 0 0 0 127 0" result="hardAlpha"/>
<feOffset dy="4"/>
<feGaussianBlur stdDeviation="5"/>
<feComposite in2="hardAlpha" operator="out"/>
<feColorMatrix type="matrix" values="0 0 0 0 0.120492 0 0 0 0 0.285246 0 0 0 0 0.479508 0 0 0 0.25 0"/>
<feBlend mode="normal" in2="BackgroundImageFix" result="effect1_dropShadow_156_1233"/>
<feBlend mode="normal" in="SourceGraphic" in2="effect1_dropShadow_156_1233" result="shape"/>
</filter>
<filter id="filter2_d_156_1233" x="125.472" y="325.211" width="93.4814" height="62.9863" filterUnits="userSpaceOnUse" color-interpolation-filters="sRGB">
<feFlood flood-opacity="0" result="BackgroundImageFix"/>
<feColorMatrix in="SourceAlpha" type="matrix" values="0 0 0 0 0 0 0 0 0 0 0 0 0 0 0 0 0 0 127 0" result="hardAlpha"/>
<feOffset dy="4"/>
<feGaussianBlur stdDeviation="5"/>
<feComposite in2="hardAlpha" operator="out"/>
<feColorMatrix type="matrix" values="0 0 0 0 0.120492 0 0 0 0 0.285246 0 0 0 0 0.479508 0 0 0 0.25 0"/>
<feBlend mode="normal" in2="BackgroundImageFix" result="effect1_dropShadow_156_1233"/>
<feBlend mode="normal" in="SourceGraphic" in2="effect1_dropShadow_156_1233" result="shape"/>
</filter>
<filter id="filter3_d_156_1233" x="295.917" y="41.25" width="67.1362" height="47.582" filterUnits="userSpaceOnUse" color-interpolation-filters="sRGB">
<feFlood flood-opacity="0" result="BackgroundImageFix"/>
<feColorMatrix in="SourceAlpha" type="matrix" values="0 0 0 0 0 0 0 0 0 0 0 0 0 0 0 0 0 0 127 0" result="hardAlpha"/>
<feOffset dy="4"/>
<feGaussianBlur stdDeviation="5"/>
<feComposite in2="hardAlpha" operator="out"/>
<feColorMatrix type="matrix" values="0 0 0 0 0.120492 0 0 0 0 0.285246 0 0 0 0 0.479508 0 0 0 0.25 0"/>
<feBlend mode="normal" in2="BackgroundImageFix" result="effect1_dropShadow_156_1233"/>
<feBlend mode="normal" in="SourceGraphic" in2="effect1_dropShadow_156_1233" result="shape"/>
</filter>
<filter id="filter4_d_156_1233" x="44.2363" y="293.225" width="67.1362" height="47.582" filterUnits="userSpaceOnUse" color-interpolation-filters="sRGB">
<feFlood flood-opacity="0" result="BackgroundImageFix"/>
<feColorMatrix in="SourceAlpha" type="matrix" values="0 0 0 0 0 0 0 0 0 0 0 0 0 0 0 0 0 0 127 0" result="hardAlpha"/>
<feOffset dy="4"/>
<feGaussianBlur stdDeviation="5"/>
<feComposite in2="hardAlpha" operator="out"/>
<feColorMatrix type="matrix" values="0 0 0 0 0.120492 0 0 0 0 0.285246 0 0 0 0 0.479508 0 0 0 0.25 0"/>
<feBlend mode="normal" in2="BackgroundImageFix" result="effect1_dropShadow_156_1233"/>
<feBlend mode="normal" in="SourceGraphic" in2="effect1_dropShadow_156_1233" result="shape"/>
</filter>
<filter id="filter5_d_156_1233" x="95.4648" y="33" width="51.7642" height="38.584" filterUnits="userSpaceOnUse" color-interpolation-filters="sRGB">
<feFlood flood-opacity="0" result="BackgroundImageFix"/>
<feColorMatrix in="SourceAlpha" type="matrix" values="0 0 0 0 0 0 0 0 0 0 0 0 0 0 0 0 0 0 127 0" result="hardAlpha"/>
<feOffset dy="4"/>
<feGaussianBlur stdDeviation="5"/>
<feComposite in2="hardAlpha" operator="out"/>
<feColorMatrix type="matrix" values="0 0 0 0 0.120492 0 0 0 0 0.285246 0 0 0 0 0.479508 0 0 0 0.25 0"/>
<feBlend mode="normal" in2="BackgroundImageFix" result="effect1_dropShadow_156_1233"/>
<feBlend mode="normal" in="SourceGraphic" in2="effect1_dropShadow_156_1233" result="shape"/>
</filter>
<filter id="filter6_d_156_1233" x="139.836" y="71.2246" width="90.8027" height="50.3809" filterUnits="userSpaceOnUse" color-interpolation-filters="sRGB">
<feFlood flood-opacity="0" result="BackgroundImageFix"/>
<feColorMatrix in="SourceAlpha" type="matrix" values="0 0 0 0 0 0 0 0 0 0 0 0 0 0 0 0 0 0 127 0" result="hardAlpha"/>
<feOffset dy="4"/>
<feGaussianBlur stdDeviation="5"/>
<feComposite in2="hardAlpha" operator="out"/>
<feColorMatrix type="matrix" values="0 0 0 0 0.120492 0 0 0 0 0.285246 0 0 0 0 0.479508 0 0 0 0.25 0"/>
<feBlend mode="normal" in2="BackgroundImageFix" result="effect1_dropShadow_156_1233"/>
<feBlend mode="normal" in="SourceGraphic" in2="effect1_dropShadow_156_1233" result="shape"/>
</filter>
<filter id="filter7_d_156_1233" x="35.4629" y="111.926" width="95.8901" height="63.6973" filterUnits="userSpaceOnUse" color-interpolation-filters="sRGB">
<feFlood flood-opacity="0" result="BackgroundImageFix"/>
<feColorMatrix in="SourceAlpha" type="matrix" values="0 0 0 0 0 0 0 0 0 0 0 0 0 0 0 0 0 0 127 0" result="hardAlpha"/>
<feOffset dy="4"/>
<feGaussianBlur stdDeviation="5"/>
<feComposite in2="hardAlpha" operator="out"/>
<feColorMatrix type="matrix" values="0 0 0 0 0.120492 0 0 0 0 0.285246 0 0 0 0 0.479508 0 0 0 0.25 0"/>
<feBlend mode="normal" in2="BackgroundImageFix" result="effect1_dropShadow_156_1233"/>
<feBlend mode="normal" in="SourceGraphic" in2="effect1_dropShadow_156_1233" result="shape"/>
</filter>
<filter id="filter8_d_156_1233" x="227.879" y="175.535" width="275.047" height="142.783" filterUnits="userSpaceOnUse" color-interpolation-filters="sRGB">
<feFlood flood-opacity="0" result="BackgroundImageFix"/>
<feColorMatrix in="SourceAlpha" type="matrix" values="0 0 0 0 0 0 0 0 0 0 0 0 0 0 0 0 0 0 127 0" result="hardAlpha"/>
<feOffset dy="4"/>
<feGaussianBlur stdDeviation="5"/>
<feComposite in2="hardAlpha" operator="out"/>
<feColorMatrix type="matrix" values="0 0 0 0 0.120492 0 0 0 0 0.285246 0 0 0 0 0.479508 0 0 0 0.25 0"/>
<feBlend mode="normal" in2="BackgroundImageFix" result="effect1_dropShadow_156_1233"/>
<feBlend mode="normal" in="SourceGraphic" in2="effect1_dropShadow_156_1233" result="shape"/>
</filter>
<filter id="filter9_d_156_1233" x="0" y="195.371" width="351.134" height="103.111" filterUnits="userSpaceOnUse" color-interpolation-filters="sRGB">
<feFlood flood-opacity="0" result="BackgroundImageFix"/>
<feColorMatrix in="SourceAlpha" type="matrix" values="0 0 0 0 0 0 0 0 0 0 0 0 0 0 0 0 0 0 127 0" result="hardAlpha"/>
<feOffset dy="4"/>
<feGaussianBlur stdDeviation="5"/>
<feComposite in2="hardAlpha" operator="out"/>
<feColorMatrix type="matrix" values="0 0 0 0 0.120492 0 0 0 0 0.285246 0 0 0 0 0.479508 0 0 0 0.25 0"/>
<feBlend mode="normal" in2="BackgroundImageFix" result="effect1_dropShadow_156_1233"/>
<feBlend mode="normal" in="SourceGraphic" in2="effect1_dropShadow_156_1233" result="shape"/>
</filter>
<clipPath id="clip0_156_1233">
<rect width="483" height="371" fill="white" transform="translate(10 39)"/>
</clipPath>
</defs>
</svg>
