<svg width="507" height="440" viewBox="0 0 507 440" fill="none" xmlns="http://www.w3.org/2000/svg">
<path fill-rule="evenodd" clip-rule="evenodd" d="M471.365 98.7681C482.617 94.2233 494.563 91.0238 507 89.4014V440H151.389C67.7752 440 0 368.941 0 288.654C0 208.367 62.528 142.724 141.55 137.649C159.017 58.916 229.221 0 313.248 0C382.723 0 442.773 40.2892 471.365 98.7681Z" fill="#E7F1FD"/>
<g clip-path="url(#clip0_157_1924)" filter="url(#filter0_d_157_1924)">
<path d="M414.023 147.195H242.997C240.318 147.195 238.146 149.368 238.146 152.047V405.148C238.146 407.827 240.318 409.999 242.997 409.999H414.023C416.702 409.999 418.874 407.827 418.874 405.148V152.047C418.874 149.368 416.702 147.195 414.023 147.195Z" fill="#36619B"/>
<path d="M410.385 161.354H246.646V386.137H410.385V161.354Z" fill="#D0DBF7"/>
<path d="M391.575 178.148H265.445V368.23H391.575V178.148Z" fill="#F5F9FF"/>
<path d="M391.575 178.148H265.445V189.76H391.575V178.148Z" fill="#C5DFFF"/>
<path d="M275.577 184.214C275.577 185.681 274.386 186.872 272.92 186.872C271.453 186.872 270.263 185.681 270.263 184.214C270.263 182.748 271.453 181.557 272.92 181.557C274.386 181.557 275.577 182.748 275.577 184.214Z" fill="#024473"/>
<path d="M284.518 184.214C284.518 185.681 283.328 186.872 281.861 186.872C280.395 186.872 279.204 185.681 279.204 184.214C279.204 182.748 280.395 181.557 281.861 181.557C283.328 181.557 284.518 182.748 284.518 184.214Z" fill="#4174BA"/>
<path d="M293.46 184.214C293.46 185.681 292.269 186.872 290.803 186.872C289.337 186.872 288.146 185.681 288.146 184.214C288.146 182.748 289.337 181.557 290.803 181.557C292.269 181.557 293.46 182.748 293.46 184.214Z" fill="#64ABFF"/>
<path d="M364.739 253.043L354.067 242.369L328.51 267.93L302.964 242.369L292.292 253.043L317.848 278.604L292.292 304.153L302.964 314.827L328.51 289.267L354.067 314.827L364.739 304.153L339.182 278.604L364.739 253.043Z" fill="#C5DFFF"/>
<path d="M302.678 242.369H62.8758C60.3488 242.369 58.3003 244.418 58.3003 246.945V402.072C58.3003 404.599 60.3488 406.648 62.8758 406.648H302.678C305.205 406.648 307.254 404.599 307.254 402.072V246.945C307.254 244.418 305.205 242.369 302.678 242.369Z" fill="#4174BA"/>
<path d="M299.977 250.012H65.5771V399.018H299.977V250.012Z" fill="#D0DBF7"/>
<path d="M42.126 391.607V404.829C42.126 407.674 44.4523 410 47.2969 410H318.268C321.112 410 323.439 407.674 323.439 404.829V391.607H42.126Z" fill="#4174BA"/>
<path d="M141.123 391.607V395.522C141.123 396.36 141.807 397.055 142.656 397.055H222.898C223.736 397.055 224.431 396.371 224.431 395.522V391.607H141.123Z" fill="#648FC9"/>
<path d="M189.16 300.084H81.1997V379.731H189.16V300.084Z" fill="#F5F8FF"/>
<path d="M189.16 300.084H81.1997V310.019H189.16V300.084Z" fill="#C5DFFF"/>
<path d="M89.8657 305.277C89.8657 306.534 88.8514 307.549 87.5945 307.549C86.3376 307.549 85.3232 306.534 85.3232 305.277C85.3232 304.02 86.3376 303.006 87.5945 303.006C88.8514 303.006 89.8657 304.02 89.8657 305.277Z" fill="#024473"/>
<path d="M97.5176 305.277C97.5176 306.534 96.5032 307.549 95.2463 307.549C93.9894 307.549 92.9751 306.534 92.9751 305.277C92.9751 304.02 93.9894 303.006 95.2463 303.006C96.5032 303.006 97.5176 304.02 97.5176 305.277Z" fill="#4174BA"/>
<path d="M105.169 305.277C105.169 306.534 104.155 307.549 102.898 307.549C101.641 307.549 100.626 306.534 100.626 305.277C100.626 304.02 101.641 303.006 102.898 303.006C104.155 303.006 105.169 304.02 105.169 305.277Z" fill="#64ABFF"/>
<path d="M128.884 349.584C128.884 346.254 130.208 343.663 132.854 341.799L134.122 340.917C135.323 340.134 136.172 339.494 136.646 338.987C137.12 338.48 137.352 337.851 137.352 337.102C137.352 335.205 135.764 334.268 132.6 334.268C131.134 334.268 129.612 334.466 128.047 334.852C126.481 335.238 124.993 335.8 123.592 336.517V328.975C126.591 327.607 129.954 326.924 133.669 326.924C137.683 326.924 140.869 327.762 143.217 329.449C145.566 331.125 146.746 333.452 146.746 336.418C146.746 338.083 146.371 339.428 145.621 340.454C144.871 341.479 143.592 342.626 141.806 343.905C140.604 344.787 139.722 345.46 139.16 345.934C138.609 346.408 138.19 346.938 137.914 347.522C137.639 348.106 137.495 348.823 137.495 349.672V350.599H128.884V349.573V349.584ZM129.888 361.306C129.028 360.446 128.587 359.376 128.587 358.097C128.587 356.818 129.017 355.715 129.888 354.866C130.748 354.017 131.839 353.598 133.14 353.598C134.441 353.598 135.5 354.028 136.393 354.899C137.286 355.759 137.738 356.829 137.738 358.108C137.738 359.387 137.286 360.446 136.393 361.317C135.5 362.177 134.408 362.618 133.14 362.618C131.872 362.618 130.748 362.188 129.888 361.317V361.306Z" fill="#C5DFFF"/>
<path d="M282.942 267.07H174.981V346.718H282.942V267.07Z" fill="white"/>
<path d="M282.942 267.07H174.981V277.006H282.942V267.07Z" fill="#C5DFFF"/>
<path d="M181.365 274.547C182.619 274.547 183.636 273.53 183.636 272.275C183.636 271.021 182.619 270.004 181.365 270.004C180.111 270.004 179.094 271.021 179.094 272.275C179.094 273.53 180.111 274.547 181.365 274.547Z" fill="#024473"/>
<path d="M191.299 272.275C191.299 273.533 190.284 274.547 189.028 274.547C187.771 274.547 186.756 273.533 186.756 272.275C186.756 271.018 187.771 270.004 189.028 270.004C190.284 270.004 191.299 271.018 191.299 272.275Z" fill="#4174BA"/>
<path d="M196.679 274.547C197.934 274.547 198.951 273.53 198.951 272.275C198.951 271.021 197.934 270.004 196.679 270.004C195.425 270.004 194.408 271.021 194.408 272.275C194.408 273.53 195.425 274.547 196.679 274.547Z" fill="#64ABFF"/>
<path d="M222.666 316.57C222.666 313.24 223.989 310.649 226.635 308.785L227.903 307.903C229.105 307.12 229.954 306.481 230.428 305.974C230.902 305.466 231.134 304.838 231.134 304.088C231.134 302.191 229.546 301.254 226.382 301.254C224.915 301.254 223.394 301.453 221.828 301.838C220.263 302.224 218.774 302.787 217.374 303.504V295.961C220.373 294.594 223.736 293.91 227.451 293.91C231.464 293.91 234.651 294.748 236.999 296.435C239.348 298.111 240.527 300.438 240.527 303.404C240.527 305.069 240.152 306.415 239.403 307.44C238.653 308.466 237.374 309.612 235.588 310.892C234.386 311.774 233.504 312.446 232.942 312.921C232.391 313.395 231.972 313.924 231.696 314.508C231.42 315.093 231.277 315.81 231.277 316.659V317.585H222.666V316.559V316.57ZM223.67 328.292C222.81 327.432 222.369 326.362 222.369 325.083C222.369 323.804 222.799 322.701 223.67 321.852C224.53 321.003 225.621 320.584 226.922 320.584C228.223 320.584 229.281 321.014 230.174 321.885C231.068 322.745 231.52 323.815 231.52 325.094C231.52 326.373 231.068 327.432 230.174 328.303C229.281 329.163 228.19 329.604 226.922 329.604C225.654 329.604 224.53 329.174 223.67 328.303V328.292Z" fill="#C5DFFF"/>
<path d="M203.173 168.964L186.084 173.606L181.398 156.371L146.503 165.854L162.798 225.83L214.849 211.682L203.262 169.008L203.173 168.953V168.964ZM185.654 203.456C185.18 204.261 184.474 204.779 183.559 205.033C182.611 205.286 181.74 205.187 180.946 204.735C180.152 204.283 179.623 203.588 179.381 202.673C179.127 201.725 179.226 200.865 179.689 200.082C180.152 199.299 180.847 198.781 181.795 198.516C182.71 198.262 183.581 198.362 184.408 198.814C185.224 199.266 185.764 199.949 186.007 200.865C186.26 201.78 186.139 202.651 185.665 203.445L185.654 203.456ZM188.234 186.552C187.892 187.445 187.198 188.526 186.15 189.794C185.445 190.665 184.948 191.326 184.64 191.778C184.331 192.231 184.133 192.694 184.044 193.179C183.956 193.664 184 194.204 184.166 194.822L184.353 195.495L178.124 197.193L177.925 196.454C177.275 194.05 177.716 191.911 179.259 190.047L180.009 189.165C180.726 188.36 181.211 187.732 181.453 187.268C181.696 186.805 181.74 186.309 181.597 185.769C181.222 184.401 179.888 184.027 177.606 184.644C176.547 184.931 175.489 185.372 174.43 185.967C173.372 186.563 172.413 187.246 171.531 188.051L170.053 182.593C171.961 181.016 174.254 179.858 176.944 179.12C179.844 178.326 182.313 178.315 184.342 179.064C186.371 179.814 187.683 181.27 188.267 183.42C188.598 184.622 188.587 185.67 188.245 186.563L188.234 186.552Z" fill="#C5DFFF"/>
<path d="M184.728 157.109L188.19 169.879L200.858 166.438L184.728 157.109Z" fill="#C5DFFF"/>
<path d="M300.109 100.618L277.099 93.2523L284.53 70.0517L237.551 55L211.696 135.739L281.774 158.179L300.164 100.729L300.098 100.607L300.109 100.618ZM254.464 127.105C253.317 127.667 252.126 127.744 250.892 127.347C249.624 126.939 248.697 126.179 248.124 125.065C247.551 123.951 247.463 122.771 247.86 121.536C248.267 120.268 249.028 119.353 250.131 118.791C251.233 118.228 252.424 118.162 253.692 118.57C254.927 118.967 255.853 119.728 256.459 120.853C257.066 121.977 257.165 123.157 256.768 124.392C256.371 125.627 255.599 126.531 254.453 127.094L254.464 127.105ZM269.954 109.671C268.907 110.443 267.308 111.16 265.158 111.844C263.703 112.329 262.634 112.715 261.95 113.001C261.266 113.288 260.693 113.674 260.241 114.159C259.789 114.645 259.425 115.306 259.161 116.122L258.874 117.026L250.484 114.336L250.803 113.332C251.84 110.09 253.935 107.973 257.088 106.992L258.598 106.529C260.021 106.143 261.035 105.779 261.652 105.437C262.27 105.095 262.7 104.555 262.931 103.827C263.527 101.986 262.27 100.563 259.194 99.5818C257.76 99.1186 256.228 98.843 254.574 98.7327C252.931 98.6224 251.31 98.6996 249.723 98.9642L252.071 91.6203C255.423 91.2234 258.907 91.5983 262.534 92.7671C266.448 94.0242 269.282 95.8326 271.046 98.2034C272.81 100.574 273.229 103.21 272.303 106.099C271.785 107.72 271.002 108.911 269.943 109.682L269.954 109.671Z" fill="#C5DFFF"/>
<path d="M287.772 73.3594L282.27 90.5393L299.315 96.0086L287.772 73.3594Z" fill="#C5DFFF"/>
<path d="M427.838 117.049H329.47C324.403 117.049 320.296 121.156 320.296 126.223V187.853C320.296 192.919 324.403 197.027 329.47 197.027H427.838C432.904 197.027 437.011 192.919 437.011 187.853V126.223C437.011 121.156 432.904 117.049 427.838 117.049Z" fill="#035B9B"/>
<path d="M405.379 184.203H351.917C348.907 184.203 346.526 183.001 345.379 180.895C344.233 178.788 344.53 176.142 346.184 173.617L372.226 133.721C373.825 131.273 376.162 129.873 378.643 129.873C381.124 129.873 383.472 131.273 385.06 133.721L411.102 173.628C412.744 176.153 413.042 178.799 411.906 180.906C410.771 183.001 408.389 184.214 405.379 184.214V184.203ZM350.925 176.715C350.341 177.608 350.33 178.127 350.363 178.215C350.407 178.27 350.848 178.546 351.917 178.546H405.379C406.449 178.546 406.89 178.27 406.945 178.193C406.967 178.116 406.956 177.597 406.372 176.704L380.33 136.809C379.812 136.004 379.172 135.53 378.643 135.53C378.114 135.53 377.485 136.004 376.956 136.809L350.914 176.704L350.925 176.715Z" fill="white"/>
<path d="M377.011 173.385C376.581 172.955 376.361 172.414 376.361 171.786C376.361 171.157 376.581 170.617 377.011 170.187C377.441 169.757 377.982 169.536 378.61 169.536C379.238 169.536 379.779 169.757 380.231 170.187C380.672 170.617 380.892 171.157 380.892 171.786C380.892 172.414 380.672 172.955 380.231 173.385C379.79 173.815 379.249 174.035 378.61 174.035C377.971 174.035 377.441 173.815 377.011 173.385ZM375.677 146.832H381.62L380.517 165.842H376.78L375.677 146.832Z" fill="white"/>
<path d="M113.129 207.514H31.6075C27.406 207.514 24 210.92 24 215.122V266.188C24 270.39 27.406 273.796 31.6075 273.796H113.129C117.331 273.796 120.737 270.39 120.737 266.188V215.122C120.737 210.92 117.331 207.514 113.129 207.514Z" fill="#035B9B"/>
<path d="M72.3684 214.186C57.7708 214.186 45.8965 226.062 45.8965 240.661C45.8965 255.261 57.7708 267.137 72.3684 267.137C86.9661 267.137 98.8404 255.261 98.8404 240.661C98.8404 226.062 86.9661 214.186 72.3684 214.186ZM72.3684 219.181C77.396 219.181 82.0157 220.923 85.6761 223.823L55.5216 253.982C52.622 250.321 50.88 245.689 50.88 240.672C50.88 228.829 60.5161 219.192 72.3574 219.192L72.3684 219.181ZM72.3684 262.153C67.3409 262.153 62.7212 260.41 59.0608 257.51L89.2152 227.352C92.1149 231.013 93.8569 235.644 93.8569 240.661C93.8569 252.504 84.2207 262.142 72.3795 262.142L72.3684 262.153Z" fill="white"/>
<g filter="url(#filter1_d_157_1924)">
<path d="M70.913 140.656V136.333H65.4334C65.0695 133.874 64.1103 131.614 62.688 129.706L66.5579 125.836L63.5039 122.781L59.634 126.652C57.7266 125.229 55.4664 124.27 53.0077 123.906V118.426H48.6858V123.906C46.2271 124.27 43.9669 125.229 42.0595 126.652L38.1896 122.781L35.1356 125.836L39.0055 129.706C37.5832 131.614 36.624 133.874 36.2602 136.333H30.7695V140.656H36.2491C36.613 143.115 37.5722 145.376 38.9945 147.283L35.1246 151.154L38.1786 154.208L42.0485 150.338C43.9559 151.76 46.2161 152.719 48.6748 153.083V158.564H52.9967V153.083C55.4554 152.719 57.7156 151.76 59.623 150.338L63.4929 154.208L66.5469 151.154L62.677 147.283C64.0993 145.376 65.0585 143.115 65.4223 140.656H70.9019H70.913ZM50.8468 147.636C45.7971 147.636 41.7067 143.545 41.7067 138.495C41.7067 133.444 45.7971 129.353 50.8468 129.353C55.8964 129.353 59.9868 133.444 59.9868 138.495C59.9868 143.545 55.8964 147.636 50.8468 147.636Z" fill="#4174BA"/>
<path d="M117.506 114.005V107.951H109.833C109.326 104.51 107.98 101.346 105.996 98.6772L111.42 93.252L107.143 88.9736L101.718 94.3988C99.0499 92.414 95.8856 91.0687 92.4457 90.5614V82.8867H86.3927V90.5614C82.9528 91.0687 79.7885 92.414 77.1204 94.3988L71.6959 88.9736L67.418 93.252L72.8425 98.6772C70.858 101.346 69.5129 104.51 69.0057 107.951H61.332V114.005H69.0057C69.5129 117.445 70.858 120.61 72.8425 123.278L67.418 128.703L71.6959 132.982L77.1204 127.557C79.7885 129.542 82.9528 130.887 86.3927 131.394V139.069H92.4457V131.394C95.8856 130.887 99.0499 129.542 101.718 127.557L107.143 132.982L111.42 128.703L105.996 123.278C107.98 120.61 109.326 117.445 109.833 114.005H117.506ZM89.4247 123.774C82.3574 123.774 76.6353 118.04 76.6353 110.983C76.6353 103.926 82.3685 98.1921 89.4247 98.1921C96.481 98.1921 102.214 103.926 102.214 110.983C102.214 118.04 96.481 123.774 89.4247 123.774Z" fill="#024473"/>
</g>
</g>
<defs>
<filter id="filter0_d_157_1924" x="9" y="44" width="443" height="385" filterUnits="userSpaceOnUse" color-interpolation-filters="sRGB">
<feFlood flood-opacity="0" result="BackgroundImageFix"/>
<feColorMatrix in="SourceAlpha" type="matrix" values="0 0 0 0 0 0 0 0 0 0 0 0 0 0 0 0 0 0 127 0" result="hardAlpha"/>
<feOffset dy="4"/>
<feGaussianBlur stdDeviation="7.5"/>
<feComposite in2="hardAlpha" operator="out"/>
<feColorMatrix type="matrix" values="0 0 0 0 0.00784314 0 0 0 0 0.266667 0 0 0 0 0.45098 0 0 0 0.25 0"/>
<feBlend mode="normal" in2="BackgroundImageFix" result="effect1_dropShadow_157_1924"/>
<feBlend mode="normal" in="SourceGraphic" in2="effect1_dropShadow_157_1924" result="shape"/>
</filter>
<filter id="filter1_d_157_1924" x="20.7695" y="76.8867" width="106.737" height="95.6777" filterUnits="userSpaceOnUse" color-interpolation-filters="sRGB">
<feFlood flood-opacity="0" result="BackgroundImageFix"/>
<feColorMatrix in="SourceAlpha" type="matrix" values="0 0 0 0 0 0 0 0 0 0 0 0 0 0 0 0 0 0 127 0" result="hardAlpha"/>
<feOffset dy="4"/>
<feGaussianBlur stdDeviation="5"/>
<feComposite in2="hardAlpha" operator="out"/>
<feColorMatrix type="matrix" values="0 0 0 0 0.00784314 0 0 0 0 0.266667 0 0 0 0 0.45098 0 0 0 0.25 0"/>
<feBlend mode="normal" in2="BackgroundImageFix" result="effect1_dropShadow_157_1924"/>
<feBlend mode="normal" in="SourceGraphic" in2="effect1_dropShadow_157_1924" result="shape"/>
</filter>
<clipPath id="clip0_157_1924">
<rect width="413" height="355" fill="white" transform="translate(24 55)"/>
</clipPath>
</defs>
</svg>
