<svg xmlns="http://www.w3.org/2000/svg" viewBox="0 0 1580 1326"><g fill="none" stroke-width="2"><path stroke="#377b91" d="M886.74 23.93a.43.43 0 0 0-.43-.43H764.93a.43.43 0 0 0-.43.43v121.38a.43.43 0 0 0 .43.43h121.38a.43.43 0 0 0 .43-.43V23.93" vector-effect="non-scaling-stroke"/><path stroke="#2d7485" d="M604.54 164.95a.44.44 0 0 0-.44-.44H482.74a.44.44 0 0 0-.44.44v121.36a.44.44 0 0 0 .44.44H604.1a.44.44 0 0 0 .44-.44V164.95" vector-effect="non-scaling-stroke"/><path stroke="#377b91" d="M745.72 164.87a.37.37 0 0 0-.37-.37H623.77a.37.37 0 0 0-.37.37v121.5a.37.37 0 0 0 .37.37h121.58a.37.37 0 0 0 .37-.37v-121.5" vector-effect="non-scaling-stroke"/><path stroke="#2d7485" d="M886.75 165.07a.57.57 0 0 0-.57-.57H765.06a.57.57 0 0 0-.57.57v121.12a.57.57 0 0 0 .57.57h121.12a.57.57 0 0 0 .57-.57V165.07M272.21 449.81l-53.06-.03q-.46 0-.51.46-4.18 43.85.97 87.59.07.57.64.59 29.29.86 57.97-4.76" vector-effect="non-scaling-stroke"/><path stroke="#377b91" d="M278.22 533.66c23.31-4.22 48.24-12.21 67.54-27.14q.42-.32.75.09c21.62 26.83 69.19 33.01 101.06 35q54.04 3.36 107.52-4.8 29.72-4.54 58.05-14.49c13.93-4.9 29.42-12.02 37.09-25.39q.26-.45.61-.07c21.4 23.19 52.91 35.51 83.46 41.13 57.56 10.59 141.49 5.28 184.66-41.16q.38-.4.65.09c11.88 22.47 56.19 32.55 79.56 36.94q68.92 12.95 137.27 6.58 20.52-1.91 42.82-8.07" vector-effect="non-scaling-stroke"/><path stroke="#2d7485" d="M1179.26 532.37c16.45-4.64 33.45-12.25 44.17-26.07a.28.26 37.5 0 1 .38-.04c18.66 14.73 42.23 22.63 65.35 26.92q.54.1.81-.38 30.84-53.83 52.74-111.87a.99.98-76.5 0 1 1.02-.63c75.6 7.91 160.3-9.25 198.58-83.22q.23-.46-.22-.71c-51.66-28.97-116.98-26.41-170.16-3.28" vector-effect="non-scaling-stroke"/><path stroke="#377b91" d="m1371.93 333.09-3.99 1.95q-.74.36-.64-.45c7.67-63.41-32.55-120.05-79.46-157.51a.48.48 0 0 0-.67.08c-12.51 15.4-20.32 34.78-24.57 54.01-12.05 54.48-3.58 121.06 40.58 160.02q.4.35-.01.7c-20.18 17.27-45.78 29.88-70.72 38.6-34.98 12.23-71.9 18.92-108.95 19.06-119.86.46-239.72-.33-359.57.08-105.8.35-211.64-.71-317.43-.03-52.35.34-115.42-.23-174.29.21" vector-effect="non-scaling-stroke"/><path stroke="#2daace" d="M1371.93 333.09q.12.11.2.2.17.18.02.38-85.5 109.1-192.51 197.24-.39.32-.39.83l.01.63M278.22 533.66q-7.49-41.52-6.01-83.85" vector-effect="non-scaling-stroke"/><path stroke="#2d7485" d="M463.51 306.04a.53.53 0 0 0-.53-.53h-121.2a.53.53 0 0 0-.53.53v121.18a.53.53 0 0 0 .53.53h121.2a.53.53 0 0 0 .53-.53V306.04" vector-effect="non-scaling-stroke"/><path stroke="#377b91" d="M604.59 305.88a.37.37 0 0 0-.37-.37H482.7a.37.37 0 0 0-.37.37v121.5a.37.37 0 0 0 .37.37h121.52a.37.37 0 0 0 .37-.37v-121.5" vector-effect="non-scaling-stroke"/><path stroke="#2d7485" d="M745.75 305.97a.46.46 0 0 0-.46-.46H623.83a.46.46 0 0 0-.46.46v121.32a.46.46 0 0 0 .46.46h121.46a.46.46 0 0 0 .46-.46V305.97" vector-effect="non-scaling-stroke"/><path stroke="#377b91" d="M886.75 306.07a.57.57 0 0 0-.57-.57H765.06a.57.57 0 0 0-.57.57v121.12a.57.57 0 0 0 .57.57h121.12a.57.57 0 0 0 .57-.57V306.07" vector-effect="non-scaling-stroke"/><path stroke="#2d7485" d="M1027.74 305.94a.43.43 0 0 0-.43-.43H905.93a.43.43 0 0 0-.43.43v121.38a.43.43 0 0 0 .43.43h121.38a.43.43 0 0 0 .43-.43V305.94" vector-effect="non-scaling-stroke"/><path stroke="#2a6b7e" d="M389.74 713c50.37-.62 101.6-5.8 149.16-21.16 16.28-5.25 22.11 15.55 6.93 20.34q-7.03 2.21-14.04 4.34" vector-effect="non-scaling-stroke"/><path stroke="#7a8f90" d="M531.79 716.52c-73.36 20.03-152.88 20.62-228.22 16.65q-.57-.03-.17.37 28.52 28.71 60.64 52.38c94.21 69.42 207.18 88 321.72 83" vector-effect="non-scaling-stroke"/><path stroke="#296377" d="M685.76 868.92c129.79-4.18 262.04-35.31 374.45-102.14q127.9-76.05 209.52-201.05 2.96-4.53 5.89-8.9a.53.53 0 0 0-.44-.82l-127.93-.01" vector-effect="non-scaling-stroke"/><path stroke="#2a6b7e" d="m1147.25 556-863.75.01" vector-effect="non-scaling-stroke"/><path stroke="#296377" d="m283.5 556.01-60.73.06q-.59.01-.49.58 14.19 84.12 64.5 152.73.03.04.23.39.35.63 1.49.7 54.39 3.48 101.24 2.53" vector-effect="non-scaling-stroke"/><path stroke="#1c89ad" d="M283.5 556.01q-.12.97.25 2.23 4.02 13.67 6.28 20.25 28.15 82.16 98.26 132.96.36.26.58.65.31.53.87.9M1147.25 556q.07.63-.16.81c-116.44 90.01-251.57 162.32-395.51 197.3q-59.82 14.54-117.58 17.9-32 1.87-70.69-.5" vector-effect="non-scaling-stroke"/><path stroke="#6db5c6" d="M563.31 771.51q-18.33-25.08-31.52-54.99" vector-effect="non-scaling-stroke"/><path stroke="#6cadbe" d="m685.76 868.92.14-.23q.12-.18-.08-.27c-47.86-22.36-90.54-54.17-122.51-96.91" vector-effect="non-scaling-stroke"/><path stroke="#377b91" d="M876.5 34a.26.26 0 0 0-.26-.26h-9.08a.26.26 0 0 0-.26.26v101.24a.26.26 0 0 0 .26.26h9.08a.26.26 0 0 0 .26-.26V34M784.25 34.02a.27.27 0 0 0-.27-.27h-8.96a.27.27 0 0 0-.27.27v101.22a.27.27 0 0 0 .27.27h8.96a.27.27 0 0 0 .27-.27V34.02M802.75 34.19a.43.43 0 0 0-.43-.43h-9.14a.43.43 0 0 0-.43.43v100.88a.43.43 0 0 0 .43.43h9.14a.43.43 0 0 0 .43-.43V34.19M821.25 34.19a.43.43 0 0 0-.43-.43h-9.14a.43.43 0 0 0-.43.43v100.88a.43.43 0 0 0 .43.43h9.14a.43.43 0 0 0 .43-.43V34.19M839.75 34.14a.38.38 0 0 0-.38-.38h-9.24a.38.38 0 0 0-.38.38v100.98a.38.38 0 0 0 .38.38h9.24a.38.38 0 0 0 .38-.38V34.14M858.32 34.06a.3.3 0 0 0-.3-.3h-9.28a.3.3 0 0 0-.3.3V135.2a.3.3 0 0 0 .3.3h9.28a.3.3 0 0 0 .3-.3V34.06" vector-effect="non-scaling-stroke"/><path stroke="#2d7485" d="M594.49 175.27a.55.55 0 0 0-.55-.55h-8.64a.55.55 0 0 0-.55.55v100.68a.55.55 0 0 0 .55.55h8.64a.55.55 0 0 0 .55-.55V175.27M502.25 175.25a.5.5 0 0 0-.5-.5h-8.74a.5.5 0 0 0-.5.5v100.74a.5.5 0 0 0 .5.5h8.74a.5.5 0 0 0 .5-.5V175.25M520.75 175.18a.43.43 0 0 0-.43-.43h-9.14a.43.43 0 0 0-.43.43v100.88a.43.43 0 0 0 .43.43h9.14a.43.43 0 0 0 .43-.43V175.18M539.25 175.03a.27.27 0 0 0-.27-.27h-9.46a.27.27 0 0 0-.27.27v101.2a.27.27 0 0 0 .27.27h9.46a.27.27 0 0 0 .27-.27v-101.2M557.75 175.19a.43.43 0 0 0-.43-.43h-9.14a.43.43 0 0 0-.43.43v100.88a.43.43 0 0 0 .43.43h9.14a.43.43 0 0 0 .43-.43V175.19M576.25 175.03a.27.27 0 0 0-.27-.27h-9.46a.27.27 0 0 0-.27.27v101.2a.27.27 0 0 0 .27.27h9.46a.27.27 0 0 0 .27-.27v-101.2" vector-effect="non-scaling-stroke"/><path stroke="#377b91" d="M735.5 175.17a.43.43 0 0 0-.43-.43h-8.86a.43.43 0 0 0-.43.43v100.9a.43.43 0 0 0 .43.43h8.86a.43.43 0 0 0 .43-.43v-100.9M643.25 175.14a.39.39 0 0 0-.39-.39h-8.88a.39.39 0 0 0-.39.39V276.1a.39.39 0 0 0 .39.39h8.88a.39.39 0 0 0 .39-.39V175.14M661.75 175.19a.43.43 0 0 0-.43-.43h-9.14a.43.43 0 0 0-.43.43v100.88a.43.43 0 0 0 .43.43h9.14a.43.43 0 0 0 .43-.43V175.19M680.25 175.19a.43.43 0 0 0-.43-.43h-9.14a.43.43 0 0 0-.43.43v100.88a.43.43 0 0 0 .43.43h9.14a.43.43 0 0 0 .43-.43V175.19M698.75 175.19a.43.43 0 0 0-.43-.43h-9.14a.43.43 0 0 0-.43.43v100.88a.43.43 0 0 0 .43.43h9.14a.43.43 0 0 0 .43-.43V175.19M717.25 175.19a.43.43 0 0 0-.43-.43h-9.14a.43.43 0 0 0-.43.43v100.88a.43.43 0 0 0 .43.43h9.14a.43.43 0 0 0 .43-.43V175.19" vector-effect="non-scaling-stroke"/><path stroke="#2d7485" d="M802.75 175.11a.37.37 0 0 0-.37-.37h-9.26a.37.37 0 0 0-.37.37v101.02a.37.37 0 0 0 .37.37h9.26a.37.37 0 0 0 .37-.37V175.11M839.672 175.081a.35.35 0 0 0-.35-.349l-9.28.016a.35.35 0 0 0-.35.35l.176 101.04a.35.35 0 0 0 .35.35l9.28-.016a.35.35 0 0 0 .35-.35l-.176-101.04M858.33 175.01a.27.27 0 0 0-.27-.27h-9.36a.27.27 0 0 0-.27.27v101.22a.27.27 0 0 0 .27.27h9.36a.27.27 0 0 0 .27-.27V175.01M784.25 175.02a.27.27 0 0 0-.27-.27h-8.96a.27.27 0 0 0-.27.27v101.22a.27.27 0 0 0 .27.27h8.96a.27.27 0 0 0 .27-.27V175.02M821.25 175.08a.33.33 0 0 0-.33-.33h-9.32a.33.33 0 0 0-.33.33v101.08a.33.33 0 0 0 .33.33h9.32a.33.33 0 0 0 .33-.33V175.08M876.5 175.16a.4.4 0 0 0-.4-.4h-8.84a.4.4 0 0 0-.4.4V276.1a.4.4 0 0 0 .4.4h8.84a.4.4 0 0 0 .4-.4V175.16M361.2 316.02a.27.27 0 0 0-.27-.27h-9.16a.27.27 0 0 0-.27.27v101.2a.27.27 0 0 0 .27.27h9.16a.27.27 0 0 0 .27-.27v-101.2M379.62 316.08a.33.33 0 0 0-.33-.33h-9.28a.33.33 0 0 0-.33.33v101.08a.33.33 0 0 0 .33.33h9.28a.33.33 0 0 0 .33-.33V316.08M398.23 316.17a.41.41 0 0 0-.41-.41h-9.16a.41.41 0 0 0-.41.41v100.92a.41.41 0 0 0 .41.41h9.16a.41.41 0 0 0 .41-.41V316.17M416.75 316.18a.43.43 0 0 0-.43-.43h-9.14a.43.43 0 0 0-.43.43v100.88a.43.43 0 0 0 .43.43h9.14a.43.43 0 0 0 .43-.43V316.18M435.25 316.03a.27.27 0 0 0-.27-.27h-9.46a.27.27 0 0 0-.27.27v101.2a.27.27 0 0 0 .27.27h9.46a.27.27 0 0 0 .27-.27v-101.2M453.25 316.02a.26.26 0 0 0-.26-.26h-8.98a.26.26 0 0 0-.26.26v101.22a.26.26 0 0 0 .26.26h8.98a.26.26 0 0 0 .26-.26V316.02" vector-effect="non-scaling-stroke"/><path stroke="#377b91" d="M502.24 316.18a.42.42 0 0 0-.42-.42h-8.9a.42.42 0 0 0-.42.42v100.9a.42.42 0 0 0 .42.42h8.9a.42.42 0 0 0 .42-.42v-100.9M520.75 316.18a.43.43 0 0 0-.43-.43h-9.14a.43.43 0 0 0-.43.43v100.88a.43.43 0 0 0 .43.43h9.14a.43.43 0 0 0 .43-.43V316.18M539.25 316.03a.27.27 0 0 0-.27-.27h-9.46a.27.27 0 0 0-.27.27v101.2a.27.27 0 0 0 .27.27h9.46a.27.27 0 0 0 .27-.27v-101.2M557.75 316.18a.43.43 0 0 0-.43-.43h-9.14a.43.43 0 0 0-.43.43v100.88a.43.43 0 0 0 .43.43h9.14a.43.43 0 0 0 .43-.43V316.18M576.25 316.03a.27.27 0 0 0-.27-.27h-9.46a.27.27 0 0 0-.27.27v101.2a.27.27 0 0 0 .27.27h9.46a.27.27 0 0 0 .27-.27v-101.2M594.51 316.28a.53.53 0 0 0-.53-.53h-8.7a.53.53 0 0 0-.53.53v100.7a.53.53 0 0 0 .53.53h8.7a.53.53 0 0 0 .53-.53v-100.7" vector-effect="non-scaling-stroke"/><path stroke="#2d7485" d="M643.25 316.03a.27.27 0 0 0-.27-.27h-9.14a.27.27 0 0 0-.27.27v101.2a.27.27 0 0 0 .27.27h9.14a.27.27 0 0 0 .27-.27v-101.2M661.75 316.26a.5.5 0 0 0-.5-.5h-9a.5.5 0 0 0-.5.5V417a.5.5 0 0 0 .5.5h9a.5.5 0 0 0 .5-.5V316.26M680.25 316.03a.27.27 0 0 0-.27-.27h-9.46a.27.27 0 0 0-.27.27v101.2a.27.27 0 0 0 .27.27h9.46a.27.27 0 0 0 .27-.27v-101.2M698.75 316.26a.5.5 0 0 0-.5-.5h-9a.5.5 0 0 0-.5.5V417a.5.5 0 0 0 .5.5h9a.5.5 0 0 0 .5-.5V316.26M717.25 316.17a.41.41 0 0 0-.41-.41h-9.18a.41.41 0 0 0-.41.41v100.92a.41.41 0 0 0 .41.41h9.18a.41.41 0 0 0 .41-.41V316.17M735.5 316.19a.43.43 0 0 0-.43-.43h-8.88a.43.43 0 0 0-.43.43v100.88a.43.43 0 0 0 .43.43h8.88a.43.43 0 0 0 .43-.43V316.19" vector-effect="non-scaling-stroke"/><path stroke="#377b91" d="M784.25 316.02a.27.27 0 0 0-.27-.27h-8.96a.27.27 0 0 0-.27.27v101.22a.27.27 0 0 0 .27.27h8.96a.27.27 0 0 0 .27-.27V316.02M802.75 316.26a.5.5 0 0 0-.5-.5h-9a.5.5 0 0 0-.5.5V417a.5.5 0 0 0 .5.5h9a.5.5 0 0 0 .5-.5V316.26M821.25 316.16a.4.4 0 0 0-.4-.4h-9.18a.4.4 0 0 0-.4.4V417.1a.4.4 0 0 0 .4.4h9.18a.4.4 0 0 0 .4-.4V316.16M839.75 316.13a.37.37 0 0 0-.37-.37h-9.26a.37.37 0 0 0-.37.37v101.02a.37.37 0 0 0 .37.37h9.26a.37.37 0 0 0 .37-.37V316.13M858.33 316.09a.33.33 0 0 0-.33-.33h-9.26a.33.33 0 0 0-.33.33v101.08a.33.33 0 0 0 .33.33H858a.33.33 0 0 0 .33-.33V316.09M876.412 316.022a.27.27 0 0 0-.27-.27l-9.1.016a.27.27 0 0 0-.27.27l.176 101.2a.27.27 0 0 0 .27.27l9.1-.016a.27.27 0 0 0 .27-.27l-.176-101.2" vector-effect="non-scaling-stroke"/><path stroke="#2d7485" d="M925.25 316.02a.27.27 0 0 0-.27-.27h-8.96a.27.27 0 0 0-.27.27v101.22a.27.27 0 0 0 .27.27h8.96a.27.27 0 0 0 .27-.27V316.02M943.75 316.15a.4.4 0 0 0-.4-.4h-9.2a.4.4 0 0 0-.4.4v100.98a.4.4 0 0 0 .4.4h9.2a.4.4 0 0 0 .4-.4V316.15M962.34 316.08a.32.32 0 0 0-.32-.32h-9.28a.32.32 0 0 0-.32.32v101.1a.32.32 0 0 0 .32.32h9.28a.32.32 0 0 0 .32-.32v-101.1M980.82 316.13a.38.38 0 0 0-.38-.38h-9.16a.38.38 0 0 0-.38.38v100.98a.38.38 0 0 0 .38.38h9.16a.38.38 0 0 0 .38-.38V316.13M999.5 316.02a.27.27 0 0 0-.27-.27h-9.46a.27.27 0 0 0-.27.27v101.2a.27.27 0 0 0 .27.27h9.46a.27.27 0 0 0 .27-.27v-101.2M1017.5 316.02a.27.27 0 0 0-.27-.27h-8.96a.27.27 0 0 0-.27.27v101.22a.27.27 0 0 0 .27.27h8.96a.27.27 0 0 0 .27-.27V316.02" vector-effect="non-scaling-stroke"/><path stroke="#6db5c6" d="M630.57 659.68a33.61 33.61 0 0 0-33.61-33.61 33.61 33.61 0 0 0-33.61 33.61 33.61 33.61 0 0 0 33.61 33.61 33.61 33.61 0 0 0 33.61-33.61" vector-effect="non-scaling-stroke"/><path stroke="#7a8f90" d="M574.24 651.49c-5.64 17.45 8.73 35.69 27.28 31.81 14.9-3.13 23.04-17.86 17.91-32.22q-.2-.56-.55-.08c-9.46 13.08-26.09-4.77-14.04-13.18q1.06-.74-.18-1.08c-12.49-3.45-26.4 2.32-30.42 14.75" vector-effect="non-scaling-stroke"/></g><path fill="#364548" d="M741.05 0h169.18l.01 281.66q0 .35.34.35l140.17-.01a.5.5 0 0 1 .5.5v143.24q0 .5.5.5c27.59.03 55.72.98 83.23-.32 45.53-2.15 93.32-14.32 132.89-37.47a.27.27 0 0 0 .08-.39c-36.47-50.69-41.48-118.52-24.25-177.07q8.38-28.46 27.53-51.02 6.53-7.7 12.9-15.24a.61.61 0 0 1 .85-.09q12.02 9.42 23.29 18.8c41.86 34.85 74.96 82.27 82.51 137.22q.06.45.5.32c52.15-15.06 112.21-12.62 160.42 13.78q7.84 4.3 21.61 12.49.45.27.21.74-4.65 8.88-9.17 17.67c-40.6 78.9-121.85 103.31-205.26 99.49q-.58-.02-.8.52-18.84 46.94-43.56 91.08a.24.24 0 0 0 .19.35c53.96 6.02 119.41-3.16 157.73-45.33a.28.28 0 0 1 .48.25c-6.77 29.39 23.82 43.67 46.04 50.83q23.8 7.67 48.64 12.62a.27.27 0 0 1-.05.53h-263.54a1.14 1.14 0 0 0-.98.56q-108.27 178.65-297.89 265.11c-61.22 27.92-127.67 47.25-194.02 58.28q-97.9 16.27-191.33 12.53c-72.07-2.88-145.1-18.76-209.71-51.41-78.6-39.72-146.01-105.06-182.47-186.13q-21.26-47.27-29.31-98.49a.53.53 0 0 0-.52-.45H2a.27.27 0 0 1-.05-.54q21.94-4.51 43.57-10.86c23.29-6.84 58.48-21.74 51.01-52.87a.18.18 0 0 1 .3-.16c25.62 27.94 60.83 40.76 98.18 45.26q.87.11.78-.76-5-46.18-.25-92.9.83-8.14 1.6-16.38a.59.59 0 0 1 .59-.54h119.55q.47 0 .47-.47V282.75a.75.75 0 0 1 .75-.75h139.75q.51 0 .51-.5l-.02-139.87a.63.63 0 0 1 .63-.63h281.17q.45 0 .46-.45L741.05 0Zm145.69 23.93a.43.43 0 0 0-.43-.43H764.93a.43.43 0 0 0-.43.43v121.38a.43.43 0 0 0 .43.43h121.38a.43.43 0 0 0 .43-.43V23.93Zm-282.2 141.02a.44.44 0 0 0-.44-.44H482.74a.44.44 0 0 0-.44.44v121.36a.44.44 0 0 0 .44.44H604.1a.44.44 0 0 0 .44-.44V164.95Zm141.18-.08a.37.37 0 0 0-.37-.37H623.77a.37.37 0 0 0-.37.37v121.5a.37.37 0 0 0 .37.37h121.58a.37.37 0 0 0 .37-.37v-121.5Zm141.03.2a.57.57 0 0 0-.57-.57H765.06a.57.57 0 0 0-.57.57v121.12a.57.57 0 0 0 .57.57h121.12a.57.57 0 0 0 .57-.57V165.07ZM272.21 449.81l-53.06-.03q-.46 0-.51.46-4.18 43.85.97 87.59.07.57.64.59 29.29.86 57.97-4.76c23.31-4.22 48.24-12.21 67.54-27.14q.42-.32.75.09c21.62 26.83 69.19 33.01 101.06 35q54.04 3.36 107.52-4.8 29.72-4.54 58.05-14.49c13.93-4.9 29.42-12.02 37.09-25.39q.26-.45.61-.07c21.4 23.19 52.91 35.51 83.46 41.13 57.56 10.59 141.49 5.28 184.66-41.16q.38-.4.65.09c11.88 22.47 56.19 32.55 79.56 36.94q68.92 12.95 137.27 6.58 20.52-1.91 42.82-8.07c16.45-4.64 33.45-12.25 44.17-26.07a.28.26 37.5 0 1 .38-.04c18.66 14.73 42.23 22.63 65.35 26.92q.54.1.81-.38 30.84-53.83 52.74-111.87a.99.98-76.5 0 1 1.02-.63c75.6 7.91 160.3-9.25 198.58-83.22q.23-.46-.22-.71c-51.66-28.97-116.98-26.41-170.16-3.28l-3.99 1.95q-.74.36-.64-.45c7.67-63.41-32.55-120.05-79.46-157.51a.48.48 0 0 0-.67.08c-12.51 15.4-20.32 34.78-24.57 54.01-12.05 54.48-3.58 121.06 40.58 160.02q.4.35-.01.7c-20.18 17.27-45.78 29.88-70.72 38.6-34.98 12.23-71.9 18.92-108.95 19.06-119.86.46-239.72-.33-359.57.08-105.8.35-211.64-.71-317.43-.03-52.35.34-115.42-.23-174.29.21Zm191.3-143.77a.53.53 0 0 0-.53-.53h-121.2a.53.53 0 0 0-.53.53v121.18a.53.53 0 0 0 .53.53h121.2a.53.53 0 0 0 .53-.53V306.04Zm141.08-.16a.37.37 0 0 0-.37-.37H482.7a.37.37 0 0 0-.37.37v121.5a.37.37 0 0 0 .37.37h121.52a.37.37 0 0 0 .37-.37v-121.5Zm141.16.09a.46.46 0 0 0-.46-.46H623.83a.46.46 0 0 0-.46.46v121.32a.46.46 0 0 0 .46.46h121.46a.46.46 0 0 0 .46-.46V305.97Zm141 .1a.57.57 0 0 0-.57-.57H765.06a.57.57 0 0 0-.57.57v121.12a.57.57 0 0 0 .57.57h121.12a.57.57 0 0 0 .57-.57V306.07Zm140.99-.13a.43.43 0 0 0-.43-.43H905.93a.43.43 0 0 0-.43.43v121.38a.43.43 0 0 0 .43.43h121.38a.43.43 0 0 0 .43-.43V305.94ZM389.74 713c50.37-.62 101.6-5.8 149.16-21.16 16.28-5.25 22.11 15.55 6.93 20.34q-7.03 2.21-14.04 4.34c-73.36 20.03-152.88 20.62-228.22 16.65q-.57-.03-.17.37 28.52 28.71 60.64 52.38c94.21 69.42 207.18 88 321.72 83 129.79-4.18 262.04-35.31 374.45-102.14q127.9-76.05 209.52-201.05 2.96-4.53 5.89-8.9a.53.53 0 0 0-.44-.82l-127.93-.01-863.75.01-60.73.06q-.59.01-.49.58 14.19 84.12 64.5 152.73.03.04.23.39.35.63 1.49.7 54.39 3.48 101.24 2.53Z"/><path fill="#37b1d9" d="M886.74 145.31a.43.43 0 0 1-.43.43H764.93a.43.43 0 0 1-.43-.43V23.93a.43.43 0 0 1 .43-.43h121.38a.43.43 0 0 1 .43.43v121.38ZM876.5 34a.26.26 0 0 0-.26-.26h-9.08a.26.26 0 0 0-.26.26v101.24a.26.26 0 0 0 .26.26h9.08a.26.26 0 0 0 .26-.26V34Zm-92.25.02a.27.27 0 0 0-.27-.27h-8.96a.27.27 0 0 0-.27.27v101.22a.27.27 0 0 0 .27.27h8.96a.27.27 0 0 0 .27-.27V34.02Zm18.5.17a.43.43 0 0 0-.43-.43h-9.14a.43.43 0 0 0-.43.43v100.88a.43.43 0 0 0 .43.43h9.14a.43.43 0 0 0 .43-.43V34.19Zm18.5 0a.43.43 0 0 0-.43-.43h-9.14a.43.43 0 0 0-.43.43v100.88a.43.43 0 0 0 .43.43h9.14a.43.43 0 0 0 .43-.43V34.19Zm18.5-.05a.38.38 0 0 0-.38-.38h-9.24a.38.38 0 0 0-.38.38v100.98a.38.38 0 0 0 .38.38h9.24a.38.38 0 0 0 .38-.38V34.14Zm18.57-.08a.3.3 0 0 0-.3-.3h-9.28a.3.3 0 0 0-.3.3V135.2a.3.3 0 0 0 .3.3h9.28a.3.3 0 0 0 .3-.3V34.06Z"/><rect width="9.6" height="101.76" x="866.9" y="33.74" fill="#364548" rx=".26"/><rect width="9.5" height="101.76" x="774.75" y="33.75" fill="#364548" rx=".27"/><rect width="10" height="101.74" x="792.75" y="33.76" fill="#364548" rx=".43"/><rect width="10" height="101.74" x="811.25" y="33.76" fill="#364548" rx=".43"/><rect width="10" height="101.74" x="829.75" y="33.76" fill="#364548" rx=".38"/><rect width="9.88" height="101.74" x="848.44" y="33.76" fill="#364548" rx=".3"/><path fill="#23a3c2" d="M604.54 286.31a.44.44 0 0 1-.44.44H482.74a.44.44 0 0 1-.44-.44V164.95a.44.44 0 0 1 .44-.44H604.1a.44.44 0 0 1 .44.44v121.36Zm-10.05-111.04a.55.55 0 0 0-.55-.55h-8.64a.55.55 0 0 0-.55.55v100.68a.55.55 0 0 0 .55.55h8.64a.55.55 0 0 0 .55-.55V175.27Zm-92.24-.02a.5.5 0 0 0-.5-.5h-8.74a.5.5 0 0 0-.5.5v100.74a.5.5 0 0 0 .5.5h8.74a.5.5 0 0 0 .5-.5V175.25Zm18.5-.07a.43.43 0 0 0-.43-.43h-9.14a.43.43 0 0 0-.43.43v100.88a.43.43 0 0 0 .43.43h9.14a.43.43 0 0 0 .43-.43V175.18Zm18.5-.15a.27.27 0 0 0-.27-.27h-9.46a.27.27 0 0 0-.27.27v101.2a.27.27 0 0 0 .27.27h9.46a.27.27 0 0 0 .27-.27v-101.2Zm18.5.16a.43.43 0 0 0-.43-.43h-9.14a.43.43 0 0 0-.43.43v100.88a.43.43 0 0 0 .43.43h9.14a.43.43 0 0 0 .43-.43V175.19Zm18.5-.16a.27.27 0 0 0-.27-.27h-9.46a.27.27 0 0 0-.27.27v101.2a.27.27 0 0 0 .27.27h9.46a.27.27 0 0 0 .27-.27v-101.2Z"/><path fill="#37b1d9" d="M745.72 286.37a.37.37 0 0 1-.37.37H623.77a.37.37 0 0 1-.37-.37v-121.5a.37.37 0 0 1 .37-.37h121.58a.37.37 0 0 1 .37.37v121.5Zm-10.22-111.2a.43.43 0 0 0-.43-.43h-8.86a.43.43 0 0 0-.43.43v100.9a.43.43 0 0 0 .43.43h8.86a.43.43 0 0 0 .43-.43v-100.9Zm-92.25-.03a.39.39 0 0 0-.39-.39h-8.88a.39.39 0 0 0-.39.39V276.1a.39.39 0 0 0 .39.39h8.88a.39.39 0 0 0 .39-.39V175.14Zm18.5.05a.43.43 0 0 0-.43-.43h-9.14a.43.43 0 0 0-.43.43v100.88a.43.43 0 0 0 .43.43h9.14a.43.43 0 0 0 .43-.43V175.19Zm18.5 0a.43.43 0 0 0-.43-.43h-9.14a.43.43 0 0 0-.43.43v100.88a.43.43 0 0 0 .43.43h9.14a.43.43 0 0 0 .43-.43V175.19Zm18.5 0a.43.43 0 0 0-.43-.43h-9.14a.43.43 0 0 0-.43.43v100.88a.43.43 0 0 0 .43.43h9.14a.43.43 0 0 0 .43-.43V175.19Zm18.5 0a.43.43 0 0 0-.43-.43h-9.14a.43.43 0 0 0-.43.43v100.88a.43.43 0 0 0 .43.43h9.14a.43.43 0 0 0 .43-.43V175.19Z"/><path fill="#23a3c2" d="M886.75 286.19a.57.57 0 0 1-.57.57H765.06a.57.57 0 0 1-.57-.57V165.07a.57.57 0 0 1 .57-.57h121.12a.57.57 0 0 1 .57.57v121.12Zm-84-111.08a.37.37 0 0 0-.37-.37h-9.26a.37.37 0 0 0-.37.37v101.02a.37.37 0 0 0 .37.37h9.26a.37.37 0 0 0 .37-.37V175.11Zm36.922-.029a.35.35 0 0 0-.35-.349l-9.28.016a.35.35 0 0 0-.35.35l.176 101.04a.35.35 0 0 0 .35.35l9.28-.016a.35.35 0 0 0 .35-.35l-.176-101.04Zm18.658-.071a.27.27 0 0 0-.27-.27h-9.36a.27.27 0 0 0-.27.27v101.22a.27.27 0 0 0 .27.27h9.36a.27.27 0 0 0 .27-.27V175.01Zm-74.08.01a.27.27 0 0 0-.27-.27h-8.96a.27.27 0 0 0-.27.27v101.22a.27.27 0 0 0 .27.27h8.96a.27.27 0 0 0 .27-.27V175.02Zm37 .06a.33.33 0 0 0-.33-.33h-9.32a.33.33 0 0 0-.33.33v101.08a.33.33 0 0 0 .33.33h9.32a.33.33 0 0 0 .33-.33V175.08Zm55.25.08a.4.4 0 0 0-.4-.4h-8.84a.4.4 0 0 0-.4.4V276.1a.4.4 0 0 0 .4.4h8.84a.4.4 0 0 0 .4-.4V175.16Z"/><rect width="9.74" height="101.78" x="584.75" y="174.72" fill="#364548" rx=".55"/><rect width="9.72" height="101.76" x="725.78" y="174.74" fill="#364548" rx=".43"/><rect width="10" height="101.76" x="792.75" y="174.74" fill="#364548" rx=".37"/><rect width="9.98" height="101.74" x="-4.99" y="-50.87" fill="#364548" rx=".35" transform="rotate(-.1 129682.36 -478175.052)"/><rect width="9.9" height="101.76" x="848.43" y="174.74" fill="#364548" rx=".27"/><rect width="9.74" height="101.74" x="492.51" y="174.75" fill="#364548" rx=".5"/><rect width="10" height="101.74" x="510.75" y="174.75" fill="#364548" rx=".43"/><rect width="10" height="101.74" x="529.25" y="174.76" fill="#364548" rx=".27"/><rect width="10" height="101.74" x="547.75" y="174.76" fill="#364548" rx=".43"/><rect width="10" height="101.74" x="566.25" y="174.76" fill="#364548" rx=".27"/><rect width="9.66" height="101.74" x="633.59" y="174.75" fill="#364548" rx=".39"/><rect width="10" height="101.74" x="651.75" y="174.76" fill="#364548" rx=".43"/><rect width="10" height="101.74" x="670.25" y="174.76" fill="#364548" rx=".43"/><rect width="10" height="101.74" x="688.75" y="174.76" fill="#364548" rx=".43"/><rect width="10" height="101.74" x="707.25" y="174.76" fill="#364548" rx=".43"/><rect width="9.5" height="101.76" x="774.75" y="174.75" fill="#364548" rx=".27"/><rect width="9.98" height="101.74" x="811.27" y="174.75" fill="#364548" rx=".33"/><rect width="9.64" height="101.74" x="866.86" y="174.76" fill="#364548" rx=".4"/><path fill="#37b1d9" d="M1371.93 333.09q.12.11.2.2.17.18.02.38-85.5 109.1-192.51 197.24-.39.32-.39.83l.01.63q-22.3 6.16-42.82 8.07-68.35 6.37-137.27-6.58c-23.37-4.39-67.68-14.47-79.56-36.94q-.27-.49-.65-.09c-43.17 46.44-127.1 51.75-184.66 41.16-30.55-5.62-62.06-17.94-83.46-41.13q-.35-.38-.61.07c-7.67 13.37-23.16 20.49-37.09 25.39q-28.33 9.95-58.05 14.49-53.48 8.16-107.52 4.8c-31.87-1.99-79.44-8.17-101.06-35q-.33-.41-.75-.09c-19.3 14.93-44.23 22.92-67.54 27.14q-7.49-41.52-6.01-83.85c58.87-.44 121.94.13 174.29-.21 105.79-.68 211.63.38 317.43.03 119.85-.41 239.71.38 359.57-.08 37.05-.14 73.97-6.83 108.95-19.06 24.94-8.72 50.54-21.33 70.72-38.6q.41-.35.01-.7c-44.16-38.96-52.63-105.54-40.58-160.02 4.25-19.23 12.06-38.61 24.57-54.01a.48.48 0 0 1 .67-.08c46.91 37.46 87.13 94.1 79.46 157.51q-.1.81.64.45l3.99-1.95Z"/><path fill="#23a3c2" d="M463.51 427.22a.53.53 0 0 1-.53.53h-121.2a.53.53 0 0 1-.53-.53V306.04a.53.53 0 0 1 .53-.53h121.2a.53.53 0 0 1 .53.53v121.18ZM361.2 316.02a.27.27 0 0 0-.27-.27h-9.16a.27.27 0 0 0-.27.27v101.2a.27.27 0 0 0 .27.27h9.16a.27.27 0 0 0 .27-.27v-101.2Zm18.42.06a.33.33 0 0 0-.33-.33h-9.28a.33.33 0 0 0-.33.33v101.08a.33.33 0 0 0 .33.33h9.28a.33.33 0 0 0 .33-.33V316.08Zm18.61.09a.41.41 0 0 0-.41-.41h-9.16a.41.41 0 0 0-.41.41v100.92a.41.41 0 0 0 .41.41h9.16a.41.41 0 0 0 .41-.41V316.17Zm18.52.01a.43.43 0 0 0-.43-.43h-9.14a.43.43 0 0 0-.43.43v100.88a.43.43 0 0 0 .43.43h9.14a.43.43 0 0 0 .43-.43V316.18Zm18.5-.15a.27.27 0 0 0-.27-.27h-9.46a.27.27 0 0 0-.27.27v101.2a.27.27 0 0 0 .27.27h9.46a.27.27 0 0 0 .27-.27v-101.2Zm18-.01a.26.26 0 0 0-.26-.26h-8.98a.26.26 0 0 0-.26.26v101.22a.26.26 0 0 0 .26.26h8.98a.26.26 0 0 0 .26-.26V316.02Z"/><path fill="#37b1d9" d="M604.59 427.38a.37.37 0 0 1-.37.37H482.7a.37.37 0 0 1-.37-.37v-121.5a.37.37 0 0 1 .37-.37h121.52a.37.37 0 0 1 .37.37v121.5Zm-102.35-111.2a.42.42 0 0 0-.42-.42h-8.9a.42.42 0 0 0-.42.42v100.9a.42.42 0 0 0 .42.42h8.9a.42.42 0 0 0 .42-.42v-100.9Zm18.51 0a.43.43 0 0 0-.43-.43h-9.14a.43.43 0 0 0-.43.43v100.88a.43.43 0 0 0 .43.43h9.14a.43.43 0 0 0 .43-.43V316.18Zm18.5-.15a.27.27 0 0 0-.27-.27h-9.46a.27.27 0 0 0-.27.27v101.2a.27.27 0 0 0 .27.27h9.46a.27.27 0 0 0 .27-.27v-101.2Zm18.5.15a.43.43 0 0 0-.43-.43h-9.14a.43.43 0 0 0-.43.43v100.88a.43.43 0 0 0 .43.43h9.14a.43.43 0 0 0 .43-.43V316.18Zm18.5-.15a.27.27 0 0 0-.27-.27h-9.46a.27.27 0 0 0-.27.27v101.2a.27.27 0 0 0 .27.27h9.46a.27.27 0 0 0 .27-.27v-101.2Zm18.26.25a.53.53 0 0 0-.53-.53h-8.7a.53.53 0 0 0-.53.53v100.7a.53.53 0 0 0 .53.53h8.7a.53.53 0 0 0 .53-.53v-100.7Z"/><path fill="#23a3c2" d="M745.75 427.29a.46.46 0 0 1-.46.46H623.83a.46.46 0 0 1-.46-.46V305.97a.46.46 0 0 1 .46-.46h121.46a.46.46 0 0 1 .46.46v121.32Zm-102.5-111.26a.27.27 0 0 0-.27-.27h-9.14a.27.27 0 0 0-.27.27v101.2a.27.27 0 0 0 .27.27h9.14a.27.27 0 0 0 .27-.27v-101.2Zm18.5.23a.5.5 0 0 0-.5-.5h-9a.5.5 0 0 0-.5.5V417a.5.5 0 0 0 .5.5h9a.5.5 0 0 0 .5-.5V316.26Zm18.5-.23a.27.27 0 0 0-.27-.27h-9.46a.27.27 0 0 0-.27.27v101.2a.27.27 0 0 0 .27.27h9.46a.27.27 0 0 0 .27-.27v-101.2Zm18.5.23a.5.5 0 0 0-.5-.5h-9a.5.5 0 0 0-.5.5V417a.5.5 0 0 0 .5.5h9a.5.5 0 0 0 .5-.5V316.26Zm18.5-.09a.41.41 0 0 0-.41-.41h-9.18a.41.41 0 0 0-.41.41v100.92a.41.41 0 0 0 .41.41h9.18a.41.41 0 0 0 .41-.41V316.17Zm18.25.02a.43.43 0 0 0-.43-.43h-8.88a.43.43 0 0 0-.43.43v100.88a.43.43 0 0 0 .43.43h8.88a.43.43 0 0 0 .43-.43V316.19Z"/><path fill="#37b1d9" d="M886.75 427.19a.57.57 0 0 1-.57.57H765.06a.57.57 0 0 1-.57-.57V306.07a.57.57 0 0 1 .57-.57h121.12a.57.57 0 0 1 .57.57v121.12Zm-102.5-111.17a.27.27 0 0 0-.27-.27h-8.96a.27.27 0 0 0-.27.27v101.22a.27.27 0 0 0 .27.27h8.96a.27.27 0 0 0 .27-.27V316.02Zm18.5.24a.5.5 0 0 0-.5-.5h-9a.5.5 0 0 0-.5.5V417a.5.5 0 0 0 .5.5h9a.5.5 0 0 0 .5-.5V316.26Zm18.5-.1a.4.4 0 0 0-.4-.4h-9.18a.4.4 0 0 0-.4.4V417.1a.4.4 0 0 0 .4.4h9.18a.4.4 0 0 0 .4-.4V316.16Zm18.5-.03a.37.37 0 0 0-.37-.37h-9.26a.37.37 0 0 0-.37.37v101.02a.37.37 0 0 0 .37.37h9.26a.37.37 0 0 0 .37-.37V316.13Zm18.58-.04a.33.33 0 0 0-.33-.33h-9.26a.33.33 0 0 0-.33.33v101.08a.33.33 0 0 0 .33.33H858a.33.33 0 0 0 .33-.33V316.09Zm18.082-.068a.27.27 0 0 0-.27-.27l-9.1.016a.27.27 0 0 0-.27.27l.176 101.2a.27.27 0 0 0 .27.27l9.1-.016a.27.27 0 0 0 .27-.27l-.176-101.2Z"/><path fill="#23a3c2" d="M1027.74 427.32a.43.43 0 0 1-.43.43H905.93a.43.43 0 0 1-.43-.43V305.94a.43.43 0 0 1 .43-.43h121.38a.43.43 0 0 1 .43.43v121.38Zm-102.49-111.3a.27.27 0 0 0-.27-.27h-8.96a.27.27 0 0 0-.27.27v101.22a.27.27 0 0 0 .27.27h8.96a.27.27 0 0 0 .27-.27V316.02Zm18.5.13a.4.4 0 0 0-.4-.4h-9.2a.4.4 0 0 0-.4.4v100.98a.4.4 0 0 0 .4.4h9.2a.4.4 0 0 0 .4-.4V316.15Zm18.59-.07a.32.32 0 0 0-.32-.32h-9.28a.32.32 0 0 0-.32.32v101.1a.32.32 0 0 0 .32.32h9.28a.32.32 0 0 0 .32-.32v-101.1Zm18.48.05a.38.38 0 0 0-.38-.38h-9.16a.38.38 0 0 0-.38.38v100.98a.38.38 0 0 0 .38.38h9.16a.38.38 0 0 0 .38-.38V316.13Zm18.68-.11a.27.27 0 0 0-.27-.27h-9.46a.27.27 0 0 0-.27.27v101.2a.27.27 0 0 0 .27.27h9.46a.27.27 0 0 0 .27-.27v-101.2Zm18 0a.27.27 0 0 0-.27-.27h-8.96a.27.27 0 0 0-.27.27v101.22a.27.27 0 0 0 .27.27h8.96a.27.27 0 0 0 .27-.27V316.02ZM1179.26 532.37l-.01-.63q0-.51.39-.83 107.01-88.14 192.51-197.24.15-.2-.02-.38-.08-.09-.2-.2c53.18-23.13 118.5-25.69 170.16 3.28q.45.25.22.71c-38.28 73.97-122.98 91.13-198.58 83.22a.99.98-76.5 0 0-1.02.63q-21.9 58.04-52.74 111.87-.27.48-.81.38c-23.12-4.29-46.69-12.19-65.35-26.92a.28.26 37.5 0 0-.38.04c-10.72 13.82-27.72 21.43-44.17 26.07Z"/><rect width="9.7" height="101.74" x="351.5" y="315.75" fill="#364548" rx=".27"/><rect width="9.94" height="101.74" x="369.68" y="315.75" fill="#364548" rx=".33"/><rect width="9.98" height="101.74" x="388.25" y="315.76" fill="#364548" rx=".41"/><rect width="10" height="101.74" x="406.75" y="315.75" fill="#364548" rx=".43"/><rect width="10" height="101.74" x="425.25" y="315.76" fill="#364548" rx=".27"/><rect width="9.5" height="101.74" x="443.75" y="315.76" fill="#364548" rx=".26"/><rect width="9.74" height="101.74" x="492.5" y="315.76" fill="#364548" rx=".42"/><rect width="10" height="101.74" x="510.75" y="315.75" fill="#364548" rx=".43"/><rect width="10" height="101.74" x="529.25" y="315.76" fill="#364548" rx=".27"/><rect width="10" height="101.74" x="547.75" y="315.75" fill="#364548" rx=".43"/><rect width="10" height="101.74" x="566.25" y="315.76" fill="#364548" rx=".27"/><rect width="9.76" height="101.76" x="584.75" y="315.75" fill="#364548" rx=".53"/><rect width="9.68" height="101.74" x="633.57" y="315.76" fill="#364548" rx=".27"/><rect width="10" height="101.74" x="651.75" y="315.76" fill="#364548" rx=".5"/><rect width="10" height="101.74" x="670.25" y="315.76" fill="#364548" rx=".27"/><rect width="10" height="101.74" x="688.75" y="315.76" fill="#364548" rx=".5"/><rect width="10" height="101.74" x="707.25" y="315.76" fill="#364548" rx=".41"/><rect width="9.74" height="101.74" x="725.76" y="315.76" fill="#364548" rx=".43"/><rect width="9.5" height="101.76" x="774.75" y="315.75" fill="#364548" rx=".27"/><rect width="10" height="101.74" x="792.75" y="315.76" fill="#364548" rx=".5"/><rect width="9.98" height="101.74" x="811.27" y="315.76" fill="#364548" rx=".4"/><rect width="10" height="101.76" x="829.75" y="315.76" fill="#364548" rx=".37"/><rect width="9.92" height="101.74" x="848.41" y="315.76" fill="#364548" rx=".33"/><rect width="9.64" height="101.74" x="-4.82" y="-50.87" fill="#364548" rx=".27" transform="rotate(-.1 210499.303 -499252.41)"/><rect width="9.5" height="101.76" x="915.75" y="315.75" fill="#364548" rx=".27"/><rect width="10" height="101.78" x="933.75" y="315.75" fill="#364548" rx=".4"/><rect width="9.92" height="101.74" x="952.42" y="315.76" fill="#364548" rx=".32"/><rect width="9.92" height="101.74" x="970.9" y="315.75" fill="#364548" rx=".38"/><rect width="10" height="101.74" x="989.5" y="315.75" fill="#364548" rx=".27"/><rect width="9.5" height="101.76" x="1008" y="315.75" fill="#364548" rx=".27"/><path fill="#23a3c2" d="M272.21 449.81q-1.48 42.33 6.01 83.85-28.68 5.62-57.97 4.76-.57-.02-.64-.59-5.15-43.74-.97-87.59.05-.46.51-.46l53.06.03Z"/><path fill="#1b81a5" d="M283.5 556.01q-.12.97.25 2.23 4.02 13.67 6.28 20.25 28.15 82.16 98.26 132.96.36.26.58.65.31.53.87.9-46.85.95-101.24-2.53-1.14-.07-1.49-.7-.2-.35-.23-.39-50.31-68.61-64.5-152.73-.1-.57.49-.58l60.73-.06Z"/><path fill="#1d91b4" d="m283.5 556.01 863.75-.01q.07.63-.16.81c-116.44 90.01-251.57 162.32-395.51 197.3q-59.82 14.54-117.58 17.9-32 1.87-70.69-.5-18.33-25.08-31.52-54.99 7.01-2.13 14.04-4.34c15.18-4.79 9.35-25.59-6.93-20.34-47.56 15.36-98.79 20.54-149.16 21.16q-.56-.37-.87-.9-.22-.39-.58-.65-70.11-50.8-98.26-132.96-2.26-6.58-6.28-20.25-.37-1.26-.25-2.23Zm347.07 103.67a33.61 33.61 0 0 0-33.61-33.61 33.61 33.61 0 0 0-33.61 33.61 33.61 33.61 0 0 0 33.61 33.61 33.61 33.61 0 0 0 33.61-33.61Z"/><path fill="#1b81a5" d="m1147.25 556 127.93.01a.53.53 0 0 1 .44.82q-2.93 4.37-5.89 8.9-81.62 125-209.52 201.05c-112.41 66.83-244.66 97.96-374.45 102.14l.14-.23q.12-.18-.08-.27c-47.86-22.36-90.54-54.17-122.51-96.91q38.69 2.37 70.69.5 57.76-3.36 117.58-17.9c143.94-34.98 279.07-107.29 395.51-197.3q.23-.18.16-.81Z"/><path fill="#bdd9d7" d="M630.57 659.68a33.61 33.61 0 0 1-33.61 33.61 33.61 33.61 0 0 1-33.61-33.61 33.61 33.61 0 0 1 33.61-33.61 33.61 33.61 0 0 1 33.61 33.61Zm-56.33-8.19c-5.64 17.45 8.73 35.69 27.28 31.81 14.9-3.13 23.04-17.86 17.91-32.22q-.2-.56-.55-.08c-9.46 13.08-26.09-4.77-14.04-13.18q1.06-.74-.18-1.08c-12.49-3.45-26.4 2.32-30.42 14.75Z"/><path fill="#364548" d="M601.52 683.3c-18.55 3.88-32.92-14.36-27.28-31.81 4.02-12.43 17.93-18.2 30.42-14.75q1.24.34.18 1.08c-12.05 8.41 4.58 26.26 14.04 13.18q.35-.48.55.08c5.13 14.36-3.01 29.09-17.91 32.22Z"/><path fill="#bdd9d7" d="M531.79 716.52q13.19 29.91 31.52 54.99c31.97 42.74 74.65 74.55 122.51 96.91q.2.09.08.27l-.14.23c-114.54 5-227.51-13.58-321.72-83q-32.12-23.67-60.64-52.38-.4-.4.17-.37c75.34 3.97 154.86 3.38 228.22-16.65Z"/><path fill="#364548" d="M238.71 1072.44q.08-48.52.04-97.25c-.01-12.47 3.56-23.38 17.27-26.36 16.35-3.56 30.14 5.3 30.2 22.73q.34 105.59.23 211.18c-.04 44.64-17.56 81.42-51.75 108.55-31.56 25.04-66.67 33.62-106 30.62q-57.43-4.39-94.16-48.96c-28.32-34.36-37.14-72.91-31.59-116.93 8.08-64.18 64.65-114.85 128.87-118.41 22.57-1.25 44.03.5 65.8 9.6q22.37 9.35 40.51 25.5a.35.35 0 0 0 .58-.27ZM50 1191.23c3.49 32.51 22.28 57.14 50.58 72.21 48.43 25.78 104.57 5.09 128.6-43.51 13.54-27.38 12.84-63.4-4.48-89.38-13.88-20.82-39.42-40.68-64.93-44.07q-63.32-8.39-96.16 44.34-17.15 27.53-13.61 60.41ZM1022.74 1308.16c-23.12-22.39-45.96-45.08-68.9-67.66q-.48-.47-.49.2-.25 27.44-.28 54.79c-.02 16.68-9.06 27.68-26.89 25.81-16.38-1.71-20.66-13.2-20.66-27.52q-.04-157.51-.01-315.03 0-10.91 1.54-15.3c3.91-11.2 14.51-15.37 25.84-14.19q14.66 1.54 18.92 15.32 1.46 4.71 1.45 14.98-.03 70.01-.01 140.64 0 1.11.79.33 33.93-33.81 68.65-67.84c4.56-4.47 13.13-12.46 18.99-13.28 11.49-1.61 25.36 3.32 28.45 15.55.79 3.1 1.24 10.18.1 13.44-3.43 9.83-13.61 19.24-19.81 25.52q-42.14 42.61-85.02 86.16-.68.68 0 1.36 45.9 45.75 91.52 92.51c9.41 9.64 15.82 15.93 13.62 28.53-3.17 18.12-22.89 26-37.51 14.72-3.03-2.34-6.99-5.84-10.29-9.04ZM1210 1268.78c16.45 5.26 33.98 5.08 50.94 2.39q3.68-.59 7.73-2.36c9.61-4.22 30.67-13.73 40.12-9.44 17.57 7.96 21.14 31.27 3.92 42.27-45.53 29.09-97.78 26.99-144.04 1.15-30.83-17.23-51.86-46.29-64-78.85-16.2-43.43-7.87-87.95 17.59-125.67 14.76-21.86 34.48-36.39 57.72-48.26q42.7-21.81 89.52-11.01c40.53 9.34 75.81 33.2 95.23 70.52 7.08 13.61-1.85 27.52-12.46 36.02q-14.91 11.93-32.1 26.88-55.1 47.92-110.33 95.6a.45.44 33.2 0 0 .16.76Zm101.52-152.96c-10.1-13.05-29.98-23.3-45.5-27.97-48.5-14.59-103.54 15.73-116.25 64.9-7.85 30.38-2.81 62.63 18.39 86.72q.14.17.31.02l142.96-122.8a.63.63 0 0 0 .09-.87ZM772.54 1084.39c-42.11-2.56-75.15 22.45-90.44 60.24-14.33 35.4-5.86 77.31 23.19 102.84 12.49 10.99 28.11 20.44 44.45 23.59q14.08 2.72 28.35 2.36c14.6-.38 28.59-6.63 41.82-12.65q3.39-1.55 6.29-1.65c17.16-.6 27.32 10.62 25.45 27.73-1.62 14.81-16.39 23.32-29.87 27.49q-36.76 11.36-74.63 7.08c-58.06-6.55-100.61-49.23-115.2-104.42-4.93-18.66-5.54-39.51-3.43-58.97 5.21-47.95 34.19-84.75 76.24-107.02q24.62-13.04 54.3-14.4c31.37-1.45 58.75 3.3 84.89 20.99 6.93 4.69 8.57 15.08 7.62 22.96-1.72 14.3-17.31 21.44-30.07 17.58q-10.94-3.31-21.3-8.13c-8.73-4.07-17.85-5.03-27.66-5.62ZM361.44 1287.56c-24.35-22.3-42.32-54.12-45.93-87.06-5.18-47.2 5.92-90.78 41.09-123.66 24.26-22.67 54.49-37.37 88.08-39.22 48.9-2.69 90.22 11.71 121.26 49.44 19.65 23.89 32.43 53.02 33.45 84.5.4 12.26.09 25.11-1.87 36.84-10.67 63.61-68.41 112.24-133.02 113.85q-4.79.12-15.23-.04-50.9-.81-87.83-34.65Zm31.13-39.36c45.76 41.38 110.8 33.32 144.17-18.74q21.26-33.16 12.1-72.7c-9.18-39.65-48.81-70.33-89.09-71.42-28.97-.78-55.08 9.46-73.72 32.19-14.12 17.24-22.83 36.82-23.51 58.97q-1.34 43.31 30.05 71.7ZM1457.54 1307.25c-6.32 20.06-38.24 21.15-45.13-.6q-1.13-3.55-1.13-12.57-.04-55.4-.04-110.84 0-13.45.63-19.97c6.8-69.68 68.98-124.08 138.89-124.02 15.08.01 25.7 6.53 26.74 22.53 1.12 17.14-13.09 24.39-28.05 25.88-4.39.43-10.97.28-15.91 1.13-23.32 4.05-46.79 21.47-59.61 41.12q-14.47 22.18-14.83 49.04-.3 23.04-.07 111.62.03 11.85-1.49 16.68Z"/></svg>