<?xml version="1.0" standalone="no"?>
<!DOCTYPE svg PUBLIC "-//W3C//DTD SVG 20010904//EN"
 "http://www.w3.org/TR/2001/REC-SVG-20010904/DTD/svg10.dtd">
<svg version="1.0" xmlns="http://www.w3.org/2000/svg"
 width="800.000000pt" height="400.000000pt" viewBox="0 0 1125.000000 417.000000"
 preserveAspectRatio="xMidYMid meet">

<g transform="translate(0.000000,417.000000) scale(0.100000,-0.100000)"
fill="#000000" stroke="none">
<path d="M2396 3274 c-497 -90 -895 -488 -993 -994 -19 -100 -21 -321 -4 -421
73 -428 362 -792 754 -949 144 -57 157 -46 157 129 l0 128 -93 -5 c-174 -9
-264 41 -333 184 -34 68 -62 102 -143 172 -47 39 -35 56 36 50 70 -6 122 -42
183 -128 29 -40 65 -77 95 -95 42 -26 58 -30 119 -30 39 0 88 6 108 13 31 11
37 18 43 52 4 21 19 58 35 83 l28 44 -99 21 c-307 64 -452 250 -453 577 0 149
19 208 109 331 13 17 13 27 4 50 -17 44 -15 171 5 237 16 56 17 57 54 57 54 0
146 -33 231 -83 l73 -43 86 18 c118 25 326 25 445 0 l88 -18 64 38 c90 54 189
90 239 86 38 -3 41 -5 54 -48 17 -52 20 -213 5 -249 -8 -20 -3 -34 34 -88 53
-79 73 -143 80 -253 11 -184 -47 -363 -152 -465 -84 -82 -194 -130 -368 -160
-36 -6 -38 -8 -23 -24 8 -9 25 -39 38 -66 21 -46 23 -68 28 -288 5 -255 6
-256 58 -257 37 0 174 57 260 109 485 291 711 849 566 1393 -56 209 -158 383
-318 544 -189 189 -407 304 -660 349 -110 19 -332 18 -440 -1z"/>
<path d="M4725 2835 c-282 -62 -422 -254 -457 -625 -20 -223 12 -446 85 -585
46 -87 136 -174 227 -218 111 -54 211 -70 389 -64 156 5 206 16 324 69 l67 31
0 378 0 379 -255 0 -255 0 0 -135 0 -135 100 0 100 0 0 -144 0 -143 -31 -7
c-57 -11 -174 -6 -227 9 -98 30 -158 105 -193 245 -18 71 -20 104 -17 229 5
159 23 233 75 312 29 45 99 94 157 112 64 19 258 15 349 -7 42 -11 80 -17 82
-14 3 3 18 59 34 124 20 81 26 123 19 131 -14 18 -123 51 -203 63 -97 13 -298
11 -370 -5z"/>
<path d="M6745 2788 c-3 -7 -4 -330 -3 -718 l3 -705 139 -3 c93 -2 143 1 152
9 11 9 14 68 14 310 l0 299 205 0 205 0 0 -304 c0 -268 2 -305 16 -310 23 -9
267 -7 282 2 10 7 12 157 10 718 l-3 709 -150 0 -150 0 -3 -267 -2 -268 -205
0 -205 0 0 258 c0 187 -3 261 -12 270 -17 17 -287 17 -293 0z"/>
<path d="M8942 2788 c-17 -17 -18 -1398 0 -1416 13 -13 185 -17 205 -4 6 4 15
20 18 35 4 15 10 26 14 25 144 -76 208 -92 341 -86 70 4 107 11 141 27 140 67
201 216 202 501 1 266 -60 404 -208 472 -43 20 -66 23 -165 23 -115 -1 -117
-1 -232 -50 -16 -6 -18 10 -20 236 l-3 244 -140 3 c-101 2 -144 -1 -153 -10z
m543 -692 c15 -10 37 -39 48 -64 19 -41 22 -64 22 -187 -1 -160 -13 -202 -67
-235 -44 -26 -121 -26 -193 1 l-55 20 0 223 0 223 43 16 c23 9 51 18 62 21 37
9 114 -1 140 -18z"/>
<path d="M5635 2760 c-77 -17 -126 -74 -133 -153 -10 -138 134 -231 253 -164
92 52 114 188 42 265 -41 44 -106 65 -162 52z"/>
<path d="M6080 2477 l0 -143 -77 -19 -78 -20 -3 -99 c-2 -73 1 -102 10 -108 7
-4 43 -8 80 -8 l66 0 4 -259 3 -258 35 -69 c30 -58 44 -74 89 -101 29 -17 75
-37 103 -42 62 -14 178 -12 243 3 l50 11 3 113 3 112 -66 0 c-74 0 -128 18
-144 48 -7 13 -11 100 -11 231 l0 211 99 0 c72 0 102 4 110 14 8 9 11 52 9
127 l-3 114 -107 3 -107 3 -3 137 -3 137 -152 3 -153 3 0 -144z"/>
<path d="M5517 2333 c-9 -8 -9 -926 -1 -947 5 -14 28 -16 155 -16 l149 0 0
485 0 485 -148 0 c-82 0 -152 -3 -155 -7z"/>
<path d="M7902 1948 c3 -386 3 -394 26 -443 52 -112 129 -155 291 -163 121 -6
186 6 287 53 l71 32 9 -31 c9 -31 9 -31 89 -34 44 -2 90 0 103 3 l22 5 -2 483
-3 482 -150 0 -150 0 -3 -352 -2 -352 -56 -20 c-91 -35 -187 -23 -210 26 -5
10 -11 171 -14 358 l-5 340 -153 3 -153 3 3 -393z"/>
<path d="M1825 1520 c4 -6 11 -8 16 -5 14 9 11 15 -7 15 -8 0 -12 -5 -9 -10z"/>
<path d="M1876 1475 c4 -8 10 -15 15 -15 5 0 9 7 9 15 0 8 -7 15 -15 15 -9 0
-12 -6 -9 -15z"/>
<path d="M1922 1414 c2 -11 11 -20 22 -22 13 -3 17 1 14 14 -2 11 -11 20 -22
22 -13 3 -17 -1 -14 -14z"/>
<path d="M1980 1341 c0 -15 6 -21 21 -21 25 0 22 33 -4 38 -12 2 -17 -3 -17
-17z"/>
<path d="M2065 1301 c-9 -16 3 -31 26 -31 14 0 19 6 17 17 -4 20 -33 29 -43
14z"/>
<path d="M2257 1294 c-4 -4 -7 -11 -7 -16 0 -13 50 -6 53 7 2 12 -36 19 -46 9z"/>
<path d="M2160 1276 c0 -16 19 -25 38 -19 22 8 13 33 -13 33 -15 0 -25 -6 -25
-14z"/>
</g>
</svg>
