<svg width="71" height="42" viewBox="0 0 71 42" fill="none" xmlns="http://www.w3.org/2000/svg">
<path d="M70.9999 21C70.9999 32.598 61.5595 42 49.9143 42C38.269 42 28.8286 32.598 28.8286 21C28.8286 9.40202 38.269 0 49.9143 0C61.5595 0 70.9999 9.40202 70.9999 21Z" fill="#A3CDFF" fill-opacity="0.6"/>
<path fill-rule="evenodd" clip-rule="evenodd" d="M25.5 22C22.4891 22 19.6762 21.3412 17.0615 20.0236C14.4467 18.7061 12.4262 16.8649 11 14.5C12.4262 12.1351 14.4467 10.2939 17.0615 8.97635C19.6762 7.65878 22.4891 7 25.5 7C28.5109 7 31.3238 7.65878 33.9385 8.97635C36.5533 10.2939 38.5738 12.1351 40 14.5C38.5738 16.8649 36.5533 18.7061 33.9385 20.0236C31.3238 21.3412 28.5109 22 25.5 22ZM31.8883 18.25C29.8876 19.1284 27.7582 19.5676 25.5 19.5676C23.2418 19.5676 21.1124 19.1284 19.1117 18.25C17.111 17.3716 15.4768 16.1216 14.209 14.5C15.4768 12.8784 17.111 11.6284 19.1117 10.75C21.1124 9.87162 23.2418 9.43243 25.5 9.43243C27.7582 9.43243 29.8876 9.87162 31.8883 10.75C33.889 11.6284 35.5232 12.8784 36.791 14.5C35.5232 16.1216 33.889 17.3716 31.8883 18.25ZM25.5 17.5405C24.5492 17.5405 23.7172 17.2365 23.0041 16.6284C22.291 16.0203 21.9344 15.3108 21.9344 14.5C21.9344 13.6554 22.291 12.9375 23.0041 12.3463C23.7172 11.7551 24.5492 11.4595 25.5 11.4595C26.4904 11.4595 27.3323 11.7551 28.0256 12.3463C28.7189 12.9375 29.0656 13.6554 29.0656 14.5C29.0656 15.3108 28.7189 16.0203 28.0256 16.6284C27.3323 17.2365 26.4904 17.5405 25.5 17.5405Z" fill="#0984DE"/>
<path fill-rule="evenodd" clip-rule="evenodd" d="M19.2498 32.3848C19.8206 32.4756 20.0575 33.1776 19.6499 33.5875L18.4943 34.7497C18.069 35.1774 18.3478 35.907 18.95 35.942L19.6152 35.9808C19.8161 35.9924 20.0122 35.9172 20.1537 35.7741L23.8721 32.0133C24.1418 31.7406 24.1418 31.3017 23.8721 31.029L20.1755 27.2902C20.0216 27.1346 19.8037 27.0599 19.5866 27.0883L18.9424 27.1729C18.3686 27.2482 18.1288 27.9476 18.5357 28.3591L19.5128 29.3474C19.9799 29.8198 19.5889 30.6042 18.9331 30.4977C14.6803 29.8064 11.053 28.6672 8.05135 27.08C4.58945 25.2495 2.8585 23.5971 2.8585 22.1228C2.8585 20.4859 4.72347 18.6932 8.45341 16.7447C8.77907 16.5745 8.92596 16.1841 8.78495 15.8448L8.57481 15.3392C8.42431 14.9771 8.00399 14.809 7.64874 14.975C3.21625 17.0459 1 19.4285 1 22.1228C1 24.5204 2.91923 26.68 6.75769 28.6017C10.2632 30.3567 14.4272 31.6177 19.2498 32.3848ZM50.9972 22.1228C50.9972 19.4293 48.7804 17.0473 44.347 14.9768C43.9901 14.8101 43.568 14.9806 43.4193 15.3453L43.2146 15.8475C43.0766 16.1859 43.2237 16.5734 43.5476 16.7428C47.275 18.692 49.1387 20.4854 49.1387 22.1228C49.1387 23.2531 48.1366 24.5308 46.1323 25.9559C44.2231 27.3134 41.5479 28.4702 38.1066 29.4264C37.8009 29.5114 37.5869 29.7886 37.5869 30.1058V30.5652C37.5869 31.0161 38.0074 31.3496 38.4444 31.2385C42.1492 30.2969 45.1248 29.0195 47.3713 27.4064C49.7886 25.6706 50.9972 23.9094 50.9972 22.1228Z" fill="#0984DE" stroke="#0984DE" stroke-width="0.7"/>
</svg>
