<svg width="50" height="42" viewBox="0 0 50 42" fill="none" xmlns="http://www.w3.org/2000/svg">
<path d="M49.0547 21C49.0547 32.598 39.7766 42 28.3314 42C16.8863 42 7.60815 32.598 7.60815 21C7.60815 9.40202 16.8863 0 28.3314 0C39.7766 0 49.0547 9.40202 49.0547 21Z" fill="#A3CDFF" fill-opacity="0.6"/>
<path d="M1.10288 36.0152L1.13331 36.3136L1.35378 36.1103L3.20252 34.4057L3.22964 34.3807L3.24207 34.346L7.69585 21.9028L7.75146 21.7474L7.59149 21.7069C7.27027 21.6254 6.93958 21.489 6.59929 21.2957C6.25677 21.1012 5.93491 20.8789 5.6336 20.6289L5.46831 20.4917L5.39646 20.6941L0.858641 33.4782L0.847349 33.51L0.850774 33.5436L1.10288 36.0152ZM18.2933 36.1103L18.5138 36.3136L18.5442 36.0152L18.7963 33.5436L18.7997 33.51L18.7884 33.4782L14.2506 20.6941L14.1788 20.4917L14.0135 20.6289C13.7122 20.8789 13.3903 21.1012 13.0478 21.2957C12.7075 21.489 12.3768 21.6254 12.0556 21.7069L11.8956 21.7474L11.9512 21.9028L16.405 34.346L16.4174 34.3807L16.4445 34.4057L18.2933 36.1103ZM6.50243 18.0584C7.41307 18.982 8.52301 19.4455 9.82353 19.4455C11.124 19.4455 12.234 18.982 13.1446 18.0584C14.0552 17.1349 14.5113 16.0102 14.5113 14.6932C14.5113 13.4967 14.1579 12.4871 13.4446 11.6752C12.7682 10.9052 11.975 10.3932 11.066 10.1453V6.5C11.066 6.14101 10.775 5.85 10.416 5.85H9.14706C8.78807 5.85 8.49706 6.14102 8.49706 6.5V10.1453C7.58854 10.3934 6.80845 10.906 6.1584 11.6775C5.47417 12.4896 5.13571 13.4983 5.13571 14.6932C5.13571 16.0102 5.59188 17.1349 6.50243 18.0584ZM11.3134 16.2072C10.8922 16.6343 10.398 16.8443 9.82353 16.8443C9.24901 16.8443 8.75482 16.6343 8.3337 16.2072C7.91254 15.78 7.70462 15.2778 7.70462 14.6932C7.70462 14.1085 7.91254 13.6063 8.3337 13.1792C8.75482 12.7521 9.24901 12.542 9.82353 12.542C10.398 12.542 10.8922 12.7521 11.3134 13.1792C11.7345 13.6063 11.9424 14.1085 11.9424 14.6932C11.9424 15.2778 11.7345 15.78 11.3134 16.2072Z" fill="#0984DE" stroke="#0984DE" stroke-width="0.3"/>
</svg>
