<svg width="50" height="41" viewBox="0 0 50 41" fill="none" xmlns="http://www.w3.org/2000/svg">
<path d="M49.4075 20.5C49.4075 31.8218 40.0688 41 28.549 41C17.0292 41 7.69055 31.8218 7.69055 20.5C7.69055 9.17816 17.0292 0 28.549 0C40.0688 0 49.4075 9.17816 49.4075 20.5Z" fill="#A3CDFF" fill-opacity="0.6"/>
<path d="M9.81805 25.465C10.0904 25.7327 10.527 25.7327 10.7994 25.465L18.3377 18.056C18.6168 17.7817 18.6168 17.3318 18.3377 17.0575L17.8061 16.535C17.5338 16.2673 17.0971 16.2673 16.8248 16.535L10.7994 22.4571C10.527 22.7247 10.0904 22.7247 9.81805 22.4571L7.21551 19.8991C6.94315 19.6315 6.50651 19.6315 6.23416 19.8991L5.70258 20.4216C5.42348 20.6959 5.42348 21.1458 5.70258 21.4201L9.81805 25.465ZM12.1872 35.9473C12.0656 35.9825 11.9362 35.9825 11.8145 35.9473C8.46057 34.9768 5.66333 32.9818 3.42282 29.9622C1.14094 26.8868 0 23.4113 0 19.5356V10.9204C0 10.6273 0.182547 10.3653 0.457444 10.2637L11.7574 6.0896C11.914 6.03178 12.086 6.03178 12.2426 6.0896L23.5426 10.2637C23.8175 10.3653 24 10.6273 24 10.9204V19.5184C24 23.4085 22.8594 26.8905 20.5781 29.9644C18.3381 32.9825 15.5412 34.9768 12.1872 35.9473ZM11.7844 33.7117C11.9241 33.7596 12.0759 33.7596 12.2156 33.7117C14.9645 32.7689 17.2416 31.0053 19.047 28.4208C20.8993 25.7691 21.8255 22.8111 21.8255 19.5466V12.387C21.8255 12.0933 21.6422 11.8309 21.3665 11.7298L12.241 8.38387C12.0854 8.32682 11.9146 8.32682 11.759 8.38387L2.63352 11.7298C2.3578 11.8309 2.1745 12.0933 2.1745 12.387V19.5466C2.1745 22.8111 3.10067 25.7691 4.95302 28.4208C6.75839 31.0053 9.03552 32.7689 11.7844 33.7117Z" fill="#0984DE"/>
</svg>
