<svg width="55" height="42" viewBox="0 0 55 42" fill="none" xmlns="http://www.w3.org/2000/svg">
<path d="M55 21C55 32.598 45.7313 42 34.2977 42C22.8642 42 13.5955 32.598 13.5955 21C13.5955 9.40202 22.8642 0 34.2977 0C45.7313 0 55 9.40202 55 21Z" fill="#A3CDFF" fill-opacity="0.6"/>
<path d="M28.2723 19.2789V30.2704C28.2723 31.1499 27.9641 31.8846 27.3478 32.4746C26.7316 33.0646 25.9641 33.3595 25.0455 33.3595H4.93439C4.01576 33.3595 3.2483 33.0646 2.63201 32.4746C2.01574 31.8846 1.70761 31.1499 1.70761 30.2704V19.207C0.907167 18.7042 0.388131 18.0516 0.1505 17.2494C-0.0871314 16.4472 -0.0433572 15.615 0.281822 14.753L1.8652 10.0159C2.08532 9.41433 2.41425 8.92793 2.85199 8.55676C3.28973 8.18559 3.8588 8 4.55918 8H25.3456C26.0565 8 26.6469 8.16763 27.117 8.50288C27.587 8.83813 27.9221 9.31707 28.1222 9.93968L29.698 14.753C30.0232 15.615 30.0858 16.4951 29.8857 17.3931C29.6855 18.2911 29.1477 18.9197 28.2723 19.2789ZM18.3848 18.2731C19.2733 18.2731 19.9489 18.0756 20.4117 17.6804C20.8744 17.2853 21.0683 16.8124 20.9932 16.2616L19.9427 9.93968H16.0405V15.8306C16.0405 16.5002 16.2736 17.0747 16.7399 17.554C17.2062 18.0334 17.7545 18.2731 18.3848 18.2731ZM11.4818 18.2731C12.2197 18.2731 12.8262 18.0334 13.3015 17.554C13.7768 17.0747 14.0144 16.5002 14.0144 15.8306V9.93968H10.0372L8.98662 16.3334C8.91158 16.8603 9.10544 17.3153 9.56819 17.6984C10.0309 18.0816 10.6688 18.2731 11.4818 18.2731ZM4.63422 18.2731C5.25957 18.2731 5.78486 18.0576 6.21009 17.6266C6.63533 17.1955 6.91048 16.6926 7.03555 16.1179L7.93604 9.93968H5.23455C4.80932 9.93968 4.47163 10.0295 4.2215 10.2091C3.97136 10.3887 3.78375 10.6581 3.65868 11.0173L2.30794 15.184C2.00777 16.0461 2.08907 16.7765 2.55182 17.3751C3.01458 17.9738 3.70871 18.2731 4.63422 18.2731ZM25.3456 18.2731C26.2211 18.2731 26.8965 17.9977 27.3718 17.447C27.847 16.8962 27.9471 16.1419 27.6719 15.184L26.3962 10.9454C26.2712 10.5862 26.0836 10.3288 25.8334 10.1732C25.5833 10.0175 25.2456 9.93968 24.8204 9.93968H22.0438L22.9443 16.1179C23.0694 16.6926 23.3445 17.1955 23.7698 17.6266C24.195 18.0576 24.7203 18.2731 25.3456 18.2731ZM4.93439 31.4199H25.0455C25.3957 31.4199 25.6833 31.3121 25.9085 31.0966C26.1336 30.8811 26.2461 30.6057 26.2461 30.2704V20.0691C26.1461 20.0931 26.0023 20.123 25.8147 20.1589C25.6271 20.1948 25.4457 20.2128 25.2706 20.2128C24.5853 20.2128 23.9825 20.0811 23.4622 19.8177C22.9418 19.5543 22.444 19.1592 21.9688 18.6323C21.5435 19.1113 21.0495 19.4944 20.4867 19.7818C19.9239 20.0691 19.2423 20.2128 18.4418 20.2128C17.7915 20.2128 17.1911 20.0811 16.6408 19.8177C16.0905 19.5543 15.5402 19.1592 14.9899 18.6323C14.5147 19.1592 13.9706 19.5543 13.3578 19.8177C12.7449 20.0811 12.1404 20.2128 11.5442 20.2128C10.8647 20.2128 10.2186 20.0871 9.60571 19.8356C8.99288 19.5842 8.46133 19.1831 8.01109 18.6323C7.3107 19.3028 6.69786 19.7339 6.17257 19.9254C5.64728 20.117 5.15951 20.2128 4.70926 20.2128C4.53417 20.2128 4.36532 20.1948 4.20273 20.1589C4.04014 20.123 3.88381 20.0931 3.73373 20.0691V30.2704C3.73373 30.6057 3.84629 30.8811 4.07141 31.0966C4.29654 31.3121 4.5842 31.4199 4.93439 31.4199ZM25.0455 31.4199H4.70926H25.2706H25.0455Z" fill="#0984DE"/>
</svg>
