<svg width="62" height="42" viewBox="0 0 62 42" fill="none" xmlns="http://www.w3.org/2000/svg">
<path d="M61.1407 21C61.1407 32.598 51.8748 42 40.4447 42C29.0146 42 19.7487 32.598 19.7487 21C19.7487 9.40202 29.0146 0 40.4447 0C51.8748 0 61.1407 9.40202 61.1407 21Z" fill="#A3CDFF" fill-opacity="0.6"/>
<path fill-rule="evenodd" clip-rule="evenodd" d="M2.46523 29.5356C3.99059 31.0607 5.8174 31.878 7.94565 31.9877C8.22143 32.0019 8.44563 31.7766 8.44563 31.5004V30.1447C8.44563 29.8685 8.22138 29.6468 7.94596 29.6269C6.46315 29.52 5.18188 28.9297 4.10215 27.8561C2.90295 26.6636 2.30335 25.1949 2.30335 23.4499C2.30335 21.705 2.90295 20.2363 4.10215 19.0438C5.30137 17.8514 6.7492 17.2552 8.44563 17.2552H9.31118C9.31118 14.793 10.1551 12.6942 11.8429 10.9588C13.5307 9.22344 15.5798 8.35574 17.9901 8.35574C20.4003 8.35574 22.4548 9.22344 24.1537 10.9588C25.8525 12.6942 26.7019 14.793 26.7019 17.2552V20.7452H29.3464C30.5408 20.7452 31.5645 21.1815 32.4176 22.054C33.2707 22.9265 33.6972 23.9734 33.6972 25.1949C33.6972 26.4164 33.2707 27.4634 32.4176 28.3359C31.6858 29.0844 30.8285 29.5118 29.8456 29.6182C29.5711 29.6479 29.3464 29.8685 29.3464 30.1447V31.5004C29.3464 31.7766 29.5706 32.0023 29.8462 31.9843C31.4966 31.8762 32.9059 31.2248 34.074 30.03C35.3584 28.7164 36.0006 27.1048 36.0006 25.1949C36.0006 23.4499 35.4674 21.9522 34.401 20.7016C33.3347 19.451 31.991 18.7239 30.3702 18.5203H29.0052V16.2518C28.6924 13.2854 27.491 10.8351 25.4009 8.90105C23.3108 6.96702 20.8439 6 18.0003 6C15.3841 6 13.0737 6.85068 11.0689 8.55206C9.06413 10.2534 7.7916 12.3983 7.2513 14.9867C5.17544 15.1612 3.44792 16.0919 2.06875 17.7787C0.689585 19.4655 0 21.3705 0 23.4936C0 25.8784 0.821743 27.8924 2.46523 29.5356Z" fill="#0984DE"/>
<path fill-rule="evenodd" clip-rule="evenodd" d="M21.1257 36.367C20.1493 36.7892 19.1075 37.0003 18.0001 37.0003C16.8964 37.0003 15.8579 36.7896 14.8847 36.3683C13.9115 35.9469 13.0648 35.3761 12.3445 34.6558C11.6242 33.9355 11.0534 33.0888 10.632 32.1155C10.2107 31.1423 10 30.1039 10 29.0001C10 27.8928 10.2111 26.851 10.6333 25.8746C11.0554 24.8982 11.6274 24.0487 12.3491 23.3261C13.0708 22.6034 13.9175 22.0351 14.8893 21.6211C15.8611 21.207 16.898 21 18.0001 21C19.1073 21 20.149 21.207 21.1253 21.6211C22.1016 22.0351 22.9511 22.6035 23.6739 23.3264C24.3967 24.0492 24.9652 24.8989 25.3792 25.8755C25.7932 26.8521 26.0003 27.8943 26.0003 29.0019C26.0003 30.1095 25.7932 31.1475 25.3792 32.116C24.9652 33.0844 24.3968 33.9295 23.6742 34.6512C22.9516 35.3729 22.1021 35.9448 21.1257 36.367ZM25.8395 25.6803C25.4014 24.6468 24.7974 23.7428 24.0275 22.9728C23.2575 22.2029 22.3537 21.5989 21.3205 21.1608C20.2798 20.7194 19.1714 20.5 18.0001 20.5C16.8336 20.5 15.7297 20.7195 14.6933 21.1611C13.6647 21.5994 12.7638 22.2032 11.9953 22.9728C11.2272 23.7418 10.6204 24.6444 10.1743 25.6761C9.72395 26.7177 9.5 27.8274 9.5 29.0001C9.5 30.1694 9.72357 31.2757 10.1732 32.3142C10.6185 33.3428 11.2242 34.2427 11.9909 35.0094C12.7576 35.776 13.6575 36.3818 14.6861 36.8271C15.7245 37.2767 16.8309 37.5003 18.0001 37.5003C19.1729 37.5003 20.2825 37.2763 21.3241 36.8259C22.3558 36.3798 23.2585 35.773 24.0275 35.005C24.7968 34.2367 25.4006 33.3378 25.8389 32.3125C26.2809 31.2788 26.5003 30.1735 26.5003 29.0019C26.5003 27.8302 26.2809 26.7214 25.8395 25.6803ZM22.8688 24.1315L22.5152 24.4851C21.2812 23.251 19.7863 22.6369 18.0001 22.6369C16.2139 22.6369 14.7191 23.251 13.4851 24.4851C12.251 25.7191 11.6369 27.2139 11.6369 29.0001C11.6369 30.7863 12.251 32.2812 13.4851 33.5152L13.1315 33.8688C11.8017 32.539 11.1369 30.9161 11.1369 29.0001C11.1369 27.0841 11.8017 25.4613 13.1315 24.1315C14.4613 22.8017 16.0841 22.1369 18.0001 22.1369C19.9161 22.1369 21.539 22.8017 22.8688 24.1315ZM22.8688 33.8688C24.1985 32.539 24.8634 30.9161 24.8634 29.0001C24.8634 27.0841 24.1985 25.4613 22.8688 24.1315L22.5152 24.4851C23.7492 25.7191 24.3634 27.2139 24.3634 29.0001C24.3634 30.7863 23.7492 32.2812 22.5152 33.5152L22.8688 33.8688ZM22.8688 33.8688L22.5152 33.5152C21.2812 34.7492 19.7863 35.3634 18.0001 35.3634C16.2139 35.3634 14.7191 34.7492 13.4851 33.5152L13.1315 33.8688C14.4613 35.1985 16.0841 35.8634 18.0001 35.8634C19.9161 35.8634 21.539 35.1985 22.8688 33.8688ZM18.4146 33.1013C18.4146 33.3222 18.2355 33.5013 18.0146 33.5013H17.1343C16.9134 33.5013 16.7343 33.3222 16.7343 33.1013V32.6326C16.4253 32.514 16.1459 32.3455 15.9004 32.1253C15.5451 31.8065 15.293 31.3821 15.127 30.8812L14.9815 30.442L16.5202 29.7959L16.6982 30.2924C16.8103 30.6051 16.9579 30.8077 17.1219 30.9362C17.2918 31.0694 17.4675 31.129 17.6638 31.129C17.8911 31.129 18.092 31.0702 18.2781 30.9513C18.3648 30.8959 18.4486 30.796 18.4486 30.5195C18.4486 30.3174 18.3885 30.2172 18.3074 30.149C18.1617 30.0267 17.8284 29.8451 17.2427 29.6129C16.634 29.3779 16.1361 29.0963 15.8073 28.7436C15.4522 28.3625 15.2921 27.8778 15.2921 27.337C15.2921 26.8377 15.4595 26.3831 15.776 25.9879C16.0318 25.6686 16.368 25.4491 16.7615 25.3154V24.9012C16.7615 24.6803 16.9406 24.5012 17.1615 24.5012H18.0418C18.2627 24.5012 18.4418 24.6803 18.4418 24.9012V25.2903C18.6897 25.3708 18.9185 25.5025 19.1255 25.6809C19.4389 25.9512 19.6739 26.2783 19.8225 26.6586L20 27.1128L18.4959 27.7444L18.2852 27.33C18.206 27.1741 18.1055 27.0491 17.9841 26.9489C17.9157 26.8924 17.8075 26.8443 17.6153 26.8443C17.3661 26.8443 17.219 26.9104 17.1218 26.9988C17.0174 27.0937 16.9724 27.1954 16.9724 27.337C16.9724 27.5248 17.0247 27.5962 17.0673 27.6335C17.1062 27.6677 17.202 27.7321 17.3865 27.8235C17.5636 27.9112 17.7976 28.0118 18.0926 28.1252C18.7844 28.3862 19.346 28.7048 19.6613 29.1242C19.9619 29.5241 20.1017 29.9988 20.1017 30.5207C20.1017 31.2046 19.8925 31.8025 19.3821 32.1938C19.0851 32.4213 18.7619 32.5896 18.4146 32.6966V33.1013ZM17.2615 25.7019C16.7808 25.7895 16.4157 25.989 16.1663 26.3005C15.9169 26.6119 15.7921 26.9574 15.7921 27.337C15.7921 27.7749 15.9191 28.1302 16.1731 28.4027C16.4271 28.6752 16.8443 28.9234 17.4248 29.1472C18.0144 29.3808 18.4158 29.5871 18.6289 29.7661C18.8421 29.9451 18.9486 30.1963 18.9486 30.5195C18.9486 30.9173 18.8149 31.2017 18.5473 31.3726C18.2797 31.5436 17.9852 31.629 17.6638 31.629C17.3514 31.629 17.068 31.5293 16.8134 31.3298C16.62 31.1782 16.4608 30.9746 16.3358 30.7191C16.2963 30.6383 16.2602 30.5523 16.2275 30.4611L15.6017 30.7239C15.6549 30.8846 15.717 31.0326 15.788 31.1678C15.7909 31.1733 15.7938 31.1788 15.7968 31.1843C15.9175 31.4101 16.0633 31.5997 16.2343 31.7531C16.511 32.0013 16.8443 32.1717 17.2343 32.2644V33.0013H17.9146V32.3006C18.3409 32.2324 18.7287 32.0646 19.0779 31.7969C19.4271 31.5293 19.6017 31.1039 19.6017 30.5207C19.6017 30.0917 19.4883 29.7263 19.2616 29.4246C19.0348 29.1229 18.5858 28.8455 17.9146 28.5925C17.3069 28.3589 16.9146 28.1646 16.7377 28.0096C16.5609 27.8545 16.4724 27.6304 16.4724 27.337C16.4724 27.0547 16.5767 26.8187 16.7853 26.6289C16.994 26.4392 17.2706 26.3443 17.6153 26.3443C17.8965 26.3443 18.1255 26.4173 18.3024 26.5632C18.4793 26.7092 18.6221 26.8893 18.731 27.1034L19.3568 26.8406C19.3447 26.8097 19.3319 26.7792 19.3184 26.7491C19.2627 26.6253 19.1949 26.5089 19.115 26.3999C19.025 26.2771 18.9197 26.1637 18.799 26.0596C18.545 25.8406 18.2593 25.7208 17.9418 25.7003V25.0012H17.2615V25.7019Z" fill="#0984DE"/>
<path fill-rule="evenodd" clip-rule="evenodd" d="M21.1257 36.367C20.1493 36.7892 19.1075 37.0003 18.0001 37.0003C16.8964 37.0003 15.8579 36.7896 14.8847 36.3683C13.9115 35.9469 13.0648 35.3761 12.3445 34.6558C11.6242 33.9355 11.0534 33.0888 10.632 32.1155C10.2107 31.1423 10 30.1039 10 29.0001C10 27.8928 10.2111 26.851 10.6333 25.8746C11.0554 24.8982 11.6274 24.0487 12.3491 23.3261C13.0708 22.6034 13.9175 22.0351 14.8893 21.6211C15.8611 21.207 16.898 21 18.0001 21C19.1073 21 20.149 21.207 21.1253 21.6211C22.1016 22.0351 22.9511 22.6035 23.6739 23.3264C24.3967 24.0492 24.9652 24.8989 25.3792 25.8755C25.7932 26.8521 26.0003 27.8943 26.0003 29.0019C26.0003 30.1095 25.7932 31.1475 25.3792 32.116C24.9652 33.0844 24.3968 33.9295 23.6742 34.6512C22.9516 35.3729 22.1021 35.9448 21.1257 36.367ZM25.8395 25.6803C25.4014 24.6468 24.7974 23.7428 24.0275 22.9728C23.2575 22.2029 22.3537 21.5989 21.3205 21.1608C20.2798 20.7194 19.1714 20.5 18.0001 20.5C16.8336 20.5 15.7297 20.7195 14.6933 21.1611C13.6647 21.5994 12.7638 22.2032 11.9953 22.9728C11.2272 23.7418 10.6204 24.6444 10.1743 25.6761C9.72395 26.7177 9.5 27.8274 9.5 29.0001C9.5 30.1694 9.72357 31.2757 10.1732 32.3142C10.6185 33.3428 11.2242 34.2427 11.9909 35.0094C12.7576 35.776 13.6575 36.3818 14.6861 36.8271C15.7245 37.2767 16.8309 37.5003 18.0001 37.5003C19.1729 37.5003 20.2825 37.2763 21.3241 36.8259C22.3558 36.3798 23.2585 35.773 24.0275 35.005C24.7968 34.2367 25.4006 33.3378 25.8389 32.3125C26.2809 31.2788 26.5003 30.1735 26.5003 29.0019C26.5003 27.8302 26.2809 26.7214 25.8395 25.6803ZM22.8688 24.1315L22.5152 24.4851C21.2812 23.251 19.7863 22.6369 18.0001 22.6369C16.2139 22.6369 14.7191 23.251 13.4851 24.4851C12.251 25.7191 11.6369 27.2139 11.6369 29.0001C11.6369 30.7863 12.251 32.2812 13.4851 33.5152L13.1315 33.8688C11.8017 32.539 11.1369 30.9161 11.1369 29.0001C11.1369 27.0841 11.8017 25.4613 13.1315 24.1315C14.4613 22.8017 16.0841 22.1369 18.0001 22.1369C19.9161 22.1369 21.539 22.8017 22.8688 24.1315ZM22.8688 33.8688C24.1985 32.539 24.8634 30.9161 24.8634 29.0001C24.8634 27.0841 24.1985 25.4613 22.8688 24.1315L22.5152 24.4851C23.7492 25.7191 24.3634 27.2139 24.3634 29.0001C24.3634 30.7863 23.7492 32.2812 22.5152 33.5152L22.8688 33.8688ZM22.8688 33.8688L22.5152 33.5152C21.2812 34.7492 19.7863 35.3634 18.0001 35.3634C16.2139 35.3634 14.7191 34.7492 13.4851 33.5152L13.1315 33.8688C14.4613 35.1985 16.0841 35.8634 18.0001 35.8634C19.9161 35.8634 21.539 35.1985 22.8688 33.8688ZM18.4146 33.1013C18.4146 33.3222 18.2355 33.5013 18.0146 33.5013H17.1343C16.9134 33.5013 16.7343 33.3222 16.7343 33.1013V32.6326C16.4253 32.514 16.1459 32.3455 15.9004 32.1253C15.5451 31.8065 15.293 31.3821 15.127 30.8812L14.9815 30.442L16.5202 29.7959L16.6982 30.2924C16.8103 30.6051 16.9579 30.8077 17.1219 30.9362C17.2918 31.0694 17.4675 31.129 17.6638 31.129C17.8911 31.129 18.092 31.0702 18.2781 30.9513C18.3648 30.8959 18.4486 30.796 18.4486 30.5195C18.4486 30.3174 18.3885 30.2172 18.3074 30.149C18.1617 30.0267 17.8284 29.8451 17.2427 29.6129C16.634 29.3779 16.1361 29.0963 15.8073 28.7436C15.4522 28.3625 15.2921 27.8778 15.2921 27.337C15.2921 26.8377 15.4595 26.3831 15.776 25.9879C16.0318 25.6686 16.368 25.4491 16.7615 25.3154V24.9012C16.7615 24.6803 16.9406 24.5012 17.1615 24.5012H18.0418C18.2627 24.5012 18.4418 24.6803 18.4418 24.9012V25.2903C18.6897 25.3708 18.9185 25.5025 19.1255 25.6809C19.4389 25.9512 19.6739 26.2783 19.8225 26.6586L20 27.1128L18.4959 27.7444L18.2852 27.33C18.206 27.1741 18.1055 27.0491 17.9841 26.9489C17.9157 26.8924 17.8075 26.8443 17.6153 26.8443C17.3661 26.8443 17.219 26.9104 17.1218 26.9988C17.0174 27.0937 16.9724 27.1954 16.9724 27.337C16.9724 27.5248 17.0247 27.5962 17.0673 27.6335C17.1062 27.6677 17.202 27.7321 17.3865 27.8235C17.5636 27.9112 17.7976 28.0118 18.0926 28.1252C18.7844 28.3862 19.346 28.7048 19.6613 29.1242C19.9619 29.5241 20.1017 29.9988 20.1017 30.5207C20.1017 31.2046 19.8925 31.8025 19.3821 32.1938C19.0851 32.4213 18.7619 32.5896 18.4146 32.6966V33.1013ZM17.2615 25.7019C16.7808 25.7895 16.4157 25.989 16.1663 26.3005C15.9169 26.6119 15.7921 26.9574 15.7921 27.337C15.7921 27.7749 15.9191 28.1302 16.1731 28.4027C16.4271 28.6752 16.8443 28.9234 17.4248 29.1472C18.0144 29.3808 18.4158 29.5871 18.6289 29.7661C18.8421 29.9451 18.9486 30.1963 18.9486 30.5195C18.9486 30.9173 18.8149 31.2017 18.5473 31.3726C18.2797 31.5436 17.9852 31.629 17.6638 31.629C17.3514 31.629 17.068 31.5293 16.8134 31.3298C16.62 31.1782 16.4608 30.9746 16.3358 30.7191C16.2963 30.6383 16.2602 30.5523 16.2275 30.4611L15.6017 30.7239C15.6549 30.8846 15.717 31.0326 15.788 31.1678C15.7909 31.1733 15.7938 31.1788 15.7968 31.1843C15.9175 31.4101 16.0633 31.5997 16.2343 31.7531C16.511 32.0013 16.8443 32.1717 17.2343 32.2644V33.0013H17.9146V32.3006C18.3409 32.2324 18.7287 32.0646 19.0779 31.7969C19.4271 31.5293 19.6017 31.1039 19.6017 30.5207C19.6017 30.0917 19.4883 29.7263 19.2616 29.4246C19.0348 29.1229 18.5858 28.8455 17.9146 28.5925C17.3069 28.3589 16.9146 28.1646 16.7377 28.0096C16.5609 27.8545 16.4724 27.6304 16.4724 27.337C16.4724 27.0547 16.5767 26.8187 16.7853 26.6289C16.994 26.4392 17.2706 26.3443 17.6153 26.3443C17.8965 26.3443 18.1255 26.4173 18.3024 26.5632C18.4793 26.7092 18.6221 26.8893 18.731 27.1034L19.3568 26.8406C19.3447 26.8097 19.3319 26.7792 19.3184 26.7491C19.2627 26.6253 19.1949 26.5089 19.115 26.3999C19.025 26.2771 18.9197 26.1637 18.799 26.0596C18.545 25.8406 18.2593 25.7208 17.9418 25.7003V25.0012H17.2615V25.7019Z" fill="#0984DE"/>
<path d="M18.0001 37.0003C16.8964 37.0003 15.8579 36.7896 14.8847 36.3683C13.9115 35.9469 13.0648 35.3761 12.3445 34.6558C11.6242 33.9355 11.0534 33.0888 10.632 32.1155C10.2107 31.1423 10 30.1039 10 29.0001C10 27.8928 10.2111 26.851 10.6333 25.8746C11.0554 24.8982 11.6274 24.0487 12.3491 23.3261C13.0708 22.6034 13.9175 22.0351 14.8893 21.6211C15.8611 21.207 16.898 21 18.0001 21C19.1073 21 20.149 21.207 21.1253 21.6211C22.1016 22.0351 22.9511 22.6035 23.6739 23.3264C24.3967 24.0492 24.9652 24.8989 25.3792 25.8755C25.7932 26.8521 26.0003 27.8943 26.0003 29.0019C26.0003 30.1095 25.7932 31.1475 25.3792 32.116C24.9652 33.0844 24.3968 33.9295 23.6742 34.6512C22.9516 35.3729 22.1021 35.9448 21.1257 36.367C20.1493 36.7892 19.1075 37.0003 18.0001 37.0003ZM18.0001 35.8634C19.9161 35.8634 21.539 35.1985 22.8688 33.8688C24.1985 32.539 24.8634 30.9161 24.8634 29.0001C24.8634 27.0841 24.1985 25.4613 22.8688 24.1315C21.539 22.8017 19.9161 22.1369 18.0001 22.1369C16.0841 22.1369 14.4613 22.8017 13.1315 24.1315C11.8017 25.4613 11.1369 27.0841 11.1369 29.0001C11.1369 30.9161 11.8017 32.539 13.1315 33.8688C14.4613 35.1985 16.0841 35.8634 18.0001 35.8634Z" fill="#0984DE"/>
<path d="M17.9146 33.0013H17.2343V32.2644C16.8443 32.1717 16.511 32.0013 16.2343 31.7531C15.9577 31.5049 15.7468 31.1619 15.6017 30.7239L16.2275 30.4611C16.3636 30.8407 16.5589 31.1302 16.8134 31.3298C17.068 31.5293 17.3514 31.629 17.6638 31.629C17.9852 31.629 18.2797 31.5436 18.5473 31.3726C18.8149 31.2017 18.9486 30.9173 18.9486 30.5195C18.9486 30.1963 18.8421 29.9451 18.6289 29.7661C18.4158 29.5871 18.0144 29.3808 17.4248 29.1472C16.8443 28.9234 16.4271 28.6752 16.1731 28.4027C15.9191 28.1302 15.7921 27.7749 15.7921 27.337C15.7921 26.9574 15.9169 26.6119 16.1663 26.3005C16.4157 25.989 16.7808 25.7895 17.2615 25.7019V25.0012H17.9418V25.7003C18.2593 25.7208 18.545 25.8406 18.799 26.0596C19.053 26.2786 19.2389 26.5389 19.3568 26.8406L18.731 27.1034C18.6221 26.8893 18.4793 26.7092 18.3024 26.5632C18.1255 26.4173 17.8965 26.3443 17.6153 26.3443C17.2706 26.3443 16.994 26.4392 16.7853 26.6289C16.5767 26.8187 16.4724 27.0547 16.4724 27.337C16.4724 27.6304 16.5609 27.8545 16.7377 28.0096C16.9146 28.1646 17.3069 28.3589 17.9146 28.5925C18.5858 28.8455 19.0348 29.1229 19.2616 29.4246C19.4883 29.7263 19.6017 30.0917 19.6017 30.5207C19.6017 31.1039 19.4271 31.5293 19.0779 31.7969C18.7287 32.0646 18.3409 32.2324 17.9146 32.3006V33.0013Z" fill="#0984DE"/>
</svg>
