<svg width="55" height="43" viewBox="0 0 55 43" fill="none" xmlns="http://www.w3.org/2000/svg">
<path d="M54.7344 21.3672C54.7344 33.168 45.168 42.7344 33.3672 42.7344C21.5664 42.7344 12 33.168 12 21.3672C12 9.56642 21.5664 0 33.3672 0C45.168 0 54.7344 9.56642 54.7344 21.3672Z" fill="#A3CDFF" fill-opacity="0.6"/>
<path fill-rule="evenodd" clip-rule="evenodd" d="M11.872 36C11.5215 36 11.225 35.7407 11.1783 35.3933L10.6881 31.7477C10.6525 31.4828 10.4684 31.2634 10.2213 31.1616C9.91568 31.0356 9.56922 30.8708 9.18193 30.6671C8.78254 30.4571 8.43657 30.2366 8.14402 30.0056C7.92353 29.8315 7.62703 29.7714 7.36797 29.8801L3.96597 31.3077C3.63605 31.4462 3.25482 31.3135 3.08208 31.0002L2.36574 29.7008L4.33071 28.7559L7.73255 27.318C7.98635 27.2107 8.27843 27.2636 8.48603 27.4448C9.10323 27.9835 9.70631 28.414 10.2953 28.7362C10.8591 29.0447 11.4703 29.2972 12.129 29.4936C12.4094 29.5772 12.6199 29.815 12.6522 30.1058L13.0017 33.2513C13.0411 33.6058 13.3407 33.874 13.6974 33.874H15.565C15.9147 33.874 16.2107 33.6159 16.2584 33.2695L16.7076 30.0083C16.7464 29.727 16.9519 29.4992 17.2234 29.416C17.8592 29.2212 18.4424 28.9738 18.973 28.6738C19.5226 28.3631 20.0931 27.9435 20.6846 27.415C20.8933 27.2286 21.1903 27.1738 21.4474 27.284L24.3215 28.5157C24.6427 28.6534 25.0163 28.5331 25.1967 28.2338L26.173 26.6146C26.357 26.3094 26.2824 25.9147 25.9997 25.6978L24.1499 24.2782C23.706 23.9375 23.8215 23.2394 24.3515 23.0599L25.2032 22.7714C25.4211 22.6976 25.6613 22.7356 25.8459 22.873L28.7623 25.0448C29.0429 25.2537 29.1261 25.6378 28.9572 25.9442L26.1712 30.9978C25.9979 31.3121 25.6149 31.4445 25.2845 31.3041L21.8082 29.8274C21.568 29.7254 21.292 29.7668 21.0853 29.9261C20.7526 30.1825 20.4237 30.4092 20.0984 30.6063C19.7923 30.7918 19.4763 30.9511 19.1505 31.0842C18.9026 31.1855 18.7179 31.4047 18.6828 31.6701L18.1907 35.3918C18.1446 35.7399 17.8478 36 17.4967 36H11.872ZM19.8455 12.0388C20.0481 11.6973 19.9268 11.255 19.5697 11.0813C19.4073 11.0023 19.24 10.924 19.0679 10.8464C18.8415 10.7443 18.6817 10.5336 18.6506 10.2872L18.1874 6.61246C18.1433 6.26248 17.8457 6 17.4929 6H11.8706C11.5207 6 11.2245 6.25844 11.1771 6.60516L10.6857 10.1981C10.6513 10.45 10.4823 10.6619 10.2491 10.7635C9.88563 10.9218 9.50076 11.1122 9.09449 11.3346C8.6754 11.5641 8.28667 11.8126 7.92828 12.08C7.72144 12.2344 7.44945 12.2773 7.21077 12.1792L3.95711 10.8412C3.63071 10.707 3.25544 10.8368 3.08165 11.1439L0.302994 16.055C0.129711 16.3613 0.210727 16.7486 0.492239 16.9597L3.31548 19.0772C3.50648 19.2204 3.6126 19.4513 3.58933 19.6889C3.56996 19.8868 3.54805 20.0679 3.52362 20.2323C3.48425 20.4972 3.46457 20.74 3.46457 20.9606C3.46457 21.2212 3.48425 21.4967 3.52362 21.7874L5.66929 20.9773C5.66929 20.5987 5.69554 20.1995 5.74803 19.7795C5.78222 19.506 5.83312 19.2269 5.90072 18.9422C5.96732 18.6617 5.87356 18.3642 5.64558 18.1878L3.20939 16.3026C2.92842 16.0852 2.85487 15.6918 3.03831 15.3876L4.01748 13.7636C4.19724 13.4655 4.56879 13.3447 4.88947 13.4803L7.70652 14.671C7.97344 14.7838 8.28086 14.7189 8.49001 14.5183C9.06294 13.9689 9.64501 13.5244 10.2362 13.185C10.8088 12.8564 11.4413 12.6005 12.1338 12.4174C12.4312 12.3388 12.6575 12.09 12.6864 11.7837L12.9717 8.76024C13.0056 8.40071 13.3074 8.12598 13.6686 8.12598H15.6669C16.026 8.12598 16.3269 8.39777 16.3633 8.75505L16.6799 11.8632C16.711 12.1691 16.9394 12.4153 17.234 12.5032C17.6269 12.6205 18.0386 12.7865 18.4691 13.0014C18.8127 13.1728 19.2368 13.0649 19.4327 12.7347L19.8455 12.0388Z" fill="#0984DE"/>
<path d="M10.4916 18.9174L1.136 26.9033C0.825167 27.1686 0.802464 27.6411 1.08643 27.935C1.34456 28.2022 1.76518 28.2248 2.05042 27.9868L10.8795 20.6192C11.0421 20.4835 11.2822 20.498 11.4272 20.6523L15.3168 24.79C15.712 25.2103 16.3799 25.21 16.7747 24.7893L23.2277 17.9119C23.4757 17.6475 23.9194 17.8231 23.9194 18.1856V20.6016C23.9194 20.9828 24.2284 21.2919 24.6097 21.2919C24.9909 21.2919 25.3 20.9828 25.3 20.6016V15.7C25.3 15.1477 24.8523 14.7 24.3 14.7H19.7825C19.3876 14.7 19.0673 15.0202 19.0673 15.4152C19.0673 15.8102 19.3876 16.1304 19.7825 16.1304H22.0928C22.4448 16.1304 22.6252 16.5522 22.3821 16.8067L16.3392 23.1325C16.1808 23.2983 15.9157 23.2972 15.7586 23.1301L11.8695 18.993C11.5039 18.6042 10.8975 18.5709 10.4916 18.9174Z" fill="#0984DE" stroke="#0984DE" stroke-width="0.6"/>
</svg>
