<svg width="58" height="42" viewBox="0 0 58 42" fill="none" xmlns="http://www.w3.org/2000/svg">
<path d="M57.9999 21C57.9999 32.598 48.5595 42 36.9143 42C25.269 42 15.8286 32.598 15.8286 21C15.8286 9.40202 25.269 0 36.9143 0C48.5595 0 57.9999 9.40202 57.9999 21Z" fill="#A3CDFF" fill-opacity="0.6"/>
<path d="M4.37085 31.7944C4.0994 32.0382 3.6757 31.9946 3.47383 31.6906C2.73213 30.5739 2.15207 29.3784 1.73366 28.1043C1.24455 26.615 1 25.0335 1 23.3598C1 19.0913 2.52648 15.4677 5.57945 12.489C8.63242 9.51024 12.352 8.02087 16.7382 8.02087H18.5178C19.146 8.02087 19.4562 7.25735 19.006 6.81921L16.3232 4.20832C16.0957 3.98701 16.0931 3.62252 16.3173 3.39793V3.39793C16.5375 3.17735 16.8941 3.17476 17.1174 3.39213L21.9726 8.117C22.2554 8.39221 22.2549 8.84668 21.9715 9.12131L17.1293 13.8143C16.8983 14.0382 16.5311 14.0378 16.3005 13.8135V13.8135C16.0606 13.5799 16.0606 13.1945 16.3005 12.9609L18.935 10.3971C19.3852 9.95898 19.075 9.19547 18.4468 9.19547H16.7382C12.7187 9.19547 9.29197 10.5774 6.458 13.3412C3.62399 16.1051 2.20699 19.447 2.20699 23.3669C2.20699 24.8669 2.42787 26.3002 2.86965 27.6667C3.25296 28.8524 3.78476 29.9515 4.46504 30.9638C4.64191 31.227 4.60674 31.5825 4.37085 31.7944V31.7944ZM30.0032 31.6899C29.8018 31.9929 29.3782 32.0338 29.1107 31.7872V31.7872C28.884 31.5782 28.8505 31.2335 29.0209 30.9765C29.6942 29.961 30.2267 28.8591 30.6185 27.6709C31.0682 26.3071 31.293 24.8701 31.293 23.3598C31.293 21.3888 30.9183 19.5449 30.1689 17.828C29.5019 16.3 28.5943 14.9412 27.4461 13.7515C27.2119 13.5088 27.2059 13.1215 27.4444 12.883V12.883C27.6758 12.6515 28.051 12.6475 28.2779 12.8835C29.5373 14.1937 30.536 15.6841 31.2738 17.3546C32.0913 19.2052 32.5 21.207 32.5 23.3598C32.5 25.0335 32.2515 26.615 31.7545 28.1043C31.3294 29.3782 30.7457 30.5734 30.0032 31.6899Z" fill="#0984DE" stroke="#0984DE"/>
<path d="M15.3233 30.4575L15.4683 30.5952L15.3233 30.4576C14.942 30.8592 14.753 31.356 14.753 31.9346C14.753 32.5137 14.9438 33.0096 15.3286 33.4085L15.4594 33.2823L15.3286 33.4085C15.7134 33.8074 16.193 34.0081 16.7542 34.0081C17.316 34.0081 17.7947 33.8055 18.1767 33.4029L18.0416 33.2747L18.1767 33.4029C18.558 33.0013 18.747 32.5044 18.747 31.9258C18.747 31.3467 18.5562 30.8508 18.1714 30.452L18.0275 30.5908L18.1714 30.452C17.7866 30.0531 17.307 29.8523 16.7458 29.8523C16.184 29.8523 15.7053 30.055 15.3233 30.4575ZM18.8866 20.2608L19.0327 20.1243L18.8866 20.2608C19.4787 20.8949 19.774 21.6512 19.774 22.5407V24.55H13.726V22.5407C13.726 21.651 14.0204 20.8946 14.6105 20.2605C15.1992 19.6281 15.9075 19.3163 16.7469 19.3163C17.5863 19.3163 18.2958 19.6281 18.8866 20.2608ZM9.37794 38.4617C9.84912 38.9541 10.4439 39.2 11.1477 39.2H22.3523C23.0561 39.2 23.6509 38.9541 24.1221 38.4617C24.5927 37.9698 24.825 37.3526 24.825 36.625V27.125C24.825 26.3974 24.5927 25.7802 24.1221 25.2883C23.6509 24.7959 23.0561 24.55 22.3523 24.55H21.601V22.5407C21.601 21.1117 21.1325 19.8969 20.1932 18.9094C19.254 17.922 18.1023 17.425 16.75 17.425C15.3977 17.425 14.246 17.922 13.3068 18.9094C12.3675 19.8969 11.899 21.1117 11.899 22.5407V24.55H11.1477C10.4439 24.55 9.84912 24.7959 9.37794 25.2883C8.9073 25.7802 8.675 26.3974 8.675 27.125V36.625C8.675 37.3526 8.9073 37.9698 9.37794 38.4617ZM22.3523 37.3087H11.1477C10.951 37.3087 10.8021 37.245 10.6843 37.1219C10.5659 36.9981 10.502 36.8382 10.502 36.625V27.125C10.502 26.9118 10.5659 26.7519 10.6843 26.6281C10.8021 26.505 10.951 26.4413 11.1477 26.4413H22.3523C22.549 26.4413 22.6979 26.505 22.8156 26.6281C22.9341 26.7519 22.998 26.9118 22.998 27.125V36.625C22.998 36.8382 22.9341 36.9981 22.8156 37.1219C22.6979 37.245 22.549 37.3087 22.3523 37.3087Z" fill="#0984DE" stroke="#0984DE" stroke-width="0.4"/>
</svg>
