<svg width="562" height="234" viewBox="0 0 562 234" fill="none" xmlns="http://www.w3.org/2000/svg">
<path d="M0 233.444C8.21208 200.247 32.8125 169.003 68.3185 149.296C82.8972 141.207 100.008 138.803 117.615 138.035C139.629 137.072 163.519 143.578 167.001 120.315C168.207 112.267 166.081 104.131 166.553 96.0352C167.706 76.517 184.512 58.7567 206.52 48.8831C228.529 39.0095 255.028 36.275 280.459 37.8174C300.568 39.0364 320.373 42.8821 338.887 49.011C350.253 52.7692 359.797 58.7903 369.854 64.1784C369.86 64.1784 369.872 64.1784 369.878 64.1851L369.896 64.1986C382.629 71.0145 390.256 70.6508 398.731 59.5447C402.422 54.7022 404.93 49.368 408.699 44.5592C418.285 32.335 436.279 24.2395 454.884 23.7815C466.828 23.4919 475.088 28.065 484.877 32.4226C509.352 43.2997 510.122 27.4319 526.379 15.2549C535.117 8.70843 545.342 3.32038 556.797 0C559.64 4.43167 561.318 9.88033 561.318 15.7735V65.357C537.709 73.7085 514.255 83.9593 494.373 96.9108C475.662 109.094 462.337 125.339 443.393 137.308C427.888 147.1 415.448 140.938 400.678 132.681C380.927 121.628 358.321 116.375 333.906 115.991C287.381 115.271 238.043 130.007 203.122 153.391C172.937 173.603 163.429 204.591 155.779 233.451H0V233.444Z" fill="#64ABFF"/>
<path d="M155.779 233.444C163.429 204.584 172.938 173.596 203.122 153.384C238.043 130.007 287.381 115.264 333.906 115.985C358.322 116.362 380.927 121.615 400.678 132.674C415.448 140.938 427.888 147.094 443.393 137.301C462.337 125.333 475.662 109.088 494.373 96.9041C514.256 83.9526 537.709 73.7018 561.318 65.3503V136.338C528.876 144.285 513.198 145.221 489.351 163.891C470.191 178.89 454.388 198.516 428.229 204.732C417.054 207.393 405.086 207.238 393.416 206.524C371.616 205.204 349.877 202.052 328.041 203.022C305.502 204.025 268.072 221.092 252.747 233.437H155.779V233.444Z" fill="#C5DFFF"/>
<path d="M252.747 233.444C268.072 221.099 305.502 204.039 328.041 203.028C349.877 202.052 371.616 205.204 393.416 206.531C405.086 207.238 417.054 207.393 428.229 204.739C454.388 198.523 470.191 178.89 489.351 163.898C513.198 145.228 528.876 144.292 561.318 136.345V206.51C561.318 221.388 550.622 233.451 537.429 233.451H252.747V233.444Z" fill="#DEECFC"/>
<path d="M226.532 118.607C227.84 117.522 228.796 115.804 229.13 113.133C229.865 107.331 228.205 100.366 226.473 95.0714C224.275 88.3402 220.136 82.4992 214.832 80.1643C209.529 77.8295 203.102 79.5162 199.465 85.0761C197.948 87.4031 196.007 90.675 193.893 89.3709C195.058 77.9076 189.342 66.9283 182.235 60.0487C172.739 50.8499 159.868 46.9923 148.724 52.1227C137.579 57.261 129.056 72.2618 130.143 87.6452C122.857 81.9213 113.576 80.7578 105.591 84.5685C97.6056 88.3714 91.0718 97.0705 88.3065 107.581C87.548 110.478 87.13 113.969 88.5992 116.358C89.8893 118.451 92.1647 118.912 94.2192 119.045C99.0569 119.357 103.895 118.717 108.72 118.162C144.764 114.031 181.124 114.625 217.078 119.935C220.261 120.403 224.036 120.677 226.526 118.607H226.532Z" fill="white"/>
</svg>
