<svg width="501" height="440" viewBox="0 0 501 440" fill="none" xmlns="http://www.w3.org/2000/svg">
<path fill-rule="evenodd" clip-rule="evenodd" d="M465.787 98.7681C476.905 94.2233 488.71 91.0238 501 89.4014V440H149.597C66.9731 440 0 368.941 0 288.654C0 208.367 61.7881 142.724 139.875 137.649C157.135 58.916 226.508 0 309.54 0C378.194 0 437.533 40.2892 465.787 98.7681Z" fill="#E7F1FD"/>
<path d="M362.355 189.949H209.458V427.255H362.355V189.949Z" fill="#36619B"/>
<path d="M353.375 159.512H191.974V193.099H353.375V159.512Z" fill="#C5DFFF"/>
<path d="M353.367 193.098H383.585V159.511H353.367V193.098Z" fill="#4174BA"/>
<path d="M300.533 163.549H196.164V189.06H300.533V163.549Z" fill="white"/>
<path d="M263.321 174.41H202.745V178.21H263.321V174.41Z" fill="#C5DFFF"/>
<path d="M263.321 168.111H202.745V171.911H263.321V168.111Z" fill="#C5DFFF"/>
<path d="M263.321 180.699H202.745V184.499H263.321V180.699Z" fill="#C5DFFF"/>
<path d="M312.27 180.7C314.653 180.7 316.584 178.732 316.584 176.305C316.584 173.878 314.653 171.91 312.27 171.91C309.887 171.91 307.955 173.878 307.955 176.305C307.955 178.732 309.887 180.7 312.27 180.7Z" fill="#EDEEEF"/>
<path d="M324.676 180.7C327.059 180.7 328.991 178.732 328.991 176.305C328.991 173.878 327.059 171.91 324.676 171.91C322.293 171.91 320.361 173.878 320.361 176.305C320.361 178.732 322.293 180.7 324.676 180.7Z" fill="white"/>
<path d="M337.083 180.7C339.466 180.7 341.397 178.732 341.397 176.305C341.397 173.878 339.466 171.91 337.083 171.91C334.7 171.91 332.768 173.878 332.768 176.305C332.768 178.732 334.7 180.7 337.083 180.7Z" fill="#EDEEEF"/>
<path d="M294.793 168.111H267.363V184.508H294.793V168.111Z" fill="#C5DFFF"/>
<path d="M353.375 205.156H191.974V238.743H353.375V205.156Z" fill="#C5DFFF"/>
<path d="M353.367 238.742H383.585V205.155H353.367V238.742Z" fill="#4174BA"/>
<path d="M300.533 209.193H196.164V234.705H300.533V209.193Z" fill="white"/>
<path d="M263.321 220.045H202.745V223.845H263.321V220.045Z" fill="#C5DFFF"/>
<path d="M263.321 213.748H202.745V217.548H263.321V213.748Z" fill="#C5DFFF"/>
<path d="M263.321 226.344H202.745V230.143H263.321V226.344Z" fill="#C5DFFF"/>
<path d="M312.27 226.344C314.653 226.344 316.584 224.377 316.584 221.949C316.584 219.522 314.653 217.555 312.27 217.555C309.887 217.555 307.955 219.522 307.955 221.949C307.955 224.377 309.887 226.344 312.27 226.344Z" fill="#EDEEEF"/>
<path d="M324.676 226.344C327.059 226.344 328.991 224.377 328.991 221.949C328.991 219.522 327.059 217.555 324.676 217.555C322.293 217.555 320.361 219.522 320.361 221.949C320.361 224.377 322.293 226.344 324.676 226.344Z" fill="white"/>
<path d="M337.083 226.344C339.466 226.344 341.397 224.377 341.397 221.949C341.397 219.522 339.466 217.555 337.083 217.555C334.7 217.555 332.768 219.522 332.768 221.949C332.768 224.377 334.7 226.344 337.083 226.344Z" fill="#EDEEEF"/>
<path d="M294.793 213.748H267.363V230.145H294.793V213.748Z" fill="#C5DFFF"/>
<path d="M353.375 250.801H191.974V284.388H353.375V250.801Z" fill="#C5DFFF"/>
<path d="M353.367 284.379H383.585V250.792H353.367V284.379Z" fill="#4174BA"/>
<path d="M300.533 254.838H196.164V280.349H300.533V254.838Z" fill="white"/>
<path d="M263.321 265.691H202.745V269.491H263.321V265.691Z" fill="#C5DFFF"/>
<path d="M263.321 259.393H202.745V263.192H263.321V259.393Z" fill="#C5DFFF"/>
<path d="M263.321 271.988H202.745V275.788H263.321V271.988Z" fill="#C5DFFF"/>
<path d="M312.27 271.989C314.653 271.989 316.584 270.021 316.584 267.594C316.584 265.167 314.653 263.199 312.27 263.199C309.887 263.199 307.955 265.167 307.955 267.594C307.955 270.021 309.887 271.989 312.27 271.989Z" fill="#EDEEEF"/>
<path d="M324.676 271.989C327.059 271.989 328.991 270.021 328.991 267.594C328.991 265.167 327.059 263.199 324.676 263.199C322.293 263.199 320.361 265.167 320.361 267.594C320.361 270.021 322.293 271.989 324.676 271.989Z" fill="white"/>
<path d="M337.083 271.989C339.466 271.989 341.397 270.021 341.397 267.594C341.397 265.167 339.466 263.199 337.083 263.199C334.7 263.199 332.768 265.167 332.768 267.594C332.768 270.021 334.7 271.989 337.083 271.989Z" fill="#EDEEEF"/>
<path d="M294.793 259.393H267.363V275.789H294.793V259.393Z" fill="#C5DFFF"/>
<path d="M353.375 296.445H191.974V330.032H353.375V296.445Z" fill="#C5DFFF"/>
<path d="M353.367 330.023H383.585V296.437H353.367V330.023Z" fill="#4174BA"/>
<path d="M300.533 300.482H196.164V325.994H300.533V300.482Z" fill="white"/>
<path d="M263.321 311.336H202.745V315.136H263.321V311.336Z" fill="#C5DFFF"/>
<path d="M263.321 305.037H202.745V308.837H263.321V305.037Z" fill="#C5DFFF"/>
<path d="M263.321 317.633H202.745V321.433H263.321V317.633Z" fill="#C5DFFF"/>
<path d="M312.27 317.633C314.653 317.633 316.584 315.666 316.584 313.238C316.584 310.811 314.653 308.844 312.27 308.844C309.887 308.844 307.955 310.811 307.955 313.238C307.955 315.666 309.887 317.633 312.27 317.633Z" fill="#EDEEEF"/>
<path d="M324.676 317.633C327.059 317.633 328.991 315.666 328.991 313.238C328.991 310.811 327.059 308.844 324.676 308.844C322.293 308.844 320.361 310.811 320.361 313.238C320.361 315.666 322.293 317.633 324.676 317.633Z" fill="white"/>
<path d="M337.083 317.633C339.466 317.633 341.397 315.666 341.397 313.238C341.397 310.811 339.466 308.844 337.083 308.844C334.7 308.844 332.768 310.811 332.768 313.238C332.768 315.666 334.7 317.633 337.083 317.633Z" fill="#EDEEEF"/>
<path d="M294.793 305.037H267.363V321.434H294.793V305.037Z" fill="#C5DFFF"/>
<path d="M353.375 342.082H191.974V375.669H353.375V342.082Z" fill="#C5DFFF"/>
<path d="M353.367 375.678H383.585V342.091H353.367V375.678Z" fill="#4174BA"/>
<path d="M300.533 346.127H196.164V371.638H300.533V346.127Z" fill="white"/>
<path d="M263.321 356.98H202.745V360.78H263.321V356.98Z" fill="#C5DFFF"/>
<path d="M263.321 350.682H202.745V354.481H263.321V350.682Z" fill="#C5DFFF"/>
<path d="M263.321 363.277H202.745V367.077H263.321V363.277Z" fill="#C5DFFF"/>
<path d="M312.27 363.27C314.653 363.27 316.584 361.302 316.584 358.875C316.584 356.448 314.653 354.48 312.27 354.48C309.887 354.48 307.955 356.448 307.955 358.875C307.955 361.302 309.887 363.27 312.27 363.27Z" fill="#EDEEEF"/>
<path d="M324.676 363.27C327.059 363.27 328.991 361.302 328.991 358.875C328.991 356.448 327.059 354.48 324.676 354.48C322.293 354.48 320.361 356.448 320.361 358.875C320.361 361.302 322.293 363.27 324.676 363.27Z" fill="white"/>
<path d="M337.083 363.27C339.466 363.27 341.397 361.302 341.397 358.875C341.397 356.448 339.466 354.48 337.083 354.48C334.7 354.48 332.768 356.448 332.768 358.875C332.768 361.302 334.7 363.27 337.083 363.27Z" fill="#EDEEEF"/>
<path d="M294.793 350.682H267.363V367.078H294.793V350.682Z" fill="#C5DFFF"/>
<path d="M364.801 165.223H369.045C370.385 165.223 371.475 166.333 371.475 167.698V170.363C371.475 171.727 370.385 172.838 369.045 172.838H364.801V165.223Z" fill="#024473"/>
<path d="M364.801 179.764H369.045C370.385 179.764 371.475 180.874 371.475 182.239V184.904C371.475 186.269 370.385 187.379 369.045 187.379H364.801V179.756V179.764Z" fill="#024473"/>
<path d="M364.801 210.867H369.045C370.385 210.867 371.475 211.978 371.475 213.342V216.008C371.475 217.372 370.385 218.483 369.045 218.483H364.801V210.859V210.867Z" fill="#024473"/>
<path d="M364.801 225.408H369.045C370.385 225.408 371.475 226.519 371.475 227.883V230.549C371.475 231.913 370.385 233.024 369.045 233.024H364.801V225.4V225.408Z" fill="#024473"/>
<path d="M364.801 256.512H369.045C370.385 256.512 371.475 257.622 371.475 258.987V261.652C371.475 263.017 370.385 264.127 369.045 264.127H364.801V256.504V256.512Z" fill="#024473"/>
<path d="M364.801 271.053H369.045C370.385 271.053 371.475 272.163 371.475 273.528V276.193C371.475 277.558 370.385 278.668 369.045 278.668H364.801V271.045V271.053Z" fill="#024473"/>
<path d="M364.801 302.149H369.045C370.385 302.149 371.475 303.259 371.475 304.624V307.289C371.475 308.653 370.385 309.764 369.045 309.764H364.801V302.141V302.149Z" fill="#024473"/>
<path d="M364.801 316.697H369.045C370.385 316.697 371.475 317.808 371.475 319.172V321.838C371.475 323.202 370.385 324.313 369.045 324.313H364.801V316.689V316.697Z" fill="#024473"/>
<path d="M364.801 347.793H369.045C370.385 347.793 371.475 348.904 371.475 350.268V352.933C371.475 354.298 370.385 355.408 369.045 355.408H364.801V347.785V347.793Z" fill="#024473"/>
<path d="M364.801 362.342H369.045C370.385 362.342 371.475 363.452 371.475 364.817V367.482C371.475 368.847 370.385 369.957 369.045 369.957H364.801V362.334V362.342Z" fill="#024473"/>
<path d="M353.375 387.727H191.974V421.313H353.375V387.727Z" fill="#C5DFFF"/>
<path d="M353.367 421.322H383.585V387.735H353.367V421.322Z" fill="#4174BA"/>
<path d="M300.533 391.771H196.164V417.283H300.533V391.771Z" fill="white"/>
<path d="M263.321 402.625H202.745V406.425H263.321V402.625Z" fill="#C5DFFF"/>
<path d="M263.321 396.326H202.745V400.126H263.321V396.326Z" fill="#C5DFFF"/>
<path d="M263.321 408.922H202.745V412.722H263.321V408.922Z" fill="#C5DFFF"/>
<path d="M312.27 408.914C314.653 408.914 316.584 406.947 316.584 404.52C316.584 402.093 314.653 400.125 312.27 400.125C309.887 400.125 307.955 402.093 307.955 404.52C307.955 406.947 309.887 408.914 312.27 408.914Z" fill="#EDEEEF"/>
<path d="M324.676 408.914C327.059 408.914 328.991 406.947 328.991 404.52C328.991 402.093 327.059 400.125 324.676 400.125C322.293 400.125 320.361 402.093 320.361 404.52C320.361 406.947 322.293 408.914 324.676 408.914Z" fill="white"/>
<path d="M337.083 408.914C339.466 408.914 341.397 406.947 341.397 404.52C341.397 402.093 339.466 400.125 337.083 400.125C334.7 400.125 332.768 402.093 332.768 404.52C332.768 406.947 334.7 408.914 337.083 408.914Z" fill="#EDEEEF"/>
<path d="M294.793 396.326H267.363V412.723H294.793V396.326Z" fill="#C5DFFF"/>
<path d="M364.801 393.438H369.045C370.385 393.438 371.475 394.548 371.475 395.913V398.578C371.475 399.942 370.385 401.053 369.045 401.053H364.801V393.43V393.438Z" fill="#024473"/>
<path d="M364.801 407.979H369.045C370.385 407.979 371.475 409.089 371.475 410.454V413.119C371.475 414.483 370.385 415.594 369.045 415.594H364.801V407.971V407.979Z" fill="#024473"/>
<path fill-rule="evenodd" clip-rule="evenodd" d="M376.514 169.665H368.142V168.396H376.514C378.723 168.396 380.512 170.222 380.512 172.466V180.145C380.512 182.389 378.723 184.214 376.514 184.214H368.142V182.945H376.514C378.028 182.945 379.261 181.692 379.261 180.145V172.466C379.261 170.918 378.028 169.665 376.514 169.665Z" fill="#024473"/>
<path fill-rule="evenodd" clip-rule="evenodd" d="M388.259 176.939H379.887V175.67H388.259C390.468 175.67 392.256 177.495 392.256 179.739V218.49C392.256 220.734 390.468 222.56 388.259 222.56H379.887V221.291H388.259C389.773 221.291 391.006 220.038 391.006 218.49V179.739C391.006 178.192 389.773 176.939 388.259 176.939Z" fill="#024473"/>
<path fill-rule="evenodd" clip-rule="evenodd" d="M388.259 222.583H379.887V221.314H388.259C390.468 221.314 392.256 223.14 392.256 225.384V263.786C392.256 266.03 390.468 267.855 388.259 267.855H379.887V266.586H388.259C389.773 266.586 391.006 265.333 391.006 263.786V225.384C391.006 223.836 389.773 222.583 388.259 222.583Z" fill="#024473"/>
<path fill-rule="evenodd" clip-rule="evenodd" d="M388.259 267.847H379.887V266.578H388.259C390.468 266.578 392.256 268.403 392.256 270.647V309.049C392.256 311.294 390.468 313.119 388.259 313.119H379.887V311.85H388.259C389.773 311.85 391.006 310.597 391.006 309.049V270.647C391.006 269.1 389.773 267.847 388.259 267.847Z" fill="#024473"/>
<path fill-rule="evenodd" clip-rule="evenodd" d="M388.259 313.12H379.887V311.852H388.259C390.468 311.852 392.256 313.677 392.256 315.921V354.323C392.256 356.567 390.468 358.392 388.259 358.392H379.887V357.123H388.259C389.773 357.123 391.006 355.871 391.006 354.323V315.921C391.006 314.373 389.773 313.12 388.259 313.12Z" fill="#024473"/>
<path fill-rule="evenodd" clip-rule="evenodd" d="M388.259 358.384H379.887V357.115H388.259C390.468 357.115 392.256 358.94 392.256 361.185V399.587C392.256 401.831 390.468 403.656 388.259 403.656H379.887V402.387H388.259C389.773 402.387 391.006 401.134 391.006 399.587V361.185C391.006 359.637 389.773 358.384 388.259 358.384Z" fill="#024473"/>
<path fill-rule="evenodd" clip-rule="evenodd" d="M376.514 215.31H368.142V214.041H376.514C378.723 214.041 380.512 215.866 380.512 218.11V225.789C380.512 228.033 378.723 229.858 376.514 229.858H368.142V228.59H376.514C378.028 228.59 379.261 227.337 379.261 225.789V218.11C379.261 216.563 378.028 215.31 376.514 215.31Z" fill="#024473"/>
<path fill-rule="evenodd" clip-rule="evenodd" d="M376.514 260.954H368.142V259.686H376.514C378.723 259.686 380.512 261.511 380.512 263.755V271.434C380.512 273.678 378.723 275.503 376.514 275.503H368.142V274.234H376.514C378.028 274.234 379.261 272.981 379.261 271.434V263.755C379.261 262.207 378.028 260.954 376.514 260.954Z" fill="#024473"/>
<path fill-rule="evenodd" clip-rule="evenodd" d="M376.514 306.599H368.142V305.33H376.514C378.723 305.33 380.512 307.155 380.512 309.399V317.078C380.512 319.322 378.723 321.148 376.514 321.148H368.142V319.879H376.514C378.028 319.879 379.261 318.626 379.261 317.078V309.399C379.261 307.852 378.028 306.599 376.514 306.599Z" fill="#024473"/>
<path fill-rule="evenodd" clip-rule="evenodd" d="M376.514 352.244H368.142V350.975H376.514C378.723 350.975 380.512 352.8 380.512 355.044V362.723C380.512 364.967 378.723 366.792 376.514 366.792H368.142V365.523H376.514C378.028 365.523 379.261 364.27 379.261 362.723V355.044C379.261 353.496 378.028 352.244 376.514 352.244Z" fill="#024473"/>
<path fill-rule="evenodd" clip-rule="evenodd" d="M376.514 397.888H368.142V396.619H376.514C378.723 396.619 380.512 398.444 380.512 400.688V408.367C380.512 410.611 378.723 412.437 376.514 412.437H368.142V411.168H376.514C378.028 411.168 379.261 409.915 379.261 408.367V400.688C379.261 399.141 378.028 397.888 376.514 397.888Z" fill="#024473"/>
<g clip-path="url(#clip0_167_3657)">
<g filter="url(#filter0_d_167_3657)">
<path d="M194.74 91.0269H233.752C238.276 91.0269 241.942 87.3121 241.942 82.7276C241.942 78.1431 238.276 74.4282 233.752 74.4282H228.182C228.182 74.4282 230.245 55.4648 210.426 55.4648C190.608 55.4648 192.534 77.3574 192.534 77.3574H189.644C185.918 77.3574 182.9 80.4163 182.9 84.1922C182.9 87.9681 185.918 91.0269 189.644 91.0269H194.732H194.74Z" fill="#4174BA"/>
</g>
<path fill-rule="evenodd" clip-rule="evenodd" d="M213.181 91.0273H214.431V142.844H314.751V160.786H313.501V144.112H213.181V91.0273Z" fill="#64ABFF"/>
<path d="M127.275 61.5977H79.4337C73.9173 61.5977 69.4453 66.1296 69.4453 71.7201V96.6639C69.4453 102.254 73.9173 106.786 79.4337 106.786H127.275C132.792 106.786 137.264 102.254 137.264 96.6639V71.7201C137.264 66.1296 132.792 61.5977 127.275 61.5977Z" fill="#4174BA"/>
<path d="M115.21 125.223H71.5679V130.89H115.21V125.223Z" fill="#C5DFFF"/>
<path d="M93.3887 136.604H71.5679V142.271H93.3887V136.604Z" fill="#C5DFFF"/>
<path d="M104.604 147.984H71.5679V153.652H104.604V147.984Z" fill="#C5DFFF"/>
<path d="M122.153 88.3836V90.9951H120.805C119.662 90.9951 118.769 90.7108 118.127 90.1424C117.497 89.562 117.182 88.6087 117.182 87.2822V83.6404H115.869V81.0822H117.182V78.6484H120.175V81.0822H122.136V83.6404H120.175V87.3355C120.175 87.7263 120.251 87.9987 120.403 88.1527C120.566 88.3067 120.834 88.3836 121.208 88.3836H122.153Z" fill="white"/>
<path d="M110.466 80.959C111.703 80.959 112.689 81.2728 113.424 81.9005C114.171 82.5282 114.638 83.3573 114.824 84.3876H112.024C111.942 83.9849 111.755 83.6711 111.464 83.4461C111.184 83.2092 110.828 83.0908 110.396 83.0908C110.057 83.0908 109.801 83.1678 109.626 83.3217C109.451 83.4638 109.363 83.6711 109.363 83.9435C109.363 84.2514 109.521 84.4824 109.836 84.6363C110.162 84.7903 110.67 84.9443 111.359 85.0982C112.105 85.2759 112.718 85.4594 113.196 85.6489C113.675 85.8266 114.089 86.1227 114.439 86.5372C114.789 86.9517 114.964 87.5083 114.964 88.2071C114.964 88.7756 114.813 89.2789 114.509 89.7171C114.206 90.1553 113.768 90.4988 113.196 90.7475C112.625 90.9962 111.948 91.1205 111.166 91.1205C109.847 91.1205 108.791 90.8245 107.998 90.2323C107.204 89.6401 106.72 88.7933 106.545 87.6919H109.433C109.48 88.1183 109.655 88.444 109.958 88.669C110.273 88.894 110.676 89.0065 111.166 89.0065C111.504 89.0065 111.761 88.9295 111.936 88.7756C112.111 88.6098 112.199 88.3966 112.199 88.136C112.199 87.7926 112.035 87.5498 111.709 87.4077C111.394 87.2537 110.874 87.0938 110.151 86.928C109.427 86.774 108.832 86.6082 108.365 86.4306C107.899 86.2529 107.496 85.9687 107.158 85.5779C106.819 85.1752 106.65 84.6304 106.65 83.9435C106.65 83.0552 106.983 82.3387 107.648 81.7939C108.313 81.2373 109.252 80.959 110.466 80.959Z" fill="white"/>
<path d="M100.301 80.959C101.27 80.959 102.133 81.1662 102.892 81.5808C103.662 81.9834 104.263 82.5697 104.695 83.3395C105.138 84.1093 105.36 85.0094 105.36 86.0398C105.36 87.0701 105.138 87.9702 104.695 88.74C104.263 89.5098 103.662 90.102 102.892 90.5165C102.133 90.9192 101.27 91.1205 100.301 91.1205C99.3327 91.1205 98.4634 90.9192 97.6932 90.5165C96.923 90.102 96.3162 89.5098 95.8727 88.74C95.441 87.9702 95.2251 87.0701 95.2251 86.0398C95.2251 85.0094 95.441 84.1093 95.8727 83.3395C96.3162 82.5697 96.923 81.9834 97.6932 81.5808C98.4634 81.1662 99.3327 80.959 100.301 80.959ZM100.301 83.5882C99.7295 83.5882 99.2452 83.8014 98.8484 84.2277C98.4634 84.6423 98.2708 85.2463 98.2708 86.0398C98.2708 86.8333 98.4634 87.4373 98.8484 87.8518C99.2452 88.2663 99.7295 88.4736 100.301 88.4736C100.873 88.4736 101.352 88.2663 101.737 87.8518C102.122 87.4373 102.314 86.8333 102.314 86.0398C102.314 85.2463 102.122 84.6423 101.737 84.2277C101.352 83.8014 100.873 83.5882 100.301 83.5882Z" fill="white"/>
<path d="M93.6759 78.4355V90.9954H90.6652V85.7547H85.9742V90.9954H82.981V78.4355H85.9742V83.3031H90.6652V78.4355H93.6759Z" fill="white"/>
</g>
<g filter="url(#filter1_d_167_3657)">
<path d="M334.028 63.2422C321.597 63.2422 311.514 73.4233 311.514 85.9757C311.514 98.5281 321.597 108.729 334.028 108.729C346.459 108.729 356.562 98.5382 356.562 85.9757C356.562 73.4132 346.469 63.2422 334.028 63.2422ZM334.028 97.3072C327.843 97.3072 322.806 92.2418 322.806 85.9757C322.806 79.7096 327.843 74.6443 334.028 74.6443C340.214 74.6443 345.25 79.7298 345.25 85.9757C345.25 92.2216 340.234 97.3072 334.028 97.3072Z" fill="#4174BA"/>
<path d="M337.965 52.2734H330.111C328.201 52.2734 326.653 53.8365 326.653 55.7647V69.871C326.653 71.7991 328.201 73.3622 330.111 73.3622H337.965C339.875 73.3622 341.423 71.7991 341.423 69.871V55.7647C341.423 53.8365 339.875 52.2734 337.965 52.2734Z" fill="#4174BA"/>
<path d="M313.207 59.3373L307.653 64.9454C306.303 66.3088 306.303 68.5193 307.653 69.8828L317.532 79.8574C318.882 81.2208 321.071 81.2208 322.421 79.8574L327.975 74.2493C329.326 72.8859 329.326 70.6754 327.975 69.312L318.097 59.3373C316.747 57.9739 314.558 57.9739 313.207 59.3373Z" fill="#4174BA"/>
<path d="M300.652 82.0094V89.9404C300.652 91.8686 302.2 93.4316 304.109 93.4316H318.079C319.989 93.4316 321.537 91.8686 321.537 89.9404V82.0094C321.537 80.0812 319.989 78.5181 318.079 78.5181H304.109C302.2 78.5181 300.652 80.0812 300.652 82.0094Z" fill="#4174BA"/>
<path d="M307.65 107.007L313.204 112.615C314.554 113.979 316.744 113.979 318.094 112.615L327.972 102.641C329.322 101.277 329.322 99.0667 327.972 97.7033L322.418 92.0952C321.068 90.7318 318.879 90.7318 317.528 92.0952L307.65 102.07C306.3 103.433 306.3 105.644 307.65 107.007Z" fill="#4174BA"/>
<path d="M330.111 119.688H337.965C339.875 119.688 341.423 118.124 341.423 116.196V102.09C341.423 100.162 339.875 98.5987 337.965 98.5987H330.111C328.201 98.5987 326.653 100.162 326.653 102.09V116.196C326.653 118.124 328.201 119.688 330.111 119.688Z" fill="#4174BA"/>
<path d="M354.864 112.624L360.417 107.016C361.768 105.652 361.768 103.442 360.417 102.078L350.539 92.1035C349.189 90.7401 347 90.7401 345.649 92.1035L340.095 97.7116C338.745 99.075 338.745 101.286 340.095 102.649L349.974 112.624C351.324 113.987 353.513 113.987 354.864 112.624Z" fill="#4174BA"/>
<path d="M367.424 89.9516V82.0206C367.424 80.0924 365.876 78.5293 363.967 78.5293H349.997C348.087 78.5293 346.539 80.0924 346.539 82.0206V89.9516C346.539 91.8797 348.087 93.4428 349.997 93.4428H363.967C365.876 93.4428 367.424 91.8797 367.424 89.9516Z" fill="#4174BA"/>
<path d="M360.422 64.9439L354.868 59.3359C353.517 57.9725 351.328 57.9725 349.978 59.3359L340.1 69.3105C338.749 70.6739 338.749 72.8845 340.1 74.2479L345.654 79.856C347.004 81.2194 349.193 81.2194 350.543 79.856L360.422 69.8813C361.772 68.5179 361.772 66.3074 360.422 64.9439Z" fill="#4174BA"/>
<path d="M394.176 39.3887C388.07 39.3887 383.114 44.3935 383.114 50.5587C383.114 56.7239 388.07 61.7388 394.176 61.7388C400.282 61.7388 405.248 56.734 405.248 50.5587C405.248 44.3834 400.292 39.3887 394.176 39.3887ZM394.176 56.1285C391.138 56.1285 388.66 53.6362 388.66 50.5587C388.66 47.4811 391.128 44.9888 394.176 44.9888C397.224 44.9888 399.692 47.4811 399.692 50.5587C399.692 53.6362 397.224 56.1285 394.176 56.1285Z" fill="#4174BA"/>
<path d="M394.346 34H394.006C392.096 34 390.548 35.5631 390.548 37.4913V40.8715C390.548 42.7997 392.096 44.3628 394.006 44.3628H394.346C396.255 44.3628 397.803 42.7997 397.803 40.8715V37.4913C397.803 35.5631 396.255 34 394.346 34Z" fill="#4174BA"/>
<path d="M382.46 38.9742L382.7 38.7316C384.049 37.3686 386.24 37.3682 387.589 38.7307L389.957 41.1205C391.307 42.4831 391.307 44.6949 389.958 46.0579L389.718 46.3005C388.368 47.6636 386.178 47.6639 384.828 46.3014L382.46 43.9116C381.111 42.5491 381.11 40.3373 382.46 38.9742Z" fill="#4174BA"/>
<path d="M377.777 50.3961V50.7392C377.777 52.6674 379.325 54.2305 381.235 54.2305H384.583C386.492 54.2305 388.04 52.6674 388.04 50.7392V50.3961C388.04 48.468 386.492 46.9049 384.583 46.9049H381.235C379.325 46.9049 377.777 48.468 377.777 50.3961Z" fill="#4174BA"/>
<path d="M382.453 62.1481L382.693 62.3907C384.044 63.7541 386.233 63.7541 387.583 62.3907L389.95 60.0005C391.3 58.6371 391.3 56.4265 389.95 55.0631L389.71 54.8205C388.36 53.4571 386.17 53.4571 384.82 54.8205L382.453 57.2107C381.103 58.5741 381.103 60.7847 382.453 62.1481Z" fill="#4174BA"/>
<path d="M394.006 67.1172H394.346C396.255 67.1172 397.803 65.5541 397.803 63.6259V60.2457C397.803 58.3175 396.255 56.7544 394.346 56.7544H394.006C392.096 56.7544 390.548 58.3175 390.548 60.2457V63.6259C390.548 65.5541 392.096 67.1172 394.006 67.1172Z" fill="#4174BA"/>
<path d="M405.655 62.3929L405.895 62.1503C407.245 60.7869 407.245 58.5764 405.895 57.213L403.528 54.8227C402.178 53.4593 399.988 53.4593 398.638 54.8227L398.398 55.0653C397.048 56.4287 397.048 58.6393 398.398 60.0027L400.765 62.3929C402.115 63.7563 404.304 63.7563 405.655 62.3929Z" fill="#4174BA"/>
<path d="M410.574 50.7289V50.3858C410.574 48.4576 409.026 46.8945 407.117 46.8945H403.769C401.859 46.8945 400.312 48.4576 400.312 50.3858V50.7289C400.312 52.657 401.859 54.2201 403.769 54.2201H407.117C409.026 54.2201 410.574 52.657 410.574 50.7289Z" fill="#4174BA"/>
<path d="M405.647 38.7187L405.888 38.9613C407.237 40.3241 407.237 42.5359 405.888 43.8987L403.521 46.2889C402.171 47.6516 399.981 47.6516 398.631 46.2889L398.391 46.0463C397.041 44.6835 397.041 42.4717 398.391 41.1089L400.758 38.7187C402.107 37.3559 404.298 37.3559 405.647 38.7187Z" fill="#4174BA"/>
<path fill-rule="evenodd" clip-rule="evenodd" d="M402.922 91.8888C402.922 89.5124 404.83 87.5898 407.176 87.5898H411.233C413.579 87.5898 415.487 89.5124 415.487 91.8888V96.9368C415.769 97.0472 416.046 97.1639 416.32 97.2869L419.854 93.718C421.514 92.0419 424.205 92.0419 425.865 93.718L428.733 96.6139C430.395 98.2918 430.395 101.015 428.733 102.693L425.2 106.261C425.321 106.539 425.437 106.82 425.546 107.105H430.211L430.221 107.094H430.549C432.895 107.094 434.804 109.017 434.804 111.393V115.49C434.804 117.866 432.895 119.789 430.549 119.789H425.551C425.442 120.074 425.325 120.353 425.203 120.626L428.733 124.191C430.395 125.869 430.395 128.592 428.733 130.27L425.865 133.165C424.205 134.842 421.514 134.842 419.854 133.165L416.32 129.597C416.046 129.72 415.769 129.836 415.487 129.947V134.995C415.487 137.371 413.579 139.294 411.233 139.294H407.176C404.83 139.294 402.922 137.371 402.922 134.995V129.949C402.64 129.839 402.362 129.721 402.088 129.597L398.555 133.165C396.895 134.842 394.204 134.842 392.544 133.165L389.676 130.27C388.014 128.592 388.014 125.869 389.676 124.191L393.206 120.626C393.084 120.353 392.967 120.074 392.858 119.789H387.86C385.514 119.789 383.605 117.866 383.605 115.49V111.393C383.605 109.017 385.514 107.094 387.86 107.094H392.863C392.971 106.812 393.086 106.533 393.207 106.259L389.676 102.693C388.014 101.015 388.014 98.2918 389.676 96.6139L392.544 93.718C394.204 92.0419 396.895 92.0419 398.555 93.718L402.088 97.2857C402.36 97.162 402.638 97.0432 402.922 96.9324V91.8888ZM407.176 89.2052C405.704 89.2052 404.515 90.4107 404.515 91.8888V98.079L403.973 98.2643C403.394 98.4625 402.826 98.7104 402.265 98.9837L401.757 99.2314L397.43 94.8626C396.392 93.8143 394.706 93.8143 393.668 94.8626L390.8 97.7585C389.764 98.805 389.764 100.502 390.8 101.548L395.13 105.92L394.882 106.438C394.615 106.996 394.377 107.575 394.166 108.173L393.978 108.71H387.86C386.388 108.71 385.199 109.915 385.199 111.393V115.49C385.199 116.968 386.388 118.174 387.86 118.174H393.986L394.17 118.721C394.366 119.306 394.612 119.879 394.882 120.445L395.13 120.963L390.8 125.335C389.764 126.382 389.764 128.078 390.8 129.125L393.668 132.021C394.706 133.069 396.392 133.069 397.43 132.021L401.757 127.652L402.265 127.9C402.823 128.172 403.403 128.421 403.977 128.62L404.515 128.808V134.995C404.515 136.473 405.704 137.678 407.176 137.678H411.233C412.705 137.678 413.894 136.473 413.894 134.995V128.813L414.425 128.623C415.018 128.41 415.591 128.169 416.144 127.9L416.652 127.652L420.979 132.021C422.017 133.069 423.703 133.069 424.741 132.021L427.609 129.125C428.645 128.078 428.645 126.382 427.609 125.335L423.279 120.963L423.527 120.445C423.798 119.879 424.043 119.306 424.239 118.721L424.423 118.174H430.549C432.021 118.174 433.21 116.968 433.21 115.49V111.393C433.21 109.994 432.144 108.839 430.782 108.72H424.431L424.243 108.183C424.033 107.585 423.793 107.005 423.525 106.433L423.282 105.917L427.609 101.548C428.645 100.502 428.645 98.805 427.609 97.7585L424.741 94.8626C423.703 93.8143 422.017 93.8143 420.979 94.8626L416.652 99.2314L416.144 98.9837C415.591 98.7141 415.018 98.473 414.425 98.2605L413.894 98.0702V91.8888C413.894 90.4107 412.705 89.2052 411.233 89.2052H407.176ZM409.195 105.844C405.034 105.844 401.657 109.25 401.657 113.452C401.657 117.654 405.025 121.059 409.195 121.059C413.364 121.059 416.732 117.654 416.732 113.452C416.732 109.259 413.354 105.844 409.195 105.844ZM400.064 113.452C400.064 108.35 404.161 104.229 409.195 104.229C414.228 104.229 418.325 108.361 418.325 113.452C418.325 118.553 414.238 122.675 409.195 122.675C404.151 122.675 400.064 118.553 400.064 113.452Z" fill="#4174BA"/>
</g>
<defs>
<filter id="filter0_d_167_3657" x="167.9" y="44.4648" width="89.042" height="65.5625" filterUnits="userSpaceOnUse" color-interpolation-filters="sRGB">
<feFlood flood-opacity="0" result="BackgroundImageFix"/>
<feColorMatrix in="SourceAlpha" type="matrix" values="0 0 0 0 0 0 0 0 0 0 0 0 0 0 0 0 0 0 127 0" result="hardAlpha"/>
<feOffset dy="4"/>
<feGaussianBlur stdDeviation="7.5"/>
<feComposite in2="hardAlpha" operator="out"/>
<feColorMatrix type="matrix" values="0 0 0 0 0.150199 0 0 0 0 0.268048 0 0 0 0 0.429801 0 0 0 0.25 0"/>
<feBlend mode="normal" in2="BackgroundImageFix" result="effect1_dropShadow_167_3657"/>
<feBlend mode="normal" in="SourceGraphic" in2="effect1_dropShadow_167_3657" result="shape"/>
</filter>
<filter id="filter1_d_167_3657" x="296.652" y="34" width="142.152" height="113.293" filterUnits="userSpaceOnUse" color-interpolation-filters="sRGB">
<feFlood flood-opacity="0" result="BackgroundImageFix"/>
<feColorMatrix in="SourceAlpha" type="matrix" values="0 0 0 0 0 0 0 0 0 0 0 0 0 0 0 0 0 0 127 0" result="hardAlpha"/>
<feOffset dy="4"/>
<feGaussianBlur stdDeviation="2"/>
<feComposite in2="hardAlpha" operator="out"/>
<feColorMatrix type="matrix" values="0 0 0 0 0.201992 0 0 0 0 0.360478 0 0 0 0 0.578008 0 0 0 0.25 0"/>
<feBlend mode="normal" in2="BackgroundImageFix" result="effect1_dropShadow_167_3657"/>
<feBlend mode="normal" in="SourceGraphic" in2="effect1_dropShadow_167_3657" result="shape"/>
</filter>
<clipPath id="clip0_167_3657">
<rect width="245.057" height="105.321" fill="white" transform="translate(69.4453 55.4648)"/>
</clipPath>
</defs>
</svg>
