<svg width="628" height="203" viewBox="0 0 628 203" fill="none" xmlns="http://www.w3.org/2000/svg">
<path d="M619.805 0.556152H8.259C3.87401 0.556152 0.319275 4.11023 0.319275 8.4944V194.078C0.319275 198.462 3.87401 202.016 8.259 202.016H619.805C624.19 202.016 627.745 198.462 627.745 194.078V8.4944C627.745 4.11023 624.19 0.556152 619.805 0.556152Z" fill="white"/>
<path d="M619.805 1.3501H8.25897C4.31248 1.3501 1.11322 4.54877 1.11322 8.49452V194.078C1.11322 198.024 4.31248 201.223 8.25897 201.223H619.805C623.751 201.223 626.951 198.024 626.951 194.078V8.49452C626.951 4.54877 623.751 1.3501 619.805 1.3501Z" stroke="#E2E4EB"/>
<path d="M417.941 14.8054C419.56 14.8054 420.855 15.25 421.823 16.139C422.808 17.0281 423.3 18.2427 423.3 19.7827C423.3 21.3862 422.792 22.5929 421.776 23.4026C420.759 24.2123 419.41 24.6171 417.726 24.6171L417.631 26.4985H415.273L415.154 22.7595H415.94C417.48 22.7595 418.655 22.5531 419.465 22.1404C420.291 21.7276 420.704 20.9417 420.704 19.7827C420.704 18.9412 420.458 18.2823 419.965 17.8061C419.489 17.3298 418.822 17.0916 417.964 17.0916C417.107 17.0916 416.432 17.3218 415.94 17.7823C415.448 18.2427 415.201 18.8857 415.201 19.7113H412.653C412.653 18.7587 412.867 17.9093 413.296 17.1631C413.725 16.4169 414.336 15.8374 415.13 15.4246C415.94 15.0118 416.877 14.8054 417.941 14.8054ZM416.416 31.7615C415.924 31.7615 415.511 31.5948 415.178 31.2614C414.844 30.928 414.677 30.5152 414.677 30.023C414.677 29.5309 414.844 29.1181 415.178 28.7847C415.511 28.4513 415.924 28.2846 416.416 28.2846C416.893 28.2846 417.298 28.4513 417.631 28.7847C417.964 29.1181 418.131 29.5309 418.131 30.023C418.131 30.5152 417.964 30.928 417.631 31.2614C417.298 31.5948 416.893 31.7615 416.416 31.7615Z" fill="#424B66"/>
<path d="M399.732 15.0435V25.5934C399.732 26.8476 400.057 27.7923 400.708 28.4273C401.375 29.0624 402.296 29.3799 403.471 29.3799C404.662 29.3799 405.583 29.0624 406.234 28.4273C406.901 27.7923 407.235 26.8476 407.235 25.5934V15.0435H409.95V25.5457C409.95 26.8953 409.656 28.0384 409.069 28.9751C408.481 29.9118 407.695 30.6104 406.711 31.0708C405.726 31.5312 404.639 31.7614 403.448 31.7614C402.257 31.7614 401.169 31.5312 400.184 31.0708C399.216 30.6104 398.446 29.9118 397.874 28.9751C397.302 28.0384 397.016 26.8953 397.016 25.5457V15.0435H399.732Z" fill="#424B66"/>
<path d="M394.992 18.4729L386.941 37.7628H384.13L386.798 31.3805L381.629 18.4729H384.654L388.346 28.4751L392.181 18.4729H394.992Z" fill="#424B66"/>
<path d="M375.18 25.0457L381.231 31.5948H377.562L372.703 25.9507V31.5948H369.988V13.9719H372.703V24.2122L377.467 18.4729H381.231L375.18 25.0457Z" fill="#424B66"/>
<path d="M361.068 31.7614C359.957 31.7614 358.956 31.5709 358.067 31.1899C357.178 30.793 356.479 30.2373 355.971 29.5228C355.463 28.8084 355.209 27.9749 355.209 27.0223H358.115C358.178 27.7367 358.456 28.3241 358.949 28.7846C359.457 29.245 360.163 29.4752 361.068 29.4752C362.005 29.4752 362.736 29.2529 363.26 28.8084C363.784 28.348 364.046 27.7605 364.046 27.0461C364.046 26.4904 363.879 26.0379 363.546 25.6886C363.228 25.3393 362.823 25.0695 362.331 24.879C361.854 24.6884 361.188 24.482 360.33 24.2597C359.25 23.974 358.369 23.6882 357.686 23.4025C357.019 23.1008 356.448 22.6403 355.971 22.0212C355.495 21.402 355.257 20.5764 355.257 19.5444C355.257 18.5918 355.495 17.7583 355.971 17.0439C356.448 16.3295 357.114 15.7817 357.972 15.4007C358.829 15.0196 359.822 14.8291 360.949 14.8291C362.553 14.8291 363.863 15.234 364.879 16.0437C365.912 16.8375 366.483 17.933 366.594 19.3301H363.593C363.546 18.7268 363.26 18.2108 362.736 17.7822C362.212 17.3535 361.521 17.1392 360.664 17.1392C359.885 17.1392 359.25 17.3376 358.758 17.7345C358.266 18.1314 358.02 18.703 358.02 19.4492C358.02 19.9572 358.17 20.378 358.472 20.7114C358.79 21.0289 359.187 21.2829 359.663 21.4734C360.14 21.6639 360.791 21.8704 361.616 22.0926C362.712 22.3943 363.601 22.6959 364.284 22.9976C364.983 23.2992 365.57 23.7676 366.047 24.4026C366.539 25.0218 366.785 25.8554 366.785 26.9032C366.785 27.7447 366.555 28.5385 366.094 29.2847C365.65 30.0309 364.991 30.6342 364.117 31.0946C363.26 31.5391 362.244 31.7614 361.068 31.7614Z" fill="#424B66"/>
<path d="M340.746 18.2586C341.746 18.2586 342.636 18.4729 343.414 18.9015C344.208 19.3302 344.827 19.9653 345.272 20.8067C345.732 21.6482 345.962 22.6643 345.962 23.855V31.5948H343.271V24.2599C343.271 23.085 342.977 22.188 342.39 21.5688C341.802 20.9337 341 20.6162 339.984 20.6162C338.967 20.6162 338.158 20.9337 337.554 21.5688C336.967 22.188 336.673 23.085 336.673 24.2599V31.5948H333.958V13.9719H336.673V19.997C337.133 19.4414 337.713 19.0127 338.412 18.711C339.126 18.4094 339.904 18.2586 340.746 18.2586Z" fill="#424B66"/>
<path d="M328.263 20.6876V27.9511C328.263 28.4433 328.374 28.8005 328.597 29.0227C328.835 29.2291 329.232 29.3323 329.787 29.3323H331.455V31.5947H329.311C328.088 31.5947 327.151 31.309 326.5 30.7374C325.849 30.1659 325.524 29.2371 325.524 27.9511V20.6876H323.976V18.4728H325.524V15.2102H328.263V18.4728H331.455V20.6876H328.263Z" fill="#424B66"/>
<path d="M320.196 16.7343C319.704 16.7343 319.291 16.5676 318.958 16.2342C318.624 15.9008 318.457 15.488 318.457 14.9958C318.457 14.5036 318.624 14.0908 318.958 13.7574C319.291 13.424 319.704 13.2573 320.196 13.2573C320.673 13.2573 321.078 13.424 321.411 13.7574C321.745 14.0908 321.911 14.5036 321.911 14.9958C321.911 15.488 321.745 15.9008 321.411 16.2342C321.078 16.5676 320.673 16.7343 320.196 16.7343ZM321.53 18.4728V31.5947H318.815V18.4728H321.53Z" fill="#424B66"/>
<path d="M316.785 18.4729L312.712 31.5948H309.854L307.21 21.9022L304.566 31.5948H301.708L297.611 18.4729H300.374L303.113 29.0228L305.9 18.4729H308.735L311.402 28.9752L314.118 18.4729H316.785Z" fill="#424B66"/>
<path d="M284.976 25.0457L291.026 31.5948H287.358L282.499 25.9507V31.5948H279.783V13.9719H282.499V24.2122L287.262 18.4729H291.026L284.976 25.0457Z" fill="#424B66"/>
<path d="M273.357 20.378C273.754 19.7112 274.278 19.1953 274.929 18.8301C275.596 18.4491 276.382 18.2585 277.287 18.2585V21.0687H276.596C275.532 21.0687 274.722 21.3386 274.167 21.8784C273.627 22.4182 273.357 23.3549 273.357 24.6886V31.5948H270.641V18.4729H273.357V20.378Z" fill="#424B66"/>
<path d="M261.144 31.8091C259.905 31.8091 258.786 31.5313 257.785 30.9756C256.785 30.4041 255.999 29.6103 255.427 28.5942C254.856 27.5622 254.57 26.3715 254.57 25.022C254.57 23.6883 254.864 22.5055 255.451 21.4735C256.039 20.4416 256.841 19.6477 257.857 19.0921C258.873 18.5364 260.009 18.2585 261.263 18.2585C262.517 18.2585 263.653 18.5364 264.669 19.0921C265.685 19.6477 266.487 20.4416 267.075 21.4735C267.662 22.5055 267.956 23.6883 267.956 25.022C267.956 26.3556 267.654 27.5384 267.051 28.5703C266.448 29.6023 265.622 30.4041 264.574 30.9756C263.542 31.5313 262.398 31.8091 261.144 31.8091ZM261.144 29.4515C261.843 29.4515 262.494 29.2848 263.097 28.9514C263.716 28.618 264.217 28.1179 264.598 27.4511C264.979 26.7842 265.169 25.9745 265.169 25.022C265.169 24.0694 264.987 23.2676 264.621 22.6166C264.256 21.9498 263.772 21.4498 263.168 21.1163C262.565 20.7829 261.914 20.6162 261.215 20.6162C260.517 20.6162 259.866 20.7829 259.262 21.1163C258.675 21.4498 258.206 21.9498 257.857 22.6166C257.507 23.2676 257.333 24.0694 257.333 25.022C257.333 26.435 257.69 27.5305 258.405 28.3084C259.135 29.0705 260.048 29.4515 261.144 29.4515Z" fill="#424B66"/>
<path d="M253.422 18.4729L249.349 31.5948H246.49L243.846 21.9022L241.202 31.5948H238.344L234.247 18.4729H237.01L239.749 29.0228L242.536 18.4729H245.371L248.039 28.9752L250.754 18.4729H253.422Z" fill="#424B66"/>
<path d="M221.649 31.8091C220.616 31.8091 219.687 31.6266 218.862 31.2614C218.052 30.8804 217.409 30.3723 216.932 29.7373C216.456 29.0863 216.202 28.364 216.17 27.5701H218.981C219.028 28.1258 219.29 28.5941 219.767 28.9752C220.259 29.3403 220.87 29.5229 221.601 29.5229C222.363 29.5229 222.951 29.3801 223.364 29.0943C223.792 28.7926 224.007 28.4116 224.007 27.9512C224.007 27.459 223.768 27.0938 223.292 26.8557C222.831 26.6175 222.093 26.3556 221.077 26.0698C220.092 25.7999 219.29 25.538 218.671 25.2839C218.052 25.0299 217.512 24.6409 217.051 24.117C216.607 23.5931 216.384 22.9024 216.384 22.0451C216.384 21.3465 216.591 20.7115 217.004 20.1399C217.417 19.5525 218.004 19.0921 218.766 18.7587C219.544 18.4253 220.434 18.2585 221.434 18.2585C222.927 18.2585 224.126 18.6396 225.031 19.4017C225.952 20.1479 226.444 21.1719 226.508 22.4738H223.792C223.745 21.8863 223.506 21.418 223.078 21.0687C222.649 20.7194 222.069 20.5448 221.339 20.5448C220.624 20.5448 220.076 20.6797 219.695 20.9496C219.314 21.2195 219.124 21.5767 219.124 22.0213C219.124 22.3706 219.251 22.6643 219.505 22.9025C219.759 23.1406 220.068 23.3311 220.434 23.474C220.799 23.601 221.339 23.7677 222.053 23.9741C223.006 24.2281 223.784 24.4901 224.388 24.76C225.007 25.014 225.539 25.395 225.984 25.9031C226.428 26.4111 226.658 27.0859 226.674 27.9273C226.674 28.6735 226.468 29.3404 226.055 29.9278C225.642 30.5152 225.055 30.9756 224.292 31.309C223.546 31.6424 222.665 31.8091 221.649 31.8091Z" fill="#424B66"/>
<path d="M203.457 20.4019C203.918 19.7986 204.545 19.2905 205.339 18.8778C206.133 18.465 207.03 18.2585 208.03 18.2585C209.174 18.2585 210.214 18.5443 211.151 19.1159C212.103 19.6716 212.85 20.4574 213.39 21.4735C213.93 22.4896 214.199 23.6566 214.199 24.9743C214.199 26.2921 213.93 27.4749 213.39 28.5227C212.85 29.5547 212.103 30.3644 211.151 30.9518C210.214 31.5234 209.174 31.8091 208.03 31.8091C207.03 31.8091 206.141 31.6107 205.363 31.2138C204.584 30.801 203.949 30.293 203.457 29.6896V37.8343H200.742V18.4729H203.457V20.4019ZM211.436 24.9743C211.436 24.0694 211.246 23.2914 210.865 22.6405C210.5 21.9737 210.007 21.4735 209.388 21.1401C208.785 20.7909 208.134 20.6162 207.435 20.6162C206.752 20.6162 206.101 20.7909 205.482 21.1401C204.878 21.4894 204.386 21.9975 204.005 22.6643C203.64 23.3311 203.457 24.117 203.457 25.022C203.457 25.9269 203.64 26.7207 204.005 27.4034C204.386 28.0702 204.878 28.5783 205.482 28.9276C206.101 29.2768 206.752 29.4515 207.435 29.4515C208.134 29.4515 208.785 29.2768 209.388 28.9276C210.007 28.5624 210.5 28.0385 210.865 27.3558C211.246 26.6731 211.436 25.8793 211.436 24.9743Z" fill="#424B66"/>
<path d="M189.615 31.7614C188.075 31.7614 186.653 31.4042 185.351 30.6898C184.065 29.9594 183.041 28.9513 182.279 27.6653C181.532 26.3634 181.159 24.9028 181.159 23.2834C181.159 21.664 181.532 20.2113 182.279 18.9253C183.041 17.6393 184.065 16.639 185.351 15.9246C186.653 15.1943 188.075 14.8291 189.615 14.8291C191.171 14.8291 192.592 15.1943 193.878 15.9246C195.181 16.639 196.205 17.6393 196.951 18.9253C197.698 20.2113 198.071 21.664 198.071 23.2834C198.071 24.9028 197.698 26.3634 196.951 27.6653C196.205 28.9513 195.181 29.9594 193.878 30.6898C192.592 31.4042 191.171 31.7614 189.615 31.7614ZM189.615 29.4038C190.711 29.4038 191.687 29.1576 192.545 28.6655C193.402 28.1574 194.069 27.443 194.545 26.5222C195.038 25.5855 195.284 24.5059 195.284 23.2834C195.284 22.0609 195.038 20.9892 194.545 20.0684C194.069 19.1475 193.402 18.441 192.545 17.9488C191.687 17.4567 190.711 17.2106 189.615 17.2106C188.519 17.2106 187.543 17.4567 186.685 17.9488C185.828 18.441 185.153 19.1475 184.66 20.0684C184.184 20.9892 183.946 22.0609 183.946 23.2834C183.946 24.5059 184.184 25.5855 184.66 26.5222C185.153 27.443 185.828 28.1574 186.685 28.6655C187.543 29.1576 188.519 29.4038 189.615 29.4038Z" fill="#424B66"/>
<path d="M176.368 20.6876V27.9511C176.368 28.4433 176.479 28.8005 176.702 29.0227C176.94 29.2291 177.337 29.3323 177.893 29.3323H179.56V31.5947H177.416C176.194 31.5947 175.257 31.309 174.606 30.7374C173.955 30.1659 173.629 29.2371 173.629 27.9511V20.6876H172.081V18.4728H173.629V15.2102H176.368V18.4728H179.56V20.6876H176.368Z" fill="#424B66"/>
<path d="M168.301 16.7343C167.809 16.7343 167.396 16.5676 167.063 16.2342C166.729 15.9008 166.563 15.488 166.563 14.9958C166.563 14.5036 166.729 14.0908 167.063 13.7574C167.396 13.424 167.809 13.2573 168.301 13.2573C168.778 13.2573 169.183 13.424 169.516 13.7574C169.85 14.0908 170.016 14.5036 170.016 14.9958C170.016 15.488 169.85 15.9008 169.516 16.2342C169.183 16.5676 168.778 16.7343 168.301 16.7343ZM169.635 18.4728V31.5947H166.92V18.4728H169.635Z" fill="#424B66"/>
<path d="M160.479 19.8064C160.051 18.9808 159.455 18.3616 158.693 17.9488C157.931 17.5202 157.049 17.3058 156.049 17.3058C154.953 17.3058 153.977 17.552 153.119 18.0441C152.262 18.5363 151.587 19.2348 151.094 20.1398C150.618 21.0448 150.38 22.0926 150.38 23.2834C150.38 24.4741 150.618 25.5299 151.094 26.4507C151.587 27.3557 152.262 28.0543 153.119 28.5464C153.977 29.0386 154.953 29.2847 156.049 29.2847C157.526 29.2847 158.725 28.8719 159.646 28.0463C160.567 27.2207 161.13 26.1015 161.337 24.6884H155.12V22.5213H164.243V24.6408C164.068 25.9268 163.608 27.1096 162.861 28.1892C162.131 29.2688 161.17 30.1341 159.979 30.785C158.804 31.4201 157.494 31.7376 156.049 31.7376C154.493 31.7376 153.071 31.3804 151.785 30.6659C150.499 29.9356 149.475 28.9275 148.713 27.6415C147.966 26.3555 147.593 24.9028 147.593 23.2834C147.593 21.664 147.966 20.2113 148.713 18.9253C149.475 17.6393 150.499 16.639 151.785 15.9246C153.087 15.1943 154.509 14.8291 156.049 14.8291C157.811 14.8291 159.376 15.2657 160.741 16.1389C162.123 16.9963 163.123 18.2188 163.743 19.8064H160.479Z" fill="#424B66"/>
<path d="M139.639 24.7123C139.639 25.2045 139.607 25.6491 139.544 26.046H129.516C129.595 27.0938 129.984 27.9353 130.683 28.5703C131.382 29.2054 132.239 29.5229 133.256 29.5229C134.717 29.5229 135.749 28.9117 136.352 27.6892H139.282C138.885 28.8958 138.162 29.8881 137.114 30.666C136.082 31.4281 134.796 31.8091 133.256 31.8091C132.001 31.8091 130.874 31.5313 129.873 30.9756C128.889 30.4041 128.111 29.6103 127.539 28.5942C126.983 27.5622 126.705 26.3715 126.705 25.022C126.705 23.6724 126.975 22.4896 127.515 21.4735C128.071 20.4416 128.841 19.6477 129.826 19.0921C130.826 18.5364 131.969 18.2585 133.256 18.2585C134.494 18.2585 135.598 18.5285 136.566 19.0683C137.535 19.6081 138.289 20.3701 138.829 21.3545C139.369 22.3229 139.639 23.4422 139.639 24.7123ZM136.805 23.855C136.789 22.8548 136.431 22.053 135.733 21.4497C135.034 20.8464 134.169 20.5448 133.136 20.5448C132.2 20.5448 131.398 20.8464 130.731 21.4497C130.064 22.0372 129.667 22.8389 129.54 23.855H136.805Z" fill="#424B66"/>
<path d="M119.65 31.8091C118.618 31.8091 117.689 31.6266 116.863 31.2614C116.053 30.8804 115.41 30.3723 114.934 29.7373C114.457 29.0863 114.203 28.364 114.172 27.5701H116.982C117.03 28.1258 117.292 28.5941 117.768 28.9752C118.261 29.3403 118.872 29.5229 119.602 29.5229C120.365 29.5229 120.952 29.3801 121.365 29.0943C121.794 28.7926 122.008 28.4116 122.008 27.9512C122.008 27.459 121.77 27.0938 121.294 26.8557C120.833 26.6175 120.095 26.3556 119.078 26.0698C118.094 25.7999 117.292 25.538 116.673 25.2839C116.053 25.0299 115.513 24.6409 115.053 24.117C114.608 23.5931 114.386 22.9024 114.386 22.0451C114.386 21.3465 114.592 20.7115 115.005 20.1399C115.418 19.5525 116.006 19.0921 116.768 18.7587C117.546 18.4253 118.435 18.2585 119.436 18.2585C120.928 18.2585 122.127 18.6396 123.032 19.4017C123.953 20.1479 124.446 21.1719 124.509 22.4738H121.794C121.746 21.8863 121.508 21.418 121.079 21.0687C120.65 20.7194 120.071 20.5448 119.34 20.5448C118.626 20.5448 118.078 20.6797 117.697 20.9496C117.316 21.2195 117.125 21.5767 117.125 22.0213C117.125 22.3706 117.252 22.6643 117.506 22.9025C117.76 23.1406 118.07 23.3311 118.435 23.474C118.801 23.601 119.34 23.7677 120.055 23.9741C121.008 24.2281 121.786 24.4901 122.389 24.76C123.009 25.014 123.541 25.395 123.985 25.9031C124.43 26.4111 124.66 27.0859 124.676 27.9273C124.676 28.6735 124.469 29.3404 124.057 29.9278C123.644 30.5152 123.056 30.9756 122.294 31.309C121.548 31.6424 120.666 31.8091 119.65 31.8091Z" fill="#424B66"/>
<path d="M105.389 31.8091C104.15 31.8091 103.031 31.5313 102.03 30.9756C101.03 30.4041 100.244 29.6103 99.6721 28.5942C99.1004 27.5622 98.8146 26.3715 98.8146 25.022C98.8146 23.6883 99.1084 22.5055 99.6959 21.4735C100.283 20.4416 101.085 19.6477 102.102 19.0921C103.118 18.5364 104.253 18.2585 105.508 18.2585C106.762 18.2585 107.898 18.5364 108.914 19.0921C109.93 19.6477 110.732 20.4416 111.32 21.4735C111.907 22.5055 112.201 23.6883 112.201 25.022C112.201 26.3556 111.899 27.5384 111.296 28.5703C110.692 29.6023 109.867 30.4041 108.819 30.9756C107.787 31.5313 106.643 31.8091 105.389 31.8091ZM105.389 29.4515C106.087 29.4515 106.738 29.2848 107.342 28.9514C107.961 28.618 108.461 28.1179 108.843 27.4511C109.224 26.7842 109.414 25.9745 109.414 25.022C109.414 24.0694 109.232 23.2676 108.866 22.6166C108.501 21.9498 108.017 21.4498 107.413 21.1163C106.81 20.7829 106.159 20.6162 105.46 20.6162C104.761 20.6162 104.11 20.7829 103.507 21.1163C102.92 21.4498 102.451 21.9498 102.102 22.6166C101.752 23.2676 101.578 24.0694 101.578 25.022C101.578 26.435 101.935 27.5305 102.649 28.3084C103.38 29.0705 104.293 29.4515 105.389 29.4515Z" fill="#424B66"/>
<path d="M82.6494 24.9743C82.6494 23.6566 82.9193 22.4896 83.4592 21.4735C84.015 20.4574 84.7613 19.6716 85.6982 19.1159C86.6509 18.5443 87.7069 18.2586 88.8661 18.2586C89.7236 18.2586 90.5653 18.4491 91.391 18.8301C92.2326 19.1953 92.8996 19.6875 93.3918 20.3066V13.9719H96.131V31.5948H93.3918V29.6182C92.9472 30.2532 92.3278 30.7772 91.5339 31.19C90.7558 31.6028 89.8586 31.8092 88.8423 31.8092C87.699 31.8092 86.6509 31.5234 85.6982 30.9518C84.7613 30.3644 84.015 29.5547 83.4592 28.5227C82.9193 27.4749 82.6494 26.2921 82.6494 24.9743ZM93.3918 25.022C93.3918 24.117 93.2012 23.3311 92.8201 22.6643C92.4549 21.9975 91.9706 21.4894 91.3672 21.1401C90.7637 20.7909 90.1127 20.6162 89.414 20.6162C88.7153 20.6162 88.0642 20.7909 87.4608 21.1401C86.8574 21.4735 86.3651 21.9737 85.984 22.6405C85.6188 23.2914 85.4362 24.0694 85.4362 24.9743C85.4362 25.8793 85.6188 26.6731 85.984 27.3558C86.3651 28.0385 86.8574 28.5624 87.4608 28.9276C88.0801 29.2768 88.7312 29.4515 89.414 29.4515C90.1127 29.4515 90.7637 29.2768 91.3672 28.9276C91.9706 28.5783 92.4549 28.0702 92.8201 27.4034C93.2012 26.7207 93.3918 25.9269 93.3918 25.022Z" fill="#424B66"/>
<path d="M75.3368 18.4729L71.2638 31.5948H68.4055L65.7616 21.9022L63.1177 31.5948H60.2593L56.1625 18.4729H58.9255L61.6646 29.0228L64.4515 18.4729H67.286L69.9538 28.9752L72.6691 18.4729H75.3368Z" fill="#424B66"/>
<path d="M48.2131 31.8091C46.9745 31.8091 45.8551 31.5313 44.8547 30.9756C43.8543 30.4041 43.0682 29.6103 42.4966 28.5942C41.9249 27.5622 41.6391 26.3715 41.6391 25.022C41.6391 23.6883 41.9329 22.5055 42.5204 21.4735C43.108 20.4416 43.9099 19.6477 44.9262 19.0921C45.9425 18.5364 47.0778 18.2585 48.3323 18.2585C49.5867 18.2585 50.7221 18.5364 51.7384 19.0921C52.7547 19.6477 53.5567 20.4416 54.1442 21.4735C54.7317 22.5055 55.0255 23.6883 55.0255 25.022C55.0255 26.3556 54.7238 27.5384 54.1204 28.5703C53.5169 29.6023 52.6912 30.4041 51.6432 30.9756C50.611 31.5313 49.4676 31.8091 48.2131 31.8091ZM48.2131 29.4515C48.9118 29.4515 49.563 29.2848 50.1664 28.9514C50.7857 28.618 51.2859 28.1179 51.667 27.4511C52.0481 26.7842 52.2386 25.9745 52.2386 25.022C52.2386 24.0694 52.056 23.2676 51.6907 22.6166C51.3255 21.9498 50.8412 21.4498 50.2378 21.1163C49.6344 20.7829 48.9834 20.6162 48.2847 20.6162C47.586 20.6162 46.9349 20.7829 46.3314 21.1163C45.7439 21.4498 45.2755 21.9498 44.9262 22.6166C44.5768 23.2676 44.4021 24.0694 44.4021 25.022C44.4021 26.435 44.7594 27.5305 45.474 28.3084C46.2044 29.0705 47.1175 29.4515 48.2131 29.4515Z" fill="#424B66"/>
<path d="M38.9459 15.0435V31.5947H36.2306V24.355H28.4416V31.5947H25.7263V15.0435H28.4416V22.1403H36.2306V15.0435H38.9459Z" fill="#424B66"/>
<path d="M337.492 100.134C337.162 100.134 336.883 100.019 336.654 99.7908C336.425 99.5622 336.311 99.2827 336.311 98.9525C336.311 98.6223 336.425 98.3428 336.654 98.1142C336.883 97.8856 337.162 97.7712 337.492 97.7712C337.81 97.7712 338.077 97.8856 338.293 98.1142C338.521 98.3428 338.636 98.6223 338.636 98.9525C338.636 99.2827 338.521 99.5622 338.293 99.7908C338.077 100.019 337.81 100.134 337.492 100.134Z" fill="#878B9E"/>
<path d="M335.196 89.5789L328.908 104.935H327.117L329.175 99.9049L324.963 89.5789H326.888L330.165 98.0379L333.405 89.5789H335.196Z" fill="#878B9E"/>
<path d="M320.827 91.2745C321.132 90.6776 321.564 90.2139 322.123 89.8837C322.694 89.5535 323.387 89.3884 324.2 89.3884V91.1793H323.742C321.799 91.1793 320.827 92.2335 320.827 94.3419V100.019H319.093V89.5789H320.827V91.2745Z" fill="#878B9E"/>
<path d="M314.268 91.0077V97.1615C314.268 97.6696 314.377 98.0315 314.593 98.2474C314.808 98.4506 315.183 98.5523 315.717 98.5523H316.993V100.019H315.431C314.465 100.019 313.741 99.797 313.259 99.3525C312.776 98.908 312.534 98.1776 312.534 97.1615V91.0077H311.182V89.5789H312.534V86.9497H314.268V89.5789H316.993V91.0077H314.268Z" fill="#878B9E"/>
<path d="M305.894 100.191C305.093 100.191 304.376 100.057 303.74 99.7908C303.105 99.5113 302.603 99.1303 302.235 98.6476C301.867 98.1523 301.663 97.5871 301.625 96.952H303.416C303.467 97.4728 303.709 97.8983 304.141 98.2285C304.585 98.5587 305.163 98.7238 305.875 98.7238C306.535 98.7238 307.056 98.5778 307.437 98.2857C307.818 97.9936 308.009 97.6251 308.009 97.1806C308.009 96.7234 307.806 96.3868 307.399 96.1709C306.993 95.9423 306.364 95.72 305.513 95.5041C304.738 95.3009 304.102 95.0976 303.607 94.8944C303.124 94.6785 302.705 94.3673 302.349 93.9608C302.006 93.5417 301.835 92.9956 301.835 92.3224C301.835 91.7889 301.994 91.2999 302.311 90.8554C302.629 90.4108 303.08 90.0616 303.664 89.8076C304.249 89.5409 304.916 89.4075 305.665 89.4075C306.821 89.4075 307.755 89.6996 308.466 90.2839C309.178 90.8681 309.559 91.6683 309.609 92.6844H307.875C307.837 92.1383 307.615 91.7001 307.208 91.3698C306.815 91.0396 306.281 90.8745 305.608 90.8745C304.985 90.8745 304.49 91.0079 304.122 91.2746C303.753 91.5413 303.569 91.8906 303.569 92.3224C303.569 92.6653 303.677 92.9512 303.893 93.1798C304.121 93.3957 304.401 93.5735 304.731 93.7132C305.074 93.8402 305.544 93.9863 306.141 94.1514C306.891 94.3546 307.501 94.5578 307.971 94.761C308.441 94.9516 308.841 95.2437 309.171 95.6374C309.514 96.0312 309.692 96.5455 309.705 97.1806C309.705 97.7522 309.546 98.2665 309.228 98.7238C308.911 99.181 308.46 99.543 307.875 99.8098C307.304 100.064 306.643 100.191 305.894 100.191Z" fill="#878B9E"/>
<path d="M299.269 89.5789V100.019H297.535V98.4761C297.205 99.0095 296.741 99.4286 296.144 99.7335C295.559 100.026 294.911 100.172 294.2 100.172C293.387 100.172 292.657 100.007 292.009 99.6763C291.361 99.3334 290.846 98.8253 290.465 98.1521C290.097 97.479 289.913 96.6598 289.913 95.6945V89.5789H291.628V95.4659C291.628 96.4947 291.888 97.2885 292.409 97.8474C292.93 98.3935 293.641 98.6666 294.543 98.6666C295.47 98.6666 296.201 98.3807 296.734 97.8092C297.268 97.2376 297.535 96.4058 297.535 95.3135V89.5789H299.269Z" fill="#878B9E"/>
<path d="M276.482 94.7609C276.482 93.694 276.698 92.7605 277.13 91.9603C277.562 91.1475 278.152 90.5187 278.902 90.0741C279.664 89.6296 280.515 89.4074 281.455 89.4074C282.268 89.4074 283.024 89.5978 283.723 89.9789C284.422 90.3472 284.955 90.8362 285.324 91.4459V85.9209H287.077V100.019H285.324V98.0569C284.981 98.6792 284.472 99.1936 283.799 99.6C283.126 99.9938 282.338 100.191 281.436 100.191C280.509 100.191 279.664 99.962 278.902 99.5048C278.152 99.0475 277.562 98.4062 277.13 97.5806C276.698 96.755 276.482 95.8151 276.482 94.7609ZM285.324 94.78C285.324 93.9925 285.165 93.3066 284.847 92.7224C284.53 92.1381 284.098 91.6935 283.551 91.3887C283.018 91.0712 282.427 90.9124 281.779 90.9124C281.131 90.9124 280.541 91.0649 280.007 91.3697C279.473 91.6746 279.048 92.119 278.73 92.7033C278.413 93.2876 278.254 93.9735 278.254 94.7609C278.254 95.5611 278.413 96.2597 278.73 96.8566C279.048 97.4409 279.473 97.8918 280.007 98.2093C280.541 98.5141 281.131 98.6666 281.779 98.6666C282.427 98.6666 283.018 98.5141 283.551 98.2093C284.098 97.8918 284.53 97.4409 284.847 96.8566C285.165 96.2597 285.324 95.5675 285.324 94.78Z" fill="#878B9E"/>
<path d="M270.03 89.3884C271.3 89.3884 272.329 89.7758 273.117 90.5506C273.905 91.3127 274.298 92.4176 274.298 93.8655V100.019H272.583V94.1132C272.583 93.0717 272.323 92.2779 271.802 91.7317C271.281 91.1729 270.57 90.8935 269.668 90.8935C268.753 90.8935 268.023 91.1793 267.477 91.7508C266.943 92.3224 266.676 93.1543 266.676 94.2466V100.019H264.942V89.5789H266.676V91.0649C267.019 90.5315 267.483 90.1187 268.067 89.8266C268.664 89.5345 269.319 89.3884 270.03 89.3884Z" fill="#878B9E"/>
<path d="M261.149 87.8832C260.818 87.8832 260.539 87.7689 260.31 87.5402C260.082 87.3116 259.967 87.0322 259.967 86.702C259.967 86.3718 260.082 86.0923 260.31 85.8637C260.539 85.6351 260.818 85.5208 261.149 85.5208C261.466 85.5208 261.733 85.6351 261.949 85.8637C262.178 86.0923 262.292 86.3718 262.292 86.702C262.292 87.0322 262.178 87.3116 261.949 87.5402C261.733 87.7689 261.466 87.8832 261.149 87.8832ZM261.987 89.5788V100.019H260.253V89.5788H261.987Z" fill="#878B9E"/>
<path d="M246.601 89.4075C247.503 89.4075 248.291 89.6044 248.964 89.9981C249.65 90.3918 250.158 90.8871 250.489 91.4841V89.579H252.242V100.248C252.242 101.201 252.039 102.045 251.632 102.782C251.226 103.531 250.641 104.115 249.879 104.535C249.13 104.954 248.253 105.163 247.249 105.163C245.877 105.163 244.734 104.839 243.819 104.192C242.905 103.544 242.365 102.661 242.2 101.543H243.915C244.105 102.179 244.499 102.687 245.096 103.068C245.693 103.461 246.411 103.658 247.249 103.658C248.202 103.658 248.977 103.36 249.574 102.763C250.184 102.166 250.489 101.328 250.489 100.248V98.057C250.146 98.6666 249.638 99.1747 248.964 99.5812C248.291 99.9876 247.503 100.191 246.601 100.191C245.674 100.191 244.829 99.9621 244.067 99.5049C243.318 99.0477 242.727 98.4063 242.295 97.5807C241.863 96.7551 241.647 95.8152 241.647 94.761C241.647 93.6941 241.863 92.7606 242.295 91.9605C242.727 91.1476 243.318 90.5188 244.067 90.0743C244.829 89.6297 245.674 89.4075 246.601 89.4075ZM250.489 94.7801C250.489 93.9927 250.33 93.3068 250.012 92.7225C249.695 92.1382 249.263 91.6937 248.717 91.3888C248.183 91.0713 247.592 90.9126 246.944 90.9126C246.297 90.9126 245.706 91.065 245.172 91.3698C244.639 91.6747 244.213 92.1192 243.896 92.7034C243.578 93.2877 243.419 93.9736 243.419 94.761C243.419 95.5612 243.578 96.2598 243.896 96.8568C244.213 97.441 244.639 97.8919 245.172 98.2094C245.706 98.5142 246.297 98.6667 246.944 98.6667C247.592 98.6667 248.183 98.5142 248.717 98.2094C249.263 97.8919 249.695 97.441 250.012 96.8568C250.33 96.2598 250.489 95.5676 250.489 94.7801Z" fill="#878B9E"/>
<path d="M235.194 89.3884C236.464 89.3884 237.493 89.7758 238.281 90.5506C239.068 91.3127 239.462 92.4176 239.462 93.8655V100.019H237.747V94.1132C237.747 93.0717 237.487 92.2779 236.966 91.7317C236.445 91.1729 235.734 90.8935 234.832 90.8935C233.917 90.8935 233.187 91.1793 232.64 91.7508C232.107 92.3224 231.84 93.1543 231.84 94.2466V100.019H230.106V89.5789H231.84V91.0649C232.183 90.5315 232.647 90.1187 233.231 89.8266C233.828 89.5345 234.482 89.3884 235.194 89.3884Z" fill="#878B9E"/>
<path d="M226.312 87.8832C225.982 87.8832 225.703 87.7689 225.474 87.5402C225.245 87.3116 225.131 87.0322 225.131 86.702C225.131 86.3718 225.245 86.0923 225.474 85.8637C225.703 85.6351 225.982 85.5208 226.312 85.5208C226.63 85.5208 226.897 85.6351 227.113 85.8637C227.341 86.0923 227.456 86.3718 227.456 86.702C227.456 87.0322 227.341 87.3116 227.113 87.5402C226.897 87.7689 226.63 87.8832 226.312 87.8832ZM227.151 89.5788V100.019H225.417V89.5788H227.151Z" fill="#878B9E"/>
<path d="M220.591 91.0077V97.1615C220.591 97.6696 220.699 98.0315 220.915 98.2474C221.131 98.4506 221.506 98.5523 222.039 98.5523H223.316V100.019H221.753C220.788 100.019 220.064 99.797 219.581 99.3525C219.098 98.908 218.857 98.1776 218.857 97.1615V91.0077H217.504V89.5789H218.857V86.9497H220.591V89.5789H223.316V91.0077H220.591Z" fill="#878B9E"/>
<path d="M213.65 91.0077V97.1615C213.65 97.6696 213.758 98.0315 213.974 98.2474C214.19 98.4506 214.565 98.5523 215.098 98.5523H216.375V100.019H214.812C213.847 100.019 213.123 99.797 212.64 99.3525C212.157 98.908 211.916 98.1776 211.916 97.1615V91.0077H210.563V89.5789H211.916V86.9497H213.65V89.5789H216.375V91.0077H213.65Z" fill="#878B9E"/>
<path d="M209.245 94.399C209.245 94.7292 209.226 95.0786 209.188 95.4469H200.842C200.905 96.4757 201.255 97.2822 201.89 97.8665C202.538 98.438 203.319 98.7238 204.234 98.7238C204.983 98.7238 205.605 98.5523 206.101 98.2094C206.609 97.8538 206.965 97.3838 207.168 96.7996H209.035C208.756 97.803 208.197 98.6223 207.359 99.2573C206.52 99.8797 205.478 100.191 204.234 100.191C203.243 100.191 202.353 99.9685 201.566 99.524C200.791 99.0795 200.181 98.4508 199.736 97.6379C199.292 96.8123 199.07 95.8597 199.07 94.7801C199.07 93.7005 199.285 92.7543 199.717 91.9414C200.149 91.1285 200.753 90.5061 201.528 90.0743C202.315 89.6297 203.217 89.4075 204.234 89.4075C205.224 89.4075 206.101 89.6234 206.863 90.0553C207.625 90.4871 208.21 91.084 208.616 91.8461C209.035 92.5955 209.245 93.4464 209.245 94.399ZM207.454 94.0371C207.454 93.3766 207.308 92.8114 207.016 92.3415C206.723 91.8588 206.323 91.4968 205.815 91.2555C205.32 91.0015 204.767 90.8745 204.157 90.8745C203.281 90.8745 202.531 91.1539 201.909 91.7128C201.299 92.2716 200.95 93.0464 200.861 94.0371H207.454Z" fill="#878B9E"/>
<path d="M193.459 100.191C192.659 100.191 191.941 100.057 191.306 99.7908C190.671 99.5113 190.169 99.1303 189.801 98.6476C189.432 98.1523 189.229 97.5871 189.191 96.952H190.982C191.033 97.4728 191.274 97.8983 191.706 98.2285C192.151 98.5587 192.729 98.7238 193.44 98.7238C194.101 98.7238 194.622 98.5778 195.003 98.2857C195.384 97.9936 195.574 97.6251 195.574 97.1806C195.574 96.7234 195.371 96.3868 194.965 96.1709C194.558 95.9423 193.929 95.72 193.078 95.5041C192.303 95.3009 191.668 95.0976 191.173 94.8944C190.69 94.6785 190.271 94.3673 189.915 93.9608C189.572 93.5417 189.401 92.9956 189.401 92.3224C189.401 91.7889 189.559 91.2999 189.877 90.8554C190.195 90.4108 190.645 90.0616 191.23 89.8076C191.814 89.5409 192.481 89.4075 193.231 89.4075C194.387 89.4075 195.32 89.6996 196.032 90.2839C196.743 90.8681 197.124 91.6683 197.175 92.6844H195.441C195.403 92.1383 195.181 91.7001 194.774 91.3698C194.38 91.0396 193.847 90.8745 193.173 90.8745C192.551 90.8745 192.056 91.0079 191.687 91.2746C191.319 91.5413 191.135 91.8906 191.135 92.3224C191.135 92.6653 191.243 92.9512 191.458 93.1798C191.687 93.3957 191.967 93.5735 192.297 93.7132C192.64 93.8402 193.11 93.9863 193.707 94.1514C194.457 94.3546 195.066 94.5578 195.536 94.761C196.006 94.9516 196.407 95.2437 196.737 95.6374C197.08 96.0312 197.258 96.5455 197.27 97.1806C197.27 97.7522 197.112 98.2665 196.794 98.7238C196.476 99.181 196.025 99.543 195.441 99.8098C194.869 100.064 194.209 100.191 193.459 100.191Z" fill="#878B9E"/>
<path d="M187.474 94.399C187.474 94.7292 187.455 95.0786 187.417 95.4469H179.071C179.134 96.4757 179.484 97.2822 180.119 97.8665C180.767 98.438 181.548 98.7238 182.463 98.7238C183.212 98.7238 183.835 98.5523 184.33 98.2094C184.838 97.8538 185.194 97.3838 185.397 96.7996H187.265C186.985 97.803 186.426 98.6223 185.588 99.2573C184.749 99.8797 183.708 100.191 182.463 100.191C181.472 100.191 180.583 99.9685 179.795 99.524C179.02 99.0795 178.41 98.4508 177.966 97.6379C177.521 96.8123 177.299 95.8597 177.299 94.7801C177.299 93.7005 177.515 92.7543 177.947 91.9414C178.379 91.1285 178.982 90.5061 179.757 90.0743C180.545 89.6297 181.447 89.4075 182.463 89.4075C183.454 89.4075 184.33 89.6234 185.092 90.0553C185.855 90.4871 186.439 91.084 186.846 91.8461C187.265 92.5955 187.474 93.4464 187.474 94.399ZM185.683 94.0371C185.683 93.3766 185.537 92.8114 185.245 92.3415C184.953 91.8588 184.552 91.4968 184.044 91.2555C183.549 91.0015 182.996 90.8745 182.387 90.8745C181.51 90.8745 180.761 91.1539 180.138 91.7128C179.528 92.2716 179.179 93.0464 179.09 94.0371H185.683Z" fill="#878B9E"/>
<path d="M166.802 91.5032C167.145 90.9062 167.654 90.4109 168.327 90.0172C169.013 89.6107 169.807 89.4075 170.709 89.4075C171.636 89.4075 172.475 89.6297 173.224 90.0743C173.986 90.5188 174.583 91.1476 175.015 91.9605C175.447 92.7606 175.663 93.6941 175.663 94.761C175.663 95.8152 175.447 96.7551 175.015 97.5807C174.583 98.4063 173.986 99.0477 173.224 99.5049C172.475 99.9621 171.636 100.191 170.709 100.191C169.82 100.191 169.032 99.9939 168.346 99.6002C167.673 99.1937 167.158 98.692 166.802 98.0951V104.973H165.068V89.579H166.802V91.5032ZM173.891 94.761C173.891 93.9736 173.732 93.2877 173.415 92.7034C173.097 92.1192 172.665 91.6747 172.119 91.3698C171.585 91.065 170.995 90.9126 170.347 90.9126C169.712 90.9126 169.121 91.0713 168.575 91.3888C168.041 91.6937 167.609 92.1446 167.279 92.7416C166.961 93.3259 166.802 94.0054 166.802 94.7801C166.802 95.5676 166.961 96.2598 167.279 96.8568C167.609 97.441 168.041 97.8919 168.575 98.2094C169.121 98.5142 169.712 98.6667 170.347 98.6667C170.995 98.6667 171.585 98.5142 172.119 98.2094C172.665 97.8919 173.097 97.441 173.415 96.8568C173.732 96.2598 173.891 95.5612 173.891 94.761Z" fill="#878B9E"/>
<path d="M163.326 89.5789L157.038 104.935H155.247L157.305 99.9049L153.094 89.5789H155.018L158.296 98.0379L161.535 89.5789H163.326Z" fill="#878B9E"/>
<path d="M149.507 91.0077V97.1615C149.507 97.6696 149.615 98.0315 149.831 98.2474C150.046 98.4506 150.421 98.5523 150.955 98.5523H152.231V100.019H150.669C149.703 100.019 148.979 99.797 148.497 99.3525C148.014 98.908 147.773 98.1776 147.773 97.1615V91.0077H146.42V89.5789H147.773V86.9497H149.507V89.5789H152.231V91.0077H149.507Z" fill="#878B9E"/>
<path d="M128.786 94.7609C128.786 93.694 129.001 92.7605 129.433 91.9603C129.865 91.1475 130.456 90.5187 131.206 90.0741C131.968 89.6296 132.819 89.4074 133.759 89.4074C134.572 89.4074 135.328 89.5978 136.027 89.9789C136.725 90.3472 137.259 90.8362 137.627 91.4459V85.9209H139.38V100.019H137.627V98.0569C137.284 98.6792 136.776 99.1936 136.103 99.6C135.429 99.9938 134.642 100.191 133.74 100.191C132.813 100.191 131.968 99.962 131.206 99.5048C130.456 99.0475 129.865 98.4062 129.433 97.5806C129.001 96.755 128.786 95.8151 128.786 94.7609ZM137.627 94.78C137.627 93.9925 137.468 93.3066 137.151 92.7224C136.833 92.1381 136.401 91.6935 135.855 91.3887C135.321 91.0712 134.731 90.9124 134.083 90.9124C133.435 90.9124 132.844 91.0649 132.311 91.3697C131.777 91.6746 131.352 92.119 131.034 92.7033C130.716 93.2876 130.558 93.9735 130.558 94.7609C130.558 95.5611 130.716 96.2597 131.034 96.8566C131.352 97.4409 131.777 97.8918 132.311 98.2093C132.844 98.5141 133.435 98.6666 134.083 98.6666C134.731 98.6666 135.321 98.5141 135.855 98.2093C136.401 97.8918 136.833 97.4409 137.151 96.8566C137.468 96.2597 137.627 95.5675 137.627 94.78Z" fill="#878B9E"/>
<path d="M122.332 89.3884C123.602 89.3884 124.631 89.7758 125.419 90.5506C126.207 91.3127 126.6 92.4176 126.6 93.8655V100.019H124.885V94.1132C124.885 93.0717 124.625 92.2779 124.104 91.7317C123.583 91.1729 122.872 90.8935 121.97 90.8935C121.055 90.8935 120.325 91.1793 119.779 91.7508C119.245 92.3224 118.978 93.1543 118.978 94.2466V100.019H117.244V89.5789H118.978V91.0649C119.321 90.5315 119.785 90.1187 120.369 89.8266C120.966 89.5345 121.621 89.3884 122.332 89.3884Z" fill="#878B9E"/>
<path d="M103.72 94.761C103.72 93.6941 103.936 92.7606 104.368 91.9605C104.8 91.1476 105.39 90.5188 106.14 90.0743C106.902 89.6297 107.747 89.4075 108.674 89.4075C109.589 89.4075 110.383 89.6044 111.056 89.9981C111.729 90.3918 112.231 90.8871 112.561 91.4841V89.579H114.315V100.019H112.561V98.0761C112.218 98.6857 111.704 99.1937 111.018 99.6002C110.345 99.9939 109.557 100.191 108.655 100.191C107.728 100.191 106.889 99.9621 106.14 99.5049C105.39 99.0477 104.8 98.4063 104.368 97.5807C103.936 96.7551 103.72 95.8152 103.72 94.761ZM112.561 94.7801C112.561 93.9927 112.403 93.3068 112.085 92.7225C111.767 92.1382 111.336 91.6937 110.789 91.3888C110.256 91.0713 109.665 90.9126 109.017 90.9126C108.369 90.9126 107.779 91.065 107.245 91.3698C106.711 91.6747 106.286 92.1192 105.968 92.7034C105.651 93.2877 105.492 93.9736 105.492 94.761C105.492 95.5612 105.651 96.2598 105.968 96.8568C106.286 97.441 106.711 97.8919 107.245 98.2094C107.779 98.5142 108.369 98.6667 109.017 98.6667C109.665 98.6667 110.256 98.5142 110.789 98.2094C111.336 97.8919 111.767 97.441 112.085 96.8568C112.403 96.2598 112.561 95.5676 112.561 94.7801Z" fill="#878B9E"/>
<path d="M90.7161 89.4075C91.6181 89.4075 92.4057 89.6044 93.079 89.9981C93.765 90.3918 94.2731 90.8871 94.6034 91.4841V89.579H96.3564V100.248C96.3564 101.201 96.1532 102.045 95.7467 102.782C95.3402 103.531 94.7558 104.115 93.9936 104.535C93.2441 104.954 92.3675 105.163 91.364 105.163C89.992 105.163 88.8487 104.839 87.934 104.192C87.0194 103.544 86.4794 102.661 86.3143 101.543H88.0293C88.2199 102.179 88.6136 102.687 89.2107 103.068C89.8077 103.461 90.5255 103.658 91.364 103.658C92.3167 103.658 93.0916 103.36 93.6887 102.763C94.2985 102.166 94.6034 101.328 94.6034 100.248V98.057C94.2604 98.6666 93.7522 99.1747 93.079 99.5812C92.4057 99.9876 91.6181 100.191 90.7161 100.191C89.7888 100.191 88.944 99.9621 88.1818 99.5049C87.4323 99.0477 86.8415 98.4063 86.4096 97.5807C85.9776 96.7551 85.7617 95.8152 85.7617 94.761C85.7617 93.6941 85.9776 92.7606 86.4096 91.9605C86.8415 91.1476 87.4323 90.5188 88.1818 90.0743C88.944 89.6297 89.7888 89.4075 90.7161 89.4075ZM94.6034 94.7801C94.6034 93.9927 94.4445 93.3068 94.127 92.7225C93.8094 92.1382 93.3775 91.6937 92.8312 91.3888C92.2977 91.0713 91.7069 90.9126 91.059 90.9126C90.4112 90.9126 89.8205 91.065 89.2869 91.3698C88.7534 91.6747 88.3278 92.1192 88.0102 92.7034C87.6926 93.2877 87.5338 93.9736 87.5338 94.761C87.5338 95.5612 87.6926 96.2598 88.0102 96.8568C88.3278 97.441 88.7534 97.8919 89.2869 98.2094C89.8205 98.5142 90.4112 98.6667 91.059 98.6667C91.7069 98.6667 92.2977 98.5142 92.8312 98.2094C93.3775 97.8919 93.8094 97.441 94.127 96.8568C94.4445 96.2598 94.6034 95.5676 94.6034 94.7801Z" fill="#878B9E"/>
<path d="M79.3083 89.3884C80.5787 89.3884 81.6076 89.7758 82.3952 90.5506C83.1829 91.3127 83.5767 92.4176 83.5767 93.8655V100.019H81.8617V94.1132C81.8617 93.0717 81.6013 92.2779 81.0804 91.7317C80.5596 91.1729 79.8482 90.8935 78.9462 90.8935C78.0316 90.8935 77.3011 91.1793 76.7549 91.7508C76.2213 92.3224 75.9546 93.1543 75.9546 94.2466V100.019H74.2206V89.5789H75.9546V91.0649C76.2976 90.5315 76.7612 90.1187 77.3456 89.8266C77.9427 89.5345 78.5969 89.3884 79.3083 89.3884Z" fill="#878B9E"/>
<path d="M70.4269 87.8832C70.0966 87.8832 69.8171 87.7689 69.5885 87.5402C69.3598 87.3116 69.2455 87.0322 69.2455 86.702C69.2455 86.3718 69.3598 86.0923 69.5885 85.8637C69.8171 85.6351 70.0966 85.5208 70.4269 85.5208C70.7445 85.5208 71.0113 85.6351 71.2273 85.8637C71.4559 86.0923 71.5703 86.3718 71.5703 86.702C71.5703 87.0322 71.4559 87.3116 71.2273 87.5402C71.0113 87.7689 70.7445 87.8832 70.4269 87.8832ZM71.2654 89.5788V100.019H69.5314V89.5788H71.2654Z" fill="#878B9E"/>
<path d="M64.7056 91.0077V97.1615C64.7056 97.6696 64.8136 98.0315 65.0295 98.2474C65.2455 98.4506 65.6202 98.5523 66.1538 98.5523H67.4305V100.019H65.868C64.9025 100.019 64.1783 99.797 63.6956 99.3525C63.2129 98.908 62.9715 98.1776 62.9715 97.1615V91.0077H61.6186V89.5789H62.9715V86.9497H64.7056V89.5789H67.4305V91.0077H64.7056Z" fill="#878B9E"/>
<path d="M55.4891 89.3884C56.7595 89.3884 57.7884 89.7758 58.5761 90.5506C59.3637 91.3127 59.7575 92.4176 59.7575 93.8655V100.019H58.0425V94.1132C58.0425 93.0717 57.7821 92.2779 57.2612 91.7317C56.7404 91.1729 56.029 90.8935 55.127 90.8935C54.2124 90.8935 53.4819 91.1793 52.9357 91.7508C52.4021 92.3224 52.1354 93.1543 52.1354 94.2466V100.019H50.4014V89.5789H52.1354V91.0649C52.4784 90.5315 52.942 90.1187 53.5264 89.8266C54.1235 89.5345 54.7777 89.3884 55.4891 89.3884Z" fill="#878B9E"/>
<path d="M46.6078 87.8832C46.2775 87.8832 45.998 87.7689 45.7693 87.5402C45.5406 87.3116 45.4263 87.0322 45.4263 86.702C45.4263 86.3718 45.5406 86.0923 45.7693 85.8637C45.998 85.6351 46.2775 85.5208 46.6078 85.5208C46.9253 85.5208 47.1922 85.6351 47.4081 85.8637C47.6368 86.0923 47.7511 86.3718 47.7511 86.702C47.7511 87.0322 47.6368 87.3116 47.4081 87.5402C47.1922 87.7689 46.9253 87.8832 46.6078 87.8832ZM47.4462 89.5788V100.019H45.7122V89.5788H47.4462Z" fill="#878B9E"/>
<path d="M40.3386 91.2745C40.6434 90.6776 41.0753 90.2139 41.6343 89.8837C42.2059 89.5535 42.8984 89.3884 43.7114 89.3884V91.1793H43.254C41.3104 91.1793 40.3386 92.2335 40.3386 94.3419V100.019H38.6046V89.5789H40.3386V91.2745Z" fill="#878B9E"/>
<path d="M27.4603 91.5032C27.8033 90.9062 28.3115 90.4109 28.9848 90.0172C29.6708 89.6107 30.4647 89.4075 31.3667 89.4075C32.2941 89.4075 33.1325 89.6297 33.882 90.0743C34.6442 90.5188 35.2412 91.1476 35.6732 91.9605C36.1051 92.7606 36.3211 93.6941 36.3211 94.761C36.3211 95.8152 36.1051 96.7551 35.6732 97.5807C35.2412 98.4063 34.6442 99.0477 33.882 99.5049C33.1325 99.9621 32.2941 100.191 31.3667 100.191C30.4775 100.191 29.6898 99.9939 29.0038 99.6002C28.3305 99.1937 27.816 98.692 27.4603 98.0951V104.973H25.7263V89.579H27.4603V91.5032ZM34.5489 94.761C34.5489 93.9736 34.3901 93.2877 34.0725 92.7034C33.7549 92.1192 33.3231 91.6747 32.7768 91.3698C32.2432 91.065 31.6525 90.9126 31.0046 90.9126C30.3694 90.9126 29.7787 91.0713 29.2324 91.3888C28.6989 91.6937 28.267 92.1446 27.9367 92.7416C27.6191 93.3259 27.4603 94.0054 27.4603 94.7801C27.4603 95.5676 27.6191 96.2598 27.9367 96.8568C28.267 97.441 28.6989 97.8919 29.2324 98.2094C29.7787 98.5142 30.3694 98.6667 31.0046 98.6667C31.6525 98.6667 32.2432 98.5142 32.7768 98.2094C33.3231 97.8919 33.7549 97.441 34.0725 96.8568C34.3901 96.2598 34.5489 95.5612 34.5489 94.761Z" fill="#878B9E"/>
<path d="M413.829 59.4706C413.829 59.8008 413.81 60.1501 413.772 60.5185H405.426C405.49 61.5472 405.839 62.3538 406.474 62.938C407.122 63.5096 407.903 63.7954 408.818 63.7954C409.567 63.7954 410.19 63.6239 410.685 63.2809C411.193 62.9253 411.549 62.4554 411.752 61.8711H413.62C413.34 62.8745 412.781 63.6937 411.943 64.3288C411.105 64.9512 410.063 65.2624 408.818 65.2624C407.827 65.2624 406.938 65.0401 406.15 64.5955C405.375 64.151 404.765 63.5223 404.321 62.7094C403.876 61.8838 403.654 60.9312 403.654 59.8516C403.654 58.772 403.87 57.8258 404.302 57.0129C404.734 56.2 405.337 55.5777 406.112 55.1458C406.9 54.7013 407.802 54.479 408.818 54.479C409.809 54.479 410.685 54.695 411.448 55.1268C412.21 55.5586 412.794 56.1556 413.201 56.9177C413.62 57.667 413.829 58.518 413.829 59.4706ZM412.038 59.1086C412.038 58.4482 411.892 57.883 411.6 57.413C411.308 56.9304 410.908 56.5684 410.4 56.327C409.904 56.073 409.351 55.946 408.742 55.946C407.865 55.946 407.116 56.2254 406.493 56.7843C405.883 57.3431 405.534 58.1179 405.445 59.1086H412.038Z" fill="#878B9E"/>
<path d="M397.297 54.4601C398.085 54.4601 398.797 54.6316 399.432 54.9745C400.067 55.3047 400.562 55.8064 400.918 56.4796C401.286 57.1528 401.471 57.972 401.471 58.9373V65.091H399.756V59.185C399.756 58.1435 399.495 57.3496 398.974 56.8035C398.453 56.2446 397.742 55.9652 396.84 55.9652C395.925 55.9652 395.195 56.251 394.649 56.8225C394.115 57.3941 393.848 58.226 393.848 59.3183V65.091H392.114V50.9927H393.848V56.1366C394.191 55.6032 394.662 55.1904 395.259 54.8983C395.868 54.6062 396.548 54.4601 397.297 54.4601Z" fill="#878B9E"/>
<path d="M387.289 56.0795V62.2333C387.289 62.7413 387.397 63.1033 387.613 63.3193C387.829 63.5225 388.203 63.6241 388.737 63.6241H390.013V65.0911H388.451C387.485 65.0911 386.761 64.8688 386.279 64.4242C385.796 63.9797 385.555 63.2494 385.555 62.2333V56.0795H384.202V54.6506H385.555V52.0215H387.289V54.6506H390.013V56.0795H387.289Z" fill="#878B9E"/>
<path d="M378.071 56.0794H375.879V65.091H374.145V56.0794H372.792V54.6506H374.145V53.9076C374.145 52.739 374.444 51.8881 375.041 51.3546C375.65 50.8085 376.622 50.5354 377.956 50.5354V51.9833C377.194 51.9833 376.654 52.1357 376.337 52.4406C376.032 52.7327 375.879 53.2217 375.879 53.9076V54.6506H378.071V56.0794Z" fill="#878B9E"/>
<path d="M366.186 65.2624C365.208 65.2624 364.319 65.0401 363.519 64.5955C362.731 64.151 362.109 63.5223 361.651 62.7094C361.207 61.8838 360.984 60.9312 360.984 59.8516C360.984 58.7847 361.213 57.8448 361.67 57.0319C362.14 56.2064 362.775 55.5777 363.576 55.1458C364.376 54.7013 365.272 54.479 366.263 54.479C367.254 54.479 368.149 54.7013 368.949 55.1458C369.75 55.5777 370.379 56.2 370.836 57.0129C371.306 57.8258 371.541 58.772 371.541 59.8516C371.541 60.9312 371.3 61.8838 370.817 62.7094C370.347 63.5223 369.705 64.151 368.892 64.5955C368.079 65.0401 367.177 65.2624 366.186 65.2624ZM366.186 63.7382C366.809 63.7382 367.393 63.5921 367.939 63.3C368.486 63.0079 368.924 62.5697 369.254 61.9854C369.597 61.4012 369.769 60.6899 369.769 59.8516C369.769 59.0133 369.604 58.3021 369.273 57.7178C368.943 57.1336 368.511 56.7017 367.978 56.4223C367.444 56.1302 366.866 55.9841 366.244 55.9841C365.608 55.9841 365.024 56.1302 364.49 56.4223C363.97 56.7017 363.55 57.1336 363.233 57.7178C362.915 58.3021 362.756 59.0133 362.756 59.8516C362.756 60.7026 362.909 61.4202 363.214 62.0045C363.531 62.5888 363.951 63.027 364.471 63.3191C364.992 63.5985 365.564 63.7382 366.186 63.7382Z" fill="#878B9E"/>
<path d="M351.727 56.0795V62.2333C351.727 62.7413 351.835 63.1033 352.051 63.3193C352.266 63.5225 352.641 63.6241 353.175 63.6241H354.452V65.0911H352.889C351.923 65.0911 351.199 64.8688 350.717 64.4242C350.234 63.9797 349.992 63.2494 349.992 62.2333V56.0795H348.64V54.6506H349.992V52.0215H351.727V54.6506H354.452V56.0795H351.727Z" fill="#878B9E"/>
<path d="M345.943 65.0911L343.466 61.2045L341.084 65.0911H339.274L342.647 59.909L339.274 54.6506H341.237L343.714 58.5182L346.077 54.6506H347.887L344.533 59.8137L347.906 65.0911H345.943Z" fill="#878B9E"/>
<path d="M338.204 59.4706C338.204 59.8008 338.185 60.1501 338.146 60.5185H329.8C329.864 61.5472 330.213 62.3538 330.848 62.938C331.496 63.5096 332.277 63.7954 333.192 63.7954C333.942 63.7954 334.564 63.6239 335.059 63.2809C335.568 62.9253 335.923 62.4554 336.127 61.8711H337.994C337.715 62.8745 337.156 63.6937 336.317 64.3288C335.479 64.9512 334.437 65.2624 333.192 65.2624C332.201 65.2624 331.312 65.0401 330.524 64.5955C329.749 64.151 329.14 63.5223 328.695 62.7094C328.25 61.8838 328.028 60.9312 328.028 59.8516C328.028 58.772 328.244 57.8258 328.676 57.0129C329.108 56.2 329.711 55.5777 330.486 55.1458C331.274 54.7013 332.176 54.479 333.192 54.479C334.183 54.479 335.059 54.695 335.822 55.1268C336.584 55.5586 337.168 56.1556 337.575 56.9177C337.994 57.667 338.204 58.518 338.204 59.4706ZM336.412 59.1086C336.412 58.4482 336.266 57.883 335.974 57.413C335.682 56.9304 335.282 56.5684 334.774 56.327C334.278 56.073 333.726 55.946 333.116 55.946C332.239 55.946 331.49 56.2254 330.867 56.7843C330.257 57.3431 329.908 58.1179 329.819 59.1086H336.412Z" fill="#878B9E"/>
<path d="M323.852 56.0795V62.2333C323.852 62.7413 323.96 63.1033 324.176 63.3193C324.392 63.5225 324.766 63.6241 325.3 63.6241H326.577V65.0911H325.014C324.049 65.0911 323.325 64.8688 322.842 64.4242C322.359 63.9797 322.118 63.2494 322.118 62.2333V56.0795H320.765V54.6506H322.118V52.0215H323.852V54.6506H326.577V56.0795H323.852Z" fill="#878B9E"/>
<path d="M314.913 54.6506L308.625 70.0064H306.834L308.892 64.9767L304.681 54.6506H306.605L309.883 63.1096L313.122 54.6506H314.913Z" fill="#878B9E"/>
<path d="M298.843 54.4602C299.656 54.4602 300.38 54.6317 301.016 54.9746C301.651 55.3048 302.153 55.8065 302.521 56.4797C302.889 57.1529 303.074 57.9721 303.074 58.9374V65.0911H301.359V59.1851C301.359 58.1436 301.098 57.3498 300.577 56.8036C300.069 56.2447 299.377 55.9653 298.5 55.9653C297.598 55.9653 296.881 56.2574 296.347 56.8417C295.813 57.4132 295.547 58.2451 295.547 59.3375V65.0911H293.832V59.1851C293.832 58.1436 293.571 57.3498 293.05 56.8036C292.542 56.2447 291.85 55.9653 290.973 55.9653C290.071 55.9653 289.354 56.2574 288.82 56.8417C288.287 57.4132 288.02 58.2451 288.02 59.3375V65.0911H286.286V54.6507H288.02V56.1558C288.363 55.6097 288.82 55.1905 289.392 54.8984C289.976 54.6063 290.618 54.4602 291.316 54.4602C292.193 54.4602 292.968 54.6571 293.641 55.0508C294.314 55.4446 294.816 56.0224 295.146 56.7845C295.439 56.0478 295.921 55.4763 296.595 55.0699C297.268 54.6634 298.017 54.4602 298.843 54.4602Z" fill="#878B9E"/>
<path d="M279.211 54.4602C280.025 54.4602 280.749 54.6317 281.384 54.9746C282.019 55.3048 282.521 55.8065 282.889 56.4797C283.258 57.1529 283.442 57.9721 283.442 58.9374V65.0911H281.727V59.1851C281.727 58.1436 281.466 57.3498 280.945 56.8036C280.437 56.2447 279.745 55.9653 278.868 55.9653C277.967 55.9653 277.249 56.2574 276.715 56.8417C276.182 57.4132 275.915 58.2451 275.915 59.3375V65.0911H274.2V59.1851C274.2 58.1436 273.939 57.3498 273.419 56.8036C272.911 56.2447 272.218 55.9653 271.342 55.9653C270.44 55.9653 269.722 56.2574 269.188 56.8417C268.655 57.4132 268.388 58.2451 268.388 59.3375V65.0911H266.654V54.6507H268.388V56.1558C268.731 55.6097 269.188 55.1905 269.76 54.8984C270.344 54.6063 270.986 54.4602 271.685 54.4602C272.561 54.4602 273.336 54.6571 274.009 55.0508C274.683 55.4446 275.184 56.0224 275.515 56.7845C275.807 56.0478 276.29 55.4763 276.963 55.0699C277.636 54.6634 278.386 54.4602 279.211 54.4602Z" fill="#878B9E"/>
<path d="M263.726 54.6506V65.0911H261.992V63.5478C261.662 64.0813 261.198 64.5004 260.601 64.8052C260.016 65.0974 259.368 65.2434 258.657 65.2434C257.844 65.2434 257.114 65.0784 256.466 64.7481C255.818 64.4052 255.303 63.8971 254.922 63.2239C254.554 62.5508 254.37 61.7316 254.37 60.7663V54.6506H256.085V60.5377C256.085 61.5665 256.345 62.3603 256.866 62.9191C257.387 63.4653 258.098 63.7383 259 63.7383C259.927 63.7383 260.658 63.4526 261.191 62.8811C261.725 62.3095 261.992 61.4775 261.992 60.3852V54.6506H263.726Z" fill="#878B9E"/>
<path d="M240.94 59.8327C240.94 58.7658 241.156 57.8323 241.588 57.0321C242.02 56.2192 242.611 55.5905 243.36 55.146C244.123 54.7014 244.974 54.4791 245.914 54.4791C246.727 54.4791 247.483 54.6697 248.181 55.0507C248.88 55.419 249.414 55.908 249.782 56.5177V50.9927H251.535V65.091H249.782V63.1286C249.439 63.751 248.931 64.2654 248.258 64.6719C247.584 65.0656 246.797 65.2625 245.895 65.2625C244.967 65.2625 244.123 65.0339 243.36 64.5766C242.611 64.1194 242.02 63.478 241.588 62.6524C241.156 61.8268 240.94 60.8869 240.94 59.8327ZM249.782 59.8517C249.782 59.0643 249.623 58.3784 249.306 57.7942C248.988 57.2099 248.556 56.7654 248.01 56.4605C247.476 56.143 246.886 55.9842 246.238 55.9842C245.59 55.9842 244.999 56.1367 244.466 56.4415C243.932 56.7463 243.507 57.1909 243.189 57.7751C242.871 58.3594 242.713 59.0452 242.713 59.8327C242.713 60.6329 242.871 61.3315 243.189 61.9284C243.507 62.5127 243.932 62.9635 244.466 63.2811C244.999 63.5859 245.59 63.7383 246.238 63.7383C246.886 63.7383 247.476 63.5859 248.01 63.2811C248.556 62.9635 248.988 62.5127 249.306 61.9284C249.623 61.3315 249.782 60.6392 249.782 59.8517Z" fill="#878B9E"/>
<path d="M234.765 54.6506L228.477 70.0064H226.685L228.743 64.9767L224.532 54.6506H226.457L229.734 63.1096L232.974 54.6506H234.765Z" fill="#878B9E"/>
<path d="M222.816 50.9927V65.091H221.082V50.9927H222.816Z" fill="#878B9E"/>
<path d="M209.937 56.5747C210.28 55.9778 210.789 55.4824 211.462 55.0887C212.148 54.6822 212.942 54.479 213.844 54.479C214.771 54.479 215.61 54.7013 216.359 55.1458C217.121 55.5904 217.718 56.2191 218.15 57.0319C218.582 57.8321 218.798 58.7657 218.798 59.8326C218.798 60.8868 218.582 61.8267 218.15 62.6522C217.718 63.4778 217.121 64.1192 216.359 64.5765C215.61 65.0337 214.771 65.2624 213.844 65.2624C212.955 65.2624 212.167 65.0655 211.481 64.6717C210.808 64.2653 210.293 63.7636 209.937 63.1667V70.0444H208.203V54.6505H209.937V56.5747ZM217.026 59.8326C217.026 59.0451 216.867 58.3593 216.55 57.775C216.232 57.1907 215.8 56.7462 215.254 56.4414C214.72 56.1365 214.13 55.9841 213.482 55.9841C212.847 55.9841 212.256 56.1429 211.71 56.4604C211.176 56.7652 210.744 57.2161 210.414 57.8131C210.096 58.3973 209.937 59.0768 209.937 59.8516C209.937 60.6391 210.096 61.3313 210.414 61.9283C210.744 62.5125 211.176 62.9634 211.71 63.2809C212.256 63.5858 212.847 63.7382 213.482 63.7382C214.13 63.7382 214.72 63.5858 215.254 63.2809C215.8 62.9634 216.232 62.5125 216.55 61.9283C216.867 61.3313 217.026 60.6328 217.026 59.8326Z" fill="#878B9E"/>
<path d="M201.129 54.4602C201.942 54.4602 202.666 54.6317 203.301 54.9746C203.937 55.3048 204.438 55.8065 204.807 56.4797C205.175 57.1529 205.359 57.9721 205.359 58.9374V65.0911H203.644V59.1851C203.644 58.1436 203.384 57.3498 202.863 56.8036C202.355 56.2447 201.663 55.9653 200.786 55.9653C199.884 55.9653 199.166 56.2574 198.633 56.8417C198.099 57.4132 197.833 58.2451 197.833 59.3375V65.0911H196.118V59.1851C196.118 58.1436 195.857 57.3498 195.336 56.8036C194.828 56.2447 194.136 55.9653 193.259 55.9653C192.357 55.9653 191.64 56.2574 191.106 56.8417C190.572 57.4132 190.306 58.2451 190.306 59.3375V65.0911H188.572V54.6507H190.306V56.1558C190.649 55.6097 191.106 55.1905 191.678 54.8984C192.262 54.6063 192.904 54.4602 193.602 54.4602C194.479 54.4602 195.254 54.6571 195.927 55.0508C196.6 55.4446 197.102 56.0224 197.432 56.7845C197.725 56.0478 198.207 55.4763 198.881 55.0699C199.554 54.6634 200.303 54.4602 201.129 54.4602Z" fill="#878B9E"/>
<path d="M184.778 52.955C184.448 52.955 184.168 52.8406 183.94 52.612C183.711 52.3834 183.597 52.104 183.597 51.7738C183.597 51.4435 183.711 51.1641 183.94 50.9355C184.168 50.7068 184.448 50.5925 184.778 50.5925C185.096 50.5925 185.362 50.7068 185.578 50.9355C185.807 51.1641 185.921 51.4435 185.921 51.7738C185.921 52.104 185.807 52.3834 185.578 52.612C185.362 52.8406 185.096 52.955 184.778 52.955ZM185.616 54.6506V65.091H183.882V54.6506H185.616Z" fill="#878B9E"/>
<path d="M177.624 65.2624C176.824 65.2624 176.106 65.129 175.471 64.8623C174.836 64.5828 174.334 64.2018 173.966 63.7191C173.597 63.2238 173.394 62.6586 173.356 62.0235H175.147C175.198 62.5443 175.439 62.9698 175.871 63.3C176.316 63.6302 176.894 63.7954 177.605 63.7954C178.266 63.7954 178.787 63.6493 179.168 63.3572C179.549 63.065 179.739 62.6967 179.739 62.2521C179.739 61.7949 179.536 61.4583 179.13 61.2424C178.723 61.0138 178.094 60.7915 177.243 60.5756C176.468 60.3724 175.833 60.1692 175.338 59.966C174.855 59.75 174.436 59.4388 174.08 59.0324C173.737 58.6133 173.565 58.0671 173.565 57.3939C173.565 56.8605 173.724 56.3715 174.042 55.927C174.36 55.4824 174.811 55.1331 175.395 54.8791C175.979 54.6124 176.646 54.479 177.396 54.479C178.552 54.479 179.485 54.7711 180.197 55.3554C180.908 55.9396 181.289 56.7399 181.34 57.756H179.606C179.568 57.2098 179.346 56.7716 178.939 56.4414C178.545 56.1111 178.012 55.946 177.339 55.946C176.716 55.946 176.221 56.0794 175.852 56.3461C175.484 56.6128 175.3 56.9621 175.3 57.3939C175.3 57.7369 175.408 58.0227 175.624 58.2513C175.852 58.4672 176.132 58.645 176.462 58.7847C176.805 58.9117 177.275 59.0578 177.872 59.2229C178.622 59.4261 179.231 59.6294 179.701 59.8326C180.171 60.0231 180.572 60.3152 180.902 60.709C181.245 61.1027 181.423 61.6171 181.435 62.2521C181.435 62.8237 181.277 63.3381 180.959 63.7954C180.641 64.2526 180.19 64.6146 179.606 64.8813C179.034 65.1353 178.374 65.2624 177.624 65.2624Z" fill="#878B9E"/>
<path d="M162.588 65.2624C161.788 65.2624 161.07 65.129 160.435 64.8623C159.8 64.5828 159.298 64.2018 158.929 63.7191C158.561 63.2238 158.358 62.6586 158.32 62.0235H160.111C160.162 62.5443 160.403 62.9698 160.835 63.3C161.28 63.6302 161.858 63.7954 162.569 63.7954C163.23 63.7954 163.75 63.6493 164.132 63.3572C164.513 63.065 164.703 62.6967 164.703 62.2521C164.703 61.7949 164.5 61.4583 164.093 61.2424C163.687 61.0138 163.058 60.7915 162.207 60.5756C161.432 60.3724 160.797 60.1692 160.301 59.966C159.819 59.75 159.399 59.4388 159.044 59.0324C158.701 58.6133 158.529 58.0671 158.529 57.3939C158.529 56.8605 158.688 56.3715 159.006 55.927C159.323 55.4824 159.774 55.1331 160.359 54.8791C160.943 54.6124 161.61 54.479 162.359 54.479C163.515 54.479 164.449 54.7711 165.161 55.3554C165.872 55.9396 166.253 56.7399 166.304 57.756H164.57C164.532 57.2098 164.309 56.7716 163.903 56.4414C163.509 56.1111 162.976 55.946 162.302 55.946C161.68 55.946 161.184 56.0794 160.816 56.3461C160.447 56.6128 160.263 56.9621 160.263 57.3939C160.263 57.7369 160.371 58.0227 160.587 58.2513C160.816 58.4672 161.095 58.645 161.426 58.7847C161.769 58.9117 162.239 59.0578 162.836 59.2229C163.585 59.4261 164.195 59.6294 164.665 59.8326C165.135 60.0231 165.535 60.3152 165.866 60.709C166.209 61.1027 166.386 61.6171 166.399 62.2521C166.399 62.8237 166.24 63.3381 165.923 63.7954C165.605 64.2526 165.154 64.6146 164.57 64.8813C163.998 65.1353 163.338 65.2624 162.588 65.2624Z" fill="#878B9E"/>
<path d="M155.096 52.955C154.766 52.955 154.486 52.8406 154.258 52.612C154.029 52.3834 153.915 52.104 153.915 51.7738C153.915 51.4435 154.029 51.1641 154.258 50.9355C154.486 50.7068 154.766 50.5925 155.096 50.5925C155.414 50.5925 155.681 50.7068 155.897 50.9355C156.125 51.1641 156.24 51.4435 156.24 51.7738C156.24 52.104 156.125 52.3834 155.897 52.612C155.681 52.8406 155.414 52.955 155.096 52.955ZM155.935 54.6506V65.091H154.2V54.6506H155.935Z" fill="#878B9E"/>
<path d="M142.046 54.4602C142.859 54.4602 143.584 54.6317 144.219 54.9746C144.854 55.3048 145.356 55.8065 145.724 56.4797C146.093 57.1529 146.277 57.9721 146.277 58.9374V65.0911H144.562V59.1851C144.562 58.1436 144.301 57.3498 143.78 56.8036C143.272 56.2447 142.58 55.9653 141.703 55.9653C140.801 55.9653 140.084 56.2574 139.55 56.8417C139.017 57.4132 138.75 58.2451 138.75 59.3375V65.0911H137.035V59.1851C137.035 58.1436 136.774 57.3498 136.254 56.8036C135.745 56.2447 135.053 55.9653 134.177 55.9653C133.275 55.9653 132.557 56.2574 132.023 56.8417C131.49 57.4132 131.223 58.2451 131.223 59.3375V65.0911H129.489V54.6507H131.223V56.1558C131.566 55.6097 132.023 55.1905 132.595 54.8984C133.179 54.6063 133.821 54.4602 134.52 54.4602C135.396 54.4602 136.171 54.6571 136.844 55.0508C137.518 55.4446 138.019 56.0224 138.35 56.7845C138.642 56.0478 139.125 55.4763 139.798 55.0699C140.471 54.6634 141.221 54.4602 142.046 54.4602Z" fill="#878B9E"/>
<path d="M126.561 54.6506V65.0911H124.827V63.5478C124.496 64.0813 124.033 64.5004 123.436 64.8052C122.851 65.0974 122.203 65.2434 121.492 65.2434C120.679 65.2434 119.949 65.0784 119.301 64.7481C118.653 64.4052 118.138 63.8971 117.757 63.2239C117.389 62.5508 117.205 61.7316 117.205 60.7663V54.6506H118.92V60.5377C118.92 61.5665 119.18 62.3603 119.701 62.9191C120.222 63.4653 120.933 63.7383 121.835 63.7383C122.762 63.7383 123.493 63.4526 124.026 62.8811C124.56 62.3095 124.827 61.4775 124.827 60.3852V54.6506H126.561Z" fill="#878B9E"/>
<path d="M111.042 65.2624C110.241 65.2624 109.524 65.129 108.889 64.8623C108.253 64.5828 107.752 64.2018 107.383 63.7191C107.015 63.2238 106.812 62.6586 106.773 62.0235H108.565C108.615 62.5443 108.857 62.9698 109.289 63.3C109.733 63.6302 110.311 63.7954 111.023 63.7954C111.683 63.7954 112.204 63.6493 112.585 63.3572C112.966 63.065 113.157 62.6967 113.157 62.2521C113.157 61.7949 112.954 61.4583 112.547 61.2424C112.141 61.0138 111.512 60.7915 110.661 60.5756C109.886 60.3724 109.251 60.1692 108.755 59.966C108.272 59.75 107.853 59.4388 107.498 59.0324C107.155 58.6133 106.983 58.0671 106.983 57.3939C106.983 56.8605 107.142 56.3715 107.459 55.927C107.777 55.4824 108.228 55.1331 108.812 54.8791C109.397 54.6124 110.064 54.479 110.813 54.479C111.969 54.479 112.903 54.7711 113.614 55.3554C114.326 55.9396 114.707 56.7399 114.758 57.756H113.024C112.985 57.2098 112.763 56.7716 112.357 56.4414C111.963 56.1111 111.429 55.946 110.756 55.946C110.134 55.946 109.638 56.0794 109.27 56.3461C108.901 56.6128 108.717 56.9621 108.717 57.3939C108.717 57.7369 108.825 58.0227 109.041 58.2513C109.27 58.4672 109.549 58.645 109.879 58.7847C110.222 58.9117 110.692 59.0578 111.29 59.2229C112.039 59.4261 112.649 59.6294 113.119 59.8326C113.589 60.0231 113.989 60.3152 114.319 60.709C114.662 61.1027 114.84 61.6171 114.853 62.2521C114.853 62.8237 114.694 63.3381 114.376 63.7954C114.059 64.2526 113.608 64.6146 113.024 64.8813C112.452 65.1353 111.791 65.2624 111.042 65.2624Z" fill="#878B9E"/>
<path d="M96.2009 56.5747C96.5439 55.9778 97.052 55.4824 97.7253 55.0887C98.4113 54.6822 99.2053 54.479 100.107 54.479C101.035 54.479 101.873 54.7013 102.623 55.1458C103.385 55.5904 103.982 56.2191 104.414 57.0319C104.846 57.8321 105.062 58.7657 105.062 59.8326C105.062 60.8868 104.846 61.8267 104.414 62.6522C103.982 63.4778 103.385 64.1192 102.623 64.5765C101.873 65.0337 101.035 65.2624 100.107 65.2624C99.218 65.2624 98.4303 65.0655 97.7443 64.6717C97.071 64.2653 96.5566 63.7636 96.2009 63.1667V70.0444H94.4669V54.6505H96.2009V56.5747ZM103.289 59.8326C103.289 59.0451 103.131 58.3593 102.813 57.775C102.495 57.1907 102.063 56.7462 101.517 56.4414C100.984 56.1365 100.393 55.9841 99.7451 55.9841C99.11 55.9841 98.5192 56.1429 97.973 56.4604C97.4394 56.7652 97.0075 57.2161 96.6772 57.8131C96.3596 58.3973 96.2009 59.0768 96.2009 59.8516C96.2009 60.6391 96.3596 61.3313 96.6772 61.9283C97.0075 62.5125 97.4394 62.9634 97.973 63.2809C98.5192 63.5858 99.11 63.7382 99.7451 63.7382C100.393 63.7382 100.984 63.5858 101.517 63.2809C102.063 62.9634 102.495 62.5125 102.813 61.9283C103.131 61.3313 103.289 60.6328 103.289 59.8326Z" fill="#878B9E"/>
<path d="M91.5117 51.8118V65.0909H89.7776V51.8118H91.5117Z" fill="#878B9E"/>
<path d="M77.6234 54.4602C78.4365 54.4602 79.1606 54.6317 79.7958 54.9746C80.431 55.3048 80.9328 55.8065 81.3012 56.4797C81.6696 57.1529 81.8537 57.9721 81.8537 58.9374V65.0911H80.1388V59.1851C80.1388 58.1436 79.8784 57.3498 79.3575 56.8036C78.8494 56.2447 78.1571 55.9653 77.2805 55.9653C76.3786 55.9653 75.6608 56.2574 75.1273 56.8417C74.5937 57.4132 74.3269 58.2451 74.3269 59.3375V65.0911H72.612V59.1851C72.612 58.1436 72.3515 57.3498 71.8307 56.8036C71.3226 56.2447 70.6301 55.9653 69.7536 55.9653C68.8516 55.9653 68.134 56.2574 67.6004 56.8417C67.0669 57.4132 66.8 58.2451 66.8 59.3375V65.0911H65.066V54.6507H66.8V56.1558C67.143 55.6097 67.6004 55.1905 68.172 54.8984C68.7564 54.6063 69.3979 54.4602 70.0966 54.4602C70.9731 54.4602 71.748 54.6571 72.4213 55.0508C73.0946 55.4446 73.5964 56.0224 73.9267 56.7845C74.2189 56.0478 74.7017 55.4763 75.375 55.0699C76.0483 54.6634 76.7977 54.4602 77.6234 54.4602Z" fill="#878B9E"/>
<path d="M62.7762 59.4706C62.7762 59.8008 62.7571 60.1501 62.719 60.5185H54.3728C54.4363 61.5472 54.7856 62.3538 55.4208 62.938C56.0687 63.5096 56.85 63.7954 57.7646 63.7954C58.5141 63.7954 59.1367 63.6239 59.6321 63.2809C60.1402 62.9253 60.4959 62.4554 60.6992 61.8711H62.5666C62.2871 62.8745 61.7282 63.6937 60.8897 64.3288C60.0513 64.9512 59.0096 65.2624 57.7646 65.2624C56.7738 65.2624 55.8845 65.0401 55.0969 64.5955C54.322 64.151 53.7122 63.5223 53.2676 62.7094C52.823 61.8838 52.6006 60.9312 52.6006 59.8516C52.6006 58.772 52.8166 57.8258 53.2485 57.0129C53.6805 56.2 54.2839 55.5777 55.0588 55.1458C55.8464 54.7013 56.7484 54.479 57.7646 54.479C58.7555 54.479 59.6321 54.695 60.3943 55.1268C61.1565 55.5586 61.7409 56.1556 62.1474 56.9177C62.5666 57.667 62.7762 58.518 62.7762 59.4706ZM60.985 59.1086C60.985 58.4482 60.8389 57.883 60.5467 57.413C60.2546 56.9304 59.8544 56.5684 59.3463 56.327C58.8508 56.073 58.2982 55.946 57.6885 55.946C56.8119 55.946 56.0624 56.2254 55.4399 56.7843C54.8301 57.3431 54.4808 58.1179 54.3919 59.1086H60.985Z" fill="#878B9E"/>
<path d="M47.875 56.3464C48.1799 55.7494 48.6117 55.2858 49.1707 54.9556C49.7424 54.6253 50.4347 54.4602 51.2477 54.4602V56.2511H50.7904C48.8468 56.2511 47.875 57.3053 47.875 59.4137V65.0911H46.1409V54.6507H47.875V56.3464Z" fill="#878B9E"/>
<path d="M38.5061 65.2624C37.5279 65.2624 36.6387 65.0401 35.8383 64.5955C35.0507 64.151 34.4282 63.5223 33.9709 62.7094C33.5262 61.8838 33.304 60.9312 33.304 59.8516C33.304 58.7847 33.5326 57.8448 33.99 57.0319C34.46 56.2064 35.0952 55.5777 35.8955 55.1458C36.6958 54.7013 37.5914 54.479 38.5822 54.479C39.5731 54.479 40.4687 54.7013 41.2691 55.1458C42.0694 55.5777 42.6982 56.2 43.1555 57.0129C43.6256 57.8258 43.8606 58.772 43.8606 59.8516C43.8606 60.9312 43.6193 61.8838 43.1365 62.7094C42.6665 63.5223 42.0249 64.151 41.2119 64.5955C40.3989 65.0401 39.4969 65.2624 38.5061 65.2624ZM38.5061 63.7382C39.1285 63.7382 39.7129 63.5921 40.2592 63.3C40.8054 63.0079 41.2437 62.5697 41.574 61.9854C41.917 61.4012 42.0884 60.6899 42.0884 59.8516C42.0884 59.0133 41.9233 58.3021 41.593 57.7178C41.2627 57.1336 40.8308 56.7017 40.2973 56.4223C39.7637 56.1302 39.1857 55.9841 38.5632 55.9841C37.9281 55.9841 37.3437 56.1302 36.8101 56.4223C36.2893 56.7017 35.8701 57.1336 35.5525 57.7178C35.2349 58.3021 35.0761 59.0133 35.0761 59.8516C35.0761 60.7026 35.2285 61.4202 35.5334 62.0045C35.851 62.5888 36.2702 63.027 36.7911 63.3191C37.3119 63.5985 37.8836 63.7382 38.5061 63.7382Z" fill="#878B9E"/>
<path d="M27.4603 63.6811H32.1098V65.0909H25.7263V51.8118H27.4603V63.6811Z" fill="#878B9E"/>
<path d="M30.09 149.627H35.6478V151.205H28.067V135.535H30.09V149.627ZM48.9341 144.426C48.9341 144.856 48.9039 145.226 48.8451 145.537H39.0856C39.1301 146.93 39.5223 147.974 40.2639 148.671C41.0198 149.368 41.9376 149.716 43.0206 149.716C43.9988 149.716 44.8134 149.472 45.466 148.983C46.133 148.479 46.5395 147.812 46.6888 146.982H48.8451C48.6959 147.827 48.3624 148.582 47.8447 149.249C47.3398 149.916 46.6808 150.435 45.8662 150.805C45.05 151.175 44.1321 151.361 43.1095 151.361C41.9376 151.361 40.9007 151.108 39.9972 150.605C39.0921 150.102 38.3806 149.383 37.8629 148.449C37.3579 147.501 37.1071 146.39 37.1071 145.115C37.1071 143.84 37.3579 142.729 37.8629 141.781C38.3806 140.833 39.0921 140.106 39.9972 139.603C40.9007 139.099 41.9376 138.847 43.1095 138.847C44.2941 138.847 45.3247 139.099 46.1996 139.603C47.0889 140.106 47.7622 140.781 48.2227 141.625C48.6959 142.47 48.9341 143.404 48.9341 144.426ZM46.8888 144.559C46.9333 143.656 46.7841 142.9 46.4442 142.292C46.1028 141.684 45.6359 141.233 45.0436 140.936C44.4497 140.639 43.805 140.492 43.1095 140.492C41.9979 140.492 41.0643 140.839 40.3084 141.536C39.5525 142.218 39.1444 143.226 39.0856 144.559H46.8888ZM56.5816 138.847C57.7678 138.847 58.7683 139.144 59.5829 139.736C60.4134 140.328 60.9913 141.122 61.3169 142.114V139.003H63.3399V151.205H61.3169V148.093C60.9913 149.086 60.4134 149.88 59.5829 150.472C58.7683 151.064 57.7678 151.361 56.5816 151.361C55.5002 151.361 54.5363 151.108 53.6916 150.605C52.8468 150.102 52.1798 149.383 51.6907 148.449C51.2159 147.501 50.9793 146.39 50.9793 145.115C50.9793 143.84 51.2159 142.729 51.6907 141.781C52.1798 140.833 52.8468 140.106 53.6916 139.603C54.5363 139.099 55.5002 138.847 56.5816 138.847ZM57.1597 140.647C55.9147 140.647 54.9143 141.048 54.1584 141.848C53.4169 142.634 53.0468 143.723 53.0468 145.115C53.0468 146.507 53.4169 147.605 54.1584 148.405C54.9143 149.191 55.9147 149.583 57.1597 149.583C57.96 149.583 58.6714 149.397 59.2939 149.027C59.9306 148.657 60.4276 148.138 60.7833 147.471C61.139 146.79 61.3169 146.004 61.3169 145.115C61.3169 144.226 61.139 143.44 60.7833 142.759C60.4276 142.078 59.9306 141.559 59.2939 141.203C58.6714 140.833 57.96 140.647 57.1597 140.647ZM68.5833 141.47C68.9835 140.625 69.5678 139.973 70.3396 139.514C71.1097 139.039 72.0292 138.803 73.0963 138.803V141.003H72.4738C71.332 141.003 70.3984 141.3 69.6727 141.892C68.9454 142.47 68.5833 143.434 68.5833 144.782V151.205H66.5603V139.003H68.5833V141.47ZM81.5171 138.803C82.9399 138.803 84.088 139.261 84.9629 140.181C85.8363 141.084 86.2746 142.395 86.2746 144.115V151.205H84.2515V144.293C84.2515 143.078 83.9403 142.145 83.3178 141.492C82.6953 140.84 81.8506 140.514 80.7835 140.514C79.672 140.514 78.7826 140.878 78.1157 141.603C77.4488 142.314 77.1154 143.359 77.1154 144.737V151.205H75.0923V139.003H77.1154V141.892C77.4266 140.9 77.9744 140.136 78.7604 139.603C79.5607 139.069 80.4786 138.803 81.5171 138.803ZM110.565 135.802V151.205H108.542V138.914L103.629 151.205H101.829L96.8932 138.958V151.205H94.8701V135.802H97.2934L102.762 148.738L108.142 135.802H110.565ZM119.337 138.847C120.508 138.847 121.552 139.099 122.472 139.603C123.406 140.106 124.131 140.833 124.651 141.781C125.184 142.729 125.451 143.84 125.451 145.115C125.451 146.39 125.184 147.501 124.651 148.449C124.131 149.383 123.406 150.102 122.472 150.605C121.552 151.108 120.508 151.361 119.337 151.361C118.165 151.361 117.114 151.108 116.18 150.605C115.261 150.102 114.535 149.383 114.002 148.449C113.468 147.501 113.201 146.39 113.201 145.115C113.201 143.84 113.468 142.729 114.002 141.781C114.535 140.833 115.261 140.106 116.18 139.603C117.114 139.099 118.165 138.847 119.337 138.847ZM119.337 140.625C118.61 140.625 117.937 140.789 117.314 141.114C116.706 141.44 116.209 141.945 115.825 142.626C115.453 143.292 115.269 144.123 115.269 145.115C115.269 146.093 115.453 146.923 115.825 147.604C116.209 148.271 116.706 148.768 117.314 149.094C117.937 149.419 118.61 149.583 119.337 149.583C120.063 149.583 120.73 149.419 121.338 149.094C121.961 148.768 122.456 148.271 122.828 147.604C123.212 146.923 123.406 146.093 123.406 145.115C123.406 144.123 123.212 143.292 122.828 142.626C122.456 141.945 121.961 141.44 121.338 141.114C120.73 140.789 120.063 140.625 119.337 140.625ZM130.11 141.47C130.51 140.625 131.094 139.973 131.866 139.514C132.636 139.039 133.556 138.803 134.623 138.803V141.003H134C132.859 141.003 131.925 141.3 131.199 141.892C130.472 142.47 130.11 143.434 130.11 144.782V151.205H128.087V139.003H130.11V141.47ZM147.846 144.426C147.846 144.856 147.815 145.226 147.757 145.537H137.997C138.042 146.93 138.434 147.974 139.175 148.671C139.931 149.368 140.851 149.716 141.932 149.716C142.91 149.716 143.725 149.472 144.378 148.983C145.044 148.479 145.453 147.812 145.6 146.982H147.757C147.609 147.827 147.275 148.582 146.756 149.249C146.253 149.916 145.592 150.435 144.778 150.805C143.963 151.175 143.044 151.361 142.021 151.361C140.851 151.361 139.812 151.108 138.909 150.605C138.005 150.102 137.294 149.383 136.774 148.449C136.271 147.501 136.019 146.39 136.019 145.115C136.019 143.84 136.271 142.729 136.774 141.781C137.294 140.833 138.005 140.106 138.909 139.603C139.812 139.099 140.851 138.847 142.021 138.847C143.207 138.847 144.236 139.099 145.111 139.603C146 140.106 146.675 140.781 147.134 141.625C147.609 142.47 147.846 143.404 147.846 144.426ZM145.8 144.559C145.845 143.656 145.697 142.9 145.356 142.292C145.014 141.684 144.547 141.233 143.955 140.936C143.363 140.639 142.718 140.492 142.021 140.492C140.909 140.492 139.976 140.839 139.22 141.536C138.464 142.218 138.056 143.226 137.997 144.559H145.8Z" fill="#0683DE"/>
<path d="M559.436 64.197C554.434 56.5985 544.665 52.5421 535.182 52.4484C525.699 52.3548 516.504 55.7539 508.379 60.366C499.998 65.1242 492.017 71.9273 490.092 80.9722C488.391 88.958 491.712 97.0487 494.969 104.592C498.508 112.79 502.048 120.987 505.587 129.186C512.719 145.699 521.365 163.736 538.686 170.887C548.937 175.118 560.57 174.732 571.747 174.27C576.945 174.056 582.296 173.807 587.009 171.73C599.844 166.077 602.457 150.156 602.56 136.796C602.685 120.34 601.491 103.372 593.888 88.558C586.285 73.7452 570.974 61.4599 553.524 61.1599L559.436 64.197Z" fill="#EFF5FD"/>
<g opacity="0.7">
<path fill-rule="evenodd" clip-rule="evenodd" d="M537.566 125.984C528.592 125.984 521.162 133.781 521.162 143.599C521.162 153.418 528.592 161.215 537.566 161.215C538.406 161.215 539.259 161.123 540.124 160.945C544.524 160.039 549.077 156.903 552.709 152.591L552.712 152.588C553.545 151.605 554.324 150.565 555.033 149.486M555.035 149.482L555.038 149.476L555.062 149.441L555.148 149.309C555.224 149.195 555.333 149.03 555.472 148.824C555.751 148.411 556.15 147.828 556.632 147.149C557.584 145.807 558.878 144.069 560.223 142.505C560.235 142.491 560.245 142.478 560.254 142.467C560.274 142.443 560.293 142.422 560.304 142.41C561.38 141.166 562.551 139.966 563.648 139.191C563.859 139.042 564.064 138.913 564.256 138.802C566.568 137.269 570.093 135.918 573.225 137.605C576.55 139.393 577.728 143.931 575.761 147.334C575.294 148.143 574.738 148.809 574.095 149.324C571.613 151.307 568.539 150.583 566.166 149.328C564.334 148.36 562.616 146.931 561.32 145.536C560.42 146.657 559.576 147.801 558.898 148.757C558.43 149.416 558.046 149.978 557.777 150.376C557.642 150.576 557.537 150.734 557.468 150.84L557.387 150.962L557.368 150.992L557.361 151L557.358 151.007C556.586 152.182 555.74 153.313 554.833 154.382C550.946 158.997 545.887 162.595 540.685 163.667C539.649 163.879 538.609 163.994 537.566 163.994C526.889 163.994 518.384 154.777 518.384 143.599C518.384 132.422 526.889 123.205 537.566 123.205C543.183 123.205 548.216 125.768 551.707 129.821C552.207 130.402 552.142 131.28 551.559 131.78C550.978 132.28 550.101 132.215 549.599 131.634C546.593 128.141 542.308 125.984 537.566 125.984M563.14 143.408C564.264 144.669 565.834 146.01 567.467 146.874C569.541 147.971 571.216 148.068 572.359 147.153C572.694 146.885 573.034 146.498 573.355 145.945C574.594 143.8 573.755 141.044 571.907 140.052L571.905 140.05C570.174 139.118 567.843 139.747 565.76 141.139L565.719 141.166L565.676 141.192C565.538 141.271 565.396 141.359 565.255 141.459L565.253 141.46C564.632 141.898 563.91 142.578 563.14 143.408Z" fill="#11172C"/>
<path fill-rule="evenodd" clip-rule="evenodd" d="M557.279 127.811C560.578 125.13 564.445 123.205 568.964 123.205C579.642 123.205 588.147 132.422 588.147 143.599C588.147 151.192 584.242 157.846 578.394 161.358C575.612 163.038 572.393 163.994 568.964 163.994C561.981 163.994 555.905 160.034 552.564 154.174C552.185 153.507 552.416 152.659 553.083 152.28C553.75 151.899 554.598 152.132 554.979 152.798C557.876 157.88 563.078 161.215 568.964 161.215C571.867 161.215 574.592 160.407 576.958 158.98L576.961 158.978C581.955 155.979 585.368 150.238 585.368 143.599C585.368 133.781 577.938 125.984 568.964 125.984C565.287 125.984 562.02 127.538 559.032 129.967L559.03 129.969C557.337 131.344 555.754 132.98 554.257 134.736L554.044 134.992C553.674 135.437 553.309 135.881 552.958 136.321C551.953 137.585 551.011 138.92 550.05 140.295C549.988 140.384 549.925 140.473 549.863 140.563C548.969 141.841 548.054 143.153 547.079 144.412L547.078 144.415C546.801 144.769 546.52 145.126 546.228 145.48C544.405 147.693 541.92 150.048 538.778 150.602H538.773C538.155 150.708 537.504 150.749 536.832 150.697C534.677 150.535 532.95 149.233 531.91 147.546C530.87 145.861 530.446 143.699 530.928 141.6V141.598C531.622 138.593 534.236 136.407 537.226 136.569C539.368 136.684 541.283 137.785 542.773 138.858L542.782 138.864L542.792 138.871C543.443 139.356 544.07 139.869 544.64 140.371C545.071 140.747 545.469 141.114 545.826 141.452C546.419 140.639 547.001 139.806 547.594 138.958C547.654 138.874 547.713 138.788 547.773 138.702C548.731 137.332 549.717 135.93 550.784 134.592M544.121 143.669C543.74 143.299 543.297 142.886 542.812 142.465L542.805 142.457C542.29 142.003 541.725 141.541 541.14 141.106C539.77 140.12 538.398 139.414 537.077 139.344C535.597 139.263 534.065 140.369 533.636 142.222C533.325 143.578 533.601 144.996 534.274 146.087C534.946 147.176 535.945 147.846 537.04 147.927H537.043C537.467 147.96 537.887 147.935 538.298 147.865C540.405 147.493 542.341 145.828 544.083 143.715M544.121 143.669C544.108 143.683 544.096 143.7 544.083 143.715L544.121 143.669ZM557.279 127.811C555.321 129.4 553.542 131.271 551.913 133.204L551.586 133.592V133.603C551.318 133.928 551.048 134.258 550.784 134.59" fill="#11172C"/>
<path fill-rule="evenodd" clip-rule="evenodd" d="M556.913 128.267C557.256 127.581 558.092 127.305 558.778 127.648L566.905 131.72L565.831 140.493C565.738 141.255 565.045 141.797 564.283 141.705C563.521 141.611 562.979 140.919 563.073 140.157L563.908 133.327L557.533 130.132C556.847 129.788 556.569 128.953 556.913 128.267Z" fill="#11172C"/>
<path fill-rule="evenodd" clip-rule="evenodd" d="M573.65 146.917C574.382 147.152 574.784 147.933 574.549 148.663L572.571 154.831L578.482 159.037C579.108 159.482 579.254 160.35 578.81 160.974C578.363 161.6 577.496 161.746 576.871 161.301L569.303 155.917L571.904 147.816C572.139 147.085 572.92 146.682 573.65 146.917Z" fill="#11172C"/>
<path fill-rule="evenodd" clip-rule="evenodd" d="M550.447 129.338H550.659C551.426 129.338 552.048 129.959 552.048 130.728C552.048 131.377 551.602 131.922 551 132.074L544.672 134L545.112 141.333C545.158 142.098 544.575 142.757 543.808 142.803C543.043 142.849 542.384 142.265 542.338 141.5L541.766 131.979L550.447 129.338Z" fill="#11172C"/>
<path fill-rule="evenodd" clip-rule="evenodd" d="M537.522 148.285C538.046 147.725 538.924 147.693 539.486 148.217L545.125 153.477L541.709 162.784C541.445 163.505 540.647 163.875 539.926 163.609C539.206 163.346 538.836 162.547 539.1 161.826L541.88 154.252L537.59 150.249C537.029 149.725 536.997 148.846 537.522 148.285Z" fill="#11172C"/>
<path fill-rule="evenodd" clip-rule="evenodd" d="M531.495 86.3147L542.049 93.0972V106.405L531.495 113.187L520.942 106.405V93.0972L531.495 86.3147ZM523.721 94.615V104.887L531.495 109.885L539.27 104.887V94.615L531.495 89.617L523.721 94.615Z" fill="#11172C"/>
<path fill-rule="evenodd" clip-rule="evenodd" d="M553.684 95.1753L564.239 101.958V115.265L553.684 122.048L543.13 115.265V101.958L553.684 95.1753ZM545.909 103.476V113.748L553.684 118.746L561.46 113.748V103.476L553.684 98.4776L545.909 103.476Z" fill="#11172C"/>
<path fill-rule="evenodd" clip-rule="evenodd" d="M575.453 86.3147L586.008 93.0972V106.405L575.453 113.187L564.899 106.405V93.0972L575.453 86.3147ZM567.678 94.615V104.887L575.453 109.885L583.229 104.887V94.615L575.453 89.617L567.678 94.615Z" fill="#11172C"/>
<path fill-rule="evenodd" clip-rule="evenodd" d="M525.918 95.6802C525.918 94.9118 526.541 94.291 527.308 94.291H535.598C536.365 94.291 536.988 94.9118 536.988 95.6802C536.988 96.447 536.365 97.0694 535.598 97.0694H527.308C526.541 97.0694 525.918 96.447 525.918 95.6802Z" fill="#11172C"/>
<path fill-rule="evenodd" clip-rule="evenodd" d="M525.918 100.073C525.918 99.3049 526.541 98.6841 527.308 98.6841H535.598C536.365 98.6841 536.988 99.3049 536.988 100.073C536.988 100.84 536.365 101.462 535.598 101.462H527.308C526.541 101.462 525.918 100.84 525.918 100.073Z" fill="#11172C"/>
<path fill-rule="evenodd" clip-rule="evenodd" d="M525.918 104.414C525.918 103.647 526.541 103.025 527.308 103.025H533.023C533.79 103.025 534.412 103.647 534.412 104.414C534.412 105.182 533.79 105.803 533.023 105.803H527.308C526.541 105.803 525.918 105.182 525.918 104.414Z" fill="#11172C"/>
<path fill-rule="evenodd" clip-rule="evenodd" d="M548.037 104.414C548.037 103.647 548.659 103.025 549.426 103.025H555.572C556.34 103.025 556.961 103.647 556.961 104.414C556.961 105.182 556.34 105.803 555.572 105.803H549.426C548.659 105.803 548.037 105.182 548.037 104.414Z" fill="#11172C"/>
<path fill-rule="evenodd" clip-rule="evenodd" d="M549.782 109.204C549.782 108.437 550.404 107.815 551.171 107.815H557.711C558.479 107.815 559.1 108.437 559.1 109.204C559.1 109.971 558.479 110.593 557.711 110.593H551.171C550.404 110.593 549.782 109.971 549.782 109.204Z" fill="#11172C"/>
<path fill-rule="evenodd" clip-rule="evenodd" d="M548.037 113.522C548.037 112.755 548.659 112.133 549.426 112.133H557.272C558.039 112.133 558.662 112.755 558.662 113.522C558.662 114.291 558.039 114.911 557.272 114.911H549.426C548.659 114.911 548.037 114.291 548.037 113.522Z" fill="#11172C"/>
<path fill-rule="evenodd" clip-rule="evenodd" d="M570.297 97.5442C570.297 96.7774 570.919 96.155 571.686 96.155H579.64C580.407 96.155 581.03 96.7774 581.03 97.5442C581.03 98.3126 580.407 98.9334 579.64 98.9334H571.686C570.919 98.9334 570.297 98.3126 570.297 97.5442Z" fill="#11172C"/>
<path fill-rule="evenodd" clip-rule="evenodd" d="M569.877 102.209C569.877 101.442 570.498 100.819 571.267 100.819H577.128C577.895 100.819 578.517 101.442 578.517 102.209C578.517 102.975 577.895 103.598 577.128 103.598H571.267C570.498 103.598 569.877 102.975 569.877 102.209Z" fill="#11172C"/>
<path fill-rule="evenodd" clip-rule="evenodd" d="M531.495 112.684C532.262 112.684 532.885 113.306 532.885 114.073V121.834C532.885 122.601 532.262 123.223 531.495 123.223C530.727 123.223 530.106 122.601 530.106 121.834V114.073C530.106 113.306 530.727 112.684 531.495 112.684Z" fill="#11172C"/>
<path fill-rule="evenodd" clip-rule="evenodd" d="M553.474 121.848C554.241 121.848 554.863 122.47 554.863 123.237V128.802C554.863 129.569 554.241 130.191 553.474 130.191C552.707 130.191 552.084 129.569 552.084 128.802V123.237C552.084 122.47 552.707 121.848 553.474 121.848Z" fill="#11172C"/>
<path fill-rule="evenodd" clip-rule="evenodd" d="M575.662 112.684C576.429 112.684 577.052 113.306 577.052 114.073V121.834C577.052 122.601 576.429 123.223 575.662 123.223C574.895 123.223 574.273 122.601 574.273 121.834V114.073C574.273 113.306 574.895 112.684 575.662 112.684Z" fill="#11172C"/>
</g>
</svg>
