<svg width="802" height="284" viewBox="0 0 802 284" fill="none" xmlns="http://www.w3.org/2000/svg">
<g filter="url(#filter0_d_2067_488)">
<path d="M787.691 0.430664H14.3621C7.34615 0.430664 1.65857 6.11719 1.65857 13.1319V268.744C1.65857 275.758 7.34615 281.445 14.3621 281.445H787.691C794.707 281.445 800.395 275.758 800.395 268.744V13.1319C800.395 6.11719 794.707 0.430664 787.691 0.430664Z" fill="white"/>
<path d="M145.594 82.4186C140.8 73.1785 129.515 66.8072 117.871 64.7846C106.228 62.7603 94.3163 64.5798 83.5031 67.9281C72.3488 71.3829 61.3235 77.1333 57.3416 86.537C53.8265 94.8388 56.4643 104.274 59.1223 113.102C62.0111 122.696 64.8999 132.29 67.7888 141.886C73.6079 161.212 81.0205 182.495 101.04 193.748C112.886 200.406 127.26 202.345 141.084 204.109C147.512 204.93 154.137 205.743 160.302 204.45C177.093 200.927 183.146 184.216 185.656 169.77C188.748 151.977 190.307 133.36 183.605 115.778C176.9 98.1983 160.268 81.7931 138.868 77.9335L145.594 82.4186Z" fill="#EFF5FD"/>
<mask id="mask0_2067_488" style="mask-type:luminance" maskUnits="userSpaceOnUse" x="85" y="102" width="76" height="80">
<path d="M160.453 102.04H85.8197V181.423H160.453V102.04Z" fill="white"/>
</mask>
<g mask="url(#mask0_2067_488)">
<path fill-rule="evenodd" clip-rule="evenodd" d="M98.5675 108.391C96.8697 108.391 95.6359 109.677 95.6359 111.096V128.243C95.6363 128.267 95.6363 128.29 95.6359 128.313V142.184L114.344 155.841C119.858 152.535 126.864 152.472 132.43 155.631L150.78 142.205V128.941C150.595 128.537 150.58 128.054 150.78 127.616V111.096C150.78 109.677 149.547 108.391 147.849 108.391H98.5675ZM153.956 127.376V111.096C153.956 107.772 151.146 105.216 147.849 105.216H98.5675C95.2714 105.216 92.46 107.772 92.46 111.096V127.297C88.7995 129.259 87.0816 131.925 86.3375 134.249C85.9437 135.478 85.8327 136.578 85.8208 137.377C85.8157 137.726 85.8292 138.02 85.8471 138.247C85.849 138.283 85.8522 138.32 85.8565 138.356C85.8659 138.456 85.8759 138.542 85.8846 138.607V177.47C85.8846 178.619 86.3905 179.646 87.1856 180.356C87.9285 181.035 88.9085 181.423 89.9696 181.423H156.368C157.55 181.423 158.628 180.932 159.384 180.135C160.048 179.438 160.453 178.5 160.453 177.47V136.904H160.434C160.389 136.167 160.256 135.251 159.935 134.249C159.2 131.955 157.518 129.329 153.956 127.376ZM153.956 131.151V136.904H157.25C157.207 136.422 157.11 135.843 156.91 135.216C156.516 133.985 155.698 132.49 153.956 131.151ZM157.277 141.385L153.307 144.291L135.179 157.556L157.277 176.16V141.385ZM154.825 178.247L133.018 159.886L133.013 159.883C132.576 159.513 132.119 159.173 131.654 158.877L131.641 158.867C126.698 155.628 120.073 155.692 115.191 159.07L115.179 159.078C114.856 159.297 114.54 159.537 114.225 159.796M111.649 157.805L89.0605 176.45V141.317L93.1115 144.273L111.649 157.805ZM92.46 136.904V131.042C90.6188 132.409 89.7671 133.952 89.3622 135.216C89.1613 135.843 89.0646 136.422 89.023 136.904H92.46ZM113.655 124.675C113.655 119.881 117.725 116.129 122.569 116.129C127.414 116.129 131.484 119.881 131.484 124.675C131.484 129.47 127.414 133.22 122.569 133.22C117.725 133.22 113.655 129.47 113.655 124.675ZM122.569 119.304C119.323 119.304 116.831 121.786 116.831 124.675C116.831 127.565 119.323 130.045 122.569 130.045C125.815 130.045 128.308 127.565 128.308 124.675C128.308 121.786 125.815 119.304 122.569 119.304ZM115.572 132.872L115.564 132.884L115.529 132.926C115.497 132.968 115.448 133.03 115.386 133.111C115.261 133.274 115.081 133.514 114.868 133.812C114.441 134.414 113.891 135.24 113.388 136.156C112.88 137.08 112.451 138.04 112.226 138.913C112.003 139.782 112.027 140.38 112.173 140.76C112.247 140.906 112.279 140.989 112.305 141.055C112.344 141.157 112.371 141.227 112.519 141.447C112.697 141.716 113.022 142.101 113.64 142.508C114.89 143.333 117.441 144.307 122.569 144.362C127.698 144.307 130.248 143.333 131.5 142.508C132.116 142.101 132.441 141.716 132.621 141.447C132.767 141.227 132.794 141.157 132.833 141.055C132.86 140.989 132.891 140.906 132.967 140.76C133.111 140.38 133.137 139.782 132.913 138.913C132.687 138.04 132.259 137.08 131.75 136.156C131.247 135.24 130.698 134.414 130.271 133.812C130.058 133.514 129.878 133.274 129.753 133.111C129.691 133.03 129.642 132.968 129.61 132.926L129.575 132.884L129.567 132.874M129.567 132.874C129.014 132.193 129.116 131.193 129.796 130.64C130.477 130.086 131.476 130.189 132.03 130.869L130.798 131.871C132.03 130.869 132.03 130.869 132.03 130.869L132.033 130.872L132.036 130.877L132.051 130.894L132.1 130.956C132.141 131.009 132.2 131.083 132.271 131.177C132.417 131.367 132.621 131.637 132.859 131.972C133.332 132.639 133.955 133.573 134.534 134.627C135.107 135.671 135.671 136.891 135.989 138.123C136.298 139.328 136.425 140.749 135.868 142.051L135.844 142.109L135.814 142.165C135.92 141.965 135.589 142.721 135.263 143.21C134.855 143.819 134.229 144.512 133.246 145.159C131.301 146.442 128.068 147.48 122.586 147.538H122.569H122.552C117.071 147.48 113.838 146.442 111.892 145.159C110.91 144.512 110.283 143.819 109.876 143.21C109.551 142.721 109.219 141.965 109.325 142.165L109.295 142.109L109.27 142.051C108.713 140.749 108.84 139.328 109.15 138.123C109.467 136.891 110.031 135.671 110.605 134.627C111.184 133.573 111.806 132.639 112.28 131.972C112.518 131.637 112.721 131.367 112.867 131.177C112.939 131.083 112.998 131.009 113.039 130.956L113.088 130.894L113.102 130.877L113.106 130.872L113.108 130.87C113.108 130.87 113.109 130.869 114.257 131.802L113.109 130.869C113.662 130.189 114.662 130.086 115.343 130.64C116.023 131.193 116.125 132.193 115.572 132.872" fill="#424B66"/>
</g>
<path d="M636.839 54.052C638.621 54.052 640.061 54.6188 641.158 55.7524C642.256 56.8685 642.805 58.434 642.805 60.4487V69.2204H639.026V60.9615C639.026 59.7739 638.729 58.8658 638.135 58.2355C637.541 57.5877 636.731 57.2638 635.705 57.2638C634.662 57.2638 633.833 57.5877 633.222 58.2355C632.628 58.8658 632.331 59.7739 632.331 60.9615V69.2204H628.552V54.2679H632.331V56.1303C632.834 55.4825 633.474 54.9792 634.248 54.6188C635.04 54.241 635.904 54.052 636.839 54.052Z" fill="#424B66"/>
<path d="M617.977 69.4632C616.539 69.4632 615.243 69.1489 614.09 68.5186C612.939 67.8708 612.031 66.9627 611.364 65.7926C610.716 64.6225 610.392 63.273 610.392 61.7441C610.392 60.2152 610.725 58.8657 611.391 57.6956C612.075 56.5255 613.002 55.6268 614.171 54.9965C615.341 54.3488 616.647 54.0249 618.087 54.0249C619.526 54.0249 620.831 54.3488 622 54.9965C623.17 55.6268 624.088 56.5255 624.753 57.6956C625.438 58.8657 625.781 60.2152 625.781 61.7441C625.781 63.273 625.428 64.6225 624.726 65.7926C624.043 66.9627 623.108 67.8708 621.92 68.5186C620.75 69.1489 619.435 69.4632 617.977 69.4632ZM617.977 66.1705C618.662 66.1705 619.3 66.0085 619.894 65.6846C620.507 65.3433 620.993 64.8384 621.352 64.1732C621.712 63.5079 621.893 62.6982 621.893 61.7441C621.893 60.3231 621.514 59.234 620.758 58.4783C620.021 57.7051 619.113 57.3177 618.033 57.3177C616.953 57.3177 616.043 57.7051 615.305 58.4783C614.586 59.234 614.227 60.3231 614.227 61.7441C614.227 63.165 614.576 64.2637 615.278 65.0369C615.999 65.7926 616.898 66.1705 617.977 66.1705Z" fill="#424B66"/>
<path d="M605.741 52.4864C605.075 52.4864 604.517 52.28 604.067 51.8657C603.635 51.4338 603.419 50.9036 603.419 50.2733C603.419 49.643 603.635 49.1222 604.067 48.7078C604.517 48.276 605.075 48.0601 605.741 48.0601C606.406 48.0601 606.956 48.276 607.388 48.7078C607.837 49.1222 608.062 49.643 608.062 50.2733C608.062 50.9036 607.837 51.4338 607.388 51.8657C606.956 52.28 606.406 52.4864 605.741 52.4864ZM607.603 54.2678V69.2203H603.824V54.2678H607.603Z" fill="#424B66"/>
<path d="M597.758 57.3718V64.6051C597.758 65.1084 597.876 65.4784 598.109 65.7118C598.362 65.9277 598.775 66.0356 599.351 66.0356H601.106V69.2205H598.73C595.545 69.2205 593.952 67.6725 593.952 64.5781V57.3718H592.17V54.268H593.952V50.5703H597.758V54.268H601.106V57.3718H597.758Z" fill="#424B66"/>
<path d="M574.091 61.6901C574.091 60.1786 574.388 58.8387 574.982 57.6686C575.594 56.4985 576.413 55.5999 577.439 54.9696C578.482 54.3393 579.643 54.0249 580.921 54.0249C582.036 54.0249 583.008 54.2504 583.837 54.6997C584.681 55.149 585.356 55.7158 585.861 56.4V54.2678H589.668V69.2203H585.861V67.0341C585.375 67.7359 584.701 68.3201 583.837 68.7885C582.99 69.2378 582.009 69.4632 580.894 69.4632C579.633 69.4632 578.482 69.1393 577.439 68.4916C576.413 67.8438 575.594 66.9357 574.982 65.7656C574.388 64.578 574.091 63.219 574.091 61.6901ZM585.861 61.7441C585.861 60.8264 585.68 60.0437 585.321 59.396C584.961 58.7307 584.475 58.2258 583.864 57.8845C583.251 57.5241 582.595 57.3447 581.893 57.3447C581.191 57.3447 580.543 57.5161 579.949 57.8575C579.356 58.1988 578.87 58.7037 578.492 59.3689C578.131 60.0167 577.952 60.7899 577.952 61.6901C577.952 62.5903 578.131 63.3809 578.492 64.0652C578.87 64.7304 579.356 65.2432 579.949 65.6036C580.561 65.964 581.209 66.1435 581.893 66.1435C582.595 66.1435 583.251 65.972 583.864 65.6306C584.475 65.2702 584.961 64.7669 585.321 64.1192C585.68 63.454 585.861 62.6617 585.861 61.7441Z" fill="#424B66"/>
<path d="M565.469 66.1164H572.137V69.2203H561.177V66.1705L567.71 57.3717H561.204V54.2678H572.056V57.3177L565.469 66.1164Z" fill="#424B66"/>
<path d="M556.416 52.4864C555.751 52.4864 555.193 52.28 554.742 51.8657C554.31 51.4338 554.095 50.9036 554.095 50.2733C554.095 49.643 554.31 49.1222 554.742 48.7078C555.193 48.276 555.751 48.0601 556.416 48.0601C557.083 48.0601 557.631 48.276 558.063 48.7078C558.514 49.1222 558.738 49.643 558.738 50.2733C558.738 50.9036 558.514 51.4338 558.063 51.8657C557.631 52.28 557.083 52.4864 556.416 52.4864ZM558.279 54.2678V69.2203H554.499V54.2678H558.279Z" fill="#424B66"/>
<path d="M544.94 54.052C546.722 54.052 548.162 54.6188 549.259 55.7524C550.356 56.8685 550.906 58.434 550.906 60.4487V69.2204H547.127V60.9615C547.127 59.7739 546.83 58.8658 546.236 58.2355C545.642 57.5877 544.832 57.2638 543.806 57.2638C542.763 57.2638 541.934 57.5877 541.323 58.2355C540.729 58.8658 540.432 59.7739 540.432 60.9615V69.2204H536.653V54.2679H540.432V56.1303C540.935 55.4825 541.575 54.9792 542.348 54.6188C543.141 54.241 544.005 54.052 544.94 54.052Z" fill="#424B66"/>
<path d="M517.386 61.6901C517.386 60.1786 517.683 58.8387 518.277 57.6686C518.888 56.4985 519.708 55.5999 520.733 54.9696C521.777 54.3393 522.937 54.0249 524.216 54.0249C525.33 54.0249 526.302 54.2504 527.131 54.6997C527.976 55.149 528.651 55.7158 529.156 56.4V54.2678H532.962V69.2203H529.156V67.0341C528.67 67.7359 527.995 68.3201 527.131 68.7885C526.285 69.2378 525.303 69.4632 524.189 69.4632C522.928 69.4632 521.777 69.1393 520.733 68.4916C519.708 67.8438 518.888 66.9357 518.277 65.7656C517.683 64.578 517.386 63.219 517.386 61.6901ZM529.156 61.7441C529.156 60.8264 528.975 60.0437 528.616 59.396C528.255 58.7307 527.77 58.2258 527.158 57.8845C526.545 57.5241 525.889 57.3447 525.188 57.3447C524.486 57.3447 523.838 57.5161 523.244 57.8575C522.65 58.1988 522.164 58.7037 521.786 59.3689C521.426 60.0167 521.246 60.7899 521.246 61.6901C521.246 62.5903 521.426 63.3809 521.786 64.0652C522.164 64.7304 522.65 65.2432 523.244 65.6036C523.855 65.964 524.503 66.1435 525.188 66.1435C525.889 66.1435 526.545 65.972 527.158 65.6306C527.77 65.2702 528.255 64.7669 528.616 64.1192C528.975 63.454 529.156 62.6617 529.156 61.7441Z" fill="#424B66"/>
<path d="M505.919 54.0249C507.036 54.0249 508.017 54.2504 508.862 54.6997C509.708 55.1315 510.374 55.6983 510.86 56.4V54.2678H514.666V69.3283C514.666 70.7143 514.388 71.9463 513.829 73.0259C513.272 74.123 512.435 74.9867 511.318 75.617C510.204 76.2647 508.854 76.5886 507.269 76.5886C505.146 76.5886 503.401 76.0933 502.032 75.1042C500.682 74.115 499.919 72.7656 499.738 71.0557H503.49C503.688 71.7399 504.111 72.2797 504.759 72.675C505.426 73.0894 506.226 73.2958 507.161 73.2958C508.26 73.2958 509.151 72.9624 509.834 72.2972C510.518 71.6494 510.86 70.6603 510.86 69.3283V67.0071C510.374 67.7089 509.699 68.2931 508.835 68.7615C507.99 69.2299 507.018 69.4632 505.919 69.4632C504.66 69.4632 503.509 69.1393 502.464 68.4916C501.421 67.8438 500.594 66.9357 499.981 65.7656C499.387 64.578 499.09 63.219 499.09 61.6901C499.09 60.1786 499.387 58.8387 499.981 57.6686C500.594 56.4985 501.411 55.5999 502.437 54.9696C503.482 54.3393 504.643 54.0249 505.919 54.0249ZM510.86 61.7441C510.86 60.8264 510.68 60.0437 510.32 59.396C509.961 58.7307 509.475 58.2258 508.862 57.8845C508.251 57.5241 507.593 57.3447 506.891 57.3447C506.189 57.3447 505.542 57.5161 504.948 57.8575C504.354 58.1988 503.868 58.7037 503.49 59.3689C503.131 60.0167 502.95 60.7899 502.95 61.6901C502.95 62.5903 503.131 63.3809 503.49 64.0652C503.868 64.7304 504.354 65.2432 504.948 65.6036C505.561 65.964 506.208 66.1435 506.891 66.1435C507.593 66.1435 508.251 65.972 508.862 65.6306C509.475 65.2702 509.961 64.7669 510.32 64.1192C510.68 63.454 510.86 62.6617 510.86 61.7441Z" fill="#424B66"/>
<path d="M492.927 56.5891C493.413 55.7969 494.043 55.1761 494.817 54.7268C495.609 54.2775 496.508 54.052 497.516 54.052V58.0196H496.517C495.329 58.0196 494.429 58.299 493.818 58.8562C493.224 59.4135 492.927 60.3851 492.927 61.7712V69.2204H489.148V54.2679H492.927V56.5891Z" fill="#424B66"/>
<path d="M476.698 69.4092C474.935 69.4092 473.316 68.9949 471.839 68.1677C470.364 67.3405 469.193 66.1974 468.33 64.74C467.466 63.265 467.034 61.5996 467.034 59.7468C467.034 57.9115 467.466 56.2651 468.33 54.8076C469.193 53.3327 470.364 52.1801 471.839 51.3529C473.316 50.5257 474.935 50.1113 476.698 50.1113C478.48 50.1113 480.099 50.5257 481.557 51.3529C483.034 52.1801 484.195 53.3327 485.04 54.8076C485.903 56.2651 486.335 57.9115 486.335 59.7468C486.335 61.5996 485.903 63.265 485.04 64.74C484.195 66.1974 483.034 67.3405 481.557 68.1677C480.082 68.9949 478.462 69.4092 476.698 69.4092ZM476.698 66.0355C477.832 66.0355 478.831 65.783 479.695 65.2798C480.558 64.7574 481.233 64.0207 481.719 63.0666C482.205 62.1124 482.448 61.0058 482.448 59.7468C482.448 58.4878 482.205 57.3891 481.719 56.454C481.233 55.4998 480.558 54.7711 479.695 54.2678C478.831 53.7645 477.832 53.5121 476.698 53.5121C475.564 53.5121 474.558 53.7645 473.675 54.2678C472.811 54.7711 472.136 55.4998 471.65 56.454C471.164 57.3891 470.921 58.4878 470.921 59.7468C470.921 61.0058 471.164 62.1124 471.65 63.0666C472.136 64.0207 472.811 64.7574 473.675 65.2798C474.558 65.783 475.564 66.0355 476.698 66.0355Z" fill="#424B66"/>
<path d="M458.762 61.4202C458.762 61.96 458.726 62.4458 458.654 62.8777H447.721C447.81 63.9573 448.188 64.8035 448.855 65.4147C449.52 66.026 450.34 66.3324 451.312 66.3324C452.715 66.3324 453.714 65.7291 454.308 64.524H458.384C457.952 65.964 457.123 67.1516 455.901 68.0868C454.676 69.0044 453.174 69.4632 451.393 69.4632C449.952 69.4632 448.657 69.1489 447.505 68.5186C446.371 67.8708 445.481 66.9627 444.833 65.7926C444.202 64.6225 443.888 63.273 443.888 61.7441C443.888 60.1961 444.202 58.8387 444.833 57.6686C445.462 56.4985 446.344 55.5999 447.478 54.9696C448.612 54.3393 449.916 54.0249 451.393 54.0249C452.814 54.0249 454.083 54.3313 455.199 54.9426C456.333 55.5538 457.204 56.427 457.817 57.5606C458.446 58.6768 458.762 59.9627 458.762 61.4202ZM454.848 60.3406C454.829 59.3689 454.478 58.5958 453.795 58.0195C453.111 57.4257 452.274 57.1288 451.285 57.1288C450.348 57.1288 449.557 57.4162 448.909 57.9925C448.279 58.5497 447.891 59.3324 447.748 60.3406H454.848Z" fill="#424B66"/>
<path d="M435.434 54.052C436.568 54.052 437.576 54.3045 438.457 54.8078C439.339 55.2936 440.023 56.0224 440.509 56.994C441.012 57.9482 441.265 59.0992 441.265 60.4487V69.2205H437.485V60.9615C437.485 59.774 437.188 58.8658 436.595 58.2355C436.001 57.5877 435.191 57.2639 434.165 57.2639C433.122 57.2639 432.293 57.5877 431.681 58.2355C431.088 58.8658 430.791 59.774 430.791 60.9615V69.2205H427.011V49.2478H430.791V56.1303C431.277 55.4825 431.924 54.9793 432.734 54.6189C433.544 54.241 434.444 54.052 435.434 54.052Z" fill="#424B66"/>
<path d="M420.945 57.3718V64.6051C420.945 65.1084 421.063 65.4784 421.296 65.7118C421.549 65.9277 421.963 66.0356 422.538 66.0356H424.293V69.2205H421.917C418.732 69.2205 417.139 67.6725 417.139 64.5781V57.3718H415.357V54.268H417.139V50.5703H420.945V54.268H424.293V57.3718H420.945Z" fill="#424B66"/>
<path d="M399.54 69.4632C398.1 69.4632 396.804 69.1489 395.653 68.5186C394.501 67.8708 393.591 66.9627 392.926 65.7926C392.278 64.6225 391.954 63.273 391.954 61.7441C391.954 60.2152 392.288 58.8657 392.953 57.6956C393.638 56.5255 394.563 55.6268 395.734 54.9965C396.904 54.3488 398.208 54.0249 399.648 54.0249C401.088 54.0249 402.392 54.3488 403.562 54.9965C404.732 55.6268 405.65 56.5255 406.316 57.6956C407 58.8657 407.341 60.2152 407.341 61.7441C407.341 63.273 406.99 64.6225 406.289 65.7926C405.604 66.9627 404.669 67.8708 403.481 68.5186C402.311 69.1489 400.998 69.4632 399.54 69.4632ZM399.54 66.1705C400.224 66.1705 400.863 66.0085 401.457 65.6846C402.068 65.3433 402.554 64.8384 402.914 64.1732C403.275 63.5079 403.454 62.6982 403.454 61.7441C403.454 60.3231 403.076 59.234 402.32 58.4783C401.582 57.7051 400.674 57.3177 399.594 57.3177C398.514 57.3177 397.606 57.7051 396.867 58.4783C396.148 59.234 395.788 60.3231 395.788 61.7441C395.788 63.165 396.139 64.2637 396.84 65.0369C397.56 65.7926 398.46 66.1705 399.54 66.1705Z" fill="#424B66"/>
<path d="M386.833 57.3718V64.6051C386.833 65.1084 386.949 65.4784 387.184 65.7118C387.435 65.9277 387.849 66.0356 388.426 66.0356H390.181V69.2205H387.805C384.62 69.2205 383.027 67.6725 383.027 64.5781V57.3718H381.245V54.268H383.027V50.5703H386.833V54.268H390.181V57.3718H386.833Z" fill="#424B66"/>
<path d="M367.014 69.4632C365.79 69.4632 364.692 69.2473 363.721 68.8155C362.749 68.3662 361.974 67.7628 361.399 67.0071C360.84 66.2514 360.535 65.4147 360.481 64.4971H364.287C364.359 65.0734 364.638 65.5497 365.124 65.9275C365.628 66.3054 366.249 66.4943 366.987 66.4943C367.706 66.4943 368.264 66.3498 368.661 66.0625C369.074 65.7751 369.282 65.4052 369.282 64.9559C369.282 64.4701 369.029 64.1097 368.526 63.8763C368.04 63.6239 367.257 63.3539 366.177 63.0666C365.061 62.7967 364.143 62.5172 363.424 62.2299C362.722 61.9425 362.109 61.5012 361.588 60.9074C361.083 60.3136 360.832 59.5134 360.832 58.5053C360.832 57.6781 361.066 56.9224 361.534 56.2381C362.02 55.5538 362.703 55.014 363.586 54.6187C364.484 54.2234 365.537 54.0249 366.744 54.0249C368.526 54.0249 369.947 54.4742 371.009 55.3744C372.07 56.2556 372.656 57.4527 372.764 58.9641H369.147C369.093 58.3703 368.84 57.902 368.391 57.5606C367.959 57.2002 367.373 57.0208 366.636 57.0208C365.952 57.0208 365.421 57.1462 365.043 57.3987C364.683 57.6511 364.503 58.002 364.503 58.4513C364.503 58.9546 364.754 59.342 365.259 59.6119C365.763 59.8643 366.546 60.1247 367.608 60.3946C368.688 60.6645 369.579 60.9439 370.28 61.2313C370.982 61.5186 371.584 61.9695 372.089 62.5808C372.61 63.1745 372.88 63.9668 372.899 64.9559C372.899 65.8196 372.656 66.5928 372.17 67.277C371.702 67.9613 371.017 68.5011 370.118 68.8964C369.236 69.2743 368.202 69.4632 367.014 69.4632Z" fill="#424B66"/>
<path d="M354.155 56.5891C354.641 55.7969 355.271 55.1761 356.044 54.7268C356.837 54.2775 357.737 54.052 358.744 54.052V58.0196H357.745C356.557 58.0196 355.659 58.299 355.046 58.8562C354.452 59.4135 354.155 60.3851 354.155 61.7712V69.2204H350.375V54.2679H354.155V56.5891Z" fill="#424B66"/>
<path d="M347.617 61.4202C347.617 61.96 347.582 62.4458 347.509 62.8777H336.576C336.667 63.9573 337.045 64.8035 337.71 65.4147C338.377 66.026 339.195 66.3324 340.167 66.3324C341.57 66.3324 342.569 65.7291 343.163 64.524H347.239C346.807 65.964 345.98 67.1516 344.756 68.0868C343.533 69.0044 342.029 69.4632 340.248 69.4632C338.809 69.4632 337.513 69.1489 336.36 68.5186C335.226 67.8708 334.336 66.9627 333.688 65.7926C333.059 64.6225 332.743 63.273 332.743 61.7441C332.743 60.1961 333.059 58.8387 333.688 57.6686C334.318 56.4985 335.199 55.5999 336.333 54.9696C337.467 54.3393 338.772 54.0249 340.248 54.0249C341.67 54.0249 342.939 54.3313 344.054 54.9426C345.188 55.5538 346.061 56.427 346.672 57.5606C347.303 58.6768 347.617 59.9627 347.617 61.4202ZM343.703 60.3406C343.685 59.3689 343.335 58.5958 342.65 58.0195C341.967 57.4257 341.13 57.1288 340.14 57.1288C339.204 57.1288 338.412 57.4162 337.764 57.9925C337.135 58.5497 336.748 59.3324 336.603 60.3406H343.703Z" fill="#424B66"/>
<path d="M324.729 69.4632C323.504 69.4632 322.407 69.2473 321.435 68.8155C320.463 68.3662 319.688 67.7628 319.114 67.0071C318.555 66.2514 318.25 65.4147 318.196 64.4971H322.002C322.074 65.0734 322.353 65.5497 322.839 65.9275C323.342 66.3054 323.963 66.4943 324.702 66.4943C325.421 66.4943 325.978 66.3498 326.375 66.0625C326.788 65.7751 326.996 65.4052 326.996 64.9559C326.996 64.4701 326.744 64.1097 326.24 63.8763C325.754 63.6239 324.972 63.3539 323.892 63.0666C322.775 62.7967 321.858 62.5172 321.138 62.2299C320.436 61.9425 319.823 61.5012 319.303 60.9074C318.798 60.3136 318.547 59.5134 318.547 58.5053C318.547 57.6781 318.78 56.9224 319.249 56.2381C319.735 55.5538 320.417 55.014 321.3 54.6187C322.199 54.2234 323.252 54.0249 324.459 54.0249C326.24 54.0249 327.662 54.4742 328.724 55.3744C329.785 56.2556 330.371 57.4527 330.479 58.9641H326.861C326.807 58.3703 326.555 57.902 326.105 57.5606C325.673 57.2002 325.087 57.0208 324.351 57.0208C323.666 57.0208 323.136 57.1462 322.758 57.3987C322.398 57.6511 322.218 58.002 322.218 58.4513C322.218 58.9546 322.469 59.342 322.974 59.6119C323.477 59.8643 324.26 60.1247 325.323 60.3946C326.402 60.6645 327.293 60.9439 327.995 61.2313C328.697 61.5186 329.299 61.9695 329.804 62.5808C330.325 63.1745 330.594 63.9668 330.614 64.9559C330.614 65.8196 330.371 66.5928 329.885 67.277C329.416 67.9613 328.732 68.5011 327.833 68.8964C326.95 69.2743 325.916 69.4632 324.729 69.4632Z" fill="#424B66"/>
<path d="M303.907 50.3813V62.041C303.907 63.3191 304.239 64.2987 304.906 64.983C305.572 65.6482 306.507 65.9816 307.714 65.9816C308.936 65.9816 309.881 65.6482 310.548 64.983C311.214 64.2987 311.547 63.3191 311.547 62.041V50.3813H315.353V62.0141C315.353 63.616 315.002 64.9734 314.301 66.0895C313.616 67.1866 312.689 68.0154 311.52 68.5727C310.367 69.1299 309.081 69.4093 307.66 69.4093C306.256 69.4093 304.978 69.1299 303.826 68.5727C302.693 68.0154 301.792 67.1866 301.127 66.0895C300.46 64.9734 300.128 63.616 300.128 62.0141V50.3813H303.907Z" fill="#424B66"/>
<path d="M274.483 61.6902C274.483 60.1788 274.78 58.8388 275.374 57.6687C275.985 56.4986 276.814 55.6 277.857 54.9697C278.901 54.3394 280.061 54.025 281.34 54.025C282.311 54.025 283.239 54.241 284.12 54.6728C285.001 55.0872 285.703 55.6445 286.226 56.3462V49.2478H290.059V69.2205H286.226V67.0073C285.757 67.7455 285.102 68.3393 284.255 68.7886C283.409 69.2379 282.429 69.4634 281.313 69.4634C280.053 69.4634 278.901 69.1395 277.857 68.4917C276.814 67.844 275.985 66.9359 275.374 65.7658C274.78 64.5782 274.483 63.2191 274.483 61.6902ZM286.253 61.7442C286.253 60.8265 286.073 60.0439 285.713 59.3961C285.352 58.7309 284.866 58.226 284.255 57.8846C283.644 57.5242 282.986 57.3448 282.284 57.3448C281.583 57.3448 280.935 57.5163 280.341 57.8576C279.747 58.199 279.261 58.7038 278.883 59.3691C278.523 60.0168 278.343 60.79 278.343 61.6902C278.343 62.5904 278.523 63.3811 278.883 64.0654C279.261 64.7306 279.747 65.2434 280.341 65.6038C280.952 65.9642 281.6 66.1436 282.284 66.1436C282.986 66.1436 283.644 65.9721 284.255 65.6308C284.866 65.2704 285.352 64.7671 285.713 64.1193C286.073 63.4541 286.253 62.6619 286.253 61.7442Z" fill="#424B66"/>
<path d="M256.187 61.6902C256.187 60.1788 256.483 58.8388 257.077 57.6687C257.69 56.4986 258.518 55.6 259.561 54.9697C260.606 54.3394 261.767 54.025 263.043 54.025C264.015 54.025 264.942 54.241 265.824 54.6728C266.707 55.0872 267.409 55.6445 267.929 56.3462V49.2478H271.763V69.2205H267.929V67.0073C267.463 67.7455 266.805 68.3393 265.959 68.7886C265.114 69.2379 264.133 69.4634 263.016 69.4634C261.757 69.4634 260.606 69.1395 259.561 68.4917C258.518 67.844 257.69 66.9359 257.077 65.7658C256.483 64.5782 256.187 63.2191 256.187 61.6902ZM267.956 61.7442C267.956 60.8265 267.777 60.0439 267.416 59.3961C267.058 58.7309 266.572 58.226 265.959 57.8846C265.347 57.5242 264.69 57.3448 263.988 57.3448C263.286 57.3448 262.638 57.5163 262.044 57.8576C261.451 58.199 260.965 58.7038 260.587 59.3691C260.228 60.0168 260.047 60.79 260.047 61.6902C260.047 62.5904 260.228 63.3811 260.587 64.0654C260.965 64.7306 261.451 65.2434 262.044 65.6038C262.657 65.9642 263.305 66.1436 263.988 66.1436C264.69 66.1436 265.347 65.9721 265.959 65.6308C266.572 65.2704 267.058 64.7671 267.416 64.1193C267.777 63.4541 267.956 62.6619 267.956 61.7442Z" fill="#424B66"/>
<path d="M249.389 65.6306H241.884L240.642 69.2203H236.674L243.45 50.3542H247.85L254.626 69.2203H250.63L249.389 65.6306ZM248.363 62.6077L245.636 54.7266L242.91 62.6077H248.363Z" fill="#424B66"/>
<path d="M364.862 144.442C364.478 144.442 364.151 144.308 363.884 144.042C363.617 143.775 363.484 143.449 363.484 143.064C363.484 142.678 363.617 142.352 363.884 142.086C364.151 141.819 364.478 141.686 364.862 141.686C365.234 141.686 365.545 141.819 365.796 142.086C366.063 142.352 366.196 142.678 366.196 143.064C366.196 143.449 366.063 143.775 365.796 144.042C365.545 144.308 365.234 144.442 364.862 144.442Z" fill="#878B9E"/>
<path d="M358.588 133.795V140.974C358.588 141.566 358.714 141.989 358.966 142.241C359.217 142.478 359.655 142.597 360.278 142.597H361.767V144.308H359.944C358.817 144.308 357.972 144.05 357.41 143.53C356.846 143.011 356.565 142.16 356.565 140.974V133.795H354.987V132.128H356.565V129.061H358.588V132.128H361.767V133.795H358.588Z" fill="#878B9E"/>
<path d="M351.694 130.15C351.309 130.15 350.982 130.016 350.715 129.75C350.449 129.483 350.315 129.157 350.315 128.772C350.315 128.386 350.449 128.06 350.715 127.794C350.982 127.527 351.309 127.394 351.694 127.394C352.065 127.394 352.376 127.527 352.627 127.794C352.894 128.06 353.027 128.386 353.027 128.772C353.027 129.157 352.894 129.483 352.627 129.75C352.376 130.016 352.065 130.15 351.694 130.15ZM352.672 132.128V144.308H350.649V132.128H352.672Z" fill="#878B9E"/>
<path d="M335.816 144.508C334.674 144.508 333.637 144.249 332.703 143.73C331.784 143.211 331.058 142.478 330.525 141.53C330.005 140.566 329.747 139.455 329.747 138.196C329.747 136.951 330.013 135.854 330.547 134.906C331.095 133.942 331.836 133.209 332.77 132.706C333.704 132.187 334.749 131.928 335.905 131.928C337.061 131.928 338.106 132.187 339.039 132.706C339.973 133.209 340.707 133.936 341.24 134.884C341.788 135.832 342.063 136.937 342.063 138.196C342.063 139.455 341.78 140.566 341.218 141.53C340.668 142.478 339.921 143.211 338.973 143.73C338.023 144.249 336.972 144.508 335.816 144.508ZM335.816 142.73C336.541 142.73 337.223 142.56 337.861 142.219C338.498 141.878 339.009 141.366 339.395 140.685C339.795 140.004 339.995 139.174 339.995 138.196C339.995 137.218 339.801 136.387 339.417 135.706C339.031 135.025 338.528 134.52 337.905 134.195C337.283 133.854 336.608 133.684 335.882 133.684C335.141 133.684 334.46 133.854 333.837 134.195C333.229 134.52 332.74 135.025 332.37 135.706C331.998 136.387 331.814 137.218 331.814 138.196C331.814 139.188 331.992 140.026 332.348 140.707C332.718 141.389 333.207 141.9 333.815 142.241C334.422 142.567 335.088 142.73 335.816 142.73Z" fill="#878B9E"/>
<path d="M324.871 133.795V140.974C324.871 141.566 324.999 141.989 325.249 142.241C325.502 142.478 325.939 142.597 326.561 142.597H328.051V144.308H326.228C325.102 144.308 324.257 144.05 323.693 143.53C323.131 143.011 322.848 142.16 322.848 140.974V133.795H321.27V132.128H322.848V129.061H324.871V132.128H328.051V133.795H324.871Z" fill="#878B9E"/>
<path d="M309.175 144.508C308.241 144.508 307.404 144.353 306.662 144.041C305.923 143.716 305.337 143.271 304.906 142.708C304.477 142.13 304.239 141.471 304.195 140.73H306.285C306.345 141.338 306.626 141.833 307.129 142.219C307.649 142.605 308.323 142.797 309.152 142.797C309.924 142.797 310.531 142.627 310.975 142.286C311.42 141.944 311.642 141.516 311.642 140.996C311.642 140.463 311.406 140.071 310.931 139.818C310.458 139.552 309.724 139.293 308.73 139.04C307.826 138.804 307.085 138.566 306.507 138.329C305.945 138.077 305.456 137.715 305.04 137.24C304.639 136.751 304.439 136.114 304.439 135.328C304.439 134.706 304.625 134.136 304.995 133.617C305.367 133.098 305.892 132.691 306.574 132.394C307.256 132.083 308.034 131.928 308.908 131.928C310.258 131.928 311.347 132.269 312.176 132.95C313.006 133.631 313.451 134.565 313.51 135.751H311.487C311.442 135.114 311.183 134.603 310.709 134.217C310.25 133.831 309.627 133.639 308.841 133.639C308.115 133.639 307.537 133.795 307.107 134.106C306.678 134.417 306.462 134.825 306.462 135.328C306.462 135.729 306.589 136.062 306.84 136.329C307.107 136.581 307.434 136.788 307.819 136.951C308.219 137.099 308.768 137.27 309.464 137.462C310.339 137.699 311.05 137.937 311.598 138.174C312.147 138.396 312.614 138.737 312.998 139.196C313.399 139.655 313.607 140.255 313.621 140.996C313.621 141.663 313.437 142.263 313.065 142.797C312.695 143.33 312.169 143.753 311.487 144.064C310.82 144.361 310.05 144.508 309.175 144.508Z" fill="#878B9E"/>
<path d="M297.56 144.508C296.627 144.508 295.79 144.353 295.048 144.041C294.307 143.716 293.722 143.271 293.292 142.708C292.862 142.13 292.625 141.471 292.581 140.73H294.67C294.729 141.338 295.012 141.833 295.515 142.219C296.034 142.605 296.708 142.797 297.538 142.797C298.308 142.797 298.917 142.627 299.361 142.286C299.806 141.944 300.028 141.516 300.028 140.996C300.028 140.463 299.792 140.071 299.317 139.818C298.842 139.552 298.108 139.293 297.116 139.04C296.212 138.804 295.471 138.566 294.893 138.329C294.329 138.077 293.84 137.715 293.425 137.24C293.025 136.751 292.825 136.114 292.825 135.328C292.825 134.706 293.011 134.136 293.381 133.617C293.751 133.098 294.278 132.691 294.959 132.394C295.641 132.083 296.419 131.928 297.294 131.928C298.642 131.928 299.731 132.269 300.562 132.95C301.392 133.631 301.837 134.565 301.896 135.751H299.873C299.828 135.114 299.569 134.603 299.094 134.217C298.636 133.831 298.013 133.639 297.227 133.639C296.501 133.639 295.923 133.795 295.493 134.106C295.063 134.417 294.848 134.825 294.848 135.328C294.848 135.729 294.974 136.062 295.226 136.329C295.493 136.581 295.819 136.788 296.204 136.951C296.605 137.099 297.152 137.27 297.85 137.462C298.724 137.699 299.436 137.937 299.984 138.174C300.532 138.396 300.998 138.737 301.384 139.196C301.784 139.655 301.992 140.255 302.007 140.996C302.007 141.663 301.821 142.263 301.451 142.797C301.081 143.33 300.554 143.753 299.873 144.064C299.206 144.361 298.435 144.508 297.56 144.508Z" fill="#878B9E"/>
<path d="M290.577 137.751C290.577 138.137 290.554 138.543 290.51 138.974H280.773C280.847 140.174 281.254 141.115 281.995 141.797C282.751 142.463 283.663 142.797 284.73 142.797C285.605 142.797 286.331 142.597 286.909 142.197C287.501 141.782 287.917 141.233 288.153 140.552H290.332C290.007 141.722 289.354 142.678 288.376 143.419C287.398 144.145 286.183 144.508 284.73 144.508C283.574 144.508 282.537 144.249 281.617 143.73C280.714 143.211 280.003 142.478 279.483 141.53C278.964 140.566 278.705 139.455 278.705 138.196C278.705 136.937 278.958 135.832 279.461 134.884C279.964 133.936 280.669 133.209 281.573 132.706C282.492 132.187 283.544 131.928 284.73 131.928C285.886 131.928 286.909 132.18 287.798 132.683C288.687 133.187 289.368 133.884 289.843 134.773C290.332 135.648 290.577 136.64 290.577 137.751ZM288.487 137.329C288.487 136.559 288.317 135.898 287.976 135.351C287.634 134.787 287.167 134.365 286.575 134.084C285.997 133.787 285.352 133.639 284.641 133.639C283.618 133.639 282.743 133.965 282.018 134.617C281.306 135.27 280.898 136.173 280.795 137.329H288.487Z" fill="#878B9E"/>
<path d="M265.201 138.196C265.201 136.937 265.454 135.84 265.957 134.906C266.462 133.958 267.158 133.225 268.047 132.706C268.952 132.187 269.981 131.928 271.137 131.928C272.634 131.928 273.865 132.291 274.827 133.017C275.806 133.742 276.45 134.751 276.762 136.04H274.583C274.376 135.298 273.968 134.714 273.36 134.284C272.768 133.854 272.026 133.639 271.137 133.639C269.981 133.639 269.047 134.039 268.336 134.839C267.625 135.625 267.269 136.743 267.269 138.196C267.269 139.663 267.625 140.796 268.336 141.597C269.047 142.397 269.981 142.797 271.137 142.797C272.026 142.797 272.768 142.589 273.36 142.174C273.954 141.76 274.361 141.166 274.583 140.396H276.762C276.436 141.641 275.783 142.641 274.805 143.397C273.827 144.138 272.604 144.508 271.137 144.508C269.981 144.508 268.952 144.249 268.047 143.73C267.158 143.211 266.462 142.478 265.957 141.53C265.454 140.582 265.201 139.471 265.201 138.196Z" fill="#878B9E"/>
<path d="M251.697 138.196C251.697 136.937 251.95 135.84 252.453 134.906C252.958 133.958 253.654 133.225 254.543 132.706C255.448 132.187 256.477 131.928 257.633 131.928C259.131 131.928 260.361 132.291 261.324 133.017C262.302 133.742 262.946 134.751 263.258 136.04H261.079C260.873 135.298 260.464 134.714 259.856 134.284C259.264 133.854 258.522 133.639 257.633 133.639C256.477 133.639 255.543 134.039 254.832 134.839C254.121 135.625 253.765 136.743 253.765 138.196C253.765 139.663 254.121 140.796 254.832 141.597C255.543 142.397 256.477 142.797 257.633 142.797C258.522 142.797 259.264 142.589 259.856 142.174C260.45 141.76 260.857 141.166 261.079 140.396H263.258C262.932 141.641 262.279 142.641 261.301 143.397C260.323 144.138 259.1 144.508 257.633 144.508C256.477 144.508 255.448 144.249 254.543 143.73C253.654 143.211 252.958 142.478 252.453 141.53C251.95 140.582 251.697 139.471 251.697 138.196Z" fill="#878B9E"/>
<path d="M236.674 138.174C236.674 136.929 236.926 135.84 237.43 134.906C237.935 133.958 238.624 133.225 239.497 132.706C240.386 132.187 241.373 131.928 242.454 131.928C243.521 131.928 244.448 132.158 245.233 132.617C246.019 133.076 246.605 133.654 246.989 134.35V132.128H249.034V144.308H246.989V142.041C246.589 142.752 245.989 143.345 245.188 143.819C244.404 144.278 243.485 144.508 242.432 144.508C241.35 144.508 240.372 144.242 239.497 143.708C238.624 143.175 237.935 142.427 237.43 141.463C236.926 140.499 236.674 139.404 236.674 138.174ZM246.989 138.196C246.989 137.277 246.805 136.476 246.433 135.795C246.063 135.114 245.56 134.595 244.922 134.239C244.299 133.869 243.61 133.684 242.854 133.684C242.098 133.684 241.409 133.861 240.787 134.217C240.164 134.573 239.669 135.092 239.297 135.773C238.927 136.454 238.741 137.254 238.741 138.174C238.741 139.107 238.927 139.922 239.297 140.619C239.669 141.3 240.164 141.827 240.787 142.197C241.409 142.552 242.098 142.73 242.854 142.73C243.61 142.73 244.299 142.552 244.922 142.197C245.56 141.827 246.063 141.3 246.433 140.619C246.805 139.922 246.989 139.115 246.989 138.196Z" fill="#878B9E"/>
<path d="M753.242 99.6477C753.242 100.034 753.22 100.44 753.175 100.87H743.438C743.512 102.07 743.921 103.012 744.661 103.693C745.416 104.36 746.328 104.693 747.395 104.693C748.27 104.693 748.996 104.493 749.574 104.093C750.168 103.679 750.582 103.129 750.819 102.448H752.997C752.672 103.618 752.019 104.574 751.041 105.316C750.063 106.041 748.848 106.405 747.395 106.405C746.239 106.405 745.202 106.146 744.283 105.627C743.379 105.108 742.668 104.374 742.148 103.426C741.631 102.463 741.37 101.351 741.37 100.092C741.37 98.8333 741.623 97.7283 742.126 96.7804C742.631 95.8326 743.335 95.1054 744.238 94.6022C745.158 94.083 746.21 93.8242 747.395 93.8242C748.551 93.8242 749.574 94.0766 750.463 94.5799C751.352 95.0832 752.035 95.7802 752.508 96.6693C752.997 97.5441 753.242 98.5364 753.242 99.6477ZM751.152 99.2254C751.152 98.4554 750.982 97.7949 750.641 97.2472C750.301 96.6835 749.834 96.2613 749.24 95.9803C748.662 95.6834 748.017 95.5357 747.306 95.5357C746.283 95.5357 745.41 95.8612 744.683 96.5137C743.971 97.1662 743.565 98.0696 743.46 99.2254H751.152Z" fill="#878B9E"/>
<path d="M734.201 104.338L737.98 94.0242H740.137L735.357 106.205H733L728.221 94.0242H730.399L734.201 104.338Z" fill="#878B9E"/>
<path d="M713.885 100.07C713.885 98.8253 714.136 97.7362 714.641 96.8026C715.144 95.8548 715.833 95.1213 716.708 94.6022C717.598 94.083 718.582 93.8242 719.665 93.8242C720.732 93.8242 721.658 94.0544 722.444 94.5132C723.229 94.9721 723.814 95.55 724.2 96.247V94.0242H726.246V106.205H724.2V103.938C723.8 104.649 723.2 105.241 722.4 105.716C721.614 106.175 720.694 106.405 719.643 106.405C718.56 106.405 717.582 106.138 716.708 105.605C715.833 105.071 715.144 104.323 714.641 103.36C714.136 102.396 713.885 101.3 713.885 100.07ZM724.2 100.092C724.2 99.173 724.015 98.3728 723.645 97.6917C723.273 97.0106 722.77 96.4915 722.133 96.1358C721.51 95.7659 720.821 95.5801 720.065 95.5801C719.309 95.5801 718.62 95.758 717.998 96.1136C717.375 96.4692 716.878 96.9884 716.508 97.6695C716.137 98.3506 715.953 99.1508 715.953 100.07C715.953 101.004 716.137 101.818 716.508 102.515C716.878 103.196 717.375 103.723 717.998 104.093C718.62 104.449 719.309 104.627 720.065 104.627C720.821 104.627 721.51 104.449 722.133 104.093C722.77 103.723 723.273 103.196 723.645 102.515C724.015 101.818 724.2 101.012 724.2 100.092Z" fill="#878B9E"/>
<path d="M706.469 93.8019C707.387 93.8019 708.217 94.002 708.959 94.402C709.699 94.7878 710.277 95.3721 710.693 96.158C711.122 96.9439 711.338 97.8997 711.338 99.0253V106.205H709.337V99.3142C709.337 98.0997 709.032 97.1725 708.425 96.5358C707.817 95.8833 706.987 95.5579 705.935 95.5579C704.868 95.5579 704.016 95.8913 703.379 96.5581C702.756 97.2249 702.445 98.195 702.445 99.4699V106.205H700.422V89.7566H702.445V95.7579C702.845 95.1356 703.393 94.6545 704.09 94.3131C704.802 93.9718 705.594 93.8019 706.469 93.8019Z" fill="#878B9E"/>
<path d="M691.047 89.7566V106.205H689.024V89.7566H691.047Z" fill="#878B9E"/>
<path d="M685.576 89.7566V106.205H683.553V89.7566H685.576Z" fill="#878B9E"/>
<path d="M679.126 92.0459C678.742 92.0459 678.415 91.9126 678.148 91.6459C677.881 91.3792 677.748 91.0537 677.748 90.6679C677.748 90.2821 677.881 89.9566 678.148 89.6899C678.415 89.4232 678.742 89.2898 679.126 89.2898C679.498 89.2898 679.809 89.4232 680.06 89.6899C680.327 89.9566 680.46 90.2821 680.46 90.6679C680.46 91.0537 680.327 91.3792 680.06 91.6459C679.809 91.9126 679.498 92.0459 679.126 92.0459ZM680.104 94.0242V106.205H678.081V94.0242H680.104Z" fill="#878B9E"/>
<path d="M676.074 94.0242L672.272 106.205H670.183L667.248 96.5358L664.314 106.205H662.224L658.4 94.0242H660.468L663.269 104.249L666.292 94.0242H668.36L671.317 104.271L674.073 94.0242H676.074Z" fill="#878B9E"/>
<path d="M645.635 93.802C647.116 93.802 648.317 94.2545 649.236 95.1579C650.154 96.0469 650.615 97.3361 650.615 99.0254V106.205H648.614V99.3143C648.614 98.0997 648.309 97.1726 647.702 96.5359C647.094 95.8834 646.264 95.5579 645.212 95.5579C644.145 95.5579 643.293 95.8913 642.656 96.5582C642.033 97.225 641.722 98.195 641.722 99.4699V106.205H639.699V94.0242H641.722V95.758C642.122 95.1356 642.662 94.6546 643.345 94.3132C644.04 93.9719 644.804 93.802 645.635 93.802Z" fill="#878B9E"/>
<path d="M630.791 106.405C629.65 106.405 628.612 106.146 627.678 105.627C626.76 105.108 626.033 104.374 625.5 103.426C624.982 102.463 624.721 101.351 624.721 100.092C624.721 98.8475 624.988 97.7504 625.522 96.8026C626.071 95.8389 626.811 95.1054 627.745 94.6022C628.679 94.083 629.724 93.8242 630.88 93.8242C632.036 93.8242 633.08 94.083 634.014 94.6022C634.948 95.1054 635.682 95.8326 636.215 96.7804C636.764 97.7283 637.038 98.8333 637.038 100.092C637.038 101.351 636.757 102.463 636.193 103.426C635.645 104.374 634.897 105.108 633.947 105.627C632.999 106.146 631.947 106.405 630.791 106.405ZM630.791 104.627C631.518 104.627 632.199 104.457 632.836 104.115C633.474 103.774 633.986 103.263 634.37 102.582C634.77 101.901 634.97 101.07 634.97 100.092C634.97 99.1143 634.778 98.2839 634.392 97.6028C634.008 96.9217 633.503 96.4168 632.88 96.0913C632.258 95.75 631.585 95.5801 630.857 95.5801C630.117 95.5801 629.434 95.75 628.812 96.0913C628.205 96.4168 627.716 96.9217 627.345 97.6028C626.975 98.2839 626.789 99.1143 626.789 100.092C626.789 101.085 626.967 101.923 627.323 102.604C627.694 103.285 628.183 103.796 628.79 104.138C629.398 104.463 630.065 104.627 630.791 104.627Z" fill="#878B9E"/>
<path d="M621.052 92.0459C620.667 92.0459 620.34 91.9126 620.074 91.6459C619.807 91.3792 619.673 91.0537 619.673 90.6679C619.673 90.2821 619.807 89.9566 620.074 89.6899C620.34 89.4232 620.667 89.2898 621.052 89.2898C621.423 89.2898 621.735 89.4232 621.985 89.6899C622.252 89.9566 622.386 90.2821 622.386 90.6679C622.386 91.0537 622.252 91.3792 621.985 91.6459C621.735 91.9126 621.423 92.0459 621.052 92.0459ZM622.03 94.0242V106.205H620.007V94.0242H622.03Z" fill="#878B9E"/>
<path d="M614.378 95.6914V102.871C614.378 103.463 614.503 103.885 614.756 104.138C615.006 104.374 615.445 104.493 616.067 104.493H617.557V106.205H615.734C614.606 106.205 613.761 105.946 613.199 105.427C612.636 104.908 612.355 104.057 612.355 102.871V95.6914H610.776V94.0243H612.355V90.957H614.378V94.0243H617.557V95.6914H614.378Z" fill="#878B9E"/>
<path d="M596.131 100.07C596.131 98.8253 596.381 97.7362 596.886 96.8026C597.39 95.8548 598.079 95.1213 598.954 94.6022C599.843 94.083 600.828 93.8242 601.911 93.8242C602.978 93.8242 603.904 94.0544 604.69 94.5132C605.474 94.9721 606.06 95.55 606.446 96.247V94.0242H608.491V106.205H606.446V103.938C606.046 104.649 605.445 105.241 604.645 105.716C603.859 106.175 602.94 106.405 601.888 106.405C600.805 106.405 599.827 106.138 598.954 105.605C598.079 105.071 597.39 104.323 596.886 103.36C596.381 102.396 596.131 101.3 596.131 100.07ZM606.446 100.092C606.446 99.173 606.26 98.3728 605.89 97.6917C605.518 97.0106 605.015 96.4915 604.378 96.1358C603.756 95.7659 603.067 95.5801 602.311 95.5801C601.555 95.5801 600.866 95.758 600.243 96.1136C599.621 96.4692 599.124 96.9884 598.754 97.6695C598.382 98.3506 598.198 99.1508 598.198 100.07C598.198 101.004 598.382 101.818 598.754 102.515C599.124 103.196 599.621 103.723 600.243 104.093C600.866 104.449 601.555 104.627 602.311 104.627C603.067 104.627 603.756 104.449 604.378 104.093C605.015 103.723 605.518 103.196 605.89 102.515C606.26 101.818 606.446 101.012 606.446 100.092Z" fill="#878B9E"/>
<path d="M588.281 104.538H594.262V106.205H585.969V104.538L591.883 95.669H586.014V94.0242H594.217V95.669L588.281 104.538Z" fill="#878B9E"/>
<path d="M582.342 92.0459C581.958 92.0459 581.631 91.9126 581.364 91.6459C581.098 91.3792 580.964 91.0537 580.964 90.6679C580.964 90.2821 581.098 89.9566 581.364 89.6899C581.631 89.4232 581.958 89.2898 582.342 89.2898C582.714 89.2898 583.025 89.4232 583.276 89.6899C583.543 89.9566 583.676 90.2821 583.676 90.6679C583.676 91.0537 583.543 91.3792 583.276 91.6459C583.025 91.9126 582.714 92.0459 582.342 92.0459ZM583.321 94.0242V106.205H581.298V94.0242H583.321Z" fill="#878B9E"/>
<path d="M573.013 93.802C574.495 93.802 575.695 94.2545 576.615 95.1579C577.534 96.0469 577.993 97.3361 577.993 99.0254V106.205H575.992V99.3143C575.992 98.0997 575.689 97.1726 575.081 96.5359C574.473 95.8834 573.644 95.5579 572.591 95.5579C571.524 95.5579 570.671 95.8913 570.034 96.5582C569.412 97.225 569.101 98.195 569.101 99.4699V106.205H567.078V94.0242H569.101V95.758C569.501 95.1356 570.042 94.6546 570.723 94.3132C571.421 93.9719 572.183 93.802 573.013 93.802Z" fill="#878B9E"/>
<path d="M551.298 100.07C551.298 98.8253 551.551 97.7362 552.054 96.8026C552.557 95.8548 553.247 95.1213 554.121 94.6022C555.011 94.083 555.997 93.8242 557.078 93.8242C558.145 93.8242 559.071 94.0544 559.857 94.5132C560.643 94.9721 561.228 95.55 561.613 96.247V94.0242H563.659V106.205H561.613V103.938C561.213 104.649 560.613 105.241 559.813 105.716C559.027 106.175 558.109 106.405 557.056 106.405C555.975 106.405 554.996 106.138 554.121 105.605C553.247 105.071 552.557 104.323 552.054 103.36C551.551 102.396 551.298 101.3 551.298 100.07ZM561.613 100.092C561.613 99.173 561.428 98.3728 561.058 97.6917C560.688 97.0106 560.183 96.4915 559.546 96.1358C558.923 95.7659 558.234 95.5801 557.478 95.5801C556.723 95.5801 556.033 95.758 555.411 96.1136C554.788 96.4692 554.291 96.9884 553.921 97.6695C553.551 98.3506 553.366 99.1508 553.366 100.07C553.366 101.004 553.551 101.818 553.921 102.515C554.291 103.196 554.788 103.723 555.411 104.093C556.033 104.449 556.723 104.627 557.478 104.627C558.234 104.627 558.923 104.449 559.546 104.093C560.183 103.723 560.688 103.196 561.058 102.515C561.428 101.818 561.613 101.012 561.613 100.092Z" fill="#878B9E"/>
<path d="M542.055 93.8242C543.108 93.8242 544.027 94.0544 544.811 94.5132C545.612 94.9721 546.206 95.55 546.59 96.247V94.0242H548.635V106.471C548.635 107.583 548.399 108.569 547.924 109.428C547.451 110.302 546.768 110.984 545.879 111.473C545.005 111.962 543.983 112.206 542.811 112.206C541.21 112.206 539.876 111.828 538.809 111.072C537.742 110.317 537.113 109.286 536.919 107.983H538.92C539.143 108.724 539.603 109.317 540.299 109.761C540.996 110.22 541.832 110.45 542.811 110.45C543.922 110.45 544.827 110.102 545.523 109.405C546.234 108.708 546.59 107.73 546.59 106.471V103.915C546.19 104.627 545.597 105.219 544.811 105.693C544.027 106.168 543.108 106.405 542.055 106.405C540.973 106.405 539.987 106.138 539.098 105.605C538.225 105.071 537.536 104.323 537.031 103.36C536.527 102.396 536.275 101.3 536.275 100.07C536.275 98.8253 536.527 97.7362 537.031 96.8026C537.536 95.8548 538.225 95.1213 539.098 94.6022C539.987 94.083 540.973 93.8242 542.055 93.8242ZM546.59 100.092C546.59 99.173 546.406 98.3728 546.034 97.6917C545.664 97.0106 545.161 96.4915 544.522 96.1358C543.9 95.7659 543.211 95.5801 542.455 95.5801C541.699 95.5801 541.01 95.758 540.387 96.1136C539.765 96.4692 539.27 96.9884 538.898 97.6695C538.528 98.3506 538.342 99.1508 538.342 100.07C538.342 101.004 538.528 101.818 538.898 102.515C539.27 103.196 539.765 103.723 540.387 104.093C541.01 104.449 541.699 104.627 542.455 104.627C543.211 104.627 543.9 104.449 544.522 104.093C545.161 103.723 545.664 103.196 546.034 102.515C546.406 101.818 546.59 101.012 546.59 100.092Z" fill="#878B9E"/>
<path d="M530.761 96.0025C531.117 95.3055 531.62 94.7657 532.273 94.3799C532.94 93.9941 533.747 93.802 534.696 93.802V95.8914H534.163C531.895 95.8914 530.761 97.1218 530.761 99.581V106.205H528.738V94.0242H530.761V96.0025Z" fill="#878B9E"/>
<path d="M519.83 106.405C518.69 106.405 517.651 106.146 516.717 105.627C515.8 105.108 515.072 104.374 514.539 103.426C514.021 102.463 513.761 101.351 513.761 100.092C513.761 98.8475 514.027 97.7504 514.561 96.8026C515.11 95.8389 515.85 95.1054 516.784 94.6022C517.718 94.083 518.763 93.8242 519.919 93.8242C521.075 93.8242 522.12 94.083 523.053 94.6022C523.987 95.1054 524.721 95.8326 525.254 96.7804C525.804 97.7283 526.077 98.8333 526.077 100.092C526.077 101.351 525.796 102.463 525.232 103.426C524.684 104.374 523.936 105.108 522.987 105.627C522.039 106.146 520.986 106.405 519.83 106.405ZM519.83 104.627C520.557 104.627 521.238 104.457 521.875 104.115C522.513 103.774 523.025 103.263 523.409 102.582C523.809 101.901 524.009 101.07 524.009 100.092C524.009 99.1143 523.817 98.2839 523.431 97.6028C523.047 96.9217 522.542 96.4168 521.919 96.0913C521.297 95.75 520.624 95.5801 519.896 95.5801C519.156 95.5801 518.474 95.75 517.851 96.0913C517.245 96.4168 516.756 96.9217 516.384 97.6028C516.014 98.2839 515.828 99.1143 515.828 100.092C515.828 101.085 516.006 101.923 516.362 102.604C516.733 103.285 517.222 103.796 517.829 104.138C518.437 104.463 519.104 104.627 519.83 104.627Z" fill="#878B9E"/>
<path d="M505.919 99.6477C505.919 100.034 505.897 100.44 505.853 100.87H496.115C496.19 102.07 496.598 103.012 497.338 103.693C498.094 104.36 499.005 104.693 500.073 104.693C500.948 104.693 501.673 104.493 502.251 104.093C502.845 103.679 503.26 103.129 503.496 102.448H505.675C505.349 103.618 504.697 104.574 503.719 105.316C502.74 106.041 501.526 106.405 500.073 106.405C498.917 106.405 497.88 106.146 496.96 105.627C496.057 105.108 495.345 104.374 494.826 103.426C494.308 102.463 494.048 101.351 494.048 100.092C494.048 98.8333 494.3 97.7283 494.804 96.7804C495.309 95.8326 496.012 95.1054 496.916 94.6022C497.835 94.083 498.888 93.8242 500.073 93.8242C501.229 93.8242 502.251 94.0766 503.141 94.5799C504.03 95.0832 504.713 95.7802 505.186 96.6693C505.675 97.5441 505.919 98.5364 505.919 99.6477ZM503.83 99.2254C503.83 98.4554 503.66 97.7949 503.318 97.2472C502.979 96.6835 502.512 96.2613 501.918 95.9803C501.34 95.6834 500.695 95.5357 499.984 95.5357C498.961 95.5357 498.088 95.8612 497.36 96.5137C496.649 97.1662 496.242 98.0696 496.138 99.2254H503.83Z" fill="#878B9E"/>
<path d="M486.631 93.8019C487.55 93.8019 488.381 94.002 489.121 94.402C489.862 94.7878 490.44 95.3721 490.855 96.158C491.285 96.9439 491.499 97.8997 491.499 99.0253V106.205H489.498V99.3142C489.498 98.0997 489.195 97.1725 488.587 96.5358C487.98 95.8833 487.15 95.5579 486.097 95.5579C485.03 95.5579 484.179 95.8913 483.541 96.5581C482.918 97.2249 482.607 98.195 482.607 99.4699V106.205H480.584V89.7566H482.607V95.7579C483.007 95.1356 483.556 94.6545 484.252 94.3131C484.963 93.9718 485.757 93.8019 486.631 93.8019Z" fill="#878B9E"/>
<path d="M474.954 95.6914V102.871C474.954 103.463 475.08 103.885 475.332 104.138C475.585 104.374 476.022 104.493 476.644 104.493H478.134V106.205H476.311C475.185 106.205 474.34 105.946 473.776 105.427C473.213 104.908 472.931 104.057 472.931 102.871V95.6914H471.353V94.0243H472.931V90.957H474.954V94.0243H478.134V95.6914H474.954Z" fill="#878B9E"/>
<path d="M457.652 106.405C456.512 106.405 455.474 106.146 454.54 105.627C453.622 105.108 452.895 104.374 452.361 103.426C451.844 102.463 451.583 101.351 451.583 100.092C451.583 98.8475 451.85 97.7504 452.383 96.8026C452.933 95.8389 453.673 95.1054 454.607 94.6022C455.54 94.083 456.585 93.8242 457.741 93.8242C458.897 93.8242 459.942 94.083 460.876 94.6022C461.809 95.1054 462.543 95.8326 463.077 96.7804C463.626 97.7283 463.899 98.8333 463.899 100.092C463.899 101.351 463.618 102.463 463.054 103.426C462.507 104.374 461.759 105.108 460.809 105.627C459.861 106.146 458.808 106.405 457.652 106.405ZM457.652 104.627C458.38 104.627 459.061 104.457 459.698 104.115C460.336 103.774 460.847 103.263 461.231 102.582C461.632 101.901 461.832 101.07 461.832 100.092C461.832 99.1143 461.64 98.2839 461.254 97.6028C460.869 96.9217 460.364 96.4168 459.742 96.0913C459.12 95.75 458.446 95.5801 457.719 95.5801C456.979 95.5801 456.296 95.75 455.674 96.0913C455.067 96.4168 454.578 96.9217 454.206 97.6028C453.836 98.2839 453.651 99.1143 453.651 100.092C453.651 101.085 453.828 101.923 454.184 102.604C454.556 103.285 455.045 103.796 455.651 104.138C456.26 104.463 456.927 104.627 457.652 104.627Z" fill="#878B9E"/>
<path d="M446.71 95.6914V102.871C446.71 103.463 446.835 103.885 447.088 104.138C447.339 104.374 447.777 104.493 448.399 104.493H449.889V106.205H448.066C446.938 106.205 446.094 105.946 445.531 105.427C444.968 104.908 444.687 104.057 444.687 102.871V95.6914H443.108V94.0243H444.687V90.957H446.71V94.0243H449.889V95.6914H446.71Z" fill="#878B9E"/>
<path d="M422.535 100.07C422.535 98.8253 422.787 97.7361 423.291 96.8026C423.796 95.8547 424.485 95.1213 425.358 94.6021C426.248 94.0829 427.242 93.8242 428.337 93.8242C429.287 93.8242 430.168 94.0464 430.983 94.491C431.799 94.9212 432.421 95.4912 432.85 96.2024V89.7566H434.895V106.205H432.85V103.915C432.45 104.641 431.858 105.241 431.072 105.716C430.287 106.174 429.368 106.405 428.315 106.405C427.234 106.405 426.248 106.138 425.358 105.605C424.485 105.071 423.796 104.323 423.291 103.36C422.787 102.396 422.535 101.3 422.535 100.07ZM432.85 100.092C432.85 99.173 432.666 98.3727 432.294 97.6916C431.924 97.0105 431.421 96.4914 430.783 96.1358C430.16 95.7659 429.471 95.5801 428.715 95.5801C427.959 95.5801 427.27 95.7579 426.648 96.1135C426.025 96.4692 425.53 96.9884 425.158 97.6695C424.788 98.3506 424.602 99.1507 424.602 100.07C424.602 101.004 424.788 101.818 425.158 102.515C425.53 103.196 426.025 103.723 426.648 104.093C427.27 104.449 427.959 104.627 428.715 104.627C429.471 104.627 430.16 104.449 430.783 104.093C431.421 103.723 431.924 103.196 432.294 102.515C432.666 101.818 432.85 101.011 432.85 100.092Z" fill="#878B9E"/>
<path d="M420.621 99.6477C420.621 100.034 420.599 100.44 420.555 100.87H410.817C410.89 102.07 411.299 103.012 412.04 103.693C412.796 104.36 413.707 104.693 414.775 104.693C415.648 104.693 416.375 104.493 416.953 104.093C417.546 103.679 417.96 103.129 418.198 102.448H420.377C420.05 103.618 419.399 104.574 418.421 105.316C417.442 106.041 416.226 106.405 414.775 106.405C413.619 106.405 412.58 106.146 411.662 105.627C410.757 105.108 410.046 104.374 409.528 103.426C409.009 102.463 408.75 101.351 408.75 100.092C408.75 98.8333 409.001 97.7283 409.506 96.7804C410.009 95.8326 410.713 95.1054 411.618 94.6022C412.536 94.083 413.588 93.8242 414.775 93.8242C415.931 93.8242 416.953 94.0766 417.842 94.5799C418.732 95.0832 419.413 95.7802 419.888 96.6693C420.377 97.5441 420.621 98.5364 420.621 99.6477ZM418.532 99.2254C418.532 98.4554 418.36 97.7949 418.02 97.2472C417.679 96.6835 417.212 96.2613 416.62 95.9803C416.042 95.6834 415.397 95.5357 414.686 95.5357C413.663 95.5357 412.788 95.8612 412.062 96.5137C411.351 97.1662 410.943 98.0696 410.84 99.2254H418.532Z" fill="#878B9E"/>
<path d="M393.726 100.07C393.726 98.8253 393.977 97.7361 394.482 96.8026C394.986 95.8547 395.675 95.1213 396.55 94.6021C397.439 94.0829 398.431 93.8242 399.529 93.8242C400.477 93.8242 401.358 94.0464 402.174 94.491C402.989 94.9212 403.611 95.4912 404.042 96.2024V89.7566H406.087V106.205H404.042V103.915C403.642 104.641 403.048 105.241 402.263 105.716C401.477 106.174 400.558 106.405 399.506 106.405C398.423 106.405 397.439 106.138 396.55 105.605C395.675 105.071 394.986 104.323 394.482 103.36C393.977 102.396 393.726 101.3 393.726 100.07ZM404.042 100.092C404.042 99.173 403.856 98.3727 403.486 97.6916C403.114 97.0105 402.611 96.4914 401.974 96.1358C401.352 95.7659 400.663 95.5801 399.907 95.5801C399.151 95.5801 398.462 95.7579 397.839 96.1135C397.217 96.4692 396.72 96.9884 396.35 97.6695C395.978 98.3506 395.794 99.1507 395.794 100.07C395.794 101.004 395.978 101.818 396.35 102.515C396.72 103.196 397.217 103.723 397.839 104.093C398.462 104.449 399.151 104.627 399.907 104.627C400.663 104.627 401.352 104.449 401.974 104.093C402.611 103.723 403.114 103.196 403.486 102.515C403.856 101.818 404.042 101.011 404.042 100.092Z" fill="#878B9E"/>
<path d="M378.703 100.07C378.703 98.8253 378.954 97.7361 379.459 96.8026C379.962 95.8547 380.651 95.1213 381.526 94.6021C382.415 94.0829 383.408 93.8242 384.505 93.8242C385.453 93.8242 386.335 94.0464 387.151 94.491C387.965 94.9212 388.588 95.4912 389.018 96.2024V89.7566H391.063V106.205H389.018V103.915C388.618 104.641 388.024 105.241 387.24 105.716C386.454 106.174 385.534 106.405 384.483 106.405C383.4 106.405 382.415 106.138 381.526 105.605C380.651 105.071 379.962 104.323 379.459 103.36C378.954 102.396 378.703 101.3 378.703 100.07ZM389.018 100.092C389.018 99.173 388.832 98.3727 388.462 97.6916C388.091 97.0105 387.587 96.4914 386.951 96.1358C386.328 95.7659 385.639 95.5801 384.883 95.5801C384.127 95.5801 383.438 95.7579 382.816 96.1135C382.193 96.4692 381.696 96.9884 381.326 97.6695C380.955 98.3506 380.77 99.1507 380.77 100.07C380.77 101.004 380.955 101.818 381.326 102.515C381.696 103.196 382.193 103.723 382.816 104.093C383.438 104.449 384.127 104.627 384.883 104.627C385.639 104.627 386.328 104.449 386.951 104.093C387.587 103.723 388.091 103.196 388.462 102.515C388.832 101.818 389.018 101.011 389.018 100.092Z" fill="#878B9E"/>
<path d="M363.679 100.07C363.679 98.8253 363.93 97.7362 364.435 96.8026C364.939 95.8548 365.628 95.1213 366.503 94.6022C367.392 94.083 368.376 93.8242 369.459 93.8242C370.527 93.8242 371.452 94.0544 372.238 94.5132C373.023 94.9721 373.609 95.55 373.995 96.247V94.0242H376.04V106.205H373.995V103.938C373.594 104.649 372.994 105.241 372.194 105.716C371.408 106.175 370.488 106.405 369.437 106.405C368.354 106.405 367.376 106.138 366.503 105.605C365.628 105.071 364.939 104.323 364.435 103.36C363.93 102.396 363.679 101.3 363.679 100.07ZM373.995 100.092C373.995 99.173 373.809 98.3728 373.439 97.6917C373.067 97.0106 372.564 96.4915 371.927 96.1358C371.305 95.7659 370.615 95.5801 369.86 95.5801C369.104 95.5801 368.415 95.758 367.792 96.1136C367.17 96.4692 366.673 96.9884 366.303 97.6695C365.931 98.3506 365.747 99.1508 365.747 100.07C365.747 101.004 365.931 101.818 366.303 102.515C366.673 103.196 367.17 103.723 367.792 104.093C368.415 104.449 369.104 104.627 369.86 104.627C370.615 104.627 371.305 104.449 371.927 104.093C372.564 103.723 373.067 103.196 373.439 102.515C373.809 101.818 373.995 101.012 373.995 100.092Z" fill="#878B9E"/>
<path d="M345.28 106.405C344.346 106.405 343.508 106.249 342.768 105.938C342.026 105.612 341.44 105.168 341.011 104.604C340.581 104.026 340.345 103.368 340.3 102.626H342.39C342.449 103.234 342.73 103.73 343.235 104.115C343.752 104.501 344.427 104.693 345.258 104.693C346.028 104.693 346.636 104.523 347.081 104.182C347.525 103.841 347.747 103.412 347.747 102.893C347.747 102.359 347.509 101.967 347.036 101.715C346.561 101.448 345.828 101.189 344.835 100.937C343.93 100.7 343.19 100.462 342.612 100.226C342.048 99.9732 341.559 99.6112 341.145 99.1365C340.745 98.6475 340.545 98.0109 340.545 97.225C340.545 96.6026 340.729 96.0326 341.1 95.5135C341.47 94.9943 341.996 94.5878 342.679 94.2909C343.36 93.9798 344.138 93.8242 345.013 93.8242C346.361 93.8242 347.451 94.1655 348.281 94.8466C349.11 95.5277 349.555 96.4613 349.615 97.6473H347.592C347.547 97.0106 347.287 96.4994 346.814 96.1136C346.353 95.7278 345.731 95.5357 344.946 95.5357C344.219 95.5357 343.641 95.6913 343.212 96.0024C342.782 96.3136 342.568 96.7217 342.568 97.225C342.568 97.6251 342.693 97.9584 342.946 98.2251C343.212 98.4776 343.538 98.684 343.924 98.8475C344.324 98.9952 344.872 99.1667 345.569 99.3588C346.442 99.5953 347.154 99.8335 347.703 100.07C348.251 100.292 348.718 100.634 349.104 101.092C349.504 101.551 349.71 102.151 349.726 102.893C349.726 103.56 349.54 104.16 349.17 104.693C348.799 105.227 348.273 105.649 347.592 105.96C346.925 106.257 346.153 106.405 345.28 106.405Z" fill="#878B9E"/>
<path d="M334.696 96.0025C335.052 95.3055 335.555 94.7657 336.208 94.3799C336.875 93.9941 337.683 93.802 338.631 93.802V95.8914H338.098C335.83 95.8914 334.696 97.1218 334.696 99.581V106.205H332.673V94.0242H334.696V96.0025Z" fill="#878B9E"/>
<path d="M330.002 99.6477C330.002 100.034 329.98 100.44 329.936 100.87H320.198C320.273 102.07 320.681 103.012 321.421 103.693C322.177 104.36 323.088 104.693 324.155 104.693C325.03 104.693 325.756 104.493 326.334 104.093C326.928 103.679 327.342 103.129 327.579 102.448H329.758C329.432 103.618 328.78 104.574 327.801 105.316C326.823 106.041 325.608 106.405 324.155 106.405C322.999 106.405 321.962 106.146 321.043 105.627C320.139 105.108 319.428 104.374 318.909 103.426C318.391 102.463 318.131 101.351 318.131 100.092C318.131 98.8333 318.383 97.7283 318.887 96.7804C319.392 95.8326 320.095 95.1054 320.999 94.6022C321.918 94.083 322.971 93.8242 324.155 93.8242C325.311 93.8242 326.334 94.0766 327.223 94.5799C328.113 95.0832 328.795 95.7802 329.269 96.6693C329.758 97.5441 330.002 98.5364 330.002 99.6477ZM327.912 99.2254C327.912 98.4554 327.743 97.7949 327.401 97.2472C327.061 96.6835 326.594 96.2613 326.001 95.9803C325.423 95.6834 324.778 95.5357 324.066 95.5357C323.044 95.5357 322.17 95.8612 321.443 96.5137C320.732 97.1662 320.325 98.0696 320.22 99.2254H327.912Z" fill="#878B9E"/>
<path d="M311.585 106.405C310.651 106.405 309.815 106.249 309.073 105.938C308.331 105.612 307.747 105.168 307.317 104.604C306.886 104.026 306.65 103.368 306.605 102.626H308.695C308.754 103.234 309.037 103.73 309.54 104.115C310.059 104.501 310.732 104.693 311.563 104.693C312.333 104.693 312.941 104.523 313.386 104.182C313.831 103.841 314.053 103.412 314.053 102.893C314.053 102.359 313.816 101.967 313.341 101.715C312.867 101.448 312.133 101.189 311.141 100.937C310.237 100.7 309.495 100.462 308.917 100.226C308.354 99.9732 307.865 99.6112 307.45 99.1365C307.05 98.6475 306.85 98.0109 306.85 97.225C306.85 96.6026 307.036 96.0326 307.406 95.5135C307.776 94.9943 308.303 94.5878 308.984 94.2909C309.665 93.9798 310.443 93.8242 311.318 93.8242C312.667 93.8242 313.756 94.1655 314.586 94.8466C315.417 95.5277 315.861 96.4613 315.92 97.6473H313.897C313.853 97.0106 313.594 96.4994 313.119 96.1136C312.66 95.7278 312.038 95.5357 311.252 95.5357C310.526 95.5357 309.948 95.6913 309.518 96.0024C309.087 96.3136 308.873 96.7217 308.873 97.225C308.873 97.6251 308.998 97.9584 309.251 98.2251C309.518 98.4776 309.843 98.684 310.229 98.8475C310.629 98.9952 311.177 99.1667 311.874 99.3588C312.749 99.5953 313.461 99.8335 314.008 100.07C314.556 100.292 315.023 100.634 315.409 101.092C315.809 101.551 316.017 102.151 316.031 102.893C316.031 103.56 315.846 104.16 315.476 104.693C315.106 105.227 314.578 105.649 313.897 105.96C313.23 106.257 312.46 106.405 311.585 106.405Z" fill="#878B9E"/>
<path d="M303.855 94.0242V106.205H301.832V104.404C301.448 105.027 300.906 105.516 300.209 105.871C299.528 106.213 298.772 106.382 297.942 106.382C296.994 106.382 296.141 106.19 295.385 105.805C294.629 105.404 294.029 104.812 293.584 104.026C293.156 103.241 292.94 102.285 292.94 101.159V94.0242H294.94V100.892C294.94 102.093 295.245 103.018 295.852 103.671C296.46 104.307 297.291 104.627 298.342 104.627C299.425 104.627 300.276 104.293 300.898 103.626C301.521 102.959 301.832 101.989 301.832 100.715V94.0242H303.855Z" fill="#878B9E"/>
<path d="M285.092 94.0242L277.756 111.939H275.666L278.067 106.071L273.154 94.0242H275.399L279.223 103.893L283.002 94.0242H285.092Z" fill="#878B9E"/>
<path d="M271.15 89.7566V106.205H269.127V89.7566H271.15Z" fill="#878B9E"/>
<path d="M260.842 93.802C262.326 93.802 263.526 94.2545 264.444 95.1579C265.363 96.0469 265.822 97.3361 265.822 99.0254V106.205H263.821V99.3143C263.821 98.0997 263.518 97.1726 262.91 96.5359C262.303 95.8834 261.473 95.5579 260.42 95.5579C259.353 95.5579 258.502 95.8913 257.863 96.5582C257.241 97.225 256.93 98.195 256.93 99.4699V106.205H254.907V94.0242H256.93V95.758C257.33 95.1356 257.871 94.6546 258.553 94.3132C259.25 93.9719 260.014 93.802 260.842 93.802Z" fill="#878B9E"/>
<path d="M244.455 106.36C243.018 106.36 241.706 106.027 240.52 105.36C239.335 104.679 238.394 103.738 237.696 102.537C237.015 101.323 236.674 99.959 236.674 98.4475C236.674 96.9361 237.015 95.5802 237.696 94.38C238.394 93.1654 239.335 92.2239 240.52 91.5571C241.706 90.876 243.018 90.5347 244.455 90.5347C245.908 90.5347 247.227 90.876 248.412 91.5571C249.598 92.2239 250.532 93.1575 251.213 94.3578C251.896 95.558 252.236 96.9218 252.236 98.4475C252.236 99.9733 251.896 101.337 251.213 102.537C250.532 103.738 249.598 104.679 248.412 105.36C247.227 106.027 245.908 106.36 244.455 106.36ZM244.455 104.604C245.538 104.604 246.508 104.352 247.367 103.849C248.242 103.345 248.923 102.626 249.412 101.693C249.917 100.759 250.168 99.678 250.168 98.4475C250.168 97.2028 249.917 96.1216 249.412 95.2024C248.923 94.2688 248.25 93.5496 247.389 93.0463C246.53 92.543 245.552 92.2906 244.455 92.2906C243.359 92.2906 242.381 92.543 241.52 93.0463C240.661 93.5496 239.98 94.2688 239.475 95.2024C238.986 96.1216 238.741 97.2028 238.741 98.4475C238.741 99.678 238.986 100.759 239.475 101.693C239.98 102.626 240.661 103.345 241.52 103.849C242.395 104.352 243.373 104.604 244.455 104.604Z" fill="#878B9E"/>
<path fill-rule="evenodd" clip-rule="evenodd" d="M249.378 192.138C248.939 192.138 248.584 192.494 248.584 192.932V200.87H240.644C240.206 200.87 239.85 201.226 239.85 201.664C239.85 202.102 240.206 202.458 240.644 202.458H248.584V210.396C248.584 210.834 248.939 211.19 249.378 211.19C249.816 211.19 250.171 210.834 250.171 210.396V202.458H258.111C258.549 202.458 258.905 202.102 258.905 201.664C258.905 201.226 258.549 200.87 258.111 200.87H250.171V192.932C250.171 192.494 249.816 192.138 249.378 192.138Z" fill="#0683DE"/>
<path d="M278.521 193.932V209.602H276.498V193.932H278.521ZM288.198 197.199C289.621 197.199 290.77 197.658 291.644 198.577C292.519 199.481 292.955 200.792 292.955 202.512V209.602H290.932V202.689C290.932 201.475 290.621 200.541 289.999 199.889C289.376 199.236 288.531 198.911 287.464 198.911C286.353 198.911 285.463 199.274 284.797 200C284.13 200.711 283.796 201.756 283.796 203.134V209.602H281.773V197.399H283.796V200.289C284.107 199.297 284.657 198.533 285.441 198C286.242 197.466 287.161 197.199 288.198 197.199ZM300.793 207.446L304.573 197.399H306.751L301.972 209.602H299.571L294.791 197.399H296.97L300.793 207.446ZM308.382 193.821C308.382 193.451 308.508 193.154 308.76 192.932C309.011 192.695 309.345 192.576 309.761 192.576C310.175 192.576 310.509 192.695 310.761 192.932C311.012 193.154 311.139 193.451 311.139 193.821C311.139 194.191 311.012 194.496 310.761 194.732C310.509 194.954 310.175 195.066 309.761 195.066C309.345 195.066 309.011 194.954 308.76 194.732C308.508 194.496 308.382 194.191 308.382 193.821ZM310.761 197.399V209.602H308.738V197.399H310.761ZM319.838 207.824V209.602H318.326C317.081 209.602 316.147 209.305 315.525 208.713C314.917 208.121 314.613 207.127 314.613 205.735V199.155H312.79V197.399H314.613V194.354H316.659V197.399H319.815V199.155H316.659V205.779C316.659 206.565 316.8 207.105 317.081 207.402C317.378 207.683 317.881 207.824 318.593 207.824H319.838ZM333.534 202.823C333.534 203.253 333.504 203.623 333.445 203.934H323.685C323.73 205.327 324.122 206.371 324.864 207.068C325.619 207.765 326.537 208.113 327.62 208.113C328.598 208.113 329.413 207.868 330.066 207.379C330.733 206.876 331.139 206.209 331.288 205.379H333.445C333.296 206.224 332.962 206.979 332.444 207.646C331.939 208.313 331.28 208.832 330.466 209.202C329.65 209.572 328.732 209.758 327.709 209.758C326.537 209.758 325.5 209.505 324.597 209.002C323.692 208.499 322.98 207.78 322.463 206.846C321.958 205.898 321.707 204.787 321.707 203.512C321.707 202.237 321.958 201.126 322.463 200.178C322.98 199.23 323.692 198.503 324.597 198C325.5 197.496 326.537 197.244 327.709 197.244C328.894 197.244 329.924 197.496 330.799 198C331.689 198.503 332.362 199.178 332.822 200.022C333.296 200.867 333.534 201.8 333.534 202.823ZM331.488 202.956C331.533 202.053 331.384 201.297 331.044 200.689C330.702 200.081 330.236 199.63 329.643 199.333C329.049 199.036 328.405 198.889 327.709 198.889C326.598 198.889 325.664 199.236 324.908 199.933C324.152 200.614 323.744 201.623 323.685 202.956H331.488ZM357.367 194.199V209.602H355.344V197.311L350.431 209.602H348.63L343.695 197.355V209.602H341.672V194.199H344.095L349.564 207.135L354.944 194.199H357.367ZM371.83 202.823C371.83 203.253 371.8 203.623 371.741 203.934H361.982C362.026 205.327 362.418 206.371 363.16 207.068C363.916 207.765 364.834 208.113 365.917 208.113C366.895 208.113 367.709 207.868 368.362 207.379C369.029 206.876 369.436 206.209 369.585 205.379H371.741C371.592 206.224 371.259 206.979 370.741 207.646C370.236 208.313 369.577 208.832 368.762 209.202C367.946 209.572 367.028 209.758 366.006 209.758C364.834 209.758 363.797 209.505 362.893 209.002C361.988 208.499 361.277 207.78 360.759 206.846C360.254 205.898 360.003 204.787 360.003 203.512C360.003 202.237 360.254 201.126 360.759 200.178C361.277 199.23 361.988 198.503 362.893 198C363.797 197.496 364.834 197.244 366.006 197.244C367.19 197.244 368.221 197.496 369.096 198C369.985 198.503 370.658 199.178 371.119 200.022C371.592 200.867 371.83 201.8 371.83 202.823ZM369.785 202.956C369.829 202.053 369.68 201.297 369.34 200.689C368.999 200.081 368.532 199.63 367.94 199.333C367.346 199.036 366.701 198.889 366.006 198.889C364.894 198.889 363.96 199.236 363.204 199.933C362.449 200.614 362.041 201.623 361.982 202.956H369.785ZM389.482 197.199C390.905 197.199 392.046 197.658 392.905 198.577C393.78 199.481 394.217 200.792 394.217 202.512V209.602H392.194V202.689C392.194 201.489 391.897 200.57 391.305 199.933C390.727 199.297 389.926 198.978 388.904 198.978C387.837 198.978 386.978 199.333 386.325 200.044C385.688 200.741 385.369 201.77 385.369 203.134V209.602H383.346V202.689C383.346 201.489 383.049 200.57 382.457 199.933C381.864 199.297 381.064 198.978 380.056 198.978C378.974 198.978 378.107 199.333 377.455 200.044C376.818 200.741 376.499 201.77 376.499 203.134V209.602H374.476V197.399H376.499V200.178C376.796 199.214 377.321 198.481 378.077 197.977C378.847 197.458 379.73 197.199 380.723 197.199C381.76 197.199 382.657 197.466 383.413 198C384.183 198.519 384.732 199.289 385.058 200.311C385.399 199.319 385.969 198.555 386.77 198.022C387.57 197.474 388.473 197.199 389.482 197.199ZM404.094 197.244C405.177 197.244 406.139 197.496 406.984 198C407.829 198.503 408.49 199.23 408.963 200.178C409.452 201.126 409.696 202.237 409.696 203.512C409.696 204.787 409.452 205.898 408.963 206.846C408.49 207.78 407.829 208.499 406.984 209.002C406.139 209.505 405.177 209.758 404.094 209.758C402.909 209.758 401.901 209.461 401.071 208.869C400.256 208.261 399.692 207.468 399.381 206.49V209.602H397.358V193.154H399.381V200.511C399.692 199.533 400.256 198.747 401.071 198.155C401.901 197.547 402.909 197.244 404.094 197.244ZM403.516 199.044C402.732 199.044 402.02 199.23 401.382 199.6C400.745 199.956 400.248 200.475 399.892 201.156C399.537 201.837 399.359 202.623 399.359 203.512C399.359 204.401 399.537 205.187 399.892 205.868C400.248 206.535 400.745 207.054 401.382 207.424C402.02 207.794 402.732 207.98 403.516 207.98C404.777 207.98 405.777 207.587 406.517 206.802C407.273 206.001 407.651 204.904 407.651 203.512C407.651 202.12 407.273 201.03 406.517 200.245C405.777 199.444 404.777 199.044 403.516 199.044ZM423.565 202.823C423.565 203.253 423.535 203.623 423.477 203.934H413.717C413.761 205.327 414.154 206.371 414.895 207.068C415.651 207.765 416.571 208.113 417.652 208.113C418.63 208.113 419.445 207.868 420.097 207.379C420.764 206.876 421.172 206.209 421.32 205.379H423.477C423.329 206.224 422.995 206.979 422.476 207.646C421.973 208.313 421.312 208.832 420.497 209.202C419.683 209.572 418.763 209.758 417.741 209.758C416.571 209.758 415.532 209.505 414.628 209.002C413.725 208.499 413.014 207.78 412.494 206.846C411.991 205.898 411.738 204.787 411.738 203.512C411.738 202.237 411.991 201.126 412.494 200.178C413.014 199.23 413.725 198.503 414.628 198C415.532 197.496 416.571 197.244 417.741 197.244C418.927 197.244 419.956 197.496 420.831 198C421.72 198.503 422.395 199.178 422.854 200.022C423.329 200.867 423.565 201.8 423.565 202.823ZM421.52 202.956C421.565 202.053 421.417 201.297 421.076 200.689C420.734 200.081 420.267 199.63 419.675 199.333C419.083 199.036 418.438 198.889 417.741 198.889C416.629 198.889 415.696 199.236 414.94 199.933C414.184 200.614 413.776 201.623 413.717 202.956H421.52ZM428.234 199.867C428.634 199.022 429.22 198.37 429.99 197.911C430.762 197.436 431.68 197.199 432.747 197.199V199.4H432.124C430.984 199.4 430.051 199.697 429.323 200.289C428.598 200.867 428.234 201.831 428.234 203.179V209.602H426.211V197.399H428.234V199.867ZM438.567 197.244C439.945 197.244 441.05 197.607 441.879 198.333C442.724 199.044 443.235 200.008 443.413 201.223H441.479C441.39 200.497 441.087 199.903 440.568 199.444C440.064 198.97 439.383 198.733 438.522 198.733C437.797 198.733 437.227 198.911 436.81 199.267C436.41 199.608 436.21 200.075 436.21 200.667C436.21 201.111 436.344 201.475 436.61 201.756C436.893 202.023 437.233 202.231 437.633 202.378C438.049 202.512 438.611 202.659 439.323 202.823C440.228 203.031 440.953 203.245 441.501 203.467C442.065 203.675 442.54 204.015 442.924 204.49C443.324 204.965 443.524 205.601 443.524 206.401C443.524 207.394 443.146 208.202 442.391 208.824C441.651 209.447 440.656 209.758 439.412 209.758C437.96 209.758 436.774 209.41 435.855 208.713C434.937 208.016 434.395 207.046 434.232 205.801H436.188C436.263 206.543 436.582 207.143 437.144 207.602C437.722 208.061 438.478 208.291 439.412 208.291C440.109 208.291 440.65 208.113 441.034 207.757C441.435 207.402 441.635 206.935 441.635 206.357C441.635 205.882 441.495 205.504 441.212 205.223C440.931 204.942 440.583 204.726 440.167 204.579C439.753 204.431 439.183 204.276 438.456 204.112C437.552 203.904 436.826 203.698 436.277 203.49C435.743 203.282 435.284 202.956 434.899 202.512C434.529 202.053 434.343 201.437 434.343 200.667C434.343 199.644 434.721 198.822 435.477 198.2C436.232 197.563 437.263 197.244 438.567 197.244Z" fill="#0683DE"/>
</g>
<defs>
<filter id="filter0_d_2067_488" x="0.658569" y="0.430664" width="800.736" height="283.014" filterUnits="userSpaceOnUse" color-interpolation-filters="sRGB">
<feFlood flood-opacity="0" result="BackgroundImageFix"/>
<feColorMatrix in="SourceAlpha" type="matrix" values="0 0 0 0 0 0 0 0 0 0 0 0 0 0 0 0 0 0 127 0" result="hardAlpha"/>
<feOffset dy="1"/>
<feGaussianBlur stdDeviation="0.5"/>
<feComposite in2="hardAlpha" operator="out"/>
<feColorMatrix type="matrix" values="0 0 0 0 0.529412 0 0 0 0 0.545098 0 0 0 0 0.619608 0 0 0 0.35 0"/>
<feBlend mode="normal" in2="BackgroundImageFix" result="effect1_dropShadow_2067_488"/>
<feBlend mode="normal" in="SourceGraphic" in2="effect1_dropShadow_2067_488" result="shape"/>
</filter>
</defs>
</svg>
