<svg width="790" height="255" viewBox="0 0 790 255" fill="none" xmlns="http://www.w3.org/2000/svg">
<path d="M492.21 0.977783H13.0554C6.03938 0.977783 0.351807 6.66431 0.351807 13.679V242.148C0.351807 249.163 6.03938 254.849 13.0554 254.849H492.21C499.226 254.849 504.913 249.163 504.913 242.148V13.679C504.913 6.66431 499.226 0.977783 492.21 0.977783Z" fill="white"/>
<path d="M140.264 44.3001C134.107 34.717 122.083 29.6016 110.41 29.4825C98.7368 29.3634 87.4188 33.6517 77.4178 39.4688C67.1008 45.4717 57.2785 54.0514 54.9084 65.4603C52.8161 75.5307 56.9028 85.7377 60.9116 95.2509C65.2686 105.591 69.6258 115.932 73.9828 126.272C82.7593 147.1 93.4037 169.851 114.724 178.871C127.34 184.209 141.661 183.721 155.419 183.138C161.816 182.867 168.402 182.553 174.203 179.935C190.003 172.803 193.219 152.721 193.346 135.871C193.5 115.114 192.029 93.7125 182.672 75.029C173.312 56.344 154.465 40.8485 132.987 40.4691L140.264 44.3001Z" fill="#EFF5FD"/>
<mask id="mask0_2067_193" style="mask-type:luminance" maskUnits="userSpaceOnUse" x="70" y="59" width="102" height="98">
<path d="M171.85 59.6447H70.2214V156.491H171.85V59.6447Z" fill="white"/>
</mask>
<g mask="url(#mask0_2067_193)">
<path d="M137.534 65.1601C133.844 59.1271 126.639 55.9073 119.644 55.8327C112.649 55.7581 105.867 58.4571 99.8743 62.1182C93.6921 65.8968 87.8062 71.298 86.386 78.4789C85.1321 84.8184 87.5811 91.2421 89.9833 97.2307C92.5942 103.738 95.2051 110.248 97.816 116.757C103.075 129.866 109.454 144.187 122.23 149.864C129.789 153.224 138.371 152.918 146.615 152.551C150.448 152.381 154.395 152.182 157.871 150.534C167.34 146.045 169.266 133.405 169.342 122.798C169.435 109.733 168.553 96.2622 162.946 84.5009C157.338 72.7412 146.044 62.9866 133.173 62.7485L137.534 65.1601Z" fill="#DEECFC" fill-opacity="0.5"/>
<g opacity="0.7">
<path d="M120.903 115.047C122.41 115.047 123.637 116.23 123.62 117.668C123.602 119.121 122.323 120.247 120.728 120.223C119.247 120.197 118.205 119.089 118.222 117.578C118.24 116.173 119.44 115.039 120.903 115.047Z" fill="white"/>
<path d="M122.446 111.943C125.171 112.625 127.011 114.835 127.028 117.462C127.037 120.083 125.223 122.333 122.516 123.032C119.878 123.722 116.952 122.612 115.576 120.404C114.166 118.137 114.586 115.311 116.698 113.422C117.162 113.002 117.215 112.682 116.996 112.148C115.217 107.63 113.456 103.095 111.686 98.5706C111.607 98.3563 111.476 98.1594 111.248 97.7403C109.285 106.933 107.366 115.886 105.456 124.814C106.446 125.126 107.34 125.34 108.172 125.669C111.738 127.098 114.139 129.57 115.462 132.98C116.049 134.482 116.636 135.985 117.25 137.53C124.146 135.164 130.91 132.848 137.709 130.514C137.035 128.774 136.395 127.172 135.799 125.545C134.371 121.626 134.905 117.938 137.297 114.473C137.446 114.26 137.578 114.045 137.744 113.791C130.06 108.049 122.428 102.349 114.569 96.467C114.753 97.0338 114.84 97.3466 114.954 97.6419C116.54 101.7 118.17 105.74 119.686 109.824C120.15 111.064 120.544 112.107 122.244 111.885C122.306 111.877 122.376 111.926 122.446 111.943ZM168.78 145.367C171.601 145.178 171.926 146.014 171.837 148.38C171.777 149.933 171.837 151.485 171.82 153.046C171.802 154.319 171.181 154.886 169.779 154.894C167.799 154.912 165.827 154.902 163.847 154.894C162.243 154.894 161.682 154.361 161.665 152.883C161.657 152.529 161.665 152.176 161.665 151.773C150.362 151.773 139.155 151.773 127.799 151.773C127.799 152.71 127.808 153.654 127.799 154.599C127.773 155.896 127.168 156.48 125.784 156.48C122.612 156.496 119.44 156.496 116.26 156.48C114.884 156.48 114.271 155.896 114.253 154.599C114.244 153.678 114.253 152.759 114.253 151.781C102.941 151.781 91.7171 151.781 80.3876 151.781C80.3876 152.274 80.4052 152.725 80.3876 153.178C80.335 154.245 79.7305 154.87 78.6176 154.886C76.4009 154.92 74.1752 154.92 71.9584 154.886C70.8983 154.87 70.2587 154.245 70.2411 153.235C70.2149 151.19 70.2149 149.136 70.2411 147.091C70.2587 145.983 70.9071 145.416 72.1074 145.375C72.5631 145.367 73.0187 145.375 73.5445 145.375C73.5445 120.51 73.5445 95.6954 73.5445 70.7566C73.0275 70.7566 72.5104 70.782 71.9935 70.7566C70.9245 70.7074 70.2587 70.1247 70.2411 69.1388C70.2149 67.0605 70.2149 64.9744 70.2411 62.8882C70.2587 61.8118 70.942 61.2529 72.1688 61.245C74.1841 61.2291 76.1906 61.237 78.2059 61.237C79.8005 61.245 80.3701 61.7784 80.3876 63.2581C80.3965 63.6106 80.3876 63.9646 80.3876 64.3663C91.6907 64.3663 102.897 64.3663 114.253 64.3663C114.253 63.4216 114.244 62.477 114.253 61.5323C114.279 60.2352 114.884 59.6605 116.268 59.651C119.44 59.643 122.612 59.643 125.793 59.651C127.169 59.6605 127.773 60.2352 127.799 61.5403C127.808 62.4611 127.799 63.3804 127.799 64.3504C139.111 64.3504 150.336 64.3504 161.665 64.3504C161.665 63.8646 161.647 63.4057 161.665 62.9533C161.709 61.8864 162.313 61.2608 163.426 61.245C165.652 61.2212 167.869 61.2211 170.094 61.2529C171.154 61.2704 171.794 61.8864 171.812 62.8961C171.837 64.941 171.837 66.9954 171.812 69.0403C171.802 70.1406 171.137 70.7248 169.944 70.7566C169.49 70.774 169.034 70.7645 168.509 70.7645C168.509 95.6208 168.509 120.436 168.509 145.308C168.649 145.341 168.718 145.367 168.78 145.367ZM168.36 67.5289C168.36 66.4699 168.36 65.4665 168.36 64.4568C167.246 64.4568 166.203 64.4568 165.099 64.4568C165.099 65.5411 165.099 66.5191 165.099 67.5289C166.221 67.5289 167.291 67.5289 168.36 67.5289ZM168.35 151.69C168.35 150.582 168.35 149.58 168.35 148.602C167.219 148.602 166.178 148.602 165.117 148.602C165.117 149.653 165.117 150.657 165.117 151.69C166.221 151.69 167.264 151.69 168.35 151.69ZM164.977 91.5881C164.977 84.4993 164.977 77.6486 164.977 70.8137C162.016 70.6169 162.016 70.6169 161.55 67.6353C154.155 67.6353 146.743 67.6353 139.041 67.6353C151.142 72.4569 159.667 80.3508 164.977 91.5881ZM164.801 145.308C164.801 138.483 164.801 131.722 164.801 124.675C159.475 135.863 150.879 143.576 139.094 148.478C146.761 148.478 154.182 148.478 161.603 148.478C161.682 145.416 162.006 145.432 164.801 145.308ZM145.665 141.505C159.632 133.308 168.903 115.811 163.478 97.4942C157.959 78.8727 140.759 69.4102 127.799 68.21C127.799 68.9752 127.808 69.731 127.799 70.4867C127.773 71.7266 127.16 72.3426 125.872 72.3426C122.621 72.3585 119.379 72.3585 116.137 72.3426C114.893 72.3347 114.288 71.7266 114.262 70.5359C114.244 69.7802 114.253 69.0245 114.253 68.1703C94.4858 70.2644 75.7787 87.1856 77.0756 110.184C78.381 133.177 98.4201 146.64 114.166 147.88C114.639 146.426 113.272 144.298 116.023 143.682C114.814 140.602 113.596 137.571 112.457 134.523C110.967 130.54 108.05 128.272 103.563 127.771C102.074 127.607 101.548 126.901 101.846 125.521C104.054 115.122 106.28 104.731 108.453 94.3237C108.689 93.1901 108.917 91.9501 108.698 90.8404C107.673 85.617 110.389 81.443 115.9 80.0554C118.88 79.3077 121.894 79.4315 124.934 79.5871C127.352 79.7189 129.797 79.8173 132.207 79.6522C135.063 79.4553 136.202 78.371 136.816 75.8752C136.851 75.71 136.991 75.4719 137.131 75.4386C138.104 75.2179 139.094 75.0369 140.198 74.8226C140.198 75.5624 140.277 76.1625 140.18 76.7373C139.698 79.7681 137.35 81.8622 133.635 82.6592C130.559 83.3165 127.466 83.0529 124.373 82.783C121.552 82.5354 118.731 82.5036 116.006 83.399C113.254 84.3024 111.887 86.2076 111.957 88.9177C111.984 90.0195 112.343 90.8658 113.359 91.6215C122.516 98.3976 131.628 105.232 140.759 112.05C142.073 113.036 142.143 113.807 141.056 114.957C138.314 117.873 137.648 121.191 139.05 124.83C141.074 130.071 143.159 135.304 145.227 140.535C145.35 140.856 145.516 141.177 145.665 141.505ZM142.695 143.263C141.407 139.969 140.163 136.766 138.883 133.488C132.014 135.845 125.25 138.17 118.424 140.512C118.766 141.44 119.116 142.261 119.388 143.107C119.563 143.641 119.861 143.814 120.457 143.796C122.253 143.765 124.049 143.773 125.854 143.789C127.169 143.806 127.782 144.381 127.808 145.621C127.826 146.392 127.808 147.165 127.808 148.035C133.179 147.264 138.06 145.703 142.695 143.263ZM124.356 153.268C124.356 151.116 124.356 149.086 124.356 147.026C122.104 147.026 119.913 147.026 117.714 147.026C117.714 149.145 117.714 151.198 117.714 153.268C119.957 153.268 122.13 153.268 124.356 153.268ZM124.338 69.1308C124.338 66.9954 124.338 64.9331 124.338 62.9041C122.069 62.9041 119.87 62.9041 117.697 62.9041C117.697 65.0156 117.697 67.0526 117.697 69.1308C119.922 69.1308 122.095 69.1308 124.338 69.1308ZM123.62 117.668C123.637 116.23 122.411 115.047 120.904 115.047C119.44 115.039 118.24 116.173 118.222 117.578C118.205 119.089 119.248 120.198 120.728 120.223C122.323 120.247 123.602 119.121 123.62 117.668ZM102.968 67.6607C95.2831 67.6607 87.8617 67.6607 80.449 67.6607C80.2212 70.4454 80.2212 70.4454 77.0843 70.855C77.0843 77.6898 77.0843 84.5152 77.0843 91.5881C82.3854 80.3269 90.9196 72.449 102.968 67.6607ZM80.5016 148.504C87.9143 148.504 95.3359 148.504 102.757 148.504C90.9196 143.674 82.3766 135.78 77.0843 124.543C77.0843 131.64 77.0843 138.491 77.0843 145.333C80.0284 145.497 80.0284 145.497 80.5016 148.504ZM76.9529 67.513C76.9529 66.4604 76.9529 65.484 76.9529 64.4726C75.8313 64.4726 74.7623 64.4726 73.6845 64.4726C73.6845 65.5332 73.6845 66.5271 73.6845 67.513C74.8325 67.513 75.8927 67.513 76.9529 67.513ZM76.9354 151.674C76.9354 150.615 76.9354 149.622 76.9354 148.618C75.8051 148.618 74.7361 148.618 73.6671 148.618C73.6671 149.671 73.6671 150.639 73.6671 151.674C74.8325 151.674 75.8751 151.674 76.9354 151.674Z" fill="#11172C"/>
</g>
</g>
<path d="M477.526 22.916V30.1494C477.526 30.6526 477.642 31.021 477.877 31.2559C478.128 31.4718 478.542 31.5798 479.119 31.5798H480.873V34.7646H478.498C475.312 34.7646 473.72 33.2167 473.72 30.1224V22.916H471.938V19.8122H473.72V16.1145H477.526V19.8122H480.873V22.916H477.526Z" fill="#424B66"/>
<path d="M455.914 27.2868C455.914 25.7404 456.228 24.3909 456.859 23.2383C457.488 22.0698 458.361 21.1696 459.477 20.5393C460.592 19.8915 461.87 19.5676 463.311 19.5676C465.164 19.5676 466.693 20.036 467.9 20.9711C469.123 21.8888 469.942 23.1843 470.356 24.8577H466.28C466.064 24.2099 465.694 23.7066 465.173 23.3462C464.668 22.9684 464.04 22.7795 463.284 22.7795C462.204 22.7795 461.348 23.1764 460.719 23.967C460.089 24.7418 459.774 25.8484 459.774 27.2868C459.774 28.7093 460.089 29.8159 460.719 30.6066C461.348 31.3813 462.204 31.7671 463.284 31.7671C464.813 31.7671 465.812 31.0844 466.28 29.7159H470.356C469.942 31.3353 469.123 32.6229 467.9 33.5755C466.676 34.5296 465.146 35.0059 463.311 35.0059C461.87 35.0059 460.592 34.6916 459.477 34.0613C458.361 33.4135 457.488 32.5149 456.859 31.3623C456.228 30.1938 455.914 28.8347 455.914 27.2868Z" fill="#424B66"/>
<path d="M454.126 26.9629C454.126 27.5027 454.091 27.9885 454.02 28.4204H443.087C443.176 29.5 443.554 30.3462 444.219 30.9574C444.886 31.5703 445.705 31.8751 446.677 31.8751C448.081 31.8751 449.08 31.2734 449.673 30.0668H453.75C453.318 31.5068 452.489 32.6943 451.266 33.6295C450.042 34.5471 448.54 35.0059 446.758 35.0059C445.318 35.0059 444.022 34.6916 442.871 34.0613C441.737 33.4135 440.846 32.5054 440.198 31.3353C439.568 30.1668 439.253 28.8173 439.253 27.2868C439.253 25.7404 439.568 24.3814 440.198 23.2113C440.827 22.0428 441.71 21.1426 442.844 20.5123C443.978 19.8836 445.281 19.5676 446.758 19.5676C448.179 19.5676 449.448 19.874 450.564 20.4853C451.698 21.0981 452.57 21.9698 453.183 23.1033C453.812 24.2195 454.126 25.5054 454.126 26.9629ZM450.213 25.8833C450.194 24.9117 449.843 24.1385 449.161 23.5622C448.476 22.9684 447.639 22.6715 446.648 22.6715C445.713 22.6715 444.922 22.9604 444.274 23.5352C443.644 24.094 443.257 24.8767 443.114 25.8833H450.213Z" fill="#424B66"/>
<path d="M434.628 18.0292C433.945 18.0292 433.378 17.8228 432.927 17.4084C432.495 16.9765 432.279 16.4463 432.279 15.816C432.279 15.1873 432.495 14.6649 432.927 14.2506C433.378 13.8187 433.945 13.6028 434.628 13.6028C435.295 13.6028 435.843 13.8187 436.274 14.2506C436.706 14.6649 436.922 15.1873 436.922 15.816C436.922 16.4463 436.706 16.9765 436.274 17.4084C435.843 17.8228 435.295 18.0292 434.628 18.0292ZM436.49 37.2191C436.49 38.875 436.078 40.0626 435.249 40.7818C434.439 41.52 433.27 41.8884 431.739 41.8884H430.066V38.6766H431.145C431.722 38.6766 432.127 38.5607 432.36 38.3257C432.595 38.1098 432.711 37.751 432.711 37.2461V19.8105H436.49V37.2191Z" fill="#424B66"/>
<path d="M422.137 35.0059C420.698 35.0059 419.402 34.6916 418.25 34.0613C417.098 33.4135 416.19 32.5054 415.523 31.3353C414.875 30.1668 414.551 28.8173 414.551 27.2868C414.551 25.7579 414.885 24.4084 415.55 23.2383C416.234 22.0698 417.162 21.1696 418.331 20.5393C419.501 19.8915 420.806 19.5676 422.245 19.5676C423.685 19.5676 424.99 19.8915 426.159 20.5393C427.329 21.1696 428.247 22.0698 428.913 23.2383C429.597 24.4084 429.938 25.7579 429.938 27.2868C429.938 28.8173 429.588 30.1668 428.886 31.3353C428.203 32.5054 427.266 33.4135 426.078 34.0613C424.909 34.6916 423.595 35.0059 422.137 35.0059ZM422.137 31.7132C422.821 31.7132 423.46 31.5512 424.054 31.2273C424.666 30.886 425.152 30.3827 425.511 29.7159C425.872 29.0507 426.051 28.241 426.051 27.2868C426.051 25.8658 425.673 24.7767 424.917 24.021C424.181 23.2478 423.271 22.8604 422.191 22.8604C421.111 22.8604 420.203 23.2478 419.464 24.021C418.745 24.7767 418.385 25.8658 418.385 27.2868C418.385 28.7093 418.735 29.8064 419.437 30.5796C420.158 31.3353 421.057 31.7132 422.137 31.7132Z" fill="#424B66"/>
<path d="M408.363 22.1332C408.849 21.341 409.478 20.7203 410.253 20.2709C411.044 19.8201 411.944 19.5962 412.952 19.5962V23.5637H411.954C410.766 23.5637 409.865 23.8416 409.254 24.4004C408.66 24.9577 408.363 25.9293 408.363 27.3153V34.7646H404.582V19.8121H408.363V22.1332Z" fill="#424B66"/>
<path d="M401.9 21.7554C401.9 22.762 401.657 23.7066 401.171 24.5893C400.703 25.4705 399.957 26.1817 398.931 26.7215C397.922 27.2613 396.644 27.5313 395.097 27.5313H391.939V34.7646H388.16V15.9255H395.097C396.555 15.9255 397.797 16.1764 398.823 16.6813C399.849 17.1845 400.612 17.8767 401.117 18.7595C401.638 19.6406 401.9 20.6393 401.9 21.7554ZM394.935 24.4814C395.979 24.4814 396.752 24.2464 397.257 23.7796C397.76 23.2938 398.013 22.6191 398.013 21.7554C398.013 19.9201 396.987 19.0024 394.935 19.0024H391.939V24.4814H394.935Z" fill="#424B66"/>
<path d="M362.459 27.2328C362.459 25.7214 362.756 24.3814 363.35 23.2113C363.961 22.0428 364.78 21.1426 365.806 20.5123C366.849 19.8836 368.01 19.5676 369.288 19.5676C370.405 19.5676 371.377 19.7931 372.204 20.2424C373.05 20.6933 373.725 21.2601 374.229 21.9428V19.8105H378.035V34.763H374.229V32.5768C373.743 33.2786 373.068 33.8644 372.204 34.3312C371.358 34.7821 370.378 35.0059 369.261 35.0059C368.002 35.0059 366.849 34.6821 365.806 34.0343C364.78 33.3865 363.961 32.4784 363.35 31.3083C362.756 30.1207 362.459 28.7633 362.459 27.2328ZM374.229 27.2868C374.229 26.3691 374.049 25.5864 373.689 24.9387C373.328 24.2734 372.842 23.7701 372.231 23.4272C371.62 23.0684 370.962 22.8874 370.26 22.8874C369.558 22.8874 368.911 23.0589 368.317 23.4002C367.723 23.7432 367.237 24.2464 366.859 24.9117C366.498 25.5594 366.319 26.3342 366.319 27.2328C366.319 28.133 366.498 28.9252 366.859 29.6079C367.237 30.2748 367.723 30.7876 368.317 31.1464C368.928 31.5068 369.576 31.6862 370.26 31.6862C370.962 31.6862 371.62 31.5163 372.231 31.1733C372.842 30.8145 373.328 30.3097 373.689 29.6619C374.049 28.9967 374.229 28.2044 374.229 27.2868Z" fill="#424B66"/>
<path d="M344.561 19.5676C345.677 19.5676 346.657 19.7931 347.504 20.2424C348.35 20.6742 349.015 21.241 349.501 21.9428V19.8105H353.307V34.871C353.307 36.257 353.028 37.489 352.471 38.5686C351.913 39.6673 351.076 40.531 349.96 41.1597C348.844 41.8074 347.494 42.1313 345.911 42.1313C343.788 42.1313 342.041 41.6376 340.674 40.6469C339.324 39.6578 338.559 38.3083 338.379 36.5984H342.132C342.33 37.2826 342.752 37.8224 343.4 38.2178C344.066 38.6322 344.868 38.8385 345.803 38.8385C346.9 38.8385 347.791 38.5067 348.475 37.8399C349.16 37.1921 349.501 36.203 349.501 34.871V32.5498C349.015 33.2516 348.34 33.8374 347.477 34.3042C346.63 34.7726 345.658 35.0059 344.561 35.0059C343.302 35.0059 342.149 34.6821 341.106 34.0343C340.062 33.3865 339.234 32.4784 338.622 31.3083C338.028 30.1207 337.731 28.7633 337.731 27.2328C337.731 25.7214 338.028 24.3814 338.622 23.2113C339.234 22.0428 340.053 21.1426 341.079 20.5123C342.122 19.8836 343.283 19.5676 344.561 19.5676ZM349.501 27.2868C349.501 26.3691 349.322 25.5864 348.961 24.9387C348.601 24.2734 348.115 23.7701 347.504 23.4272C346.892 23.0684 346.235 22.8874 345.533 22.8874C344.831 22.8874 344.183 23.0589 343.589 23.4002C342.995 23.7432 342.509 24.2464 342.132 24.9117C341.771 25.5594 341.592 26.3342 341.592 27.2328C341.592 28.133 341.771 28.9252 342.132 29.6079C342.509 30.2748 342.995 30.7876 343.589 31.1464C344.201 31.5068 344.849 31.6862 345.533 31.6862C346.235 31.6862 346.892 31.5163 347.504 31.1733C348.115 30.8145 348.601 30.3097 348.961 29.6619C349.322 28.9967 349.501 28.2044 349.501 27.2868Z" fill="#424B66"/>
<path d="M329.144 19.5962C330.925 19.5962 332.366 20.163 333.463 21.2966C334.56 22.4111 335.11 23.9765 335.11 25.9928V34.7646H331.33V26.5057C331.33 25.3181 331.033 24.4084 330.439 23.7796C329.846 23.1319 329.036 22.808 328.01 22.808C326.967 22.808 326.138 23.1319 325.526 23.7796C324.932 24.4084 324.636 25.3181 324.636 26.5057V34.7646H320.856V19.8121H324.636V21.6744C325.139 21.0266 325.779 20.5218 326.552 20.163C327.345 19.7851 328.208 19.5962 329.144 19.5962Z" fill="#424B66"/>
<path d="M315.26 18.0292C314.593 18.0292 314.036 17.8228 313.587 17.4084C313.155 16.9765 312.939 16.4463 312.939 15.816C312.939 15.1873 313.155 14.6649 313.587 14.2506C314.036 13.8187 314.593 13.6028 315.26 13.6028C315.926 13.6028 316.475 13.8187 316.907 14.2506C317.356 14.6649 317.582 15.1873 317.582 15.816C317.582 16.4463 317.356 16.9765 316.907 17.4084C316.475 17.8228 315.926 18.0292 315.26 18.0292ZM317.123 19.8105V34.763H313.344V19.8105H317.123Z" fill="#424B66"/>
<path d="M307.278 22.916V30.1494C307.278 30.6526 307.394 31.021 307.629 31.2559C307.879 31.4718 308.294 31.5798 308.87 31.5798H310.625V34.7646H308.249C305.064 34.7646 303.471 33.2167 303.471 30.1224V22.916H301.69V19.8122H303.471V16.1145H307.278V19.8122H310.625V22.916H307.278Z" fill="#424B66"/>
<path d="M283.609 27.2328C283.609 25.7214 283.906 24.3814 284.5 23.2113C285.112 22.0428 285.931 21.1426 286.957 20.5123C288 19.8836 289.161 19.5676 290.439 19.5676C291.555 19.5676 292.527 19.7931 293.355 20.2424C294.201 20.6933 294.876 21.2601 295.379 21.9428V19.8105H299.186V34.763H295.379V32.5768C294.893 33.2786 294.218 33.8644 293.355 34.3312C292.508 34.7821 291.528 35.0059 290.412 35.0059C289.153 35.0059 288 34.6821 286.957 34.0343C285.931 33.3865 285.112 32.4784 284.5 31.3083C283.906 30.1207 283.609 28.7633 283.609 27.2328ZM295.379 27.2868C295.379 26.3691 295.2 25.5864 294.839 24.9387C294.479 24.2734 293.993 23.7701 293.382 23.4272C292.77 23.0684 292.113 22.8874 291.411 22.8874C290.709 22.8874 290.061 23.0589 289.467 23.4002C288.873 23.7432 288.387 24.2464 288.01 24.9117C287.649 25.5594 287.47 26.3342 287.47 27.2328C287.47 28.133 287.649 28.9252 288.01 29.6079C288.387 30.2748 288.873 30.7876 289.467 31.1464C290.079 31.5068 290.727 31.6862 291.411 31.6862C292.113 31.6862 292.77 31.5163 293.382 31.1733C293.993 30.8145 294.479 30.3097 294.839 29.6619C295.2 28.9967 295.379 28.2044 295.379 27.2868Z" fill="#424B66"/>
<path d="M281.823 26.9629C281.823 27.5027 281.786 27.9885 281.715 28.4204H270.782C270.871 29.5 271.249 30.3462 271.916 30.9574C272.581 31.5703 273.401 31.8751 274.372 31.8751C275.776 31.8751 276.775 31.2734 277.369 30.0668H281.445C281.013 31.5068 280.184 32.6943 278.962 33.6295C277.737 34.5471 276.235 35.0059 274.453 35.0059C273.013 35.0059 271.717 34.6916 270.566 34.0613C269.432 33.4135 268.541 32.5054 267.894 31.3353C267.263 30.1668 266.949 28.8173 266.949 27.2868C266.949 25.7404 267.263 24.3814 267.894 23.2113C268.522 22.0428 269.405 21.1426 270.539 20.5123C271.673 19.8836 272.977 19.5676 274.453 19.5676C275.875 19.5676 277.143 19.874 278.26 20.4853C279.393 21.0981 280.265 21.9698 280.878 23.1033C281.507 24.2195 281.823 25.5054 281.823 26.9629ZM277.909 25.8833C277.89 24.9117 277.539 24.1385 276.856 23.5622C276.172 22.9684 275.335 22.6715 274.345 22.6715C273.408 22.6715 272.618 22.9604 271.97 23.5352C271.339 24.094 270.952 24.8767 270.809 25.8833H277.909Z" fill="#424B66"/>
<path d="M260.786 22.1332C261.272 21.341 261.902 20.7203 262.676 20.2709C263.468 19.8201 264.367 19.5962 265.375 19.5962V23.5637H264.376C263.188 23.5637 262.288 23.8416 261.677 24.4004C261.083 24.9577 260.786 25.9293 260.786 27.3153V34.7646H257.007V19.8121H260.786V22.1332Z" fill="#424B66"/>
<path d="M235.368 25.3165C235.368 23.4637 235.782 21.8078 236.609 20.3503C237.456 18.8754 238.598 17.7323 240.038 16.9226C241.496 16.0954 243.125 15.681 244.924 15.681C247.03 15.681 248.875 16.2208 250.458 17.3004C252.041 18.38 253.148 19.874 253.778 21.7808H249.432C249 20.8822 248.389 20.2074 247.596 19.7565C246.823 19.3072 245.923 19.0818 244.897 19.0818C243.8 19.0818 242.818 19.3437 241.954 19.8645C241.108 20.3694 240.443 21.0886 239.957 22.0237C239.488 22.9604 239.255 24.0575 239.255 25.3165C239.255 26.558 239.488 27.6567 239.957 28.6093C240.443 29.546 241.108 30.2747 241.954 30.7955C242.818 31.3003 243.8 31.5512 244.897 31.5512C245.923 31.5512 246.823 31.3273 247.596 30.8764C248.389 30.4097 249 29.7254 249.432 28.8252H253.778C253.148 30.751 252.041 32.2529 250.458 33.3325C248.892 34.3947 247.047 34.9249 244.924 34.9249C243.125 34.9249 241.496 34.5201 240.038 33.7104C238.598 32.8832 237.456 31.7401 236.609 30.2827C235.782 28.8252 235.368 27.1709 235.368 25.3165Z" fill="#424B66"/>
<path d="M428.825 97.7388L425.024 109.919H422.934L420 100.25L417.065 109.919H414.975L411.152 97.7388H413.219L416.02 107.963L419.044 97.7388H421.111L424.068 107.985L426.825 97.7388H428.825Z" fill="#878B9E"/>
<path d="M403.69 110.118C402.548 110.118 401.511 109.859 400.577 109.34C399.658 108.822 398.932 108.089 398.399 107.139C397.879 106.177 397.621 105.066 397.621 103.805C397.621 102.56 397.887 101.465 398.421 100.516C398.969 99.5534 399.71 98.8199 400.644 98.3151C401.578 97.7975 402.623 97.5371 403.779 97.5371C404.935 97.5371 405.98 97.7975 406.913 98.3151C407.847 98.8199 408.581 99.5455 409.114 100.493C409.662 101.443 409.937 102.546 409.937 103.805C409.937 105.066 409.654 106.177 409.092 107.139C408.543 108.089 407.795 108.822 406.847 109.34C405.897 109.859 404.846 110.118 403.69 110.118ZM403.69 108.339C404.415 108.339 405.097 108.17 405.735 107.828C406.372 107.489 406.883 106.977 407.269 106.295C407.669 105.613 407.869 104.783 407.869 103.805C407.869 102.827 407.675 101.998 407.291 101.316C406.905 100.635 406.402 100.131 405.779 99.8043C405.157 99.4645 404.482 99.2931 403.756 99.2931C403.015 99.2931 402.334 99.4645 401.711 99.8043C401.103 100.131 400.614 100.635 400.244 101.316C399.872 101.998 399.688 102.827 399.688 103.805C399.688 104.799 399.866 105.636 400.222 106.317C400.592 107 401.081 107.511 401.689 107.85C402.296 108.178 402.962 108.339 403.69 108.339Z" fill="#878B9E"/>
<path d="M390.092 97.5149C391.574 97.5149 392.774 97.9674 393.694 98.8707C394.612 99.7598 395.072 101.049 395.072 102.738V109.918H393.071V103.027C393.071 101.813 392.766 100.887 392.16 100.249C391.552 99.5979 390.721 99.2708 389.67 99.2708C388.603 99.2708 387.75 99.6042 387.113 100.271C386.491 100.938 386.18 101.909 386.18 103.183V109.918H384.156V97.7372H386.18V99.4709C386.58 98.8485 387.12 98.3674 387.802 98.0261C388.498 97.6863 389.262 97.5149 390.092 97.5149Z" fill="#878B9E"/>
<path d="M375.559 103.361C375.559 103.746 375.537 104.154 375.493 104.583H365.755C365.828 105.783 366.237 106.725 366.978 107.406C367.734 108.073 368.645 108.406 369.713 108.406C370.586 108.406 371.313 108.206 371.891 107.806C372.483 107.392 372.898 106.844 373.136 106.161H375.315C374.988 107.333 374.337 108.289 373.358 109.029C372.38 109.756 371.164 110.118 369.713 110.118C368.556 110.118 367.518 109.859 366.6 109.34C365.695 108.822 364.984 108.089 364.466 107.139C363.947 106.177 363.688 105.066 363.688 103.805C363.688 102.546 363.939 101.443 364.444 100.493C364.947 99.5455 365.651 98.8199 366.556 98.3151C367.474 97.7975 368.526 97.5371 369.713 97.5371C370.869 97.5371 371.891 97.7895 372.78 98.2928C373.67 98.7977 374.351 99.4931 374.826 100.382C375.315 101.257 375.559 102.249 375.559 103.361ZM373.47 102.938C373.47 102.168 373.298 101.509 372.958 100.96C372.617 100.398 372.15 99.9757 371.558 99.6931C370.98 99.3978 370.335 99.2486 369.624 99.2486C368.601 99.2486 367.726 99.5757 367 100.227C366.289 100.879 365.881 101.782 365.778 102.938H373.47Z" fill="#878B9E"/>
<path d="M356.159 97.5149C357.641 97.5149 358.841 97.9674 359.761 98.8707C360.679 99.7598 361.139 101.049 361.139 102.738V109.918H359.138V103.027C359.138 101.813 358.833 100.887 358.227 100.249C357.619 99.5979 356.788 99.2708 355.737 99.2708C354.67 99.2708 353.817 99.6042 353.18 100.271C352.558 100.938 352.247 101.909 352.247 103.183V109.918H350.224V97.7372H352.247V99.4709C352.647 98.8485 353.187 98.3674 353.87 98.0261C354.565 97.6863 355.329 97.5149 356.159 97.5149Z" fill="#878B9E"/>
<path d="M341.315 110.118C340.175 110.118 339.137 109.859 338.203 109.34C337.285 108.822 336.558 108.089 336.024 107.139C335.507 106.177 335.246 105.066 335.246 103.805C335.246 102.56 335.513 101.465 336.046 100.516C336.596 99.5534 337.336 98.8199 338.27 98.3151C339.203 97.7975 340.248 97.5371 341.404 97.5371C342.56 97.5371 343.605 97.7975 344.539 98.3151C345.472 98.8199 346.206 99.5455 346.74 100.493C347.289 101.443 347.562 102.546 347.562 103.805C347.562 105.066 347.281 106.177 346.717 107.139C346.17 108.089 345.422 108.822 344.472 109.34C343.524 109.859 342.471 110.118 341.315 110.118ZM341.315 108.339C342.043 108.339 342.724 108.17 343.36 107.828C343.999 107.489 344.51 106.977 344.894 106.295C345.295 105.613 345.495 104.783 345.495 103.805C345.495 102.827 345.303 101.998 344.917 101.316C344.532 100.635 344.027 100.131 343.405 99.8043C342.782 99.4645 342.109 99.2931 341.382 99.2931C340.642 99.2931 339.959 99.4645 339.337 99.8043C338.73 100.131 338.241 100.635 337.869 101.316C337.499 101.998 337.314 102.827 337.314 103.805C337.314 104.799 337.491 105.636 337.847 106.317C338.219 107 338.708 107.511 339.314 107.85C339.923 108.178 340.59 108.339 341.315 108.339Z" fill="#878B9E"/>
<path d="M320.077 97.5371C321.129 97.5371 322.047 97.7673 322.833 98.2262C323.633 98.6866 324.226 99.2645 324.612 99.9599V97.7372H326.657V110.184C326.657 111.296 326.42 112.282 325.946 113.141C325.471 114.015 324.79 114.696 323.9 115.185C323.025 115.674 322.003 115.919 320.832 115.919C319.232 115.919 317.898 115.541 316.831 114.785C315.764 114.03 315.133 113.001 314.941 111.696H316.942C317.164 112.437 317.623 113.029 318.32 113.474C319.017 113.934 319.854 114.163 320.832 114.163C321.944 114.163 322.847 113.815 323.545 113.118C324.256 112.423 324.612 111.445 324.612 110.184V107.628C324.212 108.339 323.619 108.933 322.833 109.406C322.047 109.881 321.129 110.118 320.077 110.118C318.995 110.118 318.009 109.851 317.12 109.317C316.245 108.784 315.556 108.036 315.052 107.073C314.549 106.11 314.296 105.013 314.296 103.783C314.296 102.538 314.549 101.449 315.052 100.516C315.556 99.5677 316.245 98.8342 317.12 98.3151C318.009 97.7975 318.995 97.5371 320.077 97.5371ZM324.612 103.805C324.612 102.887 324.426 102.087 324.056 101.405C323.686 100.724 323.181 100.204 322.544 99.8487C321.922 99.4788 321.233 99.2931 320.477 99.2931C319.721 99.2931 319.032 99.4709 318.409 99.8265C317.787 100.182 317.29 100.701 316.92 101.382C316.55 102.065 316.364 102.865 316.364 103.783C316.364 104.716 316.55 105.533 316.92 106.228C317.29 106.911 317.787 107.436 318.409 107.806C319.032 108.162 319.721 108.339 320.477 108.339C321.233 108.339 321.922 108.162 322.544 107.806C323.181 107.436 323.686 106.911 324.056 106.228C324.426 105.533 324.612 104.724 324.612 103.805Z" fill="#878B9E"/>
<path d="M306.768 97.5149C308.25 97.5149 309.45 97.9674 310.369 98.8707C311.289 99.7598 311.748 101.049 311.748 102.738V109.918H309.747V103.027C309.747 101.813 309.444 100.887 308.836 100.249C308.227 99.5979 307.398 99.2708 306.346 99.2708C305.279 99.2708 304.426 99.6042 303.789 100.271C303.167 100.938 302.855 101.909 302.855 103.183V109.918H300.832V97.7372H302.855V99.4709C303.255 98.8485 303.797 98.3674 304.478 98.0261C305.175 97.6863 305.938 97.5149 306.768 97.5149Z" fill="#878B9E"/>
<path d="M296.407 95.7589C296.021 95.7589 295.695 95.6255 295.428 95.3588C295.162 95.092 295.028 94.7666 295.028 94.3808C295.028 93.9966 295.162 93.6695 295.428 93.4028C295.695 93.136 296.021 93.0027 296.407 93.0027C296.777 93.0027 297.088 93.136 297.34 93.4028C297.607 93.6695 297.741 93.9966 297.741 94.3808C297.741 94.7666 297.607 95.092 297.34 95.3588C297.088 95.6255 296.777 95.7589 296.407 95.7589ZM297.385 97.7371V109.918H295.362V97.7371H297.385Z" fill="#878B9E"/>
<path d="M289.731 99.4042V106.585C289.731 107.177 289.858 107.6 290.109 107.852C290.361 108.089 290.798 108.208 291.42 108.208H292.91V109.919H291.087C289.961 109.919 289.116 109.659 288.553 109.14C287.99 108.622 287.708 107.769 287.708 106.585V99.4042H286.129V97.7387H287.708V94.6714H289.731V97.7387H292.91V99.4042H289.731Z" fill="#878B9E"/>
<path d="M271.484 103.783C271.484 102.538 271.736 101.449 272.24 100.516C272.743 99.5677 273.432 98.8342 274.307 98.3151C275.197 97.7975 276.183 97.5371 277.264 97.5371C278.331 97.5371 279.257 97.7673 280.043 98.2262C280.829 98.6866 281.413 99.2645 281.799 99.9599V97.7372H283.844V109.918H281.799V107.65C281.399 108.362 280.799 108.956 279.998 109.429C279.212 109.889 278.295 110.118 277.242 110.118C276.16 110.118 275.182 109.851 274.307 109.317C273.432 108.784 272.743 108.036 272.24 107.073C271.736 106.11 271.484 105.013 271.484 103.783ZM281.799 103.805C281.799 102.887 281.613 102.087 281.243 101.405C280.873 100.724 280.368 100.204 279.732 99.8487C279.109 99.4788 278.42 99.2931 277.664 99.2931C276.908 99.2931 276.219 99.4709 275.597 99.8265C274.974 100.182 274.477 100.701 274.107 101.382C273.737 102.065 273.551 102.865 273.551 103.783C273.551 104.716 273.737 105.533 274.107 106.228C274.477 106.911 274.974 107.436 275.597 107.806C276.219 108.162 276.908 108.339 277.664 108.339C278.42 108.339 279.109 108.162 279.732 107.806C280.368 107.436 280.873 106.911 281.243 106.228C281.613 105.533 281.799 104.724 281.799 103.805Z" fill="#878B9E"/>
<path d="M269.57 103.361C269.57 103.746 269.547 104.154 269.502 104.583H259.766C259.839 105.783 260.248 106.725 260.987 107.406C261.743 108.073 262.655 108.406 263.722 108.406C264.597 108.406 265.323 108.206 265.901 107.806C266.494 107.392 266.909 106.844 267.146 106.161H269.324C268.999 107.333 268.346 108.289 267.368 109.029C266.39 109.756 265.175 110.118 263.722 110.118C262.566 110.118 261.529 109.859 260.611 109.34C259.706 108.822 258.995 108.089 258.475 107.139C257.958 106.177 257.697 105.066 257.697 103.805C257.697 102.546 257.95 101.443 258.453 100.493C258.958 99.5455 259.662 98.8199 260.567 98.3151C261.485 97.7975 262.537 97.5371 263.722 97.5371C264.878 97.5371 265.902 97.7895 266.791 98.2928C267.681 98.7977 268.362 99.4931 268.837 100.382C269.326 101.257 269.57 102.249 269.57 103.361ZM267.481 102.938C267.481 102.168 267.309 101.509 266.969 100.96C266.628 100.398 266.161 99.9757 265.569 99.6931C264.991 99.3978 264.344 99.2486 263.633 99.2486C262.61 99.2486 261.737 99.5757 261.01 100.227C260.298 100.879 259.892 101.782 259.787 102.938H267.481Z" fill="#878B9E"/>
<path d="M252.184 99.7154C252.54 99.02 253.043 98.4786 253.696 98.0928C254.363 97.7086 255.171 97.5149 256.119 97.5149V99.6042H255.585C253.318 99.6042 252.184 100.835 252.184 103.294V109.918H250.161V97.7372H252.184V99.7154Z" fill="#878B9E"/>
<path d="M235.901 103.805C235.901 102.546 236.154 101.449 236.657 100.516C237.16 99.5677 237.857 98.8342 238.747 98.3151C239.65 97.7975 240.681 97.5371 241.837 97.5371C243.334 97.5371 244.563 97.9007 245.527 98.6262C246.505 99.3534 247.15 100.36 247.461 101.649H245.283C245.075 100.909 244.668 100.323 244.06 99.8932C243.468 99.4645 242.726 99.2486 241.837 99.2486C240.681 99.2486 239.747 99.6487 239.036 100.449C238.324 101.235 237.969 102.354 237.969 103.805C237.969 105.272 238.324 106.406 239.036 107.206C239.747 108.006 240.681 108.406 241.837 108.406C242.726 108.406 243.468 108.2 244.06 107.784C244.652 107.369 245.06 106.777 245.283 106.006H247.461C247.136 107.25 246.483 108.251 245.505 109.006C244.527 109.748 243.304 110.118 241.837 110.118C240.681 110.118 239.65 109.859 238.747 109.34C237.857 108.822 237.16 108.089 236.657 107.139C236.154 106.191 235.901 105.08 235.901 103.805Z" fill="#878B9E"/>
<path d="M786.569 61.3021V68.4815C786.569 69.0737 786.694 69.496 786.947 69.7484C787.199 69.985 787.636 70.1041 788.258 70.1041H789.748V71.8155H787.925C786.799 71.8155 785.954 71.5552 785.39 71.0376C784.827 70.5184 784.546 69.6659 784.546 68.4815V61.3021H782.967V59.6351H784.546V56.5677H786.569V59.6351H789.748V61.3021H786.569Z" fill="#878B9E"/>
<path d="M777.83 61.6117C778.186 60.9164 778.691 60.375 779.342 59.9892C780.009 59.6049 780.817 59.4113 781.765 59.4113V61.5006H781.232C778.964 61.5006 777.83 62.731 777.83 65.1903V71.814H775.807V59.6335H777.83V61.6117Z" fill="#878B9E"/>
<path d="M760.028 65.6793C760.028 64.4346 760.28 63.3455 760.784 62.4119C761.289 61.4641 761.978 60.7306 762.851 60.2114C763.74 59.6939 764.726 59.4335 765.808 59.4335C766.875 59.4335 767.802 59.6637 768.587 60.1225C769.373 60.5829 769.959 61.1608 770.343 61.8562V59.6335H772.388V71.814H770.343V69.5468C769.943 70.2581 769.343 70.8519 768.542 71.325C767.758 71.7854 766.838 72.014 765.786 72.014C764.704 72.014 763.726 71.7473 762.851 71.2138C761.978 70.6804 761.289 69.9326 760.784 68.9689C760.28 68.0068 760.028 66.9097 760.028 65.6793ZM770.343 65.7015C770.343 64.7839 770.159 63.9837 769.787 63.301C769.417 62.6199 768.914 62.1007 768.276 61.7451C767.653 61.3752 766.964 61.1894 766.208 61.1894C765.452 61.1894 764.763 61.3672 764.141 61.7229C763.518 62.0785 763.023 62.5977 762.651 63.2788C762.281 63.9614 762.095 64.7616 762.095 65.6793C762.095 66.6128 762.281 67.4289 762.651 68.1243C763.023 68.807 763.518 69.3325 764.141 69.7024C764.763 70.058 765.452 70.2358 766.208 70.2358C766.964 70.2358 767.653 70.058 768.276 69.7024C768.914 69.3325 769.417 68.807 769.787 68.1243C770.159 67.4289 770.343 66.6208 770.343 65.7015Z" fill="#878B9E"/>
<path d="M755.154 61.3021V68.4815C755.154 69.0737 755.28 69.496 755.532 69.7484C755.785 69.985 756.221 70.1041 756.844 70.1041H758.333V71.8155H756.51C755.385 71.8155 754.54 71.5552 753.976 71.0376C753.412 70.5184 753.131 69.6659 753.131 68.4815V61.3021H751.553V59.6351H753.131V56.5677H755.154V59.6351H758.333V61.3021H755.154Z" fill="#878B9E"/>
<path d="M745.384 72.014C744.45 72.014 743.613 71.8584 742.872 71.5473C742.132 71.2218 741.546 70.7772 741.115 70.2136C740.687 69.6357 740.448 68.9768 740.404 68.2354H742.494C742.554 68.8435 742.835 69.3404 743.339 69.7246C743.858 70.1104 744.533 70.3025 745.362 70.3025C746.133 70.3025 746.74 70.1327 747.184 69.7913C747.629 69.4515 747.851 69.0213 747.851 68.5021C747.851 67.9687 747.615 67.5765 747.14 67.3241C746.667 67.0574 745.933 66.7986 744.939 66.5461C744.036 66.3096 743.294 66.073 742.716 65.8349C742.154 65.584 741.665 65.2205 741.249 64.7458C740.849 64.2568 740.649 63.6201 740.649 62.8342C740.649 62.2119 740.834 61.6419 741.204 61.1227C741.576 60.6052 742.101 60.1971 742.783 59.9003C743.466 59.5891 744.244 59.4335 745.117 59.4335C746.467 59.4335 747.556 59.7748 748.385 60.4559C749.215 61.1386 749.66 62.0722 749.719 63.2565H747.696C747.651 62.6199 747.393 62.1087 746.918 61.7229C746.459 61.3387 745.836 61.145 745.05 61.145C744.325 61.145 743.747 61.3006 743.316 61.6117C742.888 61.9229 742.672 62.3309 742.672 62.8342C742.672 63.2343 742.799 63.5677 743.049 63.8344C743.316 64.0869 743.643 64.2949 744.028 64.4568C744.428 64.606 744.977 64.7759 745.673 64.968C746.548 65.2062 747.259 65.4427 747.807 65.6793C748.356 65.9016 748.823 66.2429 749.208 66.7017C749.608 67.1622 749.816 67.7623 749.83 68.5021C749.83 69.169 749.646 69.7691 749.274 70.3025C748.904 70.836 748.379 71.2583 747.696 71.5695C747.029 71.8664 746.259 72.014 745.384 72.014Z" fill="#878B9E"/>
<path d="M726.86 59.4113C728.341 59.4113 729.542 59.8637 730.461 60.7671C731.381 61.6562 731.839 62.9454 731.839 64.6346V71.814H729.839V64.9236C729.839 63.709 729.535 62.7834 728.927 62.1452C728.319 61.4943 727.49 61.1672 726.437 61.1672C725.37 61.1672 724.517 61.5006 723.881 62.1674C723.258 62.8342 722.947 63.8059 722.947 65.0792V71.814H720.924V59.6335H722.947V61.3672C723.347 60.7449 723.889 60.2638 724.57 59.9225C725.267 59.5827 726.029 59.4113 726.86 59.4113Z" fill="#878B9E"/>
<path d="M712.018 72.014C710.876 72.014 709.839 71.7552 708.905 71.2361C707.986 70.7185 707.26 69.985 706.727 69.0356C706.208 68.0735 705.949 66.9621 705.949 65.7015C705.949 64.4568 706.216 63.3613 706.749 62.4119C707.297 61.4498 708.038 60.7163 708.972 60.2114C709.906 59.6939 710.951 59.4335 712.107 59.4335C713.263 59.4335 714.308 59.6939 715.241 60.2114C716.175 60.7163 716.909 61.4418 717.442 62.3897C717.99 63.3391 718.265 64.4425 718.265 65.7015C718.265 66.9621 717.982 68.0735 717.42 69.0356C716.871 69.985 716.123 70.7185 715.175 71.2361C714.225 71.7552 713.174 72.014 712.018 72.014ZM712.018 70.2358C712.744 70.2358 713.425 70.066 714.063 69.7246C714.7 69.3849 715.211 68.8737 715.597 68.191C715.997 67.5099 716.197 66.6795 716.197 65.7015C716.197 64.7235 716.004 63.8948 715.619 63.2121C715.233 62.531 714.73 62.0277 714.108 61.7007C713.485 61.3609 712.81 61.1894 712.085 61.1894C711.343 61.1894 710.662 61.3609 710.039 61.7007C709.431 62.0277 708.942 62.531 708.572 63.2121C708.2 63.8948 708.016 64.7235 708.016 65.7015C708.016 66.6954 708.194 67.5321 708.55 68.2132C708.92 68.8959 709.409 69.4071 710.017 69.7469C710.624 70.0739 711.291 70.2358 712.018 70.2358Z" fill="#878B9E"/>
<path d="M702.277 57.6553C701.893 57.6553 701.566 57.522 701.299 57.2553C701.032 56.9885 700.901 56.6631 700.901 56.2773C700.901 55.8931 701.032 55.566 701.299 55.2993C701.566 55.0325 701.893 54.8992 702.277 54.8992C702.649 54.8992 702.96 55.0325 703.211 55.2993C703.478 55.566 703.611 55.8931 703.611 56.2773C703.611 56.6631 703.478 56.9885 703.211 57.2553C702.96 57.522 702.649 57.6553 702.277 57.6553ZM703.255 59.6336V71.814H701.232V59.6336H703.255Z" fill="#878B9E"/>
<path d="M695.603 61.3021V68.4815C695.603 69.0737 695.729 69.496 695.981 69.7484C696.234 69.985 696.67 70.1041 697.293 70.1041H698.782V71.8155H696.959C695.833 71.8155 694.989 71.5552 694.425 71.0376C693.861 70.5184 693.58 69.6659 693.58 68.4815V61.3021H692.002V59.6351H693.58V56.5677H695.603V59.6351H698.782V61.3021H695.603Z" fill="#878B9E"/>
<path d="M677.356 65.6793C677.356 64.4346 677.609 63.3455 678.112 62.4119C678.615 61.4641 679.305 60.7306 680.179 60.2114C681.069 59.6939 682.055 59.4335 683.136 59.4335C684.203 59.4335 685.129 59.6637 685.915 60.1225C686.701 60.5829 687.286 61.1608 687.671 61.8562V59.6335H689.717V71.814H687.671V69.5468C687.271 70.2581 686.671 70.8519 685.871 71.325C685.085 71.7854 684.167 72.014 683.114 72.014C682.033 72.014 681.054 71.7473 680.179 71.2138C679.305 70.6804 678.615 69.9326 678.112 68.9689C677.609 68.0068 677.356 66.9097 677.356 65.6793ZM687.671 65.7015C687.671 64.7839 687.486 63.9837 687.116 63.301C686.746 62.6199 686.241 62.1007 685.604 61.7451C684.981 61.3752 684.292 61.1894 683.536 61.1894C682.78 61.1894 682.091 61.3672 681.469 61.7229C680.846 62.0785 680.349 62.5977 679.979 63.2788C679.609 63.9614 679.424 64.7616 679.424 65.6793C679.424 66.6128 679.609 67.4289 679.979 68.1243C680.349 68.807 680.846 69.3325 681.469 69.7024C682.091 70.058 682.78 70.2358 683.536 70.2358C684.292 70.2358 684.981 70.058 685.604 69.7024C686.241 69.3325 686.746 68.807 687.116 68.1243C687.486 67.4289 687.671 66.6208 687.671 65.7015Z" fill="#878B9E"/>
<path d="M670.811 72.014C669.877 72.014 669.038 71.8584 668.299 71.5473C667.557 71.2218 666.971 70.7772 666.542 70.2136C666.112 69.6357 665.875 68.9768 665.831 68.2354H667.921C667.979 68.8435 668.26 69.3404 668.765 69.7246C669.283 70.1104 669.958 70.3025 670.788 70.3025C671.559 70.3025 672.167 70.1327 672.611 69.7913C673.056 69.4515 673.278 69.0213 673.278 68.5021C673.278 67.9687 673.04 67.5765 672.567 67.3241C672.092 67.0574 671.358 66.7986 670.366 66.5461C669.461 66.3096 668.721 66.073 668.143 65.8349C667.579 65.584 667.09 65.2205 666.676 64.7458C666.276 64.2568 666.075 63.6201 666.075 62.8342C666.075 62.2119 666.26 61.6419 666.631 61.1227C667.001 60.6052 667.527 60.1971 668.21 59.9003C668.891 59.5891 669.669 59.4335 670.544 59.4335C671.892 59.4335 672.981 59.7748 673.812 60.4559C674.641 61.1386 675.085 62.0722 675.146 63.2565H673.123C673.078 62.6199 672.818 62.1087 672.345 61.7229C671.884 61.3387 671.262 61.145 670.477 61.145C669.75 61.145 669.172 61.3006 668.743 61.6117C668.313 61.9229 668.098 62.3309 668.098 62.8342C668.098 63.2343 668.224 63.5677 668.476 63.8344C668.743 64.0869 669.069 64.2949 669.455 64.4568C669.855 64.606 670.403 64.7759 671.1 64.968C671.973 65.2062 672.684 65.4427 673.234 65.6793C673.782 65.9016 674.249 66.2429 674.634 66.7017C675.035 67.1622 675.241 67.7623 675.257 68.5021C675.257 69.169 675.071 69.7691 674.701 70.3025C674.33 70.836 673.804 71.2583 673.123 71.5695C672.456 71.8664 671.684 72.014 670.811 72.014Z" fill="#878B9E"/>
<path d="M662.071 57.6553C661.686 57.6553 661.359 57.522 661.092 57.2553C660.826 56.9885 660.692 56.6631 660.692 56.2773C660.692 55.8931 660.826 55.566 661.092 55.2993C661.359 55.0325 661.686 54.8992 662.071 54.8992C662.442 54.8992 662.753 55.0325 663.004 55.2993C663.271 55.566 663.404 55.8931 663.404 56.2773C663.404 56.6631 663.271 56.9885 663.004 57.2553C662.753 57.522 662.442 57.6553 662.071 57.6553ZM663.049 59.6336V71.814H661.026V59.6336H663.049Z" fill="#878B9E"/>
<path d="M652.741 59.4113C654.223 59.4113 655.424 59.8637 656.343 60.7671C657.262 61.6562 657.721 62.9454 657.721 64.6346V71.814H655.72V64.9236C655.72 63.709 655.417 62.7834 654.809 62.1452C654.201 61.4943 653.372 61.1672 652.319 61.1672C651.252 61.1672 650.399 61.5006 649.763 62.1674C649.14 62.8342 648.829 63.8059 648.829 65.0792V71.814H646.806V59.6335H648.829V61.3672C649.229 60.7449 649.77 60.2638 650.452 59.9225C651.149 59.5827 651.911 59.4113 652.741 59.4113Z" fill="#878B9E"/>
<path d="M631.026 65.6793C631.026 64.4346 631.279 63.3455 631.782 62.4119C632.286 61.4641 632.975 60.7306 633.85 60.2114C634.739 59.6939 635.725 59.4335 636.806 59.4335C637.873 59.4335 638.799 59.6637 639.585 60.1225C640.371 60.5829 640.956 61.1608 641.342 61.8562V59.6335H643.387V71.814H641.342V69.5468C640.941 70.2581 640.341 70.8519 639.541 71.325C638.755 71.7854 637.837 72.014 636.784 72.014C635.703 72.014 634.725 71.7473 633.85 71.2138C632.975 70.6804 632.286 69.9326 631.782 68.9689C631.279 68.0068 631.026 66.9097 631.026 65.6793ZM641.342 65.7015C641.342 64.7839 641.156 63.9837 640.786 63.301C640.416 62.6199 639.911 62.1007 639.274 61.7451C638.652 61.3752 637.962 61.1894 637.207 61.1894C636.451 61.1894 635.762 61.3672 635.139 61.7229C634.517 62.0785 634.02 62.5977 633.65 63.2788C633.28 63.9614 633.094 64.7616 633.094 65.6793C633.094 66.6128 633.28 67.4289 633.65 68.1243C634.02 68.807 634.517 69.3325 635.139 69.7024C635.762 70.058 636.451 70.2358 637.207 70.2358C637.962 70.2358 638.652 70.058 639.274 69.7024C639.911 69.3325 640.416 68.807 640.786 68.1243C641.156 67.4289 641.342 66.6208 641.342 65.7015Z" fill="#878B9E"/>
<path d="M621.783 59.4335C622.836 59.4335 623.753 59.6637 624.539 60.1225C625.34 60.5829 625.932 61.1608 626.318 61.8562V59.6335H628.363V72.0807C628.363 73.1921 628.127 74.178 627.652 75.0369C627.177 75.9117 626.496 76.5928 625.607 77.0818C624.732 77.5708 623.709 77.8153 622.539 77.8153C620.938 77.8153 619.604 77.4374 618.537 76.6817C617.47 75.926 616.84 74.8972 616.647 73.5921H618.648C618.87 74.3336 619.329 74.9258 620.027 75.3703C620.724 75.8307 621.56 76.0593 622.539 76.0593C623.65 76.0593 624.554 75.7116 625.251 75.0147C625.962 74.3193 626.318 73.3413 626.318 72.0807V69.5246C625.918 70.2359 625.326 70.8296 624.539 71.3027C623.753 71.7775 622.836 72.014 621.783 72.014C620.701 72.014 619.715 71.7473 618.826 71.2138C617.951 70.6804 617.262 69.9326 616.759 68.9689C616.255 68.0068 616.003 66.9097 616.003 65.6793C616.003 64.4346 616.255 63.3455 616.759 62.4119C617.262 61.4641 617.951 60.7306 618.826 60.2114C619.715 59.6939 620.701 59.4335 621.783 59.4335ZM626.318 65.7015C626.318 64.7839 626.132 63.9837 625.762 63.301C625.392 62.6199 624.887 62.1007 624.25 61.7451C623.628 61.3752 622.939 61.1894 622.183 61.1894C621.427 61.1894 620.738 61.3672 620.115 61.7229C619.493 62.0785 618.996 62.5977 618.626 63.2788C618.256 63.9614 618.07 64.7616 618.07 65.6793C618.07 66.6128 618.256 67.4289 618.626 68.1243C618.996 68.807 619.493 69.3325 620.115 69.7024C620.738 70.058 621.427 70.2358 622.183 70.2358C622.939 70.2358 623.628 70.058 624.25 69.7024C624.887 69.3325 625.392 68.807 625.762 68.1243C626.132 67.4289 626.318 66.6208 626.318 65.7015Z" fill="#878B9E"/>
<path d="M610.489 61.6117C610.845 60.9164 611.348 60.375 612.001 59.9892C612.668 59.6049 613.475 59.4113 614.424 59.4113V61.5006H613.891C611.623 61.5006 610.489 62.731 610.489 65.1903V71.814H608.466V59.6335H610.489V61.6117Z" fill="#878B9E"/>
<path d="M598.014 71.9712C596.576 71.9712 595.264 71.6378 594.08 70.971C592.893 70.2883 591.952 69.3484 591.256 68.1481C590.573 66.932 590.234 65.5698 590.234 64.0584C590.234 62.5469 590.573 61.1911 591.256 59.9908C591.952 58.7747 592.893 57.8348 594.08 57.168C595.264 56.4853 596.576 56.1455 598.014 56.1455C599.466 56.1455 600.785 56.4853 601.972 57.168C603.156 57.8348 604.09 58.7683 604.773 59.9686C605.454 61.1688 605.795 62.5311 605.795 64.0584C605.795 65.5841 605.454 66.9479 604.773 68.1481C604.09 69.3484 603.156 70.2883 601.972 70.971C600.785 71.6378 599.466 71.9712 598.014 71.9712ZM598.014 70.2153C599.096 70.2153 600.066 69.9628 600.927 69.4595C601.8 68.9547 602.483 68.2371 602.972 67.3035C603.475 66.37 603.728 65.2872 603.728 64.0584C603.728 62.8137 603.475 61.7309 602.972 60.8132C602.483 59.8797 601.808 59.1605 600.949 58.6572C600.088 58.1523 599.11 57.9015 598.014 57.9015C596.917 57.9015 595.939 58.1523 595.08 58.6572C594.219 59.1605 593.538 59.8797 593.035 60.8132C592.546 61.7309 592.301 62.8137 592.301 64.0584C592.301 65.2872 592.546 66.37 593.035 67.3035C593.538 68.2371 594.219 68.9547 595.08 69.4595C595.953 69.9628 596.931 70.2153 598.014 70.2153Z" fill="#878B9E"/>
<path d="M577.76 72.014C576.827 72.014 575.99 71.8584 575.248 71.5473C574.507 71.2218 573.922 70.7772 573.492 70.2136C573.062 69.6357 572.825 68.9768 572.781 68.2354H574.87C574.929 68.8435 575.212 69.3404 575.715 69.7246C576.234 70.1104 576.908 70.3025 577.738 70.3025C578.508 70.3025 579.116 70.1327 579.561 69.7913C580.006 69.4515 580.228 69.0213 580.228 68.5021C580.228 67.9687 579.991 67.5765 579.517 67.3241C579.042 67.0574 578.308 66.7986 577.316 66.5461C576.412 66.3096 575.671 66.073 575.093 65.8349C574.529 65.584 574.04 65.2205 573.625 64.7458C573.225 64.2568 573.025 63.6201 573.025 62.8342C573.025 62.2119 573.211 61.6419 573.581 61.1227C573.951 60.6052 574.478 60.1971 575.159 59.9003C575.84 59.5891 576.619 59.4335 577.494 59.4335C578.842 59.4335 579.931 59.7748 580.762 60.4559C581.592 61.1386 582.037 62.0722 582.095 63.2565H580.072C580.028 62.6199 579.769 62.1087 579.294 61.7229C578.835 61.3387 578.213 61.145 577.427 61.145C576.701 61.145 576.123 61.3006 575.693 61.6117C575.262 61.9229 575.048 62.3309 575.048 62.8342C575.048 63.2343 575.174 63.5677 575.426 63.8344C575.693 64.0869 576.018 64.2949 576.404 64.4568C576.804 64.606 577.352 64.7759 578.049 64.968C578.924 65.2062 579.636 65.4427 580.183 65.6793C580.731 65.9016 581.198 66.2429 581.584 66.7017C581.984 67.1622 582.192 67.7623 582.207 68.5021C582.207 69.169 582.021 69.7691 581.651 70.3025C581.281 70.836 580.754 71.2583 580.072 71.5695C579.405 71.8664 578.635 72.014 577.76 72.014Z" fill="#878B9E"/>
<path d="M569.022 57.6553C568.636 57.6553 568.31 57.522 568.044 57.2553C567.777 56.9885 567.643 56.6631 567.643 56.2773C567.643 55.8931 567.777 55.566 568.044 55.2993C568.31 55.0325 568.636 54.8992 569.022 54.8992C569.392 54.8992 569.703 55.0325 569.955 55.2993C570.222 55.566 570.356 55.8931 570.356 56.2773C570.356 56.6631 570.222 56.9885 569.955 57.2553C569.703 57.522 569.392 57.6553 569.022 57.6553ZM570 59.6336V71.814H567.977V59.6336H570Z" fill="#878B9E"/>
<path d="M559.802 59.4129C560.722 59.4129 561.552 59.6129 562.292 60.013C563.034 60.3972 563.612 60.9831 564.026 61.769C564.456 62.5533 564.671 63.509 564.671 64.6363V71.8156H562.67V64.9252C562.67 63.7091 562.367 62.7835 561.759 62.1468C561.152 61.4943 560.321 61.1688 559.269 61.1688C558.202 61.1688 557.35 61.5023 556.712 62.1691C556.09 62.8359 555.778 63.8059 555.778 65.0808V71.8156H553.755V55.3676H555.778V61.3689C556.179 60.7465 556.728 60.2639 557.423 59.9241C558.135 59.5828 558.929 59.4129 559.802 59.4129Z" fill="#878B9E"/>
<path d="M548.126 61.3021V68.4815C548.126 69.0737 548.251 69.496 548.504 69.7484C548.756 69.985 549.193 70.1041 549.816 70.1041H551.305V71.8155H549.482C548.356 71.8155 547.511 71.5552 546.948 71.0376C546.384 70.5184 546.103 69.6659 546.103 68.4815V61.3021H544.525V59.6351H546.103V56.5677H548.126V59.6351H551.305V61.3021H548.126Z" fill="#878B9E"/>
<path d="M533.461 61.6117C533.817 60.9164 534.32 60.375 534.973 59.9892C535.64 59.6049 536.447 59.4113 537.396 59.4113V61.5006H536.863C534.595 61.5006 533.461 62.731 533.461 65.1903V71.814H531.438V59.6335H533.461V61.6117Z" fill="#878B9E"/>
<path d="M522.532 72.014C521.39 72.014 520.353 71.7552 519.419 71.2361C518.5 70.7185 517.774 69.985 517.241 69.0356C516.721 68.0735 516.462 66.9621 516.462 65.7015C516.462 64.4568 516.729 63.3613 517.263 62.4119C517.811 61.4498 518.552 60.7163 519.486 60.2114C520.42 59.6939 521.464 59.4335 522.62 59.4335C523.777 59.4335 524.821 59.6939 525.755 60.2114C526.689 60.7163 527.422 61.4418 527.956 62.3897C528.504 63.3391 528.779 64.4425 528.779 65.7015C528.779 66.9621 528.496 68.0735 527.934 69.0356C527.384 69.985 526.636 70.7185 525.688 71.2361C524.739 71.7552 523.688 72.014 522.532 72.014ZM522.532 70.2358C523.257 70.2358 523.938 70.066 524.577 69.7246C525.214 69.3849 525.725 68.8737 526.111 68.191C526.511 67.5099 526.711 66.6795 526.711 65.7015C526.711 64.7235 526.517 63.8948 526.133 63.2121C525.747 62.531 525.244 62.0277 524.621 61.7007C523.999 61.3609 523.324 61.1894 522.598 61.1894C521.857 61.1894 521.175 61.3609 520.553 61.7007C519.945 62.0277 519.456 62.531 519.086 63.2121C518.714 63.8948 518.53 64.7235 518.53 65.7015C518.53 66.6954 518.708 67.5321 519.064 68.2132C519.434 68.8959 519.923 69.4071 520.531 69.7469C521.137 70.0739 521.804 70.2358 522.532 70.2358Z" fill="#878B9E"/>
<path d="M514.859 61.3006H512.302V71.814H510.279V61.3006H508.701V59.6336H510.279V58.7667C510.279 57.4045 510.628 56.4107 511.324 55.7883C512.035 55.1516 513.169 54.8325 514.725 54.8325V56.5218C513.836 56.5218 513.207 56.6996 512.836 57.0552C512.48 57.3966 512.302 57.9665 512.302 58.7667V59.6336H514.859V61.3006Z" fill="#878B9E"/>
<path d="M496.672 72.014C495.738 72.014 494.901 71.8584 494.16 71.5473C493.42 71.2218 492.834 70.7772 492.403 70.2136C491.975 69.6357 491.737 68.9768 491.692 68.2354H493.782C493.842 68.8435 494.123 69.3404 494.627 69.7246C495.146 70.1104 495.821 70.3025 496.65 70.3025C497.421 70.3025 498.028 70.1327 498.473 69.7913C498.917 69.4515 499.14 69.0213 499.14 68.5021C499.14 67.9687 498.903 67.5765 498.428 67.3241C497.955 67.0574 497.221 66.7986 496.227 66.5461C495.324 66.3096 494.582 66.073 494.004 65.8349C493.442 65.584 492.953 65.2205 492.537 64.7458C492.137 64.2568 491.937 63.6201 491.937 62.8342C491.937 62.2119 492.122 61.6419 492.492 61.1227C492.864 60.6052 493.39 60.1971 494.071 59.9003C494.754 59.5891 495.532 59.4335 496.405 59.4335C497.755 59.4335 498.844 59.7748 499.673 60.4559C500.504 61.1386 500.948 62.0722 501.007 63.2565H498.984C498.939 62.6199 498.681 62.1087 498.206 61.7229C497.747 61.3387 497.124 61.145 496.338 61.145C495.613 61.145 495.035 61.3006 494.604 61.6117C494.176 61.9229 493.96 62.3309 493.96 62.8342C493.96 63.2343 494.087 63.5677 494.338 63.8344C494.604 64.0869 494.931 64.2949 495.316 64.4568C495.716 64.606 496.265 64.7759 496.961 64.968C497.836 65.2062 498.547 65.4427 499.095 65.6793C499.644 65.9016 500.111 66.2429 500.496 66.7017C500.896 67.1622 501.104 67.7623 501.118 68.5021C501.118 69.169 500.934 69.7691 500.562 70.3025C500.192 70.836 499.667 71.2583 498.984 71.5695C498.317 71.8664 497.547 72.014 496.672 72.014Z" fill="#878B9E"/>
<path d="M486.73 61.3021V68.4815C486.73 69.0737 486.855 69.496 487.108 69.7484C487.36 69.985 487.797 70.1041 488.419 70.1041H489.909V71.8155H488.086C486.96 71.8155 486.115 71.5552 485.552 71.0376C484.988 70.5184 484.707 69.6659 484.707 68.4815V61.3021H483.128V59.6351H484.707V56.5677H486.73V59.6351H489.909V61.3021H486.73Z" fill="#878B9E"/>
<path d="M470.002 65.7015C470.002 64.4425 470.253 63.3455 470.758 62.4119C471.262 61.4641 471.959 60.7306 472.848 60.2114C473.751 59.6939 474.782 59.4335 475.938 59.4335C477.434 59.4335 478.665 59.7971 479.628 60.5226C480.607 61.2498 481.251 62.2563 481.563 63.5455H479.384C479.176 62.8056 478.768 62.2198 478.161 61.7896C477.567 61.3609 476.827 61.145 475.938 61.145C474.782 61.145 473.848 61.545 473.137 62.3452C472.426 63.1311 472.07 64.2504 472.07 65.7015C472.07 67.1685 472.426 68.3021 473.137 69.1023C473.848 69.9024 474.782 70.3025 475.938 70.3025C476.827 70.3025 477.567 70.0961 478.161 69.6802C478.753 69.2658 479.162 68.6736 479.384 67.902H481.563C481.235 69.1467 480.584 70.1469 479.606 70.9027C478.628 71.6441 477.405 72.014 475.938 72.014C474.782 72.014 473.751 71.7552 472.848 71.2361C471.959 70.7185 471.262 69.985 470.758 69.0356C470.253 68.0878 470.002 66.9764 470.002 65.7015Z" fill="#878B9E"/>
<path d="M468.087 65.257C468.087 65.6428 468.065 66.0508 468.021 66.4795H458.283C458.358 67.6797 458.764 68.6212 459.506 69.3023C460.262 69.9691 461.173 70.3025 462.24 70.3025C463.115 70.3025 463.841 70.1025 464.419 69.7024C465.011 69.288 465.428 68.7403 465.664 68.0576H467.843C467.517 69.2293 466.865 70.1851 465.886 70.9249C464.908 71.652 463.693 72.014 462.24 72.014C461.084 72.014 460.048 71.7552 459.128 71.2361C458.225 70.7185 457.513 69.985 456.994 69.0356C456.475 68.0735 456.216 66.9621 456.216 65.7015C456.216 64.4425 456.468 63.3391 456.972 62.3897C457.475 61.4418 458.18 60.7163 459.084 60.2114C460.003 59.6939 461.054 59.4335 462.24 59.4335C463.397 59.4335 464.419 59.6859 465.308 60.1892C466.198 60.6941 466.879 61.3895 467.354 62.2786C467.843 63.1533 468.087 64.1456 468.087 65.257ZM465.998 64.8347C465.998 64.0647 465.828 63.4058 465.486 62.8565C465.145 62.2944 464.678 61.8721 464.086 61.5895C463.508 61.2942 462.863 61.145 462.152 61.145C461.129 61.145 460.254 61.472 459.528 62.123C458.817 62.7755 458.409 63.6789 458.306 64.8347H465.998Z" fill="#878B9E"/>
<path d="M452.548 57.6553C452.162 57.6553 451.835 57.522 451.568 57.2553C451.317 56.9885 451.19 56.6631 451.19 56.2773C451.19 55.8931 451.317 55.566 451.568 55.2993C451.835 55.0325 452.162 54.8992 452.548 54.8992C452.932 54.8992 453.251 55.0325 453.502 55.2993C453.769 55.566 453.902 55.8931 453.902 56.2773C453.902 56.6631 453.769 56.9885 453.502 57.2553C453.251 57.522 452.932 57.6553 452.548 57.6553ZM453.546 74.459C453.546 75.5418 453.273 76.3341 452.725 76.8373C452.176 77.3422 451.376 77.5931 450.323 77.5931H449.145V75.8816H449.991C450.553 75.8816 450.945 75.7704 451.168 75.5482C451.406 75.3259 451.523 74.948 451.523 74.4146V59.6336H453.546V74.459Z" fill="#878B9E"/>
<path d="M442.55 72.014C441.41 72.014 440.371 71.7552 439.438 71.2361C438.52 70.7185 437.792 69.985 437.259 69.0356C436.741 68.0735 436.481 66.9621 436.481 65.7015C436.481 64.4568 436.748 63.3613 437.281 62.4119C437.831 61.4498 438.57 60.7163 439.504 60.2114C440.438 59.6939 441.483 59.4335 442.639 59.4335C443.795 59.4335 444.84 59.6939 445.773 60.2114C446.707 60.7163 447.441 61.4418 447.974 62.3897C448.524 63.3391 448.797 64.4425 448.797 65.7015C448.797 66.9621 448.516 68.0735 447.952 69.0356C447.404 69.985 446.656 70.7185 445.707 71.2361C444.759 71.7552 443.706 72.014 442.55 72.014ZM442.55 70.2358C443.277 70.2358 443.958 70.066 444.595 69.7246C445.234 69.3849 445.745 68.8737 446.129 68.191C446.529 67.5099 446.729 66.6795 446.729 65.7015C446.729 64.7235 446.537 63.8948 446.151 63.2121C445.767 62.531 445.262 62.0277 444.64 61.7007C444.017 61.3609 443.344 61.1894 442.617 61.1894C441.877 61.1894 441.194 61.3609 440.571 61.7007C439.965 62.0277 439.476 62.531 439.104 63.2121C438.734 63.8948 438.548 64.7235 438.548 65.7015C438.548 66.6954 438.726 67.5321 439.082 68.2132C439.453 68.8959 439.943 69.4071 440.549 69.7469C441.157 70.0739 441.824 70.2358 442.55 70.2358Z" fill="#878B9E"/>
<path d="M430.967 61.6117C431.323 60.9164 431.827 60.375 432.479 59.9892C433.146 59.6049 433.953 59.4113 434.902 59.4113V61.5006H434.369C432.101 61.5006 430.967 62.731 430.967 65.1903V71.814H428.944V59.6335H430.967V61.6117Z" fill="#878B9E"/>
<path d="M426.429 60.8561C426.429 62.1453 425.984 63.2201 425.095 64.079C424.222 64.9237 422.88 65.346 421.071 65.346H418.092V71.8141H416.069V56.3218H421.071C422.821 56.3218 424.147 56.7441 425.051 57.5887C425.97 58.4333 426.429 59.5225 426.429 60.8561ZM421.071 63.6789C422.199 63.6789 423.028 63.4344 423.561 62.9455C424.095 62.4565 424.362 61.761 424.362 60.8561C424.362 58.9446 423.266 57.9888 421.071 57.9888H418.092V63.6789H421.071Z" fill="#878B9E"/>
<path d="M407.472 65.257C407.472 65.6428 407.45 66.0508 407.406 66.4795H397.668C397.743 67.6797 398.151 68.6212 398.891 69.3023C399.647 69.9691 400.558 70.3025 401.626 70.3025C402.5 70.3025 403.226 70.1025 403.804 69.7024C404.398 69.288 404.812 68.7403 405.049 68.0576H407.228C406.902 69.2293 406.25 70.1851 405.271 70.9249C404.293 71.652 403.078 72.014 401.626 72.014C400.469 72.014 399.433 71.7552 398.513 71.2361C397.61 70.7185 396.898 69.985 396.379 69.0356C395.861 68.0735 395.601 66.9621 395.601 65.7015C395.601 64.4425 395.853 63.3391 396.357 62.3897C396.862 61.4418 397.565 60.7163 398.469 60.2114C399.388 59.6939 400.441 59.4335 401.626 59.4335C402.782 59.4335 403.804 59.6859 404.693 60.1892C405.583 60.6941 406.265 61.3895 406.739 62.2786C407.228 63.1533 407.472 64.1456 407.472 65.257ZM405.383 64.8347C405.383 64.0647 405.213 63.4058 404.871 62.8565C404.531 62.2944 404.065 61.8721 403.471 61.5895C402.893 61.2942 402.248 61.145 401.537 61.145C400.514 61.145 399.641 61.472 398.913 62.123C398.202 62.7755 397.795 63.6789 397.691 64.8347H405.383Z" fill="#878B9E"/>
<path d="M388.431 69.9485L392.21 59.6351H394.367L389.587 71.8156H387.231L382.451 59.6351H384.63L388.431 69.9485Z" fill="#878B9E"/>
<path d="M368.117 65.6793C368.117 64.4346 368.368 63.3455 368.873 62.4119C369.376 61.4641 370.065 60.7306 370.94 60.2114C371.829 59.6939 372.814 59.4335 373.897 59.4335C374.964 59.4335 375.89 59.6637 376.676 60.1225C377.46 60.5829 378.046 61.1608 378.432 61.8562V59.6335H380.477V71.814H378.432V69.5468C378.032 70.2581 377.432 70.8519 376.631 71.325C375.845 71.7854 374.926 72.014 373.875 72.014C372.792 72.014 371.813 71.7473 370.94 71.2138C370.065 70.6804 369.376 69.9326 368.873 68.9689C368.368 68.0068 368.117 66.9097 368.117 65.6793ZM378.432 65.7015C378.432 64.7839 378.246 63.9837 377.876 63.301C377.505 62.6199 377.001 62.1007 376.364 61.7451C375.742 61.3752 375.053 61.1894 374.297 61.1894C373.541 61.1894 372.852 61.3672 372.229 61.7229C371.607 62.0785 371.11 62.5977 370.74 63.2788C370.368 63.9614 370.184 64.7616 370.184 65.6793C370.184 66.6128 370.368 67.4289 370.74 68.1243C371.11 68.807 371.607 69.3325 372.229 69.7024C372.852 70.058 373.541 70.2358 374.297 70.2358C375.053 70.2358 375.742 70.058 376.364 69.7024C377.001 69.3325 377.505 68.807 377.876 68.1243C378.246 67.4289 378.432 66.6208 378.432 65.7015Z" fill="#878B9E"/>
<path d="M360.699 59.4129C361.617 59.4129 362.448 59.6129 363.189 60.013C363.929 60.3972 364.507 60.9831 364.923 61.769C365.352 62.5533 365.568 63.509 365.568 64.6363V71.8156H363.567V64.9252C363.567 63.7091 363.262 62.7835 362.656 62.1468C362.048 61.4943 361.217 61.1688 360.166 61.1688C359.099 61.1688 358.246 61.5023 357.609 62.1691C356.987 62.8359 356.676 63.8059 356.676 65.0808V71.8156H354.652V55.3676H356.676V61.3689C357.076 60.7465 357.624 60.2639 358.321 59.9241C359.032 59.5828 359.824 59.4129 360.699 59.4129Z" fill="#878B9E"/>
<path d="M343.095 61.3021V68.4815C343.095 69.0737 343.221 69.496 343.473 69.7484C343.724 69.985 344.162 70.1041 344.785 70.1041H346.274V71.8155H344.451C343.324 71.8155 342.479 71.5552 341.917 71.0376C341.353 70.5184 341.072 69.6659 341.072 68.4815V61.3021H339.494V59.6351H341.072V56.5677H343.095V59.6351H346.274V61.3021H343.095Z" fill="#878B9E"/>
<path d="M336.075 56.3218H338.32L336.186 61.3673H334.763L336.075 56.3218Z" fill="#878B9E"/>
<path d="M327.479 59.4113C328.961 59.4113 330.161 59.8637 331.081 60.7671C332 61.6562 332.459 62.9454 332.459 64.6346V71.814H330.458V64.9236C330.458 63.709 330.155 62.7834 329.547 62.1452C328.939 61.4943 328.11 61.1672 327.057 61.1672C325.99 61.1672 325.137 61.5006 324.5 62.1674C323.878 62.8342 323.567 63.8059 323.567 65.0792V71.814H321.544V59.6335H323.567V61.3672C323.967 60.7449 324.508 60.2638 325.19 59.9225C325.887 59.5827 326.649 59.4113 327.479 59.4113Z" fill="#878B9E"/>
<path d="M312.637 72.014C311.495 72.014 310.458 71.7552 309.525 71.2361C308.605 70.7185 307.88 69.985 307.346 69.0356C306.827 68.0735 306.568 66.9621 306.568 65.7015C306.568 64.4568 306.835 63.3613 307.368 62.4119C307.916 61.4498 308.658 60.7163 309.591 60.2114C310.525 59.6939 311.57 59.4335 312.726 59.4335C313.882 59.4335 314.927 59.6939 315.861 60.2114C316.794 60.7163 317.528 61.4418 318.061 62.3897C318.609 63.3391 318.884 64.4425 318.884 65.7015C318.884 66.9621 318.603 68.0735 318.039 69.0356C317.491 69.985 316.742 70.7185 315.794 71.2361C314.846 71.7552 313.793 72.014 312.637 72.014ZM312.637 70.2358C313.363 70.2358 314.046 70.066 314.682 69.7246C315.319 69.3849 315.83 68.8737 316.216 68.191C316.616 67.5099 316.816 66.6795 316.816 65.7015C316.816 64.7235 316.624 63.8948 316.238 63.2121C315.853 62.531 315.349 62.0277 314.727 61.7007C314.104 61.3609 313.429 61.1894 312.704 61.1894C311.962 61.1894 311.281 61.3609 310.658 61.7007C310.05 62.0277 309.561 62.531 309.191 63.2121C308.821 63.8948 308.635 64.7235 308.635 65.7015C308.635 66.6954 308.813 67.5321 309.169 68.2132C309.539 68.8959 310.028 69.4071 310.636 69.7469C311.244 70.0739 311.911 70.2358 312.637 70.2358Z" fill="#878B9E"/>
<path d="M291.544 65.6809C291.544 64.4362 291.797 63.3471 292.3 62.4136C292.804 61.4641 293.493 60.7306 294.368 60.2131C295.257 59.6939 296.249 59.4351 297.347 59.4351C298.295 59.4351 299.178 59.6574 299.992 60.1019C300.807 60.5306 301.429 61.1022 301.86 61.8134V55.3676H303.905V71.8156H301.86V69.5262C301.459 70.2518 300.867 70.8519 300.081 71.3266C299.295 71.7855 298.377 72.0157 297.324 72.0157C296.243 72.0157 295.257 71.7489 294.368 71.2155C293.493 70.682 292.804 69.9327 292.3 68.9706C291.797 68.0069 291.544 66.9098 291.544 65.6809ZM301.86 65.7032C301.86 64.7839 301.674 63.9837 301.304 63.3026C300.934 62.6199 300.429 62.1024 299.792 61.7467C299.17 61.3752 298.48 61.1911 297.725 61.1911C296.969 61.1911 296.28 61.3689 295.657 61.7245C295.035 62.0802 294.538 62.5977 294.168 63.2804C293.798 63.9615 293.612 64.7617 293.612 65.6809C293.612 66.6145 293.798 67.429 294.168 68.1259C294.538 68.807 295.035 69.3326 295.657 69.7041C296.28 70.0597 296.969 70.2375 297.725 70.2375C298.48 70.2375 299.17 70.0597 299.792 69.7041C300.429 69.3326 300.934 68.807 301.304 68.1259C301.674 67.429 301.86 66.6208 301.86 65.7032Z" fill="#878B9E"/>
<path d="M280.103 61.6117C280.459 60.9164 280.962 60.375 281.615 59.9892C282.282 59.6049 283.09 59.4113 284.038 59.4113V61.5006H283.504C281.237 61.5006 280.103 62.731 280.103 65.1903V71.814H278.08V59.6335H280.103V61.6117Z" fill="#878B9E"/>
<path d="M274.665 59.6351V71.8156H272.642V70.0152C272.256 70.6376 271.716 71.1266 271.019 71.4822C270.337 71.8219 269.582 71.9934 268.751 71.9934C267.803 71.9934 266.95 71.7997 266.194 71.4155C265.439 71.0154 264.838 70.4216 264.394 69.6373C263.963 68.8514 263.749 67.8957 263.749 66.77V59.6351H265.75V66.5033C265.75 67.7036 266.053 68.6292 266.661 69.2817C267.269 69.9184 268.098 70.2375 269.151 70.2375C270.233 70.2375 271.085 69.9041 271.708 69.2372C272.33 68.5704 272.642 67.5988 272.642 66.3255V59.6351H274.665Z" fill="#878B9E"/>
<path d="M254.953 72.014C253.812 72.014 252.775 71.7552 251.841 71.2361C250.921 70.7185 250.196 69.985 249.662 69.0356C249.143 68.0735 248.884 66.9621 248.884 65.7015C248.884 64.4568 249.151 63.3613 249.685 62.4119C250.232 61.4498 250.974 60.7163 251.908 60.2114C252.841 59.6939 253.886 59.4335 255.042 59.4335C256.198 59.4335 257.243 59.6939 258.177 60.2114C259.111 60.7163 259.844 61.4418 260.378 62.3897C260.926 63.3391 261.2 64.4425 261.2 65.7015C261.2 66.9621 260.918 68.0735 260.355 69.0356C259.806 69.985 259.058 70.7185 258.11 71.2361C257.161 71.7552 256.109 72.014 254.953 72.014ZM254.953 70.2358C255.679 70.2358 256.36 70.066 256.999 69.7246C257.635 69.3849 258.147 68.8737 258.533 68.191C258.933 67.5099 259.133 66.6795 259.133 65.7015C259.133 64.7235 258.939 63.8948 258.555 63.2121C258.169 62.531 257.665 62.0277 257.043 61.7007C256.421 61.3609 255.746 61.1894 255.02 61.1894C254.278 61.1894 253.597 61.3609 252.975 61.7007C252.367 62.0277 251.877 62.531 251.507 63.2121C251.136 63.8948 250.952 64.7235 250.952 65.7015C250.952 66.6954 251.13 67.5321 251.485 68.2132C251.855 68.8959 252.344 69.4071 252.952 69.7469C253.559 70.0739 254.226 70.2358 254.953 70.2358Z" fill="#878B9E"/>
<path d="M247.506 56.3218L242.459 65.9683V71.8141H240.436V65.9683L235.368 56.3218H237.613L241.437 64.1679L245.261 56.3218H247.506Z" fill="#878B9E"/>
<g filter="url(#filter0_d_2067_193)">
<path d="M470.383 141.321H243.307C238.922 141.321 235.368 144.875 235.368 149.26V196.889C235.368 201.273 238.922 204.827 243.307 204.827H470.383C474.768 204.827 478.323 201.273 478.323 196.889V149.26C478.323 144.875 474.768 141.321 470.383 141.321Z" fill="#0683DE"/>
<path fill-rule="evenodd" clip-rule="evenodd" d="M267.127 163.548C266.688 163.548 266.333 163.904 266.333 164.342V172.28H258.393C257.955 172.28 257.599 172.636 257.599 173.074C257.599 173.514 257.955 173.868 258.393 173.868H266.333V181.806C266.333 182.246 266.688 182.6 267.127 182.6C267.565 182.6 267.921 182.246 267.921 181.806V173.868H275.86C276.299 173.868 276.654 173.514 276.654 173.074C276.654 172.636 276.299 172.28 275.86 172.28H267.921V164.342C267.921 163.904 267.565 163.548 267.127 163.548Z" fill="white"/>
<path d="M301.836 165.187C303.748 165.187 305.326 165.662 306.571 166.609C307.816 167.543 308.675 168.826 309.15 170.455H307.016C306.616 169.418 305.971 168.596 305.082 167.987C304.192 167.365 303.103 167.054 301.814 167.054C300.791 167.054 299.872 167.306 299.057 167.81C298.257 168.299 297.618 169.01 297.145 169.943C296.685 170.863 296.456 171.944 296.456 173.189C296.456 174.419 296.685 175.494 297.145 176.412C297.618 177.331 298.257 178.042 299.057 178.545C299.872 179.034 300.791 179.279 301.814 179.279C303.103 179.279 304.192 178.976 305.082 178.368C305.971 177.745 306.616 176.916 307.016 175.878H309.15C308.675 177.509 307.816 178.798 306.571 179.746C305.326 180.679 303.748 181.146 301.836 181.146C300.369 181.146 299.071 180.812 297.945 180.146C296.818 179.465 295.937 178.523 295.3 177.323C294.677 176.108 294.366 174.73 294.366 173.189C294.366 171.633 294.677 170.248 295.3 169.032C295.937 167.818 296.818 166.876 297.945 166.209C299.071 165.528 300.369 165.187 301.836 165.187ZM313.879 171.277C314.279 170.432 314.863 169.781 315.635 169.321C316.405 168.848 317.325 168.61 318.392 168.61V170.81H317.769C316.628 170.81 315.694 171.107 314.968 171.699C314.241 172.277 313.879 173.241 313.879 174.589V181.013H311.856V168.81H313.879V171.277ZM331.615 174.233C331.615 174.664 331.584 175.033 331.526 175.345H321.766C321.811 176.739 322.203 177.783 322.944 178.479C323.7 179.176 324.618 179.523 325.701 179.523C326.679 179.523 327.494 179.279 328.147 178.79C328.813 178.287 329.22 177.62 329.369 176.789H331.526C331.376 177.634 331.043 178.39 330.525 179.057C330.02 179.723 329.361 180.243 328.547 180.612C327.731 180.984 326.813 181.168 325.79 181.168C324.618 181.168 323.581 180.917 322.678 180.412C321.773 179.909 321.061 179.19 320.543 178.256C320.039 177.309 319.788 176.197 319.788 174.922C319.788 173.649 320.039 172.538 320.543 171.588C321.061 170.64 321.773 169.915 322.678 169.41C323.581 168.907 324.618 168.654 325.79 168.654C326.975 168.654 328.005 168.907 328.88 169.41C329.769 169.915 330.443 170.588 330.903 171.433C331.376 172.277 331.615 173.211 331.615 174.233ZM329.569 174.367C329.614 173.463 329.465 172.708 329.125 172.099C328.783 171.493 328.316 171.04 327.724 170.744C327.13 170.448 326.486 170.299 325.79 170.299C324.678 170.299 323.745 170.648 322.989 171.344C322.233 172.026 321.825 173.033 321.766 174.367H329.569ZM339.262 168.654C340.448 168.654 341.449 168.951 342.263 169.543C343.094 170.137 343.672 170.929 343.997 171.922V168.81H346.02V181.013H343.997V177.901C343.672 178.895 343.094 179.687 342.263 180.279C341.449 180.873 340.448 181.168 339.262 181.168C338.181 181.168 337.217 180.917 336.372 180.412C335.527 179.909 334.86 179.19 334.371 178.256C333.896 177.309 333.66 176.197 333.66 174.922C333.66 173.649 333.896 172.538 334.371 171.588C334.86 170.64 335.527 169.915 336.372 169.41C337.217 168.907 338.181 168.654 339.262 168.654ZM339.84 170.455C338.595 170.455 337.595 170.855 336.839 171.655C336.097 172.441 335.727 173.53 335.727 174.922C335.727 176.316 336.097 177.412 336.839 178.212C337.595 178.998 338.595 179.39 339.84 179.39C340.64 179.39 341.352 179.206 341.974 178.834C342.611 178.464 343.108 177.945 343.464 177.278C343.82 176.597 343.997 175.811 343.997 174.922C343.997 174.033 343.82 173.249 343.464 172.566C343.108 171.885 342.611 171.366 341.974 171.01C341.352 170.64 340.64 170.455 339.84 170.455ZM355.064 179.234V181.013H353.552C352.307 181.013 351.373 180.717 350.751 180.123C350.144 179.531 349.839 178.539 349.839 177.145V170.566H348.017V168.81H349.839V165.765H351.885V168.81H355.042V170.566H351.885V177.189C351.885 177.975 352.026 178.517 352.307 178.812C352.604 179.095 353.107 179.234 353.819 179.234H355.064ZM368.76 174.233C368.76 174.664 368.73 175.033 368.671 175.345H358.911C358.956 176.739 359.348 177.783 360.09 178.479C360.845 179.176 361.765 179.523 362.846 179.523C363.824 179.523 364.639 179.279 365.292 178.79C365.959 178.287 366.367 177.62 366.514 176.789H368.671C368.523 177.634 368.19 178.39 367.67 179.057C367.167 179.723 366.507 180.243 365.692 180.612C364.877 180.984 363.958 181.168 362.935 181.168C361.765 181.168 360.726 180.917 359.823 180.412C358.919 179.909 358.208 179.19 357.689 178.256C357.185 177.309 356.933 176.197 356.933 174.922C356.933 173.649 357.185 172.538 357.689 171.588C358.208 170.64 358.919 169.915 359.823 169.41C360.726 168.907 361.765 168.654 362.935 168.654C364.121 168.654 365.15 168.907 366.025 169.41C366.915 169.915 367.589 170.588 368.048 171.433C368.523 172.277 368.76 173.211 368.76 174.233ZM366.715 174.367C366.759 173.463 366.611 172.708 366.27 172.099C365.929 171.493 365.462 171.04 364.869 170.744C364.277 170.448 363.632 170.299 362.935 170.299C361.824 170.299 360.89 170.648 360.134 171.344C359.378 172.026 358.97 173.033 358.911 174.367H366.715ZM378.921 174.7V181.013H376.898V165.342H381.878C383.672 165.342 385.012 165.765 385.902 166.609C386.791 167.44 387.236 168.581 387.236 170.032C387.236 171.499 386.777 172.649 385.857 173.478C384.939 174.294 383.612 174.7 381.878 174.7H378.921ZM381.7 173.011C382.931 173.011 383.812 172.752 384.345 172.233C384.895 171.715 385.168 170.982 385.168 170.032C385.168 169.054 384.895 168.315 384.345 167.81C383.812 167.292 382.931 167.032 381.7 167.032H378.921V173.011H381.7ZM391.621 171.277C392.022 170.432 392.608 169.781 393.378 169.321C394.149 168.848 395.067 168.61 396.134 168.61V170.81H395.512C394.372 170.81 393.438 171.107 392.711 171.699C391.985 172.277 391.621 173.241 391.621 174.589V181.013H389.598V168.81H391.621V171.277ZM403.668 168.654C404.838 168.654 405.883 168.907 406.802 169.41C407.736 169.915 408.462 170.64 408.981 171.588C409.514 172.538 409.781 173.649 409.781 174.922C409.781 176.197 409.514 177.309 408.981 178.256C408.462 179.19 407.736 179.909 406.802 180.412C405.883 180.917 404.838 181.168 403.668 181.168C402.496 181.168 401.444 180.917 400.511 180.412C399.591 179.909 398.866 179.19 398.332 178.256C397.799 177.309 397.532 176.197 397.532 174.922C397.532 173.649 397.799 172.538 398.332 171.588C398.866 170.64 399.591 169.915 400.511 169.41C401.444 168.907 402.496 168.654 403.668 168.654ZM403.668 170.432C402.94 170.432 402.267 170.596 401.645 170.921C401.036 171.248 400.539 171.752 400.155 172.433C399.783 173.1 399.599 173.93 399.599 174.922C399.599 175.9 399.783 176.731 400.155 177.412C400.539 178.079 401.036 178.575 401.645 178.901C402.267 179.228 402.94 179.39 403.668 179.39C404.393 179.39 405.06 179.228 405.668 178.901C406.291 178.575 406.786 178.079 407.158 177.412C407.542 176.731 407.736 175.9 407.736 174.922C407.736 173.93 407.542 173.1 407.158 172.433C406.786 171.752 406.291 171.248 405.668 170.921C405.06 170.596 404.393 170.432 403.668 170.432ZM413.573 166.476C413.157 166.476 412.817 166.365 412.551 166.143C412.298 165.906 412.173 165.603 412.173 165.231C412.173 164.861 412.298 164.564 412.551 164.342C412.817 164.106 413.157 163.987 413.573 163.987C413.973 163.987 414.299 164.106 414.551 164.342C414.802 164.564 414.929 164.861 414.929 165.231C414.929 165.603 414.802 165.906 414.551 166.143C414.299 166.365 413.973 166.476 413.573 166.476ZM410.172 185.013H411.017C411.55 185.013 411.934 184.896 412.173 184.658C412.424 184.421 412.551 184.013 412.551 183.435V168.81H414.596V183.502C414.596 185.696 413.484 186.792 411.261 186.792H410.172V185.013ZM429.049 174.233C429.049 174.664 429.019 175.033 428.96 175.345H419.201C419.245 176.739 419.638 177.783 420.379 178.479C421.135 179.176 422.054 179.523 423.136 179.523C424.114 179.523 424.929 179.279 425.581 178.79C426.248 178.287 426.656 177.62 426.804 176.789H428.96C428.813 177.634 428.479 178.39 427.96 179.057C427.457 179.723 426.796 180.243 425.981 180.612C425.167 180.984 424.247 181.168 423.225 181.168C422.054 181.168 421.016 180.917 420.112 180.412C419.209 179.909 418.497 179.19 417.978 178.256C417.475 177.309 417.222 176.197 417.222 174.922C417.222 173.649 417.475 172.538 417.978 171.588C418.497 170.64 419.209 169.915 420.112 169.41C421.016 168.907 422.054 168.654 423.225 168.654C424.411 168.654 425.44 168.907 426.315 169.41C427.204 169.915 427.879 170.588 428.338 171.433C428.813 172.277 429.049 173.211 429.049 174.233ZM427.004 174.367C427.049 173.463 426.901 172.708 426.559 172.099C426.218 171.493 425.751 171.04 425.159 170.744C424.567 170.448 423.922 170.299 423.225 170.299C422.113 170.299 421.179 170.648 420.424 171.344C419.668 172.026 419.26 173.033 419.201 174.367H427.004ZM437.097 168.654C438.653 168.654 439.943 169.07 440.965 169.899C441.988 170.729 442.618 171.841 442.855 173.233H440.721C440.573 172.36 440.165 171.677 439.498 171.188C438.847 170.685 438.031 170.432 437.053 170.432C436.341 170.432 435.69 170.596 435.096 170.921C434.518 171.248 434.051 171.752 433.696 172.433C433.34 173.1 433.162 173.93 433.162 174.922C433.162 175.916 433.34 176.753 433.696 177.434C434.051 178.101 434.518 178.598 435.096 178.923C435.69 179.25 436.341 179.412 437.053 179.412C438.031 179.412 438.847 179.161 439.498 178.656C440.165 178.153 440.573 177.464 440.721 176.589H442.855C442.618 177.998 441.988 179.117 440.965 179.946C439.943 180.762 438.653 181.168 437.097 181.168C435.927 181.168 434.89 180.917 433.985 180.412C433.081 179.909 432.37 179.19 431.85 178.256C431.347 177.309 431.095 176.197 431.095 174.922C431.095 173.649 431.347 172.538 431.85 171.588C432.37 170.64 433.081 169.915 433.985 169.41C434.89 168.907 435.927 168.654 437.097 168.654ZM451.328 179.234V181.013H449.816C448.572 181.013 447.638 180.717 447.015 180.123C446.407 179.531 446.104 178.539 446.104 177.145V170.566H444.281V168.81H446.104V165.765H448.149V168.81H451.306V170.566H448.149V177.189C448.149 177.975 448.289 178.517 448.572 178.812C448.867 179.095 449.372 179.234 450.083 179.234H451.328Z" fill="white"/>
</g>
<defs>
<filter id="filter0_d_2067_193" x="233.368" y="140.321" width="246.956" height="67.5061" filterUnits="userSpaceOnUse" color-interpolation-filters="sRGB">
<feFlood flood-opacity="0" result="BackgroundImageFix"/>
<feColorMatrix in="SourceAlpha" type="matrix" values="0 0 0 0 0 0 0 0 0 0 0 0 0 0 0 0 0 0 127 0" result="hardAlpha"/>
<feOffset dy="1"/>
<feGaussianBlur stdDeviation="1"/>
<feComposite in2="hardAlpha" operator="out"/>
<feColorMatrix type="matrix" values="0 0 0 0 0 0 0 0 0 0 0 0 0 0 0 0 0 0 0.15 0"/>
<feBlend mode="normal" in2="BackgroundImageFix" result="effect1_dropShadow_2067_193"/>
<feBlend mode="normal" in="SourceGraphic" in2="effect1_dropShadow_2067_193" result="shape"/>
</filter>
</defs>
</svg>
