<svg width="341" height="179" viewBox="0 0 341 179" fill="none" xmlns="http://www.w3.org/2000/svg">
<rect x="2" y="2" width="337" height="175" rx="8" fill="white"/>
<rect x="2" y="2" width="337" height="175" rx="8" stroke="#E2E4EB" stroke-opacity="0.7" stroke-width="3"/>
<path d="M27.826 27.806C27.826 28.4407 27.673 29.0357 27.367 29.591C27.0723 30.1463 26.602 30.594 25.956 30.934C25.3213 31.274 24.5167 31.444 23.542 31.444H21.553V36H19.173V24.134H23.542C24.46 24.134 25.242 24.2927 25.888 24.61C26.534 24.9273 27.0157 25.3637 27.333 25.919C27.6617 26.4743 27.826 27.1033 27.826 27.806ZM23.44 29.523C24.0973 29.523 24.5847 29.3757 24.902 29.081C25.2193 28.775 25.378 28.35 25.378 27.806C25.378 26.65 24.732 26.072 23.44 26.072H21.553V29.523H23.44ZM38.2708 31.087C38.2708 31.427 38.2481 31.733 38.2028 32.005H31.3178C31.3744 32.685 31.6124 33.2177 32.0318 33.603C32.4511 33.9883 32.9668 34.181 33.5788 34.181C34.4628 34.181 35.0918 33.8013 35.4658 33.042H38.0328C37.7608 33.9487 37.2394 34.6967 36.4688 35.286C35.6981 35.864 34.7518 36.153 33.6298 36.153C32.7231 36.153 31.9071 35.9547 31.1818 35.558C30.4678 35.15 29.9068 34.5777 29.4988 33.841C29.1021 33.1043 28.9038 32.2543 28.9038 31.291C28.9038 30.3163 29.1021 29.4607 29.4988 28.724C29.8954 27.9873 30.4508 27.4207 31.1648 27.024C31.8788 26.6273 32.7004 26.429 33.6298 26.429C34.5251 26.429 35.3241 26.6217 36.0268 27.007C36.7408 27.3923 37.2904 27.942 37.6758 28.656C38.0724 29.3587 38.2708 30.169 38.2708 31.087ZM35.8058 30.407C35.7944 29.795 35.5734 29.3077 35.1428 28.945C34.7121 28.571 34.1851 28.384 33.5618 28.384C32.9724 28.384 32.4738 28.5653 32.0658 28.928C31.6691 29.2793 31.4254 29.7723 31.3348 30.407H35.8058ZM45.227 26.446C46.349 26.446 47.2556 26.803 47.947 27.517C48.6383 28.2197 48.984 29.2057 48.984 30.475V36H46.604V30.798C46.604 30.05 46.417 29.4777 46.043 29.081C45.669 28.673 45.159 28.469 44.513 28.469C43.8556 28.469 43.3343 28.673 42.949 29.081C42.575 29.4777 42.388 30.05 42.388 30.798V36H40.008V26.582H42.388V27.755C42.7053 27.347 43.1076 27.0297 43.595 26.803C44.0936 26.565 44.6376 26.446 45.227 26.446ZM50.6352 31.257C50.6352 30.305 50.8222 29.4607 51.1962 28.724C51.5816 27.9873 52.1029 27.4207 52.7602 27.024C53.4176 26.6273 54.1486 26.429 54.9532 26.429C55.5652 26.429 56.1489 26.565 56.7042 26.837C57.2596 27.0977 57.7016 27.449 58.0302 27.891V23.42H60.4442V36H58.0302V34.606C57.7356 35.0707 57.3219 35.4447 56.7892 35.728C56.2566 36.0113 55.6389 36.153 54.9362 36.153C54.1429 36.153 53.4176 35.949 52.7602 35.541C52.1029 35.133 51.5816 34.5607 51.1962 33.824C50.8222 33.076 50.6352 32.2203 50.6352 31.257ZM58.0472 31.291C58.0472 30.713 57.9339 30.22 57.7072 29.812C57.4806 29.3927 57.1746 29.0753 56.7892 28.86C56.4039 28.6333 55.9902 28.52 55.5482 28.52C55.1062 28.52 54.6982 28.6277 54.3242 28.843C53.9502 29.0583 53.6442 29.3757 53.4062 29.795C53.1796 30.203 53.0662 30.6903 53.0662 31.257C53.0662 31.8237 53.1796 32.3223 53.4062 32.753C53.6442 33.1723 53.9502 33.4953 54.3242 33.722C54.7096 33.9487 55.1176 34.062 55.5482 34.062C55.9902 34.062 56.4039 33.9543 56.7892 33.739C57.1746 33.5123 57.4806 33.195 57.7072 32.787C57.9339 32.3677 58.0472 31.869 58.0472 31.291ZM63.9757 25.46C63.5564 25.46 63.205 25.3297 62.9217 25.069C62.6497 24.797 62.5137 24.4627 62.5137 24.066C62.5137 23.6693 62.6497 23.3407 62.9217 23.08C63.205 22.808 63.5564 22.672 63.9757 22.672C64.395 22.672 64.7407 22.808 65.0127 23.08C65.296 23.3407 65.4377 23.6693 65.4377 24.066C65.4377 24.4627 65.296 24.797 65.0127 25.069C64.7407 25.3297 64.395 25.46 63.9757 25.46ZM65.1487 26.582V36H62.7687V26.582H65.1487ZM72.7191 26.446C73.8411 26.446 74.7478 26.803 75.4391 27.517C76.1305 28.2197 76.4761 29.2057 76.4761 30.475V36H74.0961V30.798C74.0961 30.05 73.9091 29.4777 73.5351 29.081C73.1611 28.673 72.6511 28.469 72.0051 28.469C71.3478 28.469 70.8265 28.673 70.4411 29.081C70.0671 29.4777 69.8801 30.05 69.8801 30.798V36H67.5001V26.582H69.8801V27.755C70.1975 27.347 70.5998 27.0297 71.0871 26.803C71.5858 26.565 72.1298 26.446 72.7191 26.446ZM82.4284 26.429C83.1311 26.429 83.7487 26.5707 84.2814 26.854C84.8141 27.126 85.2334 27.483 85.5394 27.925V26.582H87.9364V36.068C87.9364 36.9407 87.7607 37.717 87.4094 38.397C87.0581 39.0883 86.5311 39.6323 85.8284 40.029C85.1257 40.437 84.2757 40.641 83.2784 40.641C81.9411 40.641 80.8417 40.3293 79.9804 39.706C79.1304 39.0827 78.6487 38.2327 78.5354 37.156H80.8984C81.0231 37.5867 81.2894 37.9267 81.6974 38.176C82.1167 38.4367 82.6211 38.567 83.2104 38.567C83.9017 38.567 84.4627 38.3573 84.8934 37.938C85.3241 37.53 85.5394 36.9067 85.5394 36.068V34.606C85.2334 35.048 84.8084 35.4163 84.2644 35.711C83.7317 36.0057 83.1197 36.153 82.4284 36.153C81.6351 36.153 80.9097 35.949 80.2524 35.541C79.5951 35.133 79.0737 34.5607 78.6884 33.824C78.3144 33.076 78.1274 32.2203 78.1274 31.257C78.1274 30.305 78.3144 29.4607 78.6884 28.724C79.0737 27.9873 79.5894 27.4207 80.2354 27.024C80.8927 26.6273 81.6237 26.429 82.4284 26.429ZM85.5394 31.291C85.5394 30.713 85.4261 30.22 85.1994 29.812C84.9727 29.3927 84.6667 29.0753 84.2814 28.86C83.8961 28.6333 83.4824 28.52 83.0404 28.52C82.5984 28.52 82.1904 28.6277 81.8164 28.843C81.4424 29.0583 81.1364 29.3757 80.8984 29.795C80.6717 30.203 80.5584 30.6903 80.5584 31.257C80.5584 31.8237 80.6717 32.3223 80.8984 32.753C81.1364 33.1723 81.4424 33.4953 81.8164 33.722C82.2017 33.9487 82.6097 34.062 83.0404 34.062C83.4824 34.062 83.8961 33.9543 84.2814 33.739C84.6667 33.5123 84.9727 33.195 85.1994 32.787C85.4261 32.3677 85.5394 31.869 85.5394 31.291ZM96.6917 24.134V36H94.3117V24.134H96.6917ZM104.262 26.446C105.384 26.446 106.291 26.803 106.982 27.517C107.673 28.2197 108.019 29.2057 108.019 30.475V36H105.639V30.798C105.639 30.05 105.452 29.4777 105.078 29.081C104.704 28.673 104.194 28.469 103.548 28.469C102.891 28.469 102.369 28.673 101.984 29.081C101.61 29.4777 101.423 30.05 101.423 30.798V36H99.0431V26.582H101.423V27.755C101.74 27.347 102.143 27.0297 102.63 26.803C103.129 26.565 103.673 26.446 104.262 26.446ZM114.209 33.807L116.589 26.582H119.122L115.637 36H112.747L109.279 26.582H111.829L114.209 33.807ZM121.666 25.46C121.247 25.46 120.895 25.3297 120.612 25.069C120.34 24.797 120.204 24.4627 120.204 24.066C120.204 23.6693 120.34 23.3407 120.612 23.08C120.895 22.808 121.247 22.672 121.666 22.672C122.085 22.672 122.431 22.808 122.703 23.08C122.986 23.3407 123.128 23.6693 123.128 24.066C123.128 24.4627 122.986 24.797 122.703 25.069C122.431 25.3297 122.085 25.46 121.666 25.46ZM122.839 26.582V36H120.459V26.582H122.839ZM127.962 28.537V33.093C127.962 33.4103 128.035 33.6427 128.183 33.79C128.341 33.926 128.602 33.994 128.965 33.994H130.07V36H128.574C126.568 36 125.565 35.0253 125.565 33.076V28.537H124.443V26.582H125.565V24.253H127.962V26.582H130.07V28.537H127.962ZM140.536 31.087C140.536 31.427 140.514 31.733 140.468 32.005H133.583C133.64 32.685 133.878 33.2177 134.297 33.603C134.717 33.9883 135.232 34.181 135.844 34.181C136.728 34.181 137.357 33.8013 137.731 33.042H140.298C140.026 33.9487 139.505 34.6967 138.734 35.286C137.964 35.864 137.017 36.153 135.895 36.153C134.989 36.153 134.173 35.9547 133.447 35.558C132.733 35.15 132.172 34.5777 131.764 33.841C131.368 33.1043 131.169 32.2543 131.169 31.291C131.169 30.3163 131.368 29.4607 131.764 28.724C132.161 27.9873 132.716 27.4207 133.43 27.024C134.144 26.6273 134.966 26.429 135.895 26.429C136.791 26.429 137.59 26.6217 138.292 27.007C139.006 27.3923 139.556 27.942 139.941 28.656C140.338 29.3587 140.536 30.169 140.536 31.087ZM138.071 30.407C138.06 29.795 137.839 29.3077 137.408 28.945C136.978 28.571 136.451 28.384 135.827 28.384C135.238 28.384 134.739 28.5653 134.331 28.928C133.935 29.2793 133.691 29.7723 133.6 30.407H138.071Z" fill="#424B66"/>
<rect x="18" y="55" width="305" height="106" rx="5" fill="#F7F8FE"/>
<rect x="34" y="71" width="48" height="48" rx="24" fill="#424B66" stroke="#424B66"/>
<path fill-rule="evenodd" clip-rule="evenodd" d="M51.5 85.5C50.6716 85.5 50 86.1716 50 87V102.5C50 103.328 50.6716 104 51.5 104H54V102.5C54 101.119 55.1193 100 56.5 100C57.8807 100 59 101.119 59 102.5V104H61.5C62.3284 104 63 103.328 63 102.5V87C63 86.1716 62.3284 85.5 61.5 85.5H56.5H51.5ZM63.5002 104C63.814 103.582 64 103.063 64 102.5V87C64 85.6193 62.8807 84.5 61.5 84.5H56.5H51.5C50.1193 84.5 49 85.6193 49 87V102.5C49 103.881 50.1193 105 51.5 105H55V104.5V104V102.5C55 101.672 55.6716 101 56.5 101C57.3284 101 58 101.672 58 102.5V104V104.5V105H58.5H61.5H66.5C67.8807 105 69 103.881 69 102.5V94.8214C69 94.0345 68.6295 93.2936 68 92.8214L65.7048 91.1C65.4838 90.9343 65.1704 90.9791 65.0048 91.2C64.8391 91.4209 64.8838 91.7343 65.1048 91.9L67.4 93.6214C67.7777 93.9047 68 94.3493 68 94.8214V102.5C68 103.328 67.3284 104 66.5 104H63.5002ZM54.5 88.5C54.5 89.0523 54.0523 89.5 53.5 89.5C52.9477 89.5 52.5 89.0523 52.5 88.5C52.5 87.9477 52.9477 87.5 53.5 87.5C54.0523 87.5 54.5 87.9477 54.5 88.5ZM53.5 93.5C54.0523 93.5 54.5 93.0523 54.5 92.5C54.5 91.9477 54.0523 91.5 53.5 91.5C52.9477 91.5 52.5 91.9477 52.5 92.5C52.5 93.0523 52.9477 93.5 53.5 93.5ZM54.5 96.5C54.5 97.0523 54.0523 97.5 53.5 97.5C52.9477 97.5 52.5 97.0523 52.5 96.5C52.5 95.9477 52.9477 95.5 53.5 95.5C54.0523 95.5 54.5 95.9477 54.5 96.5ZM59.5 89.5C60.0523 89.5 60.5 89.0523 60.5 88.5C60.5 87.9477 60.0523 87.5 59.5 87.5C58.9477 87.5 58.5 87.9477 58.5 88.5C58.5 89.0523 58.9477 89.5 59.5 89.5ZM60.5 92.5C60.5 93.0523 60.0523 93.5 59.5 93.5C58.9477 93.5 58.5 93.0523 58.5 92.5C58.5 91.9477 58.9477 91.5 59.5 91.5C60.0523 91.5 60.5 91.9477 60.5 92.5ZM59.5 97.5C60.0523 97.5 60.5 97.0523 60.5 96.5C60.5 95.9477 60.0523 95.5 59.5 95.5C58.9477 95.5 58.5 95.9477 58.5 96.5C58.5 97.0523 58.9477 97.5 59.5 97.5Z" fill="white"/>
<path d="M54 104V104.25H54.25V104H54ZM59 104H58.75V104.25H59V104ZM63.5002 104L63.3003 103.85L62.9997 104.25H63.5002V104ZM55 105V105.25H55.25V105H55ZM58 105H57.75V105.25H58V105ZM68 92.8214L68.15 92.6214L68 92.8214ZM65.7048 91.1L65.5548 91.3L65.7048 91.1ZM65.0048 91.2L64.8048 91.05L64.8048 91.05L65.0048 91.2ZM65.1048 91.9L65.2548 91.7V91.7L65.1048 91.9ZM67.4 93.6214L67.25 93.8214L67.4 93.6214ZM50.25 87C50.25 86.3096 50.8096 85.75 51.5 85.75V85.25C50.5335 85.25 49.75 86.0335 49.75 87H50.25ZM50.25 102.5V87H49.75V102.5H50.25ZM51.5 103.75C50.8096 103.75 50.25 103.19 50.25 102.5H49.75C49.75 103.466 50.5335 104.25 51.5 104.25V103.75ZM54 103.75H51.5V104.25H54V103.75ZM53.75 102.5V104H54.25V102.5H53.75ZM56.5 99.75C54.9812 99.75 53.75 100.981 53.75 102.5H54.25C54.25 101.257 55.2574 100.25 56.5 100.25V99.75ZM59.25 102.5C59.25 100.981 58.0188 99.75 56.5 99.75V100.25C57.7426 100.25 58.75 101.257 58.75 102.5H59.25ZM59.25 104V102.5H58.75V104H59.25ZM61.5 103.75H59V104.25H61.5V103.75ZM62.75 102.5C62.75 103.19 62.1904 103.75 61.5 103.75V104.25C62.4665 104.25 63.25 103.466 63.25 102.5H62.75ZM62.75 87V102.5H63.25V87H62.75ZM61.5 85.75C62.1904 85.75 62.75 86.3096 62.75 87H63.25C63.25 86.0335 62.4665 85.25 61.5 85.25V85.75ZM56.5 85.75H61.5V85.25H56.5V85.75ZM51.5 85.75H56.5V85.25H51.5V85.75ZM63.75 102.5C63.75 103.007 63.5827 103.474 63.3003 103.85L63.7001 104.15C64.0453 103.691 64.25 103.119 64.25 102.5H63.75ZM63.75 87V102.5H64.25V87H63.75ZM61.5 84.75C62.7426 84.75 63.75 85.7574 63.75 87H64.25C64.25 85.4812 63.0188 84.25 61.5 84.25V84.75ZM56.5 84.75H61.5V84.25H56.5V84.75ZM51.5 84.75H56.5V84.25H51.5V84.75ZM49.25 87C49.25 85.7574 50.2574 84.75 51.5 84.75V84.25C49.9812 84.25 48.75 85.4812 48.75 87H49.25ZM49.25 102.5V87H48.75V102.5H49.25ZM51.5 104.75C50.2574 104.75 49.25 103.743 49.25 102.5H48.75C48.75 104.019 49.9812 105.25 51.5 105.25V104.75ZM55 104.75H51.5V105.25H55V104.75ZM54.75 104.5V105H55.25V104.5H54.75ZM54.75 104V104.5H55.25V104H54.75ZM54.75 102.5V104H55.25V102.5H54.75ZM56.5 100.75C55.5335 100.75 54.75 101.534 54.75 102.5H55.25C55.25 101.81 55.8096 101.25 56.5 101.25V100.75ZM58.25 102.5C58.25 101.534 57.4665 100.75 56.5 100.75V101.25C57.1904 101.25 57.75 101.81 57.75 102.5H58.25ZM58.25 104V102.5H57.75V104H58.25ZM58.25 104.5V104H57.75V104.5H58.25ZM58.25 105V104.5H57.75V105H58.25ZM58.5 104.75H58V105.25H58.5V104.75ZM61.5 104.75H58.5V105.25H61.5V104.75ZM66.5 104.75H61.5V105.25H66.5V104.75ZM68.75 102.5C68.75 103.743 67.7426 104.75 66.5 104.75V105.25C68.0188 105.25 69.25 104.019 69.25 102.5H68.75ZM68.75 94.8214V102.5H69.25V94.8214H68.75ZM67.85 93.0214C68.4166 93.4464 68.75 94.1132 68.75 94.8214H69.25C69.25 93.9558 68.8425 93.1408 68.15 92.6214L67.85 93.0214ZM65.5548 91.3L67.85 93.0214L68.15 92.6214L65.8548 90.9L65.5548 91.3ZM65.2048 91.35C65.2876 91.2395 65.4443 91.2172 65.5548 91.3L65.8548 90.9C65.5234 90.6515 65.0533 90.7186 64.8048 91.05L65.2048 91.35ZM65.2548 91.7C65.1443 91.6172 65.1219 91.4605 65.2048 91.35L64.8048 91.05C64.5562 91.3814 64.6234 91.8515 64.9548 92.1L65.2548 91.7ZM67.55 93.4214L65.2548 91.7L64.9548 92.1L67.25 93.8214L67.55 93.4214ZM68.25 94.8214C68.25 94.2706 67.9907 93.7519 67.55 93.4214L67.25 93.8214C67.5648 94.0575 67.75 94.428 67.75 94.8214H68.25ZM68.25 102.5V94.8214H67.75V102.5H68.25ZM66.5 104.25C67.4665 104.25 68.25 103.466 68.25 102.5H67.75C67.75 103.19 67.1904 103.75 66.5 103.75V104.25ZM63.5002 104.25H66.5V103.75H63.5002V104.25ZM53.5 89.75C54.1904 89.75 54.75 89.1904 54.75 88.5H54.25C54.25 88.9142 53.9142 89.25 53.5 89.25V89.75ZM52.25 88.5C52.25 89.1904 52.8096 89.75 53.5 89.75V89.25C53.0858 89.25 52.75 88.9142 52.75 88.5H52.25ZM53.5 87.25C52.8096 87.25 52.25 87.8096 52.25 88.5H52.75C52.75 88.0858 53.0858 87.75 53.5 87.75V87.25ZM54.75 88.5C54.75 87.8096 54.1904 87.25 53.5 87.25V87.75C53.9142 87.75 54.25 88.0858 54.25 88.5H54.75ZM54.25 92.5C54.25 92.9142 53.9142 93.25 53.5 93.25V93.75C54.1904 93.75 54.75 93.1904 54.75 92.5H54.25ZM53.5 91.75C53.9142 91.75 54.25 92.0858 54.25 92.5H54.75C54.75 91.8096 54.1904 91.25 53.5 91.25V91.75ZM52.75 92.5C52.75 92.0858 53.0858 91.75 53.5 91.75V91.25C52.8096 91.25 52.25 91.8096 52.25 92.5H52.75ZM53.5 93.25C53.0858 93.25 52.75 92.9142 52.75 92.5H52.25C52.25 93.1904 52.8096 93.75 53.5 93.75V93.25ZM53.5 97.75C54.1904 97.75 54.75 97.1904 54.75 96.5H54.25C54.25 96.9142 53.9142 97.25 53.5 97.25V97.75ZM52.25 96.5C52.25 97.1904 52.8096 97.75 53.5 97.75V97.25C53.0858 97.25 52.75 96.9142 52.75 96.5H52.25ZM53.5 95.25C52.8096 95.25 52.25 95.8096 52.25 96.5H52.75C52.75 96.0858 53.0858 95.75 53.5 95.75V95.25ZM54.75 96.5C54.75 95.8096 54.1904 95.25 53.5 95.25V95.75C53.9142 95.75 54.25 96.0858 54.25 96.5H54.75ZM60.25 88.5C60.25 88.9142 59.9142 89.25 59.5 89.25V89.75C60.1904 89.75 60.75 89.1904 60.75 88.5H60.25ZM59.5 87.75C59.9142 87.75 60.25 88.0858 60.25 88.5H60.75C60.75 87.8096 60.1904 87.25 59.5 87.25V87.75ZM58.75 88.5C58.75 88.0858 59.0858 87.75 59.5 87.75V87.25C58.8096 87.25 58.25 87.8096 58.25 88.5H58.75ZM59.5 89.25C59.0858 89.25 58.75 88.9142 58.75 88.5H58.25C58.25 89.1904 58.8096 89.75 59.5 89.75V89.25ZM59.5 93.75C60.1904 93.75 60.75 93.1904 60.75 92.5H60.25C60.25 92.9142 59.9142 93.25 59.5 93.25V93.75ZM58.25 92.5C58.25 93.1904 58.8096 93.75 59.5 93.75V93.25C59.0858 93.25 58.75 92.9142 58.75 92.5H58.25ZM59.5 91.25C58.8096 91.25 58.25 91.8096 58.25 92.5H58.75C58.75 92.0858 59.0858 91.75 59.5 91.75V91.25ZM60.75 92.5C60.75 91.8096 60.1904 91.25 59.5 91.25V91.75C59.9142 91.75 60.25 92.0858 60.25 92.5H60.75ZM60.25 96.5C60.25 96.9142 59.9142 97.25 59.5 97.25V97.75C60.1904 97.75 60.75 97.1904 60.75 96.5H60.25ZM59.5 95.75C59.9142 95.75 60.25 96.0858 60.25 96.5H60.75C60.75 95.8096 60.1904 95.25 59.5 95.25V95.75ZM58.75 96.5C58.75 96.0858 59.0858 95.75 59.5 95.75V95.25C58.8096 95.25 58.25 95.8096 58.25 96.5H58.75ZM59.5 97.25C59.0858 97.25 58.75 96.9142 58.75 96.5H58.25C58.25 97.1904 58.8096 97.75 59.5 97.75V97.25Z" fill="white"/>
<path d="M101.91 78.242L98.732 84.318V88H97.458V84.318L94.266 78.242H95.68L98.088 83.184L100.496 78.242H101.91ZM106.6 88.126C105.881 88.126 105.228 87.9627 104.64 87.636C104.061 87.3093 103.604 86.8473 103.268 86.25C102.941 85.6433 102.778 84.9433 102.778 84.15C102.778 83.366 102.946 82.6753 103.282 82.078C103.627 81.4713 104.094 81.0093 104.682 80.692C105.27 80.3653 105.928 80.202 106.656 80.202C107.384 80.202 108.042 80.3653 108.63 80.692C109.218 81.0093 109.68 81.4667 110.016 82.064C110.361 82.6613 110.534 83.3567 110.534 84.15C110.534 84.9433 110.356 85.6433 110.002 86.25C109.656 86.8473 109.185 87.3093 108.588 87.636C107.99 87.9627 107.328 88.126 106.6 88.126ZM106.6 87.006C107.057 87.006 107.486 86.8987 107.888 86.684C108.289 86.4693 108.611 86.1473 108.854 85.718C109.106 85.2887 109.232 84.766 109.232 84.15C109.232 83.534 109.11 83.0113 108.868 82.582C108.625 82.1527 108.308 81.8353 107.916 81.63C107.524 81.4153 107.099 81.308 106.642 81.308C106.175 81.308 105.746 81.4153 105.354 81.63C104.971 81.8353 104.663 82.1527 104.43 82.582C104.196 83.0113 104.08 83.534 104.08 84.15C104.08 84.7753 104.192 85.3027 104.416 85.732C104.649 86.1613 104.957 86.4833 105.34 86.698C105.722 86.9033 106.142 87.006 106.6 87.006ZM119.013 80.328V88H117.739V86.866C117.496 87.258 117.156 87.566 116.717 87.79C116.288 88.0047 115.812 88.112 115.289 88.112C114.692 88.112 114.155 87.9907 113.679 87.748C113.203 87.496 112.825 87.1227 112.545 86.628C112.274 86.1333 112.139 85.5313 112.139 84.822V80.328H113.399V84.654C113.399 85.41 113.59 85.9933 113.973 86.404C114.356 86.8053 114.878 87.006 115.541 87.006C116.222 87.006 116.759 86.796 117.151 86.376C117.543 85.956 117.739 85.3447 117.739 84.542V80.328H119.013ZM128.704 80.188C129.283 80.188 129.806 80.314 130.272 80.566C130.739 80.8087 131.103 81.1773 131.364 81.672C131.635 82.1667 131.77 82.7687 131.77 83.478V88H130.51V83.66C130.51 82.8947 130.319 82.3113 129.936 81.91C129.554 81.4993 129.031 81.294 128.368 81.294C127.696 81.294 127.16 81.504 126.758 81.924C126.366 82.344 126.17 82.9553 126.17 83.758V88H124.896V77.64H126.17V81.42C126.422 81.028 126.768 80.7247 127.206 80.51C127.654 80.2953 128.154 80.188 128.704 80.188ZM133.375 84.136C133.375 83.352 133.534 82.666 133.851 82.078C134.169 81.4807 134.603 81.0187 135.153 80.692C135.713 80.3653 136.334 80.202 137.015 80.202C137.687 80.202 138.271 80.3467 138.765 80.636C139.26 80.9253 139.629 81.2893 139.871 81.728V80.328H141.159V88H139.871V86.572C139.619 87.02 139.241 87.3933 138.737 87.692C138.243 87.9813 137.664 88.126 137.001 88.126C136.32 88.126 135.704 87.958 135.153 87.622C134.603 87.286 134.169 86.8147 133.851 86.208C133.534 85.6013 133.375 84.9107 133.375 84.136ZM139.871 84.15C139.871 83.5713 139.755 83.0673 139.521 82.638C139.288 82.2087 138.971 81.882 138.569 81.658C138.177 81.4247 137.743 81.308 137.267 81.308C136.791 81.308 136.357 81.42 135.965 81.644C135.573 81.868 135.261 82.1947 135.027 82.624C134.794 83.0533 134.677 83.5573 134.677 84.136C134.677 84.724 134.794 85.2373 135.027 85.676C135.261 86.1053 135.573 86.4367 135.965 86.67C136.357 86.894 136.791 87.006 137.267 87.006C137.743 87.006 138.177 86.894 138.569 86.67C138.971 86.4367 139.288 86.1053 139.521 85.676C139.755 85.2373 139.871 84.7287 139.871 84.15ZM146.168 86.824L148.548 80.328H149.906L146.896 88H145.412L142.402 80.328H143.774L146.168 86.824ZM158.16 83.87C158.16 84.1127 158.146 84.3693 158.118 84.64H151.986C152.033 85.396 152.289 85.9887 152.756 86.418C153.232 86.838 153.806 87.048 154.478 87.048C155.029 87.048 155.486 86.922 155.85 86.67C156.223 86.4087 156.485 86.0633 156.634 85.634H158.006C157.801 86.3713 157.39 86.9733 156.774 87.44C156.158 87.8973 155.393 88.126 154.478 88.126C153.75 88.126 153.097 87.9627 152.518 87.636C151.949 87.3093 151.501 86.8473 151.174 86.25C150.847 85.6433 150.684 84.9433 150.684 84.15C150.684 83.3567 150.843 82.6613 151.16 82.064C151.477 81.4667 151.921 81.0093 152.49 80.692C153.069 80.3653 153.731 80.202 154.478 80.202C155.206 80.202 155.85 80.3607 156.41 80.678C156.97 80.9953 157.399 81.434 157.698 81.994C158.006 82.5447 158.16 83.17 158.16 83.87ZM156.844 83.604C156.844 83.1187 156.737 82.7033 156.522 82.358C156.307 82.0033 156.013 81.7373 155.64 81.56C155.276 81.3733 154.87 81.28 154.422 81.28C153.778 81.28 153.227 81.4853 152.77 81.896C152.322 82.3067 152.065 82.876 152 83.604H156.844ZM164.848 81.756C165.109 81.2987 165.492 80.9253 165.996 80.636C166.5 80.3467 167.074 80.202 167.718 80.202C168.409 80.202 169.029 80.3653 169.58 80.692C170.131 81.0187 170.565 81.4807 170.882 82.078C171.199 82.666 171.358 83.352 171.358 84.136C171.358 84.9107 171.199 85.6013 170.882 86.208C170.565 86.8147 170.126 87.286 169.566 87.622C169.015 87.958 168.399 88.126 167.718 88.126C167.055 88.126 166.472 87.9813 165.968 87.692C165.473 87.4027 165.1 87.034 164.848 86.586V88H163.574V77.64H164.848V81.756ZM170.056 84.136C170.056 83.5573 169.939 83.0533 169.706 82.624C169.473 82.1947 169.155 81.868 168.754 81.644C168.362 81.42 167.928 81.308 167.452 81.308C166.985 81.308 166.551 81.4247 166.15 81.658C165.758 81.882 165.441 82.2133 165.198 82.652C164.965 83.0813 164.848 83.5807 164.848 84.15C164.848 84.7287 164.965 85.2373 165.198 85.676C165.441 86.1053 165.758 86.4367 166.15 86.67C166.551 86.894 166.985 87.006 167.452 87.006C167.928 87.006 168.362 86.894 168.754 86.67C169.155 86.4367 169.473 86.1053 169.706 85.676C169.939 85.2373 170.056 84.724 170.056 84.136ZM180.035 83.87C180.035 84.1127 180.021 84.3693 179.993 84.64H173.861C173.908 85.396 174.164 85.9887 174.631 86.418C175.107 86.838 175.681 87.048 176.353 87.048C176.904 87.048 177.361 86.922 177.725 86.67C178.098 86.4087 178.36 86.0633 178.509 85.634H179.881C179.676 86.3713 179.265 86.9733 178.649 87.44C178.033 87.8973 177.268 88.126 176.353 88.126C175.625 88.126 174.972 87.9627 174.393 87.636C173.824 87.3093 173.376 86.8473 173.049 86.25C172.722 85.6433 172.559 84.9433 172.559 84.15C172.559 83.3567 172.718 82.6613 173.035 82.064C173.352 81.4667 173.796 81.0093 174.365 80.692C174.944 80.3653 175.606 80.202 176.353 80.202C177.081 80.202 177.725 80.3607 178.285 80.678C178.845 80.9953 179.274 81.434 179.573 81.994C179.881 82.5447 180.035 83.17 180.035 83.87ZM178.719 83.604C178.719 83.1187 178.612 82.7033 178.397 82.358C178.182 82.0033 177.888 81.7373 177.515 81.56C177.151 81.3733 176.745 81.28 176.297 81.28C175.653 81.28 175.102 81.4853 174.645 81.896C174.197 82.3067 173.94 82.876 173.875 83.604H178.719ZM188.717 83.87C188.717 84.1127 188.703 84.3693 188.675 84.64H182.543C182.589 85.396 182.846 85.9887 183.313 86.418C183.789 86.838 184.363 87.048 185.035 87.048C185.585 87.048 186.043 86.922 186.407 86.67C186.78 86.4087 187.041 86.0633 187.191 85.634H188.563C188.357 86.3713 187.947 86.9733 187.331 87.44C186.715 87.8973 185.949 88.126 185.035 88.126C184.307 88.126 183.653 87.9627 183.075 87.636C182.505 87.3093 182.057 86.8473 181.731 86.25C181.404 85.6433 181.241 84.9433 181.241 84.15C181.241 83.3567 181.399 82.6613 181.717 82.064C182.034 81.4667 182.477 81.0093 183.047 80.692C183.625 80.3653 184.288 80.202 185.035 80.202C185.763 80.202 186.407 80.3607 186.967 80.678C187.527 80.9953 187.956 81.434 188.255 81.994C188.563 82.5447 188.717 83.17 188.717 83.87ZM187.401 83.604C187.401 83.1187 187.293 82.7033 187.079 82.358C186.864 82.0033 186.57 81.7373 186.197 81.56C185.833 81.3733 185.427 81.28 184.979 81.28C184.335 81.28 183.784 81.4853 183.327 81.896C182.879 82.3067 182.622 82.876 182.557 83.604H187.401ZM194.136 80.188C195.07 80.188 195.826 80.4727 196.404 81.042C196.983 81.602 197.272 82.414 197.272 83.478V88H196.012V83.66C196.012 82.8947 195.821 82.3113 195.438 81.91C195.056 81.4993 194.533 81.294 193.87 81.294C193.198 81.294 192.662 81.504 192.26 81.924C191.868 82.344 191.672 82.9553 191.672 83.758V88H190.398V80.328H191.672V81.42C191.924 81.028 192.265 80.7247 192.694 80.51C193.133 80.2953 193.614 80.188 194.136 80.188ZM203.744 79.082C203.501 79.082 203.296 78.998 203.128 78.83C202.96 78.662 202.876 78.4567 202.876 78.214C202.876 77.9713 202.96 77.766 203.128 77.598C203.296 77.43 203.501 77.346 203.744 77.346C203.977 77.346 204.173 77.43 204.332 77.598C204.5 77.766 204.584 77.9713 204.584 78.214C204.584 78.4567 204.5 78.662 204.332 78.83C204.173 78.998 203.977 79.082 203.744 79.082ZM204.36 80.328V88H203.086V80.328H204.36ZM210.269 80.188C211.202 80.188 211.958 80.4727 212.537 81.042C213.116 81.602 213.405 82.414 213.405 83.478V88H212.145V83.66C212.145 82.8947 211.954 82.3113 211.571 81.91C211.188 81.4993 210.666 81.294 210.003 81.294C209.331 81.294 208.794 81.504 208.393 81.924C208.001 82.344 207.805 82.9553 207.805 83.758V88H206.531V80.328H207.805V81.42C208.057 81.028 208.398 80.7247 208.827 80.51C209.266 80.2953 209.746 80.188 210.269 80.188ZM218.342 86.824L220.722 80.328H222.08L219.07 88H217.586L214.576 80.328H215.948L218.342 86.824ZM223.992 79.082C223.749 79.082 223.544 78.998 223.376 78.83C223.208 78.662 223.124 78.4567 223.124 78.214C223.124 77.9713 223.208 77.766 223.376 77.598C223.544 77.43 223.749 77.346 223.992 77.346C224.225 77.346 224.421 77.43 224.58 77.598C224.748 77.766 224.832 77.9713 224.832 78.214C224.832 78.4567 224.748 78.662 224.58 78.83C224.421 78.998 224.225 79.082 223.992 79.082ZM224.608 80.328V88H223.334V80.328H224.608ZM228.333 81.378V85.9C228.333 86.2733 228.413 86.5393 228.571 86.698C228.73 86.8473 229.005 86.922 229.397 86.922H230.335V88H229.187C228.478 88 227.946 87.8367 227.591 87.51C227.237 87.1833 227.059 86.6467 227.059 85.9V81.378H226.065V80.328H227.059V78.396H228.333V80.328H230.335V81.378H228.333ZM238.879 83.87C238.879 84.1127 238.865 84.3693 238.837 84.64H232.705C232.751 85.396 233.008 85.9887 233.475 86.418C233.951 86.838 234.525 87.048 235.197 87.048C235.747 87.048 236.205 86.922 236.569 86.67C236.942 86.4087 237.203 86.0633 237.353 85.634H238.725C238.519 86.3713 238.109 86.9733 237.493 87.44C236.877 87.8973 236.111 88.126 235.197 88.126C234.469 88.126 233.815 87.9627 233.237 87.636C232.667 87.3093 232.219 86.8473 231.893 86.25C231.566 85.6433 231.403 84.9433 231.403 84.15C231.403 83.3567 231.561 82.6613 231.879 82.064C232.196 81.4667 232.639 81.0093 233.209 80.692C233.787 80.3653 234.45 80.202 235.197 80.202C235.925 80.202 236.569 80.3607 237.129 80.678C237.689 80.9953 238.118 81.434 238.417 81.994C238.725 82.5447 238.879 83.17 238.879 83.87ZM237.563 83.604C237.563 83.1187 237.455 82.7033 237.241 82.358C237.026 82.0033 236.732 81.7373 236.359 81.56C235.995 81.3733 235.589 81.28 235.141 81.28C234.497 81.28 233.946 81.4853 233.489 81.896C233.041 82.3067 232.784 82.876 232.719 83.604H237.563ZM240.084 84.136C240.084 83.352 240.243 82.666 240.56 82.078C240.878 81.4807 241.312 81.0187 241.862 80.692C242.422 80.3653 243.048 80.202 243.738 80.202C244.336 80.202 244.891 80.342 245.404 80.622C245.918 80.8927 246.31 81.252 246.58 81.7V77.64H247.868V88H246.58V86.558C246.328 87.0153 245.955 87.3933 245.46 87.692C244.966 87.9813 244.387 88.126 243.724 88.126C243.043 88.126 242.422 87.958 241.862 87.622C241.312 87.286 240.878 86.8147 240.56 86.208C240.243 85.6013 240.084 84.9107 240.084 84.136ZM246.58 84.15C246.58 83.5713 246.464 83.0673 246.23 82.638C245.997 82.2087 245.68 81.882 245.278 81.658C244.886 81.4247 244.452 81.308 243.976 81.308C243.5 81.308 243.066 81.42 242.674 81.644C242.282 81.868 241.97 82.1947 241.736 82.624C241.503 83.0533 241.386 83.5573 241.386 84.136C241.386 84.724 241.503 85.2373 241.736 85.676C241.97 86.1053 242.282 86.4367 242.674 86.67C243.066 86.894 243.5 87.006 243.976 87.006C244.452 87.006 244.886 86.894 245.278 86.67C245.68 86.4367 245.997 86.1053 246.23 85.676C246.464 85.2373 246.58 84.7287 246.58 84.15ZM255.308 81.378V85.9C255.308 86.2733 255.387 86.5393 255.546 86.698C255.704 86.8473 255.98 86.922 256.372 86.922H257.31V88H256.162C255.452 88 254.92 87.8367 254.566 87.51C254.211 87.1833 254.034 86.6467 254.034 85.9V81.378H253.04V80.328H254.034V78.396H255.308V80.328H257.31V81.378H255.308ZM262.199 88.126C261.481 88.126 260.827 87.9627 260.239 87.636C259.661 87.3093 259.203 86.8473 258.867 86.25C258.541 85.6433 258.377 84.9433 258.377 84.15C258.377 83.366 258.545 82.6753 258.881 82.078C259.227 81.4713 259.693 81.0093 260.281 80.692C260.869 80.3653 261.527 80.202 262.255 80.202C262.983 80.202 263.641 80.3653 264.229 80.692C264.817 81.0093 265.279 81.4667 265.615 82.064C265.961 82.6613 266.133 83.3567 266.133 84.15C266.133 84.9433 265.956 85.6433 265.601 86.25C265.256 86.8473 264.785 87.3093 264.187 87.636C263.59 87.9627 262.927 88.126 262.199 88.126ZM262.199 87.006C262.657 87.006 263.086 86.8987 263.487 86.684C263.889 86.4693 264.211 86.1473 264.453 85.718C264.705 85.2887 264.831 84.766 264.831 84.15C264.831 83.534 264.71 83.0113 264.467 82.582C264.225 82.1527 263.907 81.8353 263.515 81.63C263.123 81.4153 262.699 81.308 262.241 81.308C261.775 81.308 261.345 81.4153 260.953 81.63C260.571 81.8353 260.263 82.1527 260.029 82.582C259.796 83.0113 259.679 83.534 259.679 84.15C259.679 84.7753 259.791 85.3027 260.015 85.732C260.249 86.1613 260.557 86.4833 260.939 86.698C261.322 86.9033 261.742 87.006 262.199 87.006ZM274.635 88.098C273.991 88.098 273.412 87.986 272.899 87.762C272.395 87.5287 271.998 87.2113 271.709 86.81C271.42 86.3993 271.27 85.928 271.261 85.396H272.619C272.666 85.8533 272.852 86.2407 273.179 86.558C273.515 86.866 274 87.02 274.635 87.02C275.242 87.02 275.718 86.8707 276.063 86.572C276.418 86.264 276.595 85.872 276.595 85.396C276.595 85.0227 276.492 84.7193 276.287 84.486C276.082 84.2527 275.825 84.0753 275.517 83.954C275.209 83.8327 274.794 83.702 274.271 83.562C273.627 83.394 273.109 83.226 272.717 83.058C272.334 82.89 272.003 82.6287 271.723 82.274C271.452 81.91 271.317 81.4247 271.317 80.818C271.317 80.286 271.452 79.8147 271.723 79.404C271.994 78.9933 272.372 78.676 272.857 78.452C273.352 78.228 273.916 78.116 274.551 78.116C275.466 78.116 276.212 78.3447 276.791 78.802C277.379 79.2593 277.71 79.866 277.785 80.622H276.385C276.338 80.2487 276.142 79.922 275.797 79.642C275.452 79.3527 274.994 79.208 274.425 79.208C273.893 79.208 273.459 79.348 273.123 79.628C272.787 79.8987 272.619 80.2813 272.619 80.776C272.619 81.1307 272.717 81.42 272.913 81.644C273.118 81.868 273.366 82.0407 273.655 82.162C273.954 82.274 274.369 82.4047 274.901 82.554C275.545 82.7313 276.063 82.9087 276.455 83.086C276.847 83.254 277.183 83.52 277.463 83.884C277.743 84.2387 277.883 84.724 277.883 85.34C277.883 85.816 277.757 86.264 277.505 86.684C277.253 87.104 276.88 87.4447 276.385 87.706C275.89 87.9673 275.307 88.098 274.635 88.098ZM284.042 88L281.032 84.612V88H279.758V77.64H281.032V83.73L283.986 80.328H285.764L282.152 84.15L285.778 88H284.042ZM293.571 80.328L288.951 91.612H287.635L289.147 87.916L286.053 80.328H287.467L289.875 86.544L292.255 80.328H293.571ZM296.097 78.242V84.416C296.097 85.284 296.307 85.928 296.727 86.348C297.157 86.768 297.749 86.978 298.505 86.978C299.252 86.978 299.835 86.768 300.255 86.348C300.685 85.928 300.899 85.284 300.899 84.416V78.242H302.173V84.402C302.173 85.214 302.01 85.9 301.683 86.46C301.357 87.0107 300.913 87.4213 300.353 87.692C299.803 87.9627 299.182 88.098 298.491 88.098C297.801 88.098 297.175 87.9627 296.615 87.692C296.065 87.4213 295.626 87.0107 295.299 86.46C294.982 85.9 294.823 85.214 294.823 84.402V78.242H296.097Z" fill="#424B66"/>
<g filter="url(#filter0_d_550_12601)">
<rect x="94" y="111" width="102" height="32" rx="5" fill="#0683DE" shape-rendering="crispEdges"/>
<path d="M127.004 129.83H122.748L121.964 132H120.62L124.148 122.298H125.618L129.132 132H127.788L127.004 129.83ZM126.64 128.794L124.876 123.866L123.112 128.794H126.64ZM130.194 128.15C130.194 127.357 130.352 126.666 130.67 126.078C130.987 125.481 131.426 125.019 131.986 124.692C132.555 124.365 133.204 124.202 133.932 124.202C134.874 124.202 135.649 124.431 136.256 124.888C136.872 125.345 137.278 125.98 137.474 126.792H136.102C135.971 126.325 135.714 125.957 135.332 125.686C134.958 125.415 134.492 125.28 133.932 125.28C133.204 125.28 132.616 125.532 132.168 126.036C131.72 126.531 131.496 127.235 131.496 128.15C131.496 129.074 131.72 129.788 132.168 130.292C132.616 130.796 133.204 131.048 133.932 131.048C134.492 131.048 134.958 130.917 135.332 130.656C135.705 130.395 135.962 130.021 136.102 129.536H137.474C137.268 130.32 136.858 130.95 136.242 131.426C135.626 131.893 134.856 132.126 133.932 132.126C133.204 132.126 132.555 131.963 131.986 131.636C131.426 131.309 130.987 130.847 130.67 130.25C130.352 129.653 130.194 128.953 130.194 128.15ZM138.698 128.15C138.698 127.357 138.856 126.666 139.174 126.078C139.491 125.481 139.93 125.019 140.49 124.692C141.059 124.365 141.708 124.202 142.436 124.202C143.378 124.202 144.153 124.431 144.76 124.888C145.376 125.345 145.782 125.98 145.978 126.792H144.606C144.475 126.325 144.218 125.957 143.836 125.686C143.462 125.415 142.996 125.28 142.436 125.28C141.708 125.28 141.12 125.532 140.672 126.036C140.224 126.531 140 127.235 140 128.15C140 129.074 140.224 129.788 140.672 130.292C141.12 130.796 141.708 131.048 142.436 131.048C142.996 131.048 143.462 130.917 143.836 130.656C144.209 130.395 144.466 130.021 144.606 129.536H145.978C145.772 130.32 145.362 130.95 144.746 131.426C144.13 131.893 143.36 132.126 142.436 132.126C141.708 132.126 141.059 131.963 140.49 131.636C139.93 131.309 139.491 130.847 139.174 130.25C138.856 129.653 138.698 128.953 138.698 128.15ZM154.678 127.87C154.678 128.113 154.664 128.369 154.636 128.64H148.504C148.55 129.396 148.807 129.989 149.274 130.418C149.75 130.838 150.324 131.048 150.996 131.048C151.546 131.048 152.004 130.922 152.368 130.67C152.741 130.409 153.002 130.063 153.152 129.634H154.524C154.318 130.371 153.908 130.973 153.292 131.44C152.676 131.897 151.91 132.126 150.996 132.126C150.268 132.126 149.614 131.963 149.036 131.636C148.466 131.309 148.018 130.847 147.692 130.25C147.365 129.643 147.202 128.943 147.202 128.15C147.202 127.357 147.36 126.661 147.678 126.064C147.995 125.467 148.438 125.009 149.008 124.692C149.586 124.365 150.249 124.202 150.996 124.202C151.724 124.202 152.368 124.361 152.928 124.678C153.488 124.995 153.917 125.434 154.216 125.994C154.524 126.545 154.678 127.17 154.678 127.87ZM153.362 127.604C153.362 127.119 153.254 126.703 153.04 126.358C152.825 126.003 152.531 125.737 152.158 125.56C151.794 125.373 151.388 125.28 150.94 125.28C150.296 125.28 149.745 125.485 149.288 125.896C148.84 126.307 148.583 126.876 148.518 127.604H153.362ZM157.633 125.742C157.885 125.303 158.259 124.939 158.753 124.65C159.257 124.351 159.841 124.202 160.503 124.202C161.185 124.202 161.801 124.365 162.351 124.692C162.911 125.019 163.35 125.481 163.667 126.078C163.985 126.666 164.143 127.352 164.143 128.136C164.143 128.911 163.985 129.601 163.667 130.208C163.35 130.815 162.911 131.286 162.351 131.622C161.801 131.958 161.185 132.126 160.503 132.126C159.85 132.126 159.271 131.981 158.767 131.692C158.273 131.393 157.895 131.025 157.633 130.586V135.64H156.359V124.328H157.633V125.742ZM162.841 128.136C162.841 127.557 162.725 127.053 162.491 126.624C162.258 126.195 161.941 125.868 161.539 125.644C161.147 125.42 160.713 125.308 160.237 125.308C159.771 125.308 159.337 125.425 158.935 125.658C158.543 125.882 158.226 126.213 157.983 126.652C157.75 127.081 157.633 127.581 157.633 128.15C157.633 128.729 157.75 129.237 157.983 129.676C158.226 130.105 158.543 130.437 158.935 130.67C159.337 130.894 159.771 131.006 160.237 131.006C160.713 131.006 161.147 130.894 161.539 130.67C161.941 130.437 162.258 130.105 162.491 129.676C162.725 129.237 162.841 128.724 162.841 128.136ZM167.374 125.378V129.9C167.374 130.273 167.454 130.539 167.612 130.698C167.771 130.847 168.046 130.922 168.438 130.922H169.376V132H168.228C167.519 132 166.987 131.837 166.632 131.51C166.278 131.183 166.1 130.647 166.1 129.9V125.378H165.106V124.328H166.1V122.396H167.374V124.328H169.376V125.378H167.374Z" fill="white"/>
</g>
<rect x="205.5" y="111.5" width="101" height="31" rx="4.5" fill="white"/>
<rect x="205.5" y="111.5" width="101" height="31" rx="4.5" stroke="#C9CCD9"/>
<path d="M234.31 122.242C235.374 122.242 236.294 122.443 237.068 122.844C237.852 123.236 238.45 123.801 238.86 124.538C239.28 125.275 239.49 126.143 239.49 127.142C239.49 128.141 239.28 129.009 238.86 129.746C238.45 130.474 237.852 131.034 237.068 131.426C236.294 131.809 235.374 132 234.31 132H231.272V122.242H234.31ZM234.31 130.95C235.57 130.95 236.532 130.619 237.194 129.956C237.857 129.284 238.188 128.346 238.188 127.142C238.188 125.929 237.852 124.981 237.18 124.3C236.518 123.619 235.561 123.278 234.31 123.278H232.546V130.95H234.31ZM248.171 127.87C248.171 128.113 248.157 128.369 248.129 128.64H241.997C242.043 129.396 242.3 129.989 242.767 130.418C243.243 130.838 243.817 131.048 244.489 131.048C245.039 131.048 245.497 130.922 245.861 130.67C246.234 130.409 246.495 130.063 246.645 129.634H248.017C247.811 130.371 247.401 130.973 246.785 131.44C246.169 131.897 245.403 132.126 244.489 132.126C243.761 132.126 243.107 131.963 242.529 131.636C241.959 131.309 241.511 130.847 241.185 130.25C240.858 129.643 240.695 128.943 240.695 128.15C240.695 127.357 240.853 126.661 241.171 126.064C241.488 125.467 241.931 125.009 242.501 124.692C243.079 124.365 243.742 124.202 244.489 124.202C245.217 124.202 245.861 124.361 246.421 124.678C246.981 124.995 247.41 125.434 247.709 125.994C248.017 126.545 248.171 127.17 248.171 127.87ZM246.855 127.604C246.855 127.119 246.747 126.703 246.533 126.358C246.318 126.003 246.024 125.737 245.651 125.56C245.287 125.373 244.881 125.28 244.433 125.28C243.789 125.28 243.238 125.485 242.781 125.896C242.333 126.307 242.076 126.876 242.011 127.604H246.855ZM249.376 128.15C249.376 127.357 249.535 126.666 249.852 126.078C250.17 125.481 250.608 125.019 251.168 124.692C251.738 124.365 252.386 124.202 253.114 124.202C254.057 124.202 254.832 124.431 255.438 124.888C256.054 125.345 256.46 125.98 256.656 126.792H255.284C255.154 126.325 254.897 125.957 254.514 125.686C254.141 125.415 253.674 125.28 253.114 125.28C252.386 125.28 251.798 125.532 251.35 126.036C250.902 126.531 250.678 127.235 250.678 128.15C250.678 129.074 250.902 129.788 251.35 130.292C251.798 130.796 252.386 131.048 253.114 131.048C253.674 131.048 254.141 130.917 254.514 130.656C254.888 130.395 255.144 130.021 255.284 129.536H256.656C256.451 130.32 256.04 130.95 255.424 131.426C254.808 131.893 254.038 132.126 253.114 132.126C252.386 132.126 251.738 131.963 251.168 131.636C250.608 131.309 250.17 130.847 249.852 130.25C249.535 129.653 249.376 128.953 249.376 128.15ZM259.63 121.64V132H258.356V121.64H259.63ZM262.46 123.082C262.217 123.082 262.012 122.998 261.844 122.83C261.676 122.662 261.592 122.457 261.592 122.214C261.592 121.971 261.676 121.766 261.844 121.598C262.012 121.43 262.217 121.346 262.46 121.346C262.693 121.346 262.889 121.43 263.048 121.598C263.216 121.766 263.3 121.971 263.3 122.214C263.3 122.457 263.216 122.662 263.048 122.83C262.889 122.998 262.693 123.082 262.46 123.082ZM263.076 124.328V132H261.802V124.328H263.076ZM268.985 124.188C269.918 124.188 270.674 124.473 271.253 125.042C271.832 125.602 272.121 126.414 272.121 127.478V132H270.861V127.66C270.861 126.895 270.67 126.311 270.287 125.91C269.904 125.499 269.382 125.294 268.719 125.294C268.047 125.294 267.51 125.504 267.109 125.924C266.717 126.344 266.521 126.955 266.521 127.758V132H265.247V124.328H266.521V125.42C266.773 125.028 267.114 124.725 267.543 124.51C267.982 124.295 268.462 124.188 268.985 124.188ZM281.202 127.87C281.202 128.113 281.188 128.369 281.16 128.64H275.028C275.075 129.396 275.331 129.989 275.798 130.418C276.274 130.838 276.848 131.048 277.52 131.048C278.071 131.048 278.528 130.922 278.892 130.67C279.265 130.409 279.527 130.063 279.676 129.634H281.048C280.843 130.371 280.432 130.973 279.816 131.44C279.2 131.897 278.435 132.126 277.52 132.126C276.792 132.126 276.139 131.963 275.56 131.636C274.991 131.309 274.543 130.847 274.216 130.25C273.889 129.643 273.726 128.943 273.726 128.15C273.726 127.357 273.885 126.661 274.202 126.064C274.519 125.467 274.963 125.009 275.532 124.692C276.111 124.365 276.773 124.202 277.52 124.202C278.248 124.202 278.892 124.361 279.452 124.678C280.012 124.995 280.441 125.434 280.74 125.994C281.048 126.545 281.202 127.17 281.202 127.87ZM279.886 127.604C279.886 127.119 279.779 126.703 279.564 126.358C279.349 126.003 279.055 125.737 278.682 125.56C278.318 125.373 277.912 125.28 277.464 125.28C276.82 125.28 276.269 125.485 275.812 125.896C275.364 126.307 275.107 126.876 275.042 127.604H279.886Z" fill="#11172C"/>
<defs>
<filter id="filter0_d_550_12601" x="92" y="110" width="106" height="36" filterUnits="userSpaceOnUse" color-interpolation-filters="sRGB">
<feFlood flood-opacity="0" result="BackgroundImageFix"/>
<feColorMatrix in="SourceAlpha" type="matrix" values="0 0 0 0 0 0 0 0 0 0 0 0 0 0 0 0 0 0 127 0" result="hardAlpha"/>
<feOffset dy="1"/>
<feGaussianBlur stdDeviation="1"/>
<feComposite in2="hardAlpha" operator="out"/>
<feColorMatrix type="matrix" values="0 0 0 0 0 0 0 0 0 0 0 0 0 0 0 0 0 0 0.15 0"/>
<feBlend mode="normal" in2="BackgroundImageFix" result="effect1_dropShadow_550_12601"/>
<feBlend mode="normal" in="SourceGraphic" in2="effect1_dropShadow_550_12601" result="shape"/>
</filter>
</defs>
</svg>
