<svg width="418" height="353" viewBox="0 0 418 353" fill="none" xmlns="http://www.w3.org/2000/svg">
<rect x="2" y="2" width="414" height="349" rx="12" fill="white" stroke="#E2E4EB" stroke-opacity="0.7" stroke-width="3"/>
<path d="M75 150L133.5 205L199 274L257 205L315.5 232.5L387.5 154.5" stroke="#73BFF7"/>
<path opacity="0.5" fill-rule="evenodd" clip-rule="evenodd" d="M398 115H56.9882V116.391H398V115ZM398 291.609H56.9882V293H398V291.609ZM398 258.234H56.9882V257.234H398V258.234ZM56.9882 222.078H398V221.078H56.9882V222.078ZM398 187.312H56.9882V186.312H398V187.312ZM56.9882 151.156H398V150.156H56.9882V151.156Z" fill="#E2E4EB"/>
<circle cx="73.6908" cy="150" r="6" fill="#B9DFFB"/>
<path d="M32.0962 225.113V224.423L35.6062 219.563H36.6962V224.323H37.6962V225.113H36.6962V226.723H35.7962V225.113H32.0962ZM35.8362 220.513L33.1462 224.323H35.8362V220.513ZM38.6053 223.033C38.6053 221.887 38.7919 220.993 39.1653 220.353C39.5386 219.707 40.1919 219.383 41.1253 219.383C42.0519 219.383 42.7019 219.707 43.0753 220.353C43.4486 220.993 43.6353 221.887 43.6353 223.033C43.6353 224.2 43.4486 225.107 43.0753 225.753C42.7019 226.4 42.0519 226.723 41.1253 226.723C40.1919 226.723 39.5386 226.4 39.1653 225.753C38.7919 225.107 38.6053 224.2 38.6053 223.033ZM42.7353 223.033C42.7353 222.453 42.6953 221.963 42.6153 221.563C42.5419 221.157 42.3853 220.83 42.1453 220.583C41.9119 220.337 41.5719 220.213 41.1253 220.213C40.6719 220.213 40.3253 220.337 40.0853 220.583C39.8519 220.83 39.6953 221.157 39.6153 221.563C39.5419 221.963 39.5053 222.453 39.5053 223.033C39.5053 223.633 39.5419 224.137 39.6153 224.543C39.6953 224.95 39.8519 225.277 40.0853 225.523C40.3253 225.77 40.6719 225.893 41.1253 225.893C41.5719 225.893 41.9119 225.77 42.1453 225.523C42.3853 225.277 42.5419 224.95 42.6153 224.543C42.6953 224.137 42.7353 223.633 42.7353 223.033ZM44.6846 221.123C44.6846 220.67 44.8212 220.31 45.0946 220.043C45.3679 219.77 45.7179 219.633 46.1446 219.633C46.5712 219.633 46.9212 219.77 47.1946 220.043C47.4679 220.31 47.6046 220.67 47.6046 221.123C47.6046 221.583 47.4679 221.95 47.1946 222.223C46.9212 222.49 46.5712 222.623 46.1446 222.623C45.7179 222.623 45.3679 222.49 45.0946 222.223C44.8212 221.95 44.6846 221.583 44.6846 221.123ZM50.5246 219.743L46.4746 226.723H45.5746L49.6246 219.743H50.5246ZM46.1446 220.193C45.9179 220.193 45.7379 220.273 45.6046 220.433C45.4779 220.587 45.4146 220.817 45.4146 221.123C45.4146 221.43 45.4779 221.663 45.6046 221.823C45.7379 221.983 45.9179 222.063 46.1446 222.063C46.3712 222.063 46.5512 221.983 46.6846 221.823C46.8179 221.657 46.8846 221.423 46.8846 221.123C46.8846 220.817 46.8179 220.587 46.6846 220.433C46.5512 220.273 46.3712 220.193 46.1446 220.193ZM48.5146 225.343C48.5146 224.883 48.6512 224.52 48.9246 224.253C49.1979 223.98 49.5479 223.843 49.9746 223.843C50.4012 223.843 50.7479 223.98 51.0146 224.253C51.2879 224.52 51.4246 224.883 51.4246 225.343C51.4246 225.797 51.2879 226.16 51.0146 226.433C50.7479 226.707 50.4012 226.843 49.9746 226.843C49.5479 226.843 49.1979 226.71 48.9246 226.443C48.6512 226.17 48.5146 225.803 48.5146 225.343ZM49.9646 224.413C49.7379 224.413 49.5579 224.493 49.4246 224.653C49.2912 224.807 49.2246 225.037 49.2246 225.343C49.2246 225.643 49.2912 225.873 49.4246 226.033C49.5579 226.187 49.7379 226.263 49.9646 226.263C50.1912 226.263 50.3712 226.187 50.5046 226.033C50.6379 225.873 50.7046 225.643 50.7046 225.343C50.7046 225.037 50.6379 224.807 50.5046 224.653C50.3712 224.493 50.1912 224.413 49.9646 224.413Z" fill="#424B66"/>
<path d="M37.7346 185.469C37.5879 184.729 37.1313 184.359 36.3646 184.359C35.7713 184.359 35.3279 184.589 35.0346 185.049C34.7413 185.502 34.5979 186.252 34.6046 187.299C34.7579 186.952 35.0113 186.682 35.3646 186.489C35.7246 186.289 36.1246 186.189 36.5646 186.189C37.2513 186.189 37.7979 186.402 38.2046 186.829C38.6179 187.255 38.8246 187.845 38.8246 188.599C38.8246 189.052 38.7346 189.459 38.5546 189.819C38.3813 190.179 38.1146 190.465 37.7546 190.679C37.4013 190.892 36.9713 190.999 36.4646 190.999C35.7779 190.999 35.2413 190.845 34.8546 190.539C34.4679 190.232 34.1979 189.809 34.0446 189.269C33.8913 188.729 33.8146 188.062 33.8146 187.269C33.8146 184.822 34.6679 183.599 36.3746 183.599C37.0279 183.599 37.5413 183.775 37.9146 184.129C38.2879 184.482 38.5079 184.929 38.5746 185.469H37.7346ZM36.3746 186.959C36.0879 186.959 35.8179 187.019 35.5646 187.139C35.3113 187.252 35.1046 187.429 34.9446 187.669C34.7913 187.902 34.7146 188.189 34.7146 188.529C34.7146 189.035 34.8613 189.449 35.1546 189.769C35.4479 190.082 35.8679 190.239 36.4146 190.239C36.8813 190.239 37.2513 190.095 37.5246 189.809C37.8046 189.515 37.9446 189.122 37.9446 188.629C37.9446 188.109 37.8113 187.702 37.5446 187.409C37.2779 187.109 36.8879 186.959 36.3746 186.959ZM40.0522 187.289C40.0522 186.142 40.2389 185.249 40.6122 184.609C40.9856 183.962 41.6389 183.639 42.5722 183.639C43.4989 183.639 44.1489 183.962 44.5222 184.609C44.8956 185.249 45.0822 186.142 45.0822 187.289C45.0822 188.455 44.8956 189.362 44.5222 190.009C44.1489 190.655 43.4989 190.979 42.5722 190.979C41.6389 190.979 40.9856 190.655 40.6122 190.009C40.2389 189.362 40.0522 188.455 40.0522 187.289ZM44.1822 187.289C44.1822 186.709 44.1422 186.219 44.0622 185.819C43.9889 185.412 43.8322 185.085 43.5922 184.839C43.3589 184.592 43.0189 184.469 42.5722 184.469C42.1189 184.469 41.7722 184.592 41.5322 184.839C41.2989 185.085 41.1422 185.412 41.0622 185.819C40.9889 186.219 40.9522 186.709 40.9522 187.289C40.9522 187.889 40.9889 188.392 41.0622 188.799C41.1422 189.205 41.2989 189.532 41.5322 189.779C41.7722 190.025 42.1189 190.149 42.5722 190.149C43.0189 190.149 43.3589 190.025 43.5922 189.779C43.8322 189.532 43.9889 189.205 44.0622 188.799C44.1422 188.392 44.1822 187.889 44.1822 187.289ZM46.1315 185.379C46.1315 184.925 46.2682 184.565 46.5415 184.299C46.8149 184.025 47.1649 183.889 47.5915 183.889C48.0182 183.889 48.3682 184.025 48.6415 184.299C48.9149 184.565 49.0515 184.925 49.0515 185.379C49.0515 185.839 48.9149 186.205 48.6415 186.479C48.3682 186.745 48.0182 186.879 47.5915 186.879C47.1649 186.879 46.8149 186.745 46.5415 186.479C46.2682 186.205 46.1315 185.839 46.1315 185.379ZM51.9715 183.999L47.9215 190.979H47.0215L51.0715 183.999H51.9715ZM47.5915 184.449C47.3649 184.449 47.1849 184.529 47.0515 184.689C46.9249 184.842 46.8615 185.072 46.8615 185.379C46.8615 185.685 46.9249 185.919 47.0515 186.079C47.1849 186.239 47.3649 186.319 47.5915 186.319C47.8182 186.319 47.9982 186.239 48.1315 186.079C48.2649 185.912 48.3315 185.679 48.3315 185.379C48.3315 185.072 48.2649 184.842 48.1315 184.689C47.9982 184.529 47.8182 184.449 47.5915 184.449ZM49.9615 189.599C49.9615 189.139 50.0982 188.775 50.3715 188.509C50.6449 188.235 50.9949 188.099 51.4215 188.099C51.8482 188.099 52.1949 188.235 52.4615 188.509C52.7349 188.775 52.8715 189.139 52.8715 189.599C52.8715 190.052 52.7349 190.415 52.4615 190.689C52.1949 190.962 51.8482 191.099 51.4215 191.099C50.9949 191.099 50.6449 190.965 50.3715 190.699C50.0982 190.425 49.9615 190.059 49.9615 189.599ZM51.4115 188.669C51.1849 188.669 51.0049 188.749 50.8715 188.909C50.7382 189.062 50.6715 189.292 50.6715 189.599C50.6715 189.899 50.7382 190.129 50.8715 190.289C51.0049 190.442 51.1849 190.519 51.4115 190.519C51.6382 190.519 51.8182 190.442 51.9515 190.289C52.0849 190.129 52.1515 189.899 52.1515 189.599C52.1515 189.292 52.0849 189.062 51.9515 188.909C51.8182 188.749 51.6382 188.669 51.4115 188.669Z" fill="#424B66"/>
<path d="M35.0437 150.199C34.6704 150.052 34.3837 149.839 34.1837 149.559C33.9837 149.279 33.8837 148.939 33.8837 148.539C33.8837 148.179 33.9737 147.856 34.1537 147.569C34.3337 147.276 34.6004 147.046 34.9537 146.879C35.3137 146.706 35.7471 146.619 36.2537 146.619C36.7604 146.619 37.1904 146.706 37.5437 146.879C37.9037 147.046 38.1737 147.276 38.3537 147.569C38.5404 147.856 38.6337 148.179 38.6337 148.539C38.6337 148.926 38.5304 149.266 38.3237 149.559C38.1171 149.846 37.8337 150.059 37.4737 150.199C37.8871 150.326 38.2137 150.549 38.4537 150.869C38.7004 151.182 38.8237 151.562 38.8237 152.009C38.8237 152.442 38.7171 152.822 38.5037 153.149C38.2904 153.469 37.9871 153.719 37.5937 153.899C37.2071 154.072 36.7604 154.159 36.2537 154.159C35.7471 154.159 35.3004 154.072 34.9137 153.899C34.5337 153.719 34.2371 153.469 34.0237 153.149C33.8104 152.822 33.7037 152.442 33.7037 152.009C33.7037 151.562 33.8237 151.179 34.0637 150.859C34.3037 150.539 34.6304 150.319 35.0437 150.199ZM37.7537 148.649C37.7537 148.242 37.6204 147.929 37.3537 147.709C37.0871 147.489 36.7204 147.379 36.2537 147.379C35.7937 147.379 35.4304 147.489 35.1637 147.709C34.8971 147.929 34.7637 148.246 34.7637 148.659C34.7637 149.032 34.9004 149.332 35.1737 149.559C35.4537 149.786 35.8137 149.899 36.2537 149.899C36.7004 149.899 37.0604 149.786 37.3337 149.559C37.6137 149.326 37.7537 149.022 37.7537 148.649ZM36.2537 150.599C35.7604 150.599 35.3571 150.716 35.0437 150.949C34.7304 151.176 34.5737 151.519 34.5737 151.979C34.5737 152.406 34.7237 152.749 35.0237 153.009C35.3304 153.269 35.7404 153.399 36.2537 153.399C36.7671 153.399 37.1737 153.269 37.4737 153.009C37.7737 152.749 37.9237 152.406 37.9237 151.979C37.9237 151.532 37.7704 151.192 37.4637 150.959C37.1571 150.719 36.7537 150.599 36.2537 150.599ZM40.0323 150.269C40.0323 149.122 40.219 148.229 40.5923 147.589C40.9657 146.942 41.619 146.619 42.5523 146.619C43.479 146.619 44.129 146.942 44.5023 147.589C44.8757 148.229 45.0623 149.122 45.0623 150.269C45.0623 151.436 44.8757 152.342 44.5023 152.989C44.129 153.636 43.479 153.959 42.5523 153.959C41.619 153.959 40.9657 153.636 40.5923 152.989C40.219 152.342 40.0323 151.436 40.0323 150.269ZM44.1623 150.269C44.1623 149.689 44.1223 149.199 44.0423 148.799C43.969 148.392 43.8123 148.066 43.5723 147.819C43.339 147.572 42.999 147.449 42.5523 147.449C42.099 147.449 41.7523 147.572 41.5123 147.819C41.279 148.066 41.1223 148.392 41.0423 148.799C40.969 149.199 40.9323 149.689 40.9323 150.269C40.9323 150.869 40.969 151.372 41.0423 151.779C41.1223 152.186 41.279 152.512 41.5123 152.759C41.7523 153.006 42.099 153.129 42.5523 153.129C42.999 153.129 43.339 153.006 43.5723 152.759C43.8123 152.512 43.969 152.186 44.0423 151.779C44.1223 151.372 44.1623 150.869 44.1623 150.269ZM46.1116 148.359C46.1116 147.906 46.2483 147.546 46.5216 147.279C46.7949 147.006 47.1449 146.869 47.5716 146.869C47.9983 146.869 48.3483 147.006 48.6216 147.279C48.8949 147.546 49.0316 147.906 49.0316 148.359C49.0316 148.819 48.8949 149.186 48.6216 149.459C48.3483 149.726 47.9983 149.859 47.5716 149.859C47.1449 149.859 46.7949 149.726 46.5216 149.459C46.2483 149.186 46.1116 148.819 46.1116 148.359ZM51.9516 146.979L47.9016 153.959H47.0016L51.0516 146.979H51.9516ZM47.5716 147.429C47.3449 147.429 47.1649 147.509 47.0316 147.669C46.9049 147.822 46.8416 148.052 46.8416 148.359C46.8416 148.666 46.9049 148.899 47.0316 149.059C47.1649 149.219 47.3449 149.299 47.5716 149.299C47.7983 149.299 47.9783 149.219 48.1116 149.059C48.2449 148.892 48.3116 148.659 48.3116 148.359C48.3116 148.052 48.2449 147.822 48.1116 147.669C47.9783 147.509 47.7983 147.429 47.5716 147.429ZM49.9416 152.579C49.9416 152.119 50.0783 151.756 50.3516 151.489C50.6249 151.216 50.9749 151.079 51.4016 151.079C51.8283 151.079 52.1749 151.216 52.4416 151.489C52.7149 151.756 52.8516 152.119 52.8516 152.579C52.8516 153.032 52.7149 153.396 52.4416 153.669C52.1749 153.942 51.8283 154.079 51.4016 154.079C50.9749 154.079 50.6249 153.946 50.3516 153.679C50.0783 153.406 49.9416 153.039 49.9416 152.579ZM51.3916 151.649C51.1649 151.649 50.9849 151.729 50.8516 151.889C50.7183 152.042 50.6516 152.272 50.6516 152.579C50.6516 152.879 50.7183 153.109 50.8516 153.269C50.9849 153.422 51.1649 153.499 51.3916 153.499C51.6183 153.499 51.7983 153.422 51.9316 153.269C52.0649 153.109 52.1316 152.879 52.1316 152.579C52.1316 152.272 52.0649 152.042 51.9316 151.889C51.7983 151.729 51.6183 151.649 51.3916 151.649Z" fill="#424B66"/>
<path d="M31.4792 113.038V112.208H33.3592V119.438H32.4392V113.038H31.4792ZM34.9223 115.748C34.9223 114.602 35.109 113.708 35.4823 113.068C35.8556 112.422 36.509 112.098 37.4423 112.098C38.369 112.098 39.019 112.422 39.3923 113.068C39.7656 113.708 39.9523 114.602 39.9523 115.748C39.9523 116.915 39.7656 117.822 39.3923 118.468C39.019 119.115 38.369 119.438 37.4423 119.438C36.509 119.438 35.8556 119.115 35.4823 118.468C35.109 117.822 34.9223 116.915 34.9223 115.748ZM39.0523 115.748C39.0523 115.168 39.0123 114.678 38.9323 114.278C38.859 113.872 38.7023 113.545 38.4623 113.298C38.229 113.052 37.889 112.928 37.4423 112.928C36.989 112.928 36.6423 113.052 36.4023 113.298C36.169 113.545 36.0123 113.872 35.9323 114.278C35.859 114.678 35.8223 115.168 35.8223 115.748C35.8223 116.348 35.859 116.852 35.9323 117.258C36.0123 117.665 36.169 117.992 36.4023 118.238C36.6423 118.485 36.989 118.608 37.4423 118.608C37.889 118.608 38.229 118.485 38.4623 118.238C38.7023 117.992 38.859 117.665 38.9323 117.258C39.0123 116.852 39.0523 116.348 39.0523 115.748ZM41.2016 115.748C41.2016 114.602 41.3883 113.708 41.7616 113.068C42.1349 112.422 42.7883 112.098 43.7216 112.098C44.6483 112.098 45.2983 112.422 45.6716 113.068C46.0449 113.708 46.2316 114.602 46.2316 115.748C46.2316 116.915 46.0449 117.822 45.6716 118.468C45.2983 119.115 44.6483 119.438 43.7216 119.438C42.7883 119.438 42.1349 119.115 41.7616 118.468C41.3883 117.822 41.2016 116.915 41.2016 115.748ZM45.3316 115.748C45.3316 115.168 45.2916 114.678 45.2116 114.278C45.1383 113.872 44.9816 113.545 44.7416 113.298C44.5083 113.052 44.1683 112.928 43.7216 112.928C43.2683 112.928 42.9216 113.052 42.6816 113.298C42.4483 113.545 42.2916 113.872 42.2116 114.278C42.1383 114.678 42.1016 115.168 42.1016 115.748C42.1016 116.348 42.1383 116.852 42.2116 117.258C42.2916 117.665 42.4483 117.992 42.6816 118.238C42.9216 118.485 43.2683 118.608 43.7216 118.608C44.1683 118.608 44.5083 118.485 44.7416 118.238C44.9816 117.992 45.1383 117.665 45.2116 117.258C45.2916 116.852 45.3316 116.348 45.3316 115.748ZM47.2809 113.838C47.2809 113.385 47.4176 113.025 47.6909 112.758C47.9642 112.485 48.3142 112.348 48.7409 112.348C49.1676 112.348 49.5176 112.485 49.7909 112.758C50.0642 113.025 50.2009 113.385 50.2009 113.838C50.2009 114.298 50.0642 114.665 49.7909 114.938C49.5176 115.205 49.1676 115.338 48.7409 115.338C48.3142 115.338 47.9642 115.205 47.6909 114.938C47.4176 114.665 47.2809 114.298 47.2809 113.838ZM53.1209 112.458L49.0709 119.438H48.1709L52.2209 112.458H53.1209ZM48.7409 112.908C48.5142 112.908 48.3342 112.988 48.2009 113.148C48.0742 113.302 48.0109 113.532 48.0109 113.838C48.0109 114.145 48.0742 114.378 48.2009 114.538C48.3342 114.698 48.5142 114.778 48.7409 114.778C48.9676 114.778 49.1476 114.698 49.2809 114.538C49.4142 114.372 49.4809 114.138 49.4809 113.838C49.4809 113.532 49.4142 113.302 49.2809 113.148C49.1476 112.988 48.9676 112.908 48.7409 112.908ZM51.1109 118.058C51.1109 117.598 51.2476 117.235 51.5209 116.968C51.7942 116.695 52.1442 116.558 52.5709 116.558C52.9976 116.558 53.3442 116.695 53.6109 116.968C53.8842 117.235 54.0209 117.598 54.0209 118.058C54.0209 118.512 53.8842 118.875 53.6109 119.148C53.3442 119.422 52.9976 119.558 52.5709 119.558C52.1442 119.558 51.7942 119.425 51.5209 119.158C51.2476 118.885 51.1109 118.518 51.1109 118.058ZM52.5609 117.128C52.3342 117.128 52.1542 117.208 52.0209 117.368C51.8876 117.522 51.8209 117.752 51.8209 118.058C51.8209 118.358 51.8876 118.588 52.0209 118.748C52.1542 118.902 52.3342 118.978 52.5609 118.978C52.7876 118.978 52.9676 118.902 53.1009 118.748C53.2342 118.588 53.3009 118.358 53.3009 118.058C53.3009 117.752 53.2342 117.522 53.1009 117.368C52.9676 117.208 52.7876 117.128 52.5609 117.128Z" fill="#424B66"/>
<path d="M45.3248 294.523C45.3248 293.376 45.5115 292.483 45.8848 291.843C46.2582 291.196 46.9115 290.873 47.8448 290.873C48.7715 290.873 49.4215 291.196 49.7948 291.843C50.1682 292.483 50.3548 293.376 50.3548 294.523C50.3548 295.689 50.1682 296.596 49.7948 297.243C49.4215 297.889 48.7715 298.213 47.8448 298.213C46.9115 298.213 46.2582 297.889 45.8848 297.243C45.5115 296.596 45.3248 295.689 45.3248 294.523ZM49.4548 294.523C49.4548 293.943 49.4148 293.453 49.3348 293.053C49.2615 292.646 49.1048 292.319 48.8648 292.073C48.6315 291.826 48.2915 291.703 47.8448 291.703C47.3915 291.703 47.0448 291.826 46.8048 292.073C46.5715 292.319 46.4148 292.646 46.3348 293.053C46.2615 293.453 46.2248 293.943 46.2248 294.523C46.2248 295.123 46.2615 295.626 46.3348 296.033C46.4148 296.439 46.5715 296.766 46.8048 297.013C47.0448 297.259 47.3915 297.383 47.8448 297.383C48.2915 297.383 48.6315 297.259 48.8648 297.013C49.1048 296.766 49.2615 296.439 49.3348 296.033C49.4148 295.626 49.4548 295.123 49.4548 294.523Z" fill="#424B66"/>
<path d="M31.8181 261.106C32.6648 260.426 33.3281 259.869 33.8081 259.436C34.2881 258.996 34.6915 258.539 35.0181 258.066C35.3515 257.586 35.5181 257.116 35.5181 256.656C35.5181 256.222 35.4115 255.882 35.1981 255.636C34.9915 255.382 34.6548 255.256 34.1881 255.256C33.7348 255.256 33.3815 255.399 33.1281 255.686C32.8815 255.966 32.7481 256.342 32.7281 256.816H31.8481C31.8748 256.069 32.1015 255.492 32.5281 255.086C32.9548 254.679 33.5048 254.476 34.1781 254.476C34.8648 254.476 35.4081 254.666 35.8081 255.046C36.2148 255.426 36.4181 255.949 36.4181 256.616C36.4181 257.169 36.2515 257.709 35.9181 258.236C35.5915 258.756 35.2181 259.216 34.7981 259.616C34.3781 260.009 33.8415 260.469 33.1881 260.996H36.6281V261.756H31.8181V261.106ZM37.6801 258.146C37.6801 256.999 37.8668 256.106 38.2401 255.466C38.6134 254.819 39.2668 254.496 40.2001 254.496C41.1268 254.496 41.7768 254.819 42.1501 255.466C42.5234 256.106 42.7101 256.999 42.7101 258.146C42.7101 259.312 42.5234 260.219 42.1501 260.866C41.7768 261.512 41.1268 261.836 40.2001 261.836C39.2668 261.836 38.6134 261.512 38.2401 260.866C37.8668 260.219 37.6801 259.312 37.6801 258.146ZM41.8101 258.146C41.8101 257.566 41.7701 257.076 41.6901 256.676C41.6168 256.269 41.4601 255.942 41.2201 255.696C40.9868 255.449 40.6468 255.326 40.2001 255.326C39.7468 255.326 39.4001 255.449 39.1601 255.696C38.9268 255.942 38.7701 256.269 38.6901 256.676C38.6168 257.076 38.5801 257.566 38.5801 258.146C38.5801 258.746 38.6168 259.249 38.6901 259.656C38.7701 260.062 38.9268 260.389 39.1601 260.636C39.4001 260.882 39.7468 261.006 40.2001 261.006C40.6468 261.006 40.9868 260.882 41.2201 260.636C41.4601 260.389 41.6168 260.062 41.6901 259.656C41.7701 259.249 41.8101 258.746 41.8101 258.146ZM43.7594 256.236C43.7594 255.782 43.8961 255.422 44.1694 255.156C44.4427 254.882 44.7927 254.746 45.2194 254.746C45.6461 254.746 45.9961 254.882 46.2694 255.156C46.5427 255.422 46.6794 255.782 46.6794 256.236C46.6794 256.696 46.5427 257.062 46.2694 257.336C45.9961 257.602 45.6461 257.736 45.2194 257.736C44.7927 257.736 44.4427 257.602 44.1694 257.336C43.8961 257.062 43.7594 256.696 43.7594 256.236ZM49.5994 254.856L45.5494 261.836H44.6494L48.6994 254.856H49.5994ZM45.2194 255.306C44.9927 255.306 44.8127 255.386 44.6794 255.546C44.5527 255.699 44.4894 255.929 44.4894 256.236C44.4894 256.542 44.5527 256.776 44.6794 256.936C44.8127 257.096 44.9927 257.176 45.2194 257.176C45.4461 257.176 45.6261 257.096 45.7594 256.936C45.8927 256.769 45.9594 256.536 45.9594 256.236C45.9594 255.929 45.8927 255.699 45.7594 255.546C45.6261 255.386 45.4461 255.306 45.2194 255.306ZM47.5894 260.456C47.5894 259.996 47.7261 259.632 47.9994 259.366C48.2727 259.092 48.6227 258.956 49.0494 258.956C49.4761 258.956 49.8227 259.092 50.0894 259.366C50.3627 259.632 50.4994 259.996 50.4994 260.456C50.4994 260.909 50.3627 261.272 50.0894 261.546C49.8227 261.819 49.4761 261.956 49.0494 261.956C48.6227 261.956 48.2727 261.822 47.9994 261.556C47.7261 261.282 47.5894 260.916 47.5894 260.456ZM49.0394 259.526C48.8127 259.526 48.6327 259.606 48.4994 259.766C48.3661 259.919 48.2994 260.149 48.2994 260.456C48.2994 260.756 48.3661 260.986 48.4994 261.146C48.6327 261.299 48.8127 261.376 49.0394 261.376C49.2661 261.376 49.4461 261.299 49.5794 261.146C49.7127 260.986 49.7794 260.756 49.7794 260.456C49.7794 260.149 49.7127 259.919 49.5794 259.766C49.4461 259.606 49.2661 259.526 49.0394 259.526Z" fill="#424B66"/>
<path d="M60.0033 312.764C60.0033 311.732 60.1713 310.928 60.5073 310.352C60.8433 309.77 61.4313 309.479 62.2713 309.479C63.1053 309.479 63.6903 309.77 64.0263 310.352C64.3623 310.928 64.5303 311.732 64.5303 312.764C64.5303 313.814 64.3623 314.63 64.0263 315.212C63.6903 315.794 63.1053 316.085 62.2713 316.085C61.4313 316.085 60.8433 315.794 60.5073 315.212C60.1713 314.63 60.0033 313.814 60.0033 312.764ZM63.7203 312.764C63.7203 312.242 63.6843 311.801 63.6123 311.441C63.5463 311.075 63.4053 310.781 63.1893 310.559C62.9793 310.337 62.6733 310.226 62.2713 310.226C61.8633 310.226 61.5513 310.337 61.3353 310.559C61.1253 310.781 60.9843 311.075 60.9123 311.441C60.8463 311.801 60.8133 312.242 60.8133 312.764C60.8133 313.304 60.8463 313.757 60.9123 314.123C60.9843 314.489 61.1253 314.783 61.3353 315.005C61.5513 315.227 61.8633 315.338 62.2713 315.338C62.6733 315.338 62.9793 315.227 63.1893 315.005C63.4053 314.783 63.5463 314.489 63.6123 314.123C63.6843 313.757 63.7203 313.304 63.7203 312.764ZM65.4387 310.325V309.578H67.1307V316.085H66.3027V310.325H65.4387ZM74.7799 314.69H72.0439L71.5399 316.085H70.6759L72.9439 309.848H73.8889L76.1479 316.085H75.2839L74.7799 314.69ZM74.5459 314.024L73.4119 310.856L72.2779 314.024H74.5459ZM81.5104 311.153V316.085H80.6914V315.356C80.5354 315.608 80.3164 315.806 80.0344 315.95C79.7584 316.088 79.4524 316.157 79.1164 316.157C78.7324 316.157 78.3874 316.079 78.0814 315.923C77.7754 315.761 77.5324 315.521 77.3524 315.203C77.1784 314.885 77.0914 314.498 77.0914 314.042V311.153H77.9014V313.934C77.9014 314.42 78.0244 314.795 78.2704 315.059C78.5164 315.317 78.8524 315.446 79.2784 315.446C79.7164 315.446 80.0614 315.311 80.3134 315.041C80.5654 314.771 80.6914 314.378 80.6914 313.862V311.153H81.5104ZM84.9272 311.072C85.3532 311.072 85.7252 311.165 86.0432 311.351C86.3672 311.537 86.6072 311.771 86.7632 312.053V311.153H87.5912V316.193C87.5912 316.643 87.4952 317.042 87.3032 317.39C87.1112 317.744 86.8352 318.02 86.4752 318.218C86.1212 318.416 85.7072 318.515 85.2332 318.515C84.5852 318.515 84.0452 318.362 83.6132 318.056C83.1812 317.75 82.9262 317.333 82.8482 316.805H83.6582C83.7482 317.105 83.9342 317.345 84.2162 317.525C84.4982 317.711 84.8372 317.804 85.2332 317.804C85.6832 317.804 86.0492 317.663 86.3312 317.381C86.6192 317.099 86.7632 316.703 86.7632 316.193V315.158C86.6012 315.446 86.3612 315.686 86.0432 315.878C85.7252 316.07 85.3532 316.166 84.9272 316.166C84.4892 316.166 84.0902 316.058 83.7302 315.842C83.3762 315.626 83.0972 315.323 82.8932 314.933C82.6892 314.543 82.5872 314.099 82.5872 313.601C82.5872 313.097 82.6892 312.656 82.8932 312.278C83.0972 311.894 83.3762 311.597 83.7302 311.387C84.0902 311.177 84.4892 311.072 84.9272 311.072ZM86.7632 313.61C86.7632 313.238 86.6882 312.914 86.5382 312.638C86.3882 312.362 86.1842 312.152 85.9262 312.008C85.6742 311.858 85.3952 311.783 85.0892 311.783C84.7832 311.783 84.5042 311.855 84.2522 311.999C84.0002 312.143 83.7992 312.353 83.6492 312.629C83.4992 312.905 83.4242 313.229 83.4242 313.601C83.4242 313.979 83.4992 314.309 83.6492 314.591C83.7992 314.867 84.0002 315.08 84.2522 315.23C84.5042 315.374 84.7832 315.446 85.0892 315.446C85.3952 315.446 85.6742 315.374 85.9262 315.23C86.1842 315.08 86.3882 314.867 86.5382 314.591C86.6882 314.309 86.7632 313.982 86.7632 313.61ZM91.1406 315.428C91.9026 314.816 92.4996 314.315 92.9316 313.925C93.3636 313.529 93.7266 313.118 94.0206 312.692C94.3206 312.26 94.4706 311.837 94.4706 311.423C94.4706 311.033 94.3746 310.727 94.1826 310.505C93.9966 310.277 93.6936 310.163 93.2736 310.163C92.8656 310.163 92.5476 310.292 92.3196 310.55C92.0976 310.802 91.9776 311.141 91.9596 311.567H91.1676C91.1916 310.895 91.3956 310.376 91.7796 310.01C92.1636 309.644 92.6586 309.461 93.2646 309.461C93.8826 309.461 94.3716 309.632 94.7316 309.974C95.0976 310.316 95.2806 310.787 95.2806 311.387C95.2806 311.885 95.1306 312.371 94.8306 312.845C94.5366 313.313 94.2006 313.727 93.8226 314.087C93.4446 314.441 92.9616 314.855 92.3736 315.329H95.4696V316.013H91.1406V315.428ZM96.3984 311.216C96.4404 310.664 96.6534 310.232 97.0374 309.92C97.4214 309.608 97.9194 309.452 98.5314 309.452C98.9394 309.452 99.2904 309.527 99.5844 309.677C99.8844 309.821 100.109 310.019 100.259 310.271C100.415 310.523 100.493 310.808 100.493 311.126C100.493 311.498 100.385 311.819 100.169 312.089C99.9594 312.359 99.6834 312.533 99.3414 312.611V312.656C99.7314 312.752 100.04 312.941 100.268 313.223C100.496 313.505 100.61 313.874 100.61 314.33C100.61 314.672 100.532 314.981 100.376 315.257C100.22 315.527 99.9864 315.74 99.6744 315.896C99.3624 316.052 98.9874 316.13 98.5494 316.13C97.9134 316.13 97.3914 315.965 96.9834 315.635C96.5754 315.299 96.3474 314.825 96.2994 314.213H97.0914C97.1334 314.573 97.2804 314.867 97.5324 315.095C97.7844 315.323 98.1204 315.437 98.5404 315.437C98.9604 315.437 99.2784 315.329 99.4944 315.113C99.7164 314.891 99.8274 314.606 99.8274 314.258C99.8274 313.808 99.6774 313.484 99.3774 313.286C99.0774 313.088 98.6244 312.989 98.0184 312.989H97.8114V312.305H98.0274C98.5794 312.299 98.9964 312.209 99.2784 312.035C99.5604 311.855 99.7014 311.579 99.7014 311.207C99.7014 310.889 99.5964 310.634 99.3864 310.442C99.1824 310.25 98.8884 310.154 98.5044 310.154C98.1324 310.154 97.8324 310.25 97.6044 310.442C97.3764 310.634 97.2414 310.892 97.1994 311.216H96.3984Z" fill="#878B9E"/>
<rect x="115.041" y="305.085" width="48" height="16" rx="2" fill="#424B66"/>
<path d="M117.583 312.764C117.583 311.732 117.751 310.928 118.087 310.352C118.423 309.77 119.011 309.479 119.851 309.479C120.685 309.479 121.27 309.77 121.606 310.352C121.942 310.928 122.11 311.732 122.11 312.764C122.11 313.814 121.942 314.63 121.606 315.212C121.27 315.794 120.685 316.085 119.851 316.085C119.011 316.085 118.423 315.794 118.087 315.212C117.751 314.63 117.583 313.814 117.583 312.764ZM121.3 312.764C121.3 312.242 121.264 311.801 121.192 311.441C121.126 311.075 120.985 310.781 120.769 310.559C120.559 310.337 120.253 310.226 119.851 310.226C119.443 310.226 119.131 310.337 118.915 310.559C118.705 310.781 118.564 311.075 118.492 311.441C118.426 311.801 118.393 312.242 118.393 312.764C118.393 313.304 118.426 313.757 118.492 314.123C118.564 314.489 118.705 314.783 118.915 315.005C119.131 315.227 119.443 315.338 119.851 315.338C120.253 315.338 120.559 315.227 120.769 315.005C120.985 314.783 121.126 314.489 121.192 314.123C121.264 313.757 121.3 313.304 121.3 312.764ZM123.018 310.325V309.578H124.71V316.085H123.882V310.325H123.018ZM130.64 316.148C130.226 316.148 129.854 316.076 129.524 315.932C129.2 315.782 128.945 315.578 128.759 315.32C128.573 315.056 128.477 314.753 128.471 314.411H129.344C129.374 314.705 129.494 314.954 129.704 315.158C129.92 315.356 130.232 315.455 130.64 315.455C131.03 315.455 131.336 315.359 131.558 315.167C131.786 314.969 131.9 314.717 131.9 314.411C131.9 314.171 131.834 313.976 131.702 313.826C131.57 313.676 131.405 313.562 131.207 313.484C131.009 313.406 130.742 313.322 130.406 313.232C129.992 313.124 129.659 313.016 129.407 312.908C129.161 312.8 128.948 312.632 128.768 312.404C128.594 312.17 128.507 311.858 128.507 311.468C128.507 311.126 128.594 310.823 128.768 310.559C128.942 310.295 129.185 310.091 129.497 309.947C129.815 309.803 130.178 309.731 130.586 309.731C131.174 309.731 131.654 309.878 132.026 310.172C132.404 310.466 132.617 310.856 132.665 311.342H131.765C131.735 311.102 131.609 310.892 131.387 310.712C131.165 310.526 130.871 310.433 130.505 310.433C130.163 310.433 129.884 310.523 129.668 310.703C129.452 310.877 129.344 311.123 129.344 311.441C129.344 311.669 129.407 311.855 129.533 311.999C129.665 312.143 129.824 312.254 130.01 312.332C130.202 312.404 130.469 312.488 130.811 312.584C131.225 312.698 131.558 312.812 131.81 312.926C132.062 313.034 132.278 313.205 132.458 313.439C132.638 313.667 132.728 313.979 132.728 314.375C132.728 314.681 132.647 314.969 132.485 315.239C132.323 315.509 132.083 315.728 131.765 315.896C131.447 316.064 131.072 316.148 130.64 316.148ZM138.434 313.43C138.434 313.586 138.425 313.751 138.407 313.925H134.465C134.495 314.411 134.66 314.792 134.96 315.068C135.266 315.338 135.635 315.473 136.067 315.473C136.421 315.473 136.715 315.392 136.949 315.23C137.189 315.062 137.357 314.84 137.453 314.564H138.335C138.203 315.038 137.939 315.425 137.543 315.725C137.147 316.019 136.655 316.166 136.067 316.166C135.599 316.166 135.179 316.061 134.807 315.851C134.441 315.641 134.153 315.344 133.943 314.96C133.733 314.57 133.628 314.12 133.628 313.61C133.628 313.1 133.73 312.653 133.934 312.269C134.138 311.885 134.423 311.591 134.789 311.387C135.161 311.177 135.587 311.072 136.067 311.072C136.535 311.072 136.949 311.174 137.309 311.378C137.669 311.582 137.945 311.864 138.137 312.224C138.335 312.578 138.434 312.98 138.434 313.43ZM137.588 313.259C137.588 312.947 137.519 312.68 137.381 312.458C137.243 312.23 137.054 312.059 136.814 311.945C136.58 311.825 136.319 311.765 136.031 311.765C135.617 311.765 135.263 311.897 134.969 312.161C134.681 312.425 134.516 312.791 134.474 313.259H137.588ZM140.334 312.062C140.496 311.78 140.736 311.546 141.054 311.36C141.378 311.168 141.753 311.072 142.179 311.072C142.617 311.072 143.013 311.177 143.367 311.387C143.727 311.597 144.009 311.894 144.213 312.278C144.417 312.656 144.519 313.097 144.519 313.601C144.519 314.099 144.417 314.543 144.213 314.933C144.009 315.323 143.727 315.626 143.367 315.842C143.013 316.058 142.617 316.166 142.179 316.166C141.759 316.166 141.387 316.073 141.063 315.887C140.745 315.695 140.502 315.458 140.334 315.176V318.425H139.515V311.153H140.334V312.062ZM143.682 313.601C143.682 313.229 143.607 312.905 143.457 312.629C143.307 312.353 143.103 312.143 142.845 311.999C142.593 311.855 142.314 311.783 142.008 311.783C141.708 311.783 141.429 311.858 141.171 312.008C140.919 312.152 140.715 312.365 140.559 312.647C140.409 312.923 140.334 313.244 140.334 313.61C140.334 313.982 140.409 314.309 140.559 314.591C140.715 314.867 140.919 315.08 141.171 315.23C141.429 315.374 141.708 315.446 142.008 315.446C142.314 315.446 142.593 315.374 142.845 315.23C143.103 315.08 143.307 314.867 143.457 314.591C143.607 314.309 143.682 313.979 143.682 313.601ZM146.596 311.828V314.735C146.596 314.975 146.647 315.146 146.749 315.248C146.851 315.344 147.028 315.392 147.28 315.392H147.883V316.085H147.145C146.689 316.085 146.347 315.98 146.119 315.77C145.891 315.56 145.777 315.215 145.777 314.735V311.828H145.138V311.153H145.777V309.911H146.596V311.153H147.883V311.828H146.596ZM151.04 315.428C151.802 314.816 152.399 314.315 152.831 313.925C153.263 313.529 153.626 313.118 153.92 312.692C154.22 312.26 154.37 311.837 154.37 311.423C154.37 311.033 154.274 310.727 154.082 310.505C153.896 310.277 153.593 310.163 153.173 310.163C152.765 310.163 152.447 310.292 152.219 310.55C151.997 310.802 151.877 311.141 151.859 311.567H151.067C151.091 310.895 151.295 310.376 151.679 310.01C152.063 309.644 152.558 309.461 153.164 309.461C153.782 309.461 154.271 309.632 154.631 309.974C154.997 310.316 155.18 310.787 155.18 311.387C155.18 311.885 155.03 312.371 154.73 312.845C154.436 313.313 154.1 313.727 153.722 314.087C153.344 314.441 152.861 314.855 152.273 315.329H155.369V316.013H151.04V315.428ZM156.298 311.216C156.34 310.664 156.553 310.232 156.937 309.92C157.321 309.608 157.819 309.452 158.431 309.452C158.839 309.452 159.19 309.527 159.484 309.677C159.784 309.821 160.009 310.019 160.159 310.271C160.315 310.523 160.393 310.808 160.393 311.126C160.393 311.498 160.285 311.819 160.069 312.089C159.859 312.359 159.583 312.533 159.241 312.611V312.656C159.631 312.752 159.94 312.941 160.168 313.223C160.396 313.505 160.51 313.874 160.51 314.33C160.51 314.672 160.432 314.981 160.276 315.257C160.12 315.527 159.886 315.74 159.574 315.896C159.262 316.052 158.887 316.13 158.449 316.13C157.813 316.13 157.291 315.965 156.883 315.635C156.475 315.299 156.247 314.825 156.199 314.213H156.991C157.033 314.573 157.18 314.867 157.432 315.095C157.684 315.323 158.02 315.437 158.44 315.437C158.86 315.437 159.178 315.329 159.394 315.113C159.616 314.891 159.727 314.606 159.727 314.258C159.727 313.808 159.577 313.484 159.277 313.286C158.977 313.088 158.524 312.989 157.918 312.989H157.711V312.305H157.927C158.479 312.299 158.896 312.209 159.178 312.035C159.46 311.855 159.601 311.579 159.601 311.207C159.601 310.889 159.496 310.634 159.286 310.442C159.082 310.25 158.788 310.154 158.404 310.154C158.032 310.154 157.732 310.25 157.504 310.442C157.276 310.634 157.141 310.892 157.099 311.216H156.298Z" fill="white"/>
<path d="M178.524 312.764C178.524 311.732 178.692 310.928 179.028 310.352C179.364 309.77 179.952 309.479 180.792 309.479C181.626 309.479 182.211 309.77 182.547 310.352C182.883 310.928 183.051 311.732 183.051 312.764C183.051 313.814 182.883 314.63 182.547 315.212C182.211 315.794 181.626 316.085 180.792 316.085C179.952 316.085 179.364 315.794 179.028 315.212C178.692 314.63 178.524 313.814 178.524 312.764ZM182.241 312.764C182.241 312.242 182.205 311.801 182.133 311.441C182.067 311.075 181.926 310.781 181.71 310.559C181.5 310.337 181.194 310.226 180.792 310.226C180.384 310.226 180.072 310.337 179.856 310.559C179.646 310.781 179.505 311.075 179.433 311.441C179.367 311.801 179.334 312.242 179.334 312.764C179.334 313.304 179.367 313.757 179.433 314.123C179.505 314.489 179.646 314.783 179.856 315.005C180.072 315.227 180.384 315.338 180.792 315.338C181.194 315.338 181.5 315.227 181.71 315.005C181.926 314.783 182.067 314.489 182.133 314.123C182.205 313.757 182.241 313.304 182.241 312.764ZM183.959 310.325V309.578H185.651V316.085H184.823V310.325H183.959ZM192.437 316.148C191.855 316.148 191.324 316.013 190.844 315.743C190.364 315.467 189.983 315.086 189.701 314.6C189.425 314.108 189.287 313.556 189.287 312.944C189.287 312.332 189.425 311.783 189.701 311.297C189.983 310.805 190.364 310.424 190.844 310.154C191.324 309.878 191.855 309.74 192.437 309.74C193.025 309.74 193.559 309.878 194.039 310.154C194.519 310.424 194.897 310.802 195.173 311.288C195.449 311.774 195.587 312.326 195.587 312.944C195.587 313.562 195.449 314.114 195.173 314.6C194.897 315.086 194.519 315.467 194.039 315.743C193.559 316.013 193.025 316.148 192.437 316.148ZM192.437 315.437C192.875 315.437 193.268 315.335 193.616 315.131C193.97 314.927 194.246 314.636 194.444 314.258C194.648 313.88 194.75 313.442 194.75 312.944C194.75 312.44 194.648 312.002 194.444 311.63C194.246 311.252 193.973 310.961 193.625 310.757C193.277 310.553 192.881 310.451 192.437 310.451C191.993 310.451 191.597 310.553 191.249 310.757C190.901 310.961 190.625 311.252 190.421 311.63C190.223 312.002 190.124 312.44 190.124 312.944C190.124 313.442 190.223 313.88 190.421 314.258C190.625 314.636 190.901 314.927 191.249 315.131C191.603 315.335 191.999 315.437 192.437 315.437ZM196.362 313.61C196.362 313.1 196.464 312.656 196.668 312.278C196.872 311.894 197.154 311.597 197.514 311.387C197.88 311.177 198.297 311.072 198.765 311.072C199.371 311.072 199.869 311.219 200.259 311.513C200.655 311.807 200.916 312.215 201.042 312.737H200.16C200.076 312.437 199.911 312.2 199.665 312.026C199.425 311.852 199.125 311.765 198.765 311.765C198.297 311.765 197.919 311.927 197.631 312.251C197.343 312.569 197.199 313.022 197.199 313.61C197.199 314.204 197.343 314.663 197.631 314.987C197.919 315.311 198.297 315.473 198.765 315.473C199.125 315.473 199.425 315.389 199.665 315.221C199.905 315.053 200.07 314.813 200.16 314.501H201.042C200.91 315.005 200.646 315.41 200.25 315.716C199.854 316.016 199.359 316.166 198.765 316.166C198.297 316.166 197.88 316.061 197.514 315.851C197.154 315.641 196.872 315.344 196.668 314.96C196.464 314.576 196.362 314.126 196.362 313.61ZM203.134 311.828V314.735C203.134 314.975 203.185 315.146 203.287 315.248C203.389 315.344 203.566 315.392 203.818 315.392H204.421V316.085H203.683C203.227 316.085 202.885 315.98 202.657 315.77C202.429 315.56 202.315 315.215 202.315 314.735V311.828H201.676V311.153H202.315V309.911H203.134V311.153H204.421V311.828H203.134ZM207.578 315.428C208.34 314.816 208.937 314.315 209.369 313.925C209.801 313.529 210.164 313.118 210.458 312.692C210.758 312.26 210.908 311.837 210.908 311.423C210.908 311.033 210.812 310.727 210.62 310.505C210.434 310.277 210.131 310.163 209.711 310.163C209.303 310.163 208.985 310.292 208.757 310.55C208.535 310.802 208.415 311.141 208.397 311.567H207.605C207.629 310.895 207.833 310.376 208.217 310.01C208.601 309.644 209.096 309.461 209.702 309.461C210.32 309.461 210.809 309.632 211.169 309.974C211.535 310.316 211.718 310.787 211.718 311.387C211.718 311.885 211.568 312.371 211.268 312.845C210.974 313.313 210.638 313.727 210.26 314.087C209.882 314.441 209.399 314.855 208.811 315.329H211.907V316.013H207.578V315.428ZM212.836 311.216C212.878 310.664 213.091 310.232 213.475 309.92C213.859 309.608 214.357 309.452 214.969 309.452C215.377 309.452 215.728 309.527 216.022 309.677C216.322 309.821 216.547 310.019 216.697 310.271C216.853 310.523 216.931 310.808 216.931 311.126C216.931 311.498 216.823 311.819 216.607 312.089C216.397 312.359 216.121 312.533 215.779 312.611V312.656C216.169 312.752 216.478 312.941 216.706 313.223C216.934 313.505 217.048 313.874 217.048 314.33C217.048 314.672 216.97 314.981 216.814 315.257C216.658 315.527 216.424 315.74 216.112 315.896C215.8 316.052 215.425 316.13 214.987 316.13C214.351 316.13 213.829 315.965 213.421 315.635C213.013 315.299 212.785 314.825 212.737 314.213H213.529C213.571 314.573 213.718 314.867 213.97 315.095C214.222 315.323 214.558 315.437 214.978 315.437C215.398 315.437 215.716 315.329 215.932 315.113C216.154 314.891 216.265 314.606 216.265 314.258C216.265 313.808 216.115 313.484 215.815 313.286C215.515 313.088 215.062 312.989 214.456 312.989H214.249V312.305H214.465C215.017 312.299 215.434 312.209 215.716 312.035C215.998 311.855 216.139 311.579 216.139 311.207C216.139 310.889 216.034 310.634 215.824 310.442C215.62 310.25 215.326 310.154 214.942 310.154C214.57 310.154 214.27 310.25 214.042 310.442C213.814 310.634 213.679 310.892 213.637 311.216H212.836Z" fill="#878B9E"/>
<path d="M236.609 312.764C236.609 311.732 236.777 310.928 237.113 310.352C237.449 309.77 238.037 309.479 238.877 309.479C239.711 309.479 240.296 309.77 240.632 310.352C240.968 310.928 241.136 311.732 241.136 312.764C241.136 313.814 240.968 314.63 240.632 315.212C240.296 315.794 239.711 316.085 238.877 316.085C238.037 316.085 237.449 315.794 237.113 315.212C236.777 314.63 236.609 313.814 236.609 312.764ZM240.326 312.764C240.326 312.242 240.29 311.801 240.218 311.441C240.152 311.075 240.011 310.781 239.795 310.559C239.585 310.337 239.279 310.226 238.877 310.226C238.469 310.226 238.157 310.337 237.941 310.559C237.731 310.781 237.59 311.075 237.518 311.441C237.452 311.801 237.419 312.242 237.419 312.764C237.419 313.304 237.452 313.757 237.518 314.123C237.59 314.489 237.731 314.783 237.941 315.005C238.157 315.227 238.469 315.338 238.877 315.338C239.279 315.338 239.585 315.227 239.795 315.005C240.011 314.783 240.152 314.489 240.218 314.123C240.29 313.757 240.326 313.304 240.326 312.764ZM242.044 310.325V309.578H243.736V316.085H242.908V310.325H242.044ZM252.609 316.085H251.79L248.496 311.09V316.085H247.677V309.803H248.496L251.79 314.789V309.803H252.609V316.085ZM256.157 316.166C255.695 316.166 255.275 316.061 254.897 315.851C254.525 315.641 254.231 315.344 254.015 314.96C253.805 314.57 253.7 314.12 253.7 313.61C253.7 313.106 253.808 312.662 254.024 312.278C254.246 311.888 254.546 311.591 254.924 311.387C255.302 311.177 255.725 311.072 256.193 311.072C256.661 311.072 257.084 311.177 257.462 311.387C257.84 311.591 258.137 311.885 258.353 312.269C258.575 312.653 258.686 313.1 258.686 313.61C258.686 314.12 258.572 314.57 258.344 314.96C258.122 315.344 257.819 315.641 257.435 315.851C257.051 316.061 256.625 316.166 256.157 316.166ZM256.157 315.446C256.451 315.446 256.727 315.377 256.985 315.239C257.243 315.101 257.45 314.894 257.606 314.618C257.768 314.342 257.849 314.006 257.849 313.61C257.849 313.214 257.771 312.878 257.615 312.602C257.459 312.326 257.255 312.122 257.003 311.99C256.751 311.852 256.478 311.783 256.184 311.783C255.884 311.783 255.608 311.852 255.356 311.99C255.11 312.122 254.912 312.326 254.762 312.602C254.612 312.878 254.537 313.214 254.537 313.61C254.537 314.012 254.609 314.351 254.753 314.627C254.903 314.903 255.101 315.11 255.347 315.248C255.593 315.38 255.863 315.446 256.157 315.446ZM261.598 315.329L263.128 311.153H264.001L262.066 316.085H261.112L259.177 311.153H260.059L261.598 315.329ZM266.973 315.428C267.735 314.816 268.332 314.315 268.764 313.925C269.196 313.529 269.559 313.118 269.853 312.692C270.153 312.26 270.303 311.837 270.303 311.423C270.303 311.033 270.207 310.727 270.015 310.505C269.829 310.277 269.526 310.163 269.106 310.163C268.698 310.163 268.38 310.292 268.152 310.55C267.93 310.802 267.81 311.141 267.792 311.567H267C267.024 310.895 267.228 310.376 267.612 310.01C267.996 309.644 268.491 309.461 269.097 309.461C269.715 309.461 270.204 309.632 270.564 309.974C270.93 310.316 271.113 310.787 271.113 311.387C271.113 311.885 270.963 312.371 270.663 312.845C270.369 313.313 270.033 313.727 269.655 314.087C269.277 314.441 268.794 314.855 268.206 315.329H271.302V316.013H266.973V315.428ZM272.231 311.216C272.273 310.664 272.486 310.232 272.87 309.92C273.254 309.608 273.752 309.452 274.364 309.452C274.772 309.452 275.123 309.527 275.417 309.677C275.717 309.821 275.942 310.019 276.092 310.271C276.248 310.523 276.326 310.808 276.326 311.126C276.326 311.498 276.218 311.819 276.002 312.089C275.792 312.359 275.516 312.533 275.174 312.611V312.656C275.564 312.752 275.873 312.941 276.101 313.223C276.329 313.505 276.443 313.874 276.443 314.33C276.443 314.672 276.365 314.981 276.209 315.257C276.053 315.527 275.819 315.74 275.507 315.896C275.195 316.052 274.82 316.13 274.382 316.13C273.746 316.13 273.224 315.965 272.816 315.635C272.408 315.299 272.18 314.825 272.132 314.213H272.924C272.966 314.573 273.113 314.867 273.365 315.095C273.617 315.323 273.953 315.437 274.373 315.437C274.793 315.437 275.111 315.329 275.327 315.113C275.549 314.891 275.66 314.606 275.66 314.258C275.66 313.808 275.51 313.484 275.21 313.286C274.91 313.088 274.457 312.989 273.851 312.989H273.644V312.305H273.86C274.412 312.299 274.829 312.209 275.111 312.035C275.393 311.855 275.534 311.579 275.534 311.207C275.534 310.889 275.429 310.634 275.219 310.442C275.015 310.25 274.721 310.154 274.337 310.154C273.965 310.154 273.665 310.25 273.437 310.442C273.209 310.634 273.074 310.892 273.032 311.216H272.231Z" fill="#878B9E"/>
<path d="M295.208 312.764C295.208 311.732 295.376 310.928 295.712 310.352C296.048 309.77 296.636 309.479 297.476 309.479C298.31 309.479 298.895 309.77 299.231 310.352C299.567 310.928 299.735 311.732 299.735 312.764C299.735 313.814 299.567 314.63 299.231 315.212C298.895 315.794 298.31 316.085 297.476 316.085C296.636 316.085 296.048 315.794 295.712 315.212C295.376 314.63 295.208 313.814 295.208 312.764ZM298.925 312.764C298.925 312.242 298.889 311.801 298.817 311.441C298.751 311.075 298.61 310.781 298.394 310.559C298.184 310.337 297.878 310.226 297.476 310.226C297.068 310.226 296.756 310.337 296.54 310.559C296.33 310.781 296.189 311.075 296.117 311.441C296.051 311.801 296.018 312.242 296.018 312.764C296.018 313.304 296.051 313.757 296.117 314.123C296.189 314.489 296.33 314.783 296.54 315.005C296.756 315.227 297.068 315.338 297.476 315.338C297.878 315.338 298.184 315.227 298.394 315.005C298.61 314.783 298.751 314.489 298.817 314.123C298.889 313.757 298.925 313.304 298.925 312.764ZM300.643 310.325V309.578H302.335V316.085H301.507V310.325H300.643ZM308.229 309.812C308.913 309.812 309.504 309.941 310.002 310.199C310.506 310.451 310.89 310.814 311.154 311.288C311.424 311.762 311.559 312.32 311.559 312.962C311.559 313.604 311.424 314.162 311.154 314.636C310.89 315.104 310.506 315.464 310.002 315.716C309.504 315.962 308.913 316.085 308.229 316.085H306.276V309.812H308.229ZM308.229 315.41C309.039 315.41 309.657 315.197 310.083 314.771C310.509 314.339 310.722 313.736 310.722 312.962C310.722 312.182 310.506 311.573 310.074 311.135C309.648 310.697 309.033 310.478 308.229 310.478H307.095V315.41H308.229ZM317.14 313.43C317.14 313.586 317.131 313.751 317.113 313.925H313.171C313.201 314.411 313.366 314.792 313.666 315.068C313.972 315.338 314.341 315.473 314.773 315.473C315.127 315.473 315.421 315.392 315.655 315.23C315.895 315.062 316.063 314.84 316.159 314.564H317.041C316.909 315.038 316.645 315.425 316.249 315.725C315.853 316.019 315.361 316.166 314.773 316.166C314.305 316.166 313.885 316.061 313.513 315.851C313.147 315.641 312.859 315.344 312.649 314.96C312.439 314.57 312.334 314.12 312.334 313.61C312.334 313.1 312.436 312.653 312.64 312.269C312.844 311.885 313.129 311.591 313.495 311.387C313.867 311.177 314.293 311.072 314.773 311.072C315.241 311.072 315.655 311.174 316.015 311.378C316.375 311.582 316.651 311.864 316.843 312.224C317.041 312.578 317.14 312.98 317.14 313.43ZM316.294 313.259C316.294 312.947 316.225 312.68 316.087 312.458C315.949 312.23 315.76 312.059 315.52 311.945C315.286 311.825 315.025 311.765 314.737 311.765C314.323 311.765 313.969 311.897 313.675 312.161C313.387 312.425 313.222 312.791 313.18 313.259H316.294ZM317.915 313.61C317.915 313.1 318.017 312.656 318.221 312.278C318.425 311.894 318.707 311.597 319.067 311.387C319.433 311.177 319.85 311.072 320.318 311.072C320.924 311.072 321.422 311.219 321.812 311.513C322.208 311.807 322.469 312.215 322.595 312.737H321.713C321.629 312.437 321.464 312.2 321.218 312.026C320.978 311.852 320.678 311.765 320.318 311.765C319.85 311.765 319.472 311.927 319.184 312.251C318.896 312.569 318.752 313.022 318.752 313.61C318.752 314.204 318.896 314.663 319.184 314.987C319.472 315.311 319.85 315.473 320.318 315.473C320.678 315.473 320.978 315.389 321.218 315.221C321.458 315.053 321.623 314.813 321.713 314.501H322.595C322.463 315.005 322.199 315.41 321.803 315.716C321.407 316.016 320.912 316.166 320.318 316.166C319.85 316.166 319.433 316.061 319.067 315.851C318.707 315.641 318.425 315.344 318.221 314.96C318.017 314.576 317.915 314.126 317.915 313.61ZM325.853 315.428C326.615 314.816 327.212 314.315 327.644 313.925C328.076 313.529 328.439 313.118 328.733 312.692C329.033 312.26 329.183 311.837 329.183 311.423C329.183 311.033 329.087 310.727 328.895 310.505C328.709 310.277 328.406 310.163 327.986 310.163C327.578 310.163 327.26 310.292 327.032 310.55C326.81 310.802 326.69 311.141 326.672 311.567H325.88C325.904 310.895 326.108 310.376 326.492 310.01C326.876 309.644 327.371 309.461 327.977 309.461C328.595 309.461 329.084 309.632 329.444 309.974C329.81 310.316 329.993 310.787 329.993 311.387C329.993 311.885 329.843 312.371 329.543 312.845C329.249 313.313 328.913 313.727 328.535 314.087C328.157 314.441 327.674 314.855 327.086 315.329H330.182V316.013H325.853V315.428ZM331.111 311.216C331.153 310.664 331.366 310.232 331.75 309.92C332.134 309.608 332.632 309.452 333.244 309.452C333.652 309.452 334.003 309.527 334.297 309.677C334.597 309.821 334.822 310.019 334.972 310.271C335.128 310.523 335.206 310.808 335.206 311.126C335.206 311.498 335.098 311.819 334.882 312.089C334.672 312.359 334.396 312.533 334.054 312.611V312.656C334.444 312.752 334.753 312.941 334.981 313.223C335.209 313.505 335.323 313.874 335.323 314.33C335.323 314.672 335.245 314.981 335.089 315.257C334.933 315.527 334.699 315.74 334.387 315.896C334.075 316.052 333.7 316.13 333.262 316.13C332.626 316.13 332.104 315.965 331.696 315.635C331.288 315.299 331.06 314.825 331.012 314.213H331.804C331.846 314.573 331.993 314.867 332.245 315.095C332.497 315.323 332.833 315.437 333.253 315.437C333.673 315.437 333.991 315.329 334.207 315.113C334.429 314.891 334.54 314.606 334.54 314.258C334.54 313.808 334.39 313.484 334.09 313.286C333.79 313.088 333.337 312.989 332.731 312.989H332.524V312.305H332.74C333.292 312.299 333.709 312.209 333.991 312.035C334.273 311.855 334.414 311.579 334.414 311.207C334.414 310.889 334.309 310.634 334.099 310.442C333.895 310.25 333.601 310.154 333.217 310.154C332.845 310.154 332.545 310.25 332.317 310.442C332.089 310.634 331.954 310.892 331.912 311.216H331.111Z" fill="#878B9E"/>
<path d="M354.167 312.764C354.167 311.732 354.335 310.928 354.671 310.352C355.007 309.77 355.595 309.479 356.435 309.479C357.269 309.479 357.854 309.77 358.19 310.352C358.526 310.928 358.694 311.732 358.694 312.764C358.694 313.814 358.526 314.63 358.19 315.212C357.854 315.794 357.269 316.085 356.435 316.085C355.595 316.085 355.007 315.794 354.671 315.212C354.335 314.63 354.167 313.814 354.167 312.764ZM357.884 312.764C357.884 312.242 357.848 311.801 357.776 311.441C357.71 311.075 357.569 310.781 357.353 310.559C357.143 310.337 356.837 310.226 356.435 310.226C356.027 310.226 355.715 310.337 355.499 310.559C355.289 310.781 355.148 311.075 355.076 311.441C355.01 311.801 354.977 312.242 354.977 312.764C354.977 313.304 355.01 313.757 355.076 314.123C355.148 314.489 355.289 314.783 355.499 315.005C355.715 315.227 356.027 315.338 356.435 315.338C356.837 315.338 357.143 315.227 357.353 315.005C357.569 314.783 357.71 314.489 357.776 314.123C357.848 313.757 357.884 313.304 357.884 312.764ZM359.603 310.325V309.578H361.295V316.085H360.467V310.325H359.603ZM368.395 309.812V314.447C368.395 314.963 368.236 315.377 367.918 315.689C367.6 315.995 367.18 316.148 366.658 316.148C366.13 316.148 365.707 315.992 365.389 315.68C365.071 315.362 364.912 314.93 364.912 314.384H365.731C365.737 314.69 365.815 314.939 365.965 315.131C366.121 315.323 366.352 315.419 366.658 315.419C366.964 315.419 367.192 315.329 367.342 315.149C367.492 314.963 367.567 314.729 367.567 314.447V309.812H368.395ZM369.702 313.601C369.702 313.097 369.804 312.656 370.008 312.278C370.212 311.894 370.491 311.597 370.845 311.387C371.205 311.177 371.604 311.072 372.042 311.072C372.474 311.072 372.849 311.165 373.167 311.351C373.485 311.537 373.722 311.771 373.878 312.053V311.153H374.706V316.085H373.878V315.167C373.716 315.455 373.473 315.695 373.149 315.887C372.831 316.073 372.459 316.166 372.033 316.166C371.595 316.166 371.199 316.058 370.845 315.842C370.491 315.626 370.212 315.323 370.008 314.933C369.804 314.543 369.702 314.099 369.702 313.601ZM373.878 313.61C373.878 313.238 373.803 312.914 373.653 312.638C373.503 312.362 373.299 312.152 373.041 312.008C372.789 311.858 372.51 311.783 372.204 311.783C371.898 311.783 371.619 311.855 371.367 311.999C371.115 312.143 370.914 312.353 370.764 312.629C370.614 312.905 370.539 313.229 370.539 313.601C370.539 313.979 370.614 314.309 370.764 314.591C370.914 314.867 371.115 315.08 371.367 315.23C371.619 315.374 371.898 315.446 372.204 315.446C372.51 315.446 372.789 315.374 373.041 315.23C373.299 315.08 373.503 314.867 373.653 314.591C373.803 314.309 373.878 313.982 373.878 313.61ZM378.493 311.063C379.093 311.063 379.579 311.246 379.951 311.612C380.323 311.972 380.509 312.494 380.509 313.178V316.085H379.699V313.295C379.699 312.803 379.576 312.428 379.33 312.17C379.084 311.906 378.748 311.774 378.322 311.774C377.89 311.774 377.545 311.909 377.287 312.179C377.035 312.449 376.909 312.842 376.909 313.358V316.085H376.09V311.153H376.909V311.855C377.071 311.603 377.29 311.408 377.566 311.27C377.848 311.132 378.157 311.063 378.493 311.063ZM384.013 315.428C384.775 314.816 385.372 314.315 385.804 313.925C386.236 313.529 386.599 313.118 386.893 312.692C387.193 312.26 387.343 311.837 387.343 311.423C387.343 311.033 387.247 310.727 387.055 310.505C386.869 310.277 386.566 310.163 386.146 310.163C385.738 310.163 385.42 310.292 385.192 310.55C384.97 310.802 384.85 311.141 384.832 311.567H384.04C384.064 310.895 384.268 310.376 384.652 310.01C385.036 309.644 385.531 309.461 386.137 309.461C386.755 309.461 387.244 309.632 387.604 309.974C387.97 310.316 388.153 310.787 388.153 311.387C388.153 311.885 388.003 312.371 387.703 312.845C387.409 313.313 387.073 313.727 386.695 314.087C386.317 314.441 385.834 314.855 385.246 315.329H388.342V316.013H384.013V315.428ZM389.09 314.636V314.015L392.249 309.641H393.23V313.925H394.13V314.636H393.23V316.085H392.42V314.636H389.09ZM392.456 310.496L390.035 313.925H392.456V310.496Z" fill="#878B9E"/>
<circle cx="137" cy="208" r="7" fill="#0683DE" stroke="#B9DFFB" stroke-width="2"/>
<circle cx="198" cy="268" r="6" fill="#B9DFFB"/>
<circle cx="387" cy="154" r="6" fill="#B9DFFB"/>
<circle cx="315" cy="232" r="6" fill="#B9DFFB"/>
<circle cx="257" cy="204" r="6" fill="#B9DFFB"/>
<rect x="20" y="21" width="378" height="48" rx="4" fill="#E2E4EB" fill-opacity="0.4"/>
<path d="M45.826 42.806C45.826 43.4407 45.673 44.0357 45.367 44.591C45.0723 45.1463 44.602 45.594 43.956 45.934C43.3213 46.274 42.5167 46.444 41.542 46.444H39.553V51H37.173V39.134H41.542C42.46 39.134 43.242 39.2927 43.888 39.61C44.534 39.9273 45.0157 40.3637 45.333 40.919C45.6617 41.4743 45.826 42.1033 45.826 42.806ZM41.44 44.523C42.0973 44.523 42.5847 44.3757 42.902 44.081C43.2193 43.775 43.378 43.35 43.378 42.806C43.378 41.65 42.732 41.072 41.44 41.072H39.553V44.523H41.44ZM49.8958 43.044C50.2018 42.5453 50.5984 42.1543 51.0858 41.871C51.5844 41.5877 52.1511 41.446 52.7858 41.446V43.945H52.1568C51.4088 43.945 50.8421 44.1207 50.4568 44.472C50.0828 44.8233 49.8958 45.4353 49.8958 46.308V51H47.5158V41.582H49.8958V43.044ZM58.5708 51.153C57.6642 51.153 56.8482 50.9547 56.1228 50.558C55.3975 50.15 54.8252 49.5777 54.4058 48.841C53.9978 48.1043 53.7938 47.2543 53.7938 46.291C53.7938 45.3277 54.0035 44.4777 54.4228 43.741C54.8535 43.0043 55.4372 42.4377 56.1738 42.041C56.9105 41.633 57.7322 41.429 58.6388 41.429C59.5455 41.429 60.3672 41.633 61.1038 42.041C61.8405 42.4377 62.4185 43.0043 62.8378 43.741C63.2685 44.4777 63.4838 45.3277 63.4838 46.291C63.4838 47.2543 63.2628 48.1043 62.8208 48.841C62.3902 49.5777 61.8008 50.15 61.0528 50.558C60.3162 50.9547 59.4888 51.153 58.5708 51.153ZM58.5708 49.079C59.0015 49.079 59.4038 48.977 59.7778 48.773C60.1632 48.5577 60.4692 48.2403 60.6958 47.821C60.9225 47.4017 61.0358 46.8917 61.0358 46.291C61.0358 45.3957 60.7978 44.71 60.3218 44.234C59.8572 43.7467 59.2848 43.503 58.6048 43.503C57.9248 43.503 57.3525 43.7467 56.8878 44.234C56.4345 44.71 56.2078 45.3957 56.2078 46.291C56.2078 47.1863 56.4288 47.8777 56.8708 48.365C57.3242 48.841 57.8908 49.079 58.5708 49.079ZM66.4366 40.46C66.006 40.46 65.649 40.3297 65.3656 40.069C65.0936 39.797 64.9576 39.4627 64.9576 39.066C64.9576 38.6693 65.0936 38.3407 65.3656 38.08C65.649 37.808 66.006 37.672 66.4366 37.672C66.856 37.672 67.2016 37.808 67.4736 38.08C67.7456 38.3407 67.8816 38.6693 67.8816 39.066C67.8816 39.4627 67.7456 39.797 67.4736 40.069C67.2016 40.3297 66.856 40.46 66.4366 40.46ZM67.6096 52.547C67.6096 53.5897 67.349 54.3377 66.8276 54.791C66.3176 55.2557 65.581 55.488 64.6176 55.488H63.5636V53.465H64.2436C64.6063 53.465 64.8613 53.3913 65.0086 53.244C65.156 53.108 65.2296 52.8813 65.2296 52.564V41.582H67.6096V52.547ZM78.7161 46.087C78.7161 46.427 78.6934 46.733 78.6481 47.005H71.7631C71.8198 47.685 72.0578 48.2177 72.4771 48.603C72.8964 48.9883 73.4121 49.181 74.0241 49.181C74.9081 49.181 75.5371 48.8013 75.9111 48.042H78.4781C78.2061 48.9487 77.6848 49.6967 76.9141 50.286C76.1434 50.864 75.1971 51.153 74.0751 51.153C73.1684 51.153 72.3524 50.9547 71.6271 50.558C70.9131 50.15 70.3521 49.5777 69.9441 48.841C69.5474 48.1043 69.3491 47.2543 69.3491 46.291C69.3491 45.3163 69.5474 44.4607 69.9441 43.724C70.3408 42.9873 70.8961 42.4207 71.6101 42.024C72.3241 41.6273 73.1458 41.429 74.0751 41.429C74.9704 41.429 75.7694 41.6217 76.4721 42.007C77.1861 42.3923 77.7358 42.942 78.1211 43.656C78.5178 44.3587 78.7161 45.169 78.7161 46.087ZM76.2511 45.407C76.2398 44.795 76.0188 44.3077 75.5881 43.945C75.1574 43.571 74.6304 43.384 74.0071 43.384C73.4178 43.384 72.9191 43.5653 72.5111 43.928C72.1144 44.2793 71.8708 44.7723 71.7801 45.407H76.2511ZM79.8413 46.291C79.8413 45.3163 80.0396 44.4663 80.4363 43.741C80.8329 43.0043 81.3826 42.4377 82.0853 42.041C82.7879 41.633 83.5926 41.429 84.4993 41.429C85.6666 41.429 86.6299 41.7237 87.3893 42.313C88.1599 42.891 88.6756 43.707 88.9363 44.761H86.3693C86.2333 44.353 86.0009 44.0357 85.6723 43.809C85.3549 43.571 84.9583 43.452 84.4823 43.452C83.8023 43.452 83.2639 43.7013 82.8673 44.2C82.4706 44.6873 82.2723 45.3843 82.2723 46.291C82.2723 47.1863 82.4706 47.8833 82.8673 48.382C83.2639 48.8693 83.8023 49.113 84.4823 49.113C85.4456 49.113 86.0746 48.6823 86.3693 47.821H88.9363C88.6756 48.841 88.1599 49.6513 87.3893 50.252C86.6186 50.8527 85.6553 51.153 84.4993 51.153C83.5926 51.153 82.7879 50.9547 82.0853 50.558C81.3826 50.15 80.8329 49.5833 80.4363 48.858C80.0396 48.1213 79.8413 47.2657 79.8413 46.291ZM93.4508 43.537V48.093C93.4508 48.4103 93.5245 48.6427 93.6718 48.79C93.8305 48.926 94.0912 48.994 94.4538 48.994H95.5588V51H94.0628C92.0568 51 91.0538 50.0253 91.0538 48.076V43.537H89.9318V41.582H91.0538V39.253H93.4508V41.582H95.5588V43.537H93.4508ZM103.701 39.134V51H101.321V39.134H103.701ZM111.272 41.446C112.394 41.446 113.301 41.803 113.992 42.517C114.683 43.2197 115.029 44.2057 115.029 45.475V51H112.649V45.798C112.649 45.05 112.462 44.4777 112.088 44.081C111.714 43.673 111.204 43.469 110.558 43.469C109.901 43.469 109.379 43.673 108.994 44.081C108.62 44.4777 108.433 45.05 108.433 45.798V51H106.053V41.582H108.433V42.755C108.75 42.347 109.153 42.0297 109.64 41.803C110.139 41.565 110.683 41.446 111.272 41.446ZM120.896 51.153C120.125 51.153 119.434 51.017 118.822 50.745C118.21 50.4617 117.723 50.082 117.36 49.606C117.009 49.13 116.816 48.603 116.782 48.025H119.179C119.224 48.3877 119.4 48.688 119.706 48.926C120.023 49.164 120.414 49.283 120.879 49.283C121.332 49.283 121.684 49.1923 121.933 49.011C122.194 48.8297 122.324 48.5973 122.324 48.314C122.324 48.008 122.165 47.7813 121.848 47.634C121.542 47.4753 121.049 47.3053 120.369 47.124C119.666 46.954 119.088 46.7783 118.635 46.597C118.193 46.4157 117.808 46.138 117.479 45.764C117.162 45.39 117.003 44.8857 117.003 44.251C117.003 43.7297 117.15 43.2537 117.445 42.823C117.751 42.3923 118.182 42.0523 118.737 41.803C119.304 41.5537 119.967 41.429 120.726 41.429C121.848 41.429 122.743 41.7123 123.412 42.279C124.081 42.8343 124.449 43.588 124.517 44.54H122.239C122.205 44.166 122.046 43.8713 121.763 43.656C121.491 43.4293 121.123 43.316 120.658 43.316C120.227 43.316 119.893 43.3953 119.655 43.554C119.428 43.7127 119.315 43.9337 119.315 44.217C119.315 44.5343 119.474 44.778 119.791 44.948C120.108 45.1067 120.601 45.271 121.27 45.441C121.95 45.611 122.511 45.7867 122.953 45.968C123.395 46.1493 123.775 46.4327 124.092 46.818C124.421 47.192 124.591 47.6907 124.602 48.314C124.602 48.858 124.449 49.3453 124.143 49.776C123.848 50.2067 123.418 50.5467 122.851 50.796C122.296 51.034 121.644 51.153 120.896 51.153ZM127.763 40.46C127.343 40.46 126.992 40.3297 126.709 40.069C126.437 39.797 126.301 39.4627 126.301 39.066C126.301 38.6693 126.437 38.3407 126.709 38.08C126.992 37.808 127.343 37.672 127.763 37.672C128.182 37.672 128.528 37.808 128.8 38.08C129.083 38.3407 129.225 38.6693 129.225 39.066C129.225 39.4627 129.083 39.797 128.8 40.069C128.528 40.3297 128.182 40.46 127.763 40.46ZM128.936 41.582V51H126.556V41.582H128.936ZM134.976 41.429C135.679 41.429 136.297 41.5707 136.829 41.854C137.362 42.126 137.781 42.483 138.087 42.925V41.582H140.484V51.068C140.484 51.9407 140.309 52.717 139.957 53.397C139.606 54.0883 139.079 54.6323 138.376 55.029C137.674 55.437 136.824 55.641 135.826 55.641C134.489 55.641 133.39 55.3293 132.528 54.706C131.678 54.0827 131.197 53.2327 131.083 52.156H133.446C133.571 52.5867 133.837 52.9267 134.245 53.176C134.665 53.4367 135.169 53.567 135.758 53.567C136.45 53.567 137.011 53.3573 137.441 52.938C137.872 52.53 138.087 51.9067 138.087 51.068V49.606C137.781 50.048 137.356 50.4163 136.812 50.711C136.28 51.0057 135.668 51.153 134.976 51.153C134.183 51.153 133.458 50.949 132.8 50.541C132.143 50.133 131.622 49.5607 131.236 48.824C130.862 48.076 130.675 47.2203 130.675 46.257C130.675 45.305 130.862 44.4607 131.236 43.724C131.622 42.9873 132.137 42.4207 132.783 42.024C133.441 41.6273 134.172 41.429 134.976 41.429ZM138.087 46.291C138.087 45.713 137.974 45.22 137.747 44.812C137.521 44.3927 137.215 44.0753 136.829 43.86C136.444 43.6333 136.03 43.52 135.588 43.52C135.146 43.52 134.738 43.6277 134.364 43.843C133.99 44.0583 133.684 44.3757 133.446 44.795C133.22 45.203 133.106 45.6903 133.106 46.257C133.106 46.8237 133.22 47.3223 133.446 47.753C133.684 48.1723 133.99 48.4953 134.364 48.722C134.75 48.9487 135.158 49.062 135.588 49.062C136.03 49.062 136.444 48.9543 136.829 48.739C137.215 48.5123 137.521 48.195 137.747 47.787C137.974 47.3677 138.087 46.869 138.087 46.291ZM148.113 41.446C148.827 41.446 149.461 41.6047 150.017 41.922C150.572 42.228 151.003 42.687 151.309 43.299C151.626 43.8997 151.785 44.625 151.785 45.475V51H149.405V45.798C149.405 45.05 149.218 44.4777 148.844 44.081C148.47 43.673 147.96 43.469 147.314 43.469C146.656 43.469 146.135 43.673 145.75 44.081C145.376 44.4777 145.189 45.05 145.189 45.798V51H142.809V38.42H145.189V42.755C145.495 42.347 145.903 42.0297 146.413 41.803C146.923 41.565 147.489 41.446 148.113 41.446ZM156.819 43.537V48.093C156.819 48.4103 156.893 48.6427 157.04 48.79C157.199 48.926 157.459 48.994 157.822 48.994H158.927V51H157.431C155.425 51 154.422 50.0253 154.422 48.076V43.537H153.3V41.582H154.422V39.253H156.819V41.582H158.927V43.537H156.819ZM164.243 51.153C163.472 51.153 162.781 51.017 162.169 50.745C161.557 50.4617 161.069 50.082 160.707 49.606C160.355 49.13 160.163 48.603 160.129 48.025H162.526C162.571 48.3877 162.747 48.688 163.053 48.926C163.37 49.164 163.761 49.283 164.226 49.283C164.679 49.283 165.03 49.1923 165.28 49.011C165.54 48.8297 165.671 48.5973 165.671 48.314C165.671 48.008 165.512 47.7813 165.195 47.634C164.889 47.4753 164.396 47.3053 163.716 47.124C163.013 46.954 162.435 46.7783 161.982 46.597C161.54 46.4157 161.154 46.138 160.826 45.764C160.508 45.39 160.35 44.8857 160.35 44.251C160.35 43.7297 160.497 43.2537 160.792 42.823C161.098 42.3923 161.528 42.0523 162.084 41.803C162.65 41.5537 163.313 41.429 164.073 41.429C165.195 41.429 166.09 41.7123 166.759 42.279C167.427 42.8343 167.796 43.588 167.864 44.54H165.586C165.552 44.166 165.393 43.8713 165.11 43.656C164.838 43.4293 164.469 43.316 164.005 43.316C163.574 43.316 163.24 43.3953 163.002 43.554C162.775 43.7127 162.662 43.9337 162.662 44.217C162.662 44.5343 162.82 44.778 163.138 44.948C163.455 45.1067 163.948 45.271 164.617 45.441C165.297 45.611 165.858 45.7867 166.3 45.968C166.742 46.1493 167.121 46.4327 167.439 46.818C167.767 47.192 167.937 47.6907 167.949 48.314C167.949 48.858 167.796 49.3453 167.49 49.776C167.195 50.2067 166.764 50.5467 166.198 50.796C165.642 51.034 164.991 51.153 164.243 51.153Z" fill="#424B66"/>
</svg>
