<svg width="204" height="74" viewBox="0 0 204 74" fill="none" xmlns="http://www.w3.org/2000/svg">
<g filter="url(#filter0_d_550_13062)">
<rect x="10" y="10" width="182" height="52" rx="8" fill="#424B66"/>
<rect x="10" y="10" width="182" height="52" rx="8" stroke="#F7F8FE"/>
<path d="M31.321 30.134C32.5677 30.134 33.6613 30.3777 34.602 30.865C35.554 31.3523 36.285 32.0493 36.795 32.956C37.3163 33.8513 37.577 34.894 37.577 36.084C37.577 37.274 37.3163 38.3167 36.795 39.212C36.285 40.096 35.554 40.7817 34.602 41.269C33.6613 41.7563 32.5677 42 31.321 42H27.173V30.134H31.321ZM31.236 39.977C32.4827 39.977 33.446 39.637 34.126 38.957C34.806 38.277 35.146 37.3193 35.146 36.084C35.146 34.8487 34.806 33.8853 34.126 33.194C33.446 32.4913 32.4827 32.14 31.236 32.14H29.553V39.977H31.236ZM48.1135 37.087C48.1135 37.427 48.0909 37.733 48.0455 38.005H41.1605C41.2172 38.685 41.4552 39.2177 41.8745 39.603C42.2939 39.9883 42.8095 40.181 43.4215 40.181C44.3055 40.181 44.9345 39.8013 45.3085 39.042H47.8755C47.6035 39.9487 47.0822 40.6967 46.3115 41.286C45.5409 41.864 44.5945 42.153 43.4725 42.153C42.5659 42.153 41.7499 41.9547 41.0245 41.558C40.3105 41.15 39.7495 40.5777 39.3415 39.841C38.9449 39.1043 38.7465 38.2543 38.7465 37.291C38.7465 36.3163 38.9449 35.4607 39.3415 34.724C39.7382 33.9873 40.2935 33.4207 41.0075 33.024C41.7215 32.6273 42.5432 32.429 43.4725 32.429C44.3679 32.429 45.1669 32.6217 45.8695 33.007C46.5835 33.3923 47.1332 33.942 47.5185 34.656C47.9152 35.3587 48.1135 36.169 48.1135 37.087ZM45.6485 36.407C45.6372 35.795 45.4162 35.3077 44.9855 34.945C44.5549 34.571 44.0279 34.384 43.4045 34.384C42.8152 34.384 42.3165 34.5653 41.9085 34.928C41.5119 35.2793 41.2682 35.7723 41.1775 36.407H45.6485ZM53.7777 39.807L56.1577 32.582H58.6907L55.2057 42H52.3157L48.8477 32.582H51.3977L53.7777 39.807ZM65.5355 42.119C64.4248 42.119 63.4048 41.8583 62.4755 41.337C61.5462 40.8157 60.8095 40.096 60.2655 39.178C59.7215 38.2487 59.4495 37.2003 59.4495 36.033C59.4495 34.877 59.7215 33.84 60.2655 32.922C60.8095 31.9927 61.5462 31.2673 62.4755 30.746C63.4048 30.2247 64.4248 29.964 65.5355 29.964C66.6575 29.964 67.6775 30.2247 68.5955 30.746C69.5248 31.2673 70.2558 31.9927 70.7885 32.922C71.3325 33.84 71.6045 34.877 71.6045 36.033C71.6045 37.2003 71.3325 38.2487 70.7885 39.178C70.2558 40.096 69.5248 40.8157 68.5955 41.337C67.6662 41.8583 66.6462 42.119 65.5355 42.119ZM65.5355 39.994C66.2495 39.994 66.8785 39.8353 67.4225 39.518C67.9665 39.1893 68.3915 38.7247 68.6975 38.124C69.0035 37.5233 69.1565 36.8263 69.1565 36.033C69.1565 35.2397 69.0035 34.5483 68.6975 33.959C68.3915 33.3583 67.9665 32.8993 67.4225 32.582C66.8785 32.2647 66.2495 32.106 65.5355 32.106C64.8215 32.106 64.1868 32.2647 63.6315 32.582C63.0875 32.8993 62.6625 33.3583 62.3565 33.959C62.0505 34.5483 61.8975 35.2397 61.8975 36.033C61.8975 36.8263 62.0505 37.5233 62.3565 38.124C62.6625 38.7247 63.0875 39.1893 63.6315 39.518C64.1868 39.8353 64.8215 39.994 65.5355 39.994ZM75.7551 33.942C76.0611 33.5113 76.4805 33.1543 77.0131 32.871C77.5571 32.5763 78.1748 32.429 78.8661 32.429C79.6708 32.429 80.3961 32.6273 81.0421 33.024C81.6995 33.4207 82.2151 33.9873 82.5891 34.724C82.9745 35.4493 83.1671 36.2937 83.1671 37.257C83.1671 38.2203 82.9745 39.076 82.5891 39.824C82.2151 40.5607 81.6995 41.133 81.0421 41.541C80.3961 41.949 79.6708 42.153 78.8661 42.153C78.1748 42.153 77.5628 42.0113 77.0301 41.728C76.5088 41.4447 76.0838 41.0877 75.7551 40.657V46.488H73.3751V32.582H75.7551V33.942ZM80.7361 37.257C80.7361 36.6903 80.6171 36.203 80.3791 35.795C80.1525 35.3757 79.8465 35.0583 79.4611 34.843C79.0871 34.6277 78.6791 34.52 78.2371 34.52C77.8065 34.52 77.3985 34.6333 77.0131 34.86C76.6391 35.0753 76.3331 35.3927 76.0951 35.812C75.8685 36.2313 75.7551 36.7243 75.7551 37.291C75.7551 37.8577 75.8685 38.3507 76.0951 38.77C76.3331 39.1893 76.6391 39.5123 77.0131 39.739C77.3985 39.9543 77.8065 40.062 78.2371 40.062C78.6791 40.062 79.0871 39.9487 79.4611 39.722C79.8465 39.4953 80.1525 39.1723 80.3791 38.753C80.6171 38.3337 80.7361 37.835 80.7361 37.257ZM88.5006 42.153C87.73 42.153 87.0386 42.017 86.4266 41.745C85.8146 41.4617 85.3273 41.082 84.9646 40.606C84.6133 40.13 84.4206 39.603 84.3866 39.025H86.7836C86.829 39.3877 87.0046 39.688 87.3106 39.926C87.628 40.164 88.019 40.283 88.4836 40.283C88.937 40.283 89.2883 40.1923 89.5376 40.011C89.7983 39.8297 89.9286 39.5973 89.9286 39.314C89.9286 39.008 89.77 38.7813 89.4526 38.634C89.1466 38.4753 88.6536 38.3053 87.9736 38.124C87.271 37.954 86.693 37.7783 86.2396 37.597C85.7976 37.4157 85.4123 37.138 85.0836 36.764C84.7663 36.39 84.6076 35.8857 84.6076 35.251C84.6076 34.7297 84.755 34.2537 85.0496 33.823C85.3556 33.3923 85.7863 33.0523 86.3416 32.803C86.9083 32.5537 87.5713 32.429 88.3306 32.429C89.4526 32.429 90.348 32.7123 91.0166 33.279C91.6853 33.8343 92.0536 34.588 92.1216 35.54H89.8436C89.8096 35.166 89.651 34.8713 89.3676 34.656C89.0956 34.4293 88.7273 34.316 88.2626 34.316C87.832 34.316 87.4976 34.3953 87.2596 34.554C87.033 34.7127 86.9196 34.9337 86.9196 35.217C86.9196 35.5343 87.0783 35.778 87.3956 35.948C87.713 36.1067 88.206 36.271 88.8746 36.441C89.5546 36.611 90.1156 36.7867 90.5576 36.968C90.9996 37.1493 91.3793 37.4327 91.6966 37.818C92.0253 38.192 92.1953 38.6907 92.2066 39.314C92.2066 39.858 92.0536 40.3453 91.7476 40.776C91.453 41.2067 91.0223 41.5467 90.4556 41.796C89.9003 42.034 89.2486 42.153 88.5006 42.153ZM110.915 33.806C110.915 34.4407 110.762 35.0357 110.456 35.591C110.161 36.1463 109.691 36.594 109.045 36.934C108.41 37.274 107.606 37.444 106.631 37.444H104.642V42H102.262V30.134H106.631C107.549 30.134 108.331 30.2927 108.977 30.61C109.623 30.9273 110.105 31.3637 110.422 31.919C110.751 32.4743 110.915 33.1033 110.915 33.806ZM106.529 35.523C107.186 35.523 107.674 35.3757 107.991 35.081C108.308 34.775 108.467 34.35 108.467 33.806C108.467 32.65 107.821 32.072 106.529 32.072H104.642V35.523H106.529ZM114.985 29.42V42H112.605V29.42H114.985ZM116.724 37.257C116.724 36.305 116.911 35.4607 117.285 34.724C117.67 33.9873 118.186 33.4207 118.832 33.024C119.489 32.6273 120.22 32.429 121.025 32.429C121.728 32.429 122.34 32.5707 122.861 32.854C123.394 33.1373 123.819 33.4943 124.136 33.925V32.582H126.533V42H124.136V40.623C123.83 41.065 123.405 41.4333 122.861 41.728C122.328 42.0113 121.711 42.153 121.008 42.153C120.215 42.153 119.489 41.949 118.832 41.541C118.186 41.133 117.67 40.5607 117.285 39.824C116.911 39.076 116.724 38.2203 116.724 37.257ZM124.136 37.291C124.136 36.713 124.023 36.22 123.796 35.812C123.569 35.3927 123.263 35.0753 122.878 34.86C122.493 34.6333 122.079 34.52 121.637 34.52C121.195 34.52 120.787 34.6277 120.413 34.843C120.039 35.0583 119.733 35.3757 119.495 35.795C119.268 36.203 119.155 36.6903 119.155 37.257C119.155 37.8237 119.268 38.3223 119.495 38.753C119.733 39.1723 120.039 39.4953 120.413 39.722C120.798 39.9487 121.206 40.062 121.637 40.062C122.079 40.062 122.493 39.9543 122.878 39.739C123.263 39.5123 123.569 39.195 123.796 38.787C124.023 38.3677 124.136 37.869 124.136 37.291ZM131.629 34.537V39.093C131.629 39.4103 131.702 39.6427 131.85 39.79C132.008 39.926 132.269 39.994 132.632 39.994H133.737V42H132.241C130.235 42 129.232 41.0253 129.232 39.076V34.537H128.11V32.582H129.232V30.253H131.629V32.582H133.737V34.537H131.629ZM139.766 34.537H138.117V42H135.703V34.537H134.632V32.582H135.703V32.106C135.703 30.95 136.032 30.1 136.689 29.556C137.347 29.012 138.338 28.757 139.664 28.791V30.797C139.086 30.7857 138.684 30.882 138.457 31.086C138.231 31.29 138.117 31.6583 138.117 32.191V32.582H139.766V34.537ZM145.491 42.153C144.584 42.153 143.768 41.9547 143.043 41.558C142.317 41.15 141.745 40.5777 141.326 39.841C140.918 39.1043 140.714 38.2543 140.714 37.291C140.714 36.3277 140.923 35.4777 141.343 34.741C141.773 34.0043 142.357 33.4377 143.094 33.041C143.83 32.633 144.652 32.429 145.559 32.429C146.465 32.429 147.287 32.633 148.024 33.041C148.76 33.4377 149.338 34.0043 149.758 34.741C150.188 35.4777 150.404 36.3277 150.404 37.291C150.404 38.2543 150.183 39.1043 149.741 39.841C149.31 40.5777 148.721 41.15 147.973 41.558C147.236 41.9547 146.409 42.153 145.491 42.153ZM145.491 40.079C145.921 40.079 146.324 39.977 146.698 39.773C147.083 39.5577 147.389 39.2403 147.616 38.821C147.842 38.4017 147.956 37.8917 147.956 37.291C147.956 36.3957 147.718 35.71 147.242 35.234C146.777 34.7467 146.205 34.503 145.525 34.503C144.845 34.503 144.272 34.7467 143.808 35.234C143.354 35.71 143.128 36.3957 143.128 37.291C143.128 38.1863 143.349 38.8777 143.791 39.365C144.244 39.841 144.811 40.079 145.491 40.079ZM154.53 34.044C154.836 33.5453 155.232 33.1543 155.72 32.871C156.218 32.5877 156.785 32.446 157.42 32.446V34.945H156.791C156.043 34.945 155.476 35.1207 155.091 35.472C154.717 35.8233 154.53 36.4353 154.53 37.308V42H152.15V32.582H154.53V34.044ZM170.719 32.446C171.875 32.446 172.804 32.803 173.507 33.517C174.221 34.2197 174.578 35.2057 174.578 36.475V42H172.198V36.798C172.198 36.0613 172.011 35.5003 171.637 35.115C171.263 34.7183 170.753 34.52 170.107 34.52C169.461 34.52 168.945 34.7183 168.56 35.115C168.186 35.5003 167.999 36.0613 167.999 36.798V42H165.619V36.798C165.619 36.0613 165.432 35.5003 165.058 35.115C164.684 34.7183 164.174 34.52 163.528 34.52C162.87 34.52 162.349 34.7183 161.964 35.115C161.59 35.5003 161.403 36.0613 161.403 36.798V42H159.023V32.582H161.403V33.721C161.709 33.3243 162.1 33.0127 162.576 32.786C163.063 32.5593 163.596 32.446 164.174 32.446C164.91 32.446 165.568 32.6047 166.146 32.922C166.724 33.228 167.171 33.67 167.489 34.248C167.795 33.704 168.237 33.2677 168.815 32.939C169.404 32.6103 170.039 32.446 170.719 32.446Z" fill="white"/>
</g>
<defs>
<filter id="filter0_d_550_13062" x="0.5" y="0.5" width="203" height="73" filterUnits="userSpaceOnUse" color-interpolation-filters="sRGB">
<feFlood flood-opacity="0" result="BackgroundImageFix"/>
<feColorMatrix in="SourceAlpha" type="matrix" values="0 0 0 0 0 0 0 0 0 0 0 0 0 0 0 0 0 0 127 0" result="hardAlpha"/>
<feOffset dx="1" dy="1"/>
<feGaussianBlur stdDeviation="5"/>
<feColorMatrix type="matrix" values="0 0 0 0 0.796078 0 0 0 0 0.807843 0 0 0 0 0.858824 0 0 0 1 0"/>
<feBlend mode="normal" in2="BackgroundImageFix" result="effect1_dropShadow_550_13062"/>
<feBlend mode="normal" in="SourceGraphic" in2="effect1_dropShadow_550_13062" result="shape"/>
</filter>
</defs>
</svg>
