<svg width="549" height="410" viewBox="0 0 549 410" fill="none" xmlns="http://www.w3.org/2000/svg">
<path d="M77.1006 254.492C80.8146 263.712 84.5287 272.932 88.2472 282.16C98.2546 306.998 108.736 332.565 127.689 351.475C173.209 396.879 233.319 355.931 287.295 367.056C339.039 377.725 395.051 386.745 445.475 365.564C481.373 350.481 511.646 317.394 514.308 278.526C518.966 210.574 444.569 140.645 391.925 108.28C363.016 90.5076 331.474 82.7432 297.686 84.8928C265.203 86.9652 232.871 97.3275 201.925 81.6121C167.631 64.1954 140.229 29.8288 98.4217 32.108C63.305 34.0227 37.7057 69.6945 34.4848 104.734C31.2639 139.774 44.6608 173.965 57.8117 206.6C64.2398 222.561 70.668 238.523 77.1078 254.487L77.1006 254.492Z" fill="#F1F3FD"/>
<path d="M309.92 205.122C314.689 208.495 319.073 211.598 323.3 214.597C325.883 211.952 328.382 209.391 331.141 206.559C328.33 202.612 325.216 198.228 322.082 193.855C319.01 189.576 319.354 189.555 321.53 184.963C324.404 178.903 326.789 172.593 329.048 166.262C329.985 163.648 331.016 161.961 334.004 161.555C339.752 160.764 345.458 159.639 351.362 158.619V147.488C345.823 146.551 340.346 145.468 334.817 144.76C331.433 144.323 330.006 142.677 328.933 139.45C326.851 133.181 324.321 127.017 321.478 121.061C319.344 116.594 319.021 116.511 321.947 112.429C325.091 108.045 328.225 103.651 331.328 99.2987C328.663 96.6331 326.133 94.1028 323.425 91.3955C319.083 94.4985 314.606 97.6951 310.16 100.902C306.442 103.589 305.89 103.245 301.767 101.267C295.822 98.4032 289.668 95.9042 283.42 93.7592C280.421 92.7284 278.589 91.5726 278.151 88.2093C277.412 82.5553 276.288 76.9533 275.309 71.2264H264.271C263.251 77.1824 262.137 83.003 261.293 88.8549C260.908 91.5621 259.492 92.9678 257.004 93.4572C249.683 94.9254 242.926 97.7784 236.699 101.86C234.46 103.328 232.513 103.131 230.41 101.589C225.651 98.1012 220.809 94.7067 215.957 91.2394C213.364 93.9466 210.928 96.4769 208.262 99.2674C211.292 103.516 214.468 107.993 217.665 112.45C220.56 116.5 220.216 116.615 218.092 121.092C215.218 127.152 212.781 133.441 210.553 139.783C209.574 142.563 208.366 144.239 205.347 144.677C199.703 145.478 194.091 146.52 188.249 147.488V158.588C194.018 159.598 199.807 160.712 205.628 161.566C208.429 161.972 209.897 163.367 210.407 166.054C211.74 173.093 214.416 179.632 218.373 185.556C220.258 188.378 219.976 190.606 218.05 193.168C214.676 197.645 211.501 202.279 208.241 206.85C210.938 209.432 213.531 211.921 216.332 214.597C220.445 211.671 224.902 208.506 229.337 205.351C229.629 205.694 229.816 205.819 229.858 205.975C231.038 211.022 229.546 215.024 225.381 217.981C223.006 219.668 220.612 221.313 218.279 223.062C216.082 224.708 214.093 224.593 212.177 222.656C208.221 218.668 204.264 214.691 200.297 210.724C198.329 208.756 198.391 206.808 199.995 204.611C203.243 200.165 206.326 195.584 209.626 191.179C210.72 189.711 210.72 188.67 209.949 187.014C207.638 182.037 205.44 176.976 203.618 171.801C202.91 169.792 201.973 168.99 200.047 168.698C194.924 167.907 189.801 167.032 184.688 166.158C180.94 165.512 180.044 164.502 180.023 160.847C179.992 155.641 179.992 150.435 180.023 145.228C180.044 141.719 181.075 140.512 184.418 139.96C189.738 139.075 195.059 138.127 200.401 137.388C202.223 137.128 202.9 136.305 203.525 134.618C205.472 129.37 207.617 124.195 209.96 119.114C210.74 117.427 210.668 116.375 209.606 114.938C206.388 110.596 203.379 106.098 200.14 101.766C198.214 99.1946 198.474 97.0912 200.724 94.915C204.451 91.2914 208.054 87.5429 211.761 83.8985C214.374 81.3266 215.697 81.2745 218.821 83.482C223.225 86.6058 227.661 89.6879 231.993 92.9262C233.388 93.9674 234.335 93.7904 235.856 93.1032C240.937 90.7812 246.112 88.6362 251.349 86.7099C253.057 86.0851 253.859 85.325 254.119 83.5653C254.911 78.2132 255.816 72.882 256.722 67.5508C257.285 64.1979 258.576 63.0525 261.929 63.0317C267.229 62.9901 272.518 63.063 277.818 63.0005C280.848 62.9692 282.421 64.4478 282.879 67.3529C283.733 72.6946 284.701 78.0154 285.461 83.3675C285.732 85.2834 286.596 86.0539 288.397 86.7099C293.541 88.5946 298.623 90.6979 303.6 92.9991C305.203 93.7384 306.224 93.9779 307.734 92.8429C311.961 89.6462 316.334 86.6474 320.645 83.5653C323.977 81.1808 325.195 81.2537 328.163 84.1901C331.714 87.6991 335.233 91.2289 338.732 94.79C341.397 97.4869 341.501 98.7676 339.336 101.839C336.222 106.254 332.974 110.586 330.006 115.105C329.381 116.052 329.277 117.802 329.694 118.895C331.714 124.226 334.109 129.412 336.118 134.743C336.722 136.336 337.378 137.075 339.055 137.325C344.292 138.085 349.498 139.033 354.725 139.876C358.547 140.501 359.567 141.605 359.578 145.385C359.598 150.591 359.505 155.797 359.609 161.004C359.661 164.044 358.318 165.658 355.371 166.127C350.144 166.97 344.938 167.897 339.7 168.698C337.69 169.011 336.649 169.781 335.91 171.947C334.181 177.039 332.016 182.006 329.725 186.879C328.892 188.649 328.892 189.753 330.068 191.304C333.317 195.625 336.306 200.134 339.523 204.476C341.345 206.944 341.137 208.985 338.992 211.088C335.212 214.805 331.464 218.554 327.767 222.354C325.56 224.624 323.415 224.718 320.905 222.802C317.688 220.345 314.439 217.898 311.013 215.742C308.921 214.43 308.15 213.056 308.921 210.661C309.42 209.099 309.535 207.402 309.931 205.132L309.92 205.122Z" fill="#024473"/>
<path fill-rule="evenodd" clip-rule="evenodd" d="M301.668 224.161L301.668 224.161L301.668 224.161L301.667 224.161L301.667 224.161C300.663 223.87 299.639 223.574 298.598 223.238V223.228C298.692 222.551 298.765 222.041 298.838 221.53C299.461 217.367 300.155 213.21 300.85 209.053L300.85 209.053L300.85 209.053L300.85 209.052L300.85 209.052C302.419 199.662 303.988 190.272 304.731 180.817C305.887 166.032 303.669 151.339 296.183 138.251C290.726 128.713 284.281 119.706 277.815 110.803C273.733 105.181 265.372 105.712 261.165 111.438C259.271 114.017 257.454 116.648 255.636 119.278L255.636 119.278L255.636 119.279C254.026 121.61 252.416 123.941 250.753 126.235C245.473 133.523 241.017 141.218 238.445 149.913C233.488 166.667 233.718 183.577 236.945 200.58C237.903 205.599 238.792 210.632 239.685 215.691L239.685 215.692L239.685 215.693L239.685 215.693L239.686 215.694C240.132 218.222 240.58 220.757 241.038 223.301C240.749 223.395 240.492 223.485 240.257 223.568C239.788 223.734 239.402 223.87 239.007 223.946C226.47 226.466 218.848 234.307 214.808 246.156C211.989 254.431 212.183 262.919 212.377 271.407C212.426 273.515 212.474 275.623 212.476 277.727C212.476 280.112 214.892 281.476 217.266 280.861C218.241 280.61 219.167 280.144 220.081 279.684C220.191 279.628 220.301 279.573 220.41 279.518C223.668 277.876 226.923 276.229 230.178 274.583C231.738 273.794 233.297 273.006 234.856 272.217C234.624 272.902 234.44 273.565 234.321 274.187C234.058 275.664 233.777 277.094 233.503 278.495L233.503 278.495C232.91 281.521 232.344 284.41 232.03 287.328C231.291 294.179 230.469 300.823 224.898 305.925C222.503 308.122 223.846 311.516 227.064 312.339C227.918 312.564 228.828 312.633 229.724 312.702C229.865 312.713 230.006 312.723 230.146 312.735C236.768 313.255 242.578 311.141 247.472 307.247C248.295 309.135 249.095 311.004 249.888 312.856C251.575 316.796 253.23 320.662 255.001 324.48C257.791 330.509 259.405 336.663 258.78 343.379C258.426 347.242 261.342 349.054 264.924 347.367C274.347 342.931 281.199 335.819 285.207 326.375C286.914 322.367 288.121 318.157 289.34 313.908C289.892 311.986 290.446 310.055 291.049 308.132L291.156 308.192C291.483 308.373 292.103 308.717 292.715 309.069C297.817 312.058 303.367 313.297 309.188 312.516C310.864 312.287 313.082 311.058 313.717 309.673C314.238 308.549 313.196 306.133 312.113 304.967C309.323 301.958 307.563 298.574 306.949 294.586C306.732 293.184 306.557 291.775 306.381 290.365L306.381 290.364C306.187 288.801 305.993 287.238 305.741 285.683C305.306 283.019 304.811 280.372 304.3 277.636L304.3 277.636L304.299 277.632C304.101 276.572 303.901 275.499 303.7 274.406C303.7 273.417 303.595 272.474 303.411 271.581C305.135 272.45 306.856 273.326 308.577 274.202C312.678 276.288 316.778 278.375 320.923 280.372C324.151 281.934 327.108 280.518 327.035 277.269C326.991 275.364 326.967 273.454 326.943 271.542V271.542V271.541C326.853 264.392 326.763 257.219 325.629 250.227C323.89 239.482 317.945 230.954 307.699 226.227C305.801 225.359 303.779 224.773 301.668 224.161ZM259.646 255.279C258.042 255.278 256.431 255.278 254.813 255.278H254.824C254.284 252.168 253.782 249.242 253.236 246.055L253.168 245.656H286.384C286.264 246.37 286.149 247.081 286.035 247.788L286.035 247.789C285.704 249.835 285.378 251.852 284.937 253.841C284.802 254.413 283.875 255.215 283.313 255.215C275.475 255.284 267.637 255.282 259.649 255.279H259.646ZM278.27 125.155C279.043 126.268 279.836 127.41 280.657 128.588H258.895C259.838 127.245 260.748 125.933 261.642 124.646L261.642 124.646L261.642 124.646C263.629 121.782 265.531 119.043 267.506 116.364C269.099 114.198 270.859 114.614 272.296 116.634C274.267 119.394 276.199 122.175 278.27 125.155ZM248.014 291.878C246.587 297.907 242.735 301.708 237.393 303.967V303.957C237.718 301.832 238.004 299.725 238.289 297.635C238.951 292.763 239.601 287.987 240.694 283.309C241.623 279.35 243.439 275.566 245.225 271.845L245.227 271.842C245.442 271.394 245.656 270.947 245.869 270.501C247.618 266.836 250.804 265.795 254.043 266.701C254.733 267.925 255.385 269.121 256.022 270.29L256.023 270.291C257.451 272.911 258.805 275.394 260.353 277.748C262.3 280.726 262.925 283.736 262.321 287.172C261.508 291.805 264.247 294.127 268.526 292.097C277.231 287.963 281.365 280.424 283.125 271.366C283.316 270.41 283.416 269.43 283.519 268.416L283.519 268.415C283.568 267.938 283.617 267.454 283.677 266.961C286.78 266.128 289.195 266.544 291.288 269.345C294.797 274.042 296.849 279.185 297.64 284.954C298.237 289.302 298.944 293.635 299.644 297.922C299.956 299.836 300.267 301.741 300.566 303.634C295.266 302.884 290.768 298.272 289.966 292.201C289.643 289.775 288.633 287.984 285.999 287.828C283.666 287.692 282.313 289.067 281.959 291.295C281.874 291.863 281.92 292.448 281.966 293.033C281.994 293.381 282.021 293.73 282.021 294.075C282.012 295.726 282.046 297.383 282.08 299.039L282.081 299.04C282.16 302.859 282.239 306.679 281.782 310.433C280.73 319.013 277.315 326.75 271.223 333.122C270.416 333.965 269.537 334.737 268.489 335.658L268.488 335.658C267.982 336.102 267.436 336.582 266.84 337.121C266.189 329.558 263.212 323.215 260.264 316.936L260.264 316.935C259.388 315.071 258.516 313.212 257.708 311.329C255.25 305.581 254.511 299.594 255.792 293.409C256.417 290.379 255.261 288.307 252.897 287.849C250.523 287.39 248.732 288.838 248.014 291.878ZM270.713 280.206C268.141 275.697 265.694 271.397 263.102 266.836H263.112H275.399C275.534 272.094 273.847 276.416 270.713 280.206Z" fill="#024473"/>
<path d="M285.677 168.264C285.636 177.375 278.232 184.768 269.205 184.705C260.156 184.653 252.857 177.229 252.888 168.108C252.92 158.924 260.187 151.687 269.361 151.729C278.514 151.77 285.73 159.07 285.688 168.264H285.677ZM277.795 168.295C277.847 163.651 273.974 159.746 269.309 159.736C264.623 159.736 260.739 163.609 260.771 168.253C260.802 172.731 264.623 176.594 269.111 176.698C273.703 176.802 277.753 172.887 277.806 168.295H277.795Z" fill="white"/>
</svg>
