<svg width="481" height="347" viewBox="0 0 481 347" fill="none" xmlns="http://www.w3.org/2000/svg">
<path d="M43.1006 222.492C46.8146 231.712 50.5287 240.932 54.2472 250.16C64.2546 274.998 74.7363 300.565 93.6893 319.475C139.209 364.879 199.319 323.931 253.295 335.056C305.039 345.725 361.051 354.745 411.475 333.564C447.373 318.481 477.646 285.394 480.308 246.526C484.966 178.574 410.569 108.645 357.925 76.2795C329.016 58.5076 297.474 50.7432 263.686 52.8928C231.203 54.9652 198.871 65.3275 167.925 49.6121C133.631 32.1954 106.229 -2.17122 64.4217 0.107987C29.305 2.02267 3.70571 37.6945 0.484818 72.7341C-2.73607 107.774 10.6608 141.965 23.8117 174.6C30.2398 190.561 36.668 206.523 43.1078 222.487L43.1006 222.492Z" fill="#F0F9FE"/>
<mask id="path-2-inside-1_235_1192" fill="white">
<path d="M200.523 100.075C202.404 100.984 203.954 101.678 205.461 102.469C207.716 103.656 209.17 103.324 210.078 100.674C211.992 95.1265 212.077 95.1586 217.902 95.1586C225.149 95.1586 232.406 95.2655 239.653 95.0945C241.898 95.041 243.009 95.7785 243.426 97.8948C243.586 98.7285 243.95 99.5194 244.228 100.321C245.328 103.453 246.141 103.773 249.198 102.309C252.483 100.741 255.404 101.222 257.962 103.752C263.103 108.882 268.137 114.109 273.385 119.122C275.16 120.811 275.641 122.286 274.315 124.348C273.802 125.15 273.46 126.058 273.022 126.914C271.9 129.094 272.413 130.43 274.85 131.285C280.45 133.252 280.418 133.327 280.418 139.419C280.418 146.473 280.311 153.527 280.482 160.571C280.546 162.997 279.916 164.408 277.458 164.857C276.528 165.028 275.641 165.488 274.721 165.744C272.381 166.396 272.049 167.796 272.936 169.891C275.437 175.77 275.405 175.77 270.991 180.173C266.16 184.994 261.233 189.739 256.562 194.72C254.756 196.644 253.195 197.029 251.079 195.586C250.555 195.233 249.946 195.009 249.369 194.72C246.119 193.149 245.35 193.448 244.196 196.772C243.982 197.382 243.736 197.98 243.608 198.6C243.127 201.048 241.876 201.967 239.193 201.892C231.092 201.668 222.99 201.71 214.888 201.871C212.526 201.913 211.34 201.165 210.891 198.91C210.709 197.98 210.26 197.093 210.004 196.174C209.384 193.897 208.058 193.373 205.899 194.271C199.925 196.783 199.925 196.74 195.403 192.176C190.594 187.324 185.816 182.439 180.899 177.704C179.264 176.133 178.666 174.722 179.991 172.745C180.408 172.125 180.686 171.42 181.006 170.757C182.663 167.379 182.342 166.631 178.772 165.402C175.566 164.298 173.963 162.046 173.963 158.647C173.963 151.058 174.027 143.47 173.92 135.892C173.888 133.872 174.369 132.653 176.485 132.268C177.522 132.076 178.495 131.563 179.521 131.274C181.979 130.59 182.396 129.158 181.38 126.914C178.847 121.281 178.901 121.27 183.283 116.888C188.264 111.907 193.223 106.905 198.225 101.946C198.941 101.23 199.775 100.642 200.512 100.043L200.523 100.075ZM265.658 174.113C265.412 173.397 265.337 173.087 265.209 172.798C262.547 166.631 264.557 161.469 270.542 158.476C271.387 158.049 272.177 156.595 272.21 155.59C272.381 150.898 272.21 146.185 272.327 141.492C272.37 139.686 271.664 138.874 270.04 138.232C265.187 136.341 262.537 130.035 264.738 125.449C265.593 123.664 265.294 122.617 263.948 121.345C260.698 118.256 257.513 115.103 254.467 111.822C253.099 110.347 251.987 110.047 250.106 110.967C245.745 113.104 239.215 110.389 237.515 105.783C236.874 104.051 236.062 103.228 234.106 103.292C229.52 103.431 224.935 103.389 220.35 103.292C218.65 103.26 217.667 103.699 217.004 105.43C214.984 110.646 209.074 112.891 203.719 110.785C202.928 110.475 201.517 110.475 200.983 110.977C196.75 114.868 192.667 118.908 188.713 122.745C189.001 123.622 189.055 123.953 189.215 124.22C190.85 126.914 191.182 129.436 189.653 132.525C188.285 135.282 187.312 137.848 183.881 138.617C183.123 138.788 182.246 140.434 182.214 141.439C182.043 146.131 182.214 150.845 182.107 155.537C182.064 157.365 182.791 158.145 184.405 158.765C189.226 160.624 191.887 166.984 189.685 171.559C188.83 173.344 189.14 174.391 190.476 175.663C193.715 178.752 196.91 181.916 199.957 185.186C201.325 186.65 202.426 186.982 204.307 186.052C208.668 183.893 215.187 186.608 216.898 191.225C217.539 192.957 218.341 193.79 220.318 193.726C224.903 193.587 229.488 193.619 234.074 193.715C235.773 193.748 236.756 193.309 237.419 191.578C239.439 186.373 245.339 184.139 250.705 186.202C251.549 186.522 253.056 186.373 253.665 185.795C257.727 182.022 261.628 178.078 265.658 174.102V174.113Z"/>
<path d="M180.814 249.284C182.022 246.676 183.08 244.4 184.213 241.952C213.028 254.212 241.63 254.661 270.018 241.717C287.697 233.658 301.741 221.217 312.911 204.265C304.787 206.264 297.423 208.07 289.77 209.951C289.054 207.226 288.413 204.8 287.697 202.074C300.245 198.921 312.494 195.854 325.01 192.711C326.57 205.291 328.088 217.551 329.638 230.056C326.827 230.452 324.336 230.804 321.611 231.189C320.713 224.402 319.837 217.797 318.864 210.411C300.159 236.715 275.769 252.844 244.644 258.006C222.723 261.651 201.549 258.626 180.803 249.263L180.814 249.284Z"/>
<path d="M100.021 242.956C100.021 236.436 99.9674 229.917 100.032 223.397C100.106 215.327 105.28 210.122 113.264 210.1C126.282 210.058 139.29 210.058 152.308 210.1C160.549 210.122 165.722 215.295 165.743 223.525C165.775 236.565 165.775 249.615 165.743 262.655C165.722 270.65 160.517 275.908 152.5 275.951C139.482 276.015 126.474 276.015 113.456 275.951C105.237 275.919 100.106 270.757 100.032 262.527C99.9674 256.007 100.021 249.487 100.021 242.967V242.956ZM157.428 243.159C157.428 236.65 157.449 230.141 157.428 223.621C157.406 219.752 156.102 218.437 152.244 218.427C139.354 218.405 126.474 218.405 113.584 218.427C109.662 218.427 108.229 219.88 108.219 223.867C108.197 236.672 108.197 249.487 108.219 262.291C108.219 266.171 109.779 267.732 113.659 267.742C126.442 267.775 139.226 267.775 151.998 267.742C155.985 267.742 157.406 266.31 157.428 262.366C157.46 255.964 157.428 249.562 157.428 243.149V243.159Z"/>
<path d="M321.344 181.286C314.728 181.286 308.122 181.318 301.506 181.275C293.843 181.221 288.691 176.08 288.659 168.363C288.605 155.11 288.605 141.856 288.659 128.603C288.691 120.897 293.843 115.745 301.527 115.723C314.856 115.681 328.184 115.681 341.512 115.723C349.069 115.745 354.274 120.758 354.338 128.304C354.456 141.771 354.467 155.238 354.338 168.705C354.264 176.251 349.048 181.232 341.491 181.286C334.768 181.339 328.056 181.286 321.333 181.286H321.344ZM296.974 148.291C296.974 154.917 296.942 161.544 296.985 168.171C297.006 171.709 298.3 173.066 301.816 173.077C314.941 173.12 328.056 173.12 341.181 173.077C344.751 173.066 346.183 171.591 346.194 167.936C346.237 155.003 346.237 142.07 346.194 129.127C346.194 125.332 344.74 123.9 340.946 123.889C328.034 123.857 315.134 123.857 302.222 123.889C298.161 123.889 296.996 125.151 296.985 129.362C296.964 135.668 296.985 141.974 296.985 148.28L296.974 148.291Z"/>
<path d="M190.208 54.063C190.208 60.6897 190.241 67.3165 190.198 73.9432C190.144 81.6495 185.025 86.8654 177.393 86.8975C164.172 86.9616 150.95 86.9509 137.718 86.8975C129.873 86.8654 124.785 81.6816 124.764 73.7615C124.721 60.508 124.721 47.2545 124.764 34.001C124.785 26.2413 129.798 21.1216 137.569 21.0682C150.79 20.972 164.011 20.9827 177.244 21.0682C185.174 21.1216 190.144 26.22 190.198 34.1827C190.241 40.8095 190.198 47.4362 190.198 54.063H190.208ZM132.962 53.7103C132.962 60.2301 132.941 66.75 132.962 73.2699C132.983 77.3742 134.17 78.5499 138.36 78.5606C151.164 78.582 163.958 78.582 176.763 78.5606C180.675 78.5606 182.075 77.2566 182.085 73.4409C182.128 60.4012 182.128 47.3507 182.085 34.311C182.075 30.7625 180.514 29.2554 176.944 29.2447C164.033 29.202 151.132 29.2127 138.221 29.2447C134.405 29.2447 132.994 30.677 132.973 34.4606C132.93 40.8736 132.962 47.2866 132.973 53.6996L132.962 53.7103Z"/>
<path d="M325.651 97.1262C322.925 98.5691 320.777 99.7128 318.436 100.953C296.824 63.6077 264.621 45.181 221.354 46.4102C225.33 49.125 229.306 51.8398 233.496 54.7043C231.946 57.0344 230.557 59.14 229.007 61.4807C219.099 54.8646 209.405 48.3768 199.326 41.6432C209.394 34.9096 219.035 28.4645 228.986 21.8164C230.493 24.0396 231.904 26.1238 233.571 28.5821C229.413 31.3931 225.384 34.108 220.617 37.3358C267.474 37.0045 302.243 56.6603 325.651 97.1155V97.1262Z"/>
<path d="M132.331 183.946C133.892 177.416 135.452 170.896 137.077 164.066C139.674 164.643 142.122 165.188 145.05 165.84C142.058 178.42 139.118 190.797 136.061 203.655C124.646 197.36 113.584 191.257 102.254 184.994C103.537 182.61 104.723 180.408 106.124 177.811C112.066 181.05 117.881 184.224 124.304 187.73C112.953 158.412 114.204 130.013 126.752 101.582C129.264 102.768 131.594 103.859 134.127 105.056C122.765 131.242 121.354 157.439 132.331 183.946Z"/>
<path d="M124.294 260.273C121.077 257.099 117.529 253.593 113.788 249.895C115.637 248.174 117.486 246.453 119.805 244.294C121.056 246.068 122.392 247.981 123.856 250.066C131.626 242.049 138.638 234.813 145.97 227.246C148.054 229.897 149.615 231.885 151.015 233.659C142.475 242.156 133.401 251.188 124.284 260.262L124.294 260.273Z"/>
<path d="M302.736 155.249C304.382 153.529 306.124 151.722 308.54 149.2C310.047 151.391 311.372 153.326 312.858 155.485C320.542 147.703 327.575 140.585 334.822 133.242C336.864 135.369 338.67 137.229 340.359 138.982C331.284 148.078 322.263 157.12 313.178 166.226C309.822 162.71 306.391 159.097 302.725 155.249H302.736Z"/>
<path d="M148.995 71.5483C145.692 68.1815 142.197 64.6223 138.766 61.1165C140.455 59.3957 142.261 57.5573 144.217 55.5586C145.778 57.0229 147.456 58.6047 149.508 60.5393C156.658 53.1751 163.67 45.9391 170.703 38.7031C172.883 40.8835 174.679 42.6578 176.357 44.3359C167.25 53.3889 158.208 62.3777 148.984 71.5483H148.995Z"/>
<path d="M191 147.948C191.024 128.05 207.108 111.995 227.019 112C246.981 112.005 263.052 128.139 263 148.122C262.948 168.011 246.826 184.042 226.91 184C207.019 183.958 190.976 167.852 191 147.948ZM203.457 146.214V149.795H194.84C194.958 165.239 208.823 179.798 225.2 180.203V171.475H228.861V180.207C245.506 179.737 259.061 164.952 259.16 149.739H250.543V146.214H259.165C259.038 130.869 245.309 116.22 228.804 115.802V124.534H225.139V115.807C208.71 116.22 194.925 130.893 194.84 146.219H203.452L203.457 146.214Z"/>
<path d="M225.611 131H229.297C229.297 131.692 229.297 132.348 229.297 133.008C229.297 136.678 229.268 138.343 229.33 142.013C229.34 142.472 229.752 142.979 230.107 143.356C230.6 143.882 231.457 144.21 231.732 144.803C232.353 146.142 233.372 146.258 234.684 146.195C236.418 146.11 238.162 146.173 240 146.173V149.564C237.953 149.564 235.94 149.596 233.926 149.551C233.054 149.533 232.509 149.704 232.021 150.521C230.856 152.466 228.946 153.216 226.625 152.947C224.507 152.7 222.73 151.141 222.176 149.124C221.636 147.152 222.346 144.911 224.232 143.819C225.454 143.114 225.649 142.296 225.63 141.11C225.568 137.58 225.606 136.045 225.606 132.509C225.606 132.029 225.606 131.548 225.606 131.004L225.611 131ZM227.397 149.542C228.392 149.564 229.24 148.837 229.273 147.92C229.306 147.026 228.482 146.204 227.506 146.195C226.369 146.191 225.767 146.815 225.644 147.817C225.535 148.702 226.421 149.52 227.392 149.542H227.397Z"/>
</mask>
<path d="M200.523 100.075C202.404 100.984 203.954 101.678 205.461 102.469C207.716 103.656 209.17 103.324 210.078 100.674C211.992 95.1265 212.077 95.1586 217.902 95.1586C225.149 95.1586 232.406 95.2655 239.653 95.0945C241.898 95.041 243.009 95.7785 243.426 97.8948C243.586 98.7285 243.95 99.5194 244.228 100.321C245.328 103.453 246.141 103.773 249.198 102.309C252.483 100.741 255.404 101.222 257.962 103.752C263.103 108.882 268.137 114.109 273.385 119.122C275.16 120.811 275.641 122.286 274.315 124.348C273.802 125.15 273.46 126.058 273.022 126.914C271.9 129.094 272.413 130.43 274.85 131.285C280.45 133.252 280.418 133.327 280.418 139.419C280.418 146.473 280.311 153.527 280.482 160.571C280.546 162.997 279.916 164.408 277.458 164.857C276.528 165.028 275.641 165.488 274.721 165.744C272.381 166.396 272.049 167.796 272.936 169.891C275.437 175.77 275.405 175.77 270.991 180.173C266.16 184.994 261.233 189.739 256.562 194.72C254.756 196.644 253.195 197.029 251.079 195.586C250.555 195.233 249.946 195.009 249.369 194.72C246.119 193.149 245.35 193.448 244.196 196.772C243.982 197.382 243.736 197.98 243.608 198.6C243.127 201.048 241.876 201.967 239.193 201.892C231.092 201.668 222.99 201.71 214.888 201.871C212.526 201.913 211.34 201.165 210.891 198.91C210.709 197.98 210.26 197.093 210.004 196.174C209.384 193.897 208.058 193.373 205.899 194.271C199.925 196.783 199.925 196.74 195.403 192.176C190.594 187.324 185.816 182.439 180.899 177.704C179.264 176.133 178.666 174.722 179.991 172.745C180.408 172.125 180.686 171.42 181.006 170.757C182.663 167.379 182.342 166.631 178.772 165.402C175.566 164.298 173.963 162.046 173.963 158.647C173.963 151.058 174.027 143.47 173.92 135.892C173.888 133.872 174.369 132.653 176.485 132.268C177.522 132.076 178.495 131.563 179.521 131.274C181.979 130.59 182.396 129.158 181.38 126.914C178.847 121.281 178.901 121.27 183.283 116.888C188.264 111.907 193.223 106.905 198.225 101.946C198.941 101.23 199.775 100.642 200.512 100.043L200.523 100.075ZM265.658 174.113C265.412 173.397 265.337 173.087 265.209 172.798C262.547 166.631 264.557 161.469 270.542 158.476C271.387 158.049 272.177 156.595 272.21 155.59C272.381 150.898 272.21 146.185 272.327 141.492C272.37 139.686 271.664 138.874 270.04 138.232C265.187 136.341 262.537 130.035 264.738 125.449C265.593 123.664 265.294 122.617 263.948 121.345C260.698 118.256 257.513 115.103 254.467 111.822C253.099 110.347 251.987 110.047 250.106 110.967C245.745 113.104 239.215 110.389 237.515 105.783C236.874 104.051 236.062 103.228 234.106 103.292C229.52 103.431 224.935 103.389 220.35 103.292C218.65 103.26 217.667 103.699 217.004 105.43C214.984 110.646 209.074 112.891 203.719 110.785C202.928 110.475 201.517 110.475 200.983 110.977C196.75 114.868 192.667 118.908 188.713 122.745C189.001 123.622 189.055 123.953 189.215 124.22C190.85 126.914 191.182 129.436 189.653 132.525C188.285 135.282 187.312 137.848 183.881 138.617C183.123 138.788 182.246 140.434 182.214 141.439C182.043 146.131 182.214 150.845 182.107 155.537C182.064 157.365 182.791 158.145 184.405 158.765C189.226 160.624 191.887 166.984 189.685 171.559C188.83 173.344 189.14 174.391 190.476 175.663C193.715 178.752 196.91 181.916 199.957 185.186C201.325 186.65 202.426 186.982 204.307 186.052C208.668 183.893 215.187 186.608 216.898 191.225C217.539 192.957 218.341 193.79 220.318 193.726C224.903 193.587 229.488 193.619 234.074 193.715C235.773 193.748 236.756 193.309 237.419 191.578C239.439 186.373 245.339 184.139 250.705 186.202C251.549 186.522 253.056 186.373 253.665 185.795C257.727 182.022 261.628 178.078 265.658 174.102V174.113Z" fill="#424B66"/>
<path d="M180.814 249.284C182.022 246.676 183.08 244.4 184.213 241.952C213.028 254.212 241.63 254.661 270.018 241.717C287.697 233.658 301.741 221.217 312.911 204.265C304.787 206.264 297.423 208.07 289.77 209.951C289.054 207.226 288.413 204.8 287.697 202.074C300.245 198.921 312.494 195.854 325.01 192.711C326.57 205.291 328.088 217.551 329.638 230.056C326.827 230.452 324.336 230.804 321.611 231.189C320.713 224.402 319.837 217.797 318.864 210.411C300.159 236.715 275.769 252.844 244.644 258.006C222.723 261.651 201.549 258.626 180.803 249.263L180.814 249.284Z" fill="#424B66"/>
<path d="M100.021 242.956C100.021 236.436 99.9674 229.917 100.032 223.397C100.106 215.327 105.28 210.122 113.264 210.1C126.282 210.058 139.29 210.058 152.308 210.1C160.549 210.122 165.722 215.295 165.743 223.525C165.775 236.565 165.775 249.615 165.743 262.655C165.722 270.65 160.517 275.908 152.5 275.951C139.482 276.015 126.474 276.015 113.456 275.951C105.237 275.919 100.106 270.757 100.032 262.527C99.9674 256.007 100.021 249.487 100.021 242.967V242.956ZM157.428 243.159C157.428 236.65 157.449 230.141 157.428 223.621C157.406 219.752 156.102 218.437 152.244 218.427C139.354 218.405 126.474 218.405 113.584 218.427C109.662 218.427 108.229 219.88 108.219 223.867C108.197 236.672 108.197 249.487 108.219 262.291C108.219 266.171 109.779 267.732 113.659 267.742C126.442 267.775 139.226 267.775 151.998 267.742C155.985 267.742 157.406 266.31 157.428 262.366C157.46 255.964 157.428 249.562 157.428 243.149V243.159Z" fill="#424B66"/>
<path d="M321.344 181.286C314.728 181.286 308.122 181.318 301.506 181.275C293.843 181.221 288.691 176.08 288.659 168.363C288.605 155.11 288.605 141.856 288.659 128.603C288.691 120.897 293.843 115.745 301.527 115.723C314.856 115.681 328.184 115.681 341.512 115.723C349.069 115.745 354.274 120.758 354.338 128.304C354.456 141.771 354.467 155.238 354.338 168.705C354.264 176.251 349.048 181.232 341.491 181.286C334.768 181.339 328.056 181.286 321.333 181.286H321.344ZM296.974 148.291C296.974 154.917 296.942 161.544 296.985 168.171C297.006 171.709 298.3 173.066 301.816 173.077C314.941 173.12 328.056 173.12 341.181 173.077C344.751 173.066 346.183 171.591 346.194 167.936C346.237 155.003 346.237 142.07 346.194 129.127C346.194 125.332 344.74 123.9 340.946 123.889C328.034 123.857 315.134 123.857 302.222 123.889C298.161 123.889 296.996 125.151 296.985 129.362C296.964 135.668 296.985 141.974 296.985 148.28L296.974 148.291Z" fill="#424B66"/>
<path d="M190.208 54.063C190.208 60.6897 190.241 67.3165 190.198 73.9432C190.144 81.6495 185.025 86.8654 177.393 86.8975C164.172 86.9616 150.95 86.9509 137.718 86.8975C129.873 86.8654 124.785 81.6816 124.764 73.7615C124.721 60.508 124.721 47.2545 124.764 34.001C124.785 26.2413 129.798 21.1216 137.569 21.0682C150.79 20.972 164.011 20.9827 177.244 21.0682C185.174 21.1216 190.144 26.22 190.198 34.1827C190.241 40.8095 190.198 47.4362 190.198 54.063H190.208ZM132.962 53.7103C132.962 60.2301 132.941 66.75 132.962 73.2699C132.983 77.3742 134.17 78.5499 138.36 78.5606C151.164 78.582 163.958 78.582 176.763 78.5606C180.675 78.5606 182.075 77.2566 182.085 73.4409C182.128 60.4012 182.128 47.3507 182.085 34.311C182.075 30.7625 180.514 29.2554 176.944 29.2447C164.033 29.202 151.132 29.2127 138.221 29.2447C134.405 29.2447 132.994 30.677 132.973 34.4606C132.93 40.8736 132.962 47.2866 132.973 53.6996L132.962 53.7103Z" fill="#424B66"/>
<path d="M325.651 97.1262C322.925 98.5691 320.777 99.7128 318.436 100.953C296.824 63.6077 264.621 45.181 221.354 46.4102C225.33 49.125 229.306 51.8398 233.496 54.7043C231.946 57.0344 230.557 59.14 229.007 61.4807C219.099 54.8646 209.405 48.3768 199.326 41.6432C209.394 34.9096 219.035 28.4645 228.986 21.8164C230.493 24.0396 231.904 26.1238 233.571 28.5821C229.413 31.3931 225.384 34.108 220.617 37.3358C267.474 37.0045 302.243 56.6603 325.651 97.1155V97.1262Z" fill="#424B66"/>
<path d="M132.331 183.946C133.892 177.416 135.452 170.896 137.077 164.066C139.674 164.643 142.122 165.188 145.05 165.84C142.058 178.42 139.118 190.797 136.061 203.655C124.646 197.36 113.584 191.257 102.254 184.994C103.537 182.61 104.723 180.408 106.124 177.811C112.066 181.05 117.881 184.224 124.304 187.73C112.953 158.412 114.204 130.013 126.752 101.582C129.264 102.768 131.594 103.859 134.127 105.056C122.765 131.242 121.354 157.439 132.331 183.946Z" fill="#424B66"/>
<path d="M124.294 260.273C121.077 257.099 117.529 253.593 113.788 249.895C115.637 248.174 117.486 246.453 119.805 244.294C121.056 246.068 122.392 247.981 123.856 250.066C131.626 242.049 138.638 234.813 145.97 227.246C148.054 229.897 149.615 231.885 151.015 233.659C142.475 242.156 133.401 251.188 124.284 260.262L124.294 260.273Z" fill="#424B66"/>
<path d="M302.736 155.249C304.382 153.529 306.124 151.722 308.54 149.2C310.047 151.391 311.372 153.326 312.858 155.485C320.542 147.703 327.575 140.585 334.822 133.242C336.864 135.369 338.67 137.229 340.359 138.982C331.284 148.078 322.263 157.12 313.178 166.226C309.822 162.71 306.391 159.097 302.725 155.249H302.736Z" fill="#424B66"/>
<path d="M148.995 71.5483C145.692 68.1815 142.197 64.6223 138.766 61.1165C140.455 59.3957 142.261 57.5573 144.217 55.5586C145.778 57.0229 147.456 58.6047 149.508 60.5393C156.658 53.1751 163.67 45.9391 170.703 38.7031C172.883 40.8835 174.679 42.6578 176.357 44.3359C167.25 53.3889 158.208 62.3777 148.984 71.5483H148.995Z" fill="#424B66"/>
<path d="M191 147.948C191.024 128.05 207.108 111.995 227.019 112C246.981 112.005 263.052 128.139 263 148.122C262.948 168.011 246.826 184.042 226.91 184C207.019 183.958 190.976 167.852 191 147.948ZM203.457 146.214V149.795H194.84C194.958 165.239 208.823 179.798 225.2 180.203V171.475H228.861V180.207C245.506 179.737 259.061 164.952 259.16 149.739H250.543V146.214H259.165C259.038 130.869 245.309 116.22 228.804 115.802V124.534H225.139V115.807C208.71 116.22 194.925 130.893 194.84 146.219H203.452L203.457 146.214Z" fill="#424B66"/>
<path d="M225.611 131H229.297C229.297 131.692 229.297 132.348 229.297 133.008C229.297 136.678 229.268 138.343 229.33 142.013C229.34 142.472 229.752 142.979 230.107 143.356C230.6 143.882 231.457 144.21 231.732 144.803C232.353 146.142 233.372 146.258 234.684 146.195C236.418 146.11 238.162 146.173 240 146.173V149.564C237.953 149.564 235.94 149.596 233.926 149.551C233.054 149.533 232.509 149.704 232.021 150.521C230.856 152.466 228.946 153.216 226.625 152.947C224.507 152.7 222.73 151.141 222.176 149.124C221.636 147.152 222.346 144.911 224.232 143.819C225.454 143.114 225.649 142.296 225.63 141.11C225.568 137.58 225.606 136.045 225.606 132.509C225.606 132.029 225.606 131.548 225.606 131.004L225.611 131ZM227.397 149.542C228.392 149.564 229.24 148.837 229.273 147.92C229.306 147.026 228.482 146.204 227.506 146.195C226.369 146.191 225.767 146.815 225.644 147.817C225.535 148.702 226.421 149.52 227.392 149.542H227.397Z" fill="#424B66"/>
<path d="M200.523 100.075C202.404 100.984 203.954 101.678 205.461 102.469C207.716 103.656 209.17 103.324 210.078 100.674C211.992 95.1265 212.077 95.1586 217.902 95.1586C225.149 95.1586 232.406 95.2655 239.653 95.0945C241.898 95.041 243.009 95.7785 243.426 97.8948C243.586 98.7285 243.95 99.5194 244.228 100.321C245.328 103.453 246.141 103.773 249.198 102.309C252.483 100.741 255.404 101.222 257.962 103.752C263.103 108.882 268.137 114.109 273.385 119.122C275.16 120.811 275.641 122.286 274.315 124.348C273.802 125.15 273.46 126.058 273.022 126.914C271.9 129.094 272.413 130.43 274.85 131.285C280.45 133.252 280.418 133.327 280.418 139.419C280.418 146.473 280.311 153.527 280.482 160.571C280.546 162.997 279.916 164.408 277.458 164.857C276.528 165.028 275.641 165.488 274.721 165.744C272.381 166.396 272.049 167.796 272.936 169.891C275.437 175.77 275.405 175.77 270.991 180.173C266.16 184.994 261.233 189.739 256.562 194.72C254.756 196.644 253.195 197.029 251.079 195.586C250.555 195.233 249.946 195.009 249.369 194.72C246.119 193.149 245.35 193.448 244.196 196.772C243.982 197.382 243.736 197.98 243.608 198.6C243.127 201.048 241.876 201.967 239.193 201.892C231.092 201.668 222.99 201.71 214.888 201.871C212.526 201.913 211.34 201.165 210.891 198.91C210.709 197.98 210.26 197.093 210.004 196.174C209.384 193.897 208.058 193.373 205.899 194.271C199.925 196.783 199.925 196.74 195.403 192.176C190.594 187.324 185.816 182.439 180.899 177.704C179.264 176.133 178.666 174.722 179.991 172.745C180.408 172.125 180.686 171.42 181.006 170.757C182.663 167.379 182.342 166.631 178.772 165.402C175.566 164.298 173.963 162.046 173.963 158.647C173.963 151.058 174.027 143.47 173.92 135.892C173.888 133.872 174.369 132.653 176.485 132.268C177.522 132.076 178.495 131.563 179.521 131.274C181.979 130.59 182.396 129.158 181.38 126.914C178.847 121.281 178.901 121.27 183.283 116.888C188.264 111.907 193.223 106.905 198.225 101.946C198.941 101.23 199.775 100.642 200.512 100.043L200.523 100.075ZM265.658 174.113C265.412 173.397 265.337 173.087 265.209 172.798C262.547 166.631 264.557 161.469 270.542 158.476C271.387 158.049 272.177 156.595 272.21 155.59C272.381 150.898 272.21 146.185 272.327 141.492C272.37 139.686 271.664 138.874 270.04 138.232C265.187 136.341 262.537 130.035 264.738 125.449C265.593 123.664 265.294 122.617 263.948 121.345C260.698 118.256 257.513 115.103 254.467 111.822C253.099 110.347 251.987 110.047 250.106 110.967C245.745 113.104 239.215 110.389 237.515 105.783C236.874 104.051 236.062 103.228 234.106 103.292C229.52 103.431 224.935 103.389 220.35 103.292C218.65 103.26 217.667 103.699 217.004 105.43C214.984 110.646 209.074 112.891 203.719 110.785C202.928 110.475 201.517 110.475 200.983 110.977C196.75 114.868 192.667 118.908 188.713 122.745C189.001 123.622 189.055 123.953 189.215 124.22C190.85 126.914 191.182 129.436 189.653 132.525C188.285 135.282 187.312 137.848 183.881 138.617C183.123 138.788 182.246 140.434 182.214 141.439C182.043 146.131 182.214 150.845 182.107 155.537C182.064 157.365 182.791 158.145 184.405 158.765C189.226 160.624 191.887 166.984 189.685 171.559C188.83 173.344 189.14 174.391 190.476 175.663C193.715 178.752 196.91 181.916 199.957 185.186C201.325 186.65 202.426 186.982 204.307 186.052C208.668 183.893 215.187 186.608 216.898 191.225C217.539 192.957 218.341 193.79 220.318 193.726C224.903 193.587 229.488 193.619 234.074 193.715C235.773 193.748 236.756 193.309 237.419 191.578C239.439 186.373 245.339 184.139 250.705 186.202C251.549 186.522 253.056 186.373 253.665 185.795C257.727 182.022 261.628 178.078 265.658 174.102V174.113Z" stroke="#424B66" stroke-width="2" mask="url(#path-2-inside-1_235_1192)"/>
<path d="M180.814 249.284C182.022 246.676 183.08 244.4 184.213 241.952C213.028 254.212 241.63 254.661 270.018 241.717C287.697 233.658 301.741 221.217 312.911 204.265C304.787 206.264 297.423 208.07 289.77 209.951C289.054 207.226 288.413 204.8 287.697 202.074C300.245 198.921 312.494 195.854 325.01 192.711C326.57 205.291 328.088 217.551 329.638 230.056C326.827 230.452 324.336 230.804 321.611 231.189C320.713 224.402 319.837 217.797 318.864 210.411C300.159 236.715 275.769 252.844 244.644 258.006C222.723 261.651 201.549 258.626 180.803 249.263L180.814 249.284Z" stroke="#424B66" stroke-width="2" mask="url(#path-2-inside-1_235_1192)"/>
<path d="M100.021 242.956C100.021 236.436 99.9674 229.917 100.032 223.397C100.106 215.327 105.28 210.122 113.264 210.1C126.282 210.058 139.29 210.058 152.308 210.1C160.549 210.122 165.722 215.295 165.743 223.525C165.775 236.565 165.775 249.615 165.743 262.655C165.722 270.65 160.517 275.908 152.5 275.951C139.482 276.015 126.474 276.015 113.456 275.951C105.237 275.919 100.106 270.757 100.032 262.527C99.9674 256.007 100.021 249.487 100.021 242.967V242.956ZM157.428 243.159C157.428 236.65 157.449 230.141 157.428 223.621C157.406 219.752 156.102 218.437 152.244 218.427C139.354 218.405 126.474 218.405 113.584 218.427C109.662 218.427 108.229 219.88 108.219 223.867C108.197 236.672 108.197 249.487 108.219 262.291C108.219 266.171 109.779 267.732 113.659 267.742C126.442 267.775 139.226 267.775 151.998 267.742C155.985 267.742 157.406 266.31 157.428 262.366C157.46 255.964 157.428 249.562 157.428 243.149V243.159Z" stroke="#424B66" stroke-width="2" mask="url(#path-2-inside-1_235_1192)"/>
<path d="M321.344 181.286C314.728 181.286 308.122 181.318 301.506 181.275C293.843 181.221 288.691 176.08 288.659 168.363C288.605 155.11 288.605 141.856 288.659 128.603C288.691 120.897 293.843 115.745 301.527 115.723C314.856 115.681 328.184 115.681 341.512 115.723C349.069 115.745 354.274 120.758 354.338 128.304C354.456 141.771 354.467 155.238 354.338 168.705C354.264 176.251 349.048 181.232 341.491 181.286C334.768 181.339 328.056 181.286 321.333 181.286H321.344ZM296.974 148.291C296.974 154.917 296.942 161.544 296.985 168.171C297.006 171.709 298.3 173.066 301.816 173.077C314.941 173.12 328.056 173.12 341.181 173.077C344.751 173.066 346.183 171.591 346.194 167.936C346.237 155.003 346.237 142.07 346.194 129.127C346.194 125.332 344.74 123.9 340.946 123.889C328.034 123.857 315.134 123.857 302.222 123.889C298.161 123.889 296.996 125.151 296.985 129.362C296.964 135.668 296.985 141.974 296.985 148.28L296.974 148.291Z" stroke="#424B66" stroke-width="2" mask="url(#path-2-inside-1_235_1192)"/>
<path d="M190.208 54.063C190.208 60.6897 190.241 67.3165 190.198 73.9432C190.144 81.6495 185.025 86.8654 177.393 86.8975C164.172 86.9616 150.95 86.9509 137.718 86.8975C129.873 86.8654 124.785 81.6816 124.764 73.7615C124.721 60.508 124.721 47.2545 124.764 34.001C124.785 26.2413 129.798 21.1216 137.569 21.0682C150.79 20.972 164.011 20.9827 177.244 21.0682C185.174 21.1216 190.144 26.22 190.198 34.1827C190.241 40.8095 190.198 47.4362 190.198 54.063H190.208ZM132.962 53.7103C132.962 60.2301 132.941 66.75 132.962 73.2699C132.983 77.3742 134.17 78.5499 138.36 78.5606C151.164 78.582 163.958 78.582 176.763 78.5606C180.675 78.5606 182.075 77.2566 182.085 73.4409C182.128 60.4012 182.128 47.3507 182.085 34.311C182.075 30.7625 180.514 29.2554 176.944 29.2447C164.033 29.202 151.132 29.2127 138.221 29.2447C134.405 29.2447 132.994 30.677 132.973 34.4606C132.93 40.8736 132.962 47.2866 132.973 53.6996L132.962 53.7103Z" stroke="#424B66" stroke-width="2" mask="url(#path-2-inside-1_235_1192)"/>
<path d="M325.651 97.1262C322.925 98.5691 320.777 99.7128 318.436 100.953C296.824 63.6077 264.621 45.181 221.354 46.4102C225.33 49.125 229.306 51.8398 233.496 54.7043C231.946 57.0344 230.557 59.14 229.007 61.4807C219.099 54.8646 209.405 48.3768 199.326 41.6432C209.394 34.9096 219.035 28.4645 228.986 21.8164C230.493 24.0396 231.904 26.1238 233.571 28.5821C229.413 31.3931 225.384 34.108 220.617 37.3358C267.474 37.0045 302.243 56.6603 325.651 97.1155V97.1262Z" stroke="#424B66" stroke-width="2" mask="url(#path-2-inside-1_235_1192)"/>
<path d="M132.331 183.946C133.892 177.416 135.452 170.896 137.077 164.066C139.674 164.643 142.122 165.188 145.05 165.84C142.058 178.42 139.118 190.797 136.061 203.655C124.646 197.36 113.584 191.257 102.254 184.994C103.537 182.61 104.723 180.408 106.124 177.811C112.066 181.05 117.881 184.224 124.304 187.73C112.953 158.412 114.204 130.013 126.752 101.582C129.264 102.768 131.594 103.859 134.127 105.056C122.765 131.242 121.354 157.439 132.331 183.946Z" stroke="#424B66" stroke-width="2" mask="url(#path-2-inside-1_235_1192)"/>
<path d="M124.294 260.273C121.077 257.099 117.529 253.593 113.788 249.895C115.637 248.174 117.486 246.453 119.805 244.294C121.056 246.068 122.392 247.981 123.856 250.066C131.626 242.049 138.638 234.813 145.97 227.246C148.054 229.897 149.615 231.885 151.015 233.659C142.475 242.156 133.401 251.188 124.284 260.262L124.294 260.273Z" stroke="#424B66" stroke-width="2" mask="url(#path-2-inside-1_235_1192)"/>
<path d="M302.736 155.249C304.382 153.529 306.124 151.722 308.54 149.2C310.047 151.391 311.372 153.326 312.858 155.485C320.542 147.703 327.575 140.585 334.822 133.242C336.864 135.369 338.67 137.229 340.359 138.982C331.284 148.078 322.263 157.12 313.178 166.226C309.822 162.71 306.391 159.097 302.725 155.249H302.736Z" stroke="#424B66" stroke-width="2" mask="url(#path-2-inside-1_235_1192)"/>
<path d="M148.995 71.5483C145.692 68.1815 142.197 64.6223 138.766 61.1165C140.455 59.3957 142.261 57.5573 144.217 55.5586C145.778 57.0229 147.456 58.6047 149.508 60.5393C156.658 53.1751 163.67 45.9391 170.703 38.7031C172.883 40.8835 174.679 42.6578 176.357 44.3359C167.25 53.3889 158.208 62.3777 148.984 71.5483H148.995Z" stroke="#424B66" stroke-width="2" mask="url(#path-2-inside-1_235_1192)"/>
<path d="M191 147.948C191.024 128.05 207.108 111.995 227.019 112C246.981 112.005 263.052 128.139 263 148.122C262.948 168.011 246.826 184.042 226.91 184C207.019 183.958 190.976 167.852 191 147.948ZM203.457 146.214V149.795H194.84C194.958 165.239 208.823 179.798 225.2 180.203V171.475H228.861V180.207C245.506 179.737 259.061 164.952 259.16 149.739H250.543V146.214H259.165C259.038 130.869 245.309 116.22 228.804 115.802V124.534H225.139V115.807C208.71 116.22 194.925 130.893 194.84 146.219H203.452L203.457 146.214Z" stroke="#424B66" stroke-width="2" mask="url(#path-2-inside-1_235_1192)"/>
<path d="M225.611 131H229.297C229.297 131.692 229.297 132.348 229.297 133.008C229.297 136.678 229.268 138.343 229.33 142.013C229.34 142.472 229.752 142.979 230.107 143.356C230.6 143.882 231.457 144.21 231.732 144.803C232.353 146.142 233.372 146.258 234.684 146.195C236.418 146.11 238.162 146.173 240 146.173V149.564C237.953 149.564 235.94 149.596 233.926 149.551C233.054 149.533 232.509 149.704 232.021 150.521C230.856 152.466 228.946 153.216 226.625 152.947C224.507 152.7 222.73 151.141 222.176 149.124C221.636 147.152 222.346 144.911 224.232 143.819C225.454 143.114 225.649 142.296 225.63 141.11C225.568 137.58 225.606 136.045 225.606 132.509C225.606 132.029 225.606 131.548 225.606 131.004L225.611 131ZM227.397 149.542C228.392 149.564 229.24 148.837 229.273 147.92C229.306 147.026 228.482 146.204 227.506 146.195C226.369 146.191 225.767 146.815 225.644 147.817C225.535 148.702 226.421 149.52 227.392 149.542H227.397Z" stroke="#424B66" stroke-width="2" mask="url(#path-2-inside-1_235_1192)"/>
</svg>
