<svg width="549" height="425" viewBox="0 0 549 425" fill="none" xmlns="http://www.w3.org/2000/svg">
<path d="M67.1006 256.492C70.8146 265.712 74.5287 274.932 78.2472 284.16C88.2546 308.998 98.7363 334.565 117.689 353.475C163.209 398.879 223.319 357.931 277.295 369.056C329.039 379.725 385.051 388.745 435.475 367.564C471.373 352.481 501.646 319.394 504.308 280.526C508.966 212.574 434.569 142.645 381.925 110.28C353.016 92.5076 321.474 84.7432 287.686 86.8928C255.203 88.9652 222.871 99.3275 191.925 83.6121C157.631 66.1954 130.229 31.8288 88.4217 34.108C53.305 36.0227 27.7057 71.6945 24.4848 106.734C21.2639 141.774 34.6608 175.965 47.8117 208.6C54.2398 224.561 60.668 240.523 67.1078 256.487L67.1006 256.492Z" fill="#F1F3FD"/>
<path d="M334.529 195.923C334.086 203.308 332.376 210.073 329.954 216.663C325.961 227.523 320.314 237.524 314.297 247.376C308.215 257.322 304.343 268.071 303.65 279.874C303.298 285.761 301.699 291.455 297.586 295.845C295.756 297.795 292.928 299.782 290.423 299.958C282.826 300.494 275.164 300.152 267.169 300.152C267.169 298.978 267.169 297.906 267.169 296.834C267.169 276.648 267.169 256.453 267.169 236.267C267.169 229.843 264.128 227.838 258.139 230.259C256.179 231.054 254.238 231.96 252.214 232.514C250.273 233.05 248.24 232.912 247.029 230.971C245.55 228.586 245.467 225.804 246.946 223.623C247.778 222.394 249.95 221.571 251.567 221.488C253.407 221.395 255.32 222.236 257.15 222.837C262.585 224.63 267.104 221.488 267.132 215.794C267.16 209.26 267.132 202.735 267.132 195.793C268.888 195.793 270.422 195.793 271.957 195.793C276.846 195.793 281.735 195.756 286.615 195.812C290.368 195.849 291.708 197.854 290.682 201.45C290.007 203.816 289.222 206.247 289.148 208.678C289 214.038 293.224 217.467 299.185 217.199C304.694 216.95 308.169 213.373 307.522 208.058C307.189 205.387 306.071 202.772 305.101 200.221C303.705 196.579 304.13 195.812 308.021 195.812C315.951 195.812 323.882 195.812 331.812 195.812C332.625 195.812 333.439 195.895 334.529 195.95V195.923Z" fill="#024473"/>
<path d="M196.167 195.783C197.544 195.783 198.626 195.783 199.707 195.783C205.89 195.783 212.074 195.811 218.248 195.774C222.351 195.755 224.172 193.214 223.1 189.193C222.342 186.356 221.464 183.537 221.03 180.644C220.716 178.564 221.538 176.669 223.562 175.514C225.67 174.313 227.657 174.627 229.551 175.865C231.603 177.205 232.611 179.128 231.881 181.549C231.354 183.296 230.596 184.997 229.773 186.642C227.222 191.735 229.607 195.774 235.254 195.783C244.562 195.792 253.878 195.783 263.343 195.783C263.463 196.532 263.648 197.133 263.648 197.733C263.666 203.547 263.694 209.351 263.648 215.165C263.62 219.001 261.457 220.387 257.815 219.241C255.56 218.529 253.194 217.836 250.856 217.762C245.458 217.596 242.057 221.699 242.251 227.698C242.436 233.317 246.05 236.765 251.558 236.1C254.054 235.795 256.503 234.778 258.878 233.835C262.825 232.264 263.648 232.707 263.648 236.848C263.648 256.858 263.648 276.878 263.648 296.888C263.648 297.887 263.648 298.885 263.648 300.28C260.413 300.28 257.409 300.28 254.405 300.28C250.717 300.28 247.02 300.16 243.332 300.308C237.944 300.53 233.822 298.201 231.539 293.598C229.57 289.614 227.657 285.215 227.342 280.88C226.372 267.423 221.649 255.5 214.615 244.196C206.593 231.303 199.799 217.836 197.073 202.687C196.685 200.525 196.472 198.334 196.13 195.783H196.167Z" fill="#024473"/>
<path d="M267.151 192.143C267.151 189.703 267.151 187.42 267.151 185.137C267.151 178.039 267.132 170.94 267.178 163.842C267.197 161.208 268.269 160.505 270.663 161.476C272.363 162.169 273.981 163.103 275.709 163.703C279.684 165.071 283.492 164.193 285.775 161.282C288.159 158.232 289.425 154.941 287.466 151.05C285.516 147.168 282.29 145.597 278.186 145.93C275.839 146.124 273.528 146.919 271.208 147.483C270.007 147.778 268.824 148.148 267.336 148.564V123.221C284.906 124.755 300.766 130.245 313.724 142.556C327.829 155.967 333.226 173.057 334.261 192.245C326.488 192.245 319.039 192.245 311.589 192.245C309.473 192.245 307.338 192.161 305.23 192.328C302.189 192.568 300.48 194.472 300.775 197.494C300.942 199.195 301.626 200.859 302.171 202.504C302.578 203.724 303.252 204.852 303.604 206.081C305.055 211.118 302.809 213.808 297.614 213.327C293.954 212.985 292.318 211.081 292.817 207.384C293.049 205.674 293.603 203.983 294.185 202.338C296.071 197.005 292.882 192.319 287.253 192.291C281.532 192.263 275.82 192.291 270.099 192.272C269.203 192.272 268.306 192.189 267.123 192.134L267.151 192.143Z" fill="#024473"/>
<path d="M262.141 123.525V130.097C226.243 134.949 206.177 154.95 203.284 191.597H196.592C197.775 152.418 224.579 126.853 262.141 123.525Z" fill="#024473"/>
<path d="M265.293 316.273C257.455 316.273 249.617 316.291 241.779 316.273C238.628 316.273 237.14 315.127 237.149 312.816C237.149 310.515 238.702 309.286 241.761 309.276C257.529 309.258 273.297 309.267 289.074 309.276C292.161 309.276 293.686 310.478 293.705 312.779C293.723 315.108 292.244 316.254 289.102 316.264C281.172 316.282 273.241 316.264 265.311 316.264L265.293 316.273Z" fill="#024473"/>
<path d="M265.699 323.528C272.243 323.528 278.787 323.519 285.331 323.528C288.372 323.528 289.943 324.803 289.887 327.077C289.832 329.23 288.242 330.552 285.451 330.561C272.086 330.589 258.73 330.589 245.366 330.561C242.593 330.561 240.994 329.212 240.938 327.068C240.883 324.803 242.491 323.537 245.513 323.528C252.242 323.509 258.971 323.528 265.69 323.528H265.699Z" fill="#024473"/>
<path d="M281.319 339.719C279.721 345.837 273.417 349.886 265.57 349.997C257.797 350.098 251.179 345.93 249.506 339.719H281.319Z" fill="#024473"/>
<path d="M161.437 166.263C164.017 166.263 166.597 166.252 169.166 166.263C171.822 166.274 173.474 167.601 173.787 170.214C174.056 172.47 171.93 174.511 169.188 174.554C163.93 174.651 158.662 174.651 153.405 174.543C150.825 174.489 149.022 173.075 149 170.398C148.979 167.699 150.738 166.36 153.372 166.284C156.06 166.22 158.738 166.274 161.426 166.263H161.437Z" fill="#024473"/>
<path d="M372.715 166.262C375.403 166.262 378.091 166.197 380.768 166.283C383.24 166.37 384.935 167.643 385.011 170.191C385.097 172.89 383.381 174.445 380.811 174.509C375.338 174.66 369.854 174.65 364.381 174.509C361.93 174.445 360.267 172.836 360.267 170.396C360.267 167.773 362.006 166.337 364.661 166.272C367.349 166.208 370.027 166.262 372.715 166.272V166.262Z" fill="#024473"/>
<path d="M326.747 114.388C325.679 113.524 324.07 112.833 323.606 111.689C323.142 110.523 323.261 108.418 324.049 107.565C328.021 103.225 332.21 99.0691 336.517 95.0424C338.212 93.4555 340.35 93.7038 342.012 95.4095C343.578 97.0072 343.804 98.972 342.25 100.602C338.18 104.866 333.991 109.001 329.759 113.114C329.133 113.719 328.054 113.859 326.737 114.388H326.747Z" fill="#024473"/>
<path d="M194.665 93.5859C196.09 94.3956 197.353 94.8166 198.227 95.6479C201.941 99.2104 205.525 102.902 209.174 106.53C211.106 108.451 211.7 110.556 209.779 112.759C208.127 114.659 205.471 114.454 203.269 112.294C199.523 108.613 195.712 104.986 192.236 101.067C191.329 100.042 191.027 97.8825 191.394 96.4899C191.696 95.3672 193.423 94.6331 194.665 93.5967V93.5859Z" fill="#024473"/>
<path d="M262.957 77.4796C262.957 74.6835 262.914 71.8875 262.968 69.0915C263.022 66.5114 264.512 65.0108 267.006 65C269.499 65 271.021 66.5006 271.054 69.0807C271.119 74.5648 271.129 80.0489 271.054 85.5222C271.021 88.0591 269.618 89.5813 267.016 89.5921C264.415 89.5921 263.054 88.0807 262.968 85.5438C262.882 82.8557 262.946 80.1676 262.946 77.4796H262.957Z" fill="#024473"/>
</svg>
