<svg width="549" height="410" viewBox="0 0 549 410" fill="none" xmlns="http://www.w3.org/2000/svg">
<path d="M67.1006 246.492C70.8146 255.712 74.5287 264.932 78.2472 274.16C88.2546 298.998 98.7363 324.565 117.689 343.475C163.209 388.879 223.319 347.931 277.295 359.056C329.039 369.725 385.051 378.745 435.475 357.564C471.373 342.481 501.646 309.394 504.308 270.526C508.966 202.574 434.569 132.645 381.925 100.28C353.016 82.5076 321.474 74.7432 287.686 76.8928C255.203 78.9652 222.871 89.3275 191.925 73.6121C157.631 56.1954 130.229 21.8288 88.4217 24.108C53.305 26.0227 27.7057 61.6945 24.4848 96.7341C21.2639 131.774 34.6608 165.965 47.8117 198.6C54.2398 214.561 60.668 230.523 67.1078 246.487L67.1006 246.492Z" fill="#F1F3FD"/>
<path d="M320.994 324.439H336.27C336.27 322.758 336.27 321.186 336.27 319.627C336.27 290.81 336.27 262.007 336.27 233.19C336.27 223.864 339.632 220.571 349.079 220.557C354.772 220.557 360.465 220.53 366.158 220.557C373.816 220.611 377.896 224.691 377.896 232.377C377.923 261.736 377.896 291.081 377.896 320.441C377.896 321.633 377.896 322.84 377.896 324.588C379.862 324.588 381.57 324.48 383.264 324.615C386.26 324.846 388.117 326.594 388.225 329.522C388.32 332.464 386.463 334.253 383.616 334.849C382.573 335.066 381.461 334.985 380.377 334.985C307.467 334.985 234.557 334.985 161.66 334.985C160.318 334.985 158.909 335.012 157.648 334.632C155.005 333.833 153.202 331.732 154.056 329.156C154.653 327.367 156.686 325.686 158.502 324.765C159.871 324.06 161.891 324.629 164.114 324.629C164.114 322.813 164.114 321.376 164.114 319.926C164.114 308.025 164.073 296.124 164.127 284.209C164.168 276.673 168.207 272.647 175.676 272.607C181.911 272.566 188.146 272.566 194.381 272.607C201.917 272.661 205.862 276.551 205.902 284.196C205.97 295.826 205.916 307.455 205.902 319.099C205.902 320.712 205.902 322.325 205.902 324.263H221.626C221.626 322.948 221.626 321.525 221.626 320.102C221.626 301.302 221.626 282.501 221.626 263.688C221.626 255.46 225.557 251.597 233.893 251.57C239.857 251.543 245.821 251.516 251.785 251.57C258.86 251.651 263.17 255.921 263.198 263.023C263.252 281.959 263.225 300.895 263.225 319.831C263.225 321.281 263.225 322.731 263.225 324.371H278.731C278.731 321.728 278.731 319.085 278.731 316.442C278.731 310.763 278.677 305.083 278.758 299.404C278.853 292.328 283.123 288.14 290.266 288.059C295.552 288.005 300.839 288.059 306.125 288.045C317.402 288.045 320.479 291.163 320.493 302.562C320.493 309.461 320.547 316.361 320.588 323.26C320.588 323.504 320.75 323.762 320.994 324.453V324.439ZM346.87 231.13V324.222H367.093V231.13H346.87ZM252.408 324.426V262.305H232.347V324.426H252.408ZM174.808 324.236H195.357V283.233H174.808V324.236ZM309.92 324.412V298.808H289.521V324.412H309.92Z" fill="#024473"/>
<path d="M174.808 324.236H195.357V283.233H174.808V324.236Z" fill="#024473"/>
<path d="M252.408 324.426V262.305H232.347V324.426H252.408Z" fill="#024473"/>
<path d="M309.92 324.412V298.808H289.521V324.412H309.92Z" fill="#024473"/>
<path d="M346.87 231.13V324.222H367.093V231.13H346.87Z" fill="#024473"/>
<path d="M346.707 185.205C345.569 177.167 351.072 171.176 358.676 171.176C366.009 171.176 371.81 177.221 371.485 184.541C371.16 191.996 364.748 197.39 357.022 196.401C354.664 196.103 353.322 196.713 351.899 198.475C338.94 214.456 325.874 230.342 312.97 246.363C312.089 247.461 311.777 249.494 312.035 250.931C313.011 256.353 311.831 260.907 307.412 264.336C303.143 267.644 298.412 268.037 293.682 265.516C288.639 262.832 286.606 258.427 286.864 252.693C286.932 251.121 286.2 249.02 285.088 247.949C273.621 237.024 261.964 226.289 250.429 215.431C248.626 213.724 246.932 212.571 244.37 213.629C243.652 213.927 242.608 214.117 241.985 213.805C237.254 211.446 234.584 214.713 231.575 217.343C221.26 226.316 210.85 235.18 200.602 244.248C199.383 245.333 198.42 247.285 198.285 248.911C197.607 257.017 191.372 262.317 183.334 261.273C175.892 260.311 171.189 253.045 172.992 245.292C174.632 238.19 182.222 234.096 189.555 236.644C191.697 237.39 192.958 237.037 194.571 235.614C205.577 225.99 216.719 216.516 227.684 206.838C228.864 205.794 229.691 203.693 229.677 202.094C229.582 194.056 235.126 188.051 242.811 188.241C250.293 188.431 255.498 194.517 255.282 202.338C255.227 204.059 256.027 206.323 257.247 207.488C268.714 218.427 280.344 229.176 291.947 239.965C295.173 242.961 302.573 242.432 305.406 238.976C318.514 222.941 331.648 206.933 344.647 190.816C345.84 189.339 346.07 187.089 346.748 185.205H346.707ZM242.323 204.276C243.421 202.853 244.601 201.999 244.587 201.186C244.56 200.359 243.354 199.559 242.662 198.759C241.863 199.464 240.521 200.088 240.399 200.887C240.277 201.701 241.361 202.704 242.323 204.276ZM355.369 184.08C357.036 185.056 358.079 186.167 358.852 186.004C359.665 185.828 360.56 184.5 360.723 183.551C360.804 183.063 359.326 181.775 358.635 181.83C357.741 181.897 356.914 182.955 355.369 184.08ZM188.661 248.586C187.007 247.529 186.113 246.526 185.218 246.512C184.513 246.512 183.09 247.881 183.212 248.342C183.442 249.264 184.418 250.497 185.245 250.633C186.018 250.768 187.007 249.643 188.661 248.586ZM302.804 254.564C301.354 253.357 300.5 252.083 299.713 252.124C298.9 252.164 297.789 253.384 297.531 254.292C297.382 254.821 298.629 256.326 299.293 256.366C300.201 256.407 301.164 255.472 302.804 254.564Z" fill="#024473"/>
<path d="M188.661 248.586C187.007 247.529 186.113 246.526 185.218 246.512C184.513 246.512 183.09 247.881 183.212 248.342C183.442 249.264 184.418 250.497 185.245 250.633C186.018 250.768 187.007 249.643 188.661 248.586Z" fill="#024473"/>
<path d="M242.323 204.276C243.421 202.853 244.601 201.999 244.587 201.186C244.56 200.359 243.354 199.559 242.662 198.759C241.863 199.464 240.521 200.088 240.399 200.887C240.277 201.701 241.361 202.704 242.323 204.276Z" fill="#024473"/>
<path d="M302.804 254.564C301.354 253.357 300.5 252.083 299.713 252.124C298.9 252.164 297.789 253.384 297.531 254.292C297.382 254.821 298.629 256.326 299.293 256.366C300.201 256.407 301.164 255.472 302.804 254.564Z" fill="#024473"/>
<path d="M355.369 184.08C357.036 185.056 358.079 186.167 358.852 186.004C359.665 185.828 360.56 184.5 360.723 183.551C360.804 183.063 359.326 181.775 358.635 181.83C357.741 181.897 356.914 182.955 355.369 184.08Z" fill="#024473"/>
<path fill-rule="evenodd" clip-rule="evenodd" d="M153.35 253.7V242.682C121.134 242.682 95.0182 216.566 95.0182 184.35C95.0182 152.134 121.134 126.018 153.35 126.018C185.566 126.018 211.682 152.134 211.682 184.35H222.7C222.7 146.049 191.651 115 153.35 115C115.049 115 84 146.049 84 184.35C84 222.651 115.049 253.7 153.35 253.7Z" fill="#024473"/>
<path fill-rule="evenodd" clip-rule="evenodd" d="M152.193 143.19C149.431 143.19 147.193 140.951 147.193 138.19V119.209H158.211V138.19C158.211 140.951 155.972 143.19 153.211 143.19H152.193ZM147.193 163.282C147.193 160.239 149.659 157.773 152.702 157.773V157.773C155.745 157.773 158.211 160.239 158.211 163.282V181.105H168.581C171.624 181.105 174.09 183.572 174.09 186.615V186.615C174.09 189.657 171.624 192.124 168.581 192.124H157.193C151.67 192.124 147.193 187.646 147.193 182.124V163.282ZM111.87 184.855C111.87 187.617 109.631 189.855 106.87 189.855H87.8889V178.837H106.87C109.631 178.837 111.87 181.076 111.87 183.837V184.855Z" fill="#024473"/>
</svg>
