<svg width="549" height="410" viewBox="0 0 549 410" fill="none" xmlns="http://www.w3.org/2000/svg">
<path d="M67.1006 246.492C70.8146 255.712 74.5287 264.932 78.2472 274.16C88.2546 298.998 98.7363 324.565 117.689 343.475C163.209 388.879 223.319 347.931 277.295 359.056C329.039 369.725 385.051 378.745 435.475 357.564C471.373 342.481 501.646 309.394 504.308 270.526C508.966 202.574 434.569 132.645 381.925 100.28C353.016 82.5076 321.474 74.7432 287.686 76.8928C255.203 78.9652 222.871 89.3275 191.925 73.6121C157.631 56.1954 130.229 21.8288 88.4217 24.108C53.305 26.0227 27.7057 61.6945 24.4848 96.7341C21.2639 131.774 34.6608 165.965 47.8117 198.6C54.2398 214.561 60.668 230.523 67.1078 246.487L67.1006 246.492Z" fill="#F1F3FD"/>
<path d="M185.213 161.612V176.194C183.915 176.326 182.738 176.37 181.573 176.579C174.832 177.788 170.642 183.089 170.631 190.534C170.609 216.432 170.631 242.329 170.631 268.227C170.631 275.034 170.609 281.83 170.631 288.637C170.664 297.468 175.964 302.823 184.762 302.834C244.255 302.856 303.749 302.845 363.242 302.834C372.227 302.834 377.45 297.523 377.45 288.395C377.472 256.68 377.45 224.965 377.45 193.25C377.45 181.725 374.151 177.788 362.868 176.051V161.997C369.532 161.997 376.119 161.469 382.586 162.151C388.249 162.745 392.065 168.386 392.098 174.676C392.164 189.929 392.131 205.182 392.131 220.434C392.131 247.762 392.131 275.089 392.131 302.406C392.131 304.583 392.131 306.749 392.131 309.334C394.737 309.334 397.453 309.301 400.159 309.334C405.591 309.422 409.044 312.743 409.044 318.164C409.044 322.42 409.209 320.786 408.395 324.921C407.01 331.948 400.961 336.599 393.781 336.962C392.791 337.017 391.801 336.995 390.822 336.995C313.107 336.995 235.392 336.995 157.676 336.995C145.063 336.995 139.026 331.002 139.015 318.498C139.015 316.409 138.982 320.331 139.015 318.241C139.125 312.754 142.402 309.433 147.834 309.345C150.55 309.301 153.267 309.345 155.961 309.345C155.961 306.815 155.961 304.649 155.961 302.482C155.961 260.562 156.137 218.642 155.829 176.722C155.763 167.231 161.844 160.897 170.972 161.557C175.546 161.887 180.176 161.612 185.202 161.612H185.213ZM251.425 309.422C252.019 311.082 252.635 312.457 252.976 313.886C253.581 316.372 255.076 317.691 257.606 317.691C268.558 317.713 279.511 317.713 290.464 317.691C292.84 317.691 294.346 316.504 295.039 314.205C295.512 312.611 296.095 311.049 296.645 309.411H251.425V309.422Z" fill="#024473"/>
<path d="M193.78 169.795C193.78 141.049 193.78 112.303 193.78 83.5571C193.78 76.0901 196.881 73 204.392 73C250.821 73 297.239 73 343.668 73C351.168 73 354.313 76.1011 354.313 83.5351C354.313 141.247 354.313 198.97 354.313 256.682C354.313 263.797 350.959 267.151 343.855 267.151C297.426 267.151 251.008 267.151 204.579 267.151C196.991 267.151 193.78 263.94 193.78 256.374C193.78 227.518 193.78 198.662 193.78 169.806V169.795ZM204.39 248.452C204.39 252.87 207.972 256.452 212.39 256.452H335.581C339.999 256.452 343.581 252.87 343.581 248.452V91.6986C343.581 87.2803 339.999 83.6986 335.581 83.6986H212.39C207.972 83.6986 204.39 87.2803 204.39 91.6986V170.075V248.452Z" fill="#024473"/>
<path fill-rule="evenodd" clip-rule="evenodd" d="M236 156C232.686 156 230 158.686 230 162V190C230 193.314 232.686 196 236 196H237.607V186.638C237.607 184.429 239.398 182.638 241.607 182.638C243.816 182.638 245.607 184.429 245.607 186.638V196H259.759C261.968 196 263.759 197.791 263.759 200C263.759 202.209 261.968 204 259.759 204H236C228.268 204 222 197.732 222 190V162C222 154.268 228.268 148 236 148H289.691C293.329 148 296.856 149.928 299.472 152.646C301.105 154.344 300.436 156.997 298.449 158.263C296.86 159.276 294.722 158.725 293.252 157.546C292.137 156.653 290.845 156 289.691 156H236Z" fill="#024473"/>
<circle cx="261" cy="122" r="23.5" stroke="#024473" stroke-width="7"/>
<circle cx="300" cy="196" r="23.5" stroke="#024473" stroke-width="7"/>
<path fill-rule="evenodd" clip-rule="evenodd" d="M316.207 188.207C317.379 189.379 317.379 191.278 316.207 192.45L301.204 207.453C300.134 208.523 298.435 208.629 297.241 207.7L289.912 202C288.604 200.982 288.369 199.097 289.386 197.79L290.614 196.211C291.631 194.903 293.516 194.668 294.824 195.685L296.578 197.049C297.772 197.978 299.471 197.872 300.541 196.802L310.55 186.793C311.722 185.622 313.621 185.622 314.793 186.793L316.207 188.207Z" fill="#024473"/>
<path d="M296.5 309.5H251.5C251.5 313.918 255.082 317.5 259.5 317.5H288.5C292.918 317.5 296.5 313.918 296.5 309.5Z" fill="#D9D9D9"/>
</svg>
