<svg width="58" height="43" viewBox="0 0 58 43" fill="none" xmlns="http://www.w3.org/2000/svg">
<path d="M57.7344 21.3672C57.7344 33.168 48.168 42.7344 36.3672 42.7344C24.5664 42.7344 15 33.168 15 21.3672C15 9.56642 24.5664 0 36.3672 0C48.168 0 57.7344 9.56642 57.7344 21.3672Z" fill="#A3CDFF" fill-opacity="0.6"/>
<path d="M0 36V31.9839C0 30.9194 0.253032 30.0346 0.759097 29.3296C1.26513 28.6247 1.94669 28.0564 2.80379 27.6248C4.51524 26.7889 6.23819 26.1129 7.97265 25.5968C9.7071 25.0806 11.8721 24.8226 14.4677 24.8226C17.0524 24.8226 19.2066 25.0806 20.9304 25.5968C22.6542 26.1129 24.3719 26.7889 26.0833 27.6248C26.9404 28.0564 27.622 28.6247 28.128 29.3296C28.6341 30.0346 28.8871 30.9194 28.8871 31.9839V36H0ZM14.4194 19.1613C12.6097 19.1613 11.0605 18.5169 9.77178 17.2282C8.48307 15.9395 7.83871 14.3903 7.83871 12.5806C7.83871 10.771 8.48307 9.22177 9.77178 7.93307C11.0605 6.64436 12.6097 6 14.4194 6C16.229 6 17.7782 6.64436 19.0669 7.93307C20.3556 9.22177 21 10.771 21 12.5806C21 14.3903 20.3556 15.9395 19.0669 17.2282C17.7782 18.5169 16.229 19.1613 14.4194 19.1613ZM2.6129 33.3871H26.2742V31.9839C26.2742 31.5 26.1855 31.1129 26.0081 30.8226C25.8306 30.5323 25.4516 30.2419 24.871 29.9516C23.4839 29.2097 21.9355 28.6048 20.2258 28.1371C18.5161 27.6694 16.5887 27.4355 14.4436 27.4355C12.2984 27.4355 10.371 27.6694 8.66129 28.1371C6.95161 28.6048 5.40323 29.2097 4.01613 29.9516C3.43548 30.2419 3.05645 30.5323 2.87903 30.8226C2.70161 31.1129 2.6129 31.5 2.6129 31.9839V33.3871ZM14.4254 16.5484C15.5181 16.5484 16.4516 16.1593 17.2258 15.3811C18 14.6029 18.3871 13.6674 18.3871 12.5746C18.3871 11.4819 17.998 10.5484 17.2198 9.77419C16.4416 9 15.5061 8.6129 14.4134 8.6129C13.3206 8.6129 12.3871 9.002 11.6129 9.78019C10.8387 10.5584 10.4516 11.4939 10.4516 12.5866C10.4516 13.6794 10.8407 14.6129 11.6189 15.3871C12.3971 16.1613 13.3326 16.5484 14.4254 16.5484Z" fill="#0984DE"/>
<path d="M31 31.7903V36H38.2581V31.7903C38.2581 31.0265 37.9906 30.2611 37.4558 29.4941C36.9209 28.7271 36.1883 28.1054 35.2581 27.629C34.2581 27.1129 33.2339 26.6694 32.1855 26.2984C31.1371 25.9274 30.0484 25.6452 28.9194 25.4516C29.697 26.2915 30.2382 27.316 30.5429 28.5251C30.8476 29.7342 31 30.8226 31 31.7903Z" fill="#0984DE"/>
<path d="M27.0831 17.2282C28.3718 15.9395 29.0161 14.3903 29.0161 12.5806C29.0161 10.771 28.3718 9.22177 27.0831 7.93307C25.7944 6.64436 24.2452 6 22.4355 6C22.2419 6 22.0323 6.01613 21.8065 6.04839C21.5807 6.08065 21.371 6.12903 21.1774 6.19355C21.7903 7.16129 22.2661 8.175 22.6048 9.23468C22.9436 10.2944 23.1129 11.4077 23.1129 12.5746C23.1129 13.7416 22.9542 14.867 22.6368 15.9506C22.3194 17.0342 21.8329 18.0399 21.1774 18.9677C21.3065 19.0323 21.5161 19.0806 21.8065 19.1129C22.0968 19.1452 22.3065 19.1613 22.4355 19.1613C24.2452 19.1613 25.7944 18.5169 27.0831 17.2282Z" fill="#0984DE"/>
</svg>
