<svg width="53" height="43" viewBox="0 0 53 43" fill="none" xmlns="http://www.w3.org/2000/svg">
<path d="M52.7344 21.3672C52.7344 33.168 43.168 42.7344 31.3672 42.7344C19.5664 42.7344 10 33.168 10 21.3672C10 9.56642 19.5664 0 31.3672 0C43.168 0 52.7344 9.56642 52.7344 21.3672Z" fill="#A3CDFF" fill-opacity="0.6"/>
<path d="M12.5433 33.4035V21.6591L2.15712 15.5872V26.6924C2.15712 26.9055 2.21039 27.1052 2.31691 27.2916C2.42344 27.478 2.58322 27.6378 2.79627 27.771L12.5433 33.4035ZM14.6605 33.4035L24.3276 27.771C24.5406 27.6378 24.7004 27.478 24.8069 27.2916C24.9135 27.1052 24.9667 26.9055 24.9667 26.6924V15.6272L14.6605 21.6192V33.4035ZM13.5819 19.7816L23.7683 13.8695L14.221 8.35686C14.008 8.2237 13.7949 8.15712 13.5819 8.15712C13.3688 8.15712 13.1558 8.2237 12.9427 8.35686L3.39547 13.8695L13.5819 19.7816ZM1.71771 29.7284C1.18509 29.4354 0.765646 29.016 0.459387 28.47C0.153129 27.9241 0 27.3449 0 26.7324V15.2676C0 14.6551 0.153129 14.0759 0.459387 13.53C0.765646 12.984 1.18509 12.5646 1.71771 12.2716L11.8642 6.43941C12.3968 6.14647 12.9694 6 13.5819 6C14.1944 6 14.767 6.14647 15.2996 6.43941L25.4061 12.2716C25.9387 12.5646 26.3582 12.984 26.6644 13.53C26.9707 14.0759 27.1238 14.6551 27.1238 15.2676V26.7324C27.1238 27.3449 26.9707 27.9241 26.6644 28.47C26.3582 29.016 25.9387 29.4354 25.4061 29.7284L15.2996 35.5606C14.767 35.8535 14.1944 36 13.5819 36C12.9694 36 12.3968 35.8535 11.8642 35.5606L1.71771 29.7284Z" fill="#0984DE"/>
</svg>
