<svg width="61" height="43" viewBox="0 0 61 43" fill="none" xmlns="http://www.w3.org/2000/svg">
<path d="M60.7344 21.3672C60.7344 33.168 51.168 42.7344 39.3672 42.7344C27.5664 42.7344 18 33.168 18 21.3672C18 9.56642 27.5664 0 39.3672 0C51.168 0 60.7344 9.56642 60.7344 21.3672Z" fill="#A3CDFF" fill-opacity="0.6"/>
<path d="M30.5584 31.8832C28.1895 31.8832 26.1421 31.1218 24.4162 29.599C22.6904 28.0761 21.6244 26.1303 21.2183 23.7614H9.03553C8.69712 24.6751 8.15567 25.4619 7.41117 26.1218C6.66667 26.7817 5.75296 27.1117 4.67005 27.1117C3.38274 27.1117 2.28257 26.6553 1.36954 25.7425C0.456515 24.8298 0 23.73 0 22.443C0 21.1561 0.456515 20.0558 1.36954 19.1421C2.28257 18.2284 3.38274 17.7716 4.67005 17.7716C5.75296 17.7716 6.66667 18.0846 7.41117 18.7107C8.15567 19.3367 8.69712 20.1066 9.03553 21.0203H21.2183C21.6244 18.6514 22.6904 16.7225 24.4162 15.2335C26.1421 13.7445 28.1895 13 30.5584 13C33.1685 13 35.3947 13.9375 37.2368 15.8126C39.0789 17.6876 40 19.9296 40 22.5385C40 25.0797 39.0789 27.2724 37.2368 29.1168C35.3947 30.9611 33.1685 31.8832 30.5584 31.8832ZM30.5464 29.1421C32.3818 29.1421 33.9594 28.4862 35.2792 27.1744C36.599 25.8626 37.2589 24.289 37.2589 22.4536C37.2589 20.6182 36.603 19.0406 35.2911 17.7208C33.9793 16.401 32.4057 15.7411 30.5703 15.7411C28.7349 15.7411 27.1574 16.397 25.8376 17.7089C24.5178 19.0207 23.8579 20.5943 23.8579 22.4297C23.8579 24.2651 24.5138 25.8426 25.8256 27.1624C27.1374 28.4822 28.7111 29.1421 30.5464 29.1421Z" fill="#0984DE"/>
</svg>
