<svg width="53" height="43" viewBox="0 0 53 43" fill="none" xmlns="http://www.w3.org/2000/svg">
<path d="M52.7344 21.3672C52.7344 33.168 43.168 42.7344 31.3672 42.7344C19.5664 42.7344 10 33.168 10 21.3672C10 9.56642 19.5664 0 31.3672 0C43.168 0 52.7344 9.56642 52.7344 21.3672Z" fill="#A3CDFF" fill-opacity="0.6"/>
<path d="M9.69657 25.2744H13.8918L12.9815 20.1689C13.4301 19.9314 13.7929 19.6016 14.0699 19.1794C14.347 18.7573 14.4855 18.2955 14.4855 17.7942C14.4855 17.0504 14.2234 16.416 13.6992 15.8907C13.175 15.3655 12.5417 15.1029 11.7995 15.1029C11.0572 15.1029 10.4222 15.3655 9.89446 15.8907C9.36675 16.416 9.1029 17.0504 9.1029 17.7942C9.1029 18.2955 9.24142 18.7573 9.51847 19.1794C9.79551 19.6016 10.1583 19.9314 10.6069 20.1689L9.69657 25.2744ZM11.7951 36C8.41718 35.0501 5.60686 33.0375 3.36412 29.9622C1.12137 26.8868 0 23.4113 0 19.5356V10.4327L11.7942 6L23.5884 10.4327V19.5184C23.5884 23.4085 22.4673 26.8905 20.2251 29.9644C17.983 33.0383 15.173 35.0501 11.7951 36ZM11.7942 33.7836C14.591 32.8602 16.8997 31.0726 18.7203 28.4208C20.5409 25.7691 21.4512 22.8111 21.4512 19.5466V11.8981L11.7942 8.29551L2.1372 11.8981V19.5466C2.1372 22.8111 3.04749 25.7691 4.86807 28.4208C6.68865 31.0726 8.99736 32.8602 11.7942 33.7836Z" fill="#0984DE"/>
</svg>
